<svg id="Warstwa_1" data-name="Warstwa 1" xmlns="http://www.w3.org/2000/svg" viewBox="0 0 200 325"><defs><style>.cls-1,.cls-4{fill:none;}.cls-1{stroke:#707070;}.cls-2{isolation:isolate;}.cls-3{fill:#3c3c3c;}.cls-4{stroke:#424242;stroke-linecap:round;stroke-linejoin:round;stroke-width:3px;}</style></defs><title>fundacje</title><line id="Line" class="cls-1" x1="66.01" y1="137.18" x2="136.01" y2="137.18"/><g id="Wybierz_rzeczy" data-name="Wybierz rzeczy" class="cls-2"><g class="cls-2"><path class="cls-3" d="M49.93,123.68H47.85V110.83H55.1v1.77H49.93v4h4.85v1.78H49.93Z"/><path class="cls-3" d="M67.5,110.83v8.31a4.89,4.89,0,0,1-.61,2.49,4.13,4.13,0,0,1-1.76,1.65,6.25,6.25,0,0,1-2.77.57,5.21,5.21,0,0,1-3.72-1.26,4.61,4.61,0,0,1-1.32-3.48v-8.28h2.11V119a3.23,3.23,0,0,0,.73,2.34,3,3,0,0,0,2.27.76q3,0,3-3.12v-8.11Z"/><path class="cls-3" d="M81.49,123.68H78.92L72.6,113.44h-.07l0,.57c.09,1.09.13,2.08.13,3v6.68H70.79V110.83h2.55L79.64,121h0c0-.13,0-.62-.07-1.47s-.05-1.51-.05-2v-6.73h1.92Z"/><path class="cls-3" d="M95.34,117.13A6.38,6.38,0,0,1,93.57,122a7.06,7.06,0,0,1-5.09,1.69H84.89V110.83h4a6.57,6.57,0,0,1,4.77,1.65A6.16,6.16,0,0,1,95.34,117.13Zm-2.22.07q0-4.62-4.31-4.62H87v9.33h1.49C91.58,121.91,93.12,120.34,93.12,117.2Z"/><path class="cls-3" d="M106.07,123.68l-1.28-3.57H99.87l-1.25,3.57H96.4l4.81-12.91h2.28l4.81,12.91Zm-1.84-5.38-1.2-3.5c-.09-.24-.21-.6-.37-1.11s-.26-.87-.32-1.11a20.67,20.67,0,0,1-.69,2.37l-1.16,3.35Z"/><path class="cls-3" d="M115.46,112.44a3.45,3.45,0,0,0-2.84,1.29,6.72,6.72,0,0,0,0,7.12,3.54,3.54,0,0,0,2.88,1.21,7.52,7.52,0,0,0,1.59-.16q.77-.16,1.59-.42v1.8a9.68,9.68,0,0,1-3.43.57,5.46,5.46,0,0,1-4.33-1.71,7.14,7.14,0,0,1-1.51-4.89,8,8,0,0,1,.73-3.51,5.26,5.26,0,0,1,2.12-2.3,6.46,6.46,0,0,1,3.26-.8,8.08,8.08,0,0,1,3.64.83l-.75,1.75a10.4,10.4,0,0,0-1.38-.54A4.81,4.81,0,0,0,115.46,112.44Z"/><path class="cls-3" d="M119.78,127.26a4,4,0,0,1-1.44-.22v-1.76a5.51,5.51,0,0,0,1.28.18c1.15,0,1.72-.73,1.72-2.18V110.83h2.11v12.38a4.37,4.37,0,0,1-.93,3A3.52,3.52,0,0,1,119.78,127.26Z"/><path class="cls-3" d="M138.19,117.23a7,7,0,0,1-1.57,4.88,5.65,5.65,0,0,1-4.44,1.74,5.72,5.72,0,0,1-4.47-1.72,7.09,7.09,0,0,1-1.56-4.91,7,7,0,0,1,1.57-4.89,5.78,5.78,0,0,1,4.48-1.71,5.65,5.65,0,0,1,4.43,1.74A7,7,0,0,1,138.19,117.23Zm-9.81,0a5.73,5.73,0,0,0,1,3.6,3.9,3.9,0,0,0,5.67,0,5.84,5.84,0,0,0,1-3.62,5.77,5.77,0,0,0-.94-3.58,3.33,3.33,0,0,0-2.82-1.22,3.39,3.39,0,0,0-2.85,1.22A5.7,5.7,0,0,0,128.38,117.23Z"/><path class="cls-3" d="M146.51,123.68l-3.73-10.74h-.07c.1,1.6.15,3.09.15,4.49v6.25H141V110.83h3l3.56,10.22h.06l3.67-10.22h3v12.85h-2v-6.36c0-.64,0-1.47.05-2.49s.06-1.65.08-1.87h-.07l-3.86,10.72Z"/></g></g><path class="cls-4" d="M101,56.79c.82-2.57,2.9-5.68,5.67-5.68,2.3,0,4.54,2,4.54,5.28,0,3.68-4.16,9.1-10.21,12.58C95,65.49,90.8,60.07,90.8,56.39c0-3.32,2.24-5.28,4.54-5.28C98.11,51.11,100.19,54.22,101,56.79Z"/><path class="cls-4" d="M122.7,62.59a2.55,2.55,0,1,0-5.1,0V80.46"/><path class="cls-4" d="M127.81,74.08V58.76a2.56,2.56,0,0,0-5.11,0V74.08"/><path class="cls-4" d="M127.81,61.32a2.55,2.55,0,1,1,5.1,0V74.08"/><path class="cls-4" d="M132.91,65.14a2.55,2.55,0,1,1,5.1,0V81.49a14.54,14.54,0,0,1-1,5.38l-.48,1.2a14.39,14.39,0,0,0-1,5.38v2.32"/><path class="cls-4" d="M120.15,95.77h0a9.24,9.24,0,0,0-2.71-6.54,14.66,14.66,0,0,1-2-2.46l-6.41-10.06h0a.26.26,0,0,1,0-.09,2.5,2.5,0,0,1-.34-1.28,2.56,2.56,0,0,1,4.54-1.61h0l4.4,5.43"/><path class="cls-4" d="M104.84,37.07a2.56,2.56,0,0,0,0,5.11H122.7"/><path class="cls-4" d="M116.32,32H101a2.55,2.55,0,0,0,0,5.1h15.31"/><path class="cls-4" d="M103.56,32a2.56,2.56,0,0,1,0-5.11h12.76"/><path class="cls-4" d="M107.39,26.86a2.55,2.55,0,1,1,0-5.1h16.35a14.39,14.39,0,0,1,5.38,1l1.2.48a14.58,14.58,0,0,0,5.38,1H138"/><path class="cls-4" d="M138,39.62h0a9.24,9.24,0,0,0-6.53,2.71,14.08,14.08,0,0,1-2.46,2L119,50.71h0a.13.13,0,0,1-.09,0,2.47,2.47,0,0,1-1.27.35A2.56,2.56,0,0,1,116,46.57h0l5.43-4.39"/><path class="cls-4" d="M79.32,54.94a2.55,2.55,0,1,0,5.1,0V37.07"/><path class="cls-4" d="M74.22,43.45V58.76a2.55,2.55,0,1,0,5.1,0V43.45"/><path class="cls-4" d="M74.22,56.21a2.56,2.56,0,0,1-5.11,0V43.45"/><path class="cls-4" d="M69.11,52.38a2.55,2.55,0,1,1-5.1,0V36a14.62,14.62,0,0,1,1-5.38l.48-1.2a14.34,14.34,0,0,0,1-5.37V21.76"/><path class="cls-4" d="M81.87,21.76h0a9.2,9.2,0,0,0,2.71,6.53,14.56,14.56,0,0,1,2,2.46L93,40.82h0a.16.16,0,0,1,.05.09,2.48,2.48,0,0,1,.35,1.28,2.56,2.56,0,0,1-4.55,1.6h0l-4.4-5.43"/><path class="cls-4" d="M97.18,80.46a2.56,2.56,0,1,0,0-5.11H79.32"/><path class="cls-4" d="M85.7,85.56H101a2.55,2.55,0,0,0,0-5.1H85.7"/><path class="cls-4" d="M98.46,85.56a2.55,2.55,0,1,1,0,5.1H85.7"/><path class="cls-4" d="M94.63,90.66a2.56,2.56,0,0,1,0,5.11H78.28a14.39,14.39,0,0,1-5.38-1l-1.2-.48a14.54,14.54,0,0,0-5.38-1H64"/><path class="cls-4" d="M64,77.9h0a9.23,9.23,0,0,0,6.53-2.7,14.62,14.62,0,0,1,2.46-2l10.06-6.41h0l.09,0A2.55,2.55,0,0,1,86,71h0L80.6,75.35"/><path d="M58.35,184.07h-.48l-1.8-6.33c-.15-.52-.26-1-.34-1.28-.06.32-.14.7-.25,1.12s-.72,2.59-1.81,6.49h-.48l-2.26-8.21h.6L53,181.15c.05.21.1.41.15.59s.1.36.14.52.07.31.1.46l.09.44c.09-.51.28-1.28.57-2.32l1.41-5h.63l1.65,5.72c.19.66.32,1.19.4,1.59,0-.27.12-.55.19-.86L60,175.86h.57Z"/><path d="M69.17,184.07v-4a1.93,1.93,0,0,0-.39-1.34,1.56,1.56,0,0,0-1.2-.42,2.1,2.1,0,0,0-1.61.56,2.61,2.61,0,0,0-.5,1.79v3.37h-.56V178h.47l.11.83h0a2.31,2.31,0,0,1,2.12-1c1.38,0,2.08.74,2.08,2.23v4Z"/><path d="M75.4,184.07l-.14-1h-.05a2.84,2.84,0,0,1-.94.83,2.6,2.6,0,0,1-1.15.24,2,2,0,0,1-1.4-.46,1.64,1.64,0,0,1-.5-1.27,1.57,1.57,0,0,1,.75-1.39,4,4,0,0,1,2.15-.52l1.16,0v-.41a2.09,2.09,0,0,0-.35-1.31,1.37,1.37,0,0,0-1.14-.45,3.77,3.77,0,0,0-1.76.48l-.21-.49a4.71,4.71,0,0,1,2-.47,2,2,0,0,1,1.5.52,2.3,2.3,0,0,1,.5,1.63v4.06Zm-2.25-.39a2.09,2.09,0,0,0,1.54-.56,2.07,2.07,0,0,0,.57-1.55V181l-1.07,0a4.06,4.06,0,0,0-1.83.4,1.3,1.3,0,0,0-.2,2A1.45,1.45,0,0,0,73.15,183.68Z"/><path d="M81.57,182.48a1.45,1.45,0,0,1-.62,1.26,3,3,0,0,1-1.77.44,4.19,4.19,0,0,1-1.94-.37v-.6a4.36,4.36,0,0,0,1.94.46,2.55,2.55,0,0,0,1.37-.3.92.92,0,0,0,.47-.8,1,1,0,0,0-.37-.78,4.31,4.31,0,0,0-1.23-.62,7.08,7.08,0,0,1-1.29-.57,1.77,1.77,0,0,1-.55-.54,1.3,1.3,0,0,1-.19-.73,1.25,1.25,0,0,1,.57-1.08,2.78,2.78,0,0,1,1.61-.4,4.78,4.78,0,0,1,1.88.37l-.21.51a4.39,4.39,0,0,0-1.67-.38,2.43,2.43,0,0,0-1.18.25.76.76,0,0,0-.44.69.93.93,0,0,0,.34.76,4.52,4.52,0,0,0,1.33.64,6.5,6.5,0,0,1,1.2.54,1.71,1.71,0,0,1,.56.54A1.28,1.28,0,0,1,81.57,182.48Z"/><path d="M86.94,184.07H82.58v-.35l3.62-5.26H82.85V178h4.08v.35l-3.65,5.26h3.66Z"/><path d="M90.91,184.18a2.66,2.66,0,0,1-2.08-.82,3.3,3.3,0,0,1-.74-2.29,3.56,3.56,0,0,1,.72-2.34,2.36,2.36,0,0,1,1.94-.88,2.11,2.11,0,0,1,1.7.75,3.15,3.15,0,0,1,.62,2.05v.45h-4.4a3,3,0,0,0,.59,1.92,2.06,2.06,0,0,0,1.65.66,4.23,4.23,0,0,0,1.92-.39v.51a4.19,4.19,0,0,1-1,.3A4.78,4.78,0,0,1,90.91,184.18Zm-.16-5.84a1.84,1.84,0,0,0-1.42.59,2.74,2.74,0,0,0-.62,1.67h3.77a2.64,2.64,0,0,0-.46-1.66A1.52,1.52,0,0,0,90.75,178.34Z"/><path d="M93.94,186.83a1.75,1.75,0,0,1-.76-.14v-.48a2.44,2.44,0,0,0,.73.11c.56,0,.85-.33.85-1V178h.55v7.29a1.7,1.7,0,0,1-.36,1.16A1.23,1.23,0,0,1,93.94,186.83Zm.74-10.56c0-.36.11-.54.35-.54a.31.31,0,0,1,.27.14.85.85,0,0,1,0,.8.29.29,0,0,1-.27.15C94.79,176.82,94.68,176.64,94.68,176.27Z"/><path d="M102.92,177.85a2.33,2.33,0,0,1,1.93.81,3.68,3.68,0,0,1,.65,2.35,3.56,3.56,0,0,1-.69,2.35,2.33,2.33,0,0,1-1.91.82,2.53,2.53,0,0,1-1.18-.27,2.07,2.07,0,0,1-.82-.76h-.05l-.16.92h-.35v-8.74h.56v2.2c0,.33,0,.63,0,.91l0,.48h0a2.16,2.16,0,0,1,.84-.81A2.54,2.54,0,0,1,102.92,177.85Zm0,.5a1.83,1.83,0,0,0-1.55.62,3.47,3.47,0,0,0-.46,2v.1a3.2,3.2,0,0,0,.48,2,1.85,1.85,0,0,0,1.52.6,1.72,1.72,0,0,0,1.5-.7,3.34,3.34,0,0,0,.51-2C104.91,179.24,104.24,178.35,102.91,178.35Z"/><path d="M110.89,184.07l-.14-1h0a2.86,2.86,0,0,1-.95.83,2.57,2.57,0,0,1-1.15.24,2,2,0,0,1-1.4-.46,1.64,1.64,0,0,1-.49-1.27,1.56,1.56,0,0,1,.74-1.39,4,4,0,0,1,2.15-.52l1.17,0v-.41a2,2,0,0,0-.36-1.31,1.35,1.35,0,0,0-1.14-.45,3.8,3.8,0,0,0-1.76.48l-.2-.49a4.7,4.7,0,0,1,2-.47,2,2,0,0,1,1.51.52,2.3,2.3,0,0,1,.49,1.63v4.06Zm-2.24-.39a1.94,1.94,0,0,0,2.1-2.11V181l-1.06,0a4.15,4.15,0,0,0-1.84.4,1.17,1.17,0,0,0-.55,1.06,1.12,1.12,0,0,0,.36.89A1.42,1.42,0,0,0,108.65,183.68Z"/><path d="M117.08,184.07h-4.36v-.35l3.62-5.26H113V178h4.08v.35l-3.64,5.26h3.66Z"/><path d="M118.5,176.27q0-.54.36-.54a.33.33,0,0,1,.27.14.85.85,0,0,1,0,.8.32.32,0,0,1-.27.15C118.62,176.82,118.5,176.64,118.5,176.27Zm.64,7.8h-.56V178h.56Z"/><path d="M123.65,184.18a2.66,2.66,0,0,1-2.08-.82,3.25,3.25,0,0,1-.74-2.29,3.56,3.56,0,0,1,.72-2.34,2.34,2.34,0,0,1,1.93-.88,2.08,2.08,0,0,1,1.7.75,3.1,3.1,0,0,1,.63,2.05v.45h-4.4A2.9,2.9,0,0,0,122,183a2.06,2.06,0,0,0,1.65.66,6,6,0,0,0,.91-.07,5.91,5.91,0,0,0,1-.32v.51a4.34,4.34,0,0,1-1,.3A4.78,4.78,0,0,1,123.65,184.18Zm-.17-5.84a1.8,1.8,0,0,0-1.41.59,2.68,2.68,0,0,0-.63,1.67h3.78a2.71,2.71,0,0,0-.46-1.66A1.52,1.52,0,0,0,123.48,178.34Z"/><path d="M134.28,184.07h-4.36v-.35l3.62-5.26h-3.36V178h4.08v.35l-3.64,5.26h3.66Z"/><path d="M140,184.07v-4a1.93,1.93,0,0,0-.39-1.34,1.56,1.56,0,0,0-1.2-.42,2.1,2.1,0,0,0-1.61.56,2.66,2.66,0,0,0-.5,1.79v3.37h-.56V178h.47l.11.83h0a2.31,2.31,0,0,1,2.12-1c1.38,0,2.08.74,2.08,2.23v4Z"/><path d="M146.27,184.07l-.14-1h0a2.84,2.84,0,0,1-.94.83,2.6,2.6,0,0,1-1.15.24,2,2,0,0,1-1.4-.46,1.64,1.64,0,0,1-.5-1.27,1.57,1.57,0,0,1,.75-1.39,4,4,0,0,1,2.15-.52l1.16,0v-.41a2.09,2.09,0,0,0-.35-1.31,1.37,1.37,0,0,0-1.14-.45,3.77,3.77,0,0,0-1.76.48l-.21-.49a4.71,4.71,0,0,1,2-.47,2,2,0,0,1,1.5.52,2.3,2.3,0,0,1,.5,1.63v4.06Zm-2.25-.39a2.09,2.09,0,0,0,1.54-.56,2.07,2.07,0,0,0,.57-1.55V181l-1.07,0a4.06,4.06,0,0,0-1.83.4,1.3,1.3,0,0,0-.2,2A1.45,1.45,0,0,0,144,183.68Z"/><path d="M147.84,186.83a1.75,1.75,0,0,1-.76-.14v-.48a2.44,2.44,0,0,0,.73.11c.56,0,.85-.33.85-1V178h.55v7.29a1.75,1.75,0,0,1-.35,1.16A1.26,1.26,0,0,1,147.84,186.83Zm.74-10.56c0-.36.12-.54.35-.54a.31.31,0,0,1,.27.14.85.85,0,0,1,0,.8.29.29,0,0,1-.27.15C148.7,176.82,148.58,176.64,148.58,176.27Z"/><path d="M150.75,181.2v-.46h2.67v.46Z"/><path d="M43.27,191.65a2.52,2.52,0,0,1,1.14.24,2.27,2.27,0,0,1,.87.83h0c0-.48,0-.94,0-1.39v-2.2h.55v8.74h-.37l-.14-.93h0a2.25,2.25,0,0,1-2,1,2.4,2.4,0,0,1-1.93-.78,3.44,3.44,0,0,1-.67-2.29,3.81,3.81,0,0,1,.66-2.42A2.32,2.32,0,0,1,43.27,191.65Zm0,.5a1.71,1.71,0,0,0-1.5.71,3.4,3.4,0,0,0-.51,2c0,1.74.68,2.6,2,2.6a1.85,1.85,0,0,0,1.52-.6,3.2,3.2,0,0,0,.48-2v-.1a3.35,3.35,0,0,0-.48-2A1.78,1.78,0,0,0,43.27,192.15Z"/><path d="M51.67,197.87H47.32v-.35l3.62-5.26H47.58v-.49h4.08v.35L48,197.38h3.65Z"/><path d="M53.1,190.07c0-.36.12-.54.35-.54a.34.34,0,0,1,.28.14.85.85,0,0,1,0,.8.32.32,0,0,1-.28.15C53.22,190.62,53.1,190.43,53.1,190.07Zm.64,7.8h-.56v-6.1h.56Z"/><path d="M58.24,198a2.65,2.65,0,0,1-2.07-.82,3.26,3.26,0,0,1-.75-2.29,3.56,3.56,0,0,1,.72-2.34,2.37,2.37,0,0,1,1.94-.88,2.08,2.08,0,0,1,1.7.75,3.1,3.1,0,0,1,.63,2v.44H56a2.91,2.91,0,0,0,.59,1.93,2.05,2.05,0,0,0,1.64.66,6.05,6.05,0,0,0,.92-.07,5.58,5.58,0,0,0,1-.32v.51a4.12,4.12,0,0,1-.95.3A4.82,4.82,0,0,1,58.24,198Zm-.16-5.84a1.83,1.83,0,0,0-1.41.58A2.74,2.74,0,0,0,56,194.4h3.78a2.71,2.71,0,0,0-.46-1.66A1.53,1.53,0,0,0,58.08,192.14Z"/><path d="M65.88,196.28a1.44,1.44,0,0,1-.63,1.26,3,3,0,0,1-1.77.44,4.24,4.24,0,0,1-1.94-.37V197a4.36,4.36,0,0,0,1.94.46,2.59,2.59,0,0,0,1.38-.3.91.91,0,0,0,.46-.8,1,1,0,0,0-.37-.78,4.31,4.31,0,0,0-1.23-.62,6.9,6.9,0,0,1-1.28-.57,1.82,1.82,0,0,1-.56-.54,1.3,1.3,0,0,1-.19-.73,1.24,1.24,0,0,1,.58-1.08,2.76,2.76,0,0,1,1.61-.4,4.76,4.76,0,0,1,1.87.37l-.21.51a4.35,4.35,0,0,0-1.66-.38,2.48,2.48,0,0,0-1.19.25.78.78,0,0,0-.44.69,1,1,0,0,0,.34.76,4.65,4.65,0,0,0,1.33.64,6.5,6.5,0,0,1,1.2.54,1.86,1.86,0,0,1,.57.54A1.37,1.37,0,0,1,65.88,196.28Z"/><path d="M71.24,197.87H66.89v-.35l3.62-5.26H67.15v-.49h4.08v.35l-3.64,5.26h3.65Z"/><path d="M76.29,197.87h-.55v-8.74h.55Z"/><path d="M78.26,190.07c0-.36.12-.54.35-.54a.31.31,0,0,1,.27.14.85.85,0,0,1,0,.8.29.29,0,0,1-.27.15C78.38,190.62,78.26,190.43,78.26,190.07Zm.63,7.8h-.55v-6.1h.55Z"/><path d="M84.72,196.28a1.45,1.45,0,0,1-.62,1.26,3,3,0,0,1-1.77.44,4.26,4.26,0,0,1-2-.37V197a4.43,4.43,0,0,0,2,.46,2.55,2.55,0,0,0,1.37-.3.92.92,0,0,0,.47-.8,1,1,0,0,0-.37-.78,4.31,4.31,0,0,0-1.23-.62,7.08,7.08,0,0,1-1.29-.57,1.93,1.93,0,0,1-.56-.54,1.39,1.39,0,0,1-.18-.73,1.25,1.25,0,0,1,.57-1.08,2.78,2.78,0,0,1,1.61-.4,4.78,4.78,0,0,1,1.88.37l-.21.51a4.39,4.39,0,0,0-1.67-.38,2.43,2.43,0,0,0-1.18.25.76.76,0,0,0-.44.69.93.93,0,0,0,.34.76,4.52,4.52,0,0,0,1.33.64A6.5,6.5,0,0,1,84,195a1.71,1.71,0,0,1,.56.54A1.28,1.28,0,0,1,84.72,196.28Z"/><path d="M87.9,197.49a4.09,4.09,0,0,0,.92-.09v.45a2.9,2.9,0,0,1-.93.13,1.51,1.51,0,0,1-1.19-.43,2,2,0,0,1-.39-1.36v-3.94h-.9v-.32l.9-.26.29-1.38h.28v1.48h1.79v.48H86.88v3.86a1.71,1.71,0,0,0,.25,1A.87.87,0,0,0,87.9,197.49Z"/><path d="M92.61,198a2.66,2.66,0,0,1-2.08-.82,3.3,3.3,0,0,1-.74-2.29,3.56,3.56,0,0,1,.72-2.34,2.36,2.36,0,0,1,1.94-.88,2.1,2.1,0,0,1,1.7.75,3.15,3.15,0,0,1,.62,2v.44h-4.4a3,3,0,0,0,.59,1.93,2.06,2.06,0,0,0,1.65.66,6.16,6.16,0,0,0,.92-.07,5.85,5.85,0,0,0,1-.32v.51a4.12,4.12,0,0,1-1,.3A5,5,0,0,1,92.61,198Zm-.16-5.84a1.87,1.87,0,0,0-1.42.58,2.79,2.79,0,0,0-.62,1.68h3.77a2.64,2.64,0,0,0-.46-1.66A1.52,1.52,0,0,0,92.45,192.14Zm.89,6.92a.53.53,0,0,0,.6.61,1.51,1.51,0,0,0,.46-.06v.47a1.57,1.57,0,0,1-.58.09,1,1,0,0,1-.75-.27,1,1,0,0,1-.28-.75,1.49,1.49,0,0,1,.22-.78,2.46,2.46,0,0,1,.63-.71h.51a3.59,3.59,0,0,0-.61.67A1.4,1.4,0,0,0,93.34,199.06Z"/><path d="M103.24,197.87H98.88v-.35l3.62-5.26H99.15v-.49h4.08v.35l-3.65,5.26h3.66Z"/><path d="M109.62,197.87l-1.33-4.08c-.09-.28-.2-.68-.33-1.22h0l-.12.42-.25.81-1.36,4.07h-.55l-1.74-6.1h.59l1,3.54c.23.87.38,1.52.45,1.93h0c.22-.88.38-1.46.48-1.75l1.26-3.72h.51l1.19,3.71c.27.88.44,1.46.5,1.75h0c0-.25.18-.9.45-2l.93-3.5h.56l-1.65,6.1Z"/><path d="M115.53,198a2.66,2.66,0,0,1-2.08-.82,3.25,3.25,0,0,1-.74-2.29,3.61,3.61,0,0,1,.71-2.34,2.37,2.37,0,0,1,1.94-.88,2.08,2.08,0,0,1,1.7.75,3.1,3.1,0,0,1,.63,2v.44h-4.4a2.91,2.91,0,0,0,.59,1.93,2.06,2.06,0,0,0,1.65.66,6,6,0,0,0,.91-.07,5.91,5.91,0,0,0,1-.32v.51a4.34,4.34,0,0,1-1,.3A4.78,4.78,0,0,1,115.53,198Zm-.17-5.84a1.83,1.83,0,0,0-1.41.58,2.74,2.74,0,0,0-.63,1.68h3.78a2.71,2.71,0,0,0-.46-1.66A1.52,1.52,0,0,0,115.36,192.14Z"/><path d="M121.78,191.65a5.15,5.15,0,0,1,.83.08l-.11.53a3.42,3.42,0,0,0-.79-.09,1.54,1.54,0,0,0-1.28.66,2.65,2.65,0,0,0-.5,1.67v3.37h-.56v-6.1h.47l.06,1.1h0a2.62,2.62,0,0,1,.8-1A1.92,1.92,0,0,1,121.78,191.65Z"/><path d="M122.83,191.77h.57l1.29,3.42q.59,1.58.75,2.13h0c.16-.48.41-1.2.77-2.16l1.29-3.39h.57l-2.73,7.09a5.32,5.32,0,0,1-.56,1.17,1.47,1.47,0,0,1-.52.45,1.61,1.61,0,0,1-.73.15,2.41,2.41,0,0,1-.71-.11V200a2.58,2.58,0,0,0,.7.09.91.91,0,0,0,.5-.13,1.25,1.25,0,0,0,.4-.42,5,5,0,0,0,.41-.9c.16-.41.26-.68.3-.8Z"/><path d="M131.39,192.25H130v5.62h-.56v-5.62h-1.13v-.32l1.13-.21v-.47a2.7,2.7,0,0,1,.41-1.65,1.63,1.63,0,0,1,1.35-.53,3.48,3.48,0,0,1,1,.15l-.12.49a2.82,2.82,0,0,0-.9-.14,1,1,0,0,0-.92.38,2.23,2.23,0,0,0-.27,1.25v.57h1.43Zm1.1-2.18q0-.54.36-.54a.32.32,0,0,1,.27.14.85.85,0,0,1,0,.8.31.31,0,0,1-.27.15C132.61,190.62,132.49,190.43,132.49,190.07Zm.64,7.8h-.56v-6.1h.56Z"/><path d="M135.72,195.19l3.12-3.42h.67l-2.41,2.6,2.62,3.5h-.67l-2.32-3.08-1,.91v2.17h-.56v-8.74h.56v4.38l0,1.68Z"/><path d="M145.79,194.81a3.46,3.46,0,0,1-.73,2.33,2.5,2.5,0,0,1-2,.84,2.66,2.66,0,0,1-1.41-.38,2.48,2.48,0,0,1-.94-1.12,4,4,0,0,1-.33-1.67,3.48,3.48,0,0,1,.73-2.33,2.5,2.5,0,0,1,2-.83,2.46,2.46,0,0,1,2,.84A3.48,3.48,0,0,1,145.79,194.81Zm-4.82,0a3.09,3.09,0,0,0,.55,2,2.08,2.08,0,0,0,3.13,0,3.09,3.09,0,0,0,.55-2,3,3,0,0,0-.56-2,1.9,1.9,0,0,0-1.57-.7,1.86,1.86,0,0,0-1.55.7A3.07,3.07,0,0,0,141,194.81Z"/><path d="M152.36,197.87,151,193.79c-.09-.28-.2-.68-.33-1.22h0l-.11.42-.26.81-1.36,4.07h-.55l-1.74-6.1h.59l1,3.54c.23.87.38,1.52.45,1.93h0c.22-.88.39-1.46.49-1.75l1.25-3.72h.51l1.2,3.71c.27.88.43,1.46.49,1.75h0c0-.25.18-.9.45-2l.93-3.5h.57l-1.66,6.1Z"/><path d="M159.5,197.87l-.14-1h-.05a2.84,2.84,0,0,1-.94.83,2.6,2.6,0,0,1-1.15.24,2,2,0,0,1-1.4-.46,1.64,1.64,0,0,1-.5-1.27,1.58,1.58,0,0,1,.74-1.39,4.09,4.09,0,0,1,2.16-.52l1.16,0v-.41a2.09,2.09,0,0,0-.35-1.31,1.37,1.37,0,0,0-1.14-.45,3.77,3.77,0,0,0-1.76.48l-.21-.49a4.71,4.71,0,0,1,2-.47,2,2,0,0,1,1.5.52,2.3,2.3,0,0,1,.5,1.63v4.06Zm-2.25-.39a2.09,2.09,0,0,0,1.54-.56,2.07,2.07,0,0,0,.57-1.55v-.6l-1.07,0a4.06,4.06,0,0,0-1.83.4,1.3,1.3,0,0,0-.2,1.95A1.45,1.45,0,0,0,157.25,197.48Z"/><path d="M161.38,195v-.46h2.67V195Z"/><path d="M46.24,211.67v-4a1.93,1.93,0,0,0-.38-1.34,1.56,1.56,0,0,0-1.2-.42,2.08,2.08,0,0,0-1.61.56,2.59,2.59,0,0,0-.51,1.79v3.37H42v-6.1h.47l.11.83h0a2.31,2.31,0,0,1,2.12-1c1.38,0,2.07.74,2.07,2.23v4Z"/><path d="M47.75,205.57h.57L49.61,209q.6,1.57.75,2.13h0c.16-.48.42-1.2.77-2.16l1.29-3.39H53l-2.74,7.09a5.42,5.42,0,0,1-.55,1.17,1.5,1.5,0,0,1-.53.45,1.61,1.61,0,0,1-.73.15,2.8,2.8,0,0,1-.71-.11v-.49a2.63,2.63,0,0,0,.7.09,1,1,0,0,0,.51-.13,1.14,1.14,0,0,0,.39-.42,5,5,0,0,0,.41-.9l.31-.8Z"/><path d="M56.49,211.78a2.6,2.6,0,0,1-2.05-.82,3.3,3.3,0,0,1-.74-2.3,3.41,3.41,0,0,1,.76-2.37,2.73,2.73,0,0,1,2.11-.84,4.35,4.35,0,0,1,1.52.27l-.15.5a4.39,4.39,0,0,0-1.38-.27,2.09,2.09,0,0,0-1.7.7,3,3,0,0,0-.58,2,2.94,2.94,0,0,0,.58,1.94,2,2,0,0,0,1.62.7A4,4,0,0,0,58,211v.52A3.52,3.52,0,0,1,56.49,211.78Z"/><path d="M63.77,211.67v-4a1.93,1.93,0,0,0-.39-1.34,1.56,1.56,0,0,0-1.2-.42,2.07,2.07,0,0,0-1.6.56,2.59,2.59,0,0,0-.51,1.79v3.37h-.56v-8.74h.56v2.78l0,.78h0a2.05,2.05,0,0,1,.87-.79,2.91,2.91,0,0,1,1.29-.25c1.39,0,2.08.74,2.08,2.23v4Z"/><path d="M70,211.67h-.58v-8.21h4.5V204H70v3.48h3.7V208H70Z"/><path d="M75.54,205.57v4a1.93,1.93,0,0,0,.39,1.34,1.55,1.55,0,0,0,1.2.42,2.08,2.08,0,0,0,1.6-.55,2.6,2.6,0,0,0,.52-1.79v-3.37h.55v6.1h-.48l-.1-.84h0a2.29,2.29,0,0,1-2.12.95c-1.39,0-2.08-.74-2.08-2.23v-4Z"/><path d="M86.1,211.67v-4a1.93,1.93,0,0,0-.39-1.34,1.56,1.56,0,0,0-1.2-.42,2.1,2.1,0,0,0-1.61.56,2.59,2.59,0,0,0-.5,1.79v3.37h-.56v-6.1h.47l.11.83h0a2.31,2.31,0,0,1,2.12-1c1.38,0,2.08.74,2.08,2.23v4Z"/><path d="M90.86,205.45a2.52,2.52,0,0,1,1.14.24,2.35,2.35,0,0,1,.87.83h0c0-.48,0-.94,0-1.39v-2.2h.55v8.74h-.37l-.14-.93h0a2.28,2.28,0,0,1-2,1,2.4,2.4,0,0,1-1.93-.78,3.44,3.44,0,0,1-.67-2.29,3.81,3.81,0,0,1,.66-2.42A2.32,2.32,0,0,1,90.86,205.45Zm0,.5a1.71,1.71,0,0,0-1.5.71,3.4,3.4,0,0,0-.51,2c0,1.74.68,2.6,2,2.6a1.81,1.81,0,0,0,1.51-.6,3.13,3.13,0,0,0,.49-2v-.1a3.35,3.35,0,0,0-.48-2A1.78,1.78,0,0,0,90.86,206Z"/><path d="M99.17,211.67l-.14-1h0a2.86,2.86,0,0,1-.95.83,2.54,2.54,0,0,1-1.15.24,1.94,1.94,0,0,1-1.39-.46,1.61,1.61,0,0,1-.5-1.27,1.56,1.56,0,0,1,.74-1.39,4,4,0,0,1,2.15-.52l1.17,0v-.41a2,2,0,0,0-.36-1.31,1.35,1.35,0,0,0-1.14-.45,3.8,3.8,0,0,0-1.76.48l-.2-.49a4.7,4.7,0,0,1,2-.47,2,2,0,0,1,1.51.52,2.3,2.3,0,0,1,.49,1.63v4.06Zm-2.24-.39a1.94,1.94,0,0,0,2.1-2.11v-.6l-1.06,0a4.15,4.15,0,0,0-1.84.4,1.17,1.17,0,0,0-.54,1.06,1.12,1.12,0,0,0,.35.89A1.42,1.42,0,0,0,96.93,211.28Z"/><path d="M104,211.78a2.61,2.61,0,0,1-2-.82,3.3,3.3,0,0,1-.74-2.3,3.37,3.37,0,0,1,.77-2.37,2.7,2.7,0,0,1,2.1-.84,4.35,4.35,0,0,1,1.52.27l-.15.5a4.39,4.39,0,0,0-1.38-.27,2.09,2.09,0,0,0-1.7.7,3,3,0,0,0-.58,2,2.94,2.94,0,0,0,.58,1.94,2,2,0,0,0,1.62.7,4,4,0,0,0,1.54-.3v.52A3.52,3.52,0,0,1,104,211.78Z"/><path d="M106.21,214.43a1.75,1.75,0,0,1-.76-.14v-.48a2.44,2.44,0,0,0,.73.11q.84,0,.84-1v-7.36h.56v7.29a1.7,1.7,0,0,1-.36,1.16A1.23,1.23,0,0,1,106.21,214.43Zm.74-10.56c0-.36.11-.54.35-.54a.31.31,0,0,1,.27.14.85.85,0,0,1,0,.8.29.29,0,0,1-.27.15C107.06,204.42,107,204.23,107,203.87Z"/><path d="M109.55,203.87c0-.36.11-.54.35-.54a.32.32,0,0,1,.27.14.85.85,0,0,1,0,.8.31.31,0,0,1-.27.15C109.66,204.42,109.55,204.23,109.55,203.87Zm.63,7.8h-.56v-6.1h.56Z"/><path d="M112.86,210.34l.06.11a18.42,18.42,0,0,1-1,2.7h-.37a22,22,0,0,0,.62-2.81Z"/><path d="M121.48,211.67h-4.36v-.35l3.62-5.26h-3.36v-.49h4.09v.35l-3.65,5.26h3.66Z"/><path d="M126.51,209l3.12-3.42h.67l-2.4,2.6,2.61,3.5h-.67l-2.32-3.08-1,.91v2.17H126v-8.74h.56v4.38l0,1.68Z"/><path d="M133.15,211.29a4.22,4.22,0,0,0,.92-.09v.45a3,3,0,0,1-.94.13,1.51,1.51,0,0,1-1.19-.43,2,2,0,0,1-.38-1.36v-3.94h-.91v-.33l.91-.25.28-1.38h.28v1.48h1.79v.48h-1.79v3.86a1.79,1.79,0,0,0,.25,1A.89.89,0,0,0,133.15,211.29Z"/><path d="M140.43,208.61a3.46,3.46,0,0,1-.72,2.33,2.5,2.5,0,0,1-2,.84,2.63,2.63,0,0,1-1.41-.38,2.48,2.48,0,0,1-.94-1.12,4,4,0,0,1-.33-1.67,3.42,3.42,0,0,1,.73-2.33,2.5,2.5,0,0,1,2-.83,2.46,2.46,0,0,1,2,.84A3.48,3.48,0,0,1,140.43,208.61Zm-4.81,0a3.09,3.09,0,0,0,.55,2,2.08,2.08,0,0,0,3.13,0,3.74,3.74,0,0,0,0-3.92,2.1,2.1,0,0,0-3.13,0A3.11,3.11,0,0,0,135.62,208.61Zm1.55-4q.41-.44.81-1a7,7,0,0,0,.55-.79h.79v.1a7.36,7.36,0,0,1-.69.77c-.32.32-.68.65-1.07,1h-.39Z"/><path d="M144.53,205.45a5,5,0,0,1,.83.08l-.11.53a3.42,3.42,0,0,0-.79-.09,1.54,1.54,0,0,0-1.28.66,2.72,2.72,0,0,0-.5,1.67v3.37h-.56v-6.1h.48l.05,1.1h0a2.54,2.54,0,0,1,.81-.95A1.86,1.86,0,0,1,144.53,205.45Z"/><path d="M145.58,205.57h.57l1.29,3.42c.4,1,.64,1.76.75,2.13h0c.16-.48.42-1.2.77-2.16l1.29-3.39h.58l-2.74,7.09a5.42,5.42,0,0,1-.55,1.17,1.5,1.5,0,0,1-.53.45,1.61,1.61,0,0,1-.73.15,2.8,2.8,0,0,1-.71-.11v-.49a2.63,2.63,0,0,0,.7.09,1,1,0,0,0,.51-.13,1.23,1.23,0,0,0,.39-.42,5,5,0,0,0,.41-.9c.16-.41.26-.68.3-.8Z"/><path d="M159.5,211.67v-4a2,2,0,0,0-.34-1.31,1.35,1.35,0,0,0-1.07-.41,1.76,1.76,0,0,0-1.39.52,2.45,2.45,0,0,0-.45,1.62v3.58h-.56V207.5c0-1-.48-1.55-1.42-1.55a1.68,1.68,0,0,0-1.4.56,2.94,2.94,0,0,0-.44,1.79v3.37h-.55v-6.1h.46l.12.83h0a1.8,1.8,0,0,1,.72-.7,2.09,2.09,0,0,1,1-.25,1.75,1.75,0,0,1,1.85,1.08h0a2.12,2.12,0,0,1,.8-.8,2.3,2.3,0,0,1,1.15-.28,2,2,0,0,1,1.49.53,2.4,2.4,0,0,1,.5,1.7v4Z"/><path d="M162,203.87q0-.54.36-.54a.33.33,0,0,1,.27.14.85.85,0,0,1,0,.8.32.32,0,0,1-.27.15C162.07,204.42,162,204.23,162,203.87Zm.64,7.8H162v-6.1h.56Z"/><path d="M64.89,225.47l-1.33-4.08c-.09-.28-.2-.68-.34-1.22h0l-.12.42-.25.81-1.36,4.07h-.55l-1.75-6.1h.6l1,3.53c.23.88.38,1.53.45,1.94h0c.22-.88.38-1.46.48-1.75L63,219.37h.51l1.19,3.71c.27.88.44,1.46.5,1.75h0c0-.25.18-.9.45-2l.93-3.5h.56l-1.65,6.1Z"/><path d="M72.11,223.88a1.43,1.43,0,0,1-.62,1.26,3,3,0,0,1-1.77.44,4.24,4.24,0,0,1-1.94-.37v-.6a4.36,4.36,0,0,0,1.94.46,2.55,2.55,0,0,0,1.37-.3.9.9,0,0,0,.47-.8,1,1,0,0,0-.37-.78,4.31,4.31,0,0,0-1.23-.62,6.6,6.6,0,0,1-1.28-.57,1.71,1.71,0,0,1-.56-.54,1.3,1.3,0,0,1-.19-.73,1.23,1.23,0,0,1,.58-1.08,2.74,2.74,0,0,1,1.6-.4,4.78,4.78,0,0,1,1.88.37l-.21.51a4.35,4.35,0,0,0-1.67-.38,2.46,2.46,0,0,0-1.18.25.77.77,0,0,0-.44.69.93.93,0,0,0,.34.76,4.94,4.94,0,0,0,1.33.64,6.5,6.5,0,0,1,1.2.54,1.86,1.86,0,0,1,.57.54A1.36,1.36,0,0,1,72.11,223.88Z"/><path d="M76.3,225.58a2.24,2.24,0,0,1-2.06-1.05h0l0,.47c0,.28,0,.58,0,.91v2.32h-.55v-8.86h.47l.1.87h0a2.21,2.21,0,0,1,2-1,2.26,2.26,0,0,1,1.88.81,3.73,3.73,0,0,1,.65,2.36,3.62,3.62,0,0,1-.68,2.34A2.3,2.3,0,0,1,76.3,225.58Zm0-.49a1.7,1.7,0,0,0,1.45-.7,3.23,3.23,0,0,0,.51-1.95c0-1.79-.65-2.69-1.94-2.69a2,2,0,0,0-1.57.59,3,3,0,0,0-.5,1.91v.18a3.38,3.38,0,0,0,.48,2A1.86,1.86,0,0,0,76.29,225.09Z"/><path d="M85.58,222.41a3.41,3.41,0,0,1-.73,2.33,2.48,2.48,0,0,1-2,.84,2.67,2.67,0,0,1-1.42-.38,2.48,2.48,0,0,1-.94-1.12,4.15,4.15,0,0,1-.32-1.67,3.47,3.47,0,0,1,.72-2.33,2.52,2.52,0,0,1,2-.83,2.44,2.44,0,0,1,2,.84A3.48,3.48,0,0,1,85.58,222.41Zm-4.82,0a3.15,3.15,0,0,0,.55,2,2.08,2.08,0,0,0,3.13,0,3.71,3.71,0,0,0,0-3.92,1.93,1.93,0,0,0-1.57-.7,1.87,1.87,0,0,0-1.56.7A3,3,0,0,0,80.76,222.41Zm1.55-4q.41-.43.81-1a7,7,0,0,0,.55-.79h.79v.1a5.58,5.58,0,0,1-.69.77c-.32.32-.68.65-1.07,1h-.39Z"/><path d="M87.83,220.88l.85-.57.25.39-1.1.73v4h-.56V221.8l-.72.49-.26-.41,1-.64v-4.51h.56Z"/><path d="M92.48,225.58a2.25,2.25,0,0,1-2.06-1.05h0V225c0,.28,0,.58,0,.91v2.32h-.55v-8.86h.47l.11.87h0a2.21,2.21,0,0,1,2-1,2.3,2.3,0,0,1,1.89.81,3.73,3.73,0,0,1,.64,2.36,3.57,3.57,0,0,1-.68,2.34A2.27,2.27,0,0,1,92.48,225.58Zm0-.49a1.69,1.69,0,0,0,1.45-.7,3.23,3.23,0,0,0,.51-1.95c0-1.79-.64-2.69-1.94-2.69a2,2,0,0,0-1.57.59,3,3,0,0,0-.5,1.91v.18a3.38,3.38,0,0,0,.48,2A1.88,1.88,0,0,0,92.47,225.09Z"/><path d="M99.12,219.25a5,5,0,0,1,.83.08l-.11.53a3.42,3.42,0,0,0-.79-.09,1.54,1.54,0,0,0-1.28.66,2.72,2.72,0,0,0-.5,1.67v3.37h-.56v-6.1h.48l0,1.1h0a2.62,2.62,0,0,1,.8-.95A1.92,1.92,0,0,1,99.12,219.25Z"/><path d="M104.9,225.47l-.14-1h-.05a2.86,2.86,0,0,1-.95.83,2.52,2.52,0,0,1-1.14.24,2,2,0,0,1-1.4-.46,1.61,1.61,0,0,1-.5-1.27,1.58,1.58,0,0,1,.74-1.39,4.08,4.08,0,0,1,2.15-.52l1.17,0v-.41a2,2,0,0,0-.36-1.31,1.35,1.35,0,0,0-1.14-.45,3.73,3.73,0,0,0-1.75.48l-.21-.49a4.71,4.71,0,0,1,2-.47,2,2,0,0,1,1.5.52,2.3,2.3,0,0,1,.49,1.63v4.06Zm-2.25-.39a2.11,2.11,0,0,0,1.54-.56,2.07,2.07,0,0,0,.57-1.55v-.6l-1.07,0a4.15,4.15,0,0,0-1.84.4,1.17,1.17,0,0,0-.54,1.06,1.12,1.12,0,0,0,.35.89A1.42,1.42,0,0,0,102.65,225.08Z"/><path d="M109.72,225.58a2.61,2.61,0,0,1-2-.82,3.3,3.3,0,0,1-.74-2.3,3.37,3.37,0,0,1,.77-2.37,2.7,2.7,0,0,1,2.1-.84,4.31,4.31,0,0,1,1.52.27l-.15.5a4.39,4.39,0,0,0-1.38-.27,2.1,2.1,0,0,0-1.7.7,3.06,3.06,0,0,0-.58,2,3,3,0,0,0,.58,1.94,2,2,0,0,0,1.62.7,3.92,3.92,0,0,0,1.54-.3v.52A3.52,3.52,0,0,1,109.72,225.58Z"/><path d="M113.23,219.37v3.95a1.93,1.93,0,0,0,.39,1.34,1.53,1.53,0,0,0,1.2.42,2.12,2.12,0,0,0,1.6-.55,2.6,2.6,0,0,0,.51-1.79v-3.37h.56v6.1H117l-.1-.84h0a2.31,2.31,0,0,1-2.12,1c-1.39,0-2.08-.74-2.08-2.23v-4Z"/><path d="M118.71,228.23a1.7,1.7,0,0,1-.75-.14v-.48a2.74,2.74,0,0,0,.72.11c.57,0,.85-.33.85-1v-7.36h.56v7.29a1.7,1.7,0,0,1-.36,1.16A1.26,1.26,0,0,1,118.71,228.23Zm.74-10.56c0-.36.12-.54.35-.54a.34.34,0,0,1,.28.14.93.93,0,0,1,0,.8.32.32,0,0,1-.28.15C119.57,218.22,119.45,218,119.45,217.67Z"/><path d="M124.59,225.58a2.64,2.64,0,0,1-2.07-.82,3.26,3.26,0,0,1-.75-2.29,3.56,3.56,0,0,1,.72-2.34,2.37,2.37,0,0,1,1.94-.88,2.08,2.08,0,0,1,1.7.75,3.08,3.08,0,0,1,.63,2.05v.44h-4.4a2.91,2.91,0,0,0,.59,1.93,2.05,2.05,0,0,0,1.64.66,6.05,6.05,0,0,0,.92-.07,5.58,5.58,0,0,0,1-.32v.51a4.12,4.12,0,0,1-1,.3A4.82,4.82,0,0,1,124.59,225.58Zm-.16-5.84a1.83,1.83,0,0,0-1.41.58,2.74,2.74,0,0,0-.63,1.68h3.78a2.71,2.71,0,0,0-.46-1.66A1.53,1.53,0,0,0,124.43,219.74Z"/><path d="M136.07,225.47v-4a2,2,0,0,0-.35-1.31,1.34,1.34,0,0,0-1.07-.41,1.77,1.77,0,0,0-1.39.52,2.45,2.45,0,0,0-.45,1.62v3.58h-.56V221.3c0-1-.47-1.55-1.42-1.55a1.69,1.69,0,0,0-1.4.56,3,3,0,0,0-.43,1.79v3.37h-.56v-6.1h.46l.12.83h0a1.8,1.8,0,0,1,.72-.7,2.09,2.09,0,0,1,1-.25,1.75,1.75,0,0,1,1.85,1.08h0a2.12,2.12,0,0,1,.8-.8,2.3,2.3,0,0,1,1.15-.28,2,2,0,0,1,1.5.53,2.45,2.45,0,0,1,.5,1.7v4Z"/><path d="M137.57,219.37h.57l1.29,3.42q.6,1.58.75,2.13h0c.16-.48.42-1.2.77-2.16l1.3-3.39h.57l-2.74,7.09a5.42,5.42,0,0,1-.55,1.17,1.5,1.5,0,0,1-.53.45,1.59,1.59,0,0,1-.72.15,2.8,2.8,0,0,1-.72-.11v-.49a2.65,2.65,0,0,0,.71.09.93.93,0,0,0,.5-.13,1.25,1.25,0,0,0,.4-.42,6.94,6.94,0,0,0,.41-.9c.15-.41.25-.68.3-.8Z"/><path d="M143.76,225c0-.36.15-.55.45-.55s.46.19.46.55-.16.55-.46.55S143.76,225.4,143.76,225Z"/><path d="M45.86,239.27l-3.06-7.58h0c0,.46,0,.94,0,1.43v6.15h-.55v-8.21h.89l2.91,7.22h0L49,231.06h.87v8.21h-.58v-6.22c0-.44,0-.88.06-1.35h0l-3.07,7.57Z"/><path d="M57.08,236.21a3.46,3.46,0,0,1-.72,2.33,2.51,2.51,0,0,1-2,.84,2.67,2.67,0,0,1-1.42-.38,2.46,2.46,0,0,1-.93-1.12,4,4,0,0,1-.33-1.67,3.47,3.47,0,0,1,.72-2.33,2.53,2.53,0,0,1,2-.83,2.47,2.47,0,0,1,2,.84A3.53,3.53,0,0,1,57.08,236.21Zm-4.82,0a3.09,3.09,0,0,0,.56,2,2.07,2.07,0,0,0,3.12,0,3.71,3.71,0,0,0,0-3.92,1.92,1.92,0,0,0-1.57-.7,1.9,1.9,0,0,0-1.56.7A3.11,3.11,0,0,0,52.26,236.21Z"/><path d="M62.57,239.27H58.21v-.35l3.62-5.26H58.47v-.49h4.09v.35l-3.65,5.26h3.66Zm-2.43-7.8q0-.54.36-.54a.31.31,0,0,1,.27.14.85.85,0,0,1,0,.8.29.29,0,0,1-.27.15C60.26,232,60.14,231.83,60.14,231.47Z"/><path d="M66.54,239.38a2.66,2.66,0,0,1-2.08-.82,3.3,3.3,0,0,1-.74-2.29,3.56,3.56,0,0,1,.72-2.34,2.36,2.36,0,0,1,1.94-.88,2.11,2.11,0,0,1,1.7.75,3.13,3.13,0,0,1,.62,2v.44H64.3a3,3,0,0,0,.59,1.93,2.06,2.06,0,0,0,1.65.66,4.23,4.23,0,0,0,1.92-.39V239a4.19,4.19,0,0,1-1,.3A4.78,4.78,0,0,1,66.54,239.38Zm-.16-5.84a1.87,1.87,0,0,0-1.42.58,2.73,2.73,0,0,0-.62,1.68h3.77a2.64,2.64,0,0,0-.46-1.66A1.52,1.52,0,0,0,66.38,233.54Z"/><path d="M74.17,237.68a1.45,1.45,0,0,1-.62,1.26,3,3,0,0,1-1.77.44,4.26,4.26,0,0,1-2-.37v-.6a4.43,4.43,0,0,0,2,.46,2.55,2.55,0,0,0,1.37-.3.92.92,0,0,0,.47-.8,1,1,0,0,0-.37-.78,4.31,4.31,0,0,0-1.23-.62,7.08,7.08,0,0,1-1.29-.57,1.93,1.93,0,0,1-.56-.54,1.39,1.39,0,0,1-.18-.73,1.24,1.24,0,0,1,.57-1.08,2.76,2.76,0,0,1,1.61-.4,4.81,4.81,0,0,1,1.88.37l-.21.51a4.39,4.39,0,0,0-1.67-.38,2.43,2.43,0,0,0-1.18.25.75.75,0,0,0-.44.69.93.93,0,0,0,.34.76,4.84,4.84,0,0,0,1.32.64,6.35,6.35,0,0,1,1.21.54A1.71,1.71,0,0,1,74,237,1.28,1.28,0,0,1,74.17,237.68Z"/><path d="M79.54,239.27H75.18v-.35l3.62-5.26H75.44v-.49h4.09v.35l-3.65,5.26h3.66Z"/><path d="M87.81,237.68a1.43,1.43,0,0,1-.62,1.26,3,3,0,0,1-1.77.44,4.24,4.24,0,0,1-1.94-.37v-.6a4.36,4.36,0,0,0,1.94.46,2.62,2.62,0,0,0,1.38-.3.91.91,0,0,0,.46-.8,1,1,0,0,0-.37-.78,4.31,4.31,0,0,0-1.23-.62,6.6,6.6,0,0,1-1.28-.57,1.71,1.71,0,0,1-.56-.54,1.3,1.3,0,0,1-.19-.73,1.23,1.23,0,0,1,.58-1.08,2.76,2.76,0,0,1,1.61-.4,4.76,4.76,0,0,1,1.87.37l-.21.51a4.35,4.35,0,0,0-1.66-.38,2.48,2.48,0,0,0-1.19.25.77.77,0,0,0-.44.69,1,1,0,0,0,.34.76,4.94,4.94,0,0,0,1.33.64,6.5,6.5,0,0,1,1.2.54,1.86,1.86,0,0,1,.57.54A1.36,1.36,0,0,1,87.81,237.68Z"/><path d="M92,239.38a2.24,2.24,0,0,1-2.06-1h0l0,.47c0,.28,0,.58,0,.91V242h-.55v-8.86h.47l.1.87h0a2.21,2.21,0,0,1,2-1,2.26,2.26,0,0,1,1.88.81,3.73,3.73,0,0,1,.65,2.36,3.64,3.64,0,0,1-.68,2.34A2.3,2.3,0,0,1,92,239.38Zm0-.49a1.69,1.69,0,0,0,1.45-.7,3.23,3.23,0,0,0,.51-1.95c0-1.79-.65-2.69-1.94-2.69a2,2,0,0,0-1.57.59,3,3,0,0,0-.5,1.91v.18a3.38,3.38,0,0,0,.48,2.05A1.89,1.89,0,0,0,92,238.89Z"/><path d="M98.63,233.05a5.16,5.16,0,0,1,.84.08l-.11.53a3.48,3.48,0,0,0-.79-.09,1.54,1.54,0,0,0-1.28.66,2.65,2.65,0,0,0-.5,1.67v3.37h-.56v-6.1h.47l.06,1.1h0a2.62,2.62,0,0,1,.8-1A1.91,1.91,0,0,1,98.63,233.05Z"/><path d="M104.41,239.27l-.14-1h0a3,3,0,0,1-1,.83,2.57,2.57,0,0,1-1.15.24,2,2,0,0,1-1.4-.46,1.64,1.64,0,0,1-.5-1.27,1.57,1.57,0,0,1,.75-1.39,4,4,0,0,1,2.15-.52l1.17,0v-.41a2,2,0,0,0-.36-1.31,1.35,1.35,0,0,0-1.14-.45A3.9,3.9,0,0,0,101,234l-.2-.48a4.7,4.7,0,0,1,2-.47,2,2,0,0,1,1.51.52,2.3,2.3,0,0,1,.49,1.63v4.06Zm-2.24-.39a1.94,1.94,0,0,0,2.1-2.11v-.6l-1.06,0a4.15,4.15,0,0,0-1.84.4,1.17,1.17,0,0,0-.55,1.06,1.12,1.12,0,0,0,.36.89A1.42,1.42,0,0,0,102.17,238.88Z"/><path d="M111.68,239.27l-1.34-4.08c-.08-.28-.19-.68-.33-1.22h0l-.12.42-.25.81-1.36,4.07h-.55l-1.75-6.1h.6l1,3.53c.23.88.38,1.52.45,1.94h0c.22-.88.38-1.46.48-1.75l1.26-3.72h.5l1.2,3.71c.27.88.43,1.46.49,1.75h0c0-.25.18-.9.45-2l.93-3.5h.56l-1.66,6.1Z"/><path d="M117.35,233.05a2.6,2.6,0,0,1,1.15.24,2.25,2.25,0,0,1,.86.83h0c0-.48,0-.94,0-1.39v-2.2h.55v8.74h-.36l-.14-.93h0a2.26,2.26,0,0,1-2,1,2.41,2.41,0,0,1-1.93-.78,3.44,3.44,0,0,1-.67-2.29,3.81,3.81,0,0,1,.66-2.42A2.33,2.33,0,0,1,117.35,233.05Zm0,.5a1.71,1.71,0,0,0-1.5.71,3.4,3.4,0,0,0-.5,2c0,1.73.67,2.6,2,2.6a1.83,1.83,0,0,0,1.52-.6,3.2,3.2,0,0,0,.48-2v-.1a3.43,3.43,0,0,0-.47-2A1.81,1.81,0,0,0,117.35,233.55Z"/><path d="M125.76,239.27H121.4v-.35l3.62-5.26h-3.36v-.49h4.09v.35l-3.65,5.26h3.66Z"/><path d="M127.18,231.47q0-.54.36-.54a.33.33,0,0,1,.27.14.85.85,0,0,1,0,.8.32.32,0,0,1-.27.15C127.3,232,127.18,231.83,127.18,231.47Zm.64,7.8h-.56v-6.1h.56Z"/><path d="M132.3,239.38a2.61,2.61,0,0,1-2.05-.82,3.3,3.3,0,0,1-.74-2.3,3.37,3.37,0,0,1,.77-2.37,2.7,2.7,0,0,1,2.1-.84,4.31,4.31,0,0,1,1.52.27l-.15.5a4.39,4.39,0,0,0-1.38-.27,2.09,2.09,0,0,0-1.7.7,3,3,0,0,0-.58,2,2.94,2.94,0,0,0,.58,1.94,2,2,0,0,0,1.62.7,3.92,3.92,0,0,0,1.54-.3v.52A3.52,3.52,0,0,1,132.3,239.38Zm-1-7.17a9.75,9.75,0,0,0,.81-1,7,7,0,0,0,.55-.79h.79v.1a6.09,6.09,0,0,1-.68.77c-.33.32-.69.65-1.07,1h-.4Z"/><path d="M140.75,239.38a2.61,2.61,0,0,1-2.05-.82,4,4,0,0,1,0-4.67,2.7,2.7,0,0,1,2.1-.84,4.31,4.31,0,0,1,1.52.27l-.15.5a4.39,4.39,0,0,0-1.38-.27,2.1,2.1,0,0,0-1.7.7,3.06,3.06,0,0,0-.58,2,3,3,0,0,0,.58,1.94,2,2,0,0,0,1.62.7,3.92,3.92,0,0,0,1.54-.3v.52A3.52,3.52,0,0,1,140.75,239.38Z"/><path d="M147.57,239.27h-4.36v-.35l3.63-5.26h-3.36v-.49h4.08v.35l-3.64,5.26h3.65Z"/><path d="M148.05,233.17h.58l1.29,3.42q.59,1.57.75,2.13h0c.16-.48.41-1.2.77-2.16l1.29-3.39h.57l-2.73,7.09a5.57,5.57,0,0,1-.56,1.17,1.47,1.47,0,0,1-.52.45,1.61,1.61,0,0,1-.73.15,2.8,2.8,0,0,1-.71-.11v-.49a2.58,2.58,0,0,0,.7.09.91.91,0,0,0,.5-.13,1.25,1.25,0,0,0,.4-.42,5.8,5.8,0,0,0,.41-.9c.16-.41.26-.68.3-.8Z"/><path d="M162,239.27v-4a2,2,0,0,0-.35-1.31,1.31,1.31,0,0,0-1.06-.41,1.76,1.76,0,0,0-1.39.52,2.45,2.45,0,0,0-.45,1.62v3.58h-.57V235.1c0-1-.47-1.55-1.41-1.55a1.68,1.68,0,0,0-1.4.56,2.94,2.94,0,0,0-.44,1.79v3.37h-.56v-6.1h.47l.11.83h0a1.8,1.8,0,0,1,.72-.7,2.08,2.08,0,0,1,1-.25,1.76,1.76,0,0,1,1.86,1.08h0a2.05,2.05,0,0,1,.8-.8,2.24,2.24,0,0,1,1.14-.28,2,2,0,0,1,1.5.53,2.45,2.45,0,0,1,.5,1.7v4Z"/><path d="M61.31,251.48a1.44,1.44,0,0,1-.63,1.26,3,3,0,0,1-1.76.44,4.26,4.26,0,0,1-2-.37v-.6a4.4,4.4,0,0,0,2,.46,2.55,2.55,0,0,0,1.37-.3.92.92,0,0,0,.47-.8,1,1,0,0,0-.38-.78,4.23,4.23,0,0,0-1.22-.62,7.08,7.08,0,0,1-1.29-.57,1.82,1.82,0,0,1-.56-.54,1.39,1.39,0,0,1-.19-.73,1.26,1.26,0,0,1,.58-1.08,2.76,2.76,0,0,1,1.61-.4,4.73,4.73,0,0,1,1.87.37l-.2.51a4.39,4.39,0,0,0-1.67-.38,2.51,2.51,0,0,0-1.19.25.77.77,0,0,0-.43.69.93.93,0,0,0,.34.76,4.43,4.43,0,0,0,1.32.64,6.5,6.5,0,0,1,1.2.54,1.75,1.75,0,0,1,.57.54A1.37,1.37,0,0,1,61.31,251.48Z"/><path d="M62.8,245.27c0-.36.12-.54.35-.54a.34.34,0,0,1,.28.14.85.85,0,0,1,0,.8.32.32,0,0,1-.28.15C62.92,245.82,62.8,245.64,62.8,245.27Zm.64,7.8h-.56V247h.56Z"/><path d="M67.94,253.18a2.65,2.65,0,0,1-2.07-.82,3.25,3.25,0,0,1-.74-2.29,3.55,3.55,0,0,1,.71-2.34,2.37,2.37,0,0,1,1.94-.88,2.08,2.08,0,0,1,1.7.75,3.1,3.1,0,0,1,.63,2.05v.45h-4.4A2.9,2.9,0,0,0,66.3,252a2.05,2.05,0,0,0,1.64.66,6.05,6.05,0,0,0,.92-.07,5.58,5.58,0,0,0,1-.32v.51a4.12,4.12,0,0,1-1,.3A4.82,4.82,0,0,1,67.94,253.18Zm-.16-5.84a1.8,1.8,0,0,0-1.41.59,2.68,2.68,0,0,0-.63,1.67h3.78a2.71,2.71,0,0,0-.46-1.66A1.53,1.53,0,0,0,67.78,247.34Zm.9,6.92a.53.53,0,0,0,.6.61,1.56,1.56,0,0,0,.46-.06v.47a1.63,1.63,0,0,1-.59.09,1,1,0,0,1-.75-.27,1,1,0,0,1-.28-.75,1.5,1.5,0,0,1,.23-.78,2.46,2.46,0,0,1,.63-.71h.5a3.19,3.19,0,0,0-.6.67A1.4,1.4,0,0,0,68.68,254.26Z"/><path d="M78.57,253.07H74.22v-.35l3.62-5.26H74.48V247h4.08v.35l-3.64,5.26h3.65Z"/><path d="M83.78,253.07l-.14-1h0a2.86,2.86,0,0,1-.95.83,2.52,2.52,0,0,1-1.14.24,2,2,0,0,1-1.4-.46,1.61,1.61,0,0,1-.5-1.27,1.58,1.58,0,0,1,.74-1.39,4.08,4.08,0,0,1,2.15-.52l1.17,0v-.41a2,2,0,0,0-.36-1.31,1.35,1.35,0,0,0-1.14-.45,3.73,3.73,0,0,0-1.75.48l-.21-.49a4.71,4.71,0,0,1,2-.47,2,2,0,0,1,1.5.52,2.3,2.3,0,0,1,.49,1.63v4.06Zm-2.24-.39a2.11,2.11,0,0,0,1.54-.56,2.06,2.06,0,0,0,.56-1.55V250l-1.06,0a4.15,4.15,0,0,0-1.84.4,1.17,1.17,0,0,0-.54,1.06,1.12,1.12,0,0,0,.35.89A1.42,1.42,0,0,0,81.54,252.68Z"/><path d="M85.36,255.83a1.75,1.75,0,0,1-.76-.14v-.48a2.43,2.43,0,0,0,.72.11c.57,0,.85-.33.85-1V247h.56v7.29a1.7,1.7,0,0,1-.36,1.16A1.24,1.24,0,0,1,85.36,255.83Zm.73-10.56q0-.54.36-.54a.33.33,0,0,1,.27.14.85.85,0,0,1,0,.8.32.32,0,0,1-.27.15C86.21,245.82,86.09,245.64,86.09,245.27Z"/><path d="M96.4,253.07v-4a2,2,0,0,0-.35-1.31,1.34,1.34,0,0,0-1.07-.41,1.77,1.77,0,0,0-1.39.52,2.51,2.51,0,0,0-.44,1.62v3.58h-.57V248.9c0-1-.47-1.55-1.42-1.55a1.69,1.69,0,0,0-1.4.56,3,3,0,0,0-.43,1.79v3.37h-.56V247h.46l.12.83h0a1.8,1.8,0,0,1,.72-.7,2.12,2.12,0,0,1,1-.25A1.75,1.75,0,0,1,93,247.93h0a2.05,2.05,0,0,1,.8-.8,2.24,2.24,0,0,1,1.14-.28,2,2,0,0,1,1.5.53,2.45,2.45,0,0,1,.5,1.7v4Z"/><path d="M99.41,247v3.95a2,2,0,0,0,.38,1.34,1.57,1.57,0,0,0,1.21.42,2.08,2.08,0,0,0,1.6-.55,2.6,2.6,0,0,0,.51-1.79V247h.55v6.1h-.47l-.1-.84h0a2.3,2.3,0,0,1-2.12,1c-1.39,0-2.08-.74-2.08-2.23v-4Z"/><path d="M104.89,255.83a1.75,1.75,0,0,1-.76-.14v-.48a2.44,2.44,0,0,0,.73.11c.56,0,.85-.33.85-1V247h.55v7.29a1.75,1.75,0,0,1-.35,1.16A1.26,1.26,0,0,1,104.89,255.83Zm.74-10.56c0-.36.12-.54.35-.54a.31.31,0,0,1,.27.14.85.85,0,0,1,0,.8.29.29,0,0,1-.27.15C105.75,245.82,105.63,245.64,105.63,245.27Z"/><path d="M111.62,254.46c0,.42.2.62.59.62a1.2,1.2,0,0,0,.46-.07v.48a1.53,1.53,0,0,1-.58.09,1,1,0,0,1-.75-.27,1,1,0,0,1-.28-.76,1.56,1.56,0,0,1,.23-.78A2.75,2.75,0,0,1,112,253l-.13-.89h0a3,3,0,0,1-1,.83,2.57,2.57,0,0,1-1.15.24,2,2,0,0,1-1.4-.46,1.64,1.64,0,0,1-.49-1.27,1.56,1.56,0,0,1,.74-1.39,4,4,0,0,1,2.15-.52l1.16,0v-.41a2,2,0,0,0-.35-1.31,1.37,1.37,0,0,0-1.14-.45,3.8,3.8,0,0,0-1.76.48l-.2-.49a4.7,4.7,0,0,1,2-.47,2,2,0,0,1,1.5.52,2.26,2.26,0,0,1,.5,1.63v4.06a3.19,3.19,0,0,0-.6.67A1.34,1.34,0,0,0,111.62,254.46Zm-1.85-1.78a1.94,1.94,0,0,0,2.1-2.11V250l-1.07,0a4.13,4.13,0,0,0-1.83.4,1.17,1.17,0,0,0-.55,1.06,1.12,1.12,0,0,0,.36.89A1.42,1.42,0,0,0,109.77,252.68Z"/><path d="M115,251.74l.07.11a18,18,0,0,1-1,2.7h-.36a23.45,23.45,0,0,0,.62-2.81Z"/><path d="M120.4,250.39l3.12-3.42h.67l-2.4,2.6,2.61,3.5h-.67L121.41,250l-1,.91v2.17h-.55v-8.74h.55v4.38l0,1.68Z"/><path d="M130.47,250a3.46,3.46,0,0,1-.72,2.33,2.51,2.51,0,0,1-2,.84,2.58,2.58,0,0,1-1.42-.38,2.48,2.48,0,0,1-.94-1.12,4.15,4.15,0,0,1-.32-1.67,3.47,3.47,0,0,1,.72-2.33,2.52,2.52,0,0,1,2-.83,2.44,2.44,0,0,1,2,.84A3.48,3.48,0,0,1,130.47,250Zm-4.82,0a3.09,3.09,0,0,0,.56,2,1.85,1.85,0,0,0,1.56.71,1.88,1.88,0,0,0,1.56-.71,3.71,3.71,0,0,0,0-3.92,1.93,1.93,0,0,0-1.57-.7,1.87,1.87,0,0,0-1.56.7A3.07,3.07,0,0,0,125.65,250Z"/><path d="M139.79,253.07v-4a2,2,0,0,0-.35-1.31,1.34,1.34,0,0,0-1.07-.41,1.77,1.77,0,0,0-1.39.52,2.45,2.45,0,0,0-.45,1.62v3.58H136V248.9c0-1-.47-1.55-1.42-1.55a1.69,1.69,0,0,0-1.4.56,3,3,0,0,0-.43,1.79v3.37h-.56V247h.46l.12.83h0a1.8,1.8,0,0,1,.72-.7,2.09,2.09,0,0,1,1-.25,1.75,1.75,0,0,1,1.85,1.08h0a2.19,2.19,0,0,1,.8-.8,2.3,2.3,0,0,1,1.15-.28,2,2,0,0,1,1.5.53,2.45,2.45,0,0,1,.5,1.7v4Z"/><path d="M142.8,247v3.95a1.93,1.93,0,0,0,.38,1.34,1.56,1.56,0,0,0,1.2.42,2.11,2.11,0,0,0,1.61-.55,2.6,2.6,0,0,0,.51-1.79V247h.55v6.1h-.47l-.1-.84h0a2.27,2.27,0,0,1-2.11,1c-1.39,0-2.08-.74-2.08-2.23v-4Z"/><path d="M61.41,267a2.24,2.24,0,0,1-2.06-1.05h0l0,.47c0,.28,0,.58,0,.91v2.32h-.56v-8.86h.48l.1.87h0a2.21,2.21,0,0,1,2-1,2.26,2.26,0,0,1,1.88.81,3.73,3.73,0,0,1,.65,2.36,3.62,3.62,0,0,1-.68,2.34A2.3,2.3,0,0,1,61.41,267Zm0-.49a1.71,1.71,0,0,0,1.46-.7,3.22,3.22,0,0,0,.51-1.94c0-1.8-.65-2.7-1.94-2.7a2,2,0,0,0-1.57.59,3,3,0,0,0-.5,1.91v.18a3.38,3.38,0,0,0,.48,2.05A1.86,1.86,0,0,0,61.39,266.49Z"/><path d="M70.69,263.81a3.41,3.41,0,0,1-.73,2.33,2.5,2.5,0,0,1-2,.84,2.66,2.66,0,0,1-1.41-.38,2.48,2.48,0,0,1-.94-1.12,4,4,0,0,1-.32-1.67,3.47,3.47,0,0,1,.72-2.33,2.52,2.52,0,0,1,2-.83,2.45,2.45,0,0,1,2,.84A3.48,3.48,0,0,1,70.69,263.81Zm-4.82,0a3.09,3.09,0,0,0,.55,2,2.08,2.08,0,0,0,3.13,0,3.09,3.09,0,0,0,.55-2,3,3,0,0,0-.56-2,1.9,1.9,0,0,0-1.56-.7,1.87,1.87,0,0,0-1.56.7A3.07,3.07,0,0,0,65.87,263.81Z"/><path d="M80,266.87v-4a2,2,0,0,0-.35-1.31,1.31,1.31,0,0,0-1.06-.41,1.76,1.76,0,0,0-1.39.52,2.45,2.45,0,0,0-.45,1.62v3.58h-.57V262.7c0-1-.47-1.55-1.41-1.55a1.68,1.68,0,0,0-1.4.56,2.94,2.94,0,0,0-.44,1.79v3.37h-.55v-6.1h.46l.12.83h0a1.8,1.8,0,0,1,.72-.7,2.09,2.09,0,0,1,1-.25,1.75,1.75,0,0,1,1.85,1.08h0a2.19,2.19,0,0,1,.8-.8,2.29,2.29,0,0,1,1.14-.28,2,2,0,0,1,1.5.53,2.4,2.4,0,0,1,.5,1.7v4Z"/><path d="M86.24,266.87l-.14-1h0a2.86,2.86,0,0,1-1,.83A2.52,2.52,0,0,1,84,267a2,2,0,0,1-1.4-.46,1.61,1.61,0,0,1-.5-1.27,1.58,1.58,0,0,1,.74-1.39,4.09,4.09,0,0,1,2.16-.52l1.16,0v-.41a2,2,0,0,0-.36-1.31,1.35,1.35,0,0,0-1.14-.45,3.73,3.73,0,0,0-1.75.48l-.21-.49a4.71,4.71,0,0,1,2-.47,2,2,0,0,1,1.5.52,2.3,2.3,0,0,1,.5,1.63v4.06ZM84,266.48a2.11,2.11,0,0,0,1.54-.56,2.07,2.07,0,0,0,.57-1.55v-.6l-1.07,0a4.06,4.06,0,0,0-1.83.4,1.15,1.15,0,0,0-.55,1.06,1.12,1.12,0,0,0,.35.89A1.42,1.42,0,0,0,84,266.48Z"/><path d="M93.38,260.77v.38l-1.26.08a2.15,2.15,0,0,1,.51,1.39A1.86,1.86,0,0,1,92,264a2.2,2.2,0,0,1-1.58.55,3.82,3.82,0,0,1-.58,0,1.3,1.3,0,0,0-.5.41.81.81,0,0,0-.18.5.46.46,0,0,0,.22.42,1.53,1.53,0,0,0,.75.14h1.06a2.49,2.49,0,0,1,1.53.4,1.4,1.4,0,0,1,.52,1.19,1.7,1.7,0,0,1-.78,1.49,4,4,0,0,1-2.23.52,3.08,3.08,0,0,1-1.79-.44,1.43,1.43,0,0,1-.63-1.23,1.48,1.48,0,0,1,.39-1,2,2,0,0,1,1.06-.57,1.14,1.14,0,0,1-.44-.33.79.79,0,0,1-.16-.5,1.32,1.32,0,0,1,.78-1.08,1.65,1.65,0,0,1-.83-.68,2,2,0,0,1-.3-1.08,1.93,1.93,0,0,1,.58-1.47,2.18,2.18,0,0,1,1.57-.55,2.83,2.83,0,0,1,.93.12Zm-4.94,7.13c0,.84.63,1.26,1.87,1.26,1.61,0,2.41-.51,2.41-1.53a.89.89,0,0,0-.38-.8,2.35,2.35,0,0,0-1.22-.24h-1C89,266.59,88.44,267,88.44,267.9Zm.47-5.23a1.4,1.4,0,0,0,.43,1.1,1.65,1.65,0,0,0,1.15.39,1.62,1.62,0,0,0,1.17-.39,1.48,1.48,0,0,0,.4-1.12,1.52,1.52,0,0,0-.41-1.17,1.65,1.65,0,0,0-1.17-.39,1.45,1.45,0,0,0-1.57,1.58Z"/><path d="M98.34,266.87l-.14-1h0a3,3,0,0,1-1,.83,2.57,2.57,0,0,1-1.15.24,2,2,0,0,1-1.4-.46,1.64,1.64,0,0,1-.5-1.27,1.57,1.57,0,0,1,.75-1.39,4,4,0,0,1,2.15-.52l1.16,0v-.41a2,2,0,0,0-.35-1.31,1.36,1.36,0,0,0-1.14-.45,3.8,3.8,0,0,0-1.76.48l-.2-.49a4.7,4.7,0,0,1,2-.47,2,2,0,0,1,1.51.52,2.3,2.3,0,0,1,.49,1.63v4.06Zm-2.24-.39a1.94,1.94,0,0,0,2.1-2.11v-.6l-1.07,0a4.13,4.13,0,0,0-1.83.4,1.17,1.17,0,0,0-.55,1.06,1.12,1.12,0,0,0,.36.89A1.42,1.42,0,0,0,96.1,266.48Z"/><path d="M99.92,269.63a1.72,1.72,0,0,1-.76-.14V269a2.43,2.43,0,0,0,.72.11c.57,0,.85-.33.85-1v-7.37h.56v7.29a1.7,1.7,0,0,1-.36,1.16A1.26,1.26,0,0,1,99.92,269.63Zm.73-10.56c0-.36.12-.54.35-.54a.34.34,0,0,1,.28.14.85.85,0,0,1,0,.8.32.32,0,0,1-.28.15C100.77,259.62,100.65,259.43,100.65,259.07Z"/><path d="M106.64,268.26c0,.42.2.62.6.62a1.27,1.27,0,0,0,.46-.07v.48a1.63,1.63,0,0,1-.59.09,1,1,0,0,1-.75-.27,1,1,0,0,1-.27-.76,1.54,1.54,0,0,1,.22-.78,2.75,2.75,0,0,1,.71-.77l-.13-.89h0a2.86,2.86,0,0,1-.95.83,2.52,2.52,0,0,1-1.14.24,2,2,0,0,1-1.4-.46,1.61,1.61,0,0,1-.5-1.27,1.58,1.58,0,0,1,.74-1.39,4,4,0,0,1,2.15-.52l1.17,0v-.41a2,2,0,0,0-.36-1.31,1.35,1.35,0,0,0-1.14-.45,3.73,3.73,0,0,0-1.75.48l-.21-.49a4.71,4.71,0,0,1,2-.47,2,2,0,0,1,1.5.52,2.3,2.3,0,0,1,.49,1.63v4.06a3.19,3.19,0,0,0-.6.67A1.34,1.34,0,0,0,106.64,268.26Zm-1.85-1.78a2.11,2.11,0,0,0,1.54-.56,2.06,2.06,0,0,0,.56-1.55v-.6l-1.06,0a4.15,4.15,0,0,0-1.84.4,1.17,1.17,0,0,0-.54,1.06,1.12,1.12,0,0,0,.35.89A1.42,1.42,0,0,0,104.79,266.48Z"/><path d="M112.33,259.07c0-.36.12-.54.35-.54a.34.34,0,0,1,.28.14.93.93,0,0,1,0,.8.32.32,0,0,1-.28.15C112.45,259.62,112.33,259.43,112.33,259.07Zm.63,7.8h-.55v-6.1H113Z"/><path d="M120.43,267a2.62,2.62,0,0,1-2.05-.82,3.35,3.35,0,0,1-.74-2.3,3.43,3.43,0,0,1,.77-2.37,2.72,2.72,0,0,1,2.11-.84,4,4,0,0,1,1.51.28l-.15.49a4.39,4.39,0,0,0-1.37-.27,2.12,2.12,0,0,0-1.71.7,3.08,3.08,0,0,0-.57,2,3,3,0,0,0,.57,1.93,2,2,0,0,0,1.62.7,4,4,0,0,0,1.55-.3v.52A3.53,3.53,0,0,1,120.43,267Z"/><path d="M127.26,266.87H122.9v-.35l3.62-5.26h-3.36v-.49h4.08v.35l-3.64,5.26h3.66Z"/><path d="M131.23,267a2.66,2.66,0,0,1-2.08-.82,3.25,3.25,0,0,1-.74-2.29,3.56,3.56,0,0,1,.72-2.34,2.34,2.34,0,0,1,1.93-.88,2.08,2.08,0,0,1,1.7.75,3.1,3.1,0,0,1,.63,2.05v.44H129a2.91,2.91,0,0,0,.59,1.93,2.06,2.06,0,0,0,1.65.66,6,6,0,0,0,.91-.07,5.91,5.91,0,0,0,1-.32v.51a4.34,4.34,0,0,1-1,.3A4.78,4.78,0,0,1,131.23,267Zm-.17-5.84a1.83,1.83,0,0,0-1.41.58,2.74,2.74,0,0,0-.63,1.68h3.78a2.71,2.71,0,0,0-.46-1.66A1.52,1.52,0,0,0,131.06,261.14Z"/><path d="M139.83,260.77v.38l-1.26.08a2.15,2.15,0,0,1,.51,1.39,1.86,1.86,0,0,1-.59,1.42,2.2,2.2,0,0,1-1.58.55,3.82,3.82,0,0,1-.58,0,1.42,1.42,0,0,0-.51.41.86.86,0,0,0-.17.5.44.44,0,0,0,.22.42,1.53,1.53,0,0,0,.75.14h1.06a2.44,2.44,0,0,1,1.52.4,1.38,1.38,0,0,1,.53,1.19,1.7,1.7,0,0,1-.78,1.49,4,4,0,0,1-2.23.52,3.08,3.08,0,0,1-1.79-.44,1.43,1.43,0,0,1-.63-1.23,1.48,1.48,0,0,1,.39-1,2,2,0,0,1,1.06-.57,1.14,1.14,0,0,1-.44-.33.8.8,0,0,1-.17-.5,1.34,1.34,0,0,1,.78-1.08,1.74,1.74,0,0,1-.83-.68,2.05,2.05,0,0,1-.29-1.08,1.93,1.93,0,0,1,.58-1.47,2.18,2.18,0,0,1,1.57-.55,2.83,2.83,0,0,1,.93.12Zm-4.94,7.13c0,.84.63,1.26,1.87,1.26,1.6,0,2.41-.51,2.41-1.53a.89.89,0,0,0-.38-.8,2.35,2.35,0,0,0-1.22-.24h-1C135.45,266.59,134.89,267,134.89,267.9Zm.47-5.23a1.4,1.4,0,0,0,.43,1.1,1.92,1.92,0,0,0,2.32,0,1.48,1.48,0,0,0,.4-1.12,1.55,1.55,0,0,0-.41-1.17,1.66,1.66,0,0,0-1.18-.39,1.45,1.45,0,0,0-1.56,1.58Z"/><path d="M146.13,263.81a3.46,3.46,0,0,1-.72,2.33,2.5,2.5,0,0,1-2,.84,2.63,2.63,0,0,1-1.41-.38,2.42,2.42,0,0,1-.94-1.12,4,4,0,0,1-.33-1.67,3.42,3.42,0,0,1,.73-2.33,2.77,2.77,0,0,1,4,0A3.53,3.53,0,0,1,146.13,263.81Zm-4.81,0a3.09,3.09,0,0,0,.55,2,2.08,2.08,0,0,0,3.13,0,3.74,3.74,0,0,0,0-3.92,1.92,1.92,0,0,0-1.57-.7,1.9,1.9,0,0,0-1.56.7A3.13,3.13,0,0,0,141.32,263.81Z"/><path d="M76.63,280.78a2.22,2.22,0,0,1-2-1h0v.47c0,.28,0,.58,0,.91v2.32H74v-8.86h.47l.11.87h0a2.21,2.21,0,0,1,2-1,2.28,2.28,0,0,1,1.89.81,3.73,3.73,0,0,1,.64,2.36,3.57,3.57,0,0,1-.68,2.34A2.27,2.27,0,0,1,76.63,280.78Zm0-.49a1.68,1.68,0,0,0,1.45-.7,3.23,3.23,0,0,0,.52-1.95c0-1.79-.65-2.69-2-2.69a1.93,1.93,0,0,0-1.56.59,2.89,2.89,0,0,0-.5,1.91v.18a3.38,3.38,0,0,0,.48,2.05A1.86,1.86,0,0,0,76.62,280.29Z"/><path d="M85.91,277.61a3.46,3.46,0,0,1-.72,2.33,2.5,2.5,0,0,1-2,.84,2.67,2.67,0,0,1-1.42-.38,2.46,2.46,0,0,1-.93-1.12,4,4,0,0,1-.33-1.67,3.42,3.42,0,0,1,.73-2.33,2.77,2.77,0,0,1,4,0A3.53,3.53,0,0,1,85.91,277.61Zm-4.82,0a3.09,3.09,0,0,0,.56,2,2.08,2.08,0,0,0,3.13,0,3.15,3.15,0,0,0,.55-2,3.09,3.09,0,0,0-.56-2,1.92,1.92,0,0,0-1.57-.7,1.9,1.9,0,0,0-1.56.7A3.11,3.11,0,0,0,81.09,277.61Z"/><path d="M89.21,280.29a4.25,4.25,0,0,0,.93-.09v.45a3,3,0,0,1-.94.13,1.51,1.51,0,0,1-1.19-.43,2,2,0,0,1-.38-1.36v-3.94h-.91v-.33l.91-.25.28-1.38h.28v1.48H90v.48H88.19v3.86a1.79,1.79,0,0,0,.25,1A.87.87,0,0,0,89.21,280.29Z"/><path d="M93.86,274.45a5,5,0,0,1,.83.08l-.11.53a3.42,3.42,0,0,0-.79-.09,1.54,1.54,0,0,0-1.28.66,2.72,2.72,0,0,0-.5,1.67v3.37h-.55v-6.1h.47l0,1.1h0a2.54,2.54,0,0,1,.81-.95A1.86,1.86,0,0,1,93.86,274.45Z"/><path d="M99.73,280.67H95.37v-.35L99,275.06H95.63v-.49h4.08v.35l-3.64,5.26h3.66Z"/><path d="M103.7,280.78a2.66,2.66,0,0,1-2.08-.82,3.3,3.3,0,0,1-.74-2.29,3.56,3.56,0,0,1,.72-2.34,2.35,2.35,0,0,1,1.93-.88,2.08,2.08,0,0,1,1.7.75,3.1,3.1,0,0,1,.63,2.05v.44h-4.4a2.91,2.91,0,0,0,.59,1.93,2.06,2.06,0,0,0,1.65.66,6,6,0,0,0,.91-.07,5.91,5.91,0,0,0,1-.32v.51a4.34,4.34,0,0,1-1,.3A4.78,4.78,0,0,1,103.7,280.78Zm-.17-5.84a1.85,1.85,0,0,0-1.41.58,2.67,2.67,0,0,0-.62,1.68h3.77a2.64,2.64,0,0,0-.46-1.66A1.52,1.52,0,0,0,103.53,274.94Z"/><path d="M110.12,274.45a2.33,2.33,0,0,1,1.93.81,3.68,3.68,0,0,1,.65,2.35A3.56,3.56,0,0,1,112,280a2.33,2.33,0,0,1-1.91.82,2.53,2.53,0,0,1-1.18-.27,2.07,2.07,0,0,1-.82-.76h0l-.16.92h-.35v-8.74h.56v2.2c0,.33,0,.63,0,.91l0,.48h0a2.16,2.16,0,0,1,.84-.81A2.54,2.54,0,0,1,110.12,274.45Zm0,.5a1.84,1.84,0,0,0-1.55.62,3.45,3.45,0,0,0-.46,2v.1a3.2,3.2,0,0,0,.48,2,1.85,1.85,0,0,0,1.52.6,1.72,1.72,0,0,0,1.5-.7,3.34,3.34,0,0,0,.51-2C112.11,275.84,111.44,275,110.11,275Z"/><path d="M114.87,274.57v3.95a1.93,1.93,0,0,0,.39,1.34,1.56,1.56,0,0,0,1.2.42,2.07,2.07,0,0,0,1.6-.55,2.55,2.55,0,0,0,.52-1.79v-3.37h.55v6.1h-.48l-.1-.84h0a2.29,2.29,0,0,1-2.12.95c-1.39,0-2.08-.74-2.08-2.23v-4Z"/><path d="M120.36,283.43a1.72,1.72,0,0,1-.76-.14v-.48a2.43,2.43,0,0,0,.72.11c.57,0,.85-.33.85-1v-7.36h.56v7.29a1.7,1.7,0,0,1-.36,1.16A1.26,1.26,0,0,1,120.36,283.43Zm.73-10.56q0-.54.36-.54a.33.33,0,0,1,.27.14.85.85,0,0,1,0,.8.32.32,0,0,1-.27.15C121.21,273.42,121.09,273.23,121.09,272.87Z"/><path d="M127.08,282.06c0,.42.2.62.6.62a1.24,1.24,0,0,0,.46-.07v.48a1.63,1.63,0,0,1-.59.09,1,1,0,0,1-.75-.27,1,1,0,0,1-.27-.76,1.54,1.54,0,0,1,.22-.78,2.75,2.75,0,0,1,.71-.77l-.12-.89h0a2.86,2.86,0,0,1-1,.83,2.52,2.52,0,0,1-1.14.24,2,2,0,0,1-1.4-.46,1.61,1.61,0,0,1-.5-1.27,1.58,1.58,0,0,1,.74-1.39,4.09,4.09,0,0,1,2.16-.52l1.16,0v-.41a2,2,0,0,0-.36-1.31,1.35,1.35,0,0,0-1.14-.45,3.73,3.73,0,0,0-1.75.48l-.21-.49a4.71,4.71,0,0,1,2-.47,2,2,0,0,1,1.5.52,2.3,2.3,0,0,1,.5,1.63v4.06a3.59,3.59,0,0,0-.61.67A1.34,1.34,0,0,0,127.08,282.06Zm-1.85-1.78a2.09,2.09,0,0,0,1.54-.56,2.07,2.07,0,0,0,.57-1.55v-.6l-1.07,0a4.06,4.06,0,0,0-1.83.4,1.3,1.3,0,0,0-.2,1.95A1.42,1.42,0,0,0,125.23,280.28Z"/><path d="M129.75,280.23c0-.36.15-.55.45-.55s.46.19.46.55-.15.55-.46.55S129.75,280.6,129.75,280.23Z"/></svg>