<svg id="Warstwa_1" data-name="Warstwa 1" xmlns="http://www.w3.org/2000/svg" viewBox="0 0 100 100"><defs><style>.cls-1{fill:#f0f1f1;fill-rule:evenodd;}</style></defs><title>ig</title><g id="Icons"><g id="Black"><path id="Instagram" class="cls-1" d="M50,10c-10.86,0-12.23.05-16.49.24A29.44,29.44,0,0,0,23.8,12.1,20.47,20.47,0,0,0,12.1,23.8a29.18,29.18,0,0,0-1.86,9.71C10.05,37.77,10,39.14,10,50s.05,12.23.24,16.49A29.44,29.44,0,0,0,12.1,76.2,20.47,20.47,0,0,0,23.8,87.9a29.44,29.44,0,0,0,9.71,1.86C37.77,90,39.14,90,50,90s12.23,0,16.49-.24A29.44,29.44,0,0,0,76.2,87.9,20.39,20.39,0,0,0,87.9,76.2a29.18,29.18,0,0,0,1.86-9.71C90,62.23,90,60.86,90,50s0-12.23-.24-16.49A29.18,29.18,0,0,0,87.9,23.8,20.47,20.47,0,0,0,76.2,12.1a29.18,29.18,0,0,0-9.71-1.86C62.23,10.05,60.86,10,50,10Zm0,7.21c10.68,0,12,0,16.16.23a22.13,22.13,0,0,1,7.43,1.38,13.22,13.22,0,0,1,7.59,7.59,22.13,22.13,0,0,1,1.38,7.43c.19,4.21.23,5.48.23,16.16s0,11.94-.23,16.16a22.13,22.13,0,0,1-1.38,7.43,13.22,13.22,0,0,1-7.59,7.59,22.13,22.13,0,0,1-7.43,1.38c-4.21.19-5.48.23-16.16.23s-12,0-16.16-.23a22.13,22.13,0,0,1-7.43-1.38,13.22,13.22,0,0,1-7.59-7.59,22.13,22.13,0,0,1-1.38-7.43c-.19-4.21-.23-5.48-.23-16.16s0-12,.23-16.16a22.13,22.13,0,0,1,1.38-7.43,13.22,13.22,0,0,1,7.59-7.59,22.13,22.13,0,0,1,7.43-1.38C38.05,17.25,39.32,17.21,50,17.21Zm0,12.25A20.54,20.54,0,1,0,70.54,50,20.54,20.54,0,0,0,50,29.46Zm0,33.87A13.33,13.33,0,1,1,63.33,50,13.33,13.33,0,0,1,50,63.33ZM76.15,28.65a4.8,4.8,0,1,1-4.8-4.8A4.8,4.8,0,0,1,76.15,28.65Z"/></g></g></svg>