<svg id="Warstwa_1" data-name="Warstwa 1" xmlns="http://www.w3.org/2000/svg" viewBox="0 0 200 325"><defs><style>.cls-1{isolation:isolate;}.cls-2{fill:#3c3c3c;}.cls-3{fill:none;stroke:#707070;}</style></defs><title>spakuj</title><g id="Wybierz_rzeczy" data-name="Wybierz rzeczy" class="cls-1"><g class="cls-1"><path class="cls-2" d="M108.77,119H94.52v-2.56L99.94,111a44.51,44.51,0,0,0,3.18-3.49,8.08,8.08,0,0,0,1.15-1.93,5.23,5.23,0,0,0,.36-1.94,3,3,0,0,0-.86-2.25,3.3,3.3,0,0,0-2.36-.81,6.23,6.23,0,0,0-2.34.44,11,11,0,0,0-2.61,1.61l-1.82-2.23a12.14,12.14,0,0,1,3.4-2.1,10.08,10.08,0,0,1,3.53-.61,6.94,6.94,0,0,1,4.7,1.53,5.19,5.19,0,0,1,1.76,4.12,7.28,7.28,0,0,1-.51,2.7,11.23,11.23,0,0,1-1.56,2.64,36.82,36.82,0,0,1-3.52,3.67l-3.65,3.53V116h10Z"/></g></g><g id="ubrania_zabawki_sprzęt_i_inne" data-name="ubrania zabawki sprzęt i inne" class="cls-1"><g class="cls-1"><path class="cls-2" d="M64.08,202.81a2.16,2.16,0,0,1-.89,1.85,4.22,4.22,0,0,1-2.5.65,5.44,5.44,0,0,1-2.66-.54v-1.21a6.2,6.2,0,0,0,1.33.5,5.47,5.47,0,0,0,1.36.18,3,3,0,0,0,1.56-.33,1.05,1.05,0,0,0,.55-1,1.08,1.08,0,0,0-.44-.85,6.42,6.42,0,0,0-1.69-.84,9.85,9.85,0,0,1-1.7-.78,2.43,2.43,0,0,1-.75-.75,2,2,0,0,1-.24-1,1.9,1.9,0,0,1,.85-1.65,3.94,3.94,0,0,1,2.34-.61,6.91,6.91,0,0,1,2.7.56l-.46,1.06a6.1,6.1,0,0,0-2.34-.53,2.62,2.62,0,0,0-1.39.29.88.88,0,0,0-.47.79,1,1,0,0,0,.18.59,1.7,1.7,0,0,0,.56.46,11.15,11.15,0,0,0,1.5.63,5.59,5.59,0,0,1,2.06,1.12A2,2,0,0,1,64.08,202.81Z"/><path class="cls-2" d="M67.47,200.77a12.94,12.94,0,0,1,1-1.25l2.77-2.93H72.8l-3.47,3.65L73,205.15H71.47l-3-4.05-1,.85v3.2H66.19V193h1.28v6.45c0,.29,0,.73-.06,1.33Z"/><path class="cls-2" d="M82,200.86a4.73,4.73,0,0,1-1.06,3.27A3.68,3.68,0,0,1,78,205.31a3.84,3.84,0,0,1-2-.54,3.6,3.6,0,0,1-1.38-1.55,5.43,5.43,0,0,1-.48-2.36,4.71,4.71,0,0,1,1-3.26,3.67,3.67,0,0,1,2.9-1.17,3.63,3.63,0,0,1,2.86,1.2A4.71,4.71,0,0,1,82,200.86Zm-6.53,0a4,4,0,0,0,.66,2.5,2.61,2.61,0,0,0,3.86,0,4.08,4.08,0,0,0,.66-2.51,4,4,0,0,0-.66-2.48,2.34,2.34,0,0,0-2-.85,2.27,2.27,0,0,0-1.92.84A4,4,0,0,0,75.45,200.86Z"/><path class="cls-2" d="M88.16,196.43a4.52,4.52,0,0,1,1,.1l-.18,1.2a4.32,4.32,0,0,0-.94-.12,2.29,2.29,0,0,0-1.78.85,3.07,3.07,0,0,0-.73,2.1v4.59h-1.3v-8.56h1.07l.15,1.58h.06a3.92,3.92,0,0,1,1.15-1.29A2.61,2.61,0,0,1,88.16,196.43Z"/><path class="cls-2" d="M96.26,205.15H90.05v-.88l4.67-6.67H90.34v-1h5.8v1l-4.61,6.54h4.73Z"/><path class="cls-2" d="M96.91,196.59H98.3l1.87,4.88a19.21,19.21,0,0,1,.77,2.41H101c.07-.26.21-.71.43-1.36s.92-2.62,2.12-5.93h1.39l-3.68,9.75a4.88,4.88,0,0,1-1.28,2,2.73,2.73,0,0,1-1.79.6,5.06,5.06,0,0,1-1.17-.13v-1a4.57,4.57,0,0,0,1,.1,2,2,0,0,0,1.9-1.5l.48-1.22Z"/><path class="cls-2" d="M111.85,202.81a2.16,2.16,0,0,1-.89,1.85,4.2,4.2,0,0,1-2.5.65,5.44,5.44,0,0,1-2.66-.54v-1.21a6.63,6.63,0,0,0,1.33.5,5.47,5.47,0,0,0,1.36.18,3,3,0,0,0,1.56-.33,1.05,1.05,0,0,0,.55-1,1.06,1.06,0,0,0-.43-.85,6.59,6.59,0,0,0-1.69-.84,9.16,9.16,0,0,1-1.7-.78,2.23,2.23,0,0,1-.75-.75,2.07,2.07,0,0,1,.6-2.66,3.94,3.94,0,0,1,2.34-.61,6.91,6.91,0,0,1,2.7.56l-.46,1.06a6.1,6.1,0,0,0-2.34-.53,2.64,2.64,0,0,0-1.39.29.88.88,0,0,0-.46.79,1,1,0,0,0,.17.59,1.87,1.87,0,0,0,.57.46,11.15,11.15,0,0,0,1.5.63,5.77,5.77,0,0,1,2.06,1.12A2,2,0,0,1,111.85,202.81Z"/><path class="cls-2" d="M116.73,204.24a4.65,4.65,0,0,0,.66-.05c.21,0,.38-.07.51-.11v1a2.15,2.15,0,0,1-.62.17,5.37,5.37,0,0,1-.74.07c-1.66,0-2.49-.88-2.49-2.62V197.6h-1.22V197l1.22-.54.55-1.83h.75v2h2.49v1h-2.49v5a1.7,1.7,0,0,0,.37,1.19A1.26,1.26,0,0,0,116.73,204.24Z"/><path class="cls-2" d="M124.87,205.15l-.25-1.22h-.07a3.53,3.53,0,0,1-1.27,1.09,3.93,3.93,0,0,1-1.59.29,2.86,2.86,0,0,1-2-.66,2.4,2.4,0,0,1-.72-1.87c0-1.73,1.38-2.63,4.15-2.72l1.45,0v-.53a2.16,2.16,0,0,0-.43-1.49,1.79,1.79,0,0,0-1.39-.48,5.74,5.74,0,0,0-2.42.65l-.4-1a6.16,6.16,0,0,1,2.9-.73,3.23,3.23,0,0,1,2.27.68,2.84,2.84,0,0,1,.74,2.18v5.84Zm-2.92-.91a2.65,2.65,0,0,0,1.9-.67,2.45,2.45,0,0,0,.69-1.86v-.77l-1.3.05a4.83,4.83,0,0,0-2.23.48,1.47,1.47,0,0,0-.68,1.33,1.35,1.35,0,0,0,.42,1.07A1.81,1.81,0,0,0,122,204.24Z"/><path class="cls-2" d="M127.47,209a3.08,3.08,0,0,1-1.2-.19v-1.06a3.54,3.54,0,0,0,1.06.16,1.12,1.12,0,0,0,.89-.33,1.52,1.52,0,0,0,.29-1v-10h1.29v9.87C129.8,208.15,129,209,127.47,209Zm.93-14.72a.82.82,0,0,1,.22-.65.75.75,0,0,1,.54-.21.76.76,0,0,1,.54.21,1,1,0,0,1,0,1.3.76.76,0,0,1-.54.21.75.75,0,0,1-.54-.21A.85.85,0,0,1,128.4,194.27Z"/><path class="cls-2" d="M142.19,205.15H136v-.88l4.67-6.67h-4.38v-1h5.8v1l-4.61,6.54h4.73Z"/><path class="cls-2" d="M41.68,224.35l-1.57-5c-.1-.31-.29-1-.56-2.1h-.06c-.21.91-.39,1.62-.55,2.11l-1.62,5h-1.5l-2.33-8.56h1.36q.82,3.22,1.26,4.91a21.88,21.88,0,0,1,.5,2.28h.06c.06-.3.15-.69.28-1.16s.23-.84.33-1.12l1.57-4.91h1.4l1.53,4.91a16.52,16.52,0,0,1,.6,2.26h.06a8.37,8.37,0,0,1,.17-.87q.14-.59,1.63-6.3h1.34l-2.37,8.56Z"/><path class="cls-2" d="M54.52,220.06a4.68,4.68,0,0,1-1.06,3.27,3.68,3.68,0,0,1-2.91,1.18,3.86,3.86,0,0,1-2-.54,3.57,3.57,0,0,1-1.37-1.55,5.29,5.29,0,0,1-.49-2.36,4.71,4.71,0,0,1,1.05-3.26,3.71,3.71,0,0,1,2.91-1.17,3.62,3.62,0,0,1,2.85,1.2A4.66,4.66,0,0,1,54.52,220.06Zm-6.52,0a4,4,0,0,0,.65,2.5,2.29,2.29,0,0,0,1.93.86,2.31,2.31,0,0,0,1.94-.85,4.06,4.06,0,0,0,.66-2.51,4,4,0,0,0-.66-2.48,2.35,2.35,0,0,0-2-.85,2.3,2.3,0,0,0-1.93.84A4,4,0,0,0,48,220.06Z"/><path class="cls-2" d="M60.7,215.63a4.52,4.52,0,0,1,1,.1l-.18,1.2a4.23,4.23,0,0,0-.93-.12,2.26,2.26,0,0,0-1.78.85,3.08,3.08,0,0,0-.74,2.1v4.59h-1.3v-8.56h1.07l.15,1.58h.06a3.92,3.92,0,0,1,1.15-1.29A2.61,2.61,0,0,1,60.7,215.63Z"/><path class="cls-2" d="M64.61,220a12.94,12.94,0,0,1,1-1.25l2.76-2.93h1.54l-3.47,3.65,3.72,4.91H68.61l-3-4-1,.85v3.2H63.32V212.19h1.29v6.45c0,.29,0,.73-.07,1.33Z"/><path class="cls-2" d="M79.11,220.06a4.72,4.72,0,0,1-1,3.27,3.7,3.7,0,0,1-2.92,1.18,3.83,3.83,0,0,1-2-.54,3.53,3.53,0,0,1-1.38-1.55,5.43,5.43,0,0,1-.48-2.36,4.71,4.71,0,0,1,1-3.26,3.71,3.71,0,0,1,2.91-1.17,3.59,3.59,0,0,1,2.85,1.2A4.66,4.66,0,0,1,79.11,220.06Zm-6.52,0a4,4,0,0,0,.66,2.5,2.61,2.61,0,0,0,3.86,0,4.06,4.06,0,0,0,.66-2.51,4,4,0,0,0-.66-2.48,2.34,2.34,0,0,0-2-.85,2.27,2.27,0,0,0-1.92.84A4,4,0,0,0,72.59,220.06Zm1.5-5.6q.38-.48.81-1.17c.29-.46.51-.86.68-1.2h1.58v.17a12.35,12.35,0,0,1-1,1.25A15,15,0,0,1,75,214.66h-.87Z"/><path class="cls-2" d="M88.38,224.35l-1.57-5c-.1-.31-.29-1-.56-2.1h-.06c-.21.91-.39,1.62-.55,2.11l-1.61,5h-1.5l-2.34-8.56h1.36q.83,3.22,1.26,4.91a19.44,19.44,0,0,1,.5,2.28h.06c.06-.3.15-.69.28-1.16s.24-.84.33-1.12l1.57-4.91H87l1.53,4.91a16.28,16.28,0,0,1,.59,2.26h.06a8.37,8.37,0,0,1,.17-.87c.09-.39.64-2.49,1.63-6.3h1.34l-2.36,8.56Z"/><path class="cls-2" d="M103.85,224.35v-5.54a2.21,2.21,0,0,0-.48-1.56,2,2,0,0,0-1.49-.52,2.48,2.48,0,0,0-2,.73,3.63,3.63,0,0,0-.63,2.4v4.49H98v-8.56H99l.21,1.17h.07a2.59,2.59,0,0,1,1.11-1,3.68,3.68,0,0,1,1.6-.35,3.23,3.23,0,0,1,2.33.75,3.17,3.17,0,0,1,.78,2.38v5.59Z"/><path class="cls-2" d="M113.07,224.35l-.25-1.22h-.07a3.53,3.53,0,0,1-1.27,1.09,3.93,3.93,0,0,1-1.59.29,2.86,2.86,0,0,1-2-.66,2.4,2.4,0,0,1-.72-1.87c0-1.73,1.38-2.63,4.15-2.72l1.45,0v-.53a2.21,2.21,0,0,0-.43-1.49,1.8,1.8,0,0,0-1.39-.48,5.74,5.74,0,0,0-2.42.65l-.4-1a6.16,6.16,0,0,1,2.9-.73,3.24,3.24,0,0,1,2.27.68,2.84,2.84,0,0,1,.73,2.18v5.84Zm-2.93-.91a2.66,2.66,0,0,0,1.91-.67,2.45,2.45,0,0,0,.69-1.86v-.77l-1.3.05a4.83,4.83,0,0,0-2.23.48,1.45,1.45,0,0,0-.68,1.33,1.35,1.35,0,0,0,.42,1.07A1.8,1.8,0,0,0,110.14,223.44Z"/><path class="cls-2" d="M126.39,222a2.16,2.16,0,0,1-.89,1.85,4.22,4.22,0,0,1-2.5.65,5.44,5.44,0,0,1-2.66-.54v-1.21a6.32,6.32,0,0,0,1.32.5,5.61,5.61,0,0,0,1.37.18,3,3,0,0,0,1.56-.33,1.11,1.11,0,0,0,.11-1.84,6.59,6.59,0,0,0-1.69-.84,9.49,9.49,0,0,1-1.7-.78,2.43,2.43,0,0,1-.75-.75,2,2,0,0,1-.24-1,1.9,1.9,0,0,1,.85-1.65,3.91,3.91,0,0,1,2.33-.61,6.92,6.92,0,0,1,2.71.56l-.46,1.06a6.1,6.1,0,0,0-2.34-.53A2.62,2.62,0,0,0,122,217a.88.88,0,0,0-.47.79,1,1,0,0,0,.18.59,1.59,1.59,0,0,0,.56.46,11.15,11.15,0,0,0,1.5.63,5.68,5.68,0,0,1,2.06,1.12A2,2,0,0,1,126.39,222Zm-4-7.55q.38-.48.81-1.17c.28-.46.51-.86.68-1.2h1.58v.17a11.38,11.38,0,0,1-1,1.25,12.18,12.18,0,0,1-1.18,1.15h-.86Z"/><path class="cls-2" d="M139.41,224.35v-5.57a2.31,2.31,0,0,0-.44-1.53,1.66,1.66,0,0,0-1.36-.52,2.19,2.19,0,0,0-1.79.7,3.34,3.34,0,0,0-.57,2.14v4.78H134v-5.57a2.31,2.31,0,0,0-.44-1.53,1.68,1.68,0,0,0-1.37-.52,2.13,2.13,0,0,0-1.78.73,4,4,0,0,0-.57,2.4v4.49H128.5v-8.56h1.05l.21,1.17h.06a2.59,2.59,0,0,1,1-1,3.19,3.19,0,0,1,1.5-.35,2.55,2.55,0,0,1,2.62,1.45H135a2.84,2.84,0,0,1,1.11-1.06,3.48,3.48,0,0,1,1.66-.39,2.87,2.87,0,0,1,2.17.75,3.29,3.29,0,0,1,.73,2.38v5.59Z"/><path class="cls-2" d="M143.27,213.47a.82.82,0,0,1,.22-.65.75.75,0,0,1,.54-.21.76.76,0,0,1,.54.21,1,1,0,0,1,0,1.3.76.76,0,0,1-.54.21.75.75,0,0,1-.54-.21A.85.85,0,0,1,143.27,213.47Zm1.41,10.88h-1.3v-8.56h1.3Z"/><path class="cls-2" d="M151,224.51a3.93,3.93,0,0,1-3-1.16,4.48,4.48,0,0,1-1.1-3.21,5,5,0,0,1,1-3.29,3.39,3.39,0,0,1,2.74-1.22,3.2,3.2,0,0,1,2.54,1.06,4,4,0,0,1,.94,2.79v.82h-5.9a3.42,3.42,0,0,0,.76,2.29,2.65,2.65,0,0,0,2,.78,7,7,0,0,0,2.73-.57V224a6.81,6.81,0,0,1-1.3.43A7.75,7.75,0,0,1,151,224.51Zm-.35-7.79a2.1,2.1,0,0,0-1.64.67,3.15,3.15,0,0,0-.73,1.86h4.48a2.81,2.81,0,0,0-.55-1.88A1.92,1.92,0,0,0,150.69,216.72Z"/><path class="cls-2" d="M159.82,224.51a3.63,3.63,0,0,1-2.87-1.15,4.7,4.7,0,0,1-1-3.24,4.85,4.85,0,0,1,1-3.32,3.73,3.73,0,0,1,2.95-1.17,6.42,6.42,0,0,1,1.23.13,3.91,3.91,0,0,1,1,.32l-.4,1.1a5.65,5.65,0,0,0-.93-.29,4.57,4.57,0,0,0-.9-.11q-2.61,0-2.61,3.33a3.92,3.92,0,0,0,.64,2.42,2.2,2.2,0,0,0,1.88.84,5.71,5.71,0,0,0,2.2-.46v1.15A4.68,4.68,0,0,1,159.82,224.51Z"/><path class="cls-2" d="M163.91,213.47a.82.82,0,0,1,.22-.65.8.8,0,0,1,1.08,0,1,1,0,0,1,0,1.3.8.8,0,0,1-1.08,0A.85.85,0,0,1,163.91,213.47Zm1.41,10.88H164v-8.56h1.3Z"/></g></g><line id="Line" class="cls-3" x1="66.5" y1="179.65" x2="136.5" y2="179.65"/><g id="Wybierz_rzeczy-2" data-name="Wybierz rzeczy" class="cls-1"><g class="cls-1"><path class="cls-2" d="M71.58,162.66a3.26,3.26,0,0,1-1.24,2.69,5.41,5.41,0,0,1-3.42,1,8.17,8.17,0,0,1-3.57-.68v-2a9,9,0,0,0,1.87.65,7.82,7.82,0,0,0,1.84.24,3,3,0,0,0,1.84-.47,1.67,1.67,0,0,0,0-2.5,8.61,8.61,0,0,0-2.25-1.19,5.91,5.91,0,0,1-2.48-1.62,3.44,3.44,0,0,1-.72-2.2A3.07,3.07,0,0,1,64.64,154a4.72,4.72,0,0,1,3.07-.92,9.14,9.14,0,0,1,3.67.8l-.67,1.72a8,8,0,0,0-3-.72,2.39,2.39,0,0,0-1.55.44,1.48,1.48,0,0,0-.53,1.18,1.65,1.65,0,0,0,.21.85,2.06,2.06,0,0,0,.7.67,11,11,0,0,0,1.74.84A9.44,9.44,0,0,1,70.3,160a3.27,3.27,0,0,1,1,1.15A3.54,3.54,0,0,1,71.58,162.66Z"/><path class="cls-2" d="M78.77,166.33A3.41,3.41,0,0,1,75.91,165h-.12c.08.82.12,1.32.12,1.49v4H73.84v-14h1.67c0,.18.15.61.29,1.3h.11a3.24,3.24,0,0,1,2.9-1.48,3.36,3.36,0,0,1,2.83,1.32,5.92,5.92,0,0,1,1,3.7,6,6,0,0,1-1,3.72A3.42,3.42,0,0,1,78.77,166.33Zm-.5-8.39a2.12,2.12,0,0,0-1.79.72,3.72,3.72,0,0,0-.57,2.3v.31a4.57,4.57,0,0,0,.56,2.57,2.11,2.11,0,0,0,1.84.8,1.86,1.86,0,0,0,1.65-.88,4.53,4.53,0,0,0,.58-2.51,4.33,4.33,0,0,0-.58-2.47A1.91,1.91,0,0,0,78.27,157.94Z"/><path class="cls-2" d="M91.14,166.15l-.41-1.35h-.07A4,4,0,0,1,89.24,166a4.52,4.52,0,0,1-1.83.32,3.06,3.06,0,0,1-2.23-.78,2.87,2.87,0,0,1-.81-2.19,2.55,2.55,0,0,1,1.12-2.26,6.45,6.45,0,0,1,3.4-.84l1.68,0v-.52a2,2,0,0,0-.44-1.39,1.77,1.77,0,0,0-1.35-.46,4.59,4.59,0,0,0-1.43.22,12.41,12.41,0,0,0-1.32.51l-.66-1.47a6.71,6.71,0,0,1,1.73-.63,8.15,8.15,0,0,1,1.77-.22,4.2,4.2,0,0,1,2.8.81,3.17,3.17,0,0,1,1,2.54v6.55Zm-3.08-1.41a2.55,2.55,0,0,0,1.81-.62,2.31,2.31,0,0,0,.68-1.77v-.84l-1.25.05a4.31,4.31,0,0,0-2.12.49,1.48,1.48,0,0,0-.66,1.33,1.33,1.33,0,0,0,.38,1A1.71,1.71,0,0,0,88.06,164.74Z"/><path class="cls-2" d="M97.49,161l1.17-1.46,2.94-3.13H104l-3.91,4.17,4.16,5.55H101.8l-3.12-4.26-1.13.93v3.33h-2V152.47h2v6.68L97.44,161Z"/><path class="cls-2" d="M112.65,166.15l-.29-1.27h-.11a3,3,0,0,1-1.22,1.06,4.12,4.12,0,0,1-1.82.39,3.59,3.59,0,0,1-2.64-.88,3.67,3.67,0,0,1-.87-2.67v-6.35h2.09v6a2.63,2.63,0,0,0,.45,1.68,1.78,1.78,0,0,0,1.44.56,2.29,2.29,0,0,0,1.91-.78,4.35,4.35,0,0,0,.61-2.61v-4.84h2.07v9.72Z"/><path class="cls-2" d="M116.22,170.47a4.52,4.52,0,0,1-1.54-.22v-1.63a4.54,4.54,0,0,0,1.22.16q1.32,0,1.32-1.5V156.43h2.06v11a3.06,3.06,0,0,1-.78,2.28A3.12,3.12,0,0,1,116.22,170.47Zm.87-16.62a1.06,1.06,0,0,1,1.17-1.15,1.14,1.14,0,0,1,.85.3,1.34,1.34,0,0,1,0,1.69,1.14,1.14,0,0,1-.85.3,1.17,1.17,0,0,1-.86-.3A1.16,1.16,0,0,1,117.09,153.85Z"/><path class="cls-2" d="M125.92,170.47a4.59,4.59,0,0,1-1.55-.22v-1.63a4.59,4.59,0,0,0,1.22.16q1.32,0,1.32-1.5V156.43H129v11a2.74,2.74,0,0,1-3.06,3.05Zm.87-16.62a1.16,1.16,0,0,1,.3-.85,1.38,1.38,0,0,1,1.72,0,1.34,1.34,0,0,1,0,1.69,1.38,1.38,0,0,1-1.72,0A1.15,1.15,0,0,1,126.79,153.85Z"/><path class="cls-2" d="M136.18,166.33a4.67,4.67,0,0,1-3.55-1.33,5,5,0,0,1-1.28-3.64,5.49,5.49,0,0,1,1.19-3.74,4.08,4.08,0,0,1,3.26-1.37,4,4,0,0,1,3,1.17,4.48,4.48,0,0,1,1.11,3.22v1.12h-6.47a3.19,3.19,0,0,0,.76,2.17,2.65,2.65,0,0,0,2,.76,7.45,7.45,0,0,0,1.61-.16,8.79,8.79,0,0,0,1.59-.54v1.68a6.26,6.26,0,0,1-1.53.51A9.24,9.24,0,0,1,136.18,166.33Zm-.38-8.51a2.09,2.09,0,0,0-1.58.62,3,3,0,0,0-.71,1.82h4.41a2.65,2.65,0,0,0-.58-1.82A2,2,0,0,0,135.8,157.82Z"/></g></g><path d="M127.14,137.56H75.85A4.84,4.84,0,0,1,71,132.72V81.44a4.84,4.84,0,0,1,4.83-4.83h51.29A4.84,4.84,0,0,1,132,81.44v51.28A4.84,4.84,0,0,1,127.14,137.56ZM75.85,79a2.43,2.43,0,0,0-2.42,2.42v51.28a2.43,2.43,0,0,0,2.42,2.43h51.29a2.43,2.43,0,0,0,2.42-2.43V81.44A2.43,2.43,0,0,0,127.14,79Z"/><path d="M117.79,87.71v-18A17.14,17.14,0,0,0,113,57.26a16.71,16.71,0,0,0-23,0A17.14,17.14,0,0,0,85.2,69.71v18a3,3,0,1,0,2.46-.09V69.71c0-8.59,5.69-14.6,13.84-14.6s13.83,6,13.83,14.6v18a3,3,0,1,0,2.46,0Z"/></svg>