<svg id="Warstwa_1" data-name="Warstwa 1" xmlns="http://www.w3.org/2000/svg" viewBox="0 0 100 100"><defs><style>.cls-1{fill:#f0f1f1;}</style></defs><title>twitter</title><path class="cls-1" d="M87.8,26.6A32.06,32.06,0,0,1,78.88,29a15.63,15.63,0,0,0,6.85-8.58,31.26,31.26,0,0,1-9.87,3.78A15.5,15.5,0,0,0,49.4,38.36,44,44,0,0,1,17.45,22.14,15.78,15.78,0,0,0,15.37,30a15.44,15.44,0,0,0,6.88,12.89,15.21,15.21,0,0,1-7-1.92v.19A15.5,15.5,0,0,0,27.7,56.24a15,15,0,0,1-4.16.64,18.85,18.85,0,0,1-2.91-.26A15.53,15.53,0,0,0,35.1,67.35,31.06,31.06,0,0,1,16,74a31.7,31.7,0,0,1-3.78-.23,43.75,43.75,0,0,0,23.77,7A43.82,43.82,0,0,0,80.24,37.41c0-.26,0-.53,0-.79v-2A31.65,31.65,0,0,0,87.8,26.6Z"/></svg>