<svg id="Warstwa_1" data-name="Warstwa 1" xmlns="http://www.w3.org/2000/svg" viewBox="0 0 180 240"><defs><style>.cls-1{isolation:isolate;}.cls-2{fill:#3c3c3c;}.cls-3,.cls-4{fill:none;}.cls-3{stroke:#707070;}.cls-4{stroke:#000;stroke-miterlimit:10;stroke-width:2px;}</style></defs><title>zdecyduj</title><g id="Wybierz_rzeczy" data-name="Wybierz rzeczy" class="cls-1"><g class="cls-1"><path class="cls-2" d="M88.8,52.07a4.86,4.86,0,0,1-1.16,3.33,5.94,5.94,0,0,1-3.28,1.79v.11a6.41,6.41,0,0,1,3.8,1.57,4.53,4.53,0,0,1,1.26,3.35,5.52,5.52,0,0,1-2.14,4.67,9.82,9.82,0,0,1-6.1,1.65,13.69,13.69,0,0,1-5.89-1.14v-3a13.62,13.62,0,0,0,2.83,1,12.34,12.34,0,0,0,2.88.36,6.1,6.1,0,0,0,3.65-.9,3.31,3.31,0,0,0,1.21-2.81,2.67,2.67,0,0,0-1.34-2.47,8.51,8.51,0,0,0-4.2-.79H78.5V56.06h1.85c3.36,0,5-1.16,5-3.47a2.58,2.58,0,0,0-.87-2.09,4,4,0,0,0-2.59-.73,7.67,7.67,0,0,0-2.3.34A10.76,10.76,0,0,0,77,51.42l-1.65-2.36a11.06,11.06,0,0,1,6.71-2.12,8,8,0,0,1,5,1.36A4.48,4.48,0,0,1,88.8,52.07Z"/></g></g><g id="ubrania_zabawki_sprzęt_i_inne" data-name="ubrania zabawki sprzęt i inne" class="cls-1"><g class="cls-1"><path class="cls-2" d="M38,175.51l-1.57-5c-.1-.31-.28-1-.55-2.1h-.06c-.21.91-.39,1.62-.55,2.11l-1.62,5H32.1L29.77,167h1.36q.82,3.23,1.26,4.91a19.11,19.11,0,0,1,.49,2.27H33c0-.29.14-.68.27-1.15s.24-.84.33-1.12L35.13,167h1.4l1.53,4.91a18.12,18.12,0,0,1,.6,2.26h.06a8.37,8.37,0,0,1,.17-.87q.13-.58,1.63-6.3h1.34l-2.37,8.56Z"/><path class="cls-2" d="M42.05,167h1.39l1.87,4.88a19.21,19.21,0,0,1,.77,2.41h.06c.07-.26.21-.72.43-1.36s.92-2.62,2.12-5.93h1.39L46.4,176.7a5,5,0,0,1-1.28,2.05,2.73,2.73,0,0,1-1.79.6,5.06,5.06,0,0,1-1.17-.13v-1a4.61,4.61,0,0,0,1,.09,2,2,0,0,0,1.9-1.5l.48-1.21Z"/><path class="cls-2" d="M55.45,166.81A3.16,3.16,0,0,1,58.07,168a5,5,0,0,1,.94,3.26,5.14,5.14,0,0,1-.94,3.28,3.18,3.18,0,0,1-2.62,1.17,3.79,3.79,0,0,1-1.52-.31,2.89,2.89,0,0,1-1.16-1h-.1l-.27,1.1h-.93V163.35h1.3v3c0,.66,0,1.25-.07,1.78h.07A3.05,3.05,0,0,1,55.45,166.81Zm-.18,1.08a2.29,2.29,0,0,0-1.92.76,5.91,5.91,0,0,0,0,5.15,2.28,2.28,0,0,0,1.93.78,2,2,0,0,0,1.78-.87,4.5,4.5,0,0,0,.58-2.51,4.32,4.32,0,0,0-.58-2.49A2.1,2.1,0,0,0,55.27,167.89Z"/><path class="cls-2" d="M61.16,164.63a.9.9,0,0,1,.22-.66.81.81,0,0,1,.55-.2.76.76,0,0,1,.54.21.84.84,0,0,1,.23.65.87.87,0,0,1-.23.65.81.81,0,0,1-1.09,0A.91.91,0,0,1,61.16,164.63Zm1.41,10.88h-1.3V167h1.3Z"/><path class="cls-2" d="M68.94,175.67a3.94,3.94,0,0,1-3-1.16,4.48,4.48,0,0,1-1.1-3.21,5,5,0,0,1,1-3.29,3.41,3.41,0,0,1,2.74-1.22,3.23,3.23,0,0,1,2.55,1.06,4.08,4.08,0,0,1,.94,2.79v.82h-5.9a3.36,3.36,0,0,0,.76,2.29,2.63,2.63,0,0,0,2,.78,6.81,6.81,0,0,0,2.74-.58v1.16a7,7,0,0,1-1.3.43A7.75,7.75,0,0,1,68.94,175.67Zm-.35-7.79a2.12,2.12,0,0,0-1.65.67,3.08,3.08,0,0,0-.72,1.86H70.7a2.87,2.87,0,0,0-.55-1.88A1.92,1.92,0,0,0,68.59,167.88Z"/><path class="cls-2" d="M78.2,166.79a5.41,5.41,0,0,1,1,.09l-.18,1.21a4.39,4.39,0,0,0-.94-.12,2.29,2.29,0,0,0-1.78.84,3.12,3.12,0,0,0-.74,2.11v4.59H74.3V167h1.07l.15,1.58h.06a3.73,3.73,0,0,1,1.15-1.29A2.57,2.57,0,0,1,78.2,166.79Z"/><path class="cls-2" d="M86.3,175.51H80.09v-.88L84.77,168H80.38v-1h5.81v1l-4.61,6.55H86.3Z"/><path class="cls-2" d="M98,175.51H91.73v-.88L96.41,168H92v-1h5.81v1l-4.61,6.55H98Z"/><path class="cls-2" d="M105.22,175.51l-.26-1.22h-.06a3.55,3.55,0,0,1-1.28,1.09,3.86,3.86,0,0,1-1.59.29,2.83,2.83,0,0,1-2-.66,2.38,2.38,0,0,1-.73-1.87c0-1.73,1.39-2.63,4.15-2.72l1.45,0v-.54a2.15,2.15,0,0,0-.43-1.48,1.79,1.79,0,0,0-1.39-.48,5.6,5.6,0,0,0-2.42.65l-.4-1a6.27,6.27,0,0,1,1.39-.54,6,6,0,0,1,1.51-.19,3.23,3.23,0,0,1,2.27.68,2.84,2.84,0,0,1,.74,2.18v5.84Zm-2.93-.92a2.63,2.63,0,0,0,1.9-.66,2.45,2.45,0,0,0,.69-1.86v-.77l-1.29,0a4.76,4.76,0,0,0-2.23.48,1.46,1.46,0,0,0-.69,1.33,1.32,1.32,0,0,0,.43,1.07A1.78,1.78,0,0,0,102.29,174.59Z"/><path class="cls-2" d="M110.07,167v5.55a2.21,2.21,0,0,0,.48,1.56,1.9,1.9,0,0,0,1.49.52,2.43,2.43,0,0,0,2-.74,3.62,3.62,0,0,0,.63-2.39V167h1.29v8.56h-1.07l-.19-1.15h-.07a2.54,2.54,0,0,1-1.1,1,3.77,3.77,0,0,1-1.61.34,3.22,3.22,0,0,1-2.34-.75,3.13,3.13,0,0,1-.78-2.37V167Z"/><path class="cls-2" d="M122.53,168h-2.18v7.56h-1.3V168h-1.53v-.58l1.53-.47v-.48q0-3.15,2.76-3.15a5.74,5.74,0,0,1,1.6.27l-.34,1a4.34,4.34,0,0,0-1.28-.24,1.25,1.25,0,0,0-1.09.49,2.72,2.72,0,0,0-.35,1.56V167h2.18Z"/><path class="cls-2" d="M129.36,175.51l-.26-1.22H129a3.55,3.55,0,0,1-1.28,1.09,3.86,3.86,0,0,1-1.59.29,2.83,2.83,0,0,1-2-.66,2.38,2.38,0,0,1-.73-1.87c0-1.73,1.39-2.63,4.15-2.72l1.45,0v-.54a2.15,2.15,0,0,0-.43-1.48,1.79,1.79,0,0,0-1.39-.48,5.6,5.6,0,0,0-2.42.65l-.4-1a6.27,6.27,0,0,1,1.39-.54,6,6,0,0,1,1.51-.19,3.23,3.23,0,0,1,2.27.68,2.84,2.84,0,0,1,.74,2.18v5.84Zm-2.93-.92a2.63,2.63,0,0,0,1.9-.66,2.45,2.45,0,0,0,.69-1.86v-.77l-1.29,0a4.79,4.79,0,0,0-2.23.48,1.46,1.46,0,0,0-.69,1.33,1.32,1.32,0,0,0,.43,1.07A1.78,1.78,0,0,0,126.43,174.59Z"/><path class="cls-2" d="M138.85,175.51V170a2.26,2.26,0,0,0-.47-1.56,1.94,1.94,0,0,0-1.5-.52,2.46,2.46,0,0,0-2,.73,3.7,3.7,0,0,0-.62,2.4v4.49H133V167h1.06l.21,1.17h.06a2.68,2.68,0,0,1,1.12-1,3.65,3.65,0,0,1,1.6-.35,3.25,3.25,0,0,1,2.33.75,3.16,3.16,0,0,1,.78,2.38v5.59Z"/><path class="cls-2" d="M146.43,175.67a4,4,0,0,1-3-1.16,4.48,4.48,0,0,1-1.09-3.21,5,5,0,0,1,1-3.29,3.39,3.39,0,0,1,2.73-1.22,3.21,3.21,0,0,1,2.55,1.06,4,4,0,0,1,.94,2.79v.82h-5.9a3.42,3.42,0,0,0,.76,2.29,2.64,2.64,0,0,0,2,.78,6.8,6.8,0,0,0,2.73-.58v1.16a7,7,0,0,1-1.3.43A7.75,7.75,0,0,1,146.43,175.67Zm-.35-7.79a2.12,2.12,0,0,0-1.65.67,3.08,3.08,0,0,0-.72,1.86h4.48a2.81,2.81,0,0,0-.55-1.88A1.89,1.89,0,0,0,146.08,167.88Z"/><path class="cls-2" d="M74.2,194.71v-5.57a2.34,2.34,0,0,0-.44-1.54,1.69,1.69,0,0,0-1.36-.51,2.18,2.18,0,0,0-1.79.7,3.32,3.32,0,0,0-.57,2.14v4.78h-1.3v-5.57a2.34,2.34,0,0,0-.44-1.54,1.71,1.71,0,0,0-1.37-.51,2.1,2.1,0,0,0-1.78.73,4,4,0,0,0-.57,2.4v4.49H63.29v-8.56h1.05l.21,1.17h.06a2.59,2.59,0,0,1,1-1,3.18,3.18,0,0,1,1.49-.35,2.54,2.54,0,0,1,2.63,1.45h.06a2.84,2.84,0,0,1,1.11-1.06A3.48,3.48,0,0,1,72.6,186a2.87,2.87,0,0,1,2.17.75,3.28,3.28,0,0,1,.73,2.38v5.59Z"/><path class="cls-2" d="M78.06,183.83a.86.86,0,0,1,.22-.66.78.78,0,0,1,.54-.2.76.76,0,0,1,.54.21.84.84,0,0,1,.23.65.87.87,0,0,1-.23.65.76.76,0,0,1-.54.21.75.75,0,0,1-.54-.21A.87.87,0,0,1,78.06,183.83Zm1.4,10.88H78.17v-8.56h1.29Z"/><path class="cls-2" d="M85.83,194.87a3.93,3.93,0,0,1-3-1.16,4.44,4.44,0,0,1-1.1-3.21,5,5,0,0,1,1-3.29A3.39,3.39,0,0,1,85.5,186,3.2,3.2,0,0,1,88,187.05a4,4,0,0,1,.94,2.79v.82h-5.9a3.42,3.42,0,0,0,.76,2.29,2.65,2.65,0,0,0,2,.78,6.8,6.8,0,0,0,2.73-.58v1.16a7,7,0,0,1-1.3.43A7.75,7.75,0,0,1,85.83,194.87Zm-.35-7.79a2.08,2.08,0,0,0-1.64.67,3.15,3.15,0,0,0-.73,1.86h4.48a2.81,2.81,0,0,0-.55-1.88A1.89,1.89,0,0,0,85.48,187.08Z"/><path class="cls-2" d="M90.15,198.55a3.14,3.14,0,0,1-1.2-.19V197.3a3.59,3.59,0,0,0,1.06.16,1.13,1.13,0,0,0,.9-.33,1.52,1.52,0,0,0,.28-1v-10h1.3V196C92.49,197.71,91.71,198.55,90.15,198.55Zm.93-14.72a.86.86,0,0,1,.22-.66.81.81,0,0,1,.55-.2.76.76,0,0,1,.54.21.84.84,0,0,1,.22.65.87.87,0,0,1-.22.65.81.81,0,0,1-1.09,0A.87.87,0,0,1,91.08,183.83Z"/><path class="cls-2" d="M100.76,192.37a2.17,2.17,0,0,1-.89,1.85,4.2,4.2,0,0,1-2.5.65,5.47,5.47,0,0,1-2.66-.54v-1.21a6.63,6.63,0,0,0,1.33.5,5.45,5.45,0,0,0,1.36.17,3,3,0,0,0,1.56-.32,1.07,1.07,0,0,0,.55-1,1.05,1.05,0,0,0-.43-.85,6.77,6.77,0,0,0-1.69-.84,9.16,9.16,0,0,1-1.7-.78,2.23,2.23,0,0,1-.75-.75,1.94,1.94,0,0,1-.25-1,1.9,1.9,0,0,1,.85-1.65,3.94,3.94,0,0,1,2.34-.61,6.91,6.91,0,0,1,2.7.56l-.46,1.06a6.1,6.1,0,0,0-2.33-.53,2.66,2.66,0,0,0-1.4.29.88.88,0,0,0-.46.79,1,1,0,0,0,.17.59,1.87,1.87,0,0,0,.57.46,12.69,12.69,0,0,0,1.5.63,5.62,5.62,0,0,1,2.06,1.12A2,2,0,0,1,100.76,192.37Z"/><path class="cls-2" d="M106.29,194.87a3.67,3.67,0,0,1-2.88-1.15,4.7,4.7,0,0,1-1-3.24,4.86,4.86,0,0,1,1-3.32,3.73,3.73,0,0,1,2.95-1.17,5.71,5.71,0,0,1,1.23.13,4.06,4.06,0,0,1,1,.32l-.4,1.1a6,6,0,0,0-.93-.29,4.57,4.57,0,0,0-.9-.11q-2.61,0-2.61,3.33a3.92,3.92,0,0,0,.64,2.42,2.2,2.2,0,0,0,1.88.84,5.75,5.75,0,0,0,2.2-.46v1.15A4.68,4.68,0,0,1,106.29,194.87Z"/><path class="cls-2" d="M114.11,194.87a3.94,3.94,0,0,1-3-1.16,4.48,4.48,0,0,1-1.1-3.21,5,5,0,0,1,1-3.29,3.39,3.39,0,0,1,2.74-1.22,3.23,3.23,0,0,1,2.55,1.06,4.07,4.07,0,0,1,.93,2.79v.82h-5.89a3.32,3.32,0,0,0,.76,2.29,2.63,2.63,0,0,0,2,.78,6.85,6.85,0,0,0,2.74-.58v1.16a7.3,7.3,0,0,1-1.3.43A7.82,7.82,0,0,1,114.11,194.87Zm-.36-7.79a2.11,2.11,0,0,0-1.64.67,3.08,3.08,0,0,0-.72,1.86h4.47a2.87,2.87,0,0,0-.54-1.88A1.93,1.93,0,0,0,113.75,187.08Z"/></g></g><g id="Wybierz_rzeczy-2" data-name="Wybierz rzeczy" class="cls-1"><g class="cls-1"><path class="cls-2" d="M35,123.65H25.85v-1.46l6.48-9.59H26v-1.8h8.85v1.48l-6.51,9.57H35Z"/><path class="cls-2" d="M40.38,123.83a3.38,3.38,0,0,1-2.84-1.32,7.23,7.23,0,0,1,0-7.42,3.42,3.42,0,0,1,2.86-1.34,3.37,3.37,0,0,1,2.92,1.42h.1a14,14,0,0,1-.14-1.65V110h2.07v13.68H43.74l-.36-1.27h-.09A3.34,3.34,0,0,1,40.38,123.83Zm.55-1.67a2.22,2.22,0,0,0,1.85-.72,3.73,3.73,0,0,0,.6-2.32v-.29a4.38,4.38,0,0,0-.6-2.62,2.22,2.22,0,0,0-1.87-.77,1.93,1.93,0,0,0-1.68.88,4.56,4.56,0,0,0-.59,2.52,4.44,4.44,0,0,0,.58,2.47A1.94,1.94,0,0,0,40.93,122.16Z"/><path class="cls-2" d="M52.56,123.83A4.68,4.68,0,0,1,49,122.5a5,5,0,0,1-1.28-3.64,5.49,5.49,0,0,1,1.19-3.74,4.1,4.1,0,0,1,3.26-1.37,4,4,0,0,1,3,1.17,4.49,4.49,0,0,1,1.12,3.22v1.12H49.86a3.19,3.19,0,0,0,.76,2.17,2.65,2.65,0,0,0,2,.76,7.45,7.45,0,0,0,1.61-.16,8.54,8.54,0,0,0,1.59-.54v1.68a6.26,6.26,0,0,1-1.53.51A9.24,9.24,0,0,1,52.56,123.83Zm-.38-8.51a2.1,2.1,0,0,0-1.58.62,3,3,0,0,0-.71,1.82h4.42a2.7,2.7,0,0,0-.58-1.82A2,2,0,0,0,52.18,115.32Z"/><path class="cls-2" d="M62.6,123.83a4.25,4.25,0,0,1-3.35-1.29,6.52,6.52,0,0,1,0-7.47,4.46,4.46,0,0,1,3.47-1.32,6.36,6.36,0,0,1,2.77.58L64.92,116a6.32,6.32,0,0,0-2.17-.51c-1.68,0-2.52,1.11-2.52,3.35a4,4,0,0,0,.63,2.45,2.17,2.17,0,0,0,1.84.82,5.24,5.24,0,0,0,2.61-.68v1.8a4.16,4.16,0,0,1-1.18.47A7.39,7.39,0,0,1,62.6,123.83Z"/><path class="cls-2" d="M66.12,113.93h2.25l2,5.51a10.35,10.35,0,0,1,.59,2.22H71a10.47,10.47,0,0,1,.29-1.18c.15-.46.89-2.64,2.24-6.55h2.23l-4.16,11q-1.12,3-3.78,3a6.53,6.53,0,0,1-1.33-.14v-1.64a4.8,4.8,0,0,0,1.06.11,2.17,2.17,0,0,0,2.1-1.74l.36-.91Z"/><path class="cls-2" d="M80.52,123.83a3.37,3.37,0,0,1-2.83-1.32,7.23,7.23,0,0,1,0-7.42,3.42,3.42,0,0,1,2.86-1.34,3.37,3.37,0,0,1,2.92,1.42h.1a12.4,12.4,0,0,1-.15-1.65V110h2.08v13.68H83.89l-.36-1.27h-.1A3.31,3.31,0,0,1,80.52,123.83Zm.56-1.67a2.22,2.22,0,0,0,1.85-.72,3.73,3.73,0,0,0,.6-2.32v-.29a4.38,4.38,0,0,0-.6-2.62,2.23,2.23,0,0,0-1.87-.77,1.91,1.91,0,0,0-1.68.88,4.56,4.56,0,0,0-.59,2.52,4.44,4.44,0,0,0,.57,2.47A2,2,0,0,0,81.08,122.16Z"/><path class="cls-2" d="M95.32,123.65,95,122.38h-.11a3,3,0,0,1-1.22,1.06,4.09,4.09,0,0,1-1.82.39,3.59,3.59,0,0,1-2.64-.88,3.67,3.67,0,0,1-.87-2.67v-6.35h2.09v6a2.63,2.63,0,0,0,.45,1.68,1.78,1.78,0,0,0,1.44.56,2.29,2.29,0,0,0,1.91-.78,4.28,4.28,0,0,0,.61-2.61v-4.84h2.07v9.72Z"/><path class="cls-2" d="M98.89,128a4.52,4.52,0,0,1-1.54-.22v-1.63a4.54,4.54,0,0,0,1.22.16q1.32,0,1.32-1.5V113.93H102v11a3.06,3.06,0,0,1-.78,2.28A3.12,3.12,0,0,1,98.89,128Zm.87-16.62a1.06,1.06,0,0,1,1.17-1.15,1.14,1.14,0,0,1,.85.3,1.34,1.34,0,0,1,0,1.69,1.14,1.14,0,0,1-.85.3,1.17,1.17,0,0,1-.86-.3A1.16,1.16,0,0,1,99.76,111.35Z"/><path class="cls-2" d="M111.58,118.52l1.17-1.46,2.93-3.13h2.38l-3.91,4.17,4.16,5.55h-2.43l-3.12-4.26-1.13.93v3.33h-2V110h2v6.68l-.11,1.87Z"/><path class="cls-2" d="M128.5,118.77a5.28,5.28,0,0,1-1.23,3.72,4.36,4.36,0,0,1-3.4,1.34,4.67,4.67,0,0,1-2.41-.62,4.05,4.05,0,0,1-1.6-1.77,5.9,5.9,0,0,1-.57-2.67,5.28,5.28,0,0,1,1.22-3.69,4.38,4.38,0,0,1,3.41-1.33,4.3,4.3,0,0,1,3.34,1.36A5.22,5.22,0,0,1,128.5,118.77Zm-7.08,0c0,2.25.83,3.37,2.49,3.37s2.46-1.12,2.46-3.37-.83-3.33-2.48-3.33a2.1,2.1,0,0,0-1.88.86A4.4,4.4,0,0,0,121.42,118.77Z"/><path class="cls-2" d="M139.06,123.65H137v-6a2.73,2.73,0,0,0-.43-1.67,1.54,1.54,0,0,0-1.31-.55,2,2,0,0,0-1.76.78,4.58,4.58,0,0,0-.56,2.59v4.84h-2.06v-9.72h1.62l.29,1.27h.1a2.7,2.7,0,0,1,1.17-1.07,3.85,3.85,0,0,1,1.7-.38,3,3,0,0,1,3,1.53h.14a2.92,2.92,0,0,1,1.21-1.12,3.84,3.84,0,0,1,1.79-.41,3.3,3.3,0,0,1,2.54.88,3.9,3.9,0,0,1,.79,2.68v6.34h-2.06v-6a2.67,2.67,0,0,0-.43-1.67,1.55,1.55,0,0,0-1.32-.55,2,2,0,0,0-1.76.75,3.89,3.89,0,0,0-.56,2.31Z"/><path class="cls-2" d="M154.93,123.65l-.29-1.27h-.1a3,3,0,0,1-1.23,1.06,4,4,0,0,1-1.81.39,3.59,3.59,0,0,1-2.64-.88,3.67,3.67,0,0,1-.87-2.67v-6.35h2.08v6a2.57,2.57,0,0,0,.46,1.68,1.74,1.74,0,0,0,1.43.56,2.26,2.26,0,0,0,1.91-.78,4.28,4.28,0,0,0,.61-2.61v-4.84h2.08v9.72Z"/><path class="cls-2" d="M36.55,145.43a4.24,4.24,0,0,1-3.35-1.29,5.36,5.36,0,0,1-1.15-3.7,5.42,5.42,0,0,1,1.2-3.77,4.44,4.44,0,0,1,3.47-1.32,6.49,6.49,0,0,1,2.76.57l-.62,1.67a6.22,6.22,0,0,0-2.16-.51c-1.68,0-2.52,1.11-2.52,3.34a4,4,0,0,0,.62,2.46,2.18,2.18,0,0,0,1.85.82,5.35,5.35,0,0,0,2.61-.68v1.8a4.22,4.22,0,0,1-1.19.47A7.29,7.29,0,0,1,36.55,145.43Z"/><path class="cls-2" d="M50.09,145.25H48v-6a2.63,2.63,0,0,0-.45-1.68,1.79,1.79,0,0,0-1.44-.55,2.26,2.26,0,0,0-1.91.78,4.27,4.27,0,0,0-.61,2.6v4.83H41.54V131.57h2.07v3.48a16.32,16.32,0,0,1-.11,1.78h.13a2.83,2.83,0,0,1,1.18-1.09,3.73,3.73,0,0,1,1.75-.39c2.36,0,3.53,1.19,3.53,3.56Z"/><path class="cls-2" d="M56.89,145.43a4.28,4.28,0,0,1-3.36-1.29,6.55,6.55,0,0,1,.06-7.47,4.43,4.43,0,0,1,3.46-1.32,6.5,6.5,0,0,1,2.77.57l-.62,1.67a6.27,6.27,0,0,0-2.16-.51c-1.69,0-2.53,1.11-2.53,3.34a4,4,0,0,0,.63,2.46,2.17,2.17,0,0,0,1.84.82,5.35,5.35,0,0,0,2.61-.68v1.8a4.16,4.16,0,0,1-1.18.47A7.36,7.36,0,0,1,56.89,145.43Z"/><path class="cls-2" d="M66.12,145.43a4.66,4.66,0,0,1-3.54-1.33,5,5,0,0,1-1.28-3.64,5.44,5.44,0,0,1,1.19-3.74,4.08,4.08,0,0,1,3.26-1.37,4,4,0,0,1,3,1.17,4.48,4.48,0,0,1,1.11,3.22v1.12H63.43a3.19,3.19,0,0,0,.76,2.17,2.65,2.65,0,0,0,2,.76,7.29,7.29,0,0,0,1.6-.16,8.62,8.62,0,0,0,1.6-.54v1.68a6.26,6.26,0,0,1-1.53.51A9.28,9.28,0,0,1,66.12,145.43Zm-.37-8.51a2.09,2.09,0,0,0-1.58.62,3,3,0,0,0-.71,1.82h4.41a2.65,2.65,0,0,0-.58-1.82A2,2,0,0,0,65.75,136.92Z"/><path class="cls-2" d="M78.78,142.48a2.56,2.56,0,0,1-1,2.19,5,5,0,0,1-3,.76,7.08,7.08,0,0,1-3.12-.59v-1.79a7.66,7.66,0,0,0,3.19.79c1.27,0,1.91-.38,1.91-1.15a.9.9,0,0,0-.21-.61,2.22,2.22,0,0,0-.7-.51,10.79,10.79,0,0,0-1.34-.6,6.15,6.15,0,0,1-2.27-1.3,2.39,2.39,0,0,1-.6-1.69,2.23,2.23,0,0,1,1-1.94,4.77,4.77,0,0,1,2.74-.69,7.65,7.65,0,0,1,3.24.7L78,137.6a7.24,7.24,0,0,0-2.64-.65c-1.09,0-1.64.31-1.64.93a1,1,0,0,0,.43.78,9.23,9.23,0,0,0,1.86.87,8.64,8.64,0,0,1,1.75.85,2.71,2.71,0,0,1,.81.89A2.67,2.67,0,0,1,78.78,142.48Z"/><path class="cls-2" d="M87.51,145.25H80.13V144l4.92-6.87H80.43v-1.58h6.94V137l-4.81,6.7h5Z"/><path class="cls-2" d="M99.22,145.43a3.41,3.41,0,0,1-2.86-1.33h-.12c.08.82.12,1.32.12,1.49v4H94.29v-14H96c.05.18.15.61.29,1.3h.11a3.24,3.24,0,0,1,2.9-1.48,3.36,3.36,0,0,1,2.83,1.32,5.92,5.92,0,0,1,1,3.7,6,6,0,0,1-1,3.72A3.42,3.42,0,0,1,99.22,145.43Zm-.5-8.39a2.16,2.16,0,0,0-1.8.72,3.79,3.79,0,0,0-.56,2.3v.31a4.57,4.57,0,0,0,.56,2.57,2.11,2.11,0,0,0,1.84.8,1.86,1.86,0,0,0,1.65-.88,4.53,4.53,0,0,0,.58-2.51,4.31,4.31,0,0,0-.58-2.47A1.91,1.91,0,0,0,98.72,137Z"/><path class="cls-2" d="M114.13,140.37a5.33,5.33,0,0,1-1.22,3.72,4.39,4.39,0,0,1-3.4,1.34,4.67,4.67,0,0,1-2.41-.62,4.07,4.07,0,0,1-1.61-1.77,6,6,0,0,1-.56-2.67,5.28,5.28,0,0,1,1.21-3.69,4.42,4.42,0,0,1,3.42-1.33,4.3,4.3,0,0,1,3.34,1.36A5.26,5.26,0,0,1,114.13,140.37Zm-7.08,0c0,2.25.83,3.37,2.49,3.37s2.46-1.12,2.46-3.37-.82-3.33-2.48-3.33a2.12,2.12,0,0,0-1.88.86A4.4,4.4,0,0,0,107.05,140.37Z"/><path class="cls-2" d="M124.69,145.25h-2.07v-6a2.74,2.74,0,0,0-.42-1.67,1.55,1.55,0,0,0-1.32-.55,2,2,0,0,0-1.75.78,4.5,4.5,0,0,0-.56,2.59v4.84H116.5v-9.72h1.62l.29,1.27h.11a2.7,2.7,0,0,1,1.17-1.07,3.81,3.81,0,0,1,1.69-.38,2.94,2.94,0,0,1,3,1.53h.14a2.94,2.94,0,0,1,1.22-1.12,3.81,3.81,0,0,1,1.79-.41,3.27,3.27,0,0,1,2.53.88,3.9,3.9,0,0,1,.8,2.68v6.34h-2.07v-6a2.74,2.74,0,0,0-.42-1.67A1.58,1.58,0,0,0,127,137a2,2,0,0,0-1.76.75,3.89,3.89,0,0,0-.56,2.31Z"/><path class="cls-2" d="M142.33,140.37a5.28,5.28,0,0,1-1.22,3.72,4.38,4.38,0,0,1-3.4,1.34,4.67,4.67,0,0,1-2.41-.62,4.13,4.13,0,0,1-1.61-1.77,6,6,0,0,1-.56-2.67,5.33,5.33,0,0,1,1.21-3.69,4.42,4.42,0,0,1,3.42-1.33,4.3,4.3,0,0,1,3.34,1.36A5.26,5.26,0,0,1,142.33,140.37Zm-7.07,0c0,2.25.83,3.37,2.49,3.37s2.46-1.12,2.46-3.37-.83-3.33-2.48-3.33a2.13,2.13,0,0,0-1.89.86A4.4,4.4,0,0,0,135.26,140.37Zm1.13-6v-.22c.34-.41.68-.86,1-1.37a13.57,13.57,0,0,0,.84-1.29h2.4v.18A18.31,18.31,0,0,1,139.3,133a20,20,0,0,1-1.54,1.31Z"/><path class="cls-2" d="M148.63,145.43a4.28,4.28,0,0,1-3.36-1.29,6.55,6.55,0,0,1,.06-7.47,4.43,4.43,0,0,1,3.46-1.32,6.5,6.5,0,0,1,2.77.57l-.62,1.67a6.27,6.27,0,0,0-2.16-.51c-1.69,0-2.53,1.11-2.53,3.34a4,4,0,0,0,.63,2.46,2.18,2.18,0,0,0,1.84.82,5.35,5.35,0,0,0,2.61-.68v1.8a4.16,4.16,0,0,1-1.18.47A7.36,7.36,0,0,1,148.63,145.43Z"/></g></g><line id="Line" class="cls-3" x1="56.5" y1="156.06" x2="126.5" y2="156.06"/><circle class="cls-4" cx="82.04" cy="57.26" r="21.82"/><path class="cls-4" d="M103.16,74.52a27.36,27.36,0,1,0-3.86,3.85l13.55,13.54a2.69,2.69,0,0,0,3.85,0,2.68,2.68,0,0,0,0-3.84L106.06,77.41"/></svg>