<svg id="Warstwa_2" data-name="Warstwa 2" xmlns="http://www.w3.org/2000/svg" viewBox="0 0 603.8 382.33"><defs><style>.cls-1{fill:#5e5322;}</style></defs><title>7_zbiorek</title><path class="cls-1" d="M285.32,142.14l26.16-59.36H275.54V78.6h41.11v3.18L290.4,142.14Z"/><path class="cls-1" d="M181.66,196.91h-8.51v-1.13l6.57-9.95h-6.36v-1.3h8.12v1.13l-6.57,9.94h6.75Z"/><path class="cls-1" d="M194.8,190.7a6.81,6.81,0,0,1-1.5,4.67,6.05,6.05,0,0,1-8.4,0,8.16,8.16,0,0,1,0-9.4,5.41,5.41,0,0,1,4.24-1.66A5.27,5.27,0,0,1,193.3,186,6.81,6.81,0,0,1,194.8,190.7Zm-9.86,0a5.81,5.81,0,0,0,1.07,3.81,4.37,4.37,0,0,0,6.21,0,7.45,7.45,0,0,0,0-7.61,3.75,3.75,0,0,0-3.09-1.29,3.83,3.83,0,0,0-3.13,1.3A5.79,5.79,0,0,0,184.94,190.7Z"/><path class="cls-1" d="M199,191.76v5.15h-1.44V184.53H201a5.37,5.37,0,0,1,3.37.87,3.19,3.19,0,0,1,1.09,2.63,3.29,3.29,0,0,1-2.49,3.31l3.36,5.57h-1.71l-3-5.15Zm0-1.24h2a3.4,3.4,0,0,0,2.23-.6,2.23,2.23,0,0,0,.71-1.82,2.07,2.07,0,0,0-.72-1.77,3.93,3.93,0,0,0-2.32-.54H199Z"/><path class="cls-1" d="M213.72,190.42h4.2v6a12.5,12.5,0,0,1-2,.47,14.92,14.92,0,0,1-2.36.17,5.67,5.67,0,0,1-4.37-1.68,6.54,6.54,0,0,1-1.57-4.68,7,7,0,0,1,.78-3.38,5.14,5.14,0,0,1,2.23-2.22,7.21,7.21,0,0,1,3.41-.77,9.42,9.42,0,0,1,3.69.73l-.56,1.27a8.32,8.32,0,0,0-3.23-.71,4.63,4.63,0,0,0-3.53,1.35,5.24,5.24,0,0,0-1.27,3.73,5.31,5.31,0,0,0,1.23,3.8,4.7,4.7,0,0,0,3.59,1.29,10.59,10.59,0,0,0,2.52-.29v-3.81h-2.77Z"/><path class="cls-1" d="M228.67,196.91,227.13,193h-5l-1.52,3.94h-1.46l4.9-12.43h1.21l4.86,12.43Zm-2-5.23-1.44-3.84c-.19-.48-.38-1.08-.58-1.79a15,15,0,0,1-.53,1.79l-1.46,3.84Z"/><path class="cls-1" d="M241.53,196.91h-1.64l-6.76-10.39h-.07c.09,1.22.13,2.34.13,3.35v7h-1.33V184.53h1.63l6.75,10.34h.06c0-.15,0-.64-.07-1.46s-.06-1.42,0-1.78v-7.1h1.34Z"/><path class="cls-1" d="M244.93,196.91V184.53h1.44v12.38Z"/><path class="cls-1" d="M257.27,196.91h-8.51v-1.13l6.57-9.95H249v-1.3h8.12v1.13l-6.57,9.94h6.76Z"/><path class="cls-1" d="M270.41,190.7a6.81,6.81,0,0,1-1.51,4.67,5.26,5.26,0,0,1-4.17,1.71,5.33,5.33,0,0,1-4.22-1.68,8.16,8.16,0,0,1,0-9.4,5.37,5.37,0,0,1,4.23-1.66,5.28,5.28,0,0,1,4.17,1.69A6.81,6.81,0,0,1,270.41,190.7Zm-9.87,0a5.87,5.87,0,0,0,1.07,3.81,3.8,3.8,0,0,0,3.12,1.3,3.76,3.76,0,0,0,3.1-1.29,7.45,7.45,0,0,0,0-7.61,3.76,3.76,0,0,0-3.1-1.29,3.85,3.85,0,0,0-3.13,1.3A5.85,5.85,0,0,0,260.54,190.7Z"/><path class="cls-1" d="M284,196.91h-1.43l-2.49-8.29c-.12-.37-.25-.83-.4-1.39a8.2,8.2,0,0,1-.23-1,18.7,18.7,0,0,1-.59,2.45l-2.42,8.24H275l-3.3-12.38h1.53l1.95,7.64a28,28,0,0,1,.59,2.92,21.49,21.49,0,0,1,.68-3l2.22-7.53h1.52l2.33,7.59a24.23,24.23,0,0,1,.69,3,23.79,23.79,0,0,1,.61-2.93l1.94-7.63h1.53Z"/><path class="cls-1" d="M297,196.91,295.45,193h-5L289,196.91h-1.46l4.9-12.43h1.2l4.87,12.43Zm-2-5.23-1.44-3.84c-.18-.48-.37-1.08-.57-1.79a17.18,17.18,0,0,1-.53,1.79L291,191.68Z"/><path class="cls-1" d="M309.85,196.91h-1.64l-6.76-10.39h-.07c.09,1.22.13,2.34.13,3.35v7h-1.33V184.53h1.63l6.75,10.34h.06c0-.15,0-.64-.07-1.46s-.06-1.42-.05-1.78v-7.1h1.35Z"/><path class="cls-1" d="M316.4,190.72l3.3-6.19h1.56l-4.13,7.58v4.8h-1.46v-4.74l-4.12-7.64h1.58Z"/><path class="cls-1" d="M328.26,185.64A4,4,0,0,0,325,187a5.45,5.45,0,0,0-1.18,3.72,5.57,5.57,0,0,0,1.14,3.75,4,4,0,0,0,3.24,1.33,11.14,11.14,0,0,0,3-.47v1.26a9.16,9.16,0,0,1-3.18.49,5.41,5.41,0,0,1-4.22-1.66,6.85,6.85,0,0,1-1.48-4.72,7.54,7.54,0,0,1,.71-3.35,5.17,5.17,0,0,1,2.07-2.22,6.25,6.25,0,0,1,3.18-.78,7.7,7.7,0,0,1,3.4.71l-.61,1.24A6.53,6.53,0,0,0,328.26,185.64Z"/><path class="cls-1" d="M343.29,196.91h-1.43v-5.83h-6.52v5.83H333.9V184.53h1.44v5.27h6.52v-5.27h1.43Z"/><path class="cls-1" d="M358.69,196.91h-8.5v-1.13l6.56-9.95h-6.36v-1.3h8.12v1.13l-6.57,9.94h6.75Z"/><path class="cls-1" d="M361.09,184.53h3.49a6.62,6.62,0,0,1,3.57.74,2.6,2.6,0,0,1,1.1,2.33,2.69,2.69,0,0,1-.62,1.81,2.92,2.92,0,0,1-1.79.93v.08c1.88.32,2.82,1.31,2.82,3a3.2,3.2,0,0,1-1.12,2.6,4.77,4.77,0,0,1-3.13.93h-4.32Zm1.44,5.3h2.37a3.86,3.86,0,0,0,2.19-.48,1.85,1.85,0,0,0,.67-1.61,1.61,1.61,0,0,0-.75-1.5,4.58,4.58,0,0,0-2.37-.47h-2.11Zm0,1.22v4.63h2.58a3.62,3.62,0,0,0,2.25-.58,2.13,2.13,0,0,0,.76-1.82,1.94,1.94,0,0,0-.77-1.69,4.18,4.18,0,0,0-2.36-.54Z"/><path class="cls-1" d="M372.32,196.91V184.53h1.44v12.38Z"/><path class="cls-1" d="M387.9,190.7a6.81,6.81,0,0,1-1.51,4.67,5.26,5.26,0,0,1-4.17,1.71A5.33,5.33,0,0,1,378,195.4a8.16,8.16,0,0,1,0-9.4,5.37,5.37,0,0,1,4.23-1.66A5.28,5.28,0,0,1,386.4,186,6.81,6.81,0,0,1,387.9,190.7Zm-9.87,0a5.87,5.87,0,0,0,1.07,3.81,3.82,3.82,0,0,0,3.12,1.3,3.76,3.76,0,0,0,3.1-1.29,7.45,7.45,0,0,0,0-7.61,3.76,3.76,0,0,0-3.1-1.29,3.85,3.85,0,0,0-3.13,1.3A5.85,5.85,0,0,0,378,190.7Zm3-7.37c.27-.35.56-.77.88-1.27s.56-.93.74-1.3h1.71v.18a12.92,12.92,0,0,1-1.11,1.36,12.78,12.78,0,0,1-1.28,1.24H381Z"/><path class="cls-1" d="M392.09,191.76v5.15h-1.43V184.53h3.39a5.32,5.32,0,0,1,3.36.87A3.16,3.16,0,0,1,398.5,188a3.28,3.28,0,0,1-2.49,3.31l3.36,5.57h-1.7l-3-5.15Zm0-1.24h2a3.42,3.42,0,0,0,2.23-.6,2.23,2.23,0,0,0,.71-1.82,2.07,2.07,0,0,0-.72-1.77,3.94,3.94,0,0,0-2.33-.54h-1.87Z"/><path class="cls-1" d="M408.27,196.91h-6.9V184.53h6.9v1.28h-5.46v4h5.13v1.27h-5.13v4.55h5.46Z"/><path class="cls-1" d="M420,196.91h-1.69l-4.51-6-1.3,1.16v4.85H411V184.53h1.44v6.14l5.61-6.14h1.71l-5,5.38Z"/><path class="cls-1" d="M123.58,229.41l-1.38-.21v-.85h4.88v.85l-1.68.21V240l4.39-.15,1-2.86,1,.15-.6,3.86h-9.06v-.83l1.41-.17Z"/><path class="cls-1" d="M133.53,233.59a4.35,4.35,0,0,1,3.86-2.3,3.89,3.89,0,0,1,3.22,1.36,5.58,5.58,0,0,1,1.08,3.57,5.38,5.38,0,0,1-.63,2.67,4.25,4.25,0,0,1-1.66,1.7,4.39,4.39,0,0,1-2.2.58,3.85,3.85,0,0,1-3.22-1.36,5.58,5.58,0,0,1-1.08-3.57A5.33,5.33,0,0,1,133.53,233.59Zm5.57,5.64a5.29,5.29,0,0,0,.63-2.87,6.41,6.41,0,0,0-.58-3,1.93,1.93,0,0,0-1.85-1.11,2,2,0,0,0-1.81,1,5.3,5.3,0,0,0-.64,2.87,6.34,6.34,0,0,0,.6,3,2,2,0,0,0,1.85,1.1A2,2,0,0,0,139.1,239.23Z"/><path class="cls-1" d="M143.27,240.15l1.27-.1v-7.19l-1.22-.31v-.92l2.34-.3h0l.37.3v.31l0,1.33h0a4.45,4.45,0,0,1,.61-.75,4.68,4.68,0,0,1,1.14-.84,3.07,3.07,0,0,1,1.52-.39,1.53,1.53,0,0,1,.56.09v1.9a1.59,1.59,0,0,0-.38-.16,2.21,2.21,0,0,0-.59-.08,4.38,4.38,0,0,0-2.62.87V240l2.16.14V241h-5.2Z"/><path class="cls-1" d="M152.07,239.83a5.57,5.57,0,0,1-1.08-3.59,5.66,5.66,0,0,1,.56-2.6,4,4,0,0,1,1.57-1.73,4.33,4.33,0,0,1,2.3-.62,3.31,3.31,0,0,1,2.46.88,3.6,3.6,0,0,1,.93,2.51,7.89,7.89,0,0,1-.12,1.58h-5.85a4.65,4.65,0,0,0,.78,2.71,2.49,2.49,0,0,0,2.13,1,4.56,4.56,0,0,0,1.41-.25,3.33,3.33,0,0,0,1.15-.59l.33.75a4.06,4.06,0,0,1-1.47.89,5.38,5.38,0,0,1-2,.37A3.78,3.78,0,0,1,152.07,239.83Zm4.87-4.47a6,6,0,0,0,.05-.74,3.07,3.07,0,0,0-.47-1.74,1.62,1.62,0,0,0-1.42-.63,1.91,1.91,0,0,0-1.57.71,4.11,4.11,0,0,0-.67,2.4Z"/><path class="cls-1" d="M160.25,240.15l1-.15v-7.14l-1.23-.31v-.92l2.43-.3.31.22.1.68v.54a5.78,5.78,0,0,1,1.62-1,4.65,4.65,0,0,1,1.84-.45,3.11,3.11,0,0,1,1.48.3,2,2,0,0,1,.85,1,5.71,5.71,0,0,1,1.52-.85,4.81,4.81,0,0,1,1.83-.4,2.92,2.92,0,0,1,1.65.4,2.1,2.1,0,0,1,.84,1.24,8,8,0,0,1,.25,2.25V240l1.22.15V241h-4v-.83L173,240v-4.73a7.2,7.2,0,0,0-.14-1.57,1.51,1.51,0,0,0-.55-.88,2,2,0,0,0-1.15-.29,3.39,3.39,0,0,0-1.19.25,4.72,4.72,0,0,0-1.07.59,8.27,8.27,0,0,1,.16,1.88V240l1.2.15V241h-4.11v-.83l1.12-.15v-4.76a7.15,7.15,0,0,0-.13-1.58,1.4,1.4,0,0,0-.48-.85,1.8,1.8,0,0,0-1.09-.28,3.28,3.28,0,0,0-1.3.31,5.36,5.36,0,0,0-1.2.71V240l1.14.15V241h-4Z"/><path class="cls-1" d="M182.54,232.86l-1.3-.31v-.9l2.64-.32h0l.4.3V240l1.36.14V241h-4.51v-.83l1.38-.15Zm-.14-3.32a1.12,1.12,0,0,1-.27-.78,1.28,1.28,0,0,1,.33-.9,1.18,1.18,0,0,1,.91-.36,1.05,1.05,0,0,1,.85.31,1.12,1.12,0,0,1,.27.78,1.26,1.26,0,0,1-.33.92,1.22,1.22,0,0,1-.93.34h0A1,1,0,0,1,182.4,229.54Z"/><path class="cls-1" d="M195.47,238.58a4.51,4.51,0,0,1-1.7,1.89,4.66,4.66,0,0,1-2.58.7,5.57,5.57,0,0,1-.88-.07,3.58,3.58,0,0,1-.77-.17l.05,1.43v1.72l1.77.18v.84h-4.74v-.84l1.22-.18V232.86l-1.24-.31v-.92l2.41-.3h0l.36.3v1a4.42,4.42,0,0,1,1.26-1,3.66,3.66,0,0,1,1.69-.39,3.59,3.59,0,0,1,1.85.5,3.46,3.46,0,0,1,1.35,1.53,5.89,5.89,0,0,1,.51,2.61A5.83,5.83,0,0,1,195.47,238.58Zm-5-5.82a2.87,2.87,0,0,0-.87.59v6.41a1,1,0,0,0,.61.36,3.23,3.23,0,0,0,1.06.17,2.54,2.54,0,0,0,2.11-1,5,5,0,0,0,.81-3.13,4.44,4.44,0,0,0-.7-2.74,2.21,2.21,0,0,0-1.81-.9A2.63,2.63,0,0,0,190.46,232.76Z"/><path class="cls-1" d="M199.13,239.62a1.39,1.39,0,0,0,.72.46,3.28,3.28,0,0,0,1.17.21,2.21,2.21,0,0,0,1.42-.38,1.25,1.25,0,0,0,.46-1,1.14,1.14,0,0,0-.29-.79,2.59,2.59,0,0,0-.8-.61c-.35-.17-.85-.39-1.49-.64a4.6,4.6,0,0,1-1.91-1.18,2.59,2.59,0,0,1-.61-1.81,2,2,0,0,1,.45-1.31,3,3,0,0,1,1.24-.87,4.75,4.75,0,0,1,1.76-.32,6.84,6.84,0,0,1,1.37.12,8.61,8.61,0,0,1,.95.24l.47.15V234h-1l-.34-1.26a.83.83,0,0,0-.54-.34,3,3,0,0,0-1-.15,2.08,2.08,0,0,0-1.23.34,1.09,1.09,0,0,0-.47.92,1.4,1.4,0,0,0,.25.84,2,2,0,0,0,.62.54c.25.13.59.29,1,.47l.34.14a13.21,13.21,0,0,1,1.55.71,3.14,3.14,0,0,1,1,.89,2.24,2.24,0,0,1,.4,1.36,2.38,2.38,0,0,1-1,2,4.28,4.28,0,0,1-2.67.75,7.32,7.32,0,0,1-1.75-.23,10.47,10.47,0,0,1-1.48-.47V238.3h1.1Z"/><path class="cls-1" d="M213.16,241a.75.75,0,0,1-.23-.61v-.58a5.62,5.62,0,0,1-1.4,1,3.74,3.74,0,0,1-1.69.42,2.69,2.69,0,0,1-2.25-.85,4.63,4.63,0,0,1-.66-2.8v-4.94l-1-.27v-.74l2.38-.23h0l.32.21v5.83a6.77,6.77,0,0,0,.14,1.54,1.39,1.39,0,0,0,.51.81,1.8,1.8,0,0,0,1.07.27,2.92,2.92,0,0,0,1.27-.29,4.56,4.56,0,0,0,1-.68v-6.45l-1.23-.27v-.74l2.59-.23h0l.39.21v8.57h1l0,.76-.82.19a4.89,4.89,0,0,1-.81.07A1.16,1.16,0,0,1,213.16,241Z"/><path class="cls-1" d="M216.86,240.15l1-.15v-7.14l-1.23-.31v-.92l2.43-.3.31.22.1.68,0,.54a6,6,0,0,1,1.63-1,4.65,4.65,0,0,1,1.84-.45,3.14,3.14,0,0,1,1.48.3,2,2,0,0,1,.85,1,5.71,5.71,0,0,1,1.52-.85,4.77,4.77,0,0,1,1.83-.4,2.92,2.92,0,0,1,1.65.4,2.1,2.1,0,0,1,.84,1.24,8.42,8.42,0,0,1,.25,2.25V240l1.22.15V241h-4v-.83l1.05-.15v-4.73a6.54,6.54,0,0,0-.15-1.57,1.45,1.45,0,0,0-.54-.88,2,2,0,0,0-1.15-.29,3.39,3.39,0,0,0-1.19.25,4.52,4.52,0,0,0-1.07.59,8.9,8.9,0,0,1,.16,1.88V240l1.2.15V241h-4.11v-.83l1.12-.15v-4.76a7.15,7.15,0,0,0-.13-1.58,1.4,1.4,0,0,0-.48-.85,1.8,1.8,0,0,0-1.09-.28,3.28,3.28,0,0,0-1.3.31,5.36,5.36,0,0,0-1.2.71V240l1.14.15V241h-4Z"/><path class="cls-1" d="M239.62,240.66a3.6,3.6,0,0,1-1.35-1.56,6.12,6.12,0,0,1-.5-2.6,5.88,5.88,0,0,1,.59-2.64,4.63,4.63,0,0,1,1.71-1.88,4.91,4.91,0,0,1,2.63-.69,6.45,6.45,0,0,1,1.58.19V228.3l-1.73-.2v-.73l3.06-.31h0l.37.27v12.79h1v.78c-.37.08-.68.14-1,.18a4.46,4.46,0,0,1-.84.07,1,1,0,0,1-.63-.15.85.85,0,0,1-.18-.65v-.54a3.84,3.84,0,0,1-1.25,1,3.7,3.7,0,0,1-1.68.39A3.58,3.58,0,0,1,239.62,240.66Zm3.79-1a2.42,2.42,0,0,0,.87-.69v-6.22a1.19,1.19,0,0,0-.64-.37,3.36,3.36,0,0,0-1.06-.16,2.57,2.57,0,0,0-2.12,1,5.07,5.07,0,0,0-.79,3.12,4.4,4.4,0,0,0,.7,2.72,2.18,2.18,0,0,0,1.8.88A2.76,2.76,0,0,0,243.41,239.67Z"/><path class="cls-1" d="M249,233.59a4.32,4.32,0,0,1,1.65-1.71,4.4,4.4,0,0,1,2.2-.59,3.9,3.9,0,0,1,3.23,1.36,5.58,5.58,0,0,1,1.08,3.57,5.38,5.38,0,0,1-.63,2.67,4.25,4.25,0,0,1-1.66,1.7,4.39,4.39,0,0,1-2.2.58,3.85,3.85,0,0,1-3.22-1.36,5.58,5.58,0,0,1-1.08-3.57A5.33,5.33,0,0,1,249,233.59Zm5.57,5.64a5.29,5.29,0,0,0,.63-2.87,6.41,6.41,0,0,0-.58-3,1.93,1.93,0,0,0-1.85-1.11,2,2,0,0,0-1.81,1,5.22,5.22,0,0,0-.64,2.87,6.34,6.34,0,0,0,.6,3,2,2,0,0,0,1.85,1.1A2,2,0,0,0,254.58,239.23Z"/><path class="cls-1" d="M260,228.3l-1.37-.19v-.73l2.73-.32h0l.37.26V240l1.45.14V241h-4.59v-.83L260,240Z"/><path class="cls-1" d="M265,233.59a4.34,4.34,0,0,1,1.66-1.71,4.4,4.4,0,0,1,2.2-.59,3.88,3.88,0,0,1,3.22,1.36,5.58,5.58,0,0,1,1.08,3.57,5.38,5.38,0,0,1-.63,2.67,4.29,4.29,0,0,1-1.65,1.7,4.4,4.4,0,0,1-2.21.58,3.86,3.86,0,0,1-3.22-1.36,5.58,5.58,0,0,1-1.08-3.57A5.33,5.33,0,0,1,265,233.59Zm5.58,5.64a5.29,5.29,0,0,0,.63-2.87,6.54,6.54,0,0,0-.58-3,1.94,1.94,0,0,0-1.85-1.11,2,2,0,0,0-1.81,1,5.22,5.22,0,0,0-.64,2.87,6.47,6.47,0,0,0,.59,3,2,2,0,0,0,1.86,1.1A2,2,0,0,0,270.58,239.23Z"/><path class="cls-1" d="M274.74,240.15l1.28-.1v-7.19l-1.23-.31v-.92l2.35-.3h0l.38.3v.31l-.05,1.33h.05a4,4,0,0,1,.61-.75,4.32,4.32,0,0,1,1.14-.84,3,3,0,0,1,1.51-.39,1.46,1.46,0,0,1,.56.09v1.9a1.43,1.43,0,0,0-.38-.16,2.1,2.1,0,0,0-.59-.08,4.35,4.35,0,0,0-2.61.87V240l2.16.14V241h-5.21Z"/><path class="cls-1" d="M288.11,239.62a1.39,1.39,0,0,0,.72.46,3.22,3.22,0,0,0,1.16.21,2.24,2.24,0,0,0,1.43-.38,1.25,1.25,0,0,0,.46-1,1.18,1.18,0,0,0-.29-.79,2.53,2.53,0,0,0-.81-.61c-.34-.17-.84-.39-1.49-.64a4.6,4.6,0,0,1-1.91-1.18,2.64,2.64,0,0,1-.6-1.81,2,2,0,0,1,.45-1.31,3,3,0,0,1,1.24-.87,4.71,4.71,0,0,1,1.76-.32,6.91,6.91,0,0,1,1.37.12,8.36,8.36,0,0,1,.94.24l.48.15V234h-1l-.34-1.26a.9.9,0,0,0-.54-.34,3.12,3.12,0,0,0-1-.15,2.08,2.08,0,0,0-1.23.34,1.09,1.09,0,0,0-.47.92,1.33,1.33,0,0,0,.25.84,1.91,1.91,0,0,0,.62.54c.25.13.59.29,1,.47l.34.14a13,13,0,0,1,1.54.71,3.29,3.29,0,0,1,1,.89,2.24,2.24,0,0,1,.4,1.36,2.41,2.41,0,0,1-1,2,4.29,4.29,0,0,1-2.68.75,7.31,7.31,0,0,1-1.74-.23,10.65,10.65,0,0,1-1.49-.47V238.3h1.11Z"/><path class="cls-1" d="M296.43,232.86l-1.29-.31v-.9l2.64-.32h0l.39.3V240l1.36.14V241h-4.5v-.83l1.37-.15Zm-.13-3.32a1.12,1.12,0,0,1-.27-.78,1.28,1.28,0,0,1,.33-.9,1.17,1.17,0,0,1,.91-.36,1.07,1.07,0,0,1,.85.31,1.12,1.12,0,0,1,.27.78,1.26,1.26,0,0,1-.33.92,1.22,1.22,0,0,1-.93.34h0A1,1,0,0,1,296.3,229.54Z"/><path class="cls-1" d="M302.23,240.71a2,2,0,0,1-.47-1.51v-6.53h-1.23v-.76l.48-.12a2,2,0,0,0,.52-.19A1,1,0,0,0,302,231a8,8,0,0,0,.32-1c.13-.48.2-.76.22-.85h1l0,2.45h2.84v1.12h-2.84v5.22a10.33,10.33,0,0,0,.06,1.36.66.66,0,0,0,.26.51,1.35,1.35,0,0,0,.67.12,4.84,4.84,0,0,0,1-.12,4.06,4.06,0,0,0,.86-.26l.25.77a4.62,4.62,0,0,1-1.32.59,5.27,5.27,0,0,1-1.65.29A2,2,0,0,1,302.23,240.71Z"/><path class="cls-1" d="M313.32,236.08a10.08,10.08,0,0,1,4-.81v-.48a3.76,3.76,0,0,0-.17-1.25,1.15,1.15,0,0,0-.59-.67,2.5,2.5,0,0,0-1.18-.22,4.71,4.71,0,0,0-1.55.25,11,11,0,0,0-1.37.6l-.43-.88a4.91,4.91,0,0,1,.82-.49,8.09,8.09,0,0,1,1.38-.55,5.28,5.28,0,0,1,1.56-.24,4.54,4.54,0,0,1,1.91.34,2,2,0,0,1,1,1.06,5.25,5.25,0,0,1,.3,1.95v5.46h1v.75c-.22.06-.51.11-.85.17a6.6,6.6,0,0,1-.91.08,1,1,0,0,1-.65-.14.88.88,0,0,1-.17-.64v-.56a6.28,6.28,0,0,1-1.25.94,3.31,3.31,0,0,1-1.67.42,3,3,0,0,1-2-.71,2.55,2.55,0,0,1-.8-2A2.47,2.47,0,0,1,313.32,236.08Zm3,3.66a5.56,5.56,0,0,0,1.05-.64v-2.93a5.53,5.53,0,0,0-2.8.57,1.72,1.72,0,0,0-.94,1.49,1.8,1.8,0,0,0,.45,1.35,1.68,1.68,0,0,0,1.22.43A2.5,2.5,0,0,0,316.31,239.74Z"/><path class="cls-1" d="M321.24,240.15l1-.15v-7.14l-1.22-.31v-.92l2.43-.3.31.22.1.68,0,.54a6.09,6.09,0,0,1,1.62-1,4.73,4.73,0,0,1,1.85-.45,3.14,3.14,0,0,1,1.48.3,2,2,0,0,1,.85,1,5.71,5.71,0,0,1,1.52-.85,4.77,4.77,0,0,1,1.83-.4,2.92,2.92,0,0,1,1.65.4,2.19,2.19,0,0,1,.84,1.24,8.48,8.48,0,0,1,.24,2.25V240l1.23.15V241h-4.05v-.83L334,240v-4.73a6.54,6.54,0,0,0-.15-1.57,1.5,1.5,0,0,0-.54-.88,2,2,0,0,0-1.15-.29,3.39,3.39,0,0,0-1.19.25,4.33,4.33,0,0,0-1.07.59,9,9,0,0,1,.15,1.88V240l1.21.15V241h-4.11v-.83l1.12-.15v-4.76a7.15,7.15,0,0,0-.13-1.58,1.45,1.45,0,0,0-.48-.85,1.82,1.82,0,0,0-1.09-.28,3.28,3.28,0,0,0-1.3.31,5.36,5.36,0,0,0-1.2.71V240l1.14.15V241h-4Z"/><path class="cls-1" d="M339.21,239.83a5.57,5.57,0,0,1-1.08-3.59,5.66,5.66,0,0,1,.57-2.6,4,4,0,0,1,1.57-1.73,4.33,4.33,0,0,1,2.3-.62,3.31,3.31,0,0,1,2.46.88,3.55,3.55,0,0,1,.92,2.51,8.9,8.9,0,0,1-.11,1.58H340a4.65,4.65,0,0,0,.78,2.71,2.49,2.49,0,0,0,2.13,1,4.56,4.56,0,0,0,1.41-.25,3.33,3.33,0,0,0,1.15-.59l.32.75a3.93,3.93,0,0,1-1.46.89,5.38,5.38,0,0,1-2,.37A3.81,3.81,0,0,1,339.21,239.83Zm4.87-4.47a4.52,4.52,0,0,0,.06-.74,3.15,3.15,0,0,0-.47-1.74,1.62,1.62,0,0,0-1.42-.63,1.91,1.91,0,0,0-1.57.71,4.11,4.11,0,0,0-.68,2.4Z"/><path class="cls-1" d="M348.88,240.71a2,2,0,0,1-.48-1.51v-6.53h-1.22v-.76l.48-.12a2,2,0,0,0,.52-.19,1.09,1.09,0,0,0,.43-.61,8,8,0,0,0,.32-1c.12-.48.2-.76.22-.85h1l0,2.45H353v1.12h-2.84v5.22a10.33,10.33,0,0,0,.06,1.36.69.69,0,0,0,.25.51,1.37,1.37,0,0,0,.67.12,4.85,4.85,0,0,0,1-.12,4,4,0,0,0,.85-.26l.26.77a4.62,4.62,0,0,1-1.32.59,5.33,5.33,0,0,1-1.66.29A2,2,0,0,1,348.88,240.71Z"/><path class="cls-1" d="M357.45,239a2.62,2.62,0,0,1,.37,1.5,5.6,5.6,0,0,1-.31,1.87,5.67,5.67,0,0,1-.76,1.54,3.25,3.25,0,0,1-.9.89h0l-.58-.41v-.18a2.92,2.92,0,0,0,.69-1.19,4.84,4.84,0,0,0,.35-1.72.87.87,0,0,0-.09-.42,3.21,3.21,0,0,0-.3-.38,2.3,2.3,0,0,1-.36-.48,1.21,1.21,0,0,1-.12-.59,1,1,0,0,1,1-1h.08A1.13,1.13,0,0,1,357.45,239Z"/><path class="cls-1" d="M364.41,233.78A4.34,4.34,0,0,1,366,232a4.87,4.87,0,0,1,2.59-.67,5.1,5.1,0,0,1,1.26.14c.35.09.77.21,1.26.37l-.07,2.62H370l-.38-1.73q-.11-.48-1.29-.48a2.2,2.2,0,0,0-1.88,1,4.63,4.63,0,0,0-.69,2.73,5,5,0,0,0,.78,3,2.37,2.37,0,0,0,2,1.05,4.24,4.24,0,0,0,1.35-.22,5.12,5.12,0,0,0,1.1-.53l.32.68a4.14,4.14,0,0,1-1.35.86,4.63,4.63,0,0,1-1.81.38,4.24,4.24,0,0,1-2.36-.63,3.86,3.86,0,0,1-1.44-1.72,6.21,6.21,0,0,1-.48-2.49A5.72,5.72,0,0,1,364.41,233.78Z"/><path class="cls-1" d="M373.41,233.59a4.38,4.38,0,0,1,3.86-2.3,3.88,3.88,0,0,1,3.22,1.36,5.58,5.58,0,0,1,1.08,3.57,5.38,5.38,0,0,1-.63,2.67,4.25,4.25,0,0,1-1.66,1.7,4.36,4.36,0,0,1-2.2.58,3.85,3.85,0,0,1-3.22-1.36,5.58,5.58,0,0,1-1.08-3.57A5.33,5.33,0,0,1,373.41,233.59Zm5.58,5.64a5.39,5.39,0,0,0,.62-2.87,6.55,6.55,0,0,0-.57-3,2,2,0,0,0-1.86-1.11,2,2,0,0,0-1.81,1,5.31,5.31,0,0,0-.63,2.87,6.35,6.35,0,0,0,.59,3,2,2,0,0,0,1.85,1.1A2,2,0,0,0,379,239.23Z"/><path class="cls-1" d="M384.14,232.86l-1.23-.31v-.92l2.43-.3h.05l.36.3v.72l0,.41a5.9,5.9,0,0,1,1.62-1,4.68,4.68,0,0,1,1.92-.44,2.83,2.83,0,0,1,1.66.41,2.15,2.15,0,0,1,.82,1.25,8.51,8.51,0,0,1,.24,2.26V240l1.19.12V241h-4v-.83l1.05-.14v-4.77a7.27,7.27,0,0,0-.13-1.58,1.46,1.46,0,0,0-.51-.85,1.84,1.84,0,0,0-1.09-.28,3.36,3.36,0,0,0-1.31.31,6.18,6.18,0,0,0-1.24.71V240l1.16.15V241h-4v-.83l1.07-.15Z"/><path class="cls-1" d="M396,239.62a1.39,1.39,0,0,0,.72.46,3.19,3.19,0,0,0,1.16.21,2.24,2.24,0,0,0,1.43-.38,1.25,1.25,0,0,0,.46-1,1.18,1.18,0,0,0-.29-.79,2.53,2.53,0,0,0-.81-.61c-.34-.17-.84-.39-1.49-.64a4.6,4.6,0,0,1-1.91-1.18,2.64,2.64,0,0,1-.6-1.81,2,2,0,0,1,.45-1.31,3,3,0,0,1,1.24-.87,4.71,4.71,0,0,1,1.76-.32,6.91,6.91,0,0,1,1.37.12,8.36,8.36,0,0,1,.94.24l.48.15V234h-1l-.34-1.26a.9.9,0,0,0-.54-.34,3.12,3.12,0,0,0-1-.15,2.08,2.08,0,0,0-1.23.34,1.09,1.09,0,0,0-.47.92,1.33,1.33,0,0,0,.25.84,1.91,1.91,0,0,0,.62.54c.25.13.59.29,1,.47l.34.14a13,13,0,0,1,1.54.71,3.29,3.29,0,0,1,1,.89,2.3,2.3,0,0,1,.4,1.36,2.41,2.41,0,0,1-1,2,4.29,4.29,0,0,1-2.68.75,7.31,7.31,0,0,1-1.74-.23,10.65,10.65,0,0,1-1.49-.47V238.3h1.11Z"/><path class="cls-1" d="M404,239.83a5.57,5.57,0,0,1-1.08-3.59,5.66,5.66,0,0,1,.57-2.6,4,4,0,0,1,1.57-1.73,4.33,4.33,0,0,1,2.3-.62,3.31,3.31,0,0,1,2.46.88,3.55,3.55,0,0,1,.92,2.51,8,8,0,0,1-.11,1.58h-5.85a4.65,4.65,0,0,0,.78,2.71,2.49,2.49,0,0,0,2.12,1,4.57,4.57,0,0,0,1.42-.25,3.33,3.33,0,0,0,1.15-.59l.32.75a3.93,3.93,0,0,1-1.46.89,5.38,5.38,0,0,1-2,.37A3.81,3.81,0,0,1,404,239.83Zm4.88-4.47a6,6,0,0,0,0-.74,3.15,3.15,0,0,0-.47-1.74,1.63,1.63,0,0,0-1.42-.63,1.91,1.91,0,0,0-1.57.71,4.18,4.18,0,0,0-.68,2.4Z"/><path class="cls-1" d="M412.58,233.78a4.37,4.37,0,0,1,1.64-1.82,4.87,4.87,0,0,1,2.59-.67,5.1,5.1,0,0,1,1.26.14c.35.09.77.21,1.26.37l-.07,2.62h-1.11l-.37-1.73q-.11-.48-1.29-.48a2.19,2.19,0,0,0-1.88,1,4.63,4.63,0,0,0-.69,2.73,5.12,5.12,0,0,0,.77,3,2.4,2.4,0,0,0,2,1.05,4.34,4.34,0,0,0,1.35-.22,5.36,5.36,0,0,0,1.1-.53l.32.68a4.25,4.25,0,0,1-1.35.86,4.67,4.67,0,0,1-1.81.38,4.22,4.22,0,0,1-2.36-.63,3.86,3.86,0,0,1-1.44-1.72,6,6,0,0,1-.49-2.49A5.85,5.85,0,0,1,412.58,233.78Z"/><path class="cls-1" d="M422.42,240.71a2,2,0,0,1-.48-1.51v-6.53h-1.22v-.76l.48-.12a2,2,0,0,0,.52-.19,1,1,0,0,0,.43-.61,8,8,0,0,0,.32-1c.12-.48.2-.76.22-.85h1l0,2.45h2.84v1.12h-2.84v5.22a10.33,10.33,0,0,0,.06,1.36.69.69,0,0,0,.25.51,1.37,1.37,0,0,0,.67.12,4.85,4.85,0,0,0,1-.12,4,4,0,0,0,.85-.26l.26.77a4.62,4.62,0,0,1-1.32.59,5.28,5.28,0,0,1-1.66.29A2,2,0,0,1,422.42,240.71Z"/><path class="cls-1" d="M428.92,239.83a5.57,5.57,0,0,1-1.08-3.59,5.79,5.79,0,0,1,.56-2.6,4.08,4.08,0,0,1,1.58-1.73,4.33,4.33,0,0,1,2.3-.62,3.32,3.32,0,0,1,2.46.88,3.55,3.55,0,0,1,.92,2.51,7.89,7.89,0,0,1-.12,1.58H429.7a4.65,4.65,0,0,0,.78,2.71,2.48,2.48,0,0,0,2.12,1,4.57,4.57,0,0,0,1.42-.25,3.42,3.42,0,0,0,1.15-.59l.32.75a4,4,0,0,1-1.46.89,5.42,5.42,0,0,1-2,.37A3.81,3.81,0,0,1,428.92,239.83Zm4.87-4.47a4.53,4.53,0,0,0,0-.74,3.07,3.07,0,0,0-.46-1.74,1.65,1.65,0,0,0-1.42-.63,1.94,1.94,0,0,0-1.58.71,4.19,4.19,0,0,0-.67,2.4Z"/><path class="cls-1" d="M438.59,240.71a2,2,0,0,1-.48-1.51v-6.53h-1.22v-.76l.47-.12a2.11,2.11,0,0,0,.53-.19,1,1,0,0,0,.42-.61,7.69,7.69,0,0,0,.33-1c.12-.48.2-.76.22-.85h1l0,2.45h2.83v1.12H439.9v5.22a10.86,10.86,0,0,0,.05,1.36.69.69,0,0,0,.26.51,1.35,1.35,0,0,0,.67.12,4.77,4.77,0,0,0,1-.12,3.88,3.88,0,0,0,.86-.26l.26.77a4.9,4.9,0,0,1-1.32.59,5.33,5.33,0,0,1-1.66.29A2,2,0,0,1,438.59,240.71Z"/><path class="cls-1" d="M451.07,241a.75.75,0,0,1-.23-.61v-.58a5.62,5.62,0,0,1-1.4,1,3.74,3.74,0,0,1-1.69.42,2.66,2.66,0,0,1-2.24-.85,4.55,4.55,0,0,1-.67-2.8v-4.94l-.95-.27v-.74l2.38-.23h0l.32.21v5.83a6.77,6.77,0,0,0,.14,1.54,1.39,1.39,0,0,0,.51.81,1.8,1.8,0,0,0,1.07.27,2.89,2.89,0,0,0,1.27-.29,4.56,4.56,0,0,0,1-.68v-6.45l-1.22-.27v-.74l2.58-.23h0l.39.21v8.57h1l0,.76-.82.19a4.89,4.89,0,0,1-.81.07A1.16,1.16,0,0,1,451.07,241Z"/><path class="cls-1" d="M455.83,239.83a5.57,5.57,0,0,1-1.08-3.59,5.79,5.79,0,0,1,.56-2.6,4.08,4.08,0,0,1,1.58-1.73,4.33,4.33,0,0,1,2.3-.62,3.32,3.32,0,0,1,2.46.88,3.55,3.55,0,0,1,.92,2.51,7.89,7.89,0,0,1-.12,1.58h-5.84a4.65,4.65,0,0,0,.78,2.71,2.49,2.49,0,0,0,2.12,1,4.57,4.57,0,0,0,1.42-.25,3.33,3.33,0,0,0,1.15-.59l.32.75a4,4,0,0,1-1.46.89,5.42,5.42,0,0,1-2,.37A3.81,3.81,0,0,1,455.83,239.83Zm4.87-4.47a4.53,4.53,0,0,0,.05-.74,3.07,3.07,0,0,0-.46-1.74,1.63,1.63,0,0,0-1.42-.63,1.94,1.94,0,0,0-1.58.71,4.19,4.19,0,0,0-.67,2.4Z"/><path class="cls-1" d="M464.07,240.15l1.27-.1v-7.19l-1.22-.31v-.92l2.35-.3h0l.37.3v.31l-.05,1.33h.05a4.13,4.13,0,0,1,.62-.75,4.43,4.43,0,0,1,1.13-.84,3.07,3.07,0,0,1,1.52-.39,1.53,1.53,0,0,1,.56.09v1.9a1.59,1.59,0,0,0-.38-.16,2.16,2.16,0,0,0-.59-.08,4.41,4.41,0,0,0-2.62.87V240l2.16.14V241h-5.2Z"/><path class="cls-1" d="M130.2,262.08a10.17,10.17,0,0,1,4.05-.81v-.48a3.76,3.76,0,0,0-.17-1.25,1.15,1.15,0,0,0-.59-.67,2.53,2.53,0,0,0-1.18-.22,4.62,4.62,0,0,0-1.55.25,11,11,0,0,0-1.37.6l-.43-.88a4.91,4.91,0,0,1,.82-.49,7.48,7.48,0,0,1,1.38-.55,5.28,5.28,0,0,1,1.56-.24,4.57,4.57,0,0,1,1.91.34,1.94,1.94,0,0,1,1,1.06,5,5,0,0,1,.31,1.95v5.46h1v.75c-.22.06-.51.11-.86.17a6.48,6.48,0,0,1-.91.08,1,1,0,0,1-.64-.14c-.12-.1-.17-.31-.17-.64v-.56a6.28,6.28,0,0,1-1.25.94,3.33,3.33,0,0,1-1.68.42,2.94,2.94,0,0,1-2-.71,2.52,2.52,0,0,1-.8-2A2.47,2.47,0,0,1,130.2,262.08Zm3,3.66a5.56,5.56,0,0,0,1.05-.64v-2.93a5.5,5.5,0,0,0-2.8.57,1.7,1.7,0,0,0-.94,1.49,1.8,1.8,0,0,0,.45,1.35,1.66,1.66,0,0,0,1.21.43A2.51,2.51,0,0,0,133.2,265.74Z"/><path class="cls-1" d="M139.94,266.66a3.6,3.6,0,0,1-1.35-1.56,6.12,6.12,0,0,1-.5-2.6,5.76,5.76,0,0,1,.6-2.64,4.54,4.54,0,0,1,1.7-1.88,4.91,4.91,0,0,1,2.63-.69,6.39,6.39,0,0,1,1.58.19V254.3l-1.73-.2v-.73l3.06-.31h0l.37.27v12.79h1v.78c-.36.08-.68.14-.94.18a4.64,4.64,0,0,1-.85.07,1,1,0,0,1-.63-.15.85.85,0,0,1-.18-.65v-.54a3.84,3.84,0,0,1-1.25,1,3.7,3.7,0,0,1-1.68.39A3.58,3.58,0,0,1,139.94,266.66Zm3.79-1a2.42,2.42,0,0,0,.87-.69v-6.22a1.19,1.19,0,0,0-.64-.37,3.32,3.32,0,0,0-1.06-.16,2.57,2.57,0,0,0-2.12,1,5.07,5.07,0,0,0-.79,3.12,4.4,4.4,0,0,0,.7,2.72,2.2,2.2,0,0,0,1.8.88A2.73,2.73,0,0,0,143.73,265.67Z"/><path class="cls-1" d="M150,258.86l-1.29-.31v-.9l2.64-.32h0l.39.3V266l1.36.14V267h-4.5v-.83L150,266Zm-.13-3.32a1.12,1.12,0,0,1-.27-.78,1.28,1.28,0,0,1,.33-.9,1.17,1.17,0,0,1,.91-.36,1.07,1.07,0,0,1,.85.31,1.12,1.12,0,0,1,.27.78,1.26,1.26,0,0,1-.33.92,1.22,1.22,0,0,1-.93.34h0A1,1,0,0,1,149.89,255.54Z"/><path class="cls-1" d="M163,264.58a4.58,4.58,0,0,1-1.7,1.89,4.71,4.71,0,0,1-2.58.7,5.78,5.78,0,0,1-.89-.07,3.61,3.61,0,0,1-.76-.17l.05,1.43v1.72l1.77.18v.84H154.1v-.84l1.23-.18V258.86l-1.24-.31v-.92l2.41-.3h0l.36.3v1a4.47,4.47,0,0,1,1.27-1,3.63,3.63,0,0,1,1.69-.39,3.55,3.55,0,0,1,1.84.5,3.42,3.42,0,0,1,1.36,1.53,5.89,5.89,0,0,1,.51,2.61A5.83,5.83,0,0,1,163,264.58Zm-5-5.82a2.75,2.75,0,0,0-.87.59v6.41a1,1,0,0,0,.6.36,3.32,3.32,0,0,0,1.06.17,2.56,2.56,0,0,0,2.12-1,5,5,0,0,0,.81-3.13,4.44,4.44,0,0,0-.71-2.74,2.19,2.19,0,0,0-1.81-.9A2.58,2.58,0,0,0,158,258.76Z"/><path class="cls-1" d="M166.36,258.86l-1.29-.31v-.9l2.63-.32h0l.39.3V266l1.36.14V267H165v-.83l1.38-.15Zm-.14-3.32a1.12,1.12,0,0,1-.27-.78,1.28,1.28,0,0,1,.33-.9,1.18,1.18,0,0,1,.91-.36,1.05,1.05,0,0,1,.85.31,1.13,1.13,0,0,1,.28.78,1.27,1.27,0,0,1-.34.92,1.21,1.21,0,0,1-.92.34h0A1,1,0,0,1,166.22,255.54Z"/><path class="cls-1" d="M172.28,265.62a1.39,1.39,0,0,0,.72.46,3.26,3.26,0,0,0,1.16.21,2.24,2.24,0,0,0,1.43-.38,1.25,1.25,0,0,0,.46-1,1.18,1.18,0,0,0-.29-.79,2.53,2.53,0,0,0-.81-.61c-.34-.17-.84-.39-1.48-.64a4.65,4.65,0,0,1-1.92-1.18,2.64,2.64,0,0,1-.6-1.81,2,2,0,0,1,.45-1.31,3,3,0,0,1,1.24-.87,4.75,4.75,0,0,1,1.76-.32,6.91,6.91,0,0,1,1.37.12,7.82,7.82,0,0,1,.94.24l.48.15V260h-1l-.34-1.26a.9.9,0,0,0-.54-.34,3.12,3.12,0,0,0-1-.15,2.08,2.08,0,0,0-1.23.34,1.09,1.09,0,0,0-.47.92,1.33,1.33,0,0,0,.25.84,1.91,1.91,0,0,0,.62.54c.25.13.59.29,1,.47l.34.14a14,14,0,0,1,1.55.71,3.37,3.37,0,0,1,1,.89,2.24,2.24,0,0,1,.4,1.36,2.41,2.41,0,0,1-1,2,4.28,4.28,0,0,1-2.67.75,7.32,7.32,0,0,1-1.75-.23,11.1,11.1,0,0,1-1.49-.47V264.3H172Z"/><path class="cls-1" d="M179.63,259.78a4.34,4.34,0,0,1,1.63-1.82,4.87,4.87,0,0,1,2.59-.67,5.1,5.1,0,0,1,1.26.14c.35.09.77.21,1.26.37l-.07,2.62h-1.1l-.38-1.73q-.1-.48-1.29-.48a2.2,2.2,0,0,0-1.88,1,4.63,4.63,0,0,0-.69,2.73,5,5,0,0,0,.78,3.05,2.37,2.37,0,0,0,2,1.05,4.24,4.24,0,0,0,1.35-.22,5.12,5.12,0,0,0,1.1-.53l.32.68a4,4,0,0,1-1.35.86,4.63,4.63,0,0,1-1.81.38,4.18,4.18,0,0,1-2.35-.63,3.82,3.82,0,0,1-1.45-1.72,6.21,6.21,0,0,1-.48-2.49A5.72,5.72,0,0,1,179.63,259.78Z"/><path class="cls-1" d="M189.33,258.86l-1.3-.31v-.9l2.64-.32h0l.39.3V266l1.36.14V267H188v-.83l1.38-.15Zm-.14-3.32a1.12,1.12,0,0,1-.27-.78,1.28,1.28,0,0,1,.33-.9,1.17,1.17,0,0,1,.91-.36,1.07,1.07,0,0,1,.85.31,1.12,1.12,0,0,1,.27.78,1.26,1.26,0,0,1-.33.92,1.22,1.22,0,0,1-.93.34h0A1,1,0,0,1,189.19,255.54Z"/><path class="cls-1" d="M194.68,258.86l-1.22-.31v-.92l2.43-.3h.05l.36.3v.72l0,.41a6,6,0,0,1,1.61-1,4.69,4.69,0,0,1,1.93-.44,2.8,2.8,0,0,1,1.65.41,2.16,2.16,0,0,1,.83,1.25,8.51,8.51,0,0,1,.24,2.26V266l1.19.12V267h-4v-.83l1.05-.14v-4.77a7.17,7.17,0,0,0-.14-1.58,1.46,1.46,0,0,0-.51-.85,1.81,1.81,0,0,0-1.08-.28,3.32,3.32,0,0,0-1.31.31,5.91,5.91,0,0,0-1.24.71V266l1.15.15V267h-4v-.83l1.07-.15Z"/><path class="cls-1" d="M205.86,270.88a2.19,2.19,0,0,1-1-1.89,2.28,2.28,0,0,1,.47-1.38,3.14,3.14,0,0,1,1.11-.95,1.51,1.51,0,0,1-.78-1.43,2,2,0,0,1,.36-1.15,2.42,2.42,0,0,1,.93-.84,2.88,2.88,0,0,1-1.3-1.07,3,3,0,0,1-.45-1.65,2.8,2.8,0,0,1,.55-1.71,3.63,3.63,0,0,1,1.47-1.13,4.81,4.81,0,0,1,1.92-.39,4.43,4.43,0,0,1,2.69.72,2.69,2.69,0,0,1,.78-.5,2.84,2.84,0,0,1,1.12-.23h.58v1.49h-1.87a2.57,2.57,0,0,1,.41,1.46,3.22,3.22,0,0,1-.5,1.78,3.32,3.32,0,0,1-1.39,1.2,4.71,4.71,0,0,1-2,.42,5.24,5.24,0,0,1-1.31-.15,2.2,2.2,0,0,0-.39.53,1.21,1.21,0,0,0-.15.56.86.86,0,0,0,.41.84,3.29,3.29,0,0,0,1.46.23h1.92a4,4,0,0,1,2.45.63,2.14,2.14,0,0,1,.8,1.78,2.69,2.69,0,0,1-.7,1.78,4.82,4.82,0,0,1-1.88,1.28,6.93,6.93,0,0,1-2.56.46A5.57,5.57,0,0,1,205.86,270.88Zm4.88-.54a2.9,2.9,0,0,0,1.2-.73,1.61,1.61,0,0,0,.46-1.13,1.38,1.38,0,0,0-.41-1.11,2.51,2.51,0,0,0-1.58-.35h-2a5,5,0,0,1-1.07-.09,2.46,2.46,0,0,0-.7,1.72,1.76,1.76,0,0,0,.58,1.44,3,3,0,0,0,1.95.5A5.13,5.13,0,0,0,210.74,270.34Zm.33-9.94a2.42,2.42,0,0,0-.5-1.67,2,2,0,0,0-1.51-.54,2.1,2.1,0,0,0-1.48.52,2.22,2.22,0,0,0-.54,1.66,2.58,2.58,0,0,0,.52,1.7,1.91,1.91,0,0,0,1.57.63C210.42,262.7,211.07,261.93,211.07,260.4Z"/><path class="cls-1" d="M220.34,265.83a5.57,5.57,0,0,1-1.08-3.59,5.79,5.79,0,0,1,.56-2.6,4.08,4.08,0,0,1,1.58-1.73,4.33,4.33,0,0,1,2.3-.62,3.32,3.32,0,0,1,2.46.88,3.55,3.55,0,0,1,.92,2.51,7.89,7.89,0,0,1-.12,1.58h-5.84a4.65,4.65,0,0,0,.78,2.71,2.49,2.49,0,0,0,2.12,1,4.57,4.57,0,0,0,1.42-.25,3.33,3.33,0,0,0,1.15-.59l.32.75a4,4,0,0,1-1.46.89,5.42,5.42,0,0,1-2,.37A3.81,3.81,0,0,1,220.34,265.83Zm4.87-4.47a4.53,4.53,0,0,0,0-.74,3.07,3.07,0,0,0-.46-1.74,1.63,1.63,0,0,0-1.42-.63,1.94,1.94,0,0,0-1.58.71,4.19,4.19,0,0,0-.67,2.4Z"/><path class="cls-1" d="M229.79,254.3l-1.38-.19v-.73l2.74-.32h0l.37.26V266l1.45.14V267h-4.59v-.83l1.38-.15Z"/><path class="cls-1" d="M235.53,258.86l-1.29-.31v-.9l2.63-.32h0l.39.3V266l1.36.14V267h-4.51v-.83l1.38-.15Zm-.13-3.32a1.08,1.08,0,0,1-.28-.78,1.28,1.28,0,0,1,.33-.9,1.2,1.2,0,0,1,.91-.36,1.05,1.05,0,0,1,.85.31,1.08,1.08,0,0,1,.28.78,1.16,1.16,0,0,1-1.26,1.26h0A1,1,0,0,1,235.4,255.54Z"/><path class="cls-1" d="M241.33,266.71a2,2,0,0,1-.48-1.51v-6.53h-1.22v-.76l.47-.12a2.11,2.11,0,0,0,.53-.19,1.09,1.09,0,0,0,.43-.61,10,10,0,0,0,.32-1c.12-.48.2-.76.22-.85h1l0,2.45h2.84v1.12h-2.84v5.22a10.33,10.33,0,0,0,.06,1.36.69.69,0,0,0,.25.51,1.37,1.37,0,0,0,.67.12,4.69,4.69,0,0,0,1-.12,3.88,3.88,0,0,0,.86-.26l.26.77a4.62,4.62,0,0,1-1.32.59,5.33,5.33,0,0,1-1.66.29A2,2,0,0,1,241.33,266.71Z"/><path class="cls-1" d="M249.9,265a2.62,2.62,0,0,1,.37,1.5,5.6,5.6,0,0,1-.31,1.87,6,6,0,0,1-.76,1.54,3.25,3.25,0,0,1-.9.89h0l-.58-.41v-.18a2.92,2.92,0,0,0,.69-1.19,4.84,4.84,0,0,0,.35-1.72.87.87,0,0,0-.09-.42,3.21,3.21,0,0,0-.3-.38A2.3,2.3,0,0,1,248,266a1.21,1.21,0,0,1-.12-.59,1,1,0,0,1,1-1h.08A1.13,1.13,0,0,1,249.9,265Z"/><path class="cls-1" d="M258.09,265.62a1.39,1.39,0,0,0,.72.46,3.28,3.28,0,0,0,1.17.21,2.26,2.26,0,0,0,1.43-.38,1.27,1.27,0,0,0,.45-1,1.14,1.14,0,0,0-.29-.79,2.59,2.59,0,0,0-.8-.61c-.35-.17-.84-.39-1.49-.64a4.6,4.6,0,0,1-1.91-1.18,2.59,2.59,0,0,1-.61-1.81,2,2,0,0,1,.45-1.31,3,3,0,0,1,1.24-.87,4.75,4.75,0,0,1,1.76-.32,6.84,6.84,0,0,1,1.37.12,8.61,8.61,0,0,1,.95.24l.47.15V260h-1l-.34-1.26a.89.89,0,0,0-.55-.34,3,3,0,0,0-1-.15,2.12,2.12,0,0,0-1.24.34,1.08,1.08,0,0,0-.46.92,1.39,1.39,0,0,0,.24.84,2,2,0,0,0,.62.54c.25.13.59.29,1,.47l.34.14a13.21,13.21,0,0,1,1.55.71,3.14,3.14,0,0,1,1,.89,2.24,2.24,0,0,1,.4,1.36,2.4,2.4,0,0,1-1,2,4.33,4.33,0,0,1-2.68.75,7.18,7.18,0,0,1-1.74-.23,10.24,10.24,0,0,1-1.49-.47V264.3h1.1Z"/><path class="cls-1" d="M266.14,265.83a5.57,5.57,0,0,1-1.08-3.59,5.79,5.79,0,0,1,.56-2.6,4.06,4.06,0,0,1,1.57-1.73,4.39,4.39,0,0,1,2.31-.62,3.28,3.28,0,0,1,2.45.88,3.51,3.51,0,0,1,.93,2.51,7.89,7.89,0,0,1-.12,1.58h-5.85a4.73,4.73,0,0,0,.79,2.71,2.46,2.46,0,0,0,2.12,1,4.62,4.62,0,0,0,1.42-.25,3.52,3.52,0,0,0,1.15-.59l.32.75a4.1,4.1,0,0,1-1.46.89,5.46,5.46,0,0,1-2,.37A3.8,3.8,0,0,1,266.14,265.83Zm4.87-4.47a6,6,0,0,0,.05-.74,3.07,3.07,0,0,0-.47-1.74,1.62,1.62,0,0,0-1.42-.63,1.92,1.92,0,0,0-1.57.71,4.19,4.19,0,0,0-.67,2.4Z"/><path class="cls-1" d="M276.14,266.66a3.6,3.6,0,0,1-1.35-1.56,6.12,6.12,0,0,1-.5-2.6,5.76,5.76,0,0,1,.6-2.64,4.54,4.54,0,0,1,1.7-1.88,4.91,4.91,0,0,1,2.63-.69,6.39,6.39,0,0,1,1.58.19V254.3l-1.73-.2v-.73l3.06-.31h.05l.37.27v12.79h1v.78c-.36.08-.68.14-.94.18a4.64,4.64,0,0,1-.85.07,1,1,0,0,1-.63-.15.85.85,0,0,1-.18-.65v-.54a3.84,3.84,0,0,1-1.25,1,3.7,3.7,0,0,1-1.68.39A3.58,3.58,0,0,1,276.14,266.66Zm3.79-1a2.42,2.42,0,0,0,.87-.69v-6.22a1.19,1.19,0,0,0-.64-.37,3.32,3.32,0,0,0-1.06-.16,2.54,2.54,0,0,0-2.11,1,5,5,0,0,0-.79,3.12,4.41,4.41,0,0,0,.69,2.72,2.2,2.2,0,0,0,1.8.88A2.73,2.73,0,0,0,279.93,265.67Z"/><path class="cls-1" d="M290.73,266.66a3.47,3.47,0,0,1-1.35-1.56,6,6,0,0,1-.5-2.6,5.75,5.75,0,0,1,.59-2.64,4.63,4.63,0,0,1,1.71-1.88,4.89,4.89,0,0,1,2.63-.69,6.52,6.52,0,0,1,1.58.19V254.3l-1.74-.2v-.73l3.06-.31h.05l.38.27v12.79h1v.78c-.36.08-.67.14-.94.18a4.61,4.61,0,0,1-.84.07,1,1,0,0,1-.63-.15.85.85,0,0,1-.19-.65v-.54a3.86,3.86,0,0,1-2.92,1.36A3.58,3.58,0,0,1,290.73,266.66Zm3.79-1a2.51,2.51,0,0,0,.87-.69v-6.22a1.23,1.23,0,0,0-.64-.37,3.4,3.4,0,0,0-1.06-.16,2.56,2.56,0,0,0-2.12,1,5,5,0,0,0-.79,3.12,4.34,4.34,0,0,0,.7,2.72,2.17,2.17,0,0,0,1.8.88A2.79,2.79,0,0,0,294.52,265.67Z"/><path class="cls-1" d="M300.81,258.86l-1.29-.31v-.9l2.63-.32h0l.39.3V266l1.36.14V267h-4.51v-.83l1.38-.15Zm-.14-3.32a1.12,1.12,0,0,1-.27-.78,1.28,1.28,0,0,1,.33-.9,1.18,1.18,0,0,1,.91-.36,1.05,1.05,0,0,1,.85.31,1.12,1.12,0,0,1,.27.78,1.26,1.26,0,0,1-.33.92,1.21,1.21,0,0,1-.92.34h0A1,1,0,0,1,300.67,255.54Z"/><path class="cls-1" d="M306.74,262.08a10.17,10.17,0,0,1,4.05-.81v-.48a3.76,3.76,0,0,0-.17-1.25,1.19,1.19,0,0,0-.59-.67,2.53,2.53,0,0,0-1.18-.22,4.73,4.73,0,0,0-1.56.25,11.51,11.51,0,0,0-1.36.6l-.43-.88a4.91,4.91,0,0,1,.82-.49,7.66,7.66,0,0,1,1.37-.55,5.4,5.4,0,0,1,1.57-.24,4.57,4.57,0,0,1,1.91.34,1.94,1.94,0,0,1,1,1.06,5,5,0,0,1,.31,1.95v5.46h1v.75c-.23.06-.51.11-.86.17a6.48,6.48,0,0,1-.91.08,1,1,0,0,1-.64-.14c-.12-.1-.17-.31-.17-.64v-.56a6.28,6.28,0,0,1-1.25.94,3.35,3.35,0,0,1-1.68.42,2.94,2.94,0,0,1-2-.71,2.52,2.52,0,0,1-.81-2A2.48,2.48,0,0,1,306.74,262.08Zm3,3.66a5.33,5.33,0,0,0,1.06-.64v-2.93a5.5,5.5,0,0,0-2.8.57,1.7,1.7,0,0,0-.94,1.49,1.8,1.8,0,0,0,.45,1.35,1.66,1.66,0,0,0,1.21.43A2.43,2.43,0,0,0,309.73,265.74Z"/><path class="cls-1" d="M314.66,266.15l1-.15v-7.14l-1.22-.31v-.92l2.43-.3.3.22.11.68,0,.54a6.09,6.09,0,0,1,1.62-1,4.69,4.69,0,0,1,1.85-.45,3.16,3.16,0,0,1,1.48.3,2.08,2.08,0,0,1,.85.95,5.71,5.71,0,0,1,1.52-.85,4.77,4.77,0,0,1,1.83-.4,2.86,2.86,0,0,1,1.64.4,2.16,2.16,0,0,1,.85,1.24,8.48,8.48,0,0,1,.24,2.25V266l1.23.15V267h-4.05v-.83l1.05-.15v-4.73a6.62,6.62,0,0,0-.14-1.57,1.55,1.55,0,0,0-.54-.88,2,2,0,0,0-1.15-.29,3.34,3.34,0,0,0-1.19.25,4.33,4.33,0,0,0-1.07.59,9,9,0,0,1,.15,1.88V266l1.21.15V267h-4.12v-.83l1.13-.15v-4.76a7.82,7.82,0,0,0-.13-1.58,1.46,1.46,0,0,0-.49-.85,1.79,1.79,0,0,0-1.08-.28,3.32,3.32,0,0,0-1.31.31,5.51,5.51,0,0,0-1.19.71V266l1.13.15V267h-4Z"/><path class="cls-1" d="M336.65,258.86l-1.23-.31v-.92l2.43-.3h0l.36.3v.72l0,.41a5.9,5.9,0,0,1,1.62-1,4.68,4.68,0,0,1,1.92-.44,2.83,2.83,0,0,1,1.66.41,2.15,2.15,0,0,1,.82,1.25,8.51,8.51,0,0,1,.24,2.26V266l1.19.12V267h-4v-.83l1-.14v-4.77a7.27,7.27,0,0,0-.13-1.58,1.46,1.46,0,0,0-.51-.85,1.84,1.84,0,0,0-1.09-.28,3.36,3.36,0,0,0-1.31.31,6.18,6.18,0,0,0-1.24.71V266l1.16.15V267h-4v-.83l1.08-.15Z"/><path class="cls-1" d="M347.54,259.59a4.38,4.38,0,0,1,3.86-2.3,3.88,3.88,0,0,1,3.22,1.36,5.58,5.58,0,0,1,1.08,3.57,5.38,5.38,0,0,1-.63,2.67,4.25,4.25,0,0,1-1.66,1.7,4.33,4.33,0,0,1-2.2.58,3.86,3.86,0,0,1-3.22-1.36,5.58,5.58,0,0,1-1.08-3.57A5.33,5.33,0,0,1,347.54,259.59Zm5.58,5.64a5.29,5.29,0,0,0,.63-2.87,6.54,6.54,0,0,0-.58-3,1.94,1.94,0,0,0-1.85-1.11,2,2,0,0,0-1.82,1,5.31,5.31,0,0,0-.63,2.87,6.47,6.47,0,0,0,.59,3,2,2,0,0,0,1.86,1.1A2,2,0,0,0,353.12,265.23Z"/><path class="cls-1" d="M358.27,258.86l-1.23-.31v-.92l2.44-.3h0l.35.3v1.13a5.69,5.69,0,0,1,1.61-1,4.68,4.68,0,0,1,1.92-.44,2.81,2.81,0,0,1,1.66.41,2.1,2.1,0,0,1,.82,1.25,8.51,8.51,0,0,1,.24,2.26V266l1.19.12V267h-4v-.83l1.06-.14v-4.77a7.17,7.17,0,0,0-.14-1.58,1.46,1.46,0,0,0-.51-.85,1.84,1.84,0,0,0-1.09-.28,3.4,3.4,0,0,0-1.31.31,6.47,6.47,0,0,0-1.24.71V266l1.16.15V267h-4v-.83l1.07-.15Z"/><path class="cls-1" d="M375.57,267a.72.72,0,0,1-.23-.61v-.58a5.88,5.88,0,0,1-1.41,1,3.74,3.74,0,0,1-1.69.42,2.66,2.66,0,0,1-2.24-.85,4.62,4.62,0,0,1-.67-2.8v-4.94l-.95-.27v-.74l2.38-.23h0l.32.21v5.83a6.16,6.16,0,0,0,.15,1.54,1.3,1.3,0,0,0,.51.81,1.76,1.76,0,0,0,1.06.27,3,3,0,0,0,1.28-.29,4.49,4.49,0,0,0,1-.68v-6.45l-1.22-.27v-.74l2.58-.23h0l.39.21v8.57h1l0,.76-.82.19a4.7,4.7,0,0,1-.81.07A1.1,1.1,0,0,1,375.57,267Z"/><path class="cls-1" d="M379.26,266.15l1-.15v-7.14l-1.22-.31v-.92l2.43-.3.3.22.1.68v.54a5.93,5.93,0,0,1,1.62-1,4.69,4.69,0,0,1,1.85-.45,3.09,3.09,0,0,1,1.47.3,2,2,0,0,1,.86.95,5.55,5.55,0,0,1,1.52-.85,4.77,4.77,0,0,1,1.82-.4,2.88,2.88,0,0,1,1.65.4,2.1,2.1,0,0,1,.84,1.24,8,8,0,0,1,.25,2.25V266l1.22.15V267h-4v-.83L392,266v-4.73a7.2,7.2,0,0,0-.14-1.57,1.51,1.51,0,0,0-.55-.88,1.92,1.92,0,0,0-1.14-.29,3.34,3.34,0,0,0-1.19.25,4.33,4.33,0,0,0-1.07.59,9,9,0,0,1,.15,1.88V266l1.21.15V267h-4.12v-.83l1.12-.15v-4.76a8,8,0,0,0-.12-1.58,1.46,1.46,0,0,0-.49-.85,1.8,1.8,0,0,0-1.09-.28,3.32,3.32,0,0,0-1.3.31,5.36,5.36,0,0,0-1.2.71V266l1.14.15V267h-4Z"/><path class="cls-1" d="M396.18,266.15l1-.15v-7.14l-1.22-.31v-.92l2.43-.3.31.22.1.68,0,.54a6,6,0,0,1,1.63-1,4.65,4.65,0,0,1,1.84-.45,3.14,3.14,0,0,1,1.48.3,2,2,0,0,1,.85.95,5.71,5.71,0,0,1,1.52-.85,4.77,4.77,0,0,1,1.83-.4,2.92,2.92,0,0,1,1.65.4,2.19,2.19,0,0,1,.84,1.24,8.42,8.42,0,0,1,.25,2.25V266l1.22.15V267h-4.05v-.83l1.06-.15v-4.73a6.54,6.54,0,0,0-.15-1.57,1.45,1.45,0,0,0-.54-.88,2,2,0,0,0-1.15-.29,3.39,3.39,0,0,0-1.19.25,4.52,4.52,0,0,0-1.07.59,9,9,0,0,1,.15,1.88V266l1.21.15V267h-4.11v-.83l1.12-.15v-4.76a7.15,7.15,0,0,0-.13-1.58,1.45,1.45,0,0,0-.48-.85,1.8,1.8,0,0,0-1.09-.28,3.28,3.28,0,0,0-1.3.31,5.36,5.36,0,0,0-1.2.71V266l1.14.15V267h-4Z"/><path class="cls-1" d="M413.92,271.18a1,1,0,0,1-.4-.1V269.6a.9.9,0,0,0,.4.1,3.73,3.73,0,0,0,.57,0,2,2,0,0,0,1.43-.57,5.49,5.49,0,0,0,1.2-2.19h-.81l-3.23-8.41-.79-.22v-.8h4.1v.8l-1.31.2,1.67,5,.78,2.48.73-2.5,1.51-5-1.14-.2v-.8h3.42v.8l-.85.2q-2.49,7.65-2.94,8.69a18.47,18.47,0,0,1-1.05,2.28,3.67,3.67,0,0,1-1.13,1.26,2.78,2.78,0,0,1-1.59.44A3.48,3.48,0,0,1,413.92,271.18Z"/><path class="cls-1" d="M427.88,258.86l-1.22-.31v-.92l2.43-.3h.05l.36.3v.72l0,.41a5.9,5.9,0,0,1,1.62-1,4.61,4.61,0,0,1,1.92-.44,2.8,2.8,0,0,1,1.65.41,2.16,2.16,0,0,1,.83,1.25,8.51,8.51,0,0,1,.24,2.26V266l1.19.12V267h-4v-.83L434,266v-4.77a7.27,7.27,0,0,0-.13-1.58,1.57,1.57,0,0,0-.51-.85,1.86,1.86,0,0,0-1.09-.28,3.32,3.32,0,0,0-1.31.31,5.91,5.91,0,0,0-1.24.71V266l1.15.15V267h-4v-.83l1.07-.15Z"/><path class="cls-1" d="M439.48,258.86l-1.3-.31v-.9l2.64-.32h0l.39.3V266l1.36.14V267h-4.5v-.83l1.38-.15Zm-.14-3.32a1.12,1.12,0,0,1-.27-.78,1.28,1.28,0,0,1,.33-.9,1.17,1.17,0,0,1,.91-.36,1.07,1.07,0,0,1,.85.31,1.12,1.12,0,0,1,.27.78,1.26,1.26,0,0,1-.33.92,1.22,1.22,0,0,1-.93.34h0A1,1,0,0,1,439.34,255.54Z"/><path class="cls-1" d="M443,253.38l2.72-.32h0l.39.26v5.11a4.14,4.14,0,0,1,1.21-.81,3.81,3.81,0,0,1,3.44.17,3.44,3.44,0,0,1,1.34,1.53,6,6,0,0,1,.5,2.61,5.84,5.84,0,0,1-.6,2.66,4.68,4.68,0,0,1-1.73,1.88,4.77,4.77,0,0,1-2.6.7,9.42,9.42,0,0,1-2.14-.23,3,3,0,0,1-1.17-.42V254.28l-1.4-.18Zm4,5.42a3.19,3.19,0,0,0-.89.67v6.26c.06.15.26.28.58.38a4.13,4.13,0,0,0,1.1.14A2.54,2.54,0,0,0,450,265.2a5.05,5.05,0,0,0,.8-3.08,4.45,4.45,0,0,0-.7-2.72,2.19,2.19,0,0,0-1.8-.9A2.48,2.48,0,0,0,447.05,258.8Z"/><path class="cls-1" d="M455.05,254.3l-1.43-.19v-.73l2.77-.32h0l.38.26v3.94l-.07,1.44a6,6,0,0,1,1.5-.93,4.41,4.41,0,0,1,1.92-.44,2.83,2.83,0,0,1,1.66.41,2.13,2.13,0,0,1,.84,1.25,9,9,0,0,1,.23,2.26V266l1.19.15V267H460v-.83l1.11-.15v-4.76a7.17,7.17,0,0,0-.14-1.58,1.46,1.46,0,0,0-.51-.85,1.9,1.9,0,0,0-1.12-.28,3.32,3.32,0,0,0-1.31.31,5.51,5.51,0,0,0-1.22.71V266l1.17.15V267h-4v-.83l1-.14Z"/><path class="cls-1" d="M116.83,291.83a5.57,5.57,0,0,1-1.08-3.59,5.79,5.79,0,0,1,.56-2.6,4.08,4.08,0,0,1,1.58-1.73,4.33,4.33,0,0,1,2.3-.62,3.32,3.32,0,0,1,2.46.88,3.55,3.55,0,0,1,.92,2.51,7.89,7.89,0,0,1-.12,1.58h-5.84a4.65,4.65,0,0,0,.78,2.71,2.49,2.49,0,0,0,2.12,1,4.57,4.57,0,0,0,1.42-.25,3.33,3.33,0,0,0,1.15-.59l.32.75a4,4,0,0,1-1.46.89,5.38,5.38,0,0,1-2,.37A3.81,3.81,0,0,1,116.83,291.83Zm4.87-4.47a4.53,4.53,0,0,0,0-.74,3.07,3.07,0,0,0-.46-1.74,1.63,1.63,0,0,0-1.42-.63,1.94,1.94,0,0,0-1.58.71,4.19,4.19,0,0,0-.67,2.4Z"/><path class="cls-1" d="M132.07,293a.72.72,0,0,1-.23-.61v-.58a5.88,5.88,0,0,1-1.41,1,3.74,3.74,0,0,1-1.69.42,2.66,2.66,0,0,1-2.24-.85,4.62,4.62,0,0,1-.67-2.8v-4.94l-1-.27v-.74l2.38-.23h0l.32.21v5.83a6.16,6.16,0,0,0,.15,1.54,1.3,1.3,0,0,0,.51.81,1.74,1.74,0,0,0,1.06.27,2.89,2.89,0,0,0,1.27-.29,4.35,4.35,0,0,0,1-.68v-6.45l-1.22-.27v-.74l2.58-.23h0l.39.21v8.57h1l0,.76-.82.19a4.7,4.7,0,0,1-.81.07A1.1,1.1,0,0,1,132.07,293Z"/><path class="cls-1" d="M137.11,284.86l-1.3-.31v-.9l2.64-.32h0l.39.3V292l1.36.14V293h-4.5v-.83l1.38-.15Zm-.14-3.32a1.12,1.12,0,0,1-.27-.78,1.28,1.28,0,0,1,.33-.9,1.17,1.17,0,0,1,.91-.36,1.07,1.07,0,0,1,.85.31,1.12,1.12,0,0,1,.27.78,1.26,1.26,0,0,1-.33.92,1.22,1.22,0,0,1-.93.34h0A1,1,0,0,1,137,281.54Z"/><path class="cls-1" d="M143,291.62a1.39,1.39,0,0,0,.72.46,3.28,3.28,0,0,0,1.17.21,2.26,2.26,0,0,0,1.43-.38,1.27,1.27,0,0,0,.45-1,1.18,1.18,0,0,0-.28-.79,2.77,2.77,0,0,0-.81-.61c-.35-.17-.84-.39-1.49-.64a4.6,4.6,0,0,1-1.91-1.18,2.64,2.64,0,0,1-.6-1.81,2,2,0,0,1,.45-1.31,3,3,0,0,1,1.24-.87,4.68,4.68,0,0,1,1.76-.32,6.81,6.81,0,0,1,1.36.12,8.06,8.06,0,0,1,1,.24l.47.15V286h-1l-.34-1.26a.89.89,0,0,0-.55-.34,3,3,0,0,0-1-.15,2.14,2.14,0,0,0-1.24.34,1.08,1.08,0,0,0-.46.92,1.39,1.39,0,0,0,.24.84,2,2,0,0,0,.62.54c.25.13.59.29,1,.47l.34.14a13.21,13.21,0,0,1,1.55.71,3.29,3.29,0,0,1,1,.89,2.3,2.3,0,0,1,.39,1.36,2.4,2.4,0,0,1-1,2,4.33,4.33,0,0,1-2.68.75,7.18,7.18,0,0,1-1.74-.23,10.24,10.24,0,0,1-1.49-.47V290.3h1.1Z"/><path class="cls-1" d="M150,292.15l1-.15v-7.14l-1.22-.31v-.92l2.43-.3.31.22.1.68,0,.54a6,6,0,0,1,1.63-1,4.65,4.65,0,0,1,1.84-.45,3.14,3.14,0,0,1,1.48.3,2,2,0,0,1,.85.95,5.71,5.71,0,0,1,1.52-.85,4.77,4.77,0,0,1,1.83-.4,2.92,2.92,0,0,1,1.65.4,2.19,2.19,0,0,1,.84,1.24,8.42,8.42,0,0,1,.25,2.25V292l1.22.15V293H161.7v-.83l1.06-.15v-4.73a6.54,6.54,0,0,0-.15-1.57,1.45,1.45,0,0,0-.54-.88,2,2,0,0,0-1.15-.29,3.39,3.39,0,0,0-1.19.25,4.52,4.52,0,0,0-1.07.59,9,9,0,0,1,.15,1.88V292l1.21.15V293h-4.11v-.83L157,292v-4.76a7.15,7.15,0,0,0-.13-1.58,1.4,1.4,0,0,0-.48-.85,1.8,1.8,0,0,0-1.09-.28,3.28,3.28,0,0,0-1.3.31,5.36,5.36,0,0,0-1.2.71V292l1.14.15V293h-4Z"/><path class="cls-1" d="M167.57,285.59a4.38,4.38,0,0,1,3.86-2.3,3.88,3.88,0,0,1,3.22,1.36,5.58,5.58,0,0,1,1.08,3.57,5.38,5.38,0,0,1-.63,2.67,4.25,4.25,0,0,1-1.66,1.7,4.36,4.36,0,0,1-2.2.58,3.85,3.85,0,0,1-3.22-1.36,5.58,5.58,0,0,1-1.08-3.57A5.33,5.33,0,0,1,167.57,285.59Zm5.58,5.64a5.39,5.39,0,0,0,.62-2.87,6.55,6.55,0,0,0-.57-3,2,2,0,0,0-1.86-1.11,2,2,0,0,0-1.81,1,5.31,5.31,0,0,0-.63,2.87,6.35,6.35,0,0,0,.59,3,2,2,0,0,0,1.85,1.1A2,2,0,0,0,173.15,291.23Z"/><path class="cls-1" d="M179.08,292.66a3.47,3.47,0,0,1-1.35-1.56,6,6,0,0,1-.51-2.6,5.76,5.76,0,0,1,.6-2.64,4.63,4.63,0,0,1,1.71-1.88,4.89,4.89,0,0,1,2.63-.69,6.52,6.52,0,0,1,1.58.19V280.3l-1.74-.2v-.73l3.06-.31h.05l.38.27v12.79h1v.78c-.36.08-.67.14-.94.18a4.61,4.61,0,0,1-.84.07,1,1,0,0,1-.63-.15c-.13-.1-.19-.32-.19-.65v-.54a3.74,3.74,0,0,1-1.25,1,3.63,3.63,0,0,1-1.67.39A3.55,3.55,0,0,1,179.08,292.66Zm3.79-1a2.6,2.6,0,0,0,.87-.69v-6.22a1.23,1.23,0,0,0-.64-.37,3.4,3.4,0,0,0-1.06-.16,2.56,2.56,0,0,0-2.12,1,5,5,0,0,0-.79,3.12,4.34,4.34,0,0,0,.7,2.72,2.17,2.17,0,0,0,1.8.88A2.79,2.79,0,0,0,182.87,291.67Z"/><path class="cls-1" d="M193.32,292.71a2,2,0,0,1-.47-1.51v-6.53h-1.23v-.76l.48-.12a2.28,2.28,0,0,0,.53-.19,1,1,0,0,0,.42-.61,8,8,0,0,0,.32-1c.13-.48.2-.76.23-.85h1l0,2.45h2.84v1.12h-2.84v5.22a10.33,10.33,0,0,0,.06,1.36.69.69,0,0,0,.26.51,1.35,1.35,0,0,0,.67.12,4.84,4.84,0,0,0,1-.12,4.06,4.06,0,0,0,.86-.26l.25.77a4.67,4.67,0,0,1-1.31.59,5.33,5.33,0,0,1-1.66.29A2,2,0,0,1,193.32,292.71Z"/><path class="cls-1" d="M200.11,284.86l-1.3-.31v-.9l2.64-.32h0l.39.3V292l1.36.14V293h-4.5v-.83l1.38-.15Zm-.14-3.32a1.12,1.12,0,0,1-.27-.78,1.28,1.28,0,0,1,.33-.9,1.17,1.17,0,0,1,.91-.36,1.07,1.07,0,0,1,.85.31,1.12,1.12,0,0,1,.27.78,1.26,1.26,0,0,1-.33.92,1.22,1.22,0,0,1-.93.34h0A1,1,0,0,1,200,281.54Z"/><path class="cls-1" d="M205.46,284.86l-1.22-.31v-.92l2.43-.3h.05l.36.3v.72l0,.41a5.84,5.84,0,0,1,1.61-1,4.68,4.68,0,0,1,1.92-.44,2.81,2.81,0,0,1,1.66.41,2.16,2.16,0,0,1,.83,1.25,8.51,8.51,0,0,1,.24,2.26V292l1.18.12V293h-4v-.83l1.05-.14v-4.77a7.17,7.17,0,0,0-.14-1.58,1.46,1.46,0,0,0-.51-.85,1.83,1.83,0,0,0-1.08-.28,3.32,3.32,0,0,0-1.31.31,5.91,5.91,0,0,0-1.24.71V292l1.15.15V293h-4v-.83l1.07-.15Z"/><path class="cls-1" d="M216.08,285.78a4.34,4.34,0,0,1,1.63-1.82,4.87,4.87,0,0,1,2.59-.67,5.1,5.1,0,0,1,1.26.14c.35.09.77.21,1.26.37l-.07,2.62h-1.11l-.37-1.73q-.11-.48-1.29-.48a2.2,2.2,0,0,0-1.88,1,4.63,4.63,0,0,0-.69,2.73,5,5,0,0,0,.78,3.05,2.37,2.37,0,0,0,2,1.05,4.24,4.24,0,0,0,1.35-.22,5.12,5.12,0,0,0,1.1-.53l.32.68a4.25,4.25,0,0,1-1.35.86,4.67,4.67,0,0,1-1.81.38,4.22,4.22,0,0,1-2.36-.63,3.86,3.86,0,0,1-1.44-1.72,6.21,6.21,0,0,1-.49-2.49A5.72,5.72,0,0,1,216.08,285.78Z"/><path class="cls-1" d="M225.78,284.86l-1.3-.31v-.9l2.64-.32h0l.39.3V292l1.36.14V293h-4.5v-.83l1.38-.15Zm-.14-3.32a1.12,1.12,0,0,1-.27-.78,1.28,1.28,0,0,1,.33-.9,1.17,1.17,0,0,1,.91-.36,1.07,1.07,0,0,1,.85.31,1.12,1.12,0,0,1,.27.78,1.26,1.26,0,0,1-.33.92,1.22,1.22,0,0,1-.93.34h0A1,1,0,0,1,225.64,281.54Z"/><path class="cls-1" d="M231.91,292.66a3.47,3.47,0,0,1-1.35-1.56,6.12,6.12,0,0,1-.5-2.6,5.88,5.88,0,0,1,.59-2.64,4.63,4.63,0,0,1,1.71-1.88,4.89,4.89,0,0,1,2.63-.69,6.45,6.45,0,0,1,1.58.19V280.3l-1.73-.2v-.73l3.06-.31h0l.37.27v12.79h1v.78c-.37.08-.68.14-.95.18a4.46,4.46,0,0,1-.84.07,1,1,0,0,1-.63-.15.85.85,0,0,1-.18-.65v-.54a3.84,3.84,0,0,1-1.25,1,3.7,3.7,0,0,1-1.68.39A3.58,3.58,0,0,1,231.91,292.66Zm3.79-1a2.42,2.42,0,0,0,.87-.69v-6.22a1.19,1.19,0,0,0-.64-.37,3.36,3.36,0,0,0-1.06-.16,2.57,2.57,0,0,0-2.12,1,5.07,5.07,0,0,0-.79,3.12,4.4,4.4,0,0,0,.7,2.72,2.18,2.18,0,0,0,1.8.88A2.76,2.76,0,0,0,235.7,291.67Z"/><path class="cls-1" d="M247.7,293a.72.72,0,0,1-.23-.61v-.58a5.88,5.88,0,0,1-1.41,1,3.74,3.74,0,0,1-1.69.42,2.66,2.66,0,0,1-2.24-.85,4.63,4.63,0,0,1-.66-2.8v-4.94l-1-.27v-.74l2.38-.23h0l.32.21v5.83a6.16,6.16,0,0,0,.15,1.54,1.3,1.3,0,0,0,.51.81A1.76,1.76,0,0,0,245,292a3,3,0,0,0,1.28-.29,4.49,4.49,0,0,0,1-.68v-6.45l-1.22-.27v-.74l2.58-.23h0l.39.21v8.57h1l0,.76-.82.19a4.7,4.7,0,0,1-.81.07A1.1,1.1,0,0,1,247.7,293Z"/><path class="cls-1" d="M252.43,284.86l-1.22-.31v-.92l2.43-.3h.05l.35.3v1.13a5.84,5.84,0,0,1,1.61-1,4.68,4.68,0,0,1,1.92-.44,2.81,2.81,0,0,1,1.66.41,2.16,2.16,0,0,1,.83,1.25,9,9,0,0,1,.23,2.26V292l1.19.12V293h-4v-.83l1.05-.14v-4.77a7.17,7.17,0,0,0-.14-1.58,1.46,1.46,0,0,0-.51-.85,1.83,1.83,0,0,0-1.08-.28,3.32,3.32,0,0,0-1.31.31,6.26,6.26,0,0,0-1.25.71V292l1.16.15V293h-4v-.83l1.07-.15Z"/><path class="cls-1" d="M264.16,292.71a2,2,0,0,1-.48-1.51v-6.53h-1.22v-.76l.48-.12a2,2,0,0,0,.52-.19,1,1,0,0,0,.43-.61,8,8,0,0,0,.32-1c.12-.48.2-.76.22-.85h1l0,2.45h2.84v1.12h-2.84v5.22a10.33,10.33,0,0,0,.06,1.36.69.69,0,0,0,.25.51,1.37,1.37,0,0,0,.67.12,4.85,4.85,0,0,0,1-.12,4,4,0,0,0,.85-.26l.26.77a4.62,4.62,0,0,1-1.32.59,5.28,5.28,0,0,1-1.66.29A2,2,0,0,1,264.16,292.71Z"/><path class="cls-1" d="M280.67,293a.75.75,0,0,1-.22-.61v-.58a5.88,5.88,0,0,1-1.41,1,3.74,3.74,0,0,1-1.69.42,2.66,2.66,0,0,1-2.24-.85,4.62,4.62,0,0,1-.67-2.8v-4.94l-.95-.27v-.74l2.38-.23h0l.32.21v5.83a6.16,6.16,0,0,0,.15,1.54,1.3,1.3,0,0,0,.51.81,1.74,1.74,0,0,0,1.06.27,2.89,2.89,0,0,0,1.27-.29,4.35,4.35,0,0,0,1-.68v-6.45l-1.22-.27v-.74l2.58-.23h0l.39.21v8.57h1l0,.76-.82.19a4.7,4.7,0,0,1-.81.07A1.16,1.16,0,0,1,280.67,293Z"/><path class="cls-1" d="M285.85,292.71a2,2,0,0,1-.48-1.51v-6.53h-1.22v-.76l.48-.12a2,2,0,0,0,.52-.19,1,1,0,0,0,.43-.61,8,8,0,0,0,.32-1c.13-.48.2-.76.22-.85h1l0,2.45H290v1.12h-2.84v5.22a10.33,10.33,0,0,0,.06,1.36.69.69,0,0,0,.25.51,1.39,1.39,0,0,0,.68.12,4.84,4.84,0,0,0,1-.12,4.06,4.06,0,0,0,.86-.26l.25.77a4.62,4.62,0,0,1-1.32.59,5.27,5.27,0,0,1-1.65.29A2,2,0,0,1,285.85,292.71Z"/><path class="cls-1" d="M296.58,280.3l-1.38-.19v-.73l2.74-.32h0l.38.26V292l1.44.14V293H295.2v-.83l1.38-.15Z"/><path class="cls-1" d="M302.6,288.08a10.08,10.08,0,0,1,4-.81v-.48a3.76,3.76,0,0,0-.17-1.25,1.15,1.15,0,0,0-.59-.67,2.5,2.5,0,0,0-1.18-.22,4.71,4.71,0,0,0-1.55.25,11,11,0,0,0-1.37.6l-.43-.88a4.91,4.91,0,0,1,.82-.49,8.09,8.09,0,0,1,1.38-.55,5.28,5.28,0,0,1,1.56-.24,4.54,4.54,0,0,1,1.91.34,2,2,0,0,1,1,1.06,5.25,5.25,0,0,1,.3,1.95v5.46h1v.75c-.22.06-.51.11-.85.17a6.6,6.6,0,0,1-.91.08,1,1,0,0,1-.65-.14.88.88,0,0,1-.17-.64v-.56a6.28,6.28,0,0,1-1.25.94,3.31,3.31,0,0,1-1.67.42,3,3,0,0,1-2-.71,2.55,2.55,0,0,1-.8-2A2.47,2.47,0,0,1,302.6,288.08Zm3,3.66a5.56,5.56,0,0,0,1.05-.64v-2.93a5.53,5.53,0,0,0-2.8.57,1.72,1.72,0,0,0-.94,1.49,1.8,1.8,0,0,0,.45,1.35,1.68,1.68,0,0,0,1.22.43A2.5,2.5,0,0,0,305.59,291.74Z"/><path class="cls-1" d="M311.16,285.59a4.34,4.34,0,0,1,1.66-1.71,4.4,4.4,0,0,1,2.2-.59,3.88,3.88,0,0,1,3.22,1.36,5.58,5.58,0,0,1,1.08,3.57,5.38,5.38,0,0,1-.63,2.67,4.29,4.29,0,0,1-1.65,1.7,4.4,4.4,0,0,1-2.21.58,3.86,3.86,0,0,1-3.22-1.36,5.58,5.58,0,0,1-1.08-3.57A5.33,5.33,0,0,1,311.16,285.59Zm5.58,5.64a5.29,5.29,0,0,0,.63-2.87,6.41,6.41,0,0,0-.58-3,1.93,1.93,0,0,0-1.85-1.11,2,2,0,0,0-1.81,1,5.22,5.22,0,0,0-.64,2.87,6.47,6.47,0,0,0,.59,3,2,2,0,0,0,1.86,1.1A2,2,0,0,0,316.74,291.23Z"/><path class="cls-1" d="M320.9,292.15l1.28-.1v-7.19l-1.23-.31v-.92l2.35-.3h0l.38.3v.31l0,1.33h0a4,4,0,0,1,.61-.75,4.5,4.5,0,0,1,1.14-.84,3,3,0,0,1,1.51-.39,1.46,1.46,0,0,1,.56.09v1.9a1.43,1.43,0,0,0-.38-.16,2.08,2.08,0,0,0-.58-.08,4.36,4.36,0,0,0-2.62.87V292l2.16.14V293H320.9Z"/><path class="cls-1" d="M329.7,291.83a5.57,5.57,0,0,1-1.08-3.59,5.79,5.79,0,0,1,.56-2.6,4.13,4.13,0,0,1,1.57-1.73,4.39,4.39,0,0,1,2.31-.62,3.32,3.32,0,0,1,2.46.88,3.55,3.55,0,0,1,.92,2.51,7.89,7.89,0,0,1-.12,1.58h-5.85a4.73,4.73,0,0,0,.79,2.71,2.48,2.48,0,0,0,2.12,1,4.62,4.62,0,0,0,1.42-.25,3.42,3.42,0,0,0,1.15-.59l.32.75a4,4,0,0,1-1.46.89,5.42,5.42,0,0,1-2,.37A3.81,3.81,0,0,1,329.7,291.83Zm4.87-4.47a4.53,4.53,0,0,0,.05-.74,3.15,3.15,0,0,0-.46-1.74,1.65,1.65,0,0,0-1.42-.63,1.93,1.93,0,0,0-1.58.71,4.19,4.19,0,0,0-.67,2.4Z"/><path class="cls-1" d="M339,291.83a5.57,5.57,0,0,1-1.08-3.59,5.79,5.79,0,0,1,.56-2.6,4.06,4.06,0,0,1,1.57-1.73,4.39,4.39,0,0,1,2.31-.62,3.28,3.28,0,0,1,2.45.88,3.51,3.51,0,0,1,.93,2.51,7.89,7.89,0,0,1-.12,1.58h-5.85a4.73,4.73,0,0,0,.78,2.71,2.49,2.49,0,0,0,2.13,1,4.62,4.62,0,0,0,1.42-.25,3.52,3.52,0,0,0,1.15-.59l.32.75a4.1,4.1,0,0,1-1.46.89,5.46,5.46,0,0,1-2,.37A3.8,3.8,0,0,1,339,291.83Zm4.87-4.47a6,6,0,0,0,.05-.74,3.07,3.07,0,0,0-.47-1.74,1.62,1.62,0,0,0-1.42-.63,1.92,1.92,0,0,0-1.57.71,4.19,4.19,0,0,0-.67,2.4Z"/><path class="cls-1" d="M348.61,292.71a2,2,0,0,1-.47-1.51v-6.53h-1.23v-.76l.48-.12a2.11,2.11,0,0,0,.53-.19,1,1,0,0,0,.42-.61,8,8,0,0,0,.32-1c.13-.48.2-.76.23-.85h1l0,2.45h2.84v1.12h-2.84v5.22a10.33,10.33,0,0,0,.06,1.36.69.69,0,0,0,.26.51,1.35,1.35,0,0,0,.67.12,4.84,4.84,0,0,0,1-.12,4.06,4.06,0,0,0,.86-.26l.25.77a4.67,4.67,0,0,1-1.31.59,5.33,5.33,0,0,1-1.66.29A2,2,0,0,1,348.61,292.71Z"/><path class="cls-1" d="M359.9,292.66a3.47,3.47,0,0,1-1.35-1.56,6.12,6.12,0,0,1-.5-2.6,5.88,5.88,0,0,1,.59-2.64,4.63,4.63,0,0,1,1.71-1.88,4.89,4.89,0,0,1,2.63-.69,6.45,6.45,0,0,1,1.58.19V280.3l-1.73-.2v-.73l3.06-.31h.05l.37.27v12.79h1v.78c-.37.08-.68.14-.95.18a4.46,4.46,0,0,1-.84.07,1,1,0,0,1-.63-.15.85.85,0,0,1-.18-.65v-.54a3.84,3.84,0,0,1-1.25,1,3.7,3.7,0,0,1-1.68.39A3.58,3.58,0,0,1,359.9,292.66Zm3.79-1a2.42,2.42,0,0,0,.87-.69v-6.22a1.19,1.19,0,0,0-.64-.37,3.36,3.36,0,0,0-1.06-.16,2.57,2.57,0,0,0-2.12,1,5.07,5.07,0,0,0-.79,3.12,4.34,4.34,0,0,0,.7,2.72,2.17,2.17,0,0,0,1.8.88A2.76,2.76,0,0,0,363.69,291.67Z"/><path class="cls-1" d="M369.28,285.59a4.38,4.38,0,0,1,3.86-2.3,3.9,3.9,0,0,1,3.23,1.36,5.64,5.64,0,0,1,1.08,3.57,5.38,5.38,0,0,1-.63,2.67,4.31,4.31,0,0,1-1.66,1.7,4.39,4.39,0,0,1-2.2.58,3.84,3.84,0,0,1-3.22-1.36,5.58,5.58,0,0,1-1.08-3.57A5.43,5.43,0,0,1,369.28,285.59Zm5.58,5.64a5.29,5.29,0,0,0,.63-2.87,6.41,6.41,0,0,0-.58-3,1.93,1.93,0,0,0-1.85-1.11,2,2,0,0,0-1.81,1,5.22,5.22,0,0,0-.64,2.87,6.34,6.34,0,0,0,.6,3,2,2,0,0,0,1.85,1.1A2,2,0,0,0,374.86,291.23Z"/><path class="cls-1" d="M380.23,280.3l-1.37-.19v-.73l2.73-.32h0l.37.26V292l1.45.14V293h-4.59v-.83l1.37-.15Z"/><path class="cls-1" d="M385.28,285.59a4.38,4.38,0,0,1,3.86-2.3,3.88,3.88,0,0,1,3.22,1.36,5.58,5.58,0,0,1,1.08,3.57,5.38,5.38,0,0,1-.63,2.67,4.29,4.29,0,0,1-1.65,1.7,4.4,4.4,0,0,1-2.21.58,3.86,3.86,0,0,1-3.22-1.36,5.58,5.58,0,0,1-1.08-3.57A5.33,5.33,0,0,1,385.28,285.59Zm5.58,5.64a5.29,5.29,0,0,0,.63-2.87,6.54,6.54,0,0,0-.58-3,1.94,1.94,0,0,0-1.85-1.11,2,2,0,0,0-1.82,1,5.31,5.31,0,0,0-.63,2.87,6.47,6.47,0,0,0,.59,3,2,2,0,0,0,1.86,1.1A2,2,0,0,0,390.86,291.23Z"/><path class="cls-1" d="M395,292.15l1.28-.1v-7.19l-1.23-.31v-.92l2.35-.3h0l.38.3v.31l-.05,1.33h.05a4,4,0,0,1,.61-.75,4.32,4.32,0,0,1,1.14-.84,3,3,0,0,1,1.51-.39,1.46,1.46,0,0,1,.56.09v1.9a1.43,1.43,0,0,0-.38-.16,2.16,2.16,0,0,0-.59-.08,4.35,4.35,0,0,0-2.61.87V292l2.15.14V293H395Z"/><path class="cls-1" d="M403.82,291.83a5.57,5.57,0,0,1-1.08-3.59,5.79,5.79,0,0,1,.56-2.6,4.13,4.13,0,0,1,1.57-1.73,4.39,4.39,0,0,1,2.31-.62,3.28,3.28,0,0,1,2.45.88,3.51,3.51,0,0,1,.93,2.51,7.89,7.89,0,0,1-.12,1.58h-5.85a4.73,4.73,0,0,0,.79,2.71,2.46,2.46,0,0,0,2.12,1,4.62,4.62,0,0,0,1.42-.25,3.42,3.42,0,0,0,1.15-.59l.32.75a4.1,4.1,0,0,1-1.46.89,5.46,5.46,0,0,1-2,.37A3.8,3.8,0,0,1,403.82,291.83Zm4.87-4.47a6,6,0,0,0,.05-.74,3.07,3.07,0,0,0-.47-1.74,1.62,1.62,0,0,0-1.42-.63,1.92,1.92,0,0,0-1.57.71,4.19,4.19,0,0,0-.67,2.4Z"/><path class="cls-1" d="M416,292.15l1-.15v-7.14l-1.22-.31v-.92l2.43-.3.3.22.11.68,0,.54a6.09,6.09,0,0,1,1.62-1,4.69,4.69,0,0,1,1.85-.45,3.16,3.16,0,0,1,1.48.3,2.08,2.08,0,0,1,.85.95,5.71,5.71,0,0,1,1.52-.85,4.77,4.77,0,0,1,1.83-.4,2.86,2.86,0,0,1,1.64.4,2.16,2.16,0,0,1,.85,1.24,8.48,8.48,0,0,1,.24,2.25V292l1.23.15V293h-4v-.83l1-.15v-4.73a6.62,6.62,0,0,0-.14-1.57,1.55,1.55,0,0,0-.54-.88,2,2,0,0,0-1.15-.29,3.34,3.34,0,0,0-1.19.25,4.33,4.33,0,0,0-1.07.59,9,9,0,0,1,.15,1.88V292l1.21.15V293h-4.12v-.83l1.13-.15v-4.76a7.82,7.82,0,0,0-.13-1.58,1.46,1.46,0,0,0-.49-.85,1.79,1.79,0,0,0-1.08-.28,3.32,3.32,0,0,0-1.31.31,5.51,5.51,0,0,0-1.19.71V292l1.13.15V293h-4Z"/><path class="cls-1" d="M434.56,288.08a10.17,10.17,0,0,1,4.05-.81v-.48a3.76,3.76,0,0,0-.17-1.25,1.15,1.15,0,0,0-.59-.67,2.5,2.5,0,0,0-1.18-.22,4.66,4.66,0,0,0-1.55.25,11,11,0,0,0-1.37.6l-.43-.88a4.91,4.91,0,0,1,.82-.49,7.78,7.78,0,0,1,1.38-.55,5.28,5.28,0,0,1,1.56-.24,4.57,4.57,0,0,1,1.91.34,1.94,1.94,0,0,1,1,1.06,5,5,0,0,1,.31,1.95v5.46h1v.75c-.22.06-.51.11-.86.17a6.35,6.35,0,0,1-.9.08,1,1,0,0,1-.65-.14.88.88,0,0,1-.17-.64v-.56a6.28,6.28,0,0,1-1.25.94,3.31,3.31,0,0,1-1.67.42,3,3,0,0,1-2-.71,2.55,2.55,0,0,1-.8-2A2.47,2.47,0,0,1,434.56,288.08Zm3,3.66a5.56,5.56,0,0,0,1.05-.64v-2.93a5.5,5.5,0,0,0-2.8.57,1.7,1.7,0,0,0-.94,1.49,1.8,1.8,0,0,0,.45,1.35,1.68,1.68,0,0,0,1.22.43A2.5,2.5,0,0,0,437.56,291.74Z"/><path class="cls-1" d="M443.41,296.88a2.19,2.19,0,0,1-1-1.89,2.28,2.28,0,0,1,.47-1.38,3.08,3.08,0,0,1,1.12-.95,1.5,1.5,0,0,1-.79-1.43,2,2,0,0,1,.36-1.15,2.38,2.38,0,0,1,.94-.84,2.83,2.83,0,0,1-1.3-1.07,2.87,2.87,0,0,1-.45-1.65,2.74,2.74,0,0,1,.55-1.71,3.6,3.6,0,0,1,1.46-1.13,4.86,4.86,0,0,1,1.93-.39,4.45,4.45,0,0,1,2.69.72,2.56,2.56,0,0,1,.78-.5,2.8,2.8,0,0,1,1.12-.23h.58v1.49H450a2.65,2.65,0,0,1,.4,1.46,3.14,3.14,0,0,1-.5,1.78,3.26,3.26,0,0,1-1.39,1.2,4.71,4.71,0,0,1-2,.42,5.16,5.16,0,0,1-1.3-.15,2.2,2.2,0,0,0-.39.53,1.11,1.11,0,0,0-.16.56.88.88,0,0,0,.41.84,3.29,3.29,0,0,0,1.46.23h1.92a3.93,3.93,0,0,1,2.45.63,2.14,2.14,0,0,1,.8,1.78,2.64,2.64,0,0,1-.7,1.78,4.75,4.75,0,0,1-1.88,1.28,6.88,6.88,0,0,1-2.55.46A5.58,5.58,0,0,1,443.41,296.88Zm4.88-.54a2.9,2.9,0,0,0,1.2-.73,1.57,1.57,0,0,0,.46-1.13,1.38,1.38,0,0,0-.41-1.11A2.5,2.5,0,0,0,448,293h-2a5,5,0,0,1-1.07-.09,2.5,2.5,0,0,0-.69,1.72,1.79,1.79,0,0,0,.57,1.44,3,3,0,0,0,2,.5A5.06,5.06,0,0,0,448.29,296.34Zm.33-9.94a2.37,2.37,0,0,0-.5-1.67,2,2,0,0,0-1.5-.54,2.07,2.07,0,0,0-1.48.52,2.23,2.23,0,0,0-.55,1.66,2.63,2.63,0,0,0,.52,1.7,1.92,1.92,0,0,0,1.57.63C448,288.7,448.62,287.93,448.62,286.4Z"/><path class="cls-1" d="M453.84,284.86l-1.22-.31v-.92l2.43-.3h.05l.36.3v.72l0,.41a6,6,0,0,1,1.61-1,4.69,4.69,0,0,1,1.93-.44,2.8,2.8,0,0,1,1.65.41,2.16,2.16,0,0,1,.83,1.25,8.51,8.51,0,0,1,.24,2.26V292l1.19.12V293h-4v-.83l1.05-.14v-4.77a7.17,7.17,0,0,0-.14-1.58,1.46,1.46,0,0,0-.51-.85,1.81,1.81,0,0,0-1.08-.28,3.32,3.32,0,0,0-1.31.31,5.91,5.91,0,0,0-1.24.71V292l1.15.15V293h-4v-.83l1.07-.15Z"/><path class="cls-1" d="M465.71,288.08a10.08,10.08,0,0,1,4-.81v-.48a3.51,3.51,0,0,0-.17-1.25,1.17,1.17,0,0,0-.58-.67,2.56,2.56,0,0,0-1.18-.22,4.73,4.73,0,0,0-1.56.25,11,11,0,0,0-1.37.6l-.42-.88a4.71,4.71,0,0,1,.81-.49,8.09,8.09,0,0,1,1.38-.55,5.28,5.28,0,0,1,1.56-.24,4.59,4.59,0,0,1,1.92.34,2,2,0,0,1,1,1.06,5.25,5.25,0,0,1,.3,1.95v5.46h1v.75c-.23.06-.52.11-.86.17a6.6,6.6,0,0,1-.91.08A1,1,0,0,1,470,293a.88.88,0,0,1-.17-.64v-.56a6,6,0,0,1-1.25.94,3.31,3.31,0,0,1-1.67.42,2.91,2.91,0,0,1-2-.71,2.52,2.52,0,0,1-.81-2A2.47,2.47,0,0,1,465.71,288.08Zm3,3.66a5.26,5.26,0,0,0,1.05-.64v-2.93a5.49,5.49,0,0,0-2.79.57,1.71,1.71,0,0,0-.95,1.49,1.8,1.8,0,0,0,.45,1.35,1.68,1.68,0,0,0,1.22.43A2.5,2.5,0,0,0,468.7,291.74Z"/><path class="cls-1" d="M474.28,292.85a1,1,0,0,1-.33-.78,1.18,1.18,0,0,1,.38-.89,1.29,1.29,0,0,1,.9-.36,1,1,0,0,1,.8.32,1.12,1.12,0,0,1,.29.77,1.14,1.14,0,0,1-.38.9,1.28,1.28,0,0,1-.9.34A1.06,1.06,0,0,1,474.28,292.85Z"/></svg>