<svg id="Warstwa_1" data-name="Warstwa 1" xmlns="http://www.w3.org/2000/svg" viewBox="0 0 49.27 51.07"><defs><style>.cls-1{fill:#fff;}</style></defs><title>koszulina</title><g id="Icon_-_shirt" data-name="Icon - shirt"><g id="Icon"><path class="cls-1" d="M35.5,21.25l.42.4,2.83,2.83a.78.78,0,0,0,1.21.06q3-2.66,6.08-5.32a.79.79,0,0,0,.11-1.28A108.47,108.47,0,0,0,37.7,8.45a12.1,12.1,0,0,0-5.27-3.21A6.62,6.62,0,0,1,30,4a1.27,1.27,0,0,0-1.31-.19,13.18,13.18,0,0,1-8.19,0,1.35,1.35,0,0,0-1.36.21A4.26,4.26,0,0,1,17.7,5,13.54,13.54,0,0,0,11,8.9c-2.81,2.83-5.39,5.86-7.9,9-.49.61-.46.94.12,1.45l5.91,5.16c.54.47.87.45,1.39-.06l2.79-2.79c.1-.1.21-.18.38-.33v.36c-.07,8.19-.05,16.38-.76,24.55-.08,1,.16,1.21,1.15,1.21h21.1a3.2,3.2,0,0,0,.44,0,.73.73,0,0,0,.69-.7,4.42,4.42,0,0,0,0-.63c-.15-2.38-.38-4.76-.45-7.15-.14-5.07-.2-10.14-.29-15.2C35.49,22.93,35.5,22.15,35.5,21.25Z"/><path d="M35.5,21.25c0,.9,0,1.68,0,2.46.09,5.06.15,10.13.29,15.2.07,2.39.3,4.77.45,7.15a4.42,4.42,0,0,1,0,.63.73.73,0,0,1-.69.7,3.2,3.2,0,0,1-.44,0H14c-1,0-1.23-.24-1.15-1.21.71-8.17.69-16.36.76-24.55v-.36c-.17.15-.28.23-.38.33L10.47,24.4c-.52.51-.85.53-1.39.06L3.17,19.3c-.58-.51-.61-.84-.12-1.45,2.51-3.09,5.09-6.12,7.9-9A13.54,13.54,0,0,1,17.7,5a4.26,4.26,0,0,0,1.42-.9,1.35,1.35,0,0,1,1.36-.21,13.18,13.18,0,0,0,8.19,0A1.27,1.27,0,0,1,30,4a6.62,6.62,0,0,0,2.45,1.21A12.1,12.1,0,0,1,37.7,8.45a108.47,108.47,0,0,1,8.45,9.49A.79.79,0,0,1,46,19.22Q43,21.89,40,24.54a.78.78,0,0,1-1.21-.06l-2.83-2.83Zm-21,24.55h20c-.11-1.93-.29-3.82-.33-5.72-.13-6.87-.22-13.74-.33-20.61a.81.81,0,0,1,.48-.87.83.83,0,0,1,1,.28c1.21,1.23,2.43,2.44,3.65,3.66l.39.37,5.09-4.46c-.22-.28-.41-.52-.61-.75A85.86,85.86,0,0,0,36,9.08a10.57,10.57,0,0,0-3.79-2.27l-.55,2c-.55,2-1.08,4-1.66,5.94a1.23,1.23,0,0,1-.6.67c-.34.16-.65-.06-.88-.35l-.76-.95L26.91,13V20.7c0,.7-.27,1-1,1-.87,0-1.75,0-2.63,0s-1.08-.23-1.08-1.05V13c-.6.76-1.12,1.39-1.63,2-.23.29-.54.51-.88.35a1.27,1.27,0,0,1-.6-.67c-.3-.91-.53-1.84-.78-2.76L16.92,6.86a9.92,9.92,0,0,0-3.85,2.25,88.45,88.45,0,0,0-7.42,8.06L4.6,18.45l5.11,4.46c1.34-1.34,2.66-2.64,4-4,.3-.31.61-.55,1.07-.35s.47.55.47,1c0,2.63,0,5.26,0,7.9-.09,4.49-.22,9-.36,13.49C14.77,42.56,14.64,44.17,14.54,45.8Zm6.9-40c.43.87.86,1.74,1.3,2.6.25.51.41,1.2.82,1.45s1.1.07,1.67.08a.59.59,0,0,0,.19,0c.11,0,.25-.09.3-.18.67-1.31,1.32-2.63,2-3.95-1.06.09-2.09.23-3.11.23S22.52,5.91,21.44,5.83Zm2.38,5.71v8.52H25.3V11.54Zm5.75-5.83a.43.43,0,0,0-.09.1q-1.15,2.3-2.3,4.61a.37.37,0,0,0,0,.3c.56.73,1.14,1.44,1.76,2.2.5-1.82,1-3.55,1.44-5.28C30.69,6.39,30.69,6.39,29.57,5.71Zm-10,0c-.28.19-.5.37-.74.5s-.37.4-.26.75c.24.76.42,1.53.63,2.3.34,1.2.67,2.41,1,3.7.6-.75,1.15-1.43,1.69-2.12a.41.41,0,0,0,0-.34C21.19,8.87,20.39,7.3,19.58,5.67Z"/><path class="cls-1" d="M14.54,45.8c.1-1.63.23-3.24.28-4.84.14-4.5.27-9,.36-13.49.06-2.64,0-5.27,0-7.9,0-.42,0-.79-.47-1s-.77,0-1.07.35c-1.3,1.32-2.62,2.62-4,4L4.6,18.45l1.05-1.28a88.45,88.45,0,0,1,7.42-8.06,9.92,9.92,0,0,1,3.85-2.25L18.33,12c.25.92.48,1.85.78,2.76a1.27,1.27,0,0,0,.6.67c.34.16.65-.06.88-.35.51-.65,1-1.28,1.63-2v7.62c0,.82.24,1.05,1.08,1.05s1.76,0,2.63,0c.71,0,1-.26,1-1V13l.87,1.09.76.95c.23.29.54.51.88.35a1.23,1.23,0,0,0,.6-.67c.58-2,1.11-4,1.66-5.94l.55-2A10.57,10.57,0,0,1,36,9.08a85.86,85.86,0,0,1,7.89,8.62c.2.23.39.47.61.75l-5.09,4.46L39,22.54c-1.22-1.22-2.44-2.43-3.65-3.66a.83.83,0,0,0-1-.28.81.81,0,0,0-.48.87c.11,6.87.2,13.74.33,20.61,0,1.9.22,3.79.33,5.72ZM30,19.32c.29,0,.58,0,.87,0a.72.72,0,0,0,.72-.76.73.73,0,0,0-.73-.79q-.83,0-1.65,0a.73.73,0,0,0-.75.78.75.75,0,0,0,.76.78Z"/><path class="cls-1" d="M21.44,5.83c1.08.08,2.12.22,3.15.22s2.05-.14,3.11-.23c-.66,1.32-1.31,2.64-2,3.95,0,.09-.19.13-.3.18a.59.59,0,0,1-.19,0c-.57,0-1.25.17-1.67-.08s-.57-.94-.82-1.45C22.3,7.57,21.87,6.7,21.44,5.83Z"/><path class="cls-1" d="M23.82,11.54H25.3v8.52H23.82Z"/><path class="cls-1" d="M29.57,5.71c1.12.68,1.12.68.77,1.93-.47,1.73-.94,3.46-1.44,5.28-.62-.76-1.2-1.47-1.76-2.2a.37.37,0,0,1,0-.3q1.14-2.31,2.3-4.61A.43.43,0,0,1,29.57,5.71Z"/><path class="cls-1" d="M19.58,5.67c.81,1.63,1.61,3.2,2.39,4.79a.41.41,0,0,1,0,.34c-.54.69-1.09,1.37-1.69,2.12-.36-1.29-.69-2.5-1-3.7-.21-.77-.39-1.54-.63-2.3-.11-.35-.07-.57.26-.75S19.3,5.86,19.58,5.67Z"/><path d="M30,19.32h-.78a.75.75,0,0,1-.76-.78.73.73,0,0,1,.75-.78q.83,0,1.65,0a.73.73,0,0,1,.73.79.72.72,0,0,1-.72.76C30.58,19.33,30.29,19.32,30,19.32Z"/></g></g></svg>