<svg id="Warstwa_1" data-name="Warstwa 1" xmlns="http://www.w3.org/2000/svg" viewBox="0 0 200 325"><defs><style>.cls-1{isolation:isolate;}.cls-2{fill:#3c3c3c;}.cls-3,.cls-4{fill:none;}.cls-3{stroke:#707070;}.cls-4{stroke:#1d1d1b;stroke-miterlimit:10;stroke-width:2px;}</style></defs><title>kurier</title><g id="Wybierz_rzeczy" data-name="Wybierz rzeczy" class="cls-1"><g class="cls-1"><path class="cls-2" d="M90,93.76H87.13v4.59H83.84V93.76h-9.6v-2.6l9.6-13.89h3.29V91H90ZM83.84,91V85.68c0-1.88,0-3.41.14-4.61h-.11a16.16,16.16,0,0,1-1.27,2.3L77.39,91Z"/></g></g><g id="ubrania_zabawki_sprzęt_i_inne" data-name="ubrania zabawki sprzęt i inne" class="cls-1"><g class="cls-1"><path class="cls-2" d="M40.82,200.77a12.94,12.94,0,0,1,1-1.25l2.77-2.93h1.53l-3.46,3.65,3.71,4.91H44.82l-3-4.05-1,.85v3.2H39.53V193h1.29v6.45c0,.29,0,.73-.07,1.33Z"/><path class="cls-2" d="M49.15,196.59v5.55a2.25,2.25,0,0,0,.48,1.57,2,2,0,0,0,1.49.51,2.45,2.45,0,0,0,2-.73,3.73,3.73,0,0,0,.62-2.4v-4.5H55v8.56H53.93L53.75,204h-.07a2.62,2.62,0,0,1-1.11,1,3.77,3.77,0,0,1-1.61.34,3.24,3.24,0,0,1-2.34-.75,3.13,3.13,0,0,1-.78-2.37v-5.6Z"/><path class="cls-2" d="M61.66,196.43a4.52,4.52,0,0,1,1,.1l-.18,1.2a4.23,4.23,0,0,0-.93-.12,2.26,2.26,0,0,0-1.78.85,3.08,3.08,0,0,0-.74,2.1v4.59h-1.3v-8.56h1.07l.15,1.58H59a3.92,3.92,0,0,1,1.15-1.29A2.61,2.61,0,0,1,61.66,196.43Z"/><path class="cls-2" d="M64.18,194.27a.86.86,0,0,1,.21-.65.81.81,0,0,1,1.09,0,1,1,0,0,1,0,1.3.81.81,0,0,1-1.09,0A.89.89,0,0,1,64.18,194.27Zm1.4,10.88h-1.3v-8.56h1.3Z"/><path class="cls-2" d="M72,205.31a3.94,3.94,0,0,1-3-1.16,4.48,4.48,0,0,1-1.09-3.21,5,5,0,0,1,1-3.29,3.41,3.41,0,0,1,2.74-1.22,3.22,3.22,0,0,1,2.55,1.06,4.09,4.09,0,0,1,.94,2.79v.82H69.2a3.42,3.42,0,0,0,.76,2.29,2.64,2.64,0,0,0,2,.78,7,7,0,0,0,2.73-.57v1.15a7,7,0,0,1-1.3.43A7.75,7.75,0,0,1,72,205.31Zm-.35-7.79a2.12,2.12,0,0,0-1.65.67,3.08,3.08,0,0,0-.72,1.86h4.48a2.87,2.87,0,0,0-.55-1.88A1.94,1.94,0,0,0,71.6,197.52Z"/><path class="cls-2" d="M81.21,196.43a4.61,4.61,0,0,1,1,.1l-.18,1.2a4.39,4.39,0,0,0-.94-.12,2.29,2.29,0,0,0-1.78.85,3.07,3.07,0,0,0-.73,2.1v4.59h-1.3v-8.56h1.07l.15,1.58h.06a3.92,3.92,0,0,1,1.15-1.29A2.6,2.6,0,0,1,81.21,196.43Z"/><path class="cls-2" d="M92,205.31a3.8,3.8,0,0,1-1.53-.31,2.94,2.94,0,0,1-1.16-.95H89.2a11.9,11.9,0,0,1,.09,1.42V209H88v-12.4h1l.18,1.17h.06a3,3,0,0,1,1.17-1,3.65,3.65,0,0,1,1.52-.31,3.16,3.16,0,0,1,2.63,1.17,6.21,6.21,0,0,1,0,6.54A3.16,3.16,0,0,1,92,205.31Zm-.19-7.78a2.32,2.32,0,0,0-1.9.73,3.72,3.72,0,0,0-.6,2.31v.29a4.3,4.3,0,0,0,.6,2.58,2.3,2.3,0,0,0,1.93.78,2,2,0,0,0,1.74-.9,4.24,4.24,0,0,0,.63-2.47,4.1,4.1,0,0,0-.63-2.46A2.08,2.08,0,0,0,91.79,197.53Z"/><path class="cls-2" d="M101.71,196.43a4.52,4.52,0,0,1,1,.1l-.18,1.2a4.32,4.32,0,0,0-.94-.12,2.25,2.25,0,0,0-1.77.85,3,3,0,0,0-.74,2.1v4.59H97.8v-8.56h1.07l.15,1.58h.06a3.92,3.92,0,0,1,1.15-1.29A2.61,2.61,0,0,1,101.71,196.43Z"/><path class="cls-2" d="M109.81,205.15H103.6v-.88l4.67-6.67h-4.38v-1h5.8v1l-4.61,6.54h4.73Z"/><path class="cls-2" d="M110.46,196.59h1.39l1.87,4.88a19.21,19.21,0,0,1,.77,2.41h.06c.07-.26.21-.71.43-1.36s.92-2.62,2.12-5.93h1.39l-3.68,9.75a4.88,4.88,0,0,1-1.28,2,2.73,2.73,0,0,1-1.79.6,5.06,5.06,0,0,1-1.17-.13v-1a4.57,4.57,0,0,0,1,.1,2,2,0,0,0,1.9-1.5l.48-1.22Z"/><path class="cls-2" d="M118.84,209a3.11,3.11,0,0,1-1.2-.19v-1.06a3.59,3.59,0,0,0,1.06.16,1.11,1.11,0,0,0,.89-.33,1.52,1.52,0,0,0,.29-1v-10h1.3v9.87C121.18,208.15,120.4,209,118.84,209Zm.93-14.72a.82.82,0,0,1,.22-.65.75.75,0,0,1,.54-.21.76.76,0,0,1,.54.21,1,1,0,0,1,0,1.3.76.76,0,0,1-.54.21.75.75,0,0,1-.54-.21A.85.85,0,0,1,119.77,194.27Z"/><path class="cls-2" d="M127.54,205.31a3.93,3.93,0,0,1-3-1.16,4.44,4.44,0,0,1-1.1-3.21,5,5,0,0,1,1-3.29,3.39,3.39,0,0,1,2.74-1.22,3.2,3.2,0,0,1,2.54,1.06,4,4,0,0,1,.94,2.79v.82h-5.9a3.42,3.42,0,0,0,.76,2.29,2.65,2.65,0,0,0,2,.78,7,7,0,0,0,2.73-.57v1.15a6.81,6.81,0,0,1-1.3.43A7.75,7.75,0,0,1,127.54,205.31Zm-.35-7.79a2.1,2.1,0,0,0-1.64.67,3.15,3.15,0,0,0-.73,1.86h4.48a2.81,2.81,0,0,0-.55-1.88A1.92,1.92,0,0,0,127.19,197.52Z"/><path class="cls-2" d="M138.73,204h-.07a3.06,3.06,0,0,1-2.69,1.31,3.19,3.19,0,0,1-2.61-1.15,5.09,5.09,0,0,1-.93-3.27,5.17,5.17,0,0,1,.93-3.29,3.17,3.17,0,0,1,2.61-1.17,3.1,3.1,0,0,1,2.67,1.27h.11l-.06-.62,0-.6V193H140v12.16H138.9Zm-2.59.22a2.36,2.36,0,0,0,1.92-.72,3.64,3.64,0,0,0,.6-2.33v-.28a4.27,4.27,0,0,0-.61-2.6,2.3,2.3,0,0,0-1.93-.77,2,2,0,0,0-1.75.88,4.48,4.48,0,0,0-.6,2.51,4.2,4.2,0,0,0,.6,2.47A2,2,0,0,0,136.14,204.22Z"/><path class="cls-2" d="M148.18,205.15H142v-.88l4.67-6.67h-4.38v-1h5.81v1l-4.61,6.54h4.72Z"/><path class="cls-2" d="M150.08,194.27a.82.82,0,0,1,.22-.65.77.77,0,0,1,.55-.21.78.78,0,0,1,.54.21,1.07,1.07,0,0,1,0,1.3.78.78,0,0,1-.54.21.77.77,0,0,1-.55-.21A.85.85,0,0,1,150.08,194.27Zm1.41,10.88h-1.3v-8.56h1.3Z"/><path class="cls-2" d="M157.86,205.31a3.94,3.94,0,0,1-3-1.16,4.48,4.48,0,0,1-1.1-3.21,5,5,0,0,1,1-3.29,3.39,3.39,0,0,1,2.74-1.22,3.23,3.23,0,0,1,2.55,1.06,4.09,4.09,0,0,1,.93,2.79v.82h-5.89a3.36,3.36,0,0,0,.76,2.29,2.63,2.63,0,0,0,2,.78,7,7,0,0,0,2.74-.57v1.15a7.3,7.3,0,0,1-1.3.43A7.82,7.82,0,0,1,157.86,205.31Zm-.36-7.79a2.11,2.11,0,0,0-1.64.67,3.08,3.08,0,0,0-.72,1.86h4.47a2.87,2.87,0,0,0-.54-1.88A2,2,0,0,0,157.5,197.52Z"/><path class="cls-2" d="M59.83,224.35l-1.57-5c-.1-.31-.28-1-.55-2.1h-.07c-.2.91-.39,1.62-.54,2.11l-1.62,5H54l-2.34-8.56H53q.84,3.22,1.27,4.91a21,21,0,0,1,.49,2.28h.06c.06-.3.15-.69.28-1.16s.24-.84.33-1.12L57,215.79h1.41l1.53,4.91a16.28,16.28,0,0,1,.59,2.26h.07a6.32,6.32,0,0,1,.17-.87q.13-.59,1.62-6.3h1.35l-2.37,8.56Z"/><path class="cls-2" d="M75.27,223.2H75.2a3.06,3.06,0,0,1-2.69,1.31,3.19,3.19,0,0,1-2.61-1.15,5.09,5.09,0,0,1-.94-3.27,5.17,5.17,0,0,1,.94-3.29,3.17,3.17,0,0,1,2.61-1.17,3.1,3.1,0,0,1,2.67,1.27h.1l0-.62,0-.6v-3.49h1.3v12.16H75.44Zm-2.59.22a2.36,2.36,0,0,0,1.92-.72,3.64,3.64,0,0,0,.6-2.33v-.28a4.21,4.21,0,0,0-.61-2.59,2.28,2.28,0,0,0-1.93-.78,2,2,0,0,0-1.75.88,4.48,4.48,0,0,0-.6,2.51,4.2,4.2,0,0,0,.6,2.47A2,2,0,0,0,72.68,223.42Z"/><path class="cls-2" d="M86.64,220.06a4.73,4.73,0,0,1-1.06,3.27,3.68,3.68,0,0,1-2.91,1.18,3.84,3.84,0,0,1-2-.54,3.6,3.6,0,0,1-1.38-1.55,5.43,5.43,0,0,1-.48-2.36,4.71,4.71,0,0,1,1-3.26,3.67,3.67,0,0,1,2.9-1.17,3.63,3.63,0,0,1,2.86,1.2A4.71,4.71,0,0,1,86.64,220.06Zm-6.53,0a4,4,0,0,0,.66,2.5,2.61,2.61,0,0,0,3.86,0,4.06,4.06,0,0,0,.66-2.51,4,4,0,0,0-.66-2.48,2.34,2.34,0,0,0-1.95-.85,2.27,2.27,0,0,0-1.92.84A4,4,0,0,0,80.11,220.06Z"/><path class="cls-2" d="M95.92,215.79v.82l-1.59.19a2.49,2.49,0,0,1,.39.71,2.62,2.62,0,0,1,.17,1,2.49,2.49,0,0,1-.86,2,3.44,3.44,0,0,1-2.35.75,4,4,0,0,1-.72-.06,1.26,1.26,0,0,0-.83,1.1.56.56,0,0,0,.29.52,2,2,0,0,0,1,.17h1.52a3.4,3.4,0,0,1,2.13.59,2,2,0,0,1,.75,1.7,2.44,2.44,0,0,1-1.14,2.17,6.09,6.09,0,0,1-3.33.74,4.53,4.53,0,0,1-2.59-.62,2,2,0,0,1-.91-1.77,2,2,0,0,1,.5-1.35,2.49,2.49,0,0,1,1.41-.77,1.38,1.38,0,0,1-.56-.46,1.28,1.28,0,0,1-.22-.73,1.44,1.44,0,0,1,.25-.82A2.75,2.75,0,0,1,90,221a2.3,2.3,0,0,1-1.08-.93,3.07,3.07,0,0,1,.43-3.67,3.46,3.46,0,0,1,2.39-.76,4.17,4.17,0,0,1,1.21.16Zm-6.83,10a1.14,1.14,0,0,0,.59,1.05,3.23,3.23,0,0,0,1.68.36,4.62,4.62,0,0,0,2.41-.49,1.47,1.47,0,0,0,.79-1.32,1.08,1.08,0,0,0-.43-1,3.52,3.52,0,0,0-1.62-.26H91a2.07,2.07,0,0,0-1.38.42A1.49,1.49,0,0,0,89.09,225.79Zm.7-7.26a1.74,1.74,0,0,0,.51,1.36,2,2,0,0,0,1.41.46,1.65,1.65,0,0,0,1.9-1.84,1.7,1.7,0,0,0-1.92-1.93,1.91,1.91,0,0,0-1.41.49A2,2,0,0,0,89.79,218.53Z"/><path class="cls-2" d="M105.07,220.06a4.73,4.73,0,0,1-1.06,3.27,3.68,3.68,0,0,1-2.91,1.18,3.84,3.84,0,0,1-2-.54,3.6,3.6,0,0,1-1.38-1.55,5.43,5.43,0,0,1-.48-2.36,4.71,4.71,0,0,1,1-3.26,3.67,3.67,0,0,1,2.9-1.17,3.63,3.63,0,0,1,2.86,1.2A4.71,4.71,0,0,1,105.07,220.06Zm-6.53,0a4,4,0,0,0,.66,2.5,2.61,2.61,0,0,0,3.86,0,4.06,4.06,0,0,0,.66-2.51,4,4,0,0,0-.66-2.48,2.34,2.34,0,0,0-2-.85,2.27,2.27,0,0,0-1.92.84A4,4,0,0,0,98.54,220.06Z"/><path class="cls-2" d="M113.17,223.2h-.07a3.06,3.06,0,0,1-2.69,1.31,3.19,3.19,0,0,1-2.61-1.15,5,5,0,0,1-.94-3.27,5.17,5.17,0,0,1,.94-3.29,3.17,3.17,0,0,1,2.61-1.17,3.1,3.1,0,0,1,2.67,1.27h.1l-.05-.62,0-.6v-3.49h1.29v12.16h-1Zm-2.6.22a2.37,2.37,0,0,0,1.93-.72,3.64,3.64,0,0,0,.6-2.33v-.28a4.21,4.21,0,0,0-.61-2.59,2.29,2.29,0,0,0-1.93-.78,2,2,0,0,0-1.75.88,4.48,4.48,0,0,0-.6,2.51,4.2,4.2,0,0,0,.6,2.47A2,2,0,0,0,110.57,223.42Z"/><path class="cls-2" d="M123,224.35v-5.54a2.26,2.26,0,0,0-.47-1.56,2,2,0,0,0-1.5-.52,2.46,2.46,0,0,0-2,.73,3.63,3.63,0,0,0-.63,2.4v4.49h-1.3v-8.56h1.06l.21,1.17h.06a2.68,2.68,0,0,1,1.12-1,3.65,3.65,0,0,1,1.6-.35,3.25,3.25,0,0,1,2.33.75,3.17,3.17,0,0,1,.78,2.38v5.59Z"/><path class="cls-2" d="M125.61,215.79H127l1.87,4.88a19.75,19.75,0,0,1,.77,2.41h.06c.07-.26.21-.71.42-1.36s.93-2.62,2.13-5.93h1.39L130,225.54a4.88,4.88,0,0,1-1.28,2.05,2.75,2.75,0,0,1-1.79.6,5.2,5.2,0,0,1-1.18-.13v-1a4.74,4.74,0,0,0,1,.1,2,2,0,0,0,1.9-1.5l.48-1.22Z"/><path class="cls-2" d="M145.94,224.35v-5.57a2.25,2.25,0,0,0-.44-1.53,1.66,1.66,0,0,0-1.36-.52,2.16,2.16,0,0,0-1.78.7,3.28,3.28,0,0,0-.58,2.14v4.78h-1.3v-5.57a2.31,2.31,0,0,0-.44-1.53,1.66,1.66,0,0,0-1.36-.52,2.14,2.14,0,0,0-1.79.73,4,4,0,0,0-.57,2.4v4.49H135v-8.56h1.05l.21,1.17h.07a2.5,2.5,0,0,1,1-1,3.22,3.22,0,0,1,1.5-.35,2.54,2.54,0,0,1,2.62,1.45h.06a2.84,2.84,0,0,1,1.11-1.06,3.48,3.48,0,0,1,1.66-.39,2.91,2.91,0,0,1,2.18.75,3.34,3.34,0,0,1,.72,2.38v5.59Z"/><path class="cls-2" d="M72.68,242.64a4.77,4.77,0,0,0,.66,0c.21,0,.38-.07.51-.11v1a2.15,2.15,0,0,1-.62.17,5.37,5.37,0,0,1-.74.07c-1.66,0-2.49-.88-2.49-2.62V236H68.78v-.63l1.22-.54.55-1.83h.75v2h2.48v1H71.3v5a1.69,1.69,0,0,0,.37,1.18A1.26,1.26,0,0,0,72.68,242.64Z"/><path class="cls-2" d="M79.18,243.71a3.94,3.94,0,0,1-3-1.16,4.48,4.48,0,0,1-1.1-3.21,5,5,0,0,1,1-3.29,3.39,3.39,0,0,1,2.74-1.22,3.23,3.23,0,0,1,2.55,1.06,4.09,4.09,0,0,1,.93,2.79v.82H76.43a3.36,3.36,0,0,0,.76,2.29,2.63,2.63,0,0,0,2,.78A7,7,0,0,0,82,242v1.15a7.3,7.3,0,0,1-1.3.43A7.82,7.82,0,0,1,79.18,243.71Zm-.36-7.79a2.11,2.11,0,0,0-1.64.67,3.08,3.08,0,0,0-.72,1.86h4.47a2.87,2.87,0,0,0-.54-1.88A2,2,0,0,0,78.82,235.92Z"/><path class="cls-2" d="M88.44,234.83a4.52,4.52,0,0,1,1,.1l-.18,1.2a4.23,4.23,0,0,0-.93-.12,2.26,2.26,0,0,0-1.78.85,3.08,3.08,0,0,0-.74,2.1v4.59h-1.3V235h1.08l.14,1.58h.07A3.76,3.76,0,0,1,87,235.29,2.54,2.54,0,0,1,88.44,234.83Z"/><path class="cls-2" d="M102,243.55V238a2.31,2.31,0,0,0-.44-1.53,1.66,1.66,0,0,0-1.36-.52,2.23,2.23,0,0,0-1.79.7,3.34,3.34,0,0,0-.57,2.14v4.78h-1.3V238a2.31,2.31,0,0,0-.44-1.53,1.68,1.68,0,0,0-1.37-.52,2.13,2.13,0,0,0-1.78.73,4,4,0,0,0-.57,2.4v4.49H91.07V235h1.05l.21,1.17h.06a2.59,2.59,0,0,1,1-1,3.19,3.19,0,0,1,1.5-.35,2.55,2.55,0,0,1,2.62,1.46h.06a2.79,2.79,0,0,1,1.11-1.07,3.48,3.48,0,0,1,1.66-.39,2.87,2.87,0,0,1,2.17.75,3.29,3.29,0,0,1,.73,2.38v5.59Z"/><path class="cls-2" d="M105.84,232.67a.82.82,0,0,1,.22-.65.8.8,0,0,1,1.08,0,1,1,0,0,1,0,1.3.77.77,0,0,1-1.08,0A.85.85,0,0,1,105.84,232.67Zm1.41,10.88H106V235h1.3Z"/><path class="cls-2" d="M115.86,243.55V238a2.21,2.21,0,0,0-.48-1.56,2,2,0,0,0-1.49-.52,2.46,2.46,0,0,0-2,.73,3.63,3.63,0,0,0-.63,2.4v4.49H110V235h1l.21,1.17h.06a2.68,2.68,0,0,1,1.12-1,3.65,3.65,0,0,1,1.6-.35,3.25,3.25,0,0,1,2.33.75,3.17,3.17,0,0,1,.78,2.38v5.59Z"/><path class="cls-2" d="M119.71,232.67a.82.82,0,0,1,.22-.65.73.73,0,0,1,.54-.21.76.76,0,0,1,.54.21,1,1,0,0,1,0,1.3.77.77,0,0,1-.54.22.74.74,0,0,1-.54-.22A.85.85,0,0,1,119.71,232.67Zm1.4,10.88h-1.29V235h1.29Z"/><path class="cls-2" d="M127.48,243.71a4,4,0,0,1-3-1.16,4.48,4.48,0,0,1-1.09-3.21,5,5,0,0,1,1-3.29,3.39,3.39,0,0,1,2.73-1.22,3.21,3.21,0,0,1,2.55,1.06,4,4,0,0,1,.94,2.79v.82h-5.9a3.42,3.42,0,0,0,.76,2.29,2.64,2.64,0,0,0,2,.78,7,7,0,0,0,2.73-.57v1.15a7,7,0,0,1-1.3.43A7.75,7.75,0,0,1,127.48,243.71Zm-.35-7.79a2.12,2.12,0,0,0-1.65.67,3.08,3.08,0,0,0-.72,1.86h4.48a2.81,2.81,0,0,0-.55-1.88A1.92,1.92,0,0,0,127.13,235.92Z"/></g></g><line id="Line" class="cls-3" x1="66.5" y1="179.65" x2="136.5" y2="179.65"/><g id="Wybierz_rzeczy-2" data-name="Wybierz rzeczy" class="cls-1"><g class="cls-1"><path class="cls-2" d="M45.7,166.15H36.5v-1.46L43,155.1h-6.3v-1.8h8.84v1.48L39,164.35H45.7Z"/><path class="cls-2" d="M53.83,166.15l-.41-1.35h-.07A4.11,4.11,0,0,1,51.94,166a4.58,4.58,0,0,1-1.83.32,3.08,3.08,0,0,1-2.24-.78,2.9,2.9,0,0,1-.8-2.19,2.56,2.56,0,0,1,1.11-2.26,6.48,6.48,0,0,1,3.4-.84l1.68,0v-.52a2,2,0,0,0-.43-1.39,1.77,1.77,0,0,0-1.35-.46,4.51,4.51,0,0,0-1.43.22,10.94,10.94,0,0,0-1.32.51l-.67-1.47a6.85,6.85,0,0,1,1.73-.63,8.24,8.24,0,0,1,1.78-.22,4.21,4.21,0,0,1,2.8.81,3.17,3.17,0,0,1,.94,2.54v6.55Zm-3.07-1.41a2.53,2.53,0,0,0,1.8-.62,2.28,2.28,0,0,0,.69-1.77v-.84l-1.25.05a4.28,4.28,0,0,0-2.12.49,1.47,1.47,0,0,0-.67,1.33,1.3,1.3,0,0,0,.39,1A1.69,1.69,0,0,0,50.76,164.74Z"/><path class="cls-2" d="M66.39,166.15H64.31v-6a2.74,2.74,0,0,0-.42-1.67,1.55,1.55,0,0,0-1.32-.55,2,2,0,0,0-1.75.78,4.58,4.58,0,0,0-.56,2.59v4.84H58.19v-9.72h1.62l.29,1.27h.11a2.7,2.7,0,0,1,1.17-1.07,3.81,3.81,0,0,1,1.69-.38,2.94,2.94,0,0,1,3,1.53h.14a2.94,2.94,0,0,1,1.22-1.12,3.84,3.84,0,0,1,1.79-.41,3.31,3.31,0,0,1,2.54.88,3.9,3.9,0,0,1,.79,2.68v6.34H70.45v-6a2.74,2.74,0,0,0-.42-1.67,1.57,1.57,0,0,0-1.32-.55,2.07,2.07,0,0,0-1.77.75,3.89,3.89,0,0,0-.55,2.31Z"/><path class="cls-2" d="M84,161.27A5.28,5.28,0,0,1,82.8,165a4.36,4.36,0,0,1-3.4,1.34,4.67,4.67,0,0,1-2.41-.62,4.05,4.05,0,0,1-1.6-1.77,5.9,5.9,0,0,1-.57-2.67A5.28,5.28,0,0,1,76,157.58a4.38,4.38,0,0,1,3.41-1.33,4.3,4.3,0,0,1,3.34,1.36A5.26,5.26,0,0,1,84,161.27Zm-7.07,0c0,2.25.83,3.37,2.49,3.37s2.46-1.12,2.46-3.37-.83-3.33-2.48-3.33a2.13,2.13,0,0,0-1.89.86A4.49,4.49,0,0,0,77,161.27Zm1.13-6V155c.34-.41.68-.86,1-1.37s.63-.93.84-1.29h2.4v.18A18.81,18.81,0,0,1,81,153.93a18,18,0,0,1-1.54,1.31Z"/><path class="cls-2" d="M94.37,166.15l-1.26-4.53c-.15-.49-.42-1.6-.82-3.35h-.08q-.51,2.37-.81,3.36l-1.29,4.52H87.82l-2.72-9.72h2.11l1.24,4.79c.28,1.18.48,2.2.59,3h.06c.05-.43.14-.92.26-1.47s.23-1,.32-1.25l1.47-5.11h2.27l1.43,5.11q.14.44.33,1.32a12.63,12.63,0,0,1,.24,1.38h.07a25.31,25.31,0,0,1,.61-3l1.26-4.79h2.07l-2.74,9.72Z"/><path class="cls-2" d="M107.77,161l1.17-1.46,2.94-3.13h2.38l-3.91,4.17,4.16,5.55h-2.43L109,161.89l-1.13.93v3.33h-2V152.47h2v6.68l-.11,1.87Z"/><path class="cls-2" d="M122.93,166.15l-.29-1.27h-.11a3,3,0,0,1-1.23,1.06,4,4,0,0,1-1.81.39,3.59,3.59,0,0,1-2.64-.88,3.67,3.67,0,0,1-.87-2.67v-6.35h2.08v6a2.63,2.63,0,0,0,.46,1.68,1.75,1.75,0,0,0,1.43.56,2.3,2.3,0,0,0,1.92-.78,4.35,4.35,0,0,0,.61-2.61v-4.84h2.07v9.72Z"/><path class="cls-2" d="M132.43,156.25a4.75,4.75,0,0,1,1,.09l-.2,1.93a3.91,3.91,0,0,0-.91-.11,2.64,2.64,0,0,0-2,.81,2.94,2.94,0,0,0-.77,2.1v5.08H127.5v-9.72h1.61l.28,1.71h.1a3.82,3.82,0,0,1,1.26-1.38A3,3,0,0,1,132.43,156.25Z"/><path class="cls-2" d="M135.13,153.85a1.13,1.13,0,0,1,.31-.85,1.17,1.17,0,0,1,.86-.3,1.14,1.14,0,0,1,.85.3,1.34,1.34,0,0,1,0,1.69,1.14,1.14,0,0,1-.85.3,1.17,1.17,0,0,1-.86-.3A1.12,1.12,0,0,1,135.13,153.85Zm2.19,12.3h-2.06v-9.72h2.06Z"/><path class="cls-2" d="M144.52,166.33A4.7,4.7,0,0,1,141,165a5,5,0,0,1-1.28-3.64,5.49,5.49,0,0,1,1.19-3.74,4.1,4.1,0,0,1,3.26-1.37,4,4,0,0,1,3,1.17,4.44,4.44,0,0,1,1.12,3.22v1.12h-6.48a3.2,3.2,0,0,0,.77,2.17,2.64,2.64,0,0,0,2,.76,7.35,7.35,0,0,0,1.6-.16,8.62,8.62,0,0,0,1.6-.54v1.68a6.55,6.55,0,0,1-1.53.51A9.43,9.43,0,0,1,144.52,166.33Zm-.38-8.51a2.12,2.12,0,0,0-1.58.62,3,3,0,0,0-.7,1.82h4.41a2.7,2.7,0,0,0-.58-1.82A2,2,0,0,0,144.14,157.82Z"/><path class="cls-2" d="M155.58,156.25a4.92,4.92,0,0,1,1,.09l-.21,1.93a3.84,3.84,0,0,0-.91-.11,2.64,2.64,0,0,0-2,.81,2.94,2.94,0,0,0-.77,2.1v5.08h-2.06v-9.72h1.61l.28,1.71h.1a3.82,3.82,0,0,1,1.26-1.38A3,3,0,0,1,155.58,156.25Z"/><path class="cls-2" d="M164.49,166.15l-.41-1.35H164a4.14,4.14,0,0,1-1.42,1.21,4.52,4.52,0,0,1-1.83.32,3.06,3.06,0,0,1-2.23-.78,2.87,2.87,0,0,1-.81-2.19,2.55,2.55,0,0,1,1.12-2.26,6.45,6.45,0,0,1,3.4-.84l1.68,0v-.52a2,2,0,0,0-.44-1.39,1.77,1.77,0,0,0-1.35-.46,4.59,4.59,0,0,0-1.43.22,10.94,10.94,0,0,0-1.32.51l-.67-1.47a6.92,6.92,0,0,1,1.74-.63,8.08,8.08,0,0,1,1.77-.22,4.2,4.2,0,0,1,2.8.81,3.17,3.17,0,0,1,.95,2.54v6.55Zm-3.08-1.41a2.57,2.57,0,0,0,1.81-.62,2.31,2.31,0,0,0,.68-1.77v-.84l-1.25.05a4.31,4.31,0,0,0-2.12.49,1.48,1.48,0,0,0-.66,1.33,1.29,1.29,0,0,0,.38,1A1.71,1.71,0,0,0,161.41,164.74Z"/></g></g><path class="cls-4" d="M105.32,99.72h0Z"/><path class="cls-4" d="M117.71,125.86a6.88,6.88,0,1,0,6.87-6.88A6.88,6.88,0,0,0,117.71,125.86Z"/><path class="cls-4" d="M79.21,130a6.83,6.83,0,0,0,11,0"/><path class="cls-4" d="M95.69,106.6h-11a11,11,0,0,0-11,11v8.25H107a6.88,6.88,0,0,0,5.84-3.23l2.83-4.54a6.9,6.9,0,0,1,5.84-3.23,2.63,2.63,0,0,0,2.3-3.9L116,96.69a2,2,0,0,0-3.77,1v11.41a11,11,0,0,1-1.56,5.65A8.8,8.8,0,0,1,103.1,119H95.69v-8.25"/><rect class="cls-4" x="68.18" y="73.59" width="27.51" height="27.51" transform="translate(163.87 174.68) rotate(180)"/><path class="cls-4" d="M126,92.84a5.51,5.51,0,0,0,0,11Z"/><line class="cls-4" x1="101.2" y1="106.6" x2="95.69" y2="106.6"/><line class="cls-4" x1="91.56" y1="112.1" x2="84.68" y2="112.1"/><line class="cls-4" x1="91.56" y1="117.61" x2="84.68" y2="117.61"/></svg>