<svg xmlns="http://www.w3.org/2000/svg" viewBox="0 0 250 260"><defs><style>.cls-1{fill:#f0f1f1;}.cls-2{isolation:isolate;}.cls-3{fill:#3c3c3c;}.cls-4,.cls-5{fill:none;}.cls-4{stroke:#707070;}.cls-5{stroke:#1d1d1b;stroke-miterlimit:10;stroke-width:2px;}</style></defs><title>kurier_desktop</title><g id="Warstwa_2" data-name="Warstwa 2"><rect class="cls-1" x="92.96" y="41.87" width="27.93" height="27.49"/></g><g id="Warstwa_1" data-name="Warstwa 1"><g id="Wybierz_rzeczy" data-name="Wybierz rzeczy" class="cls-2"><g class="cls-2"><path class="cls-3" d="M115,62.35h-2.83v4.58h-3.29V62.35h-9.6V59.74l9.6-13.88h3.29V59.54H115Zm-6.12-2.81V54.27q0-2.82.15-4.62h-.12a16.43,16.43,0,0,1-1.26,2.3l-5.22,7.59Z"/></g></g><g id="ubrania_zabawki_sprzęt_i_inne" data-name="ubrania zabawki sprzęt i inne" class="cls-2"><g class="cls-2"><path class="cls-3" d="M65.82,169.35a16,16,0,0,1,1-1.25l2.77-2.93h1.54l-3.47,3.65,3.71,4.92H69.82l-3-4.05-1,.84v3.21H64.54V161.58h1.28V168c0,.29,0,.73-.07,1.33Z"/><path class="cls-3" d="M74.15,165.17v5.56a2.21,2.21,0,0,0,.48,1.56,2,2,0,0,0,1.49.52,2.45,2.45,0,0,0,2-.74,3.73,3.73,0,0,0,.62-2.4v-4.5H80v8.57H78.93l-.18-1.15h-.07a2.69,2.69,0,0,1-1.11,1,3.77,3.77,0,0,1-1.61.33,3.3,3.3,0,0,1-2.34-.74,3.17,3.17,0,0,1-.78-2.38v-5.6Z"/><path class="cls-3" d="M86.66,165a5.23,5.23,0,0,1,1,.09l-.18,1.2a4.85,4.85,0,0,0-.93-.11,2.28,2.28,0,0,0-1.78.84,3.08,3.08,0,0,0-.74,2.1v4.6h-1.3v-8.57h1.07l.15,1.59H84a3.71,3.71,0,0,1,1.14-1.29A2.61,2.61,0,0,1,86.66,165Z"/><path class="cls-3" d="M89.18,162.85a.85.85,0,0,1,.22-.65.73.73,0,0,1,.54-.21.76.76,0,0,1,.54.21,1,1,0,0,1,0,1.3.73.73,0,0,1-.54.22.7.7,0,0,1-.54-.22A.85.85,0,0,1,89.18,162.85Zm1.4,10.89H89.29v-8.57h1.29Z"/><path class="cls-3" d="M97,173.89a4,4,0,0,1-3-1.15,4.52,4.52,0,0,1-1.09-3.22,4.93,4.93,0,0,1,1-3.28A3.36,3.36,0,0,1,96.61,165a3.21,3.21,0,0,1,2.55,1.06,4,4,0,0,1,.94,2.79v.82H94.2A3.43,3.43,0,0,0,95,172a2.64,2.64,0,0,0,2,.78,6.8,6.8,0,0,0,2.73-.58v1.16a6.3,6.3,0,0,1-1.3.42A7,7,0,0,1,97,173.89Zm-.35-7.79a2.15,2.15,0,0,0-1.65.67,3.08,3.08,0,0,0-.72,1.86h4.48a2.85,2.85,0,0,0-.55-1.88A1.92,1.92,0,0,0,96.6,166.1Z"/><path class="cls-3" d="M106.22,165a5.23,5.23,0,0,1,1,.09l-.18,1.2a5,5,0,0,0-.94-.11,2.31,2.31,0,0,0-1.78.84,3.07,3.07,0,0,0-.73,2.1v4.6h-1.3v-8.57h1.07l.15,1.59h.06a3.73,3.73,0,0,1,1.15-1.29A2.61,2.61,0,0,1,106.22,165Z"/><path class="cls-3" d="M117,173.89a3.64,3.64,0,0,1-1.53-.31,2.86,2.86,0,0,1-1.16-1h-.09a12.06,12.06,0,0,1,.09,1.43v3.52H113V165.17h1l.18,1.17h.06a3.09,3.09,0,0,1,1.17-1A3.5,3.5,0,0,1,117,165a3.15,3.15,0,0,1,2.63,1.16,5.11,5.11,0,0,1,.93,3.27,5.06,5.06,0,0,1-1,3.27A3.14,3.14,0,0,1,117,173.89Zm-.19-7.77a2.3,2.3,0,0,0-1.89.72,3.7,3.7,0,0,0-.61,2.32v.29a4.22,4.22,0,0,0,.61,2.58,2.27,2.27,0,0,0,1.92.78,2,2,0,0,0,1.74-.9,4.27,4.27,0,0,0,.63-2.48,4.1,4.1,0,0,0-.63-2.46A2.07,2.07,0,0,0,116.79,166.12Z"/><path class="cls-3" d="M126.71,165a5.23,5.23,0,0,1,1,.09l-.18,1.2a4.94,4.94,0,0,0-.94-.11,2.27,2.27,0,0,0-1.77.84,3,3,0,0,0-.74,2.1v4.6h-1.3v-8.57h1.07l.15,1.59h.06a3.73,3.73,0,0,1,1.15-1.29A2.61,2.61,0,0,1,126.71,165Z"/><path class="cls-3" d="M134.81,173.74H128.6v-.89l4.67-6.67h-4.38v-1h5.8v1l-4.61,6.55h4.73Z"/><path class="cls-3" d="M135.46,165.17h1.39l1.87,4.89a18.7,18.7,0,0,1,.77,2.41h.06c.07-.27.21-.72.43-1.36s.92-2.62,2.12-5.94h1.39l-3.68,9.75a4.82,4.82,0,0,1-1.28,2.05,2.68,2.68,0,0,1-1.79.61,5.06,5.06,0,0,1-1.17-.13v-1a4.61,4.61,0,0,0,1,.09,2,2,0,0,0,1.9-1.5l.48-1.22Z"/><path class="cls-3" d="M143.84,177.58a3.13,3.13,0,0,1-1.2-.2v-1a4,4,0,0,0,1.06.16,1.11,1.11,0,0,0,.89-.34,1.52,1.52,0,0,0,.29-1v-10h1.3v9.88C146.18,176.74,145.4,177.58,143.84,177.58Zm.93-14.73a.85.85,0,0,1,.22-.65.8.8,0,0,1,1.08,0,1,1,0,0,1,0,1.3.77.77,0,0,1-1.08,0A.85.85,0,0,1,144.77,162.85Z"/><path class="cls-3" d="M152.54,173.89a3.93,3.93,0,0,1-3-1.15,4.52,4.52,0,0,1-1.1-3.22,4.93,4.93,0,0,1,1-3.28,3.36,3.36,0,0,1,2.74-1.22,3.2,3.2,0,0,1,2.54,1.06,4,4,0,0,1,.94,2.79v.82h-5.9a3.39,3.39,0,0,0,.77,2.29,2.63,2.63,0,0,0,2,.78,6.8,6.8,0,0,0,2.73-.58v1.16a6.11,6.11,0,0,1-1.3.42A7,7,0,0,1,152.54,173.89Zm-.35-7.79a2.13,2.13,0,0,0-1.64.67,3.15,3.15,0,0,0-.73,1.86h4.48a2.85,2.85,0,0,0-.55-1.88A1.92,1.92,0,0,0,152.19,166.1Z"/><path class="cls-3" d="M163.73,172.59h-.07a3,3,0,0,1-2.69,1.3,3.16,3.16,0,0,1-2.61-1.15,5,5,0,0,1-.93-3.26,5.17,5.17,0,0,1,.93-3.29A3.17,3.17,0,0,1,161,165a3.14,3.14,0,0,1,2.68,1.26h.1l-.06-.62,0-.6v-3.48H165v12.16H163.9Zm-2.59.22a2.37,2.37,0,0,0,1.92-.73,3.64,3.64,0,0,0,.6-2.33v-.27a4.33,4.33,0,0,0-.6-2.6,2.31,2.31,0,0,0-1.94-.78,2,2,0,0,0-1.74.89,4.34,4.34,0,0,0-.61,2.5,4.24,4.24,0,0,0,.6,2.48A2,2,0,0,0,161.14,172.81Z"/><path class="cls-3" d="M173.18,173.74H167v-.89l4.68-6.67h-4.39v-1h5.81v1l-4.61,6.55h4.72Z"/><path class="cls-3" d="M175.08,162.85a.89.89,0,0,1,.22-.65.81.81,0,0,1,1.09,0,1.07,1.07,0,0,1,0,1.3.79.79,0,0,1-1.09,0A.89.89,0,0,1,175.08,162.85Zm1.41,10.89h-1.3v-8.57h1.3Z"/><path class="cls-3" d="M182.86,173.89a3.93,3.93,0,0,1-3-1.15,4.52,4.52,0,0,1-1.1-3.22,4.93,4.93,0,0,1,1-3.28,3.36,3.36,0,0,1,2.74-1.22,3.23,3.23,0,0,1,2.55,1.06,4.05,4.05,0,0,1,.93,2.79v.82h-5.89a3.38,3.38,0,0,0,.76,2.29,2.63,2.63,0,0,0,2,.78,6.85,6.85,0,0,0,2.74-.58v1.16a6.3,6.3,0,0,1-1.3.42A7.08,7.08,0,0,1,182.86,173.89Zm-.36-7.79a2.15,2.15,0,0,0-1.64.67,3.08,3.08,0,0,0-.72,1.86h4.47a2.9,2.9,0,0,0-.54-1.88A2,2,0,0,0,182.5,166.1Z"/><path class="cls-3" d="M84.83,192.94l-1.57-5c-.1-.31-.28-1-.55-2.09h-.06c-.21.91-.4,1.61-.55,2.11l-1.62,5H79l-2.33-8.57H78q.84,3.23,1.27,4.92a18.7,18.7,0,0,1,.49,2.27h.06c.06-.3.15-.68.28-1.15s.24-.85.33-1.12L82,184.37h1.41l1.53,4.92a18,18,0,0,1,.6,2.25h.06a6.55,6.55,0,0,1,.17-.86q.14-.59,1.63-6.31h1.34l-2.37,8.57Z"/><path class="cls-3" d="M100.27,191.79h-.07a3.05,3.05,0,0,1-2.69,1.3,3.16,3.16,0,0,1-2.61-1.15,5,5,0,0,1-.93-3.26,5.17,5.17,0,0,1,.93-3.29,3.17,3.17,0,0,1,2.61-1.17,3.12,3.12,0,0,1,2.67,1.26h.11l-.06-.61,0-.61v-3.48h1.3v12.16h-1.06Zm-2.59.22a2.37,2.37,0,0,0,1.92-.73,3.64,3.64,0,0,0,.6-2.33v-.27a4.25,4.25,0,0,0-.61-2.6,2.28,2.28,0,0,0-1.93-.78,2,2,0,0,0-1.75.89,4.44,4.44,0,0,0-.6,2.5,4.24,4.24,0,0,0,.6,2.48A2,2,0,0,0,97.68,192Z"/><path class="cls-3" d="M111.64,188.65a4.71,4.71,0,0,1-1.06,3.27,3.71,3.71,0,0,1-2.91,1.17,3.84,3.84,0,0,1-2-.54,3.63,3.63,0,0,1-1.38-1.54,5.46,5.46,0,0,1-.48-2.36,4.72,4.72,0,0,1,1-3.27,3.7,3.7,0,0,1,2.9-1.16,3.65,3.65,0,0,1,2.86,1.19A4.75,4.75,0,0,1,111.64,188.65Zm-6.53,0a4.07,4.07,0,0,0,.66,2.5,2.6,2.6,0,0,0,3.86,0,4,4,0,0,0,.66-2.5,4,4,0,0,0-.66-2.48,2.65,2.65,0,0,0-3.87,0A4.06,4.06,0,0,0,105.11,188.65Z"/><path class="cls-3" d="M120.92,184.37v.82l-1.59.19a2.42,2.42,0,0,1,.39.72,2.57,2.57,0,0,1,.18,1,2.54,2.54,0,0,1-.86,2,3.48,3.48,0,0,1-2.36.75,4,4,0,0,1-.72-.06,1.28,1.28,0,0,0-.83,1.1.57.57,0,0,0,.29.52,2.11,2.11,0,0,0,1,.17h1.52a3.38,3.38,0,0,1,2.13.58,2,2,0,0,1,.75,1.71,2.42,2.42,0,0,1-1.14,2.16,6.08,6.08,0,0,1-3.33.75,4.53,4.53,0,0,1-2.59-.63,2.12,2.12,0,0,1-.41-3.11,2.56,2.56,0,0,1,1.41-.78,1.29,1.29,0,0,1-.55-.46,1.21,1.21,0,0,1-.23-.72,1.4,1.4,0,0,1,.25-.82,2.48,2.48,0,0,1,.79-.68,2.42,2.42,0,0,1-1.08-.93,3.07,3.07,0,0,1,.43-3.67,3.43,3.43,0,0,1,2.39-.76,4.56,4.56,0,0,1,1.21.15Zm-6.83,10a1.17,1.17,0,0,0,.59,1.06,3.23,3.23,0,0,0,1.68.36,4.72,4.72,0,0,0,2.41-.49,1.5,1.5,0,0,0,.79-1.33,1,1,0,0,0-.43-1,3.36,3.36,0,0,0-1.62-.27H116a2.07,2.07,0,0,0-1.38.42A1.5,1.5,0,0,0,114.09,194.37Zm.7-7.25a1.72,1.72,0,0,0,.51,1.35,2,2,0,0,0,1.42.47,1.65,1.65,0,0,0,1.89-1.85,1.7,1.7,0,0,0-1.92-1.93,1.91,1.91,0,0,0-1.4.49A2,2,0,0,0,114.79,187.12Z"/><path class="cls-3" d="M130.07,188.65a4.71,4.71,0,0,1-1.06,3.27,3.71,3.71,0,0,1-2.91,1.17,3.84,3.84,0,0,1-2-.54,3.63,3.63,0,0,1-1.38-1.54,5.46,5.46,0,0,1-.48-2.36,4.72,4.72,0,0,1,1-3.27,3.7,3.7,0,0,1,2.9-1.16,3.65,3.65,0,0,1,2.86,1.19A4.75,4.75,0,0,1,130.07,188.65Zm-6.53,0a4.07,4.07,0,0,0,.66,2.5,2.6,2.6,0,0,0,3.86,0,4,4,0,0,0,.66-2.5,4,4,0,0,0-.66-2.48,2.65,2.65,0,0,0-3.87,0A4.06,4.06,0,0,0,123.54,188.65Z"/><path class="cls-3" d="M138.17,191.79h-.07a3.05,3.05,0,0,1-2.69,1.3,3.16,3.16,0,0,1-2.61-1.15,5,5,0,0,1-.94-3.26,5.17,5.17,0,0,1,.94-3.29,3.17,3.17,0,0,1,2.61-1.17,3.12,3.12,0,0,1,2.67,1.26h.1l-.05-.61,0-.61v-3.48h1.3v12.16h-1.06Zm-2.6.22a2.37,2.37,0,0,0,1.93-.73,3.64,3.64,0,0,0,.6-2.33v-.27a4.25,4.25,0,0,0-.61-2.6,2.29,2.29,0,0,0-1.93-.78,2,2,0,0,0-1.75.89,4.44,4.44,0,0,0-.6,2.5,4.24,4.24,0,0,0,.6,2.48A2,2,0,0,0,135.57,192Z"/><path class="cls-3" d="M148,192.94V187.4a2.25,2.25,0,0,0-.47-1.57,2,2,0,0,0-1.49-.51,2.46,2.46,0,0,0-2,.72,3.67,3.67,0,0,0-.63,2.4v4.5h-1.29v-8.57h1l.21,1.17h.06a2.75,2.75,0,0,1,1.12-1,3.64,3.64,0,0,1,1.6-.34,3.29,3.29,0,0,1,2.33.74,3.2,3.2,0,0,1,.78,2.39v5.59Z"/><path class="cls-3" d="M150.61,184.37H152l1.87,4.89a18.7,18.7,0,0,1,.77,2.41h.06c.07-.27.21-.72.43-1.36s.92-2.62,2.12-5.94h1.39L155,194.12a4.82,4.82,0,0,1-1.28,2,2.68,2.68,0,0,1-1.79.61,5.06,5.06,0,0,1-1.17-.13v-1a4.61,4.61,0,0,0,1,.09,2,2,0,0,0,1.9-1.5l.48-1.22Z"/><path class="cls-3" d="M170.94,192.94v-5.57a2.27,2.27,0,0,0-.44-1.54,1.68,1.68,0,0,0-1.35-.51,2.19,2.19,0,0,0-1.79.69,3.29,3.29,0,0,0-.58,2.14v4.79h-1.3v-5.57a2.32,2.32,0,0,0-.44-1.54,1.69,1.69,0,0,0-1.36-.51,2.11,2.11,0,0,0-1.79.73,3.92,3.92,0,0,0-.57,2.39v4.5H160v-8.57h1.05l.21,1.17h.07a2.54,2.54,0,0,1,1-1,3.1,3.1,0,0,1,1.5-.35,2.53,2.53,0,0,1,2.62,1.45h.06a2.77,2.77,0,0,1,1.11-1.06,3.48,3.48,0,0,1,1.66-.39,3,3,0,0,1,2.18.74,3.37,3.37,0,0,1,.72,2.39v5.59Z"/><path class="cls-3" d="M97.68,211.22a4.65,4.65,0,0,0,.66-.05c.21,0,.38-.07.51-.1v1a3.07,3.07,0,0,1-.62.17,5.23,5.23,0,0,1-.74.06c-1.66,0-2.49-.87-2.49-2.62v-5.09H93.78V204l1.22-.54.55-1.83h.75v2h2.49v1H96.3v5a1.71,1.71,0,0,0,.37,1.19A1.29,1.29,0,0,0,97.68,211.22Z"/><path class="cls-3" d="M104.18,212.29a3.93,3.93,0,0,1-3-1.15,4.51,4.51,0,0,1-1.1-3.22,4.93,4.93,0,0,1,1-3.28,3.36,3.36,0,0,1,2.74-1.22,3.23,3.23,0,0,1,2.55,1.06,4.05,4.05,0,0,1,.93,2.79v.82h-5.89a3.38,3.38,0,0,0,.76,2.29,2.63,2.63,0,0,0,2,.78,6.81,6.81,0,0,0,2.74-.58v1.16a6.3,6.3,0,0,1-1.3.42A7.08,7.08,0,0,1,104.18,212.29Zm-.36-7.79a2.15,2.15,0,0,0-1.64.67,3.08,3.08,0,0,0-.72,1.86h4.47a2.86,2.86,0,0,0-.54-1.87A1.93,1.93,0,0,0,103.82,204.5Z"/><path class="cls-3" d="M113.44,203.42a5.41,5.41,0,0,1,1,.09l-.18,1.2a5,5,0,0,0-.94-.11,2.29,2.29,0,0,0-1.78.84,3.08,3.08,0,0,0-.74,2.1v4.6h-1.29v-8.57h1.07l.14,1.59h.07a3.63,3.63,0,0,1,1.15-1.29A2.57,2.57,0,0,1,113.44,203.42Z"/><path class="cls-3" d="M127,212.14v-5.57a2.32,2.32,0,0,0-.44-1.54,1.69,1.69,0,0,0-1.36-.51,2.19,2.19,0,0,0-1.78.69,3.29,3.29,0,0,0-.58,2.14v4.79h-1.3v-5.57a2.32,2.32,0,0,0-.44-1.54,1.7,1.7,0,0,0-1.36-.51,2.11,2.11,0,0,0-1.79.73,3.92,3.92,0,0,0-.57,2.39v4.5h-1.29v-8.57h1.05l.21,1.17h.07a2.54,2.54,0,0,1,1-1,3.1,3.1,0,0,1,1.5-.35,2.54,2.54,0,0,1,2.62,1.45h.06a2.77,2.77,0,0,1,1.11-1.06,3.48,3.48,0,0,1,1.66-.39,3,3,0,0,1,2.18.74,3.37,3.37,0,0,1,.72,2.39v5.59Z"/><path class="cls-3" d="M130.84,201.25a.85.85,0,0,1,.22-.65.75.75,0,0,1,.55-.21.8.8,0,0,1,.54.21.85.85,0,0,1,.22.65.89.89,0,0,1-.22.66.8.8,0,0,1-.54.21.75.75,0,0,1-.55-.21A.89.89,0,0,1,130.84,201.25Zm1.41,10.89H131v-8.57h1.3Z"/><path class="cls-3" d="M140.86,212.14V206.6a2.25,2.25,0,0,0-.48-1.57,2,2,0,0,0-1.49-.51,2.46,2.46,0,0,0-2,.72,3.67,3.67,0,0,0-.63,2.4v4.5H135v-8.57h1.05l.21,1.17h.06a2.75,2.75,0,0,1,1.12-1,3.64,3.64,0,0,1,1.6-.34,3.29,3.29,0,0,1,2.33.74,3.2,3.2,0,0,1,.78,2.39v5.59Z"/><path class="cls-3" d="M144.71,201.25a.85.85,0,0,1,.22-.65.73.73,0,0,1,.54-.21.76.76,0,0,1,.54.21.86.86,0,0,1,.23.65.9.9,0,0,1-.23.66.76.76,0,0,1-.54.21.73.73,0,0,1-.54-.21A.89.89,0,0,1,144.71,201.25Zm1.4,10.89h-1.29v-8.57h1.29Z"/><path class="cls-3" d="M152.48,212.29a3.93,3.93,0,0,1-3-1.15,4.46,4.46,0,0,1-1.1-3.22,4.93,4.93,0,0,1,1-3.28,3.36,3.36,0,0,1,2.74-1.22,3.2,3.2,0,0,1,2.54,1.06,4,4,0,0,1,.94,2.79v.82h-5.9a3.43,3.43,0,0,0,.76,2.29,2.64,2.64,0,0,0,2,.78,6.8,6.8,0,0,0,2.73-.58v1.16a6.3,6.3,0,0,1-1.3.42A7,7,0,0,1,152.48,212.29Zm-.35-7.79a2.12,2.12,0,0,0-1.64.67,3.09,3.09,0,0,0-.73,1.86h4.48a2.8,2.8,0,0,0-.55-1.87A1.9,1.9,0,0,0,152.13,204.5Z"/></g></g><line id="Line" class="cls-4" x1="91.5" y1="148.24" x2="161.5" y2="148.24"/><g id="Wybierz_rzeczy-2" data-name="Wybierz rzeczy" class="cls-2"><g class="cls-2"><path class="cls-3" d="M70.7,134.74H61.5v-1.46L68,123.69h-6.3v-1.8h8.84v1.47L64,132.93H70.7Z"/><path class="cls-3" d="M78.84,134.74l-.42-1.36h-.07a4,4,0,0,1-1.41,1.21,4.58,4.58,0,0,1-1.83.32,3.12,3.12,0,0,1-2.24-.77,2.93,2.93,0,0,1-.8-2.19,2.58,2.58,0,0,1,1.11-2.27,6.41,6.41,0,0,1,3.41-.83l1.67-.06v-.51a2,2,0,0,0-.43-1.4,1.8,1.8,0,0,0-1.35-.46,4.51,4.51,0,0,0-1.43.22,11,11,0,0,0-1.32.52l-.67-1.48a7.9,7.9,0,0,1,1.73-.63,8.2,8.2,0,0,1,1.78-.21,4.21,4.21,0,0,1,2.8.81,3.16,3.16,0,0,1,.94,2.54v6.55Zm-3.08-1.41a2.57,2.57,0,0,0,1.81-.63,2.3,2.3,0,0,0,.68-1.76v-.85l-1.25.06a4.1,4.1,0,0,0-2.12.49,1.45,1.45,0,0,0-.67,1.33,1.27,1.27,0,0,0,.39,1A1.65,1.65,0,0,0,75.76,133.33Z"/><path class="cls-3" d="M91.39,134.74H89.31v-6a2.7,2.7,0,0,0-.42-1.66,1.55,1.55,0,0,0-1.32-.55,2,2,0,0,0-1.75.77,4.6,4.6,0,0,0-.56,2.59v4.85H83.2V125h1.61l.29,1.28h.11a2.7,2.7,0,0,1,1.17-1.07,3.68,3.68,0,0,1,1.69-.38,2.94,2.94,0,0,1,3,1.53h.14a3,3,0,0,1,1.22-1.13,3.84,3.84,0,0,1,1.79-.4,3.26,3.26,0,0,1,2.54.88,3.88,3.88,0,0,1,.79,2.68v6.34H95.46v-6a2.7,2.7,0,0,0-.43-1.66,1.57,1.57,0,0,0-1.32-.55,2.07,2.07,0,0,0-1.77.75,3.88,3.88,0,0,0-.55,2.3Z"/><path class="cls-3" d="M109,129.86a5.3,5.3,0,0,1-1.23,3.72,4.36,4.36,0,0,1-3.4,1.33,4.67,4.67,0,0,1-2.41-.61,4.05,4.05,0,0,1-1.6-1.77,6,6,0,0,1-.57-2.67,5.25,5.25,0,0,1,1.22-3.69,4.39,4.39,0,0,1,3.42-1.33,4.28,4.28,0,0,1,3.34,1.36A5.23,5.23,0,0,1,109,129.86Zm-7.08,0q0,3.36,2.49,3.36t2.46-3.36c0-2.22-.83-3.33-2.48-3.33a2.11,2.11,0,0,0-1.89.86A4.46,4.46,0,0,0,102,129.86Zm1.13-6v-.22c.34-.41.68-.87,1-1.37s.63-.94.84-1.29h2.4v.18a17.2,17.2,0,0,1-1.37,1.38q-.92.85-1.53,1.32Z"/><path class="cls-3" d="M119.37,134.74l-1.26-4.54c-.15-.48-.42-1.6-.82-3.35h-.08c-.34,1.58-.61,2.71-.81,3.37l-1.29,4.52h-2.29L110.1,125h2.11l1.24,4.79c.28,1.19.48,2.2.59,3h.06c.06-.43.14-.92.26-1.48s.23-1,.32-1.24l1.47-5.12h2.27l1.43,5.12q.14.44.33,1.32a10,10,0,0,1,.24,1.38h.07a25.79,25.79,0,0,1,.61-3l1.26-4.79h2.07l-2.74,9.73Z"/><path class="cls-3" d="M132.77,129.6l1.17-1.46,2.94-3.13h2.38l-3.91,4.18,4.16,5.55h-2.43L134,130.47l-1.13.93v3.34h-2.05V121.06h2.05v6.67l-.11,1.87Z"/><path class="cls-3" d="M147.93,134.74l-.29-1.28h-.11a2.91,2.91,0,0,1-1.23,1.06,4,4,0,0,1-1.81.39,3.55,3.55,0,0,1-2.64-.88,3.63,3.63,0,0,1-.87-2.66V125h2.09v6a2.62,2.62,0,0,0,.45,1.67,1.75,1.75,0,0,0,1.44.56,2.29,2.29,0,0,0,1.91-.78,4.32,4.32,0,0,0,.61-2.6V125h2.07v9.73Z"/><path class="cls-3" d="M157.43,124.84a4.92,4.92,0,0,1,1,.09l-.21,1.92a3.85,3.85,0,0,0-.91-.1,2.67,2.67,0,0,0-2,.8,3,3,0,0,0-.77,2.11v5.08H152.5V125h1.61l.28,1.72h.1a3.82,3.82,0,0,1,1.26-1.38A3,3,0,0,1,157.43,124.84Z"/><path class="cls-3" d="M160.13,122.44a1.15,1.15,0,0,1,.31-.85,1.17,1.17,0,0,1,.86-.3,1,1,0,0,1,1.15,1.15,1.13,1.13,0,0,1-.3.83,1.14,1.14,0,0,1-.85.3,1.17,1.17,0,0,1-.86-.3A1.13,1.13,0,0,1,160.13,122.44Zm2.19,12.3h-2.06V125h2.06Z"/><path class="cls-3" d="M169.52,134.91a4.73,4.73,0,0,1-3.55-1.32A5,5,0,0,1,164.7,130a5.53,5.53,0,0,1,1.18-3.75,4.09,4.09,0,0,1,3.26-1.36,4,4,0,0,1,3,1.17,4.44,4.44,0,0,1,1.12,3.21v1.12h-6.48a3.23,3.23,0,0,0,.77,2.18,2.68,2.68,0,0,0,2,.76,7.52,7.52,0,0,0,3.2-.71v1.68a6.55,6.55,0,0,1-1.53.51A9.43,9.43,0,0,1,169.52,134.91Zm-.38-8.51a2,2,0,0,0-1.57.63,2.89,2.89,0,0,0-.71,1.82h4.41a2.67,2.67,0,0,0-.58-1.83A2,2,0,0,0,169.14,126.4Z"/><path class="cls-3" d="M180.58,124.84a4.92,4.92,0,0,1,1,.09l-.21,1.92a3.85,3.85,0,0,0-.91-.1,2.67,2.67,0,0,0-2,.8,3,3,0,0,0-.77,2.11v5.08h-2.06V125h1.61l.28,1.72h.1a3.91,3.91,0,0,1,1.26-1.38A3,3,0,0,1,180.58,124.84Z"/><path class="cls-3" d="M189.49,134.74l-.41-1.36H189a3.94,3.94,0,0,1-1.42,1.21,4.52,4.52,0,0,1-1.83.32,3.1,3.1,0,0,1-2.23-.77,2.9,2.9,0,0,1-.81-2.19,2.57,2.57,0,0,1,1.12-2.27,6.37,6.37,0,0,1,3.4-.83l1.68-.06v-.51a2,2,0,0,0-.44-1.4,1.8,1.8,0,0,0-1.35-.46,4.59,4.59,0,0,0-1.43.22,11.68,11.68,0,0,0-1.32.52l-.66-1.48a7.54,7.54,0,0,1,1.73-.63,8.11,8.11,0,0,1,1.77-.21,4.2,4.2,0,0,1,2.8.81,3.16,3.16,0,0,1,.95,2.54v6.55Zm-3.08-1.41a2.56,2.56,0,0,0,1.81-.63,2.3,2.3,0,0,0,.68-1.76v-.85l-1.25.06a4.1,4.1,0,0,0-2.12.49,1.47,1.47,0,0,0-.66,1.33,1.3,1.3,0,0,0,.38,1A1.66,1.66,0,0,0,186.41,133.33Z"/></g></g><path class="cls-5" d="M130.32,68.31h0Z"/><path class="cls-5" d="M142.71,94.45a6.88,6.88,0,1,0,6.87-6.88A6.88,6.88,0,0,0,142.71,94.45Z"/><path class="cls-5" d="M104.21,98.57a6.81,6.81,0,0,0,11,0"/><path class="cls-5" d="M120.69,75.19h-11a11,11,0,0,0-11,11v8.26H132a6.87,6.87,0,0,0,5.84-3.24l2.83-4.54a6.9,6.9,0,0,1,5.84-3.23,2.63,2.63,0,0,0,2.3-3.89L141,65.27a2,2,0,0,0-3.77,1v11.4a11,11,0,0,1-1.56,5.66,8.8,8.8,0,0,1-7.54,4.27h-7.41V79.31"/><rect class="cls-5" x="93.18" y="42.17" width="27.51" height="27.51" transform="translate(213.87 111.85) rotate(180)"/><path class="cls-5" d="M151,61.43a5.5,5.5,0,1,0,0,11Z"/><line class="cls-5" x1="126.2" y1="75.19" x2="120.69" y2="75.19"/><line class="cls-5" x1="116.56" y1="80.69" x2="109.68" y2="80.69"/><line class="cls-5" x1="116.56" y1="86.19" x2="109.68" y2="86.19"/></g></svg>