<svg xmlns="http://www.w3.org/2000/svg" viewBox="0 0 250 260"><defs><style>.cls-1{fill:#f0f1f1;}.cls-2{isolation:isolate;}.cls-3{fill:#3c3c3c;}.cls-4{fill:none;stroke:#707070;}</style></defs><title>spakuj_desktop</title><g id="Warstwa_2" data-name="Warstwa 2"><rect class="cls-1" x="97.33" y="65.04" width="58.31" height="59.19" rx="5.58"/></g><g id="Warstwa_1" data-name="Warstwa 1"><g id="Wybierz_rzeczy" data-name="Wybierz rzeczy" class="cls-2"><g class="cls-2"><path class="cls-3" d="M133.77,106.77H119.52v-2.56l5.42-5.45q2.4-2.46,3.19-3.48a8.4,8.4,0,0,0,1.14-1.94,5.19,5.19,0,0,0,.36-1.94,3,3,0,0,0-.86-2.24,3.26,3.26,0,0,0-2.36-.82,6.24,6.24,0,0,0-2.34.45,10.69,10.69,0,0,0-2.61,1.61l-1.82-2.23a11.69,11.69,0,0,1,3.4-2.1,10.08,10.08,0,0,1,3.53-.62,6.94,6.94,0,0,1,4.7,1.53A5.2,5.2,0,0,1,133,91.1a7.2,7.2,0,0,1-.51,2.7A11,11,0,0,1,131,96.44a35.75,35.75,0,0,1-3.52,3.67l-3.65,3.54v.14h10Z"/></g></g><g id="ubrania_zabawki_sprzęt_i_inne" data-name="ubrania zabawki sprzęt i inne" class="cls-2"><g class="cls-2"><path class="cls-3" d="M89.08,190.6a2.14,2.14,0,0,1-.89,1.84,4.15,4.15,0,0,1-2.5.65,5.44,5.44,0,0,1-2.66-.54v-1.2a6.18,6.18,0,0,0,1.33.49,5.47,5.47,0,0,0,1.36.18,3.13,3.13,0,0,0,1.56-.32,1.07,1.07,0,0,0,.55-1,1.09,1.09,0,0,0-.44-.86A7.12,7.12,0,0,0,85.7,189a9.25,9.25,0,0,1-1.7-.77,2.57,2.57,0,0,1-.75-.76,2,2,0,0,1-.24-1,1.93,1.93,0,0,1,.85-1.65,4,4,0,0,1,2.34-.6,6.74,6.74,0,0,1,2.7.56l-.46,1.05a6.3,6.3,0,0,0-2.34-.53,2.72,2.72,0,0,0-1.39.29.9.9,0,0,0-.47.8.93.93,0,0,0,.18.58,1.7,1.7,0,0,0,.56.47,14.73,14.73,0,0,0,1.5.63,5.45,5.45,0,0,1,2.06,1.12A1.94,1.94,0,0,1,89.08,190.6Z"/><path class="cls-3" d="M92.47,188.55a16,16,0,0,1,1-1.25l2.77-2.93H97.8L94.33,188,98,192.94H96.47l-3-4.05-1,.84v3.21H91.19V180.78h1.28v6.44c0,.29,0,.73-.06,1.33Z"/><path class="cls-3" d="M107,188.65a4.71,4.71,0,0,1-1.06,3.27,3.71,3.71,0,0,1-2.91,1.17,3.84,3.84,0,0,1-2-.54A3.63,3.63,0,0,1,99.59,191a5.46,5.46,0,0,1-.48-2.36,4.72,4.72,0,0,1,1-3.27,3.7,3.7,0,0,1,2.9-1.16,3.65,3.65,0,0,1,2.86,1.19A4.75,4.75,0,0,1,107,188.65Zm-6.53,0a4.07,4.07,0,0,0,.66,2.5,2.6,2.6,0,0,0,3.86,0,4,4,0,0,0,.66-2.5,4,4,0,0,0-.66-2.48,2.65,2.65,0,0,0-3.87,0A4.06,4.06,0,0,0,100.45,188.65Z"/><path class="cls-3" d="M113.16,184.22a5.23,5.23,0,0,1,1,.09l-.18,1.2a4.94,4.94,0,0,0-.94-.11,2.27,2.27,0,0,0-1.77.84,3,3,0,0,0-.74,2.1v4.6h-1.3v-8.57h1.07l.15,1.59h.06a3.73,3.73,0,0,1,1.15-1.29A2.61,2.61,0,0,1,113.16,184.22Z"/><path class="cls-3" d="M121.26,192.94h-6.21v-.89l4.67-6.67h-4.38v-1h5.8v1l-4.61,6.55h4.73Z"/><path class="cls-3" d="M121.91,184.37h1.39l1.87,4.89a18.7,18.7,0,0,1,.77,2.41H126c.07-.27.21-.72.43-1.36s.92-2.62,2.12-5.94h1.39l-3.68,9.75a4.82,4.82,0,0,1-1.28,2,2.68,2.68,0,0,1-1.79.61,5.06,5.06,0,0,1-1.17-.13v-1a4.61,4.61,0,0,0,1,.09,2,2,0,0,0,1.9-1.5l.48-1.22Z"/><path class="cls-3" d="M136.85,190.6a2.12,2.12,0,0,1-.89,1.84,4.13,4.13,0,0,1-2.5.65,5.4,5.4,0,0,1-2.65-.54v-1.2a6.3,6.3,0,0,0,1.32.49,5.53,5.53,0,0,0,1.36.18,3.2,3.2,0,0,0,1.57-.32,1.13,1.13,0,0,0,.11-1.85,7.56,7.56,0,0,0-1.69-.84,8.65,8.65,0,0,1-1.7-.77,2.35,2.35,0,0,1-.75-.76,1.89,1.89,0,0,1-.25-1,1.93,1.93,0,0,1,.85-1.65,4,4,0,0,1,2.34-.6,6.74,6.74,0,0,1,2.7.56l-.46,1.05a6.29,6.29,0,0,0-2.33-.53,2.76,2.76,0,0,0-1.4.29.89.89,0,0,0-.46.8.93.93,0,0,0,.17.58,1.74,1.74,0,0,0,.57.47,14.73,14.73,0,0,0,1.5.63,5.62,5.62,0,0,1,2.06,1.12A2,2,0,0,1,136.85,190.6Z"/><path class="cls-3" d="M141.73,192a4.65,4.65,0,0,0,.66-.05c.21,0,.38-.07.51-.1v1a3.07,3.07,0,0,1-.62.17,5.23,5.23,0,0,1-.74.06c-1.66,0-2.48-.87-2.48-2.62v-5.09h-1.23v-.62l1.23-.54.54-1.83h.75v2h2.49v1h-2.49v5a1.71,1.71,0,0,0,.37,1.19A1.29,1.29,0,0,0,141.73,192Z"/><path class="cls-3" d="M149.88,192.94l-.26-1.22h-.06a3.74,3.74,0,0,1-1.28,1.09,3.94,3.94,0,0,1-1.59.28,2.9,2.9,0,0,1-2-.65,2.4,2.4,0,0,1-.72-1.87q0-2.59,4.15-2.72l1.45,0v-.53a2.17,2.17,0,0,0-.43-1.49,1.79,1.79,0,0,0-1.39-.48,5.63,5.63,0,0,0-2.42.66l-.4-1a6.32,6.32,0,0,1,2.9-.74,3.28,3.28,0,0,1,2.27.68,2.86,2.86,0,0,1,.74,2.18v5.85ZM147,192a2.65,2.65,0,0,0,1.9-.66,2.48,2.48,0,0,0,.69-1.86v-.78l-1.3.06a4.83,4.83,0,0,0-2.23.48,1.46,1.46,0,0,0-.68,1.32,1.34,1.34,0,0,0,.42,1.07A1.78,1.78,0,0,0,147,192Z"/><path class="cls-3" d="M152.47,196.78a3.06,3.06,0,0,1-1.2-.2v-1.05a4,4,0,0,0,1.06.16,1.09,1.09,0,0,0,.89-.34,1.52,1.52,0,0,0,.29-1v-10h1.3v9.88C154.81,195.94,154,196.78,152.47,196.78Zm.93-14.73a.85.85,0,0,1,.22-.65.75.75,0,0,1,.54-.21.76.76,0,0,1,.54.21,1,1,0,0,1,0,1.3.73.73,0,0,1-.54.22.72.72,0,0,1-.54-.22A.85.85,0,0,1,153.4,182.05Z"/><path class="cls-3" d="M167.19,192.94H161v-.89l4.67-6.67h-4.38v-1h5.8v1l-4.61,6.55h4.73Z"/><path class="cls-3" d="M66.68,212.14l-1.57-5c-.1-.31-.29-1-.56-2.09h-.06c-.21.91-.39,1.61-.55,2.11l-1.62,5h-1.5l-2.33-8.57h1.36l1.26,4.92a21.88,21.88,0,0,1,.5,2.27h.06c.06-.3.15-.68.28-1.15s.23-.85.33-1.12l1.57-4.92h1.4l1.54,4.92a17.76,17.76,0,0,1,.59,2.25h.06c0-.18.08-.47.17-.86s.63-2.49,1.63-6.31h1.34l-2.36,8.57Z"/><path class="cls-3" d="M79.52,207.85a4.76,4.76,0,0,1-1,3.27,3.75,3.75,0,0,1-2.92,1.17,3.89,3.89,0,0,1-2-.54,3.55,3.55,0,0,1-1.37-1.54,5.32,5.32,0,0,1-.49-2.36,4.72,4.72,0,0,1,1-3.27,3.74,3.74,0,0,1,2.91-1.16,3.63,3.63,0,0,1,2.85,1.19A4.7,4.7,0,0,1,79.52,207.85Zm-6.52,0a4.14,4.14,0,0,0,.65,2.5,2.61,2.61,0,0,0,3.87,0,4,4,0,0,0,.66-2.5,4,4,0,0,0-.66-2.48,2.66,2.66,0,0,0-3.88,0A4.06,4.06,0,0,0,73,207.85Z"/><path class="cls-3" d="M85.7,203.42a5.23,5.23,0,0,1,1,.09l-.18,1.2a4.85,4.85,0,0,0-.93-.11,2.28,2.28,0,0,0-1.78.84,3.08,3.08,0,0,0-.74,2.1v4.6h-1.3v-8.57h1.07l.15,1.59h.06a3.73,3.73,0,0,1,1.15-1.29A2.61,2.61,0,0,1,85.7,203.42Z"/><path class="cls-3" d="M89.61,207.75a16,16,0,0,1,1-1.25l2.76-2.93h1.54l-3.46,3.65,3.71,4.92H93.61l-3-4-1,.84v3.21H88.32V200h1.29v6.44c0,.29,0,.73-.07,1.33Z"/><path class="cls-3" d="M104.11,207.85a4.76,4.76,0,0,1-1,3.27,3.73,3.73,0,0,1-2.92,1.17,3.83,3.83,0,0,1-2-.54,3.51,3.51,0,0,1-1.38-1.54,5.46,5.46,0,0,1-.48-2.36,4.77,4.77,0,0,1,1-3.27,3.74,3.74,0,0,1,2.91-1.16,3.65,3.65,0,0,1,2.86,1.19A4.75,4.75,0,0,1,104.11,207.85Zm-6.52,0a4.07,4.07,0,0,0,.66,2.5,2.28,2.28,0,0,0,1.93.86,2.3,2.3,0,0,0,1.93-.86,4,4,0,0,0,.66-2.5,4,4,0,0,0-.66-2.48,2.65,2.65,0,0,0-3.87,0A4.06,4.06,0,0,0,97.59,207.85Zm1.5-5.61q.38-.48.81-1.17a10.67,10.67,0,0,0,.68-1.19h1.58V200a11.33,11.33,0,0,1-1,1.25,12.08,12.08,0,0,1-1.18,1.15h-.87Z"/><path class="cls-3" d="M113.38,212.14l-1.57-5c-.1-.31-.29-1-.56-2.09h-.06c-.21.91-.39,1.61-.55,2.11l-1.61,5h-1.5l-2.34-8.57h1.36l1.26,4.92a19.43,19.43,0,0,1,.5,2.27h.06c.06-.3.15-.68.28-1.15s.24-.85.33-1.12l1.57-4.92H112l1.53,4.92a16.2,16.2,0,0,1,.59,2.25h.06c0-.18.08-.47.17-.86s.64-2.49,1.63-6.31h1.35l-2.37,8.57Z"/><path class="cls-3" d="M128.85,212.14V206.6a2.25,2.25,0,0,0-.48-1.57,2,2,0,0,0-1.49-.51,2.47,2.47,0,0,0-2,.72,3.67,3.67,0,0,0-.62,2.4v4.5H123v-8.57H124l.21,1.17h.07a2.66,2.66,0,0,1,1.11-1,3.69,3.69,0,0,1,1.61-.34,3.26,3.26,0,0,1,2.32.74,3.2,3.2,0,0,1,.78,2.39v5.59Z"/><path class="cls-3" d="M138.07,212.14l-.25-1.22h-.07a3.63,3.63,0,0,1-1.27,1.09,3.94,3.94,0,0,1-1.59.28,2.9,2.9,0,0,1-2-.65,2.4,2.4,0,0,1-.72-1.87q0-2.6,4.15-2.72l1.45-.05v-.53a2.17,2.17,0,0,0-.43-1.49,1.8,1.8,0,0,0-1.39-.48,5.63,5.63,0,0,0-2.42.66l-.4-1a6.32,6.32,0,0,1,2.9-.74,3.28,3.28,0,0,1,2.27.68,2.86,2.86,0,0,1,.74,2.18v5.85Zm-2.93-.92a2.66,2.66,0,0,0,1.91-.66,2.47,2.47,0,0,0,.69-1.86v-.78l-1.3.06a4.83,4.83,0,0,0-2.23.48,1.46,1.46,0,0,0-.68,1.32,1.34,1.34,0,0,0,.42,1.07A1.75,1.75,0,0,0,135.14,211.22Z"/><path class="cls-3" d="M151.39,209.8a2.14,2.14,0,0,1-.89,1.84,4.15,4.15,0,0,1-2.5.65,5.44,5.44,0,0,1-2.66-.54v-1.2a6.3,6.3,0,0,0,1.32.49,5.61,5.61,0,0,0,1.37.18,3.16,3.16,0,0,0,1.56-.32,1.12,1.12,0,0,0,.11-1.85,7.33,7.33,0,0,0-1.69-.84,9.25,9.25,0,0,1-1.7-.77,2.57,2.57,0,0,1-.75-.76,2,2,0,0,1-.24-1,1.93,1.93,0,0,1,.85-1.65,4,4,0,0,1,2.33-.6,6.75,6.75,0,0,1,2.71.56l-.46,1.05a6.3,6.3,0,0,0-2.34-.53,2.72,2.72,0,0,0-1.39.29.9.9,0,0,0-.47.8.93.93,0,0,0,.18.58,1.6,1.6,0,0,0,.56.47,14.73,14.73,0,0,0,1.5.63,5.53,5.53,0,0,1,2.06,1.12A1.94,1.94,0,0,1,151.39,209.8Zm-4-7.56q.38-.48.81-1.17c.28-.45.51-.85.68-1.19h1.58V200a10.51,10.51,0,0,1-1,1.25,10.19,10.19,0,0,1-1.18,1.15h-.86Z"/><path class="cls-3" d="M164.41,212.14v-5.57A2.32,2.32,0,0,0,164,205a1.69,1.69,0,0,0-1.36-.51,2.22,2.22,0,0,0-1.79.69,3.36,3.36,0,0,0-.57,2.14v4.79H159v-5.57a2.32,2.32,0,0,0-.44-1.54,1.71,1.71,0,0,0-1.37-.51,2.1,2.1,0,0,0-1.78.73,3.92,3.92,0,0,0-.57,2.39v4.5H153.5v-8.57h1.05l.21,1.17h.06a2.57,2.57,0,0,1,1-1,3.1,3.1,0,0,1,1.5-.35,2.54,2.54,0,0,1,2.62,1.45H160a2.77,2.77,0,0,1,1.11-1.06,3.48,3.48,0,0,1,1.66-.39,2.91,2.91,0,0,1,2.17.74,3.32,3.32,0,0,1,.73,2.39v5.59Z"/><path class="cls-3" d="M168.27,201.25a.85.85,0,0,1,.22-.65.8.8,0,0,1,1.08,0,.82.82,0,0,1,.23.65.86.86,0,0,1-.23.66.8.8,0,0,1-1.08,0A.89.89,0,0,1,168.27,201.25Zm1.41,10.89h-1.3v-8.57h1.3Z"/><path class="cls-3" d="M176,212.29a3.93,3.93,0,0,1-3-1.15,4.46,4.46,0,0,1-1.1-3.22,4.93,4.93,0,0,1,1-3.28,3.36,3.36,0,0,1,2.74-1.22,3.2,3.2,0,0,1,2.54,1.06,4,4,0,0,1,.94,2.79v.82h-5.9a3.39,3.39,0,0,0,.77,2.29,2.63,2.63,0,0,0,2,.78,6.8,6.8,0,0,0,2.73-.58v1.16a6.11,6.11,0,0,1-1.3.42A7,7,0,0,1,176,212.29Zm-.35-7.79a2.13,2.13,0,0,0-1.64.67,3.15,3.15,0,0,0-.73,1.86h4.48a2.8,2.8,0,0,0-.55-1.87A1.9,1.9,0,0,0,175.69,204.5Z"/><path class="cls-3" d="M184.82,212.29a3.66,3.66,0,0,1-2.87-1.14,4.73,4.73,0,0,1-1-3.24,4.85,4.85,0,0,1,1-3.32,3.73,3.73,0,0,1,2.95-1.17,5.71,5.71,0,0,1,1.23.13,4,4,0,0,1,1,.31l-.39,1.1a6.1,6.1,0,0,0-.94-.28,3.92,3.92,0,0,0-.9-.11c-1.74,0-2.61,1.1-2.61,3.32a4,4,0,0,0,.64,2.43,2.2,2.2,0,0,0,1.88.84,5.71,5.71,0,0,0,2.2-.46v1.15A4.79,4.79,0,0,1,184.82,212.29Z"/><path class="cls-3" d="M188.91,201.25a.85.85,0,0,1,.22-.65.75.75,0,0,1,.55-.21.8.8,0,0,1,.54.21.85.85,0,0,1,.22.65.89.89,0,0,1-.22.66.8.8,0,0,1-.54.21.75.75,0,0,1-.55-.21A.89.89,0,0,1,188.91,201.25Zm1.41,10.89H189v-8.57h1.3Z"/></g></g><line id="Line" class="cls-4" x1="91.5" y1="167.44" x2="161.5" y2="167.44"/><g id="Wybierz_rzeczy-2" data-name="Wybierz rzeczy" class="cls-2"><g class="cls-2"><path class="cls-3" d="M96.58,150.45a3.26,3.26,0,0,1-1.24,2.69,5.41,5.41,0,0,1-3.42,1,8,8,0,0,1-3.57-.68v-2a10.32,10.32,0,0,0,1.87.65,7.82,7.82,0,0,0,1.84.24,2.91,2.91,0,0,0,1.84-.48,1.53,1.53,0,0,0,.59-1.27,1.59,1.59,0,0,0-.54-1.22,8.32,8.32,0,0,0-2.25-1.19,6,6,0,0,1-2.48-1.63,3.43,3.43,0,0,1-.72-2.19,3.09,3.09,0,0,1,1.14-2.54,4.78,4.78,0,0,1,3.07-.92,9,9,0,0,1,3.67.81l-.67,1.71a8,8,0,0,0-3-.72,2.33,2.33,0,0,0-1.55.45,1.44,1.44,0,0,0-.53,1.17,1.69,1.69,0,0,0,.21.86,2.15,2.15,0,0,0,.7.67,11.16,11.16,0,0,0,1.74.83,9.89,9.89,0,0,1,2.07,1.1,3.35,3.35,0,0,1,1,1.15A3.58,3.58,0,0,1,96.58,150.45Z"/><path class="cls-3" d="M103.77,154.11a3.38,3.38,0,0,1-2.86-1.33h-.12q.12,1.23.12,1.5v4H98.84v-14h1.67c0,.19.15.62.29,1.31h.11a3.22,3.22,0,0,1,2.9-1.48,3.36,3.36,0,0,1,2.83,1.32,5.92,5.92,0,0,1,1,3.7,6,6,0,0,1-1,3.72A3.41,3.41,0,0,1,103.77,154.11Zm-.5-8.38a2.12,2.12,0,0,0-1.79.72,3.72,3.72,0,0,0-.57,2.3v.31a4.6,4.6,0,0,0,.56,2.57,2.1,2.1,0,0,0,1.84.79,1.86,1.86,0,0,0,1.65-.88,4.49,4.49,0,0,0,.58-2.5,4.4,4.4,0,0,0-.57-2.47A1.93,1.93,0,0,0,103.27,145.73Z"/><path class="cls-3" d="M116.14,153.94l-.41-1.36h-.07a3.94,3.94,0,0,1-1.42,1.21,4.52,4.52,0,0,1-1.83.32,3.1,3.1,0,0,1-2.23-.77,2.9,2.9,0,0,1-.81-2.19,2.57,2.57,0,0,1,1.12-2.27,6.37,6.37,0,0,1,3.4-.83l1.68-.06v-.51a2,2,0,0,0-.44-1.4,1.8,1.8,0,0,0-1.35-.46,4.59,4.59,0,0,0-1.43.22,11.68,11.68,0,0,0-1.32.52l-.66-1.48a7.54,7.54,0,0,1,1.73-.63,8.11,8.11,0,0,1,1.77-.21,4.2,4.2,0,0,1,2.8.81,3.16,3.16,0,0,1,1,2.54v6.55Zm-3.08-1.41a2.56,2.56,0,0,0,1.81-.63,2.3,2.3,0,0,0,.68-1.76v-.85l-1.25.06a4.1,4.1,0,0,0-2.12.49,1.47,1.47,0,0,0-.66,1.33,1.3,1.3,0,0,0,.38,1A1.66,1.66,0,0,0,113.06,152.53Z"/><path class="cls-3" d="M122.49,148.8l1.17-1.46,2.94-3.13H129l-3.91,4.18,4.16,5.55H126.8l-3.12-4.27-1.13.93v3.34h-2V140.26h2v6.67l-.11,1.87Z"/><path class="cls-3" d="M137.65,153.94l-.29-1.28h-.11a2.88,2.88,0,0,1-1.22,1.06,4.09,4.09,0,0,1-1.82.39,3.55,3.55,0,0,1-2.64-.88,3.63,3.63,0,0,1-.87-2.66v-6.36h2.09v6a2.62,2.62,0,0,0,.45,1.67,1.75,1.75,0,0,0,1.44.56,2.29,2.29,0,0,0,1.91-.78,4.25,4.25,0,0,0,.61-2.6v-4.85h2.07v9.73Z"/><path class="cls-3" d="M141.22,158.26a4.52,4.52,0,0,1-1.54-.22v-1.63a5,5,0,0,0,1.22.15c.88,0,1.32-.49,1.32-1.49V144.21h2.06v11a3.09,3.09,0,0,1-.78,2.28A3.16,3.16,0,0,1,141.22,158.26Zm.87-16.62a1.15,1.15,0,0,1,.31-.85,1.17,1.17,0,0,1,.86-.3,1,1,0,0,1,1.15,1.15,1.13,1.13,0,0,1-.3.83,1.14,1.14,0,0,1-.85.3,1.17,1.17,0,0,1-.86-.3A1.13,1.13,0,0,1,142.09,141.64Z"/><path class="cls-3" d="M150.92,158.26a4.59,4.59,0,0,1-1.55-.22v-1.63a5,5,0,0,0,1.22.15c.88,0,1.32-.49,1.32-1.49V144.21H154v11a3.05,3.05,0,0,1-.79,2.28A3.12,3.12,0,0,1,150.92,158.26Zm.87-16.62a1.14,1.14,0,0,1,.3-.85,1.38,1.38,0,0,1,1.72,0,1.14,1.14,0,0,1,.3.85,1.13,1.13,0,0,1-.3.83,1.38,1.38,0,0,1-1.72,0A1.13,1.13,0,0,1,151.79,141.64Z"/><path class="cls-3" d="M161.18,154.11a4.7,4.7,0,0,1-3.55-1.32,5,5,0,0,1-1.28-3.64,5.53,5.53,0,0,1,1.19-3.75A4.08,4.08,0,0,1,160.8,144a4,4,0,0,1,3,1.17,4.47,4.47,0,0,1,1.11,3.21v1.12h-6.47a3.22,3.22,0,0,0,.76,2.18,2.69,2.69,0,0,0,2,.76,7.44,7.44,0,0,0,3.2-.71v1.68a6.26,6.26,0,0,1-1.53.51A9.24,9.24,0,0,1,161.18,154.11Zm-.38-8.51a2.07,2.07,0,0,0-1.58.63,3,3,0,0,0-.71,1.82h4.41a2.67,2.67,0,0,0-.58-1.83A2,2,0,0,0,160.8,145.6Z"/></g></g><path d="M152.14,125.34H100.85A4.84,4.84,0,0,1,96,120.51V69.23a4.84,4.84,0,0,1,4.83-4.84h51.29A4.84,4.84,0,0,1,157,69.23v51.28A4.84,4.84,0,0,1,152.14,125.34ZM100.85,66.8a2.43,2.43,0,0,0-2.42,2.43v51.28a2.43,2.43,0,0,0,2.42,2.42h51.29a2.43,2.43,0,0,0,2.42-2.42V69.23a2.43,2.43,0,0,0-2.42-2.43Z"/><path d="M142.79,75.49v-18A17.18,17.18,0,0,0,138,45,16.74,16.74,0,0,0,115,45,17.18,17.18,0,0,0,110.2,57.5V75.44a3,3,0,1,0,2.46-.08V57.5c0-8.6,5.69-14.6,13.84-14.6s13.83,6,13.83,14.6v18a3,3,0,1,0,2.46,0Z"/></g></svg>