<svg xmlns="http://www.w3.org/2000/svg" viewBox="0 0 250 260"><defs><style>.cls-1{isolation:isolate;}.cls-2{fill:#3c3c3c;}.cls-3{fill:none;stroke:#707070;}</style></defs><title>wybierz_rzeczy_desktop</title><g id="Warstwa_1" data-name="Warstwa 1"><g id="ubrania_zabawki_sprzęt_i_inne" data-name="ubrania zabawki sprzęt i inne" class="cls-1"><g class="cls-1"><path class="cls-2" d="M64.19,185.57v5.56a2.21,2.21,0,0,0,.48,1.56,2,2,0,0,0,1.49.52,2.45,2.45,0,0,0,2-.74,3.73,3.73,0,0,0,.62-2.4v-4.5H70v8.57H69L68.79,193h-.07a2.69,2.69,0,0,1-1.11,1,3.77,3.77,0,0,1-1.61.33,3.27,3.27,0,0,1-2.34-.74,3.17,3.17,0,0,1-.78-2.38v-5.6Z"/><path class="cls-2" d="M76.78,185.43a3.21,3.21,0,0,1,2.62,1.15,6.19,6.19,0,0,1,0,6.54,3.17,3.17,0,0,1-2.61,1.17,3.64,3.64,0,0,1-1.53-.31,2.8,2.8,0,0,1-1.16-.95H74l-.28,1.11h-.93V182h1.3v3c0,.66,0,1.26-.06,1.78h.06A3.08,3.08,0,0,1,76.78,185.43Zm-.19,1.09a2.24,2.24,0,0,0-1.91.76,5.87,5.87,0,0,0,0,5.15,2.29,2.29,0,0,0,1.93.78,2,2,0,0,0,1.78-.88,4.46,4.46,0,0,0,.59-2.5,4.31,4.31,0,0,0-.59-2.49A2.06,2.06,0,0,0,76.59,186.52Z"/><path class="cls-2" d="M86.5,185.42a5.34,5.34,0,0,1,1,.09l-.18,1.2a5,5,0,0,0-.94-.11,2.31,2.31,0,0,0-1.78.84,3.07,3.07,0,0,0-.73,2.1v4.6H82.6v-8.57h1.07l.15,1.59h.06A3.73,3.73,0,0,1,85,185.87,2.6,2.6,0,0,1,86.5,185.42Z"/><path class="cls-2" d="M94.4,194.14l-.26-1.22h-.07A3.63,3.63,0,0,1,92.8,194a3.94,3.94,0,0,1-1.59.28,2.9,2.9,0,0,1-2-.65,2.4,2.4,0,0,1-.72-1.87q0-2.6,4.15-2.72l1.45-.05v-.53a2.17,2.17,0,0,0-.43-1.49,1.79,1.79,0,0,0-1.39-.48,5.63,5.63,0,0,0-2.42.66l-.4-1a6.32,6.32,0,0,1,2.9-.74,3.28,3.28,0,0,1,2.27.68,2.86,2.86,0,0,1,.74,2.18v5.85Zm-2.93-.92a2.65,2.65,0,0,0,1.9-.66,2.47,2.47,0,0,0,.69-1.86v-.78l-1.3.06a4.83,4.83,0,0,0-2.23.48,1.46,1.46,0,0,0-.68,1.32,1.34,1.34,0,0,0,.42,1.07A1.76,1.76,0,0,0,91.47,193.22Z"/><path class="cls-2" d="M103.89,194.14V188.6a2.25,2.25,0,0,0-.48-1.57,2,2,0,0,0-1.49-.51,2.47,2.47,0,0,0-2,.72,3.67,3.67,0,0,0-.63,2.4v4.5H98v-8.57h1l.21,1.17h.07a2.66,2.66,0,0,1,1.11-1,3.67,3.67,0,0,1,1.6-.34,3.27,3.27,0,0,1,2.33.74,3.2,3.2,0,0,1,.78,2.39v5.59Z"/><path class="cls-2" d="M107.74,183.25a.85.85,0,0,1,.22-.65.75.75,0,0,1,.54-.21.76.76,0,0,1,.54.21.86.86,0,0,1,.23.65.9.9,0,0,1-.23.66.76.76,0,0,1-.54.21.75.75,0,0,1-.54-.21A.89.89,0,0,1,107.74,183.25Zm1.41,10.89h-1.3v-8.57h1.3Z"/><path class="cls-2" d="M117.16,194.14l-.26-1.22h-.06a3.65,3.65,0,0,1-1.28,1.09,3.87,3.87,0,0,1-1.59.28,2.87,2.87,0,0,1-2-.65,2.41,2.41,0,0,1-.73-1.87c0-1.73,1.39-2.64,4.15-2.72l1.46-.05v-.53a2.17,2.17,0,0,0-.44-1.49,1.78,1.78,0,0,0-1.38-.48,5.67,5.67,0,0,0-2.43.66l-.39-1a6,6,0,0,1,1.38-.54,6.09,6.09,0,0,1,1.51-.2,3.28,3.28,0,0,1,2.27.68,2.82,2.82,0,0,1,.74,2.18v5.85Zm-2.93-.92a2.63,2.63,0,0,0,1.9-.66,2.47,2.47,0,0,0,.69-1.86v-.78l-1.29.06a4.79,4.79,0,0,0-2.23.48,1.44,1.44,0,0,0-.69,1.32,1.34,1.34,0,0,0,.43,1.07A1.73,1.73,0,0,0,114.23,193.22Z"/><path class="cls-2" d="M122.15,192.28l.12.18c-.14.52-.33,1.12-.59,1.81s-.52,1.33-.79,1.93h-1c.14-.54.3-1.21.47-2s.28-1.43.35-1.91Z"/><path class="cls-2" d="M134.35,194.14h-6.21v-.89l4.67-6.67h-4.38v-1h5.8v1l-4.61,6.55h4.73Z"/><path class="cls-2" d="M141.62,194.14l-.26-1.22h-.06A3.57,3.57,0,0,1,140,194a3.87,3.87,0,0,1-1.59.28,2.89,2.89,0,0,1-2-.65,2.4,2.4,0,0,1-.72-1.87q0-2.6,4.14-2.72l1.46-.05v-.53a2.17,2.17,0,0,0-.44-1.49,1.78,1.78,0,0,0-1.38-.48,5.59,5.59,0,0,0-2.42.66l-.4-1a6,6,0,0,1,1.38-.54,6.1,6.1,0,0,1,1.52-.2,3.25,3.25,0,0,1,2.26.68,2.82,2.82,0,0,1,.74,2.18v5.85Zm-2.93-.92a2.63,2.63,0,0,0,1.9-.66,2.44,2.44,0,0,0,.7-1.86v-.78L140,190a4.79,4.79,0,0,0-2.23.48,1.44,1.44,0,0,0-.68,1.32,1.34,1.34,0,0,0,.42,1.07A1.75,1.75,0,0,0,138.69,193.22Z"/><path class="cls-2" d="M149.24,185.43a3.21,3.21,0,0,1,2.62,1.15,6.19,6.19,0,0,1,0,6.54,3.17,3.17,0,0,1-2.61,1.17,3.64,3.64,0,0,1-1.53-.31,2.8,2.8,0,0,1-1.16-.95h-.09l-.28,1.11h-.92V182h1.29v3c0,.66,0,1.26-.06,1.78h.06A3.1,3.1,0,0,1,149.24,185.43Zm-.19,1.09a2.26,2.26,0,0,0-1.91.76,5.87,5.87,0,0,0,0,5.15,2.29,2.29,0,0,0,1.93.78,2,2,0,0,0,1.78-.88,4.38,4.38,0,0,0,.59-2.5,4.24,4.24,0,0,0-.59-2.49A2.06,2.06,0,0,0,149.05,186.52Z"/><path class="cls-2" d="M160.33,194.14l-.26-1.22H160a3.74,3.74,0,0,1-1.28,1.09,3.94,3.94,0,0,1-1.59.28,2.9,2.9,0,0,1-2-.65,2.4,2.4,0,0,1-.72-1.87q0-2.6,4.15-2.72L160,189v-.53a2.17,2.17,0,0,0-.43-1.49,1.79,1.79,0,0,0-1.39-.48,5.63,5.63,0,0,0-2.42.66l-.4-1a6.32,6.32,0,0,1,2.9-.74,3.28,3.28,0,0,1,2.27.68,2.86,2.86,0,0,1,.74,2.18v5.85Zm-2.93-.92a2.65,2.65,0,0,0,1.9-.66,2.47,2.47,0,0,0,.69-1.86v-.78l-1.3.06a4.83,4.83,0,0,0-2.23.48,1.46,1.46,0,0,0-.68,1.32,1.34,1.34,0,0,0,.42,1.07A1.76,1.76,0,0,0,157.4,193.22Z"/><path class="cls-2" d="M171,194.14l-1.57-5c-.1-.31-.28-1-.55-2.09h-.07c-.21.91-.39,1.61-.54,2.11l-1.62,5h-1.5l-2.34-8.57h1.36l1.26,4.92a19.43,19.43,0,0,1,.5,2.27h.06c.06-.3.15-.68.28-1.15s.24-.85.33-1.12l1.57-4.92h1.41l1.53,4.92a16.2,16.2,0,0,1,.59,2.25h.07a8.1,8.1,0,0,1,.16-.86c.09-.39.64-2.49,1.63-6.31h1.35l-2.37,8.57Z"/><path class="cls-2" d="M177.68,189.75c.23-.31.57-.73,1-1.25l2.76-2.93H183l-3.47,3.65,3.72,4.92h-1.58l-3-4-1,.84v3.21H176.4V182h1.28v6.44c0,.29,0,.73-.06,1.33Z"/><path class="cls-2" d="M184.69,183.25a.89.89,0,0,1,.22-.65.81.81,0,0,1,1.09,0,.85.85,0,0,1,.22.65.89.89,0,0,1-.22.66.81.81,0,0,1-1.09,0A.94.94,0,0,1,184.69,183.25Zm1.41,10.89h-1.3v-8.57h1.3Z"/><path class="cls-2" d="M190.21,192.28l.12.18c-.14.52-.34,1.12-.59,1.81s-.52,1.33-.8,1.93h-1c.14-.54.29-1.21.46-2s.29-1.43.36-1.91Z"/></g><g class="cls-1"><path class="cls-2" d="M87.68,209.8a2.12,2.12,0,0,1-.89,1.84,4.11,4.11,0,0,1-2.5.65,5.4,5.4,0,0,1-2.65-.54v-1.2A6.3,6.3,0,0,0,83,211a5.53,5.53,0,0,0,1.36.18,3.2,3.2,0,0,0,1.57-.32,1.13,1.13,0,0,0,.11-1.85,7.33,7.33,0,0,0-1.69-.84,8.94,8.94,0,0,1-1.7-.77,2.35,2.35,0,0,1-.75-.76,2,2,0,0,1-.25-1,2,2,0,0,1,.85-1.65,4,4,0,0,1,2.34-.6,6.74,6.74,0,0,1,2.7.56L87,205a6.29,6.29,0,0,0-2.33-.53,2.69,2.69,0,0,0-1.39.29.88.88,0,0,0-.47.8,1,1,0,0,0,.17.58,1.74,1.74,0,0,0,.57.47,14.73,14.73,0,0,0,1.5.63,5.53,5.53,0,0,1,2.06,1.12A1.93,1.93,0,0,1,87.68,209.8Z"/><path class="cls-2" d="M93.78,212.29a3.64,3.64,0,0,1-1.53-.31,2.8,2.8,0,0,1-1.16-.95H91a12.06,12.06,0,0,1,.09,1.43V216h-1.3V203.57h1.06l.18,1.17h.06a3.07,3.07,0,0,1,1.16-1,3.54,3.54,0,0,1,1.53-.31,3.16,3.16,0,0,1,2.63,1.16,5.19,5.19,0,0,1,.92,3.27,5.05,5.05,0,0,1-.94,3.27A3.17,3.17,0,0,1,93.78,212.29Zm-.19-7.77a2.3,2.3,0,0,0-1.9.72,3.77,3.77,0,0,0-.6,2.32v.29a4.3,4.3,0,0,0,.6,2.58,2.29,2.29,0,0,0,1.93.78,2,2,0,0,0,1.74-.9,4.27,4.27,0,0,0,.63-2.48,4.1,4.1,0,0,0-.63-2.46A2.07,2.07,0,0,0,93.59,204.52Z"/><path class="cls-2" d="M103.5,203.42a5.34,5.34,0,0,1,1,.09l-.18,1.2a5,5,0,0,0-.94-.11,2.31,2.31,0,0,0-1.78.84,3.08,3.08,0,0,0-.74,2.1v4.6H99.6v-8.57h1.07l.15,1.59h.06a3.73,3.73,0,0,1,1.15-1.29A2.6,2.6,0,0,1,103.5,203.42Z"/><path class="cls-2" d="M111.61,212.14h-6.22v-.89l4.68-6.67h-4.39v-1h5.81v1l-4.61,6.55h4.73Z"/><path class="cls-2" d="M117.23,212.29a4,4,0,0,1-3-1.15,4.5,4.5,0,0,1-1.09-3.22,4.93,4.93,0,0,1,1-3.28,3.36,3.36,0,0,1,2.73-1.22,3.21,3.21,0,0,1,2.55,1.06,4,4,0,0,1,.94,2.79v.82h-5.9a3.43,3.43,0,0,0,.76,2.29,2.64,2.64,0,0,0,2,.78,6.8,6.8,0,0,0,2.73-.58v1.16a6.3,6.3,0,0,1-1.3.42A7,7,0,0,1,117.23,212.29Zm-.35-7.79a2.15,2.15,0,0,0-1.65.67,3.14,3.14,0,0,0-.72,1.86H119a2.8,2.8,0,0,0-.55-1.87A1.9,1.9,0,0,0,116.88,204.5Zm1.55,9.25a.65.65,0,0,0,.73.74,3.88,3.88,0,0,0,.76-.1v.85a3.86,3.86,0,0,1-1,.14q-1.62,0-1.62-1.47a2,2,0,0,1,.34-1.08,3.47,3.47,0,0,1,.9-.94h.94a5.5,5.5,0,0,0-.8.94A1.7,1.7,0,0,0,118.43,213.75Z"/><path class="cls-2" d="M125.36,211.22a4.77,4.77,0,0,0,.66-.05c.21,0,.38-.07.51-.1v1a3.07,3.07,0,0,1-.62.17,5.23,5.23,0,0,1-.74.06c-1.66,0-2.49-.87-2.49-2.62v-5.09h-1.22V204l1.22-.54.55-1.83H124v2h2.48v1H124v5a1.71,1.71,0,0,0,.37,1.19A1.29,1.29,0,0,0,125.36,211.22Z"/><path class="cls-2" d="M132.29,201.25a.89.89,0,0,1,.21-.65.81.81,0,0,1,1.09,0,.86.86,0,0,1,.23.65.9.9,0,0,1-.23.66.81.81,0,0,1-1.09,0A.93.93,0,0,1,132.29,201.25Zm1.4,10.89h-1.3v-8.57h1.3Z"/><path class="cls-2" d="M140.49,201.25a.85.85,0,0,1,.22-.65.75.75,0,0,1,.54-.21.76.76,0,0,1,.54.21.86.86,0,0,1,.23.65.9.9,0,0,1-.23.66.76.76,0,0,1-.54.21.75.75,0,0,1-.54-.21A.89.89,0,0,1,140.49,201.25Zm1.4,10.89H140.6v-8.57h1.29Z"/><path class="cls-2" d="M150.5,212.14V206.6A2.3,2.3,0,0,0,150,205a2,2,0,0,0-1.49-.51,2.46,2.46,0,0,0-2,.72,3.67,3.67,0,0,0-.63,2.4v4.5h-1.3v-8.57h1.06l.21,1.17H146a2.75,2.75,0,0,1,1.12-1,3.64,3.64,0,0,1,1.6-.34,3.29,3.29,0,0,1,2.33.74,3.2,3.2,0,0,1,.78,2.39v5.59Z"/><path class="cls-2" d="M160.32,212.14V206.6a2.25,2.25,0,0,0-.47-1.57,2,2,0,0,0-1.49-.51,2.46,2.46,0,0,0-2,.72,3.67,3.67,0,0,0-.63,2.4v4.5h-1.3v-8.57h1.06l.21,1.17h.06a2.75,2.75,0,0,1,1.12-1,3.64,3.64,0,0,1,1.6-.34,3.29,3.29,0,0,1,2.33.74,3.2,3.2,0,0,1,.78,2.39v5.59Z"/><path class="cls-2" d="M167.9,212.29a3.93,3.93,0,0,1-3-1.15,4.46,4.46,0,0,1-1.1-3.22,4.93,4.93,0,0,1,1-3.28,3.36,3.36,0,0,1,2.74-1.22,3.2,3.2,0,0,1,2.54,1.06,4,4,0,0,1,.94,2.79v.82h-5.9a3.43,3.43,0,0,0,.76,2.29,2.65,2.65,0,0,0,2,.78,6.8,6.8,0,0,0,2.73-.58v1.16a6.11,6.11,0,0,1-1.3.42A7,7,0,0,1,167.9,212.29Zm-.35-7.79a2.13,2.13,0,0,0-1.64.67,3.15,3.15,0,0,0-.73,1.86h4.48a2.8,2.8,0,0,0-.55-1.87A1.9,1.9,0,0,0,167.55,204.5Z"/></g></g><line id="Line" class="cls-3" x1="91.5" y1="168.64" x2="161.5" y2="168.64"/><g id="Wybierz_rzeczy" data-name="Wybierz rzeczy" class="cls-1"><g class="cls-1"><path class="cls-2" d="M75.94,155.14H73.65l-2.18-7.67c-.09-.33-.21-.81-.35-1.44s-.22-1.07-.25-1.32c-.06.38-.16.86-.29,1.46s-.24,1-.33,1.34l-2.13,7.63H65.84l-1.66-6.44-1.69-6.41h2.14l1.84,7.48c.29,1.21.49,2.27.62,3.19.06-.5.16-1.06.29-1.67s.24-1.12.35-1.5l2.09-7.5H71.9l2.15,7.54A29.39,29.39,0,0,1,74.7,153a23.6,23.6,0,0,1,.63-3.2l1.83-7.47h2.13Z"/><path class="cls-2" d="M79.41,145.41h2.25l2,5.52a10.27,10.27,0,0,1,.59,2.21h.07a10.92,10.92,0,0,1,.29-1.17c.15-.46.89-2.65,2.24-6.56h2.23l-4.16,11q-1.12,3-3.78,3a5.9,5.9,0,0,1-1.33-.15v-1.63a4.83,4.83,0,0,0,1.06.1,2.17,2.17,0,0,0,2.1-1.73l.36-.91Z"/><path class="cls-2" d="M95.5,145.24a3.39,3.39,0,0,1,2.84,1.32,7.26,7.26,0,0,1,0,7.42,3.74,3.74,0,0,1-5.72,0h-.14l-.38,1.16H90.54V141.46H92.6v3.25c0,.24,0,.6,0,1.07s0,.78-.06.91h.09A3.27,3.27,0,0,1,95.5,145.24ZM95,146.93a2.08,2.08,0,0,0-1.8.73,4.23,4.23,0,0,0-.57,2.46v.14a4.6,4.6,0,0,0,.56,2.57,2.1,2.1,0,0,0,1.84.79,1.87,1.87,0,0,0,1.67-.87,4.67,4.67,0,0,0,.56-2.51C97.23,148,96.48,146.93,95,146.93Z"/><path class="cls-2" d="M101.63,142.84a1.14,1.14,0,0,1,.3-.85,1.38,1.38,0,0,1,1.72,0,1.14,1.14,0,0,1,.3.85,1.13,1.13,0,0,1-.3.83,1.38,1.38,0,0,1-1.72,0A1.13,1.13,0,0,1,101.63,142.84Zm2.19,12.3h-2.07v-9.73h2.07Z"/><path class="cls-2" d="M111,155.31a4.69,4.69,0,0,1-3.54-1.32,5,5,0,0,1-1.28-3.64,5.53,5.53,0,0,1,1.19-3.75,4.08,4.08,0,0,1,3.26-1.36,4,4,0,0,1,3,1.17,4.47,4.47,0,0,1,1.11,3.21v1.12h-6.47a3.22,3.22,0,0,0,.76,2.18,2.69,2.69,0,0,0,2,.76,7.27,7.27,0,0,0,1.6-.17,7.36,7.36,0,0,0,1.6-.54v1.68a6.26,6.26,0,0,1-1.53.51A9.28,9.28,0,0,1,111,155.31Zm-.37-8.51a2.06,2.06,0,0,0-1.58.63,3,3,0,0,0-.71,1.82h4.41a2.67,2.67,0,0,0-.58-1.83A2,2,0,0,0,110.64,146.8Z"/><path class="cls-2" d="M122.07,145.24a4.85,4.85,0,0,1,1,.09l-.2,1.92a4,4,0,0,0-.92-.1,2.7,2.7,0,0,0-2,.8,2.94,2.94,0,0,0-.76,2.11v5.08h-2.07v-9.73h1.62l.27,1.72h.11a3.82,3.82,0,0,1,1.26-1.38A3,3,0,0,1,122.07,145.24Z"/><path class="cls-2" d="M131.4,155.14H124v-1.28l4.92-6.86h-4.62v-1.59h6.94v1.45l-4.81,6.69h5Z"/><path class="cls-2" d="M143.11,145.24a4.85,4.85,0,0,1,1,.09l-.2,1.92a3.93,3.93,0,0,0-.92-.1,2.66,2.66,0,0,0-2,.8,2.9,2.9,0,0,0-.77,2.11v5.08h-2.07v-9.73h1.62l.27,1.72h.11a3.82,3.82,0,0,1,1.26-1.38A3,3,0,0,1,143.11,145.24Z"/><path class="cls-2" d="M152.44,155.14h-7.38v-1.28L150,147h-4.62v-1.59h6.94v1.45l-4.81,6.69h4.95Z"/><path class="cls-2" d="M158.79,155.31a4.69,4.69,0,0,1-3.54-1.32,5,5,0,0,1-1.28-3.64,5.53,5.53,0,0,1,1.18-3.75,4.09,4.09,0,0,1,3.26-1.36,4,4,0,0,1,3.05,1.17,4.47,4.47,0,0,1,1.11,3.21v1.12h-6.48a3.23,3.23,0,0,0,.77,2.18,2.69,2.69,0,0,0,2,.76,7.52,7.52,0,0,0,3.2-.71v1.68a6.55,6.55,0,0,1-1.53.51A9.43,9.43,0,0,1,158.79,155.31Zm-.38-8.51a2,2,0,0,0-1.57.63,3,3,0,0,0-.71,1.82h4.41a2.67,2.67,0,0,0-.58-1.83A2,2,0,0,0,158.41,146.8Z"/><path class="cls-2" d="M168.84,155.31a4.28,4.28,0,0,1-3.36-1.29,6.53,6.53,0,0,1,.06-7.46,4.44,4.44,0,0,1,3.47-1.32,6.49,6.49,0,0,1,2.76.57l-.62,1.66A6.22,6.22,0,0,0,169,147c-1.68,0-2.53,1.12-2.53,3.35a4,4,0,0,0,.63,2.46,2.18,2.18,0,0,0,1.84.82,5.32,5.32,0,0,0,2.62-.69v1.8a3.94,3.94,0,0,1-1.19.47A7.29,7.29,0,0,1,168.84,155.31Z"/><path class="cls-2" d="M180.33,155.14H173v-1.28l4.91-6.86h-4.61v-1.59h6.93v1.45l-4.8,6.69h5Z"/><path class="cls-2" d="M181,145.41h2.25l2,5.52a10.88,10.88,0,0,1,.59,2.21h.07a10.92,10.92,0,0,1,.29-1.17q.21-.69,2.24-6.56h2.23l-4.16,11q-1.12,3-3.78,3a5.83,5.83,0,0,1-1.33-.15v-1.63a4.83,4.83,0,0,0,1.06.1,2.17,2.17,0,0,0,2.1-1.73l.36-.91Z"/></g></g><g id="Wybierz_rzeczy-2" data-name="Wybierz rzeczy" class="cls-1"><g class="cls-1"><path class="cls-2" d="M129.75,99.74h-3.38V86.17c0-1.62,0-2.9.11-3.85-.22.23-.49.48-.81.76s-1.4,1.16-3.23,2.64l-1.69-2.14,6.18-4.86h2.82Z"/></g></g><path d="M146.74,89.18a1.56,1.56,0,0,1,0-3.12,30.94,30.94,0,0,0,10.82-2.54c-.64-8-2.6-20.38-5.56-22.7-3.43-2.69-10.35-4.74-13.43-5.55-1.46,3.59-6.92,5.88-12.07,5.88s-10.62-2.29-12.08-5.88c-3.08.82-10,2.86-13.43,5.55-3,2.32-4.92,14.71-5.55,22.7a30.82,30.82,0,0,0,10.82,2.54,1.56,1.56,0,0,1,0,3.12c-6.25,0-12.85-3.14-13.13-3.27a1.57,1.57,0,0,1-.88-1.51c.15-2.23,1.62-22,6.82-26,5-3.93,15.73-6.41,16.18-6.52a1.53,1.53,0,0,1,1.32.3,1.56,1.56,0,0,1,.59,1.22c0,2.1,4.31,4.67,9.34,4.67s9.34-2.57,9.34-4.67a1.56,1.56,0,0,1,.58-1.22,1.6,1.6,0,0,1,1.32-.3c.45.11,11.17,2.59,16.18,6.52,5.2,4.07,6.67,23.8,6.82,26a1.55,1.55,0,0,1-.87,1.51C159.59,86,153,89.18,146.74,89.18Z"/><path d="M126.5,126.54c-14.63,0-20.72-3.16-21-3.29a1.57,1.57,0,0,1-.82-1.38V78.28c0-3.34-1.07-6.65-2.66-8.24a1.56,1.56,0,1,1,2.2-2.2c2.21,2.2,3.57,6.2,3.57,10.44v42.57c2,.78,7.89,2.58,18.69,2.58s16.65-1.8,18.68-2.58V78.28c0-4.24,1.37-8.24,3.57-10.44A1.56,1.56,0,1,1,151,70c-1.59,1.59-2.66,4.9-2.66,8.24v43.59a1.55,1.55,0,0,1-.82,1.38C147.22,123.38,141.12,126.54,126.5,126.54Z"/><path d="M126.5,56.48c-2.84,0-10.85-1.52-11.19-1.58a1.56,1.56,0,1,1,.58-3.06,93.51,93.51,0,0,0,10.61,1.53,93.67,93.67,0,0,0,10.6-1.53,1.56,1.56,0,0,1,.59,3.06C137.35,55,129.34,56.48,126.5,56.48Z"/></g></svg>