<svg xmlns="http://www.w3.org/2000/svg" viewBox="0 0 250 260"><defs><style>.cls-1{isolation:isolate;}.cls-2{fill:#3c3c3c;}.cls-3,.cls-4{fill:none;}.cls-3{stroke:#707070;}.cls-4{stroke:#000;stroke-miterlimit:10;stroke-width:2px;}</style></defs><title>zdecyduj_desktop</title><g id="Warstwa_1" data-name="Warstwa 1"><g id="Wybierz_rzeczy" data-name="Wybierz rzeczy" class="cls-1"><g class="cls-1"><path class="cls-2" d="M123.8,69.49a4.83,4.83,0,0,1-1.16,3.33,5.82,5.82,0,0,1-3.28,1.79v.12a6.35,6.35,0,0,1,3.8,1.57,4.51,4.51,0,0,1,1.26,3.34,5.55,5.55,0,0,1-2.14,4.68,9.82,9.82,0,0,1-6.1,1.65,13.69,13.69,0,0,1-5.89-1.14v-3a13.62,13.62,0,0,0,2.83,1,12.34,12.34,0,0,0,2.88.36,6,6,0,0,0,3.65-.91,3.29,3.29,0,0,0,1.21-2.8A2.66,2.66,0,0,0,119.52,77a8.51,8.51,0,0,0-4.2-.79H113.5V73.49h1.85c3.36,0,5-1.16,5-3.48a2.57,2.57,0,0,0-.87-2.08,4,4,0,0,0-2.59-.73,8,8,0,0,0-2.3.33A11.22,11.22,0,0,0,112,68.85l-1.65-2.36a11,11,0,0,1,6.71-2.13,8,8,0,0,1,5,1.37A4.46,4.46,0,0,1,123.8,69.49Z"/></g></g><g id="ubrania_zabawki_sprzęt_i_inne" data-name="ubrania zabawki sprzęt i inne" class="cls-1"><g class="cls-1"><path class="cls-2" d="M73,192.94l-1.57-5c-.1-.31-.28-1-.55-2.09h-.06c-.21.91-.39,1.61-.55,2.11l-1.62,5H67.1l-2.33-8.57h1.36l1.26,4.92a18.7,18.7,0,0,1,.49,2.27H68a11.76,11.76,0,0,1,.27-1.15c.13-.47.24-.85.33-1.12l1.58-4.92h1.4l1.53,4.92a18,18,0,0,1,.6,2.25h.06c0-.18.08-.47.17-.86s.63-2.49,1.63-6.31h1.34l-2.37,8.57Z"/><path class="cls-2" d="M77.05,184.37h1.39l1.87,4.89a18.7,18.7,0,0,1,.77,2.41h.06c.07-.27.21-.72.43-1.36s.92-2.62,2.12-5.94h1.39l-3.68,9.75a4.82,4.82,0,0,1-1.28,2,2.68,2.68,0,0,1-1.79.61,5.06,5.06,0,0,1-1.17-.13v-1a4.61,4.61,0,0,0,1,.09,2,2,0,0,0,1.9-1.5L80.5,193Z"/><path class="cls-2" d="M90.45,184.23a3.19,3.19,0,0,1,2.62,1.15,5,5,0,0,1,.94,3.27,5.11,5.11,0,0,1-.94,3.27,3.18,3.18,0,0,1-2.62,1.17,3.63,3.63,0,0,1-1.52-.31,2.8,2.8,0,0,1-1.16-.95h-.1l-.27,1.11h-.93V180.78h1.3v2.95c0,.66,0,1.26-.07,1.78h.07A3.08,3.08,0,0,1,90.45,184.23Zm-.18,1.09a2.26,2.26,0,0,0-1.92.76,5.91,5.91,0,0,0,0,5.15,2.28,2.28,0,0,0,1.93.78,2,2,0,0,0,1.78-.88,4.47,4.47,0,0,0,.58-2.5,4.32,4.32,0,0,0-.58-2.49A2.07,2.07,0,0,0,90.27,185.32Z"/><path class="cls-2" d="M96.16,182.05a.89.89,0,0,1,.22-.65.81.81,0,0,1,1.09,0,1,1,0,0,1,0,1.3.79.79,0,0,1-1.09,0A.89.89,0,0,1,96.16,182.05Zm1.41,10.89h-1.3v-8.57h1.3Z"/><path class="cls-2" d="M103.94,193.09a3.93,3.93,0,0,1-3-1.15,4.52,4.52,0,0,1-1.1-3.22,4.93,4.93,0,0,1,1-3.28,3.38,3.38,0,0,1,2.74-1.22,3.23,3.23,0,0,1,2.55,1.06,4.06,4.06,0,0,1,.94,2.79v.82h-5.9a3.38,3.38,0,0,0,.76,2.29,2.63,2.63,0,0,0,2,.78,6.81,6.81,0,0,0,2.74-.58v1.16a6.3,6.3,0,0,1-1.3.42A7,7,0,0,1,103.94,193.09Zm-.35-7.79a2.15,2.15,0,0,0-1.65.67,3.08,3.08,0,0,0-.72,1.86h4.48a2.9,2.9,0,0,0-.55-1.88A2,2,0,0,0,103.59,185.3Z"/><path class="cls-2" d="M113.2,184.22a5.41,5.41,0,0,1,1,.09l-.18,1.2a5,5,0,0,0-.94-.11,2.29,2.29,0,0,0-1.78.84,3.08,3.08,0,0,0-.74,2.1v4.6H109.3v-8.57h1.07l.15,1.59h.06a3.73,3.73,0,0,1,1.15-1.29A2.57,2.57,0,0,1,113.2,184.22Z"/><path class="cls-2" d="M121.3,192.94h-6.21v-.89l4.68-6.67h-4.39v-1h5.81v1l-4.61,6.55h4.72Z"/><path class="cls-2" d="M133,192.94h-6.22v-.89l4.68-6.67H127v-1h5.81v1l-4.61,6.55H133Z"/><path class="cls-2" d="M140.22,192.94l-.26-1.22h-.06a3.65,3.65,0,0,1-1.28,1.09,3.87,3.87,0,0,1-1.59.28,2.87,2.87,0,0,1-2-.65,2.38,2.38,0,0,1-.73-1.87c0-1.73,1.39-2.64,4.15-2.72l1.45,0v-.53a2.17,2.17,0,0,0-.43-1.49,1.79,1.79,0,0,0-1.39-.48,5.63,5.63,0,0,0-2.42.66l-.4-1a6.27,6.27,0,0,1,1.39-.54,6,6,0,0,1,1.51-.2,3.28,3.28,0,0,1,2.27.68,2.86,2.86,0,0,1,.74,2.18v5.85Zm-2.93-.92a2.63,2.63,0,0,0,1.9-.66,2.48,2.48,0,0,0,.69-1.86v-.78l-1.29.06a4.76,4.76,0,0,0-2.23.48,1.44,1.44,0,0,0-.69,1.32,1.31,1.31,0,0,0,.43,1.07A1.73,1.73,0,0,0,137.29,192Z"/><path class="cls-2" d="M145.07,184.37v5.56a2.21,2.21,0,0,0,.48,1.56A1.94,1.94,0,0,0,147,192a2.43,2.43,0,0,0,2-.74,3.67,3.67,0,0,0,.63-2.4v-4.5h1.29v8.57h-1.07l-.19-1.15h-.07a2.6,2.6,0,0,1-1.1,1,3.77,3.77,0,0,1-1.61.33,3.27,3.27,0,0,1-2.34-.74,3.17,3.17,0,0,1-.78-2.38v-5.6Z"/><path class="cls-2" d="M157.53,185.38h-2.18v7.56h-1.3v-7.56h-1.53v-.59l1.53-.46v-.48c0-2.11.92-3.16,2.76-3.16a5.45,5.45,0,0,1,1.6.28l-.34,1a4.09,4.09,0,0,0-1.28-.25,1.28,1.28,0,0,0-1.09.49,2.78,2.78,0,0,0-.35,1.57v.55h2.18Z"/><path class="cls-2" d="M164.36,192.94l-.26-1.22H164a3.65,3.65,0,0,1-1.28,1.09,3.87,3.87,0,0,1-1.59.28,2.87,2.87,0,0,1-2-.65,2.38,2.38,0,0,1-.73-1.87c0-1.73,1.39-2.64,4.15-2.72l1.45,0v-.53a2.17,2.17,0,0,0-.43-1.49,1.79,1.79,0,0,0-1.39-.48,5.63,5.63,0,0,0-2.42.66l-.4-1a6.27,6.27,0,0,1,1.39-.54,6,6,0,0,1,1.51-.2,3.28,3.28,0,0,1,2.27.68,2.86,2.86,0,0,1,.74,2.18v5.85Zm-2.93-.92a2.63,2.63,0,0,0,1.9-.66,2.48,2.48,0,0,0,.69-1.86v-.78l-1.29.06a4.79,4.79,0,0,0-2.23.48,1.44,1.44,0,0,0-.69,1.32,1.31,1.31,0,0,0,.43,1.07A1.73,1.73,0,0,0,161.43,192Z"/><path class="cls-2" d="M173.85,192.94V187.4a2.3,2.3,0,0,0-.47-1.57,2,2,0,0,0-1.5-.51,2.49,2.49,0,0,0-2,.72,3.73,3.73,0,0,0-.62,2.4v4.5H168v-8.57h1.06l.21,1.17h.06a2.75,2.75,0,0,1,1.12-1,3.64,3.64,0,0,1,1.6-.34,3.29,3.29,0,0,1,2.33.74,3.2,3.2,0,0,1,.78,2.39v5.59Z"/><path class="cls-2" d="M181.43,193.09a4,4,0,0,1-3-1.15,4.52,4.52,0,0,1-1.09-3.22,4.93,4.93,0,0,1,1-3.28,3.36,3.36,0,0,1,2.73-1.22,3.21,3.21,0,0,1,2.55,1.06,4,4,0,0,1,.94,2.79v.82h-5.9a3.43,3.43,0,0,0,.76,2.29,2.64,2.64,0,0,0,2,.78,6.8,6.8,0,0,0,2.73-.58v1.16a6.3,6.3,0,0,1-1.3.42A7,7,0,0,1,181.43,193.09Zm-.35-7.79a2.15,2.15,0,0,0-1.65.67,3.08,3.08,0,0,0-.72,1.86h4.48a2.85,2.85,0,0,0-.55-1.88A1.92,1.92,0,0,0,181.08,185.3Z"/><path class="cls-2" d="M109.2,212.14v-5.57a2.32,2.32,0,0,0-.44-1.54,1.69,1.69,0,0,0-1.36-.51,2.21,2.21,0,0,0-1.79.69,3.36,3.36,0,0,0-.57,2.14v4.79h-1.3v-5.57a2.32,2.32,0,0,0-.44-1.54,1.71,1.71,0,0,0-1.37-.51,2.1,2.1,0,0,0-1.78.73,3.92,3.92,0,0,0-.57,2.39v4.5H98.29v-8.57h1l.21,1.17h.06a2.57,2.57,0,0,1,1-1,3.06,3.06,0,0,1,1.49-.35,2.54,2.54,0,0,1,2.63,1.45h.06a2.77,2.77,0,0,1,1.11-1.06,3.48,3.48,0,0,1,1.66-.39,2.91,2.91,0,0,1,2.17.74,3.32,3.32,0,0,1,.73,2.39v5.59Z"/><path class="cls-2" d="M113.06,201.25a.85.85,0,0,1,.22-.65.75.75,0,0,1,.54-.21.76.76,0,0,1,.54.21.86.86,0,0,1,.23.65.9.9,0,0,1-.23.66.76.76,0,0,1-.54.21.75.75,0,0,1-.54-.21A.89.89,0,0,1,113.06,201.25Zm1.41,10.89h-1.3v-8.57h1.3Z"/><path class="cls-2" d="M120.83,212.29a3.93,3.93,0,0,1-3-1.15,4.46,4.46,0,0,1-1.1-3.22,4.93,4.93,0,0,1,1-3.28,3.36,3.36,0,0,1,2.74-1.22,3.2,3.2,0,0,1,2.54,1.06,4,4,0,0,1,.94,2.79v.82h-5.9a3.43,3.43,0,0,0,.76,2.29,2.65,2.65,0,0,0,2,.78,6.8,6.8,0,0,0,2.73-.58v1.16a6.3,6.3,0,0,1-1.3.42A7,7,0,0,1,120.83,212.29Zm-.35-7.79a2.12,2.12,0,0,0-1.64.67,3.15,3.15,0,0,0-.73,1.86h4.48a2.8,2.8,0,0,0-.55-1.87A1.9,1.9,0,0,0,120.48,204.5Z"/><path class="cls-2" d="M125.15,216a3.13,3.13,0,0,1-1.2-.2v-1.05a4,4,0,0,0,1.06.16,1.1,1.1,0,0,0,.9-.34,1.52,1.52,0,0,0,.28-1v-10h1.3v9.88C127.49,215.14,126.71,216,125.15,216Zm.93-14.73a.85.85,0,0,1,.22-.65.81.81,0,0,1,1.09,0,.85.85,0,0,1,.22.65.89.89,0,0,1-.22.66.81.81,0,0,1-1.09,0A.89.89,0,0,1,126.08,201.25Z"/><path class="cls-2" d="M135.76,209.8a2.12,2.12,0,0,1-.89,1.84,4.13,4.13,0,0,1-2.5.65,5.4,5.4,0,0,1-2.65-.54v-1.2A6.3,6.3,0,0,0,131,211a5.53,5.53,0,0,0,1.36.18,3.2,3.2,0,0,0,1.57-.32,1.13,1.13,0,0,0,.11-1.85,7.56,7.56,0,0,0-1.69-.84,8.65,8.65,0,0,1-1.7-.77,2.35,2.35,0,0,1-.75-.76,1.89,1.89,0,0,1-.25-1,1.93,1.93,0,0,1,.85-1.65,4,4,0,0,1,2.34-.6,6.74,6.74,0,0,1,2.7.56l-.46,1.05a6.29,6.29,0,0,0-2.33-.53,2.76,2.76,0,0,0-1.4.29.89.89,0,0,0-.46.8.93.93,0,0,0,.17.58,1.74,1.74,0,0,0,.57.47,14.73,14.73,0,0,0,1.5.63,5.62,5.62,0,0,1,2.06,1.12A2,2,0,0,1,135.76,209.8Z"/><path class="cls-2" d="M141.29,212.29a3.66,3.66,0,0,1-2.88-1.14,4.73,4.73,0,0,1-1-3.24,4.86,4.86,0,0,1,1-3.32,3.73,3.73,0,0,1,2.95-1.17,5.71,5.71,0,0,1,1.23.13,4.1,4.1,0,0,1,1,.31l-.4,1.1a6,6,0,0,0-.93-.28,3.92,3.92,0,0,0-.9-.11c-1.74,0-2.61,1.1-2.61,3.32a4,4,0,0,0,.64,2.43,2.2,2.2,0,0,0,1.88.84,5.75,5.75,0,0,0,2.2-.46v1.15A4.82,4.82,0,0,1,141.29,212.29Z"/><path class="cls-2" d="M149.11,212.29a3.93,3.93,0,0,1-3-1.15,4.51,4.51,0,0,1-1.1-3.22,4.93,4.93,0,0,1,1-3.28,3.36,3.36,0,0,1,2.74-1.22,3.23,3.23,0,0,1,2.55,1.06,4.05,4.05,0,0,1,.93,2.79v.82h-5.89a3.38,3.38,0,0,0,.76,2.29,2.63,2.63,0,0,0,2,.78,6.85,6.85,0,0,0,2.74-.58v1.16a6.5,6.5,0,0,1-1.3.42A7.08,7.08,0,0,1,149.11,212.29Zm-.36-7.79a2.15,2.15,0,0,0-1.64.67,3.08,3.08,0,0,0-.72,1.86h4.47a2.86,2.86,0,0,0-.54-1.87A1.93,1.93,0,0,0,148.75,204.5Z"/></g></g><g id="Wybierz_rzeczy-2" data-name="Wybierz rzeczy" class="cls-1"><g class="cls-1"><path class="cls-2" d="M70,141.08H60.85v-1.46L67.33,130H61v-1.8h8.85v1.47l-6.51,9.58H70Z"/><path class="cls-2" d="M75.38,141.25a3.4,3.4,0,0,1-2.84-1.31,7.24,7.24,0,0,1,0-7.43,3.41,3.41,0,0,1,2.86-1.33,3.34,3.34,0,0,1,2.92,1.42h.1a13.92,13.92,0,0,1-.14-1.66V127.4h2.07v13.68H78.74l-.36-1.28h-.09A3.31,3.31,0,0,1,75.38,141.25Zm.55-1.67a2.22,2.22,0,0,0,1.85-.71,3.74,3.74,0,0,0,.6-2.33v-.29a4.36,4.36,0,0,0-.6-2.61,2.22,2.22,0,0,0-1.87-.77,1.91,1.91,0,0,0-1.68.88,4.56,4.56,0,0,0-.59,2.52,4.44,4.44,0,0,0,.58,2.47A1.93,1.93,0,0,0,75.93,139.58Z"/><path class="cls-2" d="M87.56,141.25A4.71,4.71,0,0,1,84,139.93a5,5,0,0,1-1.28-3.64,5.53,5.53,0,0,1,1.19-3.75,4.12,4.12,0,0,1,3.26-1.36,4,4,0,0,1,3,1.17,4.44,4.44,0,0,1,1.12,3.22v1.11H84.86a3.2,3.2,0,0,0,.76,2.18,2.65,2.65,0,0,0,2,.76,7.45,7.45,0,0,0,1.61-.16,8.54,8.54,0,0,0,1.59-.54v1.67a6.26,6.26,0,0,1-1.53.51A9.24,9.24,0,0,1,87.56,141.25Zm-.38-8.5a2.06,2.06,0,0,0-1.58.62,3,3,0,0,0-.71,1.82h4.42a2.7,2.7,0,0,0-.58-1.82A2,2,0,0,0,87.18,132.75Z"/><path class="cls-2" d="M97.6,141.25A4.25,4.25,0,0,1,94.25,140a6.52,6.52,0,0,1,0-7.47,4.46,4.46,0,0,1,3.47-1.32,6.5,6.5,0,0,1,2.77.57l-.62,1.66a6.32,6.32,0,0,0-2.17-.51c-1.68,0-2.52,1.12-2.52,3.35a4,4,0,0,0,.63,2.46,2.17,2.17,0,0,0,1.84.82,5.35,5.35,0,0,0,2.61-.68v1.8a4.14,4.14,0,0,1-1.18.46A6.76,6.76,0,0,1,97.6,141.25Z"/><path class="cls-2" d="M101.12,131.36h2.25l2,5.51a10.27,10.27,0,0,1,.59,2.21H106a10.92,10.92,0,0,1,.29-1.17c.15-.46.89-2.64,2.24-6.55h2.23l-4.16,11q-1.12,3-3.78,3a5.9,5.9,0,0,1-1.33-.15v-1.63a4.83,4.83,0,0,0,1.06.1,2.16,2.16,0,0,0,2.1-1.73l.36-.91Z"/><path class="cls-2" d="M115.52,141.25a3.39,3.39,0,0,1-2.83-1.31,7.24,7.24,0,0,1,0-7.43,3.41,3.41,0,0,1,2.86-1.33,3.34,3.34,0,0,1,2.92,1.42h.1a12.39,12.39,0,0,1-.15-1.66V127.4h2.08v13.68h-1.62l-.36-1.28h-.1A3.29,3.29,0,0,1,115.52,141.25Zm.56-1.67a2.22,2.22,0,0,0,1.85-.71,3.74,3.74,0,0,0,.6-2.33v-.29a4.36,4.36,0,0,0-.6-2.61,2.23,2.23,0,0,0-1.87-.77,1.89,1.89,0,0,0-1.68.88,4.56,4.56,0,0,0-.59,2.52,4.44,4.44,0,0,0,.57,2.47A2,2,0,0,0,116.08,139.58Z"/><path class="cls-2" d="M130.32,141.08,130,139.8h-.11a3,3,0,0,1-1.22,1.07,4.23,4.23,0,0,1-1.82.38,3.55,3.55,0,0,1-2.64-.88,3.63,3.63,0,0,1-.87-2.66v-6.35h2.09v6a2.65,2.65,0,0,0,.45,1.68,1.77,1.77,0,0,0,1.44.55,2.31,2.31,0,0,0,1.91-.77,4.28,4.28,0,0,0,.61-2.61v-4.84h2.07v9.72Z"/><path class="cls-2" d="M133.89,145.4a4.52,4.52,0,0,1-1.54-.22v-1.63a5,5,0,0,0,1.22.16q1.32,0,1.32-1.5V131.36H137v11a3.09,3.09,0,0,1-.78,2.28A3.16,3.16,0,0,1,133.89,145.4Zm.87-16.62a1.15,1.15,0,0,1,.31-.85,1.17,1.17,0,0,1,.86-.3,1,1,0,0,1,1.15,1.15,1.13,1.13,0,0,1-.3.83,1.15,1.15,0,0,1-.85.31,1.17,1.17,0,0,1-.86-.31A1.13,1.13,0,0,1,134.76,128.78Z"/><path class="cls-2" d="M146.58,136l1.17-1.46,2.93-3.13h2.38l-3.91,4.17,4.16,5.55h-2.43l-3.12-4.26-1.13.93v3.33h-2V127.4h2v6.67l-.11,1.88Z"/><path class="cls-2" d="M163.5,136.2a5.28,5.28,0,0,1-1.23,3.72,4.36,4.36,0,0,1-3.4,1.33,4.67,4.67,0,0,1-2.41-.61,4.05,4.05,0,0,1-1.6-1.77,6,6,0,0,1-.57-2.67,5.25,5.25,0,0,1,1.22-3.69,4.36,4.36,0,0,1,3.42-1.33,4.26,4.26,0,0,1,3.33,1.36A5.2,5.2,0,0,1,163.5,136.2Zm-7.08,0c0,2.24.83,3.37,2.49,3.37s2.46-1.13,2.46-3.37-.83-3.33-2.48-3.33a2.1,2.1,0,0,0-1.88.86A4.37,4.37,0,0,0,156.42,136.2Z"/><path class="cls-2" d="M174.06,141.08H172v-6a2.72,2.72,0,0,0-.43-1.66,1.54,1.54,0,0,0-1.31-.55,2,2,0,0,0-1.76.78,4.58,4.58,0,0,0-.56,2.59v4.84h-2.06v-9.72h1.62l.29,1.27h.1a2.7,2.7,0,0,1,1.17-1.07,3.85,3.85,0,0,1,1.7-.38,3,3,0,0,1,3,1.53h.14a2.92,2.92,0,0,1,1.21-1.12,3.84,3.84,0,0,1,1.79-.41,3.26,3.26,0,0,1,2.54.88,3.9,3.9,0,0,1,.79,2.68v6.34h-2.06v-6a2.66,2.66,0,0,0-.43-1.66,1.55,1.55,0,0,0-1.32-.55,2,2,0,0,0-1.76.75,3.89,3.89,0,0,0-.56,2.31Z"/><path class="cls-2" d="M189.93,141.08l-.29-1.28h-.1a3,3,0,0,1-1.23,1.07,4.18,4.18,0,0,1-1.81.38,3.55,3.55,0,0,1-2.64-.88,3.63,3.63,0,0,1-.87-2.66v-6.35h2.08v6a2.59,2.59,0,0,0,.46,1.68,1.74,1.74,0,0,0,1.43.55,2.29,2.29,0,0,0,1.91-.77,4.28,4.28,0,0,0,.61-2.61v-4.84h2.08v9.72Z"/><path class="cls-2" d="M71.55,162.85a4.27,4.27,0,0,1-3.35-1.28,5.36,5.36,0,0,1-1.15-3.7,5.42,5.42,0,0,1,1.2-3.77,4.44,4.44,0,0,1,3.47-1.32,6.49,6.49,0,0,1,2.76.57L73.86,155a6.22,6.22,0,0,0-2.16-.51c-1.68,0-2.52,1.12-2.52,3.35a4.09,4.09,0,0,0,.62,2.46,2.18,2.18,0,0,0,1.85.82,5.35,5.35,0,0,0,2.61-.68v1.8a4.2,4.2,0,0,1-1.19.46A6.67,6.67,0,0,1,71.55,162.85Z"/><path class="cls-2" d="M85.09,162.68H83v-6a2.63,2.63,0,0,0-.45-1.68,1.76,1.76,0,0,0-1.44-.55,2.26,2.26,0,0,0-1.91.78,4.25,4.25,0,0,0-.61,2.6v4.83H76.54V149h2.07v3.47a16.49,16.49,0,0,1-.11,1.79h.13a2.83,2.83,0,0,1,1.18-1.09,3.73,3.73,0,0,1,1.75-.39c2.36,0,3.53,1.19,3.53,3.56Z"/><path class="cls-2" d="M91.89,162.85a4.31,4.31,0,0,1-3.36-1.28,6.55,6.55,0,0,1,.06-7.47,4.43,4.43,0,0,1,3.46-1.32,6.5,6.5,0,0,1,2.77.57L94.2,155A6.27,6.27,0,0,0,92,154.5c-1.69,0-2.53,1.12-2.53,3.35a4,4,0,0,0,.63,2.46,2.18,2.18,0,0,0,1.84.82,5.35,5.35,0,0,0,2.61-.68v1.8a4.14,4.14,0,0,1-1.18.46A6.72,6.72,0,0,1,91.89,162.85Z"/><path class="cls-2" d="M101.12,162.85a4.69,4.69,0,0,1-3.54-1.32,5,5,0,0,1-1.28-3.64,5.48,5.48,0,0,1,1.19-3.75,4.11,4.11,0,0,1,3.26-1.36,4,4,0,0,1,3,1.17,4.48,4.48,0,0,1,1.11,3.22v1.11H98.43a3.2,3.2,0,0,0,.76,2.18,2.65,2.65,0,0,0,2,.76,8,8,0,0,0,1.6-.16,8.62,8.62,0,0,0,1.6-.54v1.67a6.26,6.26,0,0,1-1.53.51A9.28,9.28,0,0,1,101.12,162.85Zm-.37-8.5a2,2,0,0,0-1.58.62,3,3,0,0,0-.71,1.82h4.41a2.69,2.69,0,0,0-.58-1.83A2,2,0,0,0,100.75,154.35Z"/><path class="cls-2" d="M113.78,159.91a2.53,2.53,0,0,1-1,2.18,4.94,4.94,0,0,1-3,.76,6.94,6.94,0,0,1-3.12-.59v-1.78a7.66,7.66,0,0,0,3.19.79c1.27,0,1.91-.38,1.91-1.15a.93.93,0,0,0-.21-.62,2.58,2.58,0,0,0-.7-.51,12.8,12.8,0,0,0-1.34-.59,6.3,6.3,0,0,1-2.27-1.3,2.4,2.4,0,0,1-.59-1.69,2.22,2.22,0,0,1,1-1.94,4.77,4.77,0,0,1,2.74-.69,7.65,7.65,0,0,1,3.24.7L113,155a7.24,7.24,0,0,0-2.64-.65c-1.09,0-1.64.31-1.64.93a1,1,0,0,0,.43.78A9.23,9.23,0,0,0,111,157a8.64,8.64,0,0,1,1.75.85,2.61,2.61,0,0,1,.81.89A2.67,2.67,0,0,1,113.78,159.91Z"/><path class="cls-2" d="M122.51,162.68h-7.38V161.4l4.92-6.86h-4.62V153h6.94v1.44l-4.81,6.7h5Z"/><path class="cls-2" d="M134.22,162.85a3.4,3.4,0,0,1-2.86-1.32h-.12c.08.82.12,1.31.12,1.49v4h-2.07V153H131c0,.18.15.61.29,1.3h.11a3.22,3.22,0,0,1,2.9-1.48,3.36,3.36,0,0,1,2.83,1.32,5.92,5.92,0,0,1,1,3.7,6,6,0,0,1-1,3.72A3.41,3.41,0,0,1,134.22,162.85Zm-.5-8.38a2.12,2.12,0,0,0-1.79.72,3.72,3.72,0,0,0-.57,2.3v.31a4.6,4.6,0,0,0,.56,2.57,2.11,2.11,0,0,0,1.84.8,1.88,1.88,0,0,0,1.65-.88,4.53,4.53,0,0,0,.58-2.51,4.31,4.31,0,0,0-.58-2.47A1.91,1.91,0,0,0,133.72,154.47Z"/><path class="cls-2" d="M149.13,157.8a5.33,5.33,0,0,1-1.22,3.72,4.39,4.39,0,0,1-3.4,1.33,4.67,4.67,0,0,1-2.41-.61,4.07,4.07,0,0,1-1.61-1.77,6.1,6.1,0,0,1-.56-2.67,5.24,5.24,0,0,1,1.21-3.69,4.39,4.39,0,0,1,3.42-1.33,4.26,4.26,0,0,1,3.34,1.36A5.23,5.23,0,0,1,149.13,157.8Zm-7.08,0c0,2.24.83,3.37,2.49,3.37S147,160,147,157.8s-.82-3.33-2.48-3.33a2.12,2.12,0,0,0-1.88.86A4.37,4.37,0,0,0,142.05,157.8Z"/><path class="cls-2" d="M159.69,162.68h-2.07v-6a2.7,2.7,0,0,0-.42-1.66,1.55,1.55,0,0,0-1.32-.55,2,2,0,0,0-1.75.78,4.48,4.48,0,0,0-.56,2.58v4.85H151.5V153h1.62l.29,1.27h.11a2.7,2.7,0,0,1,1.17-1.07,3.81,3.81,0,0,1,1.69-.38,2.94,2.94,0,0,1,3,1.53h.14a2.88,2.88,0,0,1,1.22-1.12,3.81,3.81,0,0,1,1.79-.41,3.24,3.24,0,0,1,2.53.88,3.9,3.9,0,0,1,.8,2.68v6.34h-2.07v-6a2.7,2.7,0,0,0-.42-1.66,1.58,1.58,0,0,0-1.33-.55,2,2,0,0,0-1.76.75,3.89,3.89,0,0,0-.56,2.31Z"/><path class="cls-2" d="M177.33,157.8a5.28,5.28,0,0,1-1.22,3.72,4.37,4.37,0,0,1-3.4,1.33,4.67,4.67,0,0,1-2.41-.61,4.13,4.13,0,0,1-1.61-1.77,6.1,6.1,0,0,1-.56-2.67,5.29,5.29,0,0,1,1.21-3.69,4.39,4.39,0,0,1,3.42-1.33,4.26,4.26,0,0,1,3.34,1.36A5.23,5.23,0,0,1,177.33,157.8Zm-7.07,0c0,2.24.83,3.37,2.49,3.37s2.46-1.13,2.46-3.37-.83-3.33-2.48-3.33a2.13,2.13,0,0,0-1.89.86A4.38,4.38,0,0,0,170.26,157.8Zm1.13-6v-.22c.34-.41.68-.87,1-1.37s.63-.94.83-1.29h2.4v.18a18.31,18.31,0,0,1-1.36,1.39,20,20,0,0,1-1.54,1.31Z"/><path class="cls-2" d="M183.63,162.85a4.31,4.31,0,0,1-3.36-1.28,6.55,6.55,0,0,1,.06-7.47,4.43,4.43,0,0,1,3.46-1.32,6.5,6.5,0,0,1,2.77.57l-.62,1.66a6.27,6.27,0,0,0-2.16-.51c-1.69,0-2.53,1.12-2.53,3.35a4,4,0,0,0,.63,2.46,2.18,2.18,0,0,0,1.84.82,5.35,5.35,0,0,0,2.61-.68v1.8a4,4,0,0,1-1.18.46A6.72,6.72,0,0,1,183.63,162.85Z"/></g></g><line id="Line" class="cls-3" x1="91.5" y1="173.49" x2="161.5" y2="173.49"/><circle class="cls-4" cx="117.04" cy="74.68" r="21.82"/><path class="cls-4" d="M138.16,91.94a27.29,27.29,0,1,0-3.86,3.86l13.55,13.54a2.72,2.72,0,0,0,3.85,0,2.69,2.69,0,0,0,0-3.85L141.06,94.84"/></g></svg>