<svg id="Warstwa_1" data-name="Warstwa 1" xmlns="http://www.w3.org/2000/svg" xmlns:xlink="http://www.w3.org/1999/xlink" viewBox="0 0 500 50"><defs><style>.cls-1{fill:none;}.cls-2{clip-path:url(#clip-path);}.cls-3{fill:#1a1818;}</style><clipPath id="clip-path"><rect class="cls-1" x="148.53" y="10.93" width="203.05" height="26.48"/></clipPath></defs><title>parzenica</title><g class="cls-2"><g id="Decoration"><g id="Path_40" data-name="Path 40"><path class="cls-3" d="M250.05,33.66a.71.71,0,0,1-.51-.21l0-.06-7.65-7.45,8.21-8,8.22,8-7.65,7.45-.05.06a.6.6,0,0,1-.51.21Zm-6.16-7.72,6.17,6,6.16-6-6.17-6Z"/></g><g id="Path_41" data-name="Path 41"><path class="cls-3" d="M250.05,27l-8.21-8,8.21-8,8.22,8Zm-6.16-8,6.16,6,6.17-6-6.17-6Z"/></g><g id="Line_17" data-name="Line 17"><path class="cls-3" d="M228.16,25.43h-78.9a.73.73,0,0,1,0-1.46h78.9a.73.73,0,1,1,0,1.46Z"/></g><g id="Path_42" data-name="Path 42"><path class="cls-3" d="M267.79,30.12l-5.12-5-2,2-10.6-10.33L239.46,27.11l-2-2-5.11,5-5-4.89a.72.72,0,1,1,1-1l4,3.92,4.09-4-1.73-1.69,4.78-4.66,2.76,2.69-3.76,3.66,1,1,10.59-10.32,10.6,10.32,1-1-3.76-3.66,2.76-2.68,4.78,4.66-1.73,1.68,4.09,4,4-3.92a.72.72,0,0,1,1,0,.71.71,0,0,1,0,1ZM260,20.47l2.72,2.66.71-.68-2.73-2.66Zm-23.22,2,.71.68,2.72-2.66-.7-.68Z"/></g><g id="Line_18" data-name="Line 18"><path class="cls-3" d="M350.85,25.43H272A.73.73,0,0,1,272,24h78.9a.73.73,0,1,1,0,1.46Z"/></g><g id="Rectangle_9" data-name="Rectangle 9"><path class="cls-3" d="M250,37.42l-5.08-5.08,5.19-5.18,5.07,5.08Zm-3-5.08,3,3,3.15-3.15-3-3.05Z"/></g><g id="Path_43" data-name="Path 43"><path class="cls-3" d="M260.06,32.88l-10-9.74-10,9.74-7.76-7.56-4.07,4h-3.74a.72.72,0,1,1,0-1.44h3.16l4.65-4.52,7.76,7.56,10-9.74,10,9.74,7.76-7.56,4.65,4.52h3.16a.72.72,0,0,1,0,1.44h-3.75l-4.06-4Z"/></g></g></g></svg>