<svg id="Warstwa_1" data-name="Warstwa 1" xmlns="http://www.w3.org/2000/svg" viewBox="0 0 155 324.95"><defs><style>.cls-1,.cls-4{fill:none;}.cls-1{stroke:#707070;}.cls-2{isolation:isolate;}.cls-3{fill:#3c3c3c;}.cls-4{stroke:#424242;stroke-linecap:round;stroke-linejoin:round;stroke-width:3px;}</style></defs><title>fundacje</title><line id="Line" class="cls-1" x1="43.51" y1="137.15" x2="113.51" y2="137.15"/><g id="Wybierz_rzeczy" data-name="Wybierz rzeczy" class="cls-2"><g class="cls-2"><path class="cls-3" d="M27.43,123.65H25.35V110.8H32.6v1.78H27.43v4h4.85v1.79H27.43Z"/><path class="cls-3" d="M45,110.8v8.32a4.94,4.94,0,0,1-.61,2.49,4.05,4.05,0,0,1-1.76,1.64,6.25,6.25,0,0,1-2.77.58,5.21,5.21,0,0,1-3.72-1.27,4.58,4.58,0,0,1-1.32-3.48V110.8h2.11v8.13a3.28,3.28,0,0,0,.73,2.35,3.08,3.08,0,0,0,2.27.75q3,0,3-3.12V110.8Z"/><path class="cls-3" d="M59,123.65H56.42L50.1,113.41H50l0,.57c.09,1.09.13,2.09.13,3v6.68H48.29V110.8h2.55L57.14,121h0c0-.14,0-.63-.07-1.47s0-1.51,0-2V110.8H59Z"/><path class="cls-3" d="M72.84,117.1A6.41,6.41,0,0,1,71.07,122,7.1,7.1,0,0,1,66,123.65H62.39V110.8h4a6.57,6.57,0,0,1,4.77,1.65A6.16,6.16,0,0,1,72.84,117.1Zm-2.22.07q0-4.61-4.31-4.61H64.49v9.32H66C69.08,121.88,70.62,120.31,70.62,117.17Z"/><path class="cls-3" d="M83.57,123.65l-1.28-3.57H77.37l-1.25,3.57H73.9l4.81-12.9H81l4.81,12.9Zm-1.84-5.38-1.2-3.5c-.09-.23-.21-.6-.37-1.1s-.26-.88-.32-1.11a20.55,20.55,0,0,1-.69,2.36L78,118.27Z"/><path class="cls-3" d="M93,112.42a3.47,3.47,0,0,0-2.84,1.28,6.72,6.72,0,0,0,0,7.12A3.51,3.51,0,0,0,93,122a7.52,7.52,0,0,0,1.59-.16q.77-.16,1.59-.42v1.8a9.45,9.45,0,0,1-3.43.58,5.46,5.46,0,0,1-4.33-1.71,7.14,7.14,0,0,1-1.51-4.89,7.89,7.89,0,0,1,.73-3.51,5.26,5.26,0,0,1,2.12-2.3,6.36,6.36,0,0,1,3.26-.8,8.07,8.07,0,0,1,3.64.82l-.75,1.75a14.13,14.13,0,0,0-1.38-.54A5.1,5.1,0,0,0,93,112.42Z"/><path class="cls-3" d="M97.28,127.24a4.28,4.28,0,0,1-1.44-.22v-1.77a5.51,5.51,0,0,0,1.28.18c1.15,0,1.72-.72,1.72-2.18V110.8H101v12.38a4.4,4.4,0,0,1-.93,3A3.52,3.52,0,0,1,97.28,127.24Z"/><path class="cls-3" d="M115.69,117.21a7,7,0,0,1-1.57,4.88,5.65,5.65,0,0,1-4.44,1.74,5.72,5.72,0,0,1-4.47-1.73,7.08,7.08,0,0,1-1.56-4.91,7,7,0,0,1,1.57-4.89,5.81,5.81,0,0,1,4.48-1.7,5.67,5.67,0,0,1,4.43,1.73A7,7,0,0,1,115.69,117.21Zm-9.81,0a5.76,5.76,0,0,0,1,3.6,3.92,3.92,0,0,0,5.67,0,7.33,7.33,0,0,0,0-7.2,3.36,3.36,0,0,0-2.82-1.22,3.42,3.42,0,0,0-2.85,1.22A5.73,5.73,0,0,0,105.88,117.21Z"/><path class="cls-3" d="M124,123.65l-3.73-10.73h-.07c.1,1.59.15,3.09.15,4.48v6.25h-1.91V110.8h3L125,121H125l3.67-10.22h3v12.85h-2V117.3c0-.64,0-1.47.05-2.5s.06-1.65.08-1.86h-.07l-3.86,10.71Z"/></g></g><path class="cls-4" d="M78.51,55.25c.82-2.57,2.9-5.68,5.67-5.68,2.3,0,4.54,2,4.54,5.27,0,3.69-4.16,9.11-10.21,12.59C72.46,64,68.3,58.53,68.3,54.84c0-3.31,2.24-5.27,4.54-5.27C75.61,49.57,77.69,52.68,78.51,55.25Z"/><path class="cls-4" d="M100.2,61.05a2.55,2.55,0,0,0-5.1,0V78.91"/><path class="cls-4" d="M105.31,72.53V57.22a2.56,2.56,0,0,0-5.11,0V72.53"/><path class="cls-4" d="M105.31,59.77a2.55,2.55,0,0,1,5.1,0V72.53"/><path class="cls-4" d="M110.41,63.6a2.55,2.55,0,0,1,5.1,0V80a14.58,14.58,0,0,1-1,5.38l-.48,1.2a14.39,14.39,0,0,0-1,5.38v2.31"/><path class="cls-4" d="M97.65,94.22h0a9.2,9.2,0,0,0-2.71-6.53,15.08,15.08,0,0,1-2-2.46L86.56,75.17h0a.22.22,0,0,1,0-.08,2.52,2.52,0,0,1-.34-1.28,2.56,2.56,0,0,1,4.54-1.61h0l4.4,5.43"/><path class="cls-4" d="M82.34,35.53a2.55,2.55,0,1,0,0,5.1H100.2"/><path class="cls-4" d="M93.82,30.43H78.51a2.55,2.55,0,0,0,0,5.1H93.82"/><path class="cls-4" d="M81.06,30.43a2.56,2.56,0,0,1,0-5.11H93.82"/><path class="cls-4" d="M84.89,25.32a2.55,2.55,0,1,1,0-5.1h16.35a14.58,14.58,0,0,1,5.38,1l1.2.48a14.39,14.39,0,0,0,5.38,1h2.31"/><path class="cls-4" d="M115.51,38.08h0A9.24,9.24,0,0,0,109,40.79a14.56,14.56,0,0,1-2.46,2L96.46,49.17h0a.13.13,0,0,1-.09,0,2.47,2.47,0,0,1-1.27.35A2.57,2.57,0,0,1,93.49,45h0l5.43-4.4"/><path class="cls-4" d="M56.82,53.39a2.55,2.55,0,1,0,5.1,0V35.53"/><path class="cls-4" d="M51.72,41.91V57.22a2.55,2.55,0,1,0,5.1,0V41.91"/><path class="cls-4" d="M51.72,54.67a2.56,2.56,0,0,1-5.11,0V41.91"/><path class="cls-4" d="M46.61,50.84a2.55,2.55,0,1,1-5.1,0V34.49a14.58,14.58,0,0,1,1-5.38l.48-1.2a14.39,14.39,0,0,0,1-5.38V20.22"/><path class="cls-4" d="M59.37,20.22h0a9.2,9.2,0,0,0,2.71,6.53,14.56,14.56,0,0,1,2,2.46l6.41,10.06h0a.13.13,0,0,1,.05.09,2.47,2.47,0,0,1,.35,1.27,2.56,2.56,0,0,1-4.55,1.61h0l-4.4-5.43"/><path class="cls-4" d="M74.68,78.91a2.55,2.55,0,1,0,0-5.1H56.82"/><path class="cls-4" d="M63.2,84H78.51a2.56,2.56,0,0,0,0-5.11H63.2"/><path class="cls-4" d="M76,84a2.55,2.55,0,1,1,0,5.1H63.2"/><path class="cls-4" d="M72.13,89.12a2.55,2.55,0,1,1,0,5.1H55.78a14.58,14.58,0,0,1-5.38-1l-1.2-.48a14.35,14.35,0,0,0-5.38-1H41.51"/><path class="cls-4" d="M41.51,76.36h0A9.2,9.2,0,0,0,48,73.65a15.08,15.08,0,0,1,2.46-2l10.06-6.41h0a.19.19,0,0,1,.09,0,2.46,2.46,0,0,1,1.27-.34,2.55,2.55,0,0,1,1.61,4.54h0l-5.43,4.4"/><path d="M24.23,159.44h-.47L22,153.1c-.15-.52-.26-.94-.33-1.28-.06.33-.15.7-.26,1.13s-.71,2.58-1.81,6.49h-.48l-2.26-8.21h.6l1.44,5.29c.06.21.11.41.16.59s.09.35.13.51.07.31.11.46.06.3.08.45c.09-.51.28-1.28.57-2.32l1.41-5h.63l1.65,5.71c.19.66.33,1.19.41,1.6.05-.27.11-.56.19-.86s.65-2.45,1.73-6.45h.58Z"/><path d="M35.05,159.44v-4a1.93,1.93,0,0,0-.39-1.34,1.56,1.56,0,0,0-1.2-.42,2.11,2.11,0,0,0-1.6.55,2.62,2.62,0,0,0-.51,1.8v3.37h-.56v-6.11h.47l.11.84h0a2.3,2.3,0,0,1,2.12-.95c1.39,0,2.08.74,2.08,2.23v4Z"/><path d="M41.28,159.44l-.14-1h0a3,3,0,0,1-1,.84,2.57,2.57,0,0,1-1.15.24,2,2,0,0,1-1.4-.46,1.66,1.66,0,0,1-.5-1.28,1.56,1.56,0,0,1,.75-1.38,3.93,3.93,0,0,1,2.15-.52l1.16,0v-.4a2.08,2.08,0,0,0-.35-1.32,1.4,1.4,0,0,0-1.14-.44,3.9,3.9,0,0,0-1.76.47l-.2-.48a4.55,4.55,0,0,1,2-.47,2,2,0,0,1,1.5.52,2.26,2.26,0,0,1,.5,1.63v4.06ZM39,159a2.1,2.1,0,0,0,1.54-.55,2.13,2.13,0,0,0,.56-1.56v-.6l-1.07,0a4,4,0,0,0-1.83.4,1.3,1.3,0,0,0-.2,1.95A1.46,1.46,0,0,0,39,159Z"/><path d="M47.45,157.85a1.44,1.44,0,0,1-.62,1.26,3.09,3.09,0,0,1-1.77.44,4.23,4.23,0,0,1-1.94-.38v-.6a4.23,4.23,0,0,0,1.94.46,2.55,2.55,0,0,0,1.37-.3.89.89,0,0,0,.47-.8,1,1,0,0,0-.37-.77,4.07,4.07,0,0,0-1.23-.62A6.6,6.6,0,0,1,44,156a1.71,1.71,0,0,1-.56-.54,1.3,1.3,0,0,1-.19-.73,1.25,1.25,0,0,1,.58-1.09,2.82,2.82,0,0,1,1.6-.39,4.78,4.78,0,0,1,1.88.37l-.21.5a4.33,4.33,0,0,0-1.67-.37,2.35,2.35,0,0,0-1.18.25.75.75,0,0,0-.44.68,1,1,0,0,0,.34.77,4.94,4.94,0,0,0,1.33.64,6.61,6.61,0,0,1,1.2.53,1.86,1.86,0,0,1,.57.54A1.43,1.43,0,0,1,47.45,157.85Z"/><path d="M52.82,159.44H48.46v-.36l3.63-5.25H48.73v-.5h4.08v.36l-3.64,5.25h3.65Z"/><path d="M56.79,159.55a2.62,2.62,0,0,1-2.07-.82,3.28,3.28,0,0,1-.75-2.3,3.59,3.59,0,0,1,.72-2.34,2.39,2.39,0,0,1,1.94-.87,2.1,2.1,0,0,1,1.7.75,3.07,3.07,0,0,1,.62,2v.45H54.56a2.86,2.86,0,0,0,.58,1.92,2.09,2.09,0,0,0,1.65.66,5,5,0,0,0,.92-.07,5.67,5.67,0,0,0,1-.31v.5a4.75,4.75,0,0,1-1,.31A5.77,5.77,0,0,1,56.79,159.55Zm-.16-5.84a1.83,1.83,0,0,0-1.42.58,2.79,2.79,0,0,0-.62,1.68h3.77a2.64,2.64,0,0,0-.46-1.66A1.5,1.5,0,0,0,56.63,153.71Z"/><path d="M59.82,162.2a1.82,1.82,0,0,1-.75-.14v-.48a2.74,2.74,0,0,0,.72.11c.57,0,.85-.33.85-1v-7.37h.55v7.29a1.76,1.76,0,0,1-.35,1.17A1.3,1.3,0,0,1,59.82,162.2Zm.74-10.56c0-.36.12-.54.35-.54a.34.34,0,0,1,.28.14.74.74,0,0,1,.09.4.76.76,0,0,1-.09.4.34.34,0,0,1-.28.14C60.68,152.18,60.56,152,60.56,151.64Z"/><path d="M68.8,153.22a2.31,2.31,0,0,1,1.93.8,3.71,3.71,0,0,1,.65,2.36,3.61,3.61,0,0,1-.68,2.34,2.37,2.37,0,0,1-1.92.83,2.49,2.49,0,0,1-1.17-.27,2,2,0,0,1-.83-.76h0l-.16.92h-.34V150.7h.55v2.2c0,.33,0,.63,0,.91l0,.47h0a2.32,2.32,0,0,1,.84-.81A2.54,2.54,0,0,1,68.8,153.22Zm0,.5a1.81,1.81,0,0,0-1.54.62,3.44,3.44,0,0,0-.47,2v.09a3.18,3.18,0,0,0,.49,2,1.81,1.81,0,0,0,1.51.6,1.76,1.76,0,0,0,1.51-.7,3.42,3.42,0,0,0,.5-2C70.79,154.6,70.12,153.72,68.79,153.72Z"/><path d="M76.78,159.44l-.14-1h0a2.91,2.91,0,0,1-1,.84,2.52,2.52,0,0,1-1.14.24,2,2,0,0,1-1.4-.46,1.63,1.63,0,0,1-.5-1.28,1.58,1.58,0,0,1,.74-1.38,4,4,0,0,1,2.16-.52l1.16,0v-.4a2.08,2.08,0,0,0-.36-1.32,1.37,1.37,0,0,0-1.14-.44,3.83,3.83,0,0,0-1.75.47l-.21-.48a4.56,4.56,0,0,1,2-.47,2,2,0,0,1,1.5.52,2.3,2.3,0,0,1,.5,1.63v4.06Zm-2.25-.4a1.94,1.94,0,0,0,2.11-2.11v-.6l-1.07,0a3.93,3.93,0,0,0-1.83.4,1.14,1.14,0,0,0-.55,1.06,1.12,1.12,0,0,0,.35.89A1.42,1.42,0,0,0,74.53,159Z"/><path d="M83,159.44H78.6v-.36l3.62-5.25H78.87v-.5H83v.36l-3.65,5.25H83Z"/><path d="M84.38,151.64q0-.54.36-.54a.32.32,0,0,1,.27.14.66.66,0,0,1,.1.4.68.68,0,0,1-.1.4.32.32,0,0,1-.27.14Q84.38,152.18,84.38,151.64Zm.64,7.8h-.56v-6.11H85Z"/><path d="M89.53,159.55a2.66,2.66,0,0,1-2.08-.82,3.33,3.33,0,0,1-.74-2.3,3.59,3.59,0,0,1,.72-2.34,2.38,2.38,0,0,1,1.94-.87,2.11,2.11,0,0,1,1.7.75,3.12,3.12,0,0,1,.62,2v.45h-4.4a2.91,2.91,0,0,0,.59,1.92,2.06,2.06,0,0,0,1.65.66,5.07,5.07,0,0,0,.92-.07,5.94,5.94,0,0,0,1-.31v.5a4.82,4.82,0,0,1-1,.31A5.64,5.64,0,0,1,89.53,159.55Zm-.16-5.84a1.83,1.83,0,0,0-1.42.58,2.73,2.73,0,0,0-.62,1.68H91.1a2.64,2.64,0,0,0-.46-1.66A1.52,1.52,0,0,0,89.37,153.71Z"/><path d="M100.16,159.44H95.8v-.36l3.62-5.25H96.06v-.5h4.09v.36l-3.65,5.25h3.66Z"/><path d="M105.92,159.44v-4a1.93,1.93,0,0,0-.39-1.34,1.56,1.56,0,0,0-1.2-.42,2.11,2.11,0,0,0-1.6.55,2.62,2.62,0,0,0-.51,1.8v3.37h-.56v-6.11h.47l.11.84h0a2.3,2.3,0,0,1,2.12-.95c1.39,0,2.08.74,2.08,2.23v4Z"/><path d="M112.15,159.44l-.14-1h0a3,3,0,0,1-1,.84,2.57,2.57,0,0,1-1.15.24,2,2,0,0,1-1.4-.46,1.66,1.66,0,0,1-.5-1.28,1.56,1.56,0,0,1,.75-1.38,3.93,3.93,0,0,1,2.15-.52l1.16,0v-.4a2.08,2.08,0,0,0-.35-1.32,1.4,1.4,0,0,0-1.14-.44,3.87,3.87,0,0,0-1.76.47l-.2-.48a4.55,4.55,0,0,1,2-.47,2,2,0,0,1,1.5.52,2.26,2.26,0,0,1,.5,1.63v4.06Zm-2.24-.4a2.1,2.1,0,0,0,1.54-.55,2.13,2.13,0,0,0,.56-1.56v-.6l-1.07,0a4,4,0,0,0-1.83.4,1.16,1.16,0,0,0-.55,1.06,1.12,1.12,0,0,0,.36.89A1.42,1.42,0,0,0,109.91,159Z"/><path d="M113.72,162.2a1.82,1.82,0,0,1-.75-.14v-.48a2.74,2.74,0,0,0,.72.11c.57,0,.85-.33.85-1v-7.37h.55v7.29a1.71,1.71,0,0,1-.35,1.17A1.3,1.3,0,0,1,113.72,162.2Zm.74-10.56c0-.36.12-.54.35-.54a.34.34,0,0,1,.28.14.74.74,0,0,1,.09.4.76.76,0,0,1-.09.4.34.34,0,0,1-.28.14C114.58,152.18,114.46,152,114.46,151.64Z"/><path d="M116.63,156.56v-.46h2.67v.46Z"/><path d="M19.78,167a2.57,2.57,0,0,1,1.15.24,2.22,2.22,0,0,1,.86.82h0c0-.47,0-.93,0-1.38v-2.2h.55v8.74H22l-.14-.93h-.05a2.26,2.26,0,0,1-2,1,2.38,2.38,0,0,1-1.93-.79,3.46,3.46,0,0,1-.67-2.29,3.79,3.79,0,0,1,.67-2.42A2.29,2.29,0,0,1,19.78,167Zm0,.5a1.71,1.71,0,0,0-1.5.7,3.45,3.45,0,0,0-.5,2c0,1.73.67,2.6,2,2.6a1.81,1.81,0,0,0,1.52-.61,3.2,3.2,0,0,0,.48-2v-.09a3.44,3.44,0,0,0-.47-2A1.83,1.83,0,0,0,19.78,167.52Z"/><path d="M28.19,173.24H23.83v-.36l3.62-5.25H24.09v-.5h4.09v.36l-3.65,5.25h3.66Z"/><path d="M29.61,165.44q0-.54.36-.54a.33.33,0,0,1,.27.14.74.74,0,0,1,.1.4.76.76,0,0,1-.1.4A.33.33,0,0,1,30,166Q29.61,166,29.61,165.44Zm.64,7.8h-.56v-6.11h.56Z"/><path d="M34.76,173.35a2.66,2.66,0,0,1-2.08-.82,3.33,3.33,0,0,1-.74-2.3,3.59,3.59,0,0,1,.72-2.34,2.37,2.37,0,0,1,1.93-.87,2.12,2.12,0,0,1,1.71.75,3.12,3.12,0,0,1,.62,2v.45h-4.4a2.86,2.86,0,0,0,.59,1.92,2.06,2.06,0,0,0,1.65.66,5,5,0,0,0,.91-.07,5.74,5.74,0,0,0,1-.31v.5a5,5,0,0,1-1,.31A5.64,5.64,0,0,1,34.76,173.35Zm-.17-5.84a1.81,1.81,0,0,0-1.41.58,2.73,2.73,0,0,0-.62,1.68h3.77a2.64,2.64,0,0,0-.46-1.66A1.52,1.52,0,0,0,34.59,167.51Z"/><path d="M42.39,171.65a1.45,1.45,0,0,1-.63,1.26,3,3,0,0,1-1.76.44,4.25,4.25,0,0,1-2-.38v-.6a4.27,4.27,0,0,0,2,.46,2.55,2.55,0,0,0,1.37-.3.91.91,0,0,0,.47-.8,1,1,0,0,0-.38-.77,4,4,0,0,0-1.22-.62,7.08,7.08,0,0,1-1.29-.57,1.82,1.82,0,0,1-.56-.54,1.39,1.39,0,0,1-.19-.73,1.28,1.28,0,0,1,.58-1.09,2.84,2.84,0,0,1,1.61-.39,4.73,4.73,0,0,1,1.87.37l-.2.5a4.37,4.37,0,0,0-1.67-.37,2.39,2.39,0,0,0-1.19.25.74.74,0,0,0-.43.68,1,1,0,0,0,.34.77,4.84,4.84,0,0,0,1.32.64,7.13,7.13,0,0,1,1.21.53,1.82,1.82,0,0,1,.56.54A1.34,1.34,0,0,1,42.39,171.65Z"/><path d="M47.76,173.24H43.4v-.36L47,167.63H43.66v-.5h4.08v.36l-3.64,5.25h3.66Z"/><path d="M52.8,173.24h-.55V164.5h.55Z"/><path d="M54.77,165.44c0-.36.12-.54.35-.54a.34.34,0,0,1,.28.14.74.74,0,0,1,.09.4.76.76,0,0,1-.09.4.34.34,0,0,1-.28.14C54.89,166,54.77,165.8,54.77,165.44Zm.63,7.8h-.55v-6.11h.55Z"/><path d="M61.23,171.65a1.46,1.46,0,0,1-.62,1.26,3.09,3.09,0,0,1-1.77.44A4.2,4.2,0,0,1,56.9,173v-.6a4.23,4.23,0,0,0,1.94.46,2.55,2.55,0,0,0,1.37-.3.89.89,0,0,0,.47-.8,1,1,0,0,0-.37-.77,4.07,4.07,0,0,0-1.23-.62,6.6,6.6,0,0,1-1.28-.57,1.71,1.71,0,0,1-.56-.54,1.3,1.3,0,0,1-.19-.73,1.27,1.27,0,0,1,.57-1.09,2.86,2.86,0,0,1,1.61-.39,4.78,4.78,0,0,1,1.88.37l-.21.5a4.33,4.33,0,0,0-1.67-.37,2.35,2.35,0,0,0-1.18.25.75.75,0,0,0-.44.68,1,1,0,0,0,.34.77,4.94,4.94,0,0,0,1.33.64,6.61,6.61,0,0,1,1.2.53,1.71,1.71,0,0,1,.56.54A1.34,1.34,0,0,1,61.23,171.65Z"/><path d="M64.42,172.86a4.15,4.15,0,0,0,.92-.09v.44a3,3,0,0,1-.94.14,1.52,1.52,0,0,1-1.19-.43,2,2,0,0,1-.38-1.36v-3.94h-.91v-.33l.91-.25.28-1.38h.28v1.47h1.8v.49h-1.8v3.86a1.81,1.81,0,0,0,.25,1A.92.92,0,0,0,64.42,172.86Z"/><path d="M69.12,173.35a2.62,2.62,0,0,1-2.07-.82,3.28,3.28,0,0,1-.75-2.3,3.59,3.59,0,0,1,.72-2.34A2.39,2.39,0,0,1,69,167a2.08,2.08,0,0,1,1.7.75,3.07,3.07,0,0,1,.62,2v.45H66.89a2.86,2.86,0,0,0,.58,1.92,2.09,2.09,0,0,0,1.65.66,5,5,0,0,0,.92-.07,5.67,5.67,0,0,0,1-.31v.5a4.75,4.75,0,0,1-1,.31A5.77,5.77,0,0,1,69.12,173.35ZM69,167.51a1.83,1.83,0,0,0-1.42.58,2.79,2.79,0,0,0-.62,1.68h3.77a2.64,2.64,0,0,0-.46-1.66A1.5,1.5,0,0,0,69,167.51Zm.9,6.91c0,.41.2.62.59.62a1.2,1.2,0,0,0,.46-.07v.47a1.57,1.57,0,0,1-.58.09,1,1,0,0,1-.75-.26,1,1,0,0,1-.28-.76,1.56,1.56,0,0,1,.23-.78,2.43,2.43,0,0,1,.63-.7h.5a3.19,3.19,0,0,0-.6.67A1.26,1.26,0,0,0,69.86,174.42Z"/><path d="M79.75,173.24H75.39v-.36L79,167.63H75.66v-.5h4.08v.36l-3.64,5.25h3.65Z"/><path d="M86.14,173.24l-1.34-4.08c-.09-.28-.2-.69-.33-1.22h0l-.11.41-.26.82-1.35,4.07h-.56l-1.74-6.11H81l1,3.54c.23.88.38,1.52.45,1.93h0c.22-.87.39-1.46.49-1.74l1.25-3.73h.51l1.2,3.71c.27.88.43,1.47.49,1.75h0q0-.36.45-2l.93-3.51h.57l-1.66,6.11Z"/><path d="M92,173.35a2.66,2.66,0,0,1-2.08-.82,3.33,3.33,0,0,1-.74-2.3,3.59,3.59,0,0,1,.72-2.34,2.38,2.38,0,0,1,1.94-.87,2.11,2.11,0,0,1,1.7.75,3.12,3.12,0,0,1,.62,2v.45H89.8a2.91,2.91,0,0,0,.59,1.92,2.06,2.06,0,0,0,1.65.66,5.07,5.07,0,0,0,.92-.07,5.94,5.94,0,0,0,1-.31v.5a4.82,4.82,0,0,1-1,.31A5.64,5.64,0,0,1,92,173.35Zm-.16-5.84a1.83,1.83,0,0,0-1.42.58,2.73,2.73,0,0,0-.62,1.68h3.77a2.64,2.64,0,0,0-.46-1.66A1.52,1.52,0,0,0,91.88,167.51Z"/><path d="M98.29,167a5,5,0,0,1,.83.07l-.11.54a3,3,0,0,0-.79-.1,1.54,1.54,0,0,0-1.28.66,2.75,2.75,0,0,0-.5,1.68v3.37h-.56v-6.11h.48l0,1.1h0a2.58,2.58,0,0,1,.81-.94A1.86,1.86,0,0,1,98.29,167Z"/><path d="M99.34,167.13h.57l1.29,3.43c.4,1.05.64,1.76.75,2.13h0c.16-.49.42-1.21.77-2.16l1.29-3.4h.58l-2.74,7.1a5.53,5.53,0,0,1-.55,1.16,1.44,1.44,0,0,1-.53.46,1.61,1.61,0,0,1-.73.15,2.45,2.45,0,0,1-.71-.12v-.48a2.63,2.63,0,0,0,.7.09,1,1,0,0,0,.51-.14,1.29,1.29,0,0,0,.39-.41,5,5,0,0,0,.41-.9c.16-.41.26-.68.3-.8Z"/><path d="M107.91,167.62h-1.44v5.62h-.56v-5.62h-1.13v-.33l1.13-.21v-.47a2.63,2.63,0,0,1,.42-1.65,1.6,1.6,0,0,1,1.35-.52,3.58,3.58,0,0,1,1,.15l-.13.48a3.11,3.11,0,0,0-.89-.14,1.05,1.05,0,0,0-.93.39,2.21,2.21,0,0,0-.27,1.25v.56h1.44Zm1.1-2.18c0-.36.12-.54.35-.54a.31.31,0,0,1,.27.14.66.66,0,0,1,.1.4.68.68,0,0,1-.1.4.31.31,0,0,1-.27.14C109.13,166,109,165.8,109,165.44Zm.63,7.8h-.55v-6.11h.55Z"/><path d="M112.23,170.56l3.12-3.43H116l-2.4,2.61,2.61,3.5h-.67l-2.32-3.09-1,.91v2.18h-.55V164.5h.55v4.38l0,1.68Z"/><path d="M122.3,170.18a3.42,3.42,0,0,1-.73,2.33,2.49,2.49,0,0,1-2,.84,2.59,2.59,0,0,1-1.42-.39,2.51,2.51,0,0,1-.94-1.11,4.15,4.15,0,0,1-.32-1.67,3.46,3.46,0,0,1,.72-2.33,2.48,2.48,0,0,1,2-.83,2.44,2.44,0,0,1,2,.84A3.46,3.46,0,0,1,122.3,170.18Zm-4.82,0a3.15,3.15,0,0,0,.55,2,2.1,2.1,0,0,0,3.13,0,3.09,3.09,0,0,0,.55-2,3,3,0,0,0-.55-2,1.9,1.9,0,0,0-1.57-.7,1.86,1.86,0,0,0-1.56.69A3.1,3.1,0,0,0,117.48,170.18Z"/><path d="M128.87,173.24l-1.34-4.08c-.08-.28-.19-.69-.33-1.22h0l-.12.41-.25.82-1.36,4.07h-.55l-1.75-6.11h.6l1,3.54c.23.88.38,1.52.45,1.93h0c.22-.87.38-1.46.48-1.74l1.26-3.73h.5l1.2,3.71c.27.88.43,1.47.49,1.75h0q0-.36.45-2l.93-3.51h.56l-1.66,6.11Z"/><path d="M136,173.24l-.14-1h0a3,3,0,0,1-1,.84,2.57,2.57,0,0,1-1.15.24,2,2,0,0,1-1.4-.46,1.66,1.66,0,0,1-.5-1.28,1.56,1.56,0,0,1,.75-1.38,3.93,3.93,0,0,1,2.15-.52l1.16,0v-.4a2.08,2.08,0,0,0-.35-1.32,1.4,1.4,0,0,0-1.14-.44,3.87,3.87,0,0,0-1.76.47l-.21-.48a4.59,4.59,0,0,1,2-.47,2,2,0,0,1,1.5.52,2.26,2.26,0,0,1,.5,1.63v4.06Zm-2.24-.4a2.1,2.1,0,0,0,1.54-.55,2.13,2.13,0,0,0,.56-1.56v-.6l-1.07.05a4,4,0,0,0-1.83.4,1.3,1.3,0,0,0-.2,1.95A1.46,1.46,0,0,0,133.77,172.84Z"/><path d="M137.89,170.36v-.46h2.67v.46Z"/><path d="M21.8,187v-4a2,2,0,0,0-.38-1.34,1.57,1.57,0,0,0-1.21-.42,2.07,2.07,0,0,0-1.6.55,2.62,2.62,0,0,0-.51,1.8V187h-.55v-6.11H18l.11.84h0a2.29,2.29,0,0,1,2.12-1q2.07,0,2.07,2.22v4Z"/><path d="M23.31,180.93h.57l1.29,3.43c.4,1,.64,1.76.75,2.13h0c.16-.49.42-1.21.77-2.16l1.29-3.4h.58L25.85,188a5.53,5.53,0,0,1-.55,1.16,1.44,1.44,0,0,1-.53.46,1.61,1.61,0,0,1-.73.15,2.45,2.45,0,0,1-.71-.12v-.48a2.63,2.63,0,0,0,.7.09,1,1,0,0,0,.51-.14,1.29,1.29,0,0,0,.39-.41,5,5,0,0,0,.41-.9c.16-.41.26-.68.3-.8Z"/><path d="M32.05,187.15a2.6,2.6,0,0,1-2-.83,3.28,3.28,0,0,1-.75-2.3,3.39,3.39,0,0,1,.77-2.36,2.73,2.73,0,0,1,2.11-.84,4.35,4.35,0,0,1,1.52.27l-.16.49a4.53,4.53,0,0,0-1.37-.26,2.08,2.08,0,0,0-1.7.69,3,3,0,0,0-.58,2,3,3,0,0,0,.58,1.94,2,2,0,0,0,1.61.69,4.15,4.15,0,0,0,1.55-.29v.51A3.51,3.51,0,0,1,32.05,187.15Z"/><path d="M39.33,187v-4a1.92,1.92,0,0,0-.39-1.34,1.56,1.56,0,0,0-1.2-.42,2.05,2.05,0,0,0-1.6.55,2.62,2.62,0,0,0-.51,1.8V187h-.56V178.3h.56v2.78l0,.78h0a2.12,2.12,0,0,1,.86-.8,3.11,3.11,0,0,1,1.3-.24c1.39,0,2.08.74,2.08,2.22v4Z"/><path d="M45.56,187H45v-8.21h4.5v.53H45.56v3.48h3.7v.53h-3.7Z"/><path d="M51.1,180.93v4a1.93,1.93,0,0,0,.39,1.34,1.57,1.57,0,0,0,1.2.41,2.08,2.08,0,0,0,1.6-.55,2.57,2.57,0,0,0,.51-1.79v-3.37h.55V187h-.47l-.1-.84h0a2.31,2.31,0,0,1-2.12,1c-1.39,0-2.08-.74-2.08-2.23v-4Z"/><path d="M61.65,187v-4a1.92,1.92,0,0,0-.38-1.34,1.56,1.56,0,0,0-1.2-.42,2.09,2.09,0,0,0-1.61.55,2.62,2.62,0,0,0-.51,1.8V187H57.4v-6.11h.47l.11.84h0a2.29,2.29,0,0,1,2.12-1q2.07,0,2.07,2.22v4Z"/><path d="M66.42,180.82a2.52,2.52,0,0,1,1.14.24,2.31,2.31,0,0,1,.87.82h0q0-.7,0-1.38v-2.2H69V187h-.37l-.14-.93h0a2.28,2.28,0,0,1-2,1,2.37,2.37,0,0,1-1.93-.79,3.4,3.4,0,0,1-.67-2.29,3.85,3.85,0,0,1,.66-2.42A2.3,2.3,0,0,1,66.42,180.82Zm0,.5a1.74,1.74,0,0,0-1.51.7,3.53,3.53,0,0,0-.5,2c0,1.73.67,2.6,2,2.6a1.79,1.79,0,0,0,1.51-.61,3.13,3.13,0,0,0,.49-2V184a3.36,3.36,0,0,0-.48-2A1.81,1.81,0,0,0,66.42,181.32Z"/><path d="M74.73,187l-.14-1h0a3.14,3.14,0,0,1-1,.84,2.57,2.57,0,0,1-1.15.24,2,2,0,0,1-1.4-.46,1.66,1.66,0,0,1-.5-1.28A1.56,1.56,0,0,1,71.3,184a4,4,0,0,1,2.15-.53l1.16,0v-.4a2.08,2.08,0,0,0-.35-1.32,1.4,1.4,0,0,0-1.14-.44,3.9,3.9,0,0,0-1.76.47l-.2-.48a4.55,4.55,0,0,1,2-.47,2,2,0,0,1,1.51.52,2.3,2.3,0,0,1,.49,1.63V187Zm-2.24-.4a1.94,1.94,0,0,0,2.1-2.11v-.6l-1.07,0a4,4,0,0,0-1.83.4,1.3,1.3,0,0,0-.2,2A1.46,1.46,0,0,0,72.49,186.64Z"/><path d="M79.56,187.15a2.6,2.6,0,0,1-2-.83,3.28,3.28,0,0,1-.75-2.3,3.39,3.39,0,0,1,.77-2.36,2.73,2.73,0,0,1,2.11-.84,4.35,4.35,0,0,1,1.52.27l-.15.49a4.65,4.65,0,0,0-1.38-.26,2.08,2.08,0,0,0-1.7.69,3,3,0,0,0-.58,2,3,3,0,0,0,.58,1.94,2,2,0,0,0,1.61.69,4.15,4.15,0,0,0,1.55-.29v.51A3.51,3.51,0,0,1,79.56,187.15Z"/><path d="M81.77,189.8a1.91,1.91,0,0,1-.76-.14v-.48a2.8,2.8,0,0,0,.72.11c.57,0,.85-.33.85-1v-7.37h.56v7.29a1.71,1.71,0,0,1-.36,1.17A1.27,1.27,0,0,1,81.77,189.8Zm.73-10.56q0-.54.36-.54a.33.33,0,0,1,.27.14.66.66,0,0,1,.1.4.68.68,0,0,1-.1.4.33.33,0,0,1-.27.14Q82.5,179.78,82.5,179.24Z"/><path d="M85.1,179.24q0-.54.36-.54a.33.33,0,0,1,.27.14.66.66,0,0,1,.1.4.68.68,0,0,1-.1.4.33.33,0,0,1-.27.14Q85.1,179.78,85.1,179.24Zm.64,7.8h-.56v-6.11h.56Z"/><path d="M88.42,185.7l.06.12a18.85,18.85,0,0,1-1,2.7h-.37a21.77,21.77,0,0,0,.62-2.82Z"/><path d="M97,187H92.68v-.36l3.62-5.25H92.94v-.5H97v.36l-3.64,5.25H97Z"/><path d="M102.07,184.36l3.12-3.43h.67l-2.4,2.61,2.61,3.5h-.67L103.08,184l-1,.91V187h-.55V178.3h.55v4.38l0,1.68Z"/><path d="M108.7,186.66a5,5,0,0,0,.93-.09V187a3,3,0,0,1-.94.14,1.54,1.54,0,0,1-1.19-.43,2,2,0,0,1-.38-1.36v-3.94h-.91v-.33l.91-.25.28-1.38h.28v1.47h1.79v.49h-1.79v3.86a1.73,1.73,0,0,0,.25,1A.9.9,0,0,0,108.7,186.66Z"/><path d="M116,184a3.47,3.47,0,0,1-.72,2.33,2.5,2.5,0,0,1-2,.84,2.59,2.59,0,0,1-1.42-.39,2.49,2.49,0,0,1-.93-1.11,4,4,0,0,1-.33-1.67,3.41,3.41,0,0,1,.73-2.33,2.77,2.77,0,0,1,4,0A3.51,3.51,0,0,1,116,184Zm-4.82,0a3.09,3.09,0,0,0,.56,2,2.1,2.1,0,0,0,3.13,0,3.15,3.15,0,0,0,.55-2,3.05,3.05,0,0,0-.56-2,2.11,2.11,0,0,0-3.13,0A3.16,3.16,0,0,0,111.17,184Zm1.55-4c.28-.3.55-.62.82-1a6.65,6.65,0,0,0,.54-.79h.8v.09a6.4,6.4,0,0,1-.69.78c-.33.32-.68.64-1.07,1h-.4Z"/><path d="M120.09,180.82a5.07,5.07,0,0,1,.83.07l-.11.54a3,3,0,0,0-.79-.1,1.54,1.54,0,0,0-1.28.66,2.75,2.75,0,0,0-.5,1.68V187h-.56v-6.11h.48l0,1.1h0a2.57,2.57,0,0,1,.8-.94A1.92,1.92,0,0,1,120.09,180.82Z"/><path d="M121.14,180.93h.57l1.29,3.43q.59,1.57.75,2.13h0c.16-.49.42-1.21.77-2.16l1.29-3.4h.58l-2.74,7.1a6.09,6.09,0,0,1-.55,1.16,1.52,1.52,0,0,1-.53.46,1.61,1.61,0,0,1-.73.15,2.45,2.45,0,0,1-.71-.12v-.48a2.63,2.63,0,0,0,.7.09,1,1,0,0,0,.51-.14,1.4,1.4,0,0,0,.39-.41,5,5,0,0,0,.41-.9c.16-.41.26-.68.3-.8Z"/><path d="M135.06,187v-4a1.94,1.94,0,0,0-.35-1.3,1.31,1.31,0,0,0-1.06-.41,1.73,1.73,0,0,0-1.39.52,2.41,2.41,0,0,0-.45,1.62V187h-.57v-4.17c0-1-.47-1.55-1.41-1.55a1.68,1.68,0,0,0-1.4.56,2.92,2.92,0,0,0-.44,1.79V187h-.55v-6.11h.46l.12.84h0a1.74,1.74,0,0,1,.72-.7,2.09,2.09,0,0,1,1-.25,1.75,1.75,0,0,1,1.85,1.08h0a2.05,2.05,0,0,1,.8-.8,2.29,2.29,0,0,1,1.14-.28,1.93,1.93,0,0,1,1.5.53,2.37,2.37,0,0,1,.5,1.69v4Z"/><path d="M137.51,179.24c0-.36.12-.54.35-.54a.34.34,0,0,1,.28.14.74.74,0,0,1,.1.4.76.76,0,0,1-.1.4.34.34,0,0,1-.28.14C137.63,179.78,137.51,179.6,137.51,179.24Zm.64,7.8h-.56v-6.11h.56Z"/><path d="M22.43,200.84l-1.34-4.09c-.09-.27-.2-.68-.33-1.21h0l-.11.41-.26.82L19,200.84h-.56l-1.74-6.11h.59l1,3.54c.23.88.38,1.52.45,1.93h0c.22-.87.39-1.46.49-1.74l1.25-3.73H21l1.2,3.71c.27.88.43,1.47.49,1.75h0q0-.36.45-1.95l.94-3.51h.56L23,200.84Z"/><path d="M29.65,199.25a1.46,1.46,0,0,1-.63,1.26,3,3,0,0,1-1.76.44,4.25,4.25,0,0,1-2-.38V200a4.27,4.27,0,0,0,2,.46,2.55,2.55,0,0,0,1.37-.3.91.91,0,0,0,.47-.8,1,1,0,0,0-.38-.77,4,4,0,0,0-1.22-.62,7.08,7.08,0,0,1-1.29-.57,1.82,1.82,0,0,1-.56-.54,1.39,1.39,0,0,1-.19-.73A1.28,1.28,0,0,1,26,195a2.84,2.84,0,0,1,1.61-.39,4.73,4.73,0,0,1,1.87.37l-.2.5a4.37,4.37,0,0,0-1.67-.37,2.39,2.39,0,0,0-1.19.25.74.74,0,0,0-.43.68,1,1,0,0,0,.34.77,4.69,4.69,0,0,0,1.32.64,7.13,7.13,0,0,1,1.21.53,1.82,1.82,0,0,1,.56.54A1.31,1.31,0,0,1,29.65,199.25Z"/><path d="M33.83,201a2.21,2.21,0,0,1-2-1.06h0v.48c0,.27,0,.58,0,.9v2.33h-.56v-8.87h.47l.11.87h0a2.2,2.2,0,0,1,2-1,2.28,2.28,0,0,1,1.89.81,3.71,3.71,0,0,1,.64,2.36,3.54,3.54,0,0,1-.68,2.33A2.28,2.28,0,0,1,33.83,201Zm0-.49a1.71,1.71,0,0,0,1.45-.7,3.25,3.25,0,0,0,.51-1.95c0-1.79-.64-2.69-1.94-2.69a1.93,1.93,0,0,0-1.56.59,2.89,2.89,0,0,0-.5,1.91v.18a3.36,3.36,0,0,0,.48,2A1.86,1.86,0,0,0,33.82,200.46Z"/><path d="M43.11,197.78a3.47,3.47,0,0,1-.72,2.33,2.5,2.5,0,0,1-2,.84,2.59,2.59,0,0,1-1.42-.39,2.49,2.49,0,0,1-.93-1.11,4,4,0,0,1-.33-1.67,3.39,3.39,0,0,1,.73-2.33,2.77,2.77,0,0,1,4,0A3.51,3.51,0,0,1,43.11,197.78Zm-4.81,0a3.09,3.09,0,0,0,.55,2,2.1,2.1,0,0,0,3.13,0,3.15,3.15,0,0,0,.55-2,3.05,3.05,0,0,0-.56-2,2.11,2.11,0,0,0-3.13,0A3.16,3.16,0,0,0,38.3,197.78Zm1.54-4c.28-.3.55-.62.82-1a6.65,6.65,0,0,0,.54-.79H42v.09a6.4,6.4,0,0,1-.69.78c-.33.32-.68.64-1.07,1h-.4Z"/><path d="M45.36,196.25l.86-.58.24.39-1.1.74v4H44.8v-3.67l-.72.48-.25-.4,1-.65v-4.5h.56Z"/><path d="M50,201a2.21,2.21,0,0,1-2-1.06h0l0,.48c0,.27,0,.58,0,.9v2.33H47.4v-8.87h.47l.11.87h0a2.21,2.21,0,0,1,2-1,2.26,2.26,0,0,1,1.88.81,3.71,3.71,0,0,1,.65,2.36,3.59,3.59,0,0,1-.68,2.33A2.31,2.31,0,0,1,50,201Zm0-.49a1.7,1.7,0,0,0,1.45-.7,3.18,3.18,0,0,0,.52-1.95c0-1.79-.65-2.69-1.94-2.69a1.94,1.94,0,0,0-1.57.59,3,3,0,0,0-.5,1.91v.18a3.36,3.36,0,0,0,.48,2A1.86,1.86,0,0,0,50,200.46Z"/><path d="M56.65,194.62a4.89,4.89,0,0,1,.83.07l-.1.54a3,3,0,0,0-.8-.1,1.55,1.55,0,0,0-1.28.66,2.75,2.75,0,0,0-.5,1.68v3.37h-.55v-6.11h.47l.06,1.1h0a2.59,2.59,0,0,1,.81-.94A1.88,1.88,0,0,1,56.65,194.62Z"/><path d="M62.43,200.84l-.14-1h0a3,3,0,0,1-.94.84,2.6,2.6,0,0,1-1.15.24,2,2,0,0,1-1.4-.46,1.66,1.66,0,0,1-.5-1.28,1.56,1.56,0,0,1,.75-1.38,4,4,0,0,1,2.15-.53l1.16,0v-.4a2.14,2.14,0,0,0-.35-1.32,1.4,1.4,0,0,0-1.14-.44,3.87,3.87,0,0,0-1.76.47l-.21-.48a4.59,4.59,0,0,1,2-.47,2,2,0,0,1,1.5.52,2.3,2.3,0,0,1,.5,1.63v4.06Zm-2.25-.4a2,2,0,0,0,2.11-2.11v-.6l-1.07.05a3.93,3.93,0,0,0-1.83.4,1.3,1.3,0,0,0-.2,1.95A1.45,1.45,0,0,0,60.18,200.44Z"/><path d="M67.25,201a2.63,2.63,0,0,1-2-.83,3.33,3.33,0,0,1-.74-2.3,3.39,3.39,0,0,1,.77-2.36,2.72,2.72,0,0,1,2.11-.84,4.25,4.25,0,0,1,1.51.27l-.15.49a4.59,4.59,0,0,0-1.37-.26,2.12,2.12,0,0,0-1.71.69,3.09,3.09,0,0,0-.57,2,3,3,0,0,0,.57,1.94,2,2,0,0,0,1.62.69,4.15,4.15,0,0,0,1.55-.29v.51A3.52,3.52,0,0,1,67.25,201Z"/><path d="M70.76,194.73v4a1.93,1.93,0,0,0,.39,1.34,1.6,1.6,0,0,0,1.2.41,2.11,2.11,0,0,0,1.61-.55,2.57,2.57,0,0,0,.51-1.79v-3.37H75v6.11h-.47l-.1-.84h0a2.29,2.29,0,0,1-2.11.95c-1.39,0-2.09-.74-2.09-2.23v-4Z"/><path d="M76.25,203.6a1.91,1.91,0,0,1-.76-.14V203a2.8,2.8,0,0,0,.72.11c.57,0,.85-.33.85-1v-7.37h.56V202a1.71,1.71,0,0,1-.36,1.17A1.27,1.27,0,0,1,76.25,203.6ZM77,193q0-.54.36-.54a.3.3,0,0,1,.27.14.66.66,0,0,1,.1.4.68.68,0,0,1-.1.4.32.32,0,0,1-.27.14Q77,193.58,77,193Z"/><path d="M82.13,201a2.66,2.66,0,0,1-2.08-.82,3.33,3.33,0,0,1-.74-2.3,3.59,3.59,0,0,1,.72-2.34,2.37,2.37,0,0,1,1.93-.87,2.12,2.12,0,0,1,1.71.75,3.12,3.12,0,0,1,.62,2v.45h-4.4a2.91,2.91,0,0,0,.59,1.92,2.06,2.06,0,0,0,1.65.66,5.07,5.07,0,0,0,.92-.07,5.94,5.94,0,0,0,1-.31v.5a4.82,4.82,0,0,1-1,.31A5.64,5.64,0,0,1,82.13,201ZM82,195.11a1.83,1.83,0,0,0-1.41.58,2.73,2.73,0,0,0-.62,1.68H83.7a2.64,2.64,0,0,0-.46-1.66A1.52,1.52,0,0,0,82,195.11Z"/><path d="M93.6,200.84v-4a2,2,0,0,0-.35-1.3,1.34,1.34,0,0,0-1.07-.41,1.72,1.72,0,0,0-1.38.52,2.41,2.41,0,0,0-.45,1.62v3.58h-.57v-4.17c0-1-.47-1.55-1.41-1.55a1.68,1.68,0,0,0-1.4.56,2.92,2.92,0,0,0-.44,1.79v3.37H86v-6.11h.46l.12.84h0a1.71,1.71,0,0,1,.71-.7,2.15,2.15,0,0,1,1-.25,1.76,1.76,0,0,1,1.86,1.08h0a2,2,0,0,1,.8-.8,2.24,2.24,0,0,1,1.14-.28,1.93,1.93,0,0,1,1.5.53,2.42,2.42,0,0,1,.5,1.69v4Z"/><path d="M95.1,194.73h.58L97,198.16q.59,1.58.75,2.13h0c.16-.49.41-1.21.77-2.17l1.29-3.39h.57l-2.73,7.1a5.42,5.42,0,0,1-.56,1.16,1.41,1.41,0,0,1-.52.46,1.61,1.61,0,0,1-.73.15,2.45,2.45,0,0,1-.71-.12V203a2.58,2.58,0,0,0,.7.09.92.92,0,0,0,.5-.14,1.31,1.31,0,0,0,.4-.41,5.8,5.8,0,0,0,.41-.9c.16-.41.26-.68.3-.8Z"/><path d="M101.29,200.4c0-.37.15-.55.45-.55s.46.18.46.55-.15.55-.46.55S101.29,200.77,101.29,200.4Z"/><path d="M21.3,214.64l-3.06-7.58h0c0,.46,0,.94,0,1.42v6.16h-.55v-8.21h.88l2.91,7.22h0l2.9-7.22h.87v8.21h-.58v-6.22a12.46,12.46,0,0,1,.07-1.35h-.05l-3.07,7.57Z"/><path d="M32.52,211.58a3.42,3.42,0,0,1-.73,2.33,2.5,2.5,0,0,1-2,.84,2.58,2.58,0,0,1-1.41-.39,2.51,2.51,0,0,1-.94-1.11,4,4,0,0,1-.33-1.67,3.44,3.44,0,0,1,.73-2.33,2.76,2.76,0,0,1,4,0A3.46,3.46,0,0,1,32.52,211.58Zm-4.82,0a3.09,3.09,0,0,0,.55,2,2.1,2.1,0,0,0,3.13,0,3.09,3.09,0,0,0,.55-2,3,3,0,0,0-.56-2,1.87,1.87,0,0,0-1.57-.7,1.86,1.86,0,0,0-1.55.69A3.1,3.1,0,0,0,27.7,211.58Z"/><path d="M38,214.64H33.65v-.36L37.27,209H33.91v-.5H38v.36l-3.64,5.25H38Zm-2.42-7.8q0-.54.36-.54a.31.31,0,0,1,.27.14.74.74,0,0,1,.09.4.76.76,0,0,1-.09.4.33.33,0,0,1-.27.14Q35.58,207.38,35.58,206.84Z"/><path d="M42,214.75a2.64,2.64,0,0,1-2.07-.82,3.28,3.28,0,0,1-.75-2.3,3.59,3.59,0,0,1,.72-2.34,2.39,2.39,0,0,1,1.94-.87,2.08,2.08,0,0,1,1.7.75,3.07,3.07,0,0,1,.62,2v.45H39.74a2.91,2.91,0,0,0,.58,1.92,2.09,2.09,0,0,0,1.65.66,5,5,0,0,0,.92-.07,5.67,5.67,0,0,0,1-.31v.5a4.75,4.75,0,0,1-1,.31A5.77,5.77,0,0,1,42,214.75Zm-.16-5.84a1.83,1.83,0,0,0-1.42.58,2.79,2.79,0,0,0-.62,1.68h3.78a2.64,2.64,0,0,0-.47-1.66A1.5,1.5,0,0,0,41.81,208.91Z"/><path d="M49.6,213.05a1.45,1.45,0,0,1-.62,1.26,3.06,3.06,0,0,1-1.77.44,4.23,4.23,0,0,1-1.94-.38v-.6a4.23,4.23,0,0,0,1.94.46,2.55,2.55,0,0,0,1.37-.3.9.9,0,0,0,.47-.8,1,1,0,0,0-.37-.77,4.07,4.07,0,0,0-1.23-.62,6.6,6.6,0,0,1-1.28-.57,1.71,1.71,0,0,1-.56-.54,1.3,1.3,0,0,1-.19-.73,1.25,1.25,0,0,1,.58-1.09,2.82,2.82,0,0,1,1.6-.39,4.78,4.78,0,0,1,1.88.37l-.21.5a4.33,4.33,0,0,0-1.67-.37,2.35,2.35,0,0,0-1.18.25.75.75,0,0,0-.44.68,1,1,0,0,0,.34.77,4.94,4.94,0,0,0,1.33.64,6.61,6.61,0,0,1,1.2.53,1.86,1.86,0,0,1,.57.54A1.4,1.4,0,0,1,49.6,213.05Z"/><path d="M55,214.64H50.61v-.36L54.24,209H50.88v-.5H55v.36l-3.64,5.25H55Z"/><path d="M63.25,213.05a1.48,1.48,0,0,1-.62,1.26,3.09,3.09,0,0,1-1.77.44,4.25,4.25,0,0,1-2-.38v-.6a4.3,4.3,0,0,0,2,.46,2.55,2.55,0,0,0,1.37-.3.92.92,0,0,0,.47-.8,1,1,0,0,0-.38-.77,3.87,3.87,0,0,0-1.22-.62,7.08,7.08,0,0,1-1.29-.57,1.93,1.93,0,0,1-.56-.54,1.39,1.39,0,0,1-.18-.73,1.27,1.27,0,0,1,.57-1.09,2.84,2.84,0,0,1,1.61-.39,4.81,4.81,0,0,1,1.88.37l-.21.5a4.37,4.37,0,0,0-1.67-.37,2.33,2.33,0,0,0-1.18.25.74.74,0,0,0-.44.68,1,1,0,0,0,.34.77,4.84,4.84,0,0,0,1.32.64,6.77,6.77,0,0,1,1.21.53,1.71,1.71,0,0,1,.56.54A1.31,1.31,0,0,1,63.25,213.05Z"/><path d="M67.43,214.75a2.21,2.21,0,0,1-2.05-1.06h0v.48c0,.27,0,.58,0,.9v2.33h-.56v-8.87h.47l.11.87h0a2.2,2.2,0,0,1,2-1,2.28,2.28,0,0,1,1.89.81,3.71,3.71,0,0,1,.65,2.36,3.54,3.54,0,0,1-.69,2.33A2.28,2.28,0,0,1,67.43,214.75Zm0-.5a1.69,1.69,0,0,0,1.45-.69,3.25,3.25,0,0,0,.52-1.95c0-1.79-.65-2.69-2-2.69a1.93,1.93,0,0,0-1.56.59,2.89,2.89,0,0,0-.5,1.91v.18a3.36,3.36,0,0,0,.48,2A1.86,1.86,0,0,0,67.42,214.25Z"/><path d="M74.07,208.42a5,5,0,0,1,.83.07l-.11.54a2.9,2.9,0,0,0-.79-.1,1.54,1.54,0,0,0-1.28.66,2.75,2.75,0,0,0-.5,1.68v3.37h-.55v-6.11h.47l0,1.1h0a2.5,2.5,0,0,1,.81-.94A1.86,1.86,0,0,1,74.07,208.42Z"/><path d="M79.85,214.64l-.14-1h0a2.84,2.84,0,0,1-.94.83,2.47,2.47,0,0,1-1.15.25,2,2,0,0,1-1.4-.46,1.66,1.66,0,0,1-.5-1.28,1.58,1.58,0,0,1,.74-1.38,4.08,4.08,0,0,1,2.16-.53l1.16,0v-.4a2.14,2.14,0,0,0-.35-1.32,1.4,1.4,0,0,0-1.14-.44,3.84,3.84,0,0,0-1.76.47l-.21-.48a4.56,4.56,0,0,1,2-.47,2,2,0,0,1,1.5.52,2.3,2.3,0,0,1,.5,1.63v4.06Zm-2.25-.4a2,2,0,0,0,2.11-2.11v-.6l-1.07.05a3.93,3.93,0,0,0-1.83.4,1.14,1.14,0,0,0-.55,1.06,1.17,1.17,0,0,0,.35.89A1.42,1.42,0,0,0,77.6,214.24Z"/><path d="M87.11,214.64l-1.33-4.09c-.09-.27-.2-.68-.33-1.21h0l-.12.41-.25.82-1.36,4.07h-.55l-1.74-6.11H82l1,3.54c.23.88.38,1.52.45,1.93h0c.22-.87.38-1.46.48-1.74l1.26-3.73h.51l1.19,3.71c.27.88.44,1.47.5,1.75h0q0-.36.45-2l.93-3.51h.56l-1.65,6.11Z"/><path d="M92.79,208.42a2.52,2.52,0,0,1,1.14.24,2.31,2.31,0,0,1,.87.82h0c0-.47,0-.93,0-1.39V205.9h.55v8.74H95l-.14-.93h0a2.28,2.28,0,0,1-2,1,2.39,2.39,0,0,1-1.94-.79,3.47,3.47,0,0,1-.66-2.29,3.85,3.85,0,0,1,.66-2.42A2.3,2.3,0,0,1,92.79,208.42Zm0,.5a1.74,1.74,0,0,0-1.51.7,3.53,3.53,0,0,0-.5,2c0,1.73.67,2.59,2,2.59a1.81,1.81,0,0,0,1.51-.6,3.19,3.19,0,0,0,.49-2v-.09a3.36,3.36,0,0,0-.48-2A1.81,1.81,0,0,0,92.79,208.92Z"/><path d="M101.19,214.64H96.83v-.36l3.63-5.25H97.1v-.5h4.08v.36l-3.64,5.25h3.65Z"/><path d="M102.62,206.84c0-.36.12-.54.35-.54a.29.29,0,0,1,.27.14.66.66,0,0,1,.1.4.68.68,0,0,1-.1.4.31.31,0,0,1-.27.14C102.74,207.38,102.62,207.2,102.62,206.84Zm.63,7.8h-.55v-6.11h.55Z"/><path d="M107.73,214.75a2.63,2.63,0,0,1-2-.83,3.33,3.33,0,0,1-.74-2.3,3.39,3.39,0,0,1,.77-2.36,2.72,2.72,0,0,1,2.11-.84,4.29,4.29,0,0,1,1.51.27l-.15.49a4.64,4.64,0,0,0-1.37-.26,2.12,2.12,0,0,0-1.71.69,3.09,3.09,0,0,0-.57,2,3,3,0,0,0,.57,1.93,2,2,0,0,0,1.62.7,4.15,4.15,0,0,0,1.55-.29v.51A3.52,3.52,0,0,1,107.73,214.75Zm-1-7.17q.41-.45.81-1a7,7,0,0,0,.55-.79h.79v.09a6.4,6.4,0,0,1-.69.78c-.32.32-.68.64-1.07,1h-.39Z"/><path d="M116.18,214.75a2.63,2.63,0,0,1-2.05-.83,3.33,3.33,0,0,1-.74-2.3,3.39,3.39,0,0,1,.77-2.36,2.72,2.72,0,0,1,2.11-.84,4.25,4.25,0,0,1,1.51.27l-.15.49a4.59,4.59,0,0,0-1.37-.26,2.12,2.12,0,0,0-1.71.69,3.09,3.09,0,0,0-.57,2,3,3,0,0,0,.57,1.93,2,2,0,0,0,1.62.7,4.15,4.15,0,0,0,1.55-.29v.51A3.52,3.52,0,0,1,116.18,214.75Z"/><path d="M123,214.64h-4.36v-.36l3.62-5.25h-3.36v-.5H123v.36l-3.65,5.25H123Z"/><path d="M123.49,208.53h.57l1.29,3.43q.6,1.57.75,2.13h0c.16-.49.42-1.21.77-2.17l1.29-3.39h.58L126,215.62a5.42,5.42,0,0,1-.55,1.17,1.44,1.44,0,0,1-.53.46,1.61,1.61,0,0,1-.73.15,2.45,2.45,0,0,1-.71-.12v-.48a2.63,2.63,0,0,0,.7.09,1,1,0,0,0,.51-.14,1.25,1.25,0,0,0,.4-.42,5.34,5.34,0,0,0,.4-.89l.31-.8Z"/><path d="M137.42,214.64v-4a2,2,0,0,0-.35-1.3,1.34,1.34,0,0,0-1.07-.41,1.74,1.74,0,0,0-1.39.52,2.41,2.41,0,0,0-.45,1.62v3.58h-.56v-4.18c0-1-.47-1.54-1.42-1.54a1.69,1.69,0,0,0-1.4.56,2.93,2.93,0,0,0-.43,1.79v3.37h-.56v-6.11h.46l.12.84h0a1.74,1.74,0,0,1,.72-.7,2.09,2.09,0,0,1,1-.25A1.75,1.75,0,0,1,134,209.5h0a2.05,2.05,0,0,1,.8-.8,2.3,2.3,0,0,1,1.15-.28,2,2,0,0,1,1.5.53,2.42,2.42,0,0,1,.49,1.69v4Z"/><path d="M21.33,226.85a1.46,1.46,0,0,1-.62,1.26,3.09,3.09,0,0,1-1.77.44,4.2,4.2,0,0,1-1.94-.38v-.6a4.23,4.23,0,0,0,1.94.46,2.55,2.55,0,0,0,1.37-.3.91.91,0,0,0,.47-.8,1,1,0,0,0-.37-.77,4.07,4.07,0,0,0-1.23-.62,7.08,7.08,0,0,1-1.29-.57,1.77,1.77,0,0,1-.55-.54,1.3,1.3,0,0,1-.19-.73,1.27,1.27,0,0,1,.57-1.09,2.86,2.86,0,0,1,1.61-.39,4.78,4.78,0,0,1,1.88.37l-.21.5a4.37,4.37,0,0,0-1.67-.37,2.33,2.33,0,0,0-1.18.25.75.75,0,0,0-.44.68,1,1,0,0,0,.34.77,4.94,4.94,0,0,0,1.33.64,6.61,6.61,0,0,1,1.2.53,1.71,1.71,0,0,1,.56.54A1.34,1.34,0,0,1,21.33,226.85Z"/><path d="M22.82,220.64q0-.54.36-.54a.32.32,0,0,1,.27.14.66.66,0,0,1,.1.4.68.68,0,0,1-.1.4.32.32,0,0,1-.27.14Q22.82,221.18,22.82,220.64Zm.64,7.8H22.9v-6.11h.56Z"/><path d="M28,228.55a2.66,2.66,0,0,1-2.08-.82,3.33,3.33,0,0,1-.74-2.3,3.59,3.59,0,0,1,.72-2.34,2.38,2.38,0,0,1,1.94-.87,2.11,2.11,0,0,1,1.7.75,3.12,3.12,0,0,1,.62,2v.45h-4.4a2.91,2.91,0,0,0,.59,1.92A2.06,2.06,0,0,0,28,228a5.07,5.07,0,0,0,.92-.07,5.94,5.94,0,0,0,1-.31v.5a4.82,4.82,0,0,1-1,.31A5.64,5.64,0,0,1,28,228.55Zm-.16-5.84a1.83,1.83,0,0,0-1.42.58,2.79,2.79,0,0,0-.62,1.68h3.77a2.64,2.64,0,0,0-.46-1.66A1.52,1.52,0,0,0,27.81,222.71Zm.89,6.91a.54.54,0,0,0,.6.62,1.24,1.24,0,0,0,.46-.07v.47a1.57,1.57,0,0,1-.58.09,1,1,0,0,1-.75-.26,1,1,0,0,1-.28-.76,1.54,1.54,0,0,1,.22-.78,2.43,2.43,0,0,1,.63-.7h.51a3.59,3.59,0,0,0-.61.67A1.34,1.34,0,0,0,28.7,229.62Z"/><path d="M38.6,228.44H34.24v-.36l3.62-5.25H34.51v-.5h4.08v.36l-3.65,5.25H38.6Z"/><path d="M43.81,228.44l-.14-1h-.05a2.88,2.88,0,0,1-.94.84,2.6,2.6,0,0,1-1.15.24,2,2,0,0,1-1.4-.46,1.66,1.66,0,0,1-.5-1.28,1.56,1.56,0,0,1,.75-1.38,3.93,3.93,0,0,1,2.15-.52l1.16,0v-.4a2.14,2.14,0,0,0-.35-1.32,1.4,1.4,0,0,0-1.14-.44,3.87,3.87,0,0,0-1.76.47l-.21-.48a4.59,4.59,0,0,1,2-.47,2,2,0,0,1,1.5.52,2.3,2.3,0,0,1,.5,1.63v4.06Zm-2.25-.4a1.94,1.94,0,0,0,2.11-2.11v-.6l-1.07,0a3.93,3.93,0,0,0-1.83.4,1.3,1.3,0,0,0-.2,1.95A1.45,1.45,0,0,0,41.56,228Z"/><path d="M45.38,231.2a1.91,1.91,0,0,1-.76-.14v-.48a2.81,2.81,0,0,0,.73.11c.56,0,.85-.33.85-1v-7.37h.55v7.29a1.76,1.76,0,0,1-.35,1.17A1.3,1.3,0,0,1,45.38,231.2Zm.74-10.56c0-.36.12-.54.35-.54a.31.31,0,0,1,.27.14.66.66,0,0,1,.1.4.68.68,0,0,1-.1.4.31.31,0,0,1-.27.14C46.24,221.18,46.12,221,46.12,220.64Z"/><path d="M56.42,228.44v-4a2,2,0,0,0-.35-1.3,1.33,1.33,0,0,0-1.06-.41,1.73,1.73,0,0,0-1.39.52,2.41,2.41,0,0,0-.45,1.62v3.58H52.6v-4.17c0-1-.47-1.55-1.41-1.55a1.68,1.68,0,0,0-1.4.56,2.92,2.92,0,0,0-.44,1.79v3.37H48.8v-6.11h.46l.11.84h0a1.74,1.74,0,0,1,.72-.7,2.08,2.08,0,0,1,1-.25A1.76,1.76,0,0,1,53,223.3h0a2,2,0,0,1,.8-.8,2.27,2.27,0,0,1,1.14-.28,1.93,1.93,0,0,1,1.5.53,2.43,2.43,0,0,1,.5,1.7v4Z"/><path d="M59.43,222.33v4a1.93,1.93,0,0,0,.39,1.34A1.56,1.56,0,0,0,61,228a2.07,2.07,0,0,0,1.6-.55,2.52,2.52,0,0,0,.52-1.79v-3.37h.55v6.11h-.47l-.11-.84h0a2.31,2.31,0,0,1-2.12,1c-1.39,0-2.08-.74-2.08-2.23v-4Z"/><path d="M64.92,231.2a1.88,1.88,0,0,1-.76-.14v-.48a2.8,2.8,0,0,0,.72.11c.57,0,.85-.33.85-1v-7.37h.56v7.29a1.71,1.71,0,0,1-.36,1.17A1.29,1.29,0,0,1,64.92,231.2Zm.73-10.56q0-.54.36-.54a.33.33,0,0,1,.27.14.74.74,0,0,1,.1.4.76.76,0,0,1-.1.4.33.33,0,0,1-.27.14Q65.65,221.18,65.65,220.64Z"/><path d="M71.64,229.83a.54.54,0,0,0,.6.62,1.24,1.24,0,0,0,.46-.07v.47a1.57,1.57,0,0,1-.58.09,1,1,0,0,1-.75-.27,1,1,0,0,1-.28-.75,1.54,1.54,0,0,1,.22-.78,2.81,2.81,0,0,1,.72-.78l-.13-.89h-.05a3,3,0,0,1-.94.84,2.6,2.6,0,0,1-1.15.24,2,2,0,0,1-1.4-.46,1.66,1.66,0,0,1-.5-1.28,1.58,1.58,0,0,1,.74-1.38,4,4,0,0,1,2.16-.52l1.16,0v-.4a2.14,2.14,0,0,0-.35-1.32,1.41,1.41,0,0,0-1.15-.44,3.83,3.83,0,0,0-1.75.47l-.21-.48a4.56,4.56,0,0,1,2-.47,2,2,0,0,1,1.5.52,2.3,2.3,0,0,1,.5,1.63v4.06a3.3,3.3,0,0,0-.61.67A1.34,1.34,0,0,0,71.64,229.83ZM69.79,228a1.94,1.94,0,0,0,2.11-2.11v-.6l-1.07,0a3.93,3.93,0,0,0-1.83.4,1.3,1.3,0,0,0-.2,1.95A1.42,1.42,0,0,0,69.79,228Z"/><path d="M75.06,227.1l.07.12a20.13,20.13,0,0,1-1,2.7h-.37a21.77,21.77,0,0,0,.62-2.82Z"/><path d="M80.43,225.76l3.11-3.43h.68l-2.41,2.61,2.61,3.5h-.66l-2.32-3.09-1,.91v2.18h-.56V219.7h.56v4.38l0,1.68Z"/><path d="M90.49,225.38a3.47,3.47,0,0,1-.72,2.33,2.5,2.5,0,0,1-2,.84,2.55,2.55,0,0,1-1.41-.39,2.45,2.45,0,0,1-.94-1.11,4,4,0,0,1-.33-1.67,3.41,3.41,0,0,1,.73-2.33,2.77,2.77,0,0,1,4,0A3.46,3.46,0,0,1,90.49,225.38Zm-4.81,0a3.09,3.09,0,0,0,.55,2,2.1,2.1,0,0,0,3.13,0,3.74,3.74,0,0,0,0-3.92,2.1,2.1,0,0,0-3.13,0A3.11,3.11,0,0,0,85.68,225.38Z"/><path d="M99.81,228.44v-4a2,2,0,0,0-.35-1.3,1.34,1.34,0,0,0-1.07-.41,1.72,1.72,0,0,0-1.38.52,2.41,2.41,0,0,0-.45,1.62v3.58H96v-4.17c0-1-.47-1.55-1.41-1.55a1.68,1.68,0,0,0-1.4.56,2.92,2.92,0,0,0-.44,1.79v3.37h-.56v-6.11h.46l.12.84h0a1.65,1.65,0,0,1,.71-.7,2.15,2.15,0,0,1,1-.25,1.76,1.76,0,0,1,1.86,1.08h0a2,2,0,0,1,.8-.8,2.24,2.24,0,0,1,1.14-.28,1.93,1.93,0,0,1,1.5.53,2.43,2.43,0,0,1,.5,1.7v4Z"/><path d="M102.82,222.33v4a1.93,1.93,0,0,0,.39,1.34,1.55,1.55,0,0,0,1.2.41,2.08,2.08,0,0,0,1.6-.55,2.57,2.57,0,0,0,.52-1.79v-3.37h.55v6.11h-.48l-.1-.84h0a2.31,2.31,0,0,1-2.12,1c-1.39,0-2.08-.74-2.08-2.23v-4Z"/><path d="M20.16,242.35a2.23,2.23,0,0,1-2.06-1.06h0l0,.48c0,.27,0,.58,0,.9V245h-.55v-8.87H18l.11.87h0a2.2,2.2,0,0,1,2-1,2.26,2.26,0,0,1,1.88.81,3.73,3.73,0,0,1,.65,2.36,3.59,3.59,0,0,1-.68,2.33A2.3,2.3,0,0,1,20.16,242.35Zm0-.49a1.71,1.71,0,0,0,1.45-.7,3.23,3.23,0,0,0,.51-1.95c0-1.79-.65-2.69-1.94-2.69a2,2,0,0,0-1.57.59,3,3,0,0,0-.5,1.91v.18a3.36,3.36,0,0,0,.48,2A1.87,1.87,0,0,0,20.15,241.86Z"/><path d="M29.44,239.18a3.42,3.42,0,0,1-.73,2.33,2.48,2.48,0,0,1-2,.84A2.59,2.59,0,0,1,25.3,242a2.51,2.51,0,0,1-.94-1.11,4.15,4.15,0,0,1-.32-1.67,3.46,3.46,0,0,1,.72-2.33,2.48,2.48,0,0,1,2-.83,2.44,2.44,0,0,1,2,.84A3.46,3.46,0,0,1,29.44,239.18Zm-4.82,0a3.15,3.15,0,0,0,.55,2,2.1,2.1,0,0,0,3.13,0,3.09,3.09,0,0,0,.56-2,3.05,3.05,0,0,0-.56-2,1.9,1.9,0,0,0-1.57-.7,1.86,1.86,0,0,0-1.56.69A3.1,3.1,0,0,0,24.62,239.18Z"/><path d="M38.76,242.24v-4a2,2,0,0,0-.35-1.3,1.35,1.35,0,0,0-1.07-.41A1.73,1.73,0,0,0,36,237a2.41,2.41,0,0,0-.45,1.62v3.58h-.56v-4.17c0-1-.48-1.55-1.42-1.55a1.69,1.69,0,0,0-1.4.56,2.93,2.93,0,0,0-.43,1.79v3.37h-.56v-6.11h.46l.12.84h0a1.74,1.74,0,0,1,.72-.7,2.09,2.09,0,0,1,1-.25,1.75,1.75,0,0,1,1.85,1.08h0a2.05,2.05,0,0,1,.8-.8,2.3,2.3,0,0,1,1.15-.28,2,2,0,0,1,1.5.53,2.43,2.43,0,0,1,.5,1.7v4Z"/><path d="M45,242.24l-.14-1H44.8a2.88,2.88,0,0,1-.94.84,2.6,2.6,0,0,1-1.15.24,2,2,0,0,1-1.4-.46,1.66,1.66,0,0,1-.5-1.28,1.58,1.58,0,0,1,.74-1.38,4,4,0,0,1,2.16-.52l1.16,0v-.4a2.14,2.14,0,0,0-.35-1.32,1.4,1.4,0,0,0-1.14-.44,3.87,3.87,0,0,0-1.76.47l-.21-.48a4.56,4.56,0,0,1,2-.47,2,2,0,0,1,1.5.52,2.3,2.3,0,0,1,.5,1.63v4.06Zm-2.25-.4a1.94,1.94,0,0,0,2.11-2.11v-.6l-1.07.05a3.93,3.93,0,0,0-1.83.4,1.3,1.3,0,0,0-.2,1.95A1.43,1.43,0,0,0,42.74,241.84Z"/><path d="M52.14,236.13v.39l-1.27.08a2.15,2.15,0,0,1,.51,1.38,1.88,1.88,0,0,1-.59,1.43,2.18,2.18,0,0,1-1.57.55,2.69,2.69,0,0,1-.59,0,1.51,1.51,0,0,0-.5.41.83.83,0,0,0-.18.5.48.48,0,0,0,.22.43,1.53,1.53,0,0,0,.75.14H50a2.46,2.46,0,0,1,1.52.4A1.39,1.39,0,0,1,52,243a1.69,1.69,0,0,1-.79,1.49A3.89,3.89,0,0,1,49,245a3.1,3.1,0,0,1-1.78-.44,1.56,1.56,0,0,1-.24-2.28,2,2,0,0,1,1-.57,1.14,1.14,0,0,1-.44-.33.81.81,0,0,1-.16-.5,1.31,1.31,0,0,1,.78-1.08,1.77,1.77,0,0,1-.83-.69,2.11,2.11,0,0,1,.28-2.54,2.18,2.18,0,0,1,1.57-.55,2.87,2.87,0,0,1,.93.11Zm-5,7.14c0,.84.63,1.26,1.87,1.26,1.61,0,2.41-.51,2.41-1.53a.88.88,0,0,0-.38-.8,2.25,2.25,0,0,0-1.22-.25h-1Q47.19,242,47.19,243.27Zm.47-5.23a1.37,1.37,0,0,0,.43,1.09,1.9,1.9,0,0,0,2.32,0,1.5,1.5,0,0,0,.41-1.13,1.52,1.52,0,0,0-.42-1.17,1.65,1.65,0,0,0-1.17-.39,1.55,1.55,0,0,0-1.15.42A1.58,1.58,0,0,0,47.66,238Z"/><path d="M57.09,242.24l-.14-1h0a2.91,2.91,0,0,1-.95.84,2.54,2.54,0,0,1-1.15.24,2,2,0,0,1-1.39-.46,1.63,1.63,0,0,1-.5-1.28,1.56,1.56,0,0,1,.74-1.38,4,4,0,0,1,2.15-.52l1.17,0v-.4a2.08,2.08,0,0,0-.36-1.32,1.37,1.37,0,0,0-1.14-.44,3.83,3.83,0,0,0-1.75.47l-.21-.48a4.56,4.56,0,0,1,2-.47,2,2,0,0,1,1.5.52,2.3,2.3,0,0,1,.49,1.63v4.06Zm-2.24-.4a1.93,1.93,0,0,0,2.1-2.11v-.6l-1.06.05a4,4,0,0,0-1.84.4,1.16,1.16,0,0,0-.54,1.06,1.12,1.12,0,0,0,.35.89A1.42,1.42,0,0,0,54.85,241.84Z"/><path d="M58.67,245a1.88,1.88,0,0,1-.76-.14v-.48a2.8,2.8,0,0,0,.72.11c.57,0,.85-.33.85-1v-7.37H60v7.29a1.71,1.71,0,0,1-.36,1.17A1.29,1.29,0,0,1,58.67,245Zm.73-10.56q0-.54.36-.54A.33.33,0,0,1,60,234a.74.74,0,0,1,.1.4.76.76,0,0,1-.1.4.33.33,0,0,1-.27.14Q59.4,235,59.4,234.44Z"/><path d="M65.39,243.63a.54.54,0,0,0,.6.62,1.24,1.24,0,0,0,.46-.07v.47a1.57,1.57,0,0,1-.58.09,1,1,0,0,1-.75-.27,1,1,0,0,1-.28-.75,1.54,1.54,0,0,1,.22-.78,2.81,2.81,0,0,1,.72-.78l-.13-.89H65.6a3,3,0,0,1-.94.84,2.6,2.6,0,0,1-1.15.24,2,2,0,0,1-1.4-.46,1.66,1.66,0,0,1-.5-1.28,1.58,1.58,0,0,1,.74-1.38,4,4,0,0,1,2.16-.52l1.16,0v-.4a2.14,2.14,0,0,0-.35-1.32,1.41,1.41,0,0,0-1.15-.44,3.83,3.83,0,0,0-1.75.47l-.21-.48a4.56,4.56,0,0,1,2-.47,2,2,0,0,1,1.5.52,2.3,2.3,0,0,1,.5,1.63v4.06a3.3,3.3,0,0,0-.61.67A1.34,1.34,0,0,0,65.39,243.63Zm-1.85-1.79a1.94,1.94,0,0,0,2.11-2.11v-.6l-1.07.05a3.93,3.93,0,0,0-1.83.4,1.3,1.3,0,0,0-.2,1.95A1.42,1.42,0,0,0,63.54,241.84Z"/><path d="M71.08,234.44q0-.54.36-.54a.33.33,0,0,1,.27.14.74.74,0,0,1,.1.4.76.76,0,0,1-.1.4.33.33,0,0,1-.27.14Q71.08,235,71.08,234.44Zm.64,7.8h-.56v-6.11h.56Z"/><path d="M79.18,242.35a2.63,2.63,0,0,1-2.05-.83,3.33,3.33,0,0,1-.74-2.3,3.39,3.39,0,0,1,.77-2.36,2.73,2.73,0,0,1,2.11-.84,4.35,4.35,0,0,1,1.52.27l-.16.5a4.29,4.29,0,0,0-1.37-.27,2.08,2.08,0,0,0-1.7.69,3,3,0,0,0-.58,2,3,3,0,0,0,.58,1.94,2,2,0,0,0,1.61.69,4,4,0,0,0,1.55-.29v.51A3.52,3.52,0,0,1,79.18,242.35Z"/><path d="M86,242.24H81.65v-.36l3.62-5.25H81.91v-.5H86v.36l-3.65,5.25H86Z"/><path d="M90,242.35a2.66,2.66,0,0,1-2.08-.82,3.33,3.33,0,0,1-.74-2.3,3.59,3.59,0,0,1,.72-2.34,2.37,2.37,0,0,1,1.93-.87,2.12,2.12,0,0,1,1.71.75,3.12,3.12,0,0,1,.62,2v.45h-4.4a2.91,2.91,0,0,0,.59,1.92,2.06,2.06,0,0,0,1.65.66,5.07,5.07,0,0,0,.92-.07,5.94,5.94,0,0,0,1-.31v.5a4.82,4.82,0,0,1-1,.31A5.64,5.64,0,0,1,90,242.35Zm-.17-5.84a1.83,1.83,0,0,0-1.41.58,2.73,2.73,0,0,0-.62,1.68h3.77a2.64,2.64,0,0,0-.46-1.66A1.52,1.52,0,0,0,89.81,236.51Z"/><path d="M98.59,236.13v.39l-1.27.08a2.15,2.15,0,0,1,.51,1.38,1.88,1.88,0,0,1-.59,1.43,2.2,2.2,0,0,1-1.57.55,2.69,2.69,0,0,1-.59,0,1.51,1.51,0,0,0-.5.41.83.83,0,0,0-.18.5.48.48,0,0,0,.22.43,1.53,1.53,0,0,0,.75.14h1.06a2.49,2.49,0,0,1,1.53.4,1.38,1.38,0,0,1,.52,1.18,1.68,1.68,0,0,1-.78,1.49,3.91,3.91,0,0,1-2.23.53,3.1,3.1,0,0,1-1.78-.44,1.42,1.42,0,0,1-.64-1.24,1.44,1.44,0,0,1,.39-1,2.06,2.06,0,0,1,1.06-.57,1.14,1.14,0,0,1-.44-.33.81.81,0,0,1-.16-.5,1.31,1.31,0,0,1,.78-1.08,1.77,1.77,0,0,1-.83-.69,2.11,2.11,0,0,1,.28-2.54A2.18,2.18,0,0,1,95.7,236a2.87,2.87,0,0,1,.93.11Zm-5,7.14c0,.84.63,1.26,1.87,1.26,1.61,0,2.41-.51,2.41-1.53a.88.88,0,0,0-.38-.8,2.25,2.25,0,0,0-1.22-.25h-1Q93.64,242,93.64,243.27Zm.47-5.23a1.37,1.37,0,0,0,.43,1.09,1.9,1.9,0,0,0,2.32,0,1.5,1.5,0,0,0,.41-1.13,1.52,1.52,0,0,0-.42-1.17,1.65,1.65,0,0,0-1.17-.39,1.55,1.55,0,0,0-1.15.42A1.58,1.58,0,0,0,94.11,238Z"/><path d="M104.89,239.18a3.48,3.48,0,0,1-.73,2.33,2.5,2.5,0,0,1-2,.84,2.58,2.58,0,0,1-1.41-.39,2.51,2.51,0,0,1-.94-1.11,4,4,0,0,1-.33-1.67,3.46,3.46,0,0,1,.73-2.33,2.76,2.76,0,0,1,4,0A3.46,3.46,0,0,1,104.89,239.18Zm-4.82,0a3.09,3.09,0,0,0,.55,2,2.1,2.1,0,0,0,3.13,0,3.09,3.09,0,0,0,.55-2,3,3,0,0,0-.56-2,1.87,1.87,0,0,0-1.57-.7,1.86,1.86,0,0,0-1.55.69A3.1,3.1,0,0,0,100.07,239.18Z"/><path d="M20.16,256.15a2.23,2.23,0,0,1-2.06-1.06h0l0,.48c0,.27,0,.58,0,.9v2.33h-.55v-8.87H18l.11.87h0a2.2,2.2,0,0,1,2-1,2.26,2.26,0,0,1,1.88.81A3.73,3.73,0,0,1,22.7,253a3.59,3.59,0,0,1-.68,2.33A2.3,2.3,0,0,1,20.16,256.15Zm0-.49a1.71,1.71,0,0,0,1.45-.7,3.23,3.23,0,0,0,.51-2c0-1.79-.65-2.69-1.94-2.69a2,2,0,0,0-1.57.59,3,3,0,0,0-.5,1.91V253a3.36,3.36,0,0,0,.48,2A1.87,1.87,0,0,0,20.15,255.66Z"/><path d="M29.44,253a3.42,3.42,0,0,1-.73,2.33,2.48,2.48,0,0,1-2,.84,2.59,2.59,0,0,1-1.42-.39,2.51,2.51,0,0,1-.94-1.11A4.15,4.15,0,0,1,24,253a3.46,3.46,0,0,1,.72-2.33,2.48,2.48,0,0,1,2-.83,2.44,2.44,0,0,1,2,.84A3.46,3.46,0,0,1,29.44,253Zm-4.82,0a3.15,3.15,0,0,0,.55,2,2.1,2.1,0,0,0,3.13,0,3.09,3.09,0,0,0,.56-2,3.05,3.05,0,0,0-.56-2,1.9,1.9,0,0,0-1.57-.7,1.86,1.86,0,0,0-1.56.69A3.1,3.1,0,0,0,24.62,253Z"/><path d="M32.74,255.66a4.85,4.85,0,0,0,.92-.09V256a2.93,2.93,0,0,1-.93.14,1.53,1.53,0,0,1-1.19-.43,2,2,0,0,1-.39-1.36v-3.94h-.9v-.33l.9-.25.28-1.38h.29v1.47h1.79v.49H31.72v3.86a1.73,1.73,0,0,0,.25,1A.9.9,0,0,0,32.74,255.66Z"/><path d="M37.38,249.82a5.09,5.09,0,0,1,.84.07l-.11.54a3,3,0,0,0-.79-.1A1.54,1.54,0,0,0,36,251a2.68,2.68,0,0,0-.5,1.68V256H35v-6.11h.47l.06,1.1h0a2.57,2.57,0,0,1,.8-.94A1.91,1.91,0,0,1,37.38,249.82Z"/><path d="M43.25,256H38.9v-.36l3.62-5.25H39.16v-.5h4.08v.36l-3.64,5.25h3.65Z"/><path d="M47.22,256.15a2.64,2.64,0,0,1-2.07-.82,3.28,3.28,0,0,1-.75-2.3,3.59,3.59,0,0,1,.72-2.34,2.39,2.39,0,0,1,1.94-.87,2.08,2.08,0,0,1,1.7.75,3.07,3.07,0,0,1,.62,2v.45H45a2.91,2.91,0,0,0,.58,1.92,2.09,2.09,0,0,0,1.65.66,5,5,0,0,0,.92-.07,5.67,5.67,0,0,0,1-.31v.5a4.75,4.75,0,0,1-1,.31A5.77,5.77,0,0,1,47.22,256.15Zm-.16-5.84a1.83,1.83,0,0,0-1.42.58,2.79,2.79,0,0,0-.62,1.68H48.8a2.64,2.64,0,0,0-.47-1.66A1.5,1.5,0,0,0,47.06,250.31Z"/><path d="M53.65,249.82a2.33,2.33,0,0,1,1.93.8,3.71,3.71,0,0,1,.64,2.36,3.55,3.55,0,0,1-.68,2.34,2.34,2.34,0,0,1-1.92.83,2.52,2.52,0,0,1-1.17-.27,2,2,0,0,1-.82-.76h-.06l-.15.92h-.35V247.3h.56v2.2c0,.33,0,.63,0,.91v.47h0a2.37,2.37,0,0,1,.83-.81A2.58,2.58,0,0,1,53.65,249.82Zm0,.5a1.82,1.82,0,0,0-1.54.62,3.45,3.45,0,0,0-.46,2v.09a3.2,3.2,0,0,0,.48,2,1.8,1.8,0,0,0,1.51.61,1.76,1.76,0,0,0,1.51-.7,3.35,3.35,0,0,0,.5-2C55.63,251.2,55,250.32,53.63,250.32Z"/><path d="M58.4,249.93v4a2,2,0,0,0,.38,1.34,1.61,1.61,0,0,0,1.21.41,2.08,2.08,0,0,0,1.6-.55,2.57,2.57,0,0,0,.51-1.79v-3.37h.55V256h-.47l-.1-.84h0a2.32,2.32,0,0,1-2.12.95c-1.39,0-2.08-.74-2.08-2.23v-4Z"/><path d="M63.88,258.8a1.91,1.91,0,0,1-.76-.14v-.48a2.81,2.81,0,0,0,.73.11c.56,0,.85-.33.85-1v-7.37h.55v7.29a1.76,1.76,0,0,1-.35,1.17A1.3,1.3,0,0,1,63.88,258.8Zm.74-10.56c0-.36.12-.54.35-.54a.31.31,0,0,1,.27.14.66.66,0,0,1,.1.4.68.68,0,0,1-.1.4.31.31,0,0,1-.27.14C64.74,248.78,64.62,248.6,64.62,248.24Z"/><path d="M70.61,257.43c0,.41.2.62.59.62a1.29,1.29,0,0,0,.47-.07v.47a1.63,1.63,0,0,1-.59.09,1,1,0,0,1-.75-.27,1,1,0,0,1-.28-.75,1.56,1.56,0,0,1,.23-.78A2.91,2.91,0,0,1,71,256l-.13-.89h0a3.14,3.14,0,0,1-.95.84,2.57,2.57,0,0,1-1.15.24,2,2,0,0,1-1.4-.46,1.66,1.66,0,0,1-.5-1.28,1.56,1.56,0,0,1,.75-1.38,4,4,0,0,1,2.15-.53l1.16,0v-.4a2.08,2.08,0,0,0-.35-1.32,1.37,1.37,0,0,0-1.14-.44,3.9,3.9,0,0,0-1.76.47l-.2-.48a4.55,4.55,0,0,1,2-.47,2,2,0,0,1,1.51.52,2.3,2.3,0,0,1,.49,1.63V256a3,3,0,0,0-.6.67A1.34,1.34,0,0,0,70.61,257.43Zm-1.85-1.79a1.94,1.94,0,0,0,2.1-2.11v-.6l-1.06,0a4,4,0,0,0-1.84.4,1.16,1.16,0,0,0-.55,1.06,1.12,1.12,0,0,0,.36.89A1.42,1.42,0,0,0,68.76,255.64Z"/><path d="M73.28,255.6c0-.37.15-.55.45-.55s.46.18.46.55-.16.55-.46.55S73.28,256,73.28,255.6Z"/></svg>