<svg id="Warstwa_1" data-name="Warstwa 1" xmlns="http://www.w3.org/2000/svg" viewBox="0 0 155 213.21"><defs><style>.cls-1{isolation:isolate;}.cls-2{fill:#3c3c3c;}.cls-3,.cls-4{fill:none;}.cls-3{stroke:#707070;}.cls-4{stroke:#1d1d1b;stroke-miterlimit:10;stroke-width:2px;}</style></defs><title>kurier</title><g id="Wybierz_rzeczy" data-name="Wybierz rzeczy" class="cls-1"><g class="cls-1"><path class="cls-2" d="M67.46,51.26H64.63v4.59H61.34V51.26h-9.6v-2.6l9.6-13.89h3.29V48.46h2.83Zm-6.12-2.8V43.18c0-1.88,0-3.41.14-4.61h-.11a16.16,16.16,0,0,1-1.27,2.3l-5.21,7.59Z"/></g></g><g id="ubrania_zabawki_sprzęt_i_inne" data-name="ubrania zabawki sprzęt i inne" class="cls-1"><g class="cls-1"><path class="cls-2" d="M18.32,158.27a12.94,12.94,0,0,1,1-1.25l2.77-2.93h1.53l-3.46,3.65,3.71,4.91H22.32l-3-4.05-1,.85v3.2H17V150.49h1.28v6.45c0,.29,0,.73-.07,1.33Z"/><path class="cls-2" d="M26.65,154.09v5.55a2.25,2.25,0,0,0,.48,1.57,2,2,0,0,0,1.49.51,2.45,2.45,0,0,0,2-.73,3.73,3.73,0,0,0,.62-2.4v-4.5H32.5v8.56H31.43l-.18-1.15h-.07a2.62,2.62,0,0,1-1.11,1,3.77,3.77,0,0,1-1.61.34,3.24,3.24,0,0,1-2.34-.75,3.13,3.13,0,0,1-.78-2.37v-5.6Z"/><path class="cls-2" d="M39.16,153.93a4.52,4.52,0,0,1,1,.1l-.18,1.2a4.23,4.23,0,0,0-.93-.12,2.26,2.26,0,0,0-1.78.85,3.08,3.08,0,0,0-.74,2.1v4.59h-1.3v-8.56h1.07l.15,1.58h.07a3.9,3.9,0,0,1,1.14-1.29A2.61,2.61,0,0,1,39.16,153.93Z"/><path class="cls-2" d="M41.68,151.77a.86.86,0,0,1,.21-.65.81.81,0,0,1,1.09,0,1,1,0,0,1,0,1.3.81.81,0,0,1-1.09,0A.89.89,0,0,1,41.68,151.77Zm1.4,10.88H41.79v-8.56h1.29Z"/><path class="cls-2" d="M49.45,162.81a3.94,3.94,0,0,1-3-1.16,4.48,4.48,0,0,1-1.09-3.21,5,5,0,0,1,1-3.29,3.37,3.37,0,0,1,2.73-1.22A3.21,3.21,0,0,1,51.66,155a4,4,0,0,1,.94,2.79v.82H46.7a3.36,3.36,0,0,0,.76,2.29,2.64,2.64,0,0,0,2,.78,7,7,0,0,0,2.73-.57v1.15a7,7,0,0,1-1.3.43A7.75,7.75,0,0,1,49.45,162.81ZM49.1,155a2.12,2.12,0,0,0-1.65.67,3.08,3.08,0,0,0-.72,1.86h4.48a2.87,2.87,0,0,0-.55-1.88A1.94,1.94,0,0,0,49.1,155Z"/><path class="cls-2" d="M58.71,153.93a4.61,4.61,0,0,1,1,.1l-.18,1.2a4.39,4.39,0,0,0-.94-.12,2.29,2.29,0,0,0-1.78.85,3.07,3.07,0,0,0-.73,2.1v4.59h-1.3v-8.56h1.07l.15,1.58h.06a3.92,3.92,0,0,1,1.15-1.29A2.6,2.6,0,0,1,58.71,153.93Z"/><path class="cls-2" d="M69.48,162.81A3.8,3.8,0,0,1,68,162.5a2.94,2.94,0,0,1-1.16-.95H66.7a11.9,11.9,0,0,1,.09,1.42v3.52H65.5v-12.4h1l.18,1.17h.06a3,3,0,0,1,1.17-1,3.65,3.65,0,0,1,1.52-.31,3.16,3.16,0,0,1,2.63,1.17,6.16,6.16,0,0,1,0,6.54A3.16,3.16,0,0,1,69.48,162.81ZM69.29,155a2.34,2.34,0,0,0-1.9.73,3.72,3.72,0,0,0-.6,2.31v.29a4.3,4.3,0,0,0,.6,2.58,2.3,2.3,0,0,0,1.93.78,2,2,0,0,0,1.74-.9,4.24,4.24,0,0,0,.63-2.47,4.1,4.1,0,0,0-.63-2.46A2.08,2.08,0,0,0,69.29,155Z"/><path class="cls-2" d="M79.21,153.93a4.52,4.52,0,0,1,1,.1l-.18,1.2a4.32,4.32,0,0,0-.94-.12,2.25,2.25,0,0,0-1.77.85,3,3,0,0,0-.74,2.1v4.59H75.3v-8.56h1.07l.15,1.58h.06a3.92,3.92,0,0,1,1.15-1.29A2.61,2.61,0,0,1,79.21,153.93Z"/><path class="cls-2" d="M87.31,162.65H81.1v-.88l4.67-6.67H81.39v-1h5.8v1l-4.61,6.54h4.73Z"/><path class="cls-2" d="M88,154.09h1.39L91.22,159a19.21,19.21,0,0,1,.77,2.41h.06c.07-.26.21-.71.43-1.36s.92-2.62,2.12-5.93H96l-3.68,9.75a4.88,4.88,0,0,1-1.28,2,2.73,2.73,0,0,1-1.79.6,5.06,5.06,0,0,1-1.17-.13v-1a4.57,4.57,0,0,0,1,.1,2,2,0,0,0,1.9-1.5l.48-1.22Z"/><path class="cls-2" d="M96.34,166.49a3.08,3.08,0,0,1-1.2-.19v-1.06a3.59,3.59,0,0,0,1.06.16,1.11,1.11,0,0,0,.89-.33,1.52,1.52,0,0,0,.29-1v-10h1.3V164C98.68,165.65,97.9,166.49,96.34,166.49Zm.93-14.72a.82.82,0,0,1,.22-.65.8.8,0,0,1,1.08,0,1,1,0,0,1,0,1.3.8.8,0,0,1-1.08,0A.85.85,0,0,1,97.27,151.77Z"/><path class="cls-2" d="M105,162.81a3.93,3.93,0,0,1-3-1.16,4.44,4.44,0,0,1-1.1-3.21,5,5,0,0,1,1-3.29,3.39,3.39,0,0,1,2.74-1.22,3.2,3.2,0,0,1,2.54,1.06,4,4,0,0,1,.94,2.79v.82h-5.9a3.42,3.42,0,0,0,.76,2.29,2.65,2.65,0,0,0,2,.78,7,7,0,0,0,2.73-.57v1.15a6.81,6.81,0,0,1-1.3.43A7.75,7.75,0,0,1,105,162.81Zm-.35-7.79a2.1,2.1,0,0,0-1.64.67,3.15,3.15,0,0,0-.73,1.86h4.48a2.81,2.81,0,0,0-.55-1.88A1.92,1.92,0,0,0,104.69,155Z"/><path class="cls-2" d="M116.23,161.5h-.07a3,3,0,0,1-2.69,1.31,3.19,3.19,0,0,1-2.61-1.15,5.09,5.09,0,0,1-.93-3.27,5.17,5.17,0,0,1,.93-3.29,3.17,3.17,0,0,1,2.61-1.17,3.1,3.1,0,0,1,2.67,1.27h.11l-.06-.62,0-.6v-3.49h1.3v12.16H116.4Zm-2.59.22a2.36,2.36,0,0,0,1.92-.72,3.64,3.64,0,0,0,.6-2.33v-.28a4.27,4.27,0,0,0-.61-2.6,2.3,2.3,0,0,0-1.93-.77,2,2,0,0,0-1.74.88,4.39,4.39,0,0,0-.61,2.51,4.2,4.2,0,0,0,.6,2.47A2,2,0,0,0,113.64,161.72Z"/><path class="cls-2" d="M125.68,162.65h-6.21v-.88l4.67-6.67h-4.38v-1h5.81v1L121,161.64h4.72Z"/><path class="cls-2" d="M127.58,151.77a.82.82,0,0,1,.22-.65.81.81,0,0,1,1.09,0,1.07,1.07,0,0,1,0,1.3.81.81,0,0,1-1.09,0A.85.85,0,0,1,127.58,151.77ZM129,162.65h-1.3v-8.56H129Z"/><path class="cls-2" d="M135.36,162.81a3.94,3.94,0,0,1-3-1.16,4.48,4.48,0,0,1-1.1-3.21,5,5,0,0,1,1-3.29,3.39,3.39,0,0,1,2.74-1.22,3.23,3.23,0,0,1,2.55,1.06,4.09,4.09,0,0,1,.93,2.79v.82h-5.89a3.36,3.36,0,0,0,.76,2.29,2.63,2.63,0,0,0,2,.78,7,7,0,0,0,2.74-.57v1.15a7,7,0,0,1-1.3.43A7.82,7.82,0,0,1,135.36,162.81ZM135,155a2.11,2.11,0,0,0-1.64.67,3.08,3.08,0,0,0-.72,1.86h4.47a2.87,2.87,0,0,0-.54-1.88A2,2,0,0,0,135,155Z"/><path class="cls-2" d="M37.33,181.85l-1.57-5c-.1-.31-.28-1-.55-2.1h-.07c-.2.91-.39,1.62-.54,2.11l-1.62,5h-1.5l-2.34-8.56H30.5q.84,3.22,1.27,4.91a21,21,0,0,1,.49,2.28h.06c.06-.3.15-.69.28-1.16s.24-.84.33-1.12l1.57-4.91h1.41l1.53,4.91a18.12,18.12,0,0,1,.6,2.26h.06a6.32,6.32,0,0,1,.17-.87q.13-.59,1.62-6.3h1.35l-2.37,8.56Z"/><path class="cls-2" d="M52.77,180.7H52.7A3.06,3.06,0,0,1,50,182a3.19,3.19,0,0,1-2.61-1.15,5.09,5.09,0,0,1-.94-3.27,5.17,5.17,0,0,1,.94-3.29A3.17,3.17,0,0,1,50,173.13a3.1,3.1,0,0,1,2.67,1.27h.11l-.06-.62,0-.6v-3.49H54v12.16H52.94Zm-2.59.22a2.36,2.36,0,0,0,1.92-.72,3.64,3.64,0,0,0,.6-2.33v-.28a4.21,4.21,0,0,0-.61-2.59,2.28,2.28,0,0,0-1.93-.78,2,2,0,0,0-1.75.88,4.48,4.48,0,0,0-.6,2.51,4.2,4.2,0,0,0,.6,2.47A2,2,0,0,0,50.18,180.92Z"/><path class="cls-2" d="M64.14,177.56a4.68,4.68,0,0,1-1.06,3.27A3.68,3.68,0,0,1,60.17,182a3.84,3.84,0,0,1-2-.54,3.66,3.66,0,0,1-1.38-1.55,5.43,5.43,0,0,1-.48-2.36,4.71,4.71,0,0,1,1-3.26,3.67,3.67,0,0,1,2.9-1.17,3.63,3.63,0,0,1,2.86,1.2A4.71,4.71,0,0,1,64.14,177.56Zm-6.53,0a4,4,0,0,0,.66,2.5,2.61,2.61,0,0,0,3.86,0,4.06,4.06,0,0,0,.66-2.51,4,4,0,0,0-.66-2.48,2.34,2.34,0,0,0-2-.85,2.27,2.27,0,0,0-1.92.84A4,4,0,0,0,57.61,177.56Z"/><path class="cls-2" d="M73.42,173.29v.82l-1.59.19a2.49,2.49,0,0,1,.39.71,2.62,2.62,0,0,1,.17,1,2.52,2.52,0,0,1-.85,2,3.48,3.48,0,0,1-2.36.75,4,4,0,0,1-.72-.06,1.26,1.26,0,0,0-.83,1.1.54.54,0,0,0,.29.52,2,2,0,0,0,1,.17h1.52a3.4,3.4,0,0,1,2.13.59,2,2,0,0,1,.75,1.7A2.44,2.44,0,0,1,72.17,185a6.09,6.09,0,0,1-3.33.74,4.53,4.53,0,0,1-2.59-.62,2,2,0,0,1-.91-1.77,2,2,0,0,1,.5-1.35,2.49,2.49,0,0,1,1.41-.77,1.29,1.29,0,0,1-.55-.46,1.22,1.22,0,0,1-.23-.73,1.44,1.44,0,0,1,.25-.82,2.75,2.75,0,0,1,.79-.68,2.3,2.3,0,0,1-1.08-.93,3.07,3.07,0,0,1,.43-3.67,3.46,3.46,0,0,1,2.39-.76,4.17,4.17,0,0,1,1.21.16Zm-6.83,10a1.16,1.16,0,0,0,.59,1.05,3.23,3.23,0,0,0,1.68.36,4.62,4.62,0,0,0,2.41-.49,1.47,1.47,0,0,0,.79-1.32,1.05,1.05,0,0,0-.43-1,3.52,3.52,0,0,0-1.62-.26H68.46a2.07,2.07,0,0,0-1.38.42A1.49,1.49,0,0,0,66.59,183.29Zm.7-7.26a1.74,1.74,0,0,0,.51,1.36,2,2,0,0,0,1.41.46,1.65,1.65,0,0,0,1.9-1.84,1.7,1.7,0,0,0-1.92-1.93,1.87,1.87,0,0,0-1.4.49A2,2,0,0,0,67.29,176Z"/><path class="cls-2" d="M82.57,177.56a4.73,4.73,0,0,1-1.06,3.27A3.68,3.68,0,0,1,78.6,182a3.84,3.84,0,0,1-2-.54,3.6,3.6,0,0,1-1.38-1.55,5.43,5.43,0,0,1-.48-2.36,4.71,4.71,0,0,1,1-3.26,3.67,3.67,0,0,1,2.9-1.17,3.63,3.63,0,0,1,2.86,1.2A4.71,4.71,0,0,1,82.57,177.56Zm-6.53,0a4,4,0,0,0,.66,2.5,2.61,2.61,0,0,0,3.86,0,4.06,4.06,0,0,0,.66-2.51,4,4,0,0,0-.66-2.48,2.34,2.34,0,0,0-2-.85,2.27,2.27,0,0,0-1.92.84A4,4,0,0,0,76,177.56Z"/><path class="cls-2" d="M90.67,180.7H90.6A3.06,3.06,0,0,1,87.91,182a3.19,3.19,0,0,1-2.61-1.15,5,5,0,0,1-.94-3.27,5.17,5.17,0,0,1,.94-3.29,3.17,3.17,0,0,1,2.61-1.17,3.1,3.1,0,0,1,2.67,1.27h.1l-.05-.62,0-.6v-3.49h1.29v12.16h-1Zm-2.6.22A2.37,2.37,0,0,0,90,180.2a3.64,3.64,0,0,0,.6-2.33v-.28A4.21,4.21,0,0,0,90,175a2.29,2.29,0,0,0-1.93-.78,2,2,0,0,0-1.75.88,4.48,4.48,0,0,0-.6,2.51,4.2,4.2,0,0,0,.6,2.47A2,2,0,0,0,88.07,180.92Z"/><path class="cls-2" d="M100.5,181.85v-5.54a2.26,2.26,0,0,0-.47-1.56,2,2,0,0,0-1.49-.52,2.46,2.46,0,0,0-2,.73,3.63,3.63,0,0,0-.63,2.4v4.49h-1.3v-8.56H95.7l.21,1.17H96a2.68,2.68,0,0,1,1.12-1,3.65,3.65,0,0,1,1.6-.35,3.25,3.25,0,0,1,2.33.75,3.17,3.17,0,0,1,.78,2.38v5.59Z"/><path class="cls-2" d="M103.11,173.29h1.39l1.87,4.88a19.75,19.75,0,0,1,.77,2.41h.06c.07-.26.21-.71.43-1.36s.92-2.62,2.12-5.93h1.39L107.46,183a4.88,4.88,0,0,1-1.28,2.05,2.75,2.75,0,0,1-1.79.6,5.2,5.2,0,0,1-1.18-.13v-1a4.74,4.74,0,0,0,1,.1,2,2,0,0,0,1.9-1.5l.48-1.22Z"/><path class="cls-2" d="M123.44,181.85v-5.57a2.25,2.25,0,0,0-.44-1.53,1.66,1.66,0,0,0-1.36-.52,2.16,2.16,0,0,0-1.78.7,3.28,3.28,0,0,0-.58,2.14v4.78H118v-5.57a2.31,2.31,0,0,0-.44-1.53,1.66,1.66,0,0,0-1.36-.52,2.14,2.14,0,0,0-1.79.73,4,4,0,0,0-.57,2.4v4.49h-1.29v-8.56h1l.21,1.17h.07a2.56,2.56,0,0,1,1-1,3.22,3.22,0,0,1,1.5-.35,2.55,2.55,0,0,1,2.62,1.45h.06a2.84,2.84,0,0,1,1.11-1.06,3.48,3.48,0,0,1,1.66-.39,2.91,2.91,0,0,1,2.18.75,3.34,3.34,0,0,1,.72,2.38v5.59Z"/><path class="cls-2" d="M50.18,200.14a4.77,4.77,0,0,0,.66,0c.21,0,.38-.07.51-.11v1a2.15,2.15,0,0,1-.62.17,5.37,5.37,0,0,1-.74.07c-1.66,0-2.49-.88-2.49-2.62V193.5H46.28v-.63l1.22-.54.55-1.83h.75v2h2.49v1H48.8v5a1.69,1.69,0,0,0,.37,1.18A1.26,1.26,0,0,0,50.18,200.14Z"/><path class="cls-2" d="M56.68,201.21a3.94,3.94,0,0,1-3-1.16,4.48,4.48,0,0,1-1.1-3.21,5,5,0,0,1,1-3.29,3.39,3.39,0,0,1,2.74-1.22,3.23,3.23,0,0,1,2.55,1.06,4.09,4.09,0,0,1,.93,2.79V197H53.93a3.36,3.36,0,0,0,.76,2.29,2.63,2.63,0,0,0,2,.78,7,7,0,0,0,2.74-.57v1.15a7.3,7.3,0,0,1-1.3.43A7.82,7.82,0,0,1,56.68,201.21Zm-.36-7.79a2.11,2.11,0,0,0-1.64.67A3.08,3.08,0,0,0,54,196h4.47a2.87,2.87,0,0,0-.54-1.88A2,2,0,0,0,56.32,193.42Z"/><path class="cls-2" d="M65.94,192.33a4.52,4.52,0,0,1,1,.1l-.17,1.2a4.39,4.39,0,0,0-.94-.12,2.26,2.26,0,0,0-1.78.85,3.08,3.08,0,0,0-.74,2.1v4.59H62v-8.56h1.07l.14,1.58h.07a3.76,3.76,0,0,1,1.14-1.28A2.54,2.54,0,0,1,65.94,192.33Z"/><path class="cls-2" d="M79.48,201.05v-5.57A2.31,2.31,0,0,0,79,194a1.66,1.66,0,0,0-1.36-.52,2.23,2.23,0,0,0-1.79.7,3.34,3.34,0,0,0-.57,2.14v4.78H74v-5.57a2.31,2.31,0,0,0-.44-1.53,1.68,1.68,0,0,0-1.37-.52,2.13,2.13,0,0,0-1.78.73,4,4,0,0,0-.57,2.4v4.49H68.57v-8.56h1.05l.21,1.17h.06a2.59,2.59,0,0,1,1-1,3.22,3.22,0,0,1,1.5-.35,2.55,2.55,0,0,1,2.62,1.46h.06a2.79,2.79,0,0,1,1.11-1.07,3.48,3.48,0,0,1,1.66-.39,2.87,2.87,0,0,1,2.17.75,3.29,3.29,0,0,1,.73,2.38v5.59Z"/><path class="cls-2" d="M83.34,190.17a.82.82,0,0,1,.22-.65.8.8,0,0,1,1.08,0,1,1,0,0,1,0,1.3.77.77,0,0,1-1.08,0A.85.85,0,0,1,83.34,190.17Zm1.41,10.88h-1.3v-8.56h1.3Z"/><path class="cls-2" d="M93.36,201.05v-5.54a2.21,2.21,0,0,0-.48-1.56,2,2,0,0,0-1.49-.52,2.46,2.46,0,0,0-2,.73,3.63,3.63,0,0,0-.63,2.4v4.49H87.5v-8.56h1l.21,1.17h.06a2.68,2.68,0,0,1,1.12-1,3.65,3.65,0,0,1,1.6-.35,3.25,3.25,0,0,1,2.33.75,3.17,3.17,0,0,1,.78,2.38v5.59Z"/><path class="cls-2" d="M97.21,190.17a.82.82,0,0,1,.22-.65.73.73,0,0,1,.54-.21.76.76,0,0,1,.54.21,1,1,0,0,1,0,1.3A.77.77,0,0,1,98,191a.74.74,0,0,1-.54-.22A.85.85,0,0,1,97.21,190.17Zm1.4,10.88H97.32v-8.56h1.29Z"/><path class="cls-2" d="M105,201.21a4,4,0,0,1-3-1.16,4.48,4.48,0,0,1-1.09-3.21,5,5,0,0,1,1-3.29,3.39,3.39,0,0,1,2.73-1.22,3.21,3.21,0,0,1,2.55,1.06,4,4,0,0,1,.94,2.79V197h-5.9a3.42,3.42,0,0,0,.76,2.29,2.64,2.64,0,0,0,2,.78,7,7,0,0,0,2.73-.57v1.15a7,7,0,0,1-1.3.43A7.75,7.75,0,0,1,105,201.21Zm-.35-7.79a2.12,2.12,0,0,0-1.65.67,3.14,3.14,0,0,0-.72,1.86h4.48a2.81,2.81,0,0,0-.55-1.88A1.92,1.92,0,0,0,104.63,193.42Z"/></g></g><line id="Line" class="cls-3" x1="44" y1="137.15" x2="114" y2="137.15"/><g id="Wybierz_rzeczy-2" data-name="Wybierz rzeczy" class="cls-1"><g class="cls-1"><path class="cls-2" d="M23.2,123.65H14v-1.46l6.48-9.59h-6.3v-1.8H23v1.48l-6.5,9.57H23.2Z"/><path class="cls-2" d="M31.34,123.65l-.42-1.35h-.07a4.11,4.11,0,0,1-1.41,1.21,4.58,4.58,0,0,1-1.83.32,3.08,3.08,0,0,1-2.24-.78,2.9,2.9,0,0,1-.8-2.19,2.56,2.56,0,0,1,1.11-2.26,6.49,6.49,0,0,1,3.41-.84l1.67-.05v-.52a2,2,0,0,0-.43-1.39,1.77,1.77,0,0,0-1.35-.46,4.51,4.51,0,0,0-1.43.22,10.94,10.94,0,0,0-1.32.51l-.67-1.47a7,7,0,0,1,1.73-.63,8.24,8.24,0,0,1,1.78-.22,4.21,4.21,0,0,1,2.8.81,3.17,3.17,0,0,1,.94,2.54v6.55Zm-3.08-1.41a2.53,2.53,0,0,0,1.8-.62,2.28,2.28,0,0,0,.69-1.77V119l-1.25,0a4.31,4.31,0,0,0-2.12.49,1.47,1.47,0,0,0-.67,1.33,1.3,1.3,0,0,0,.39,1A1.69,1.69,0,0,0,28.26,122.24Z"/><path class="cls-2" d="M43.89,123.65H41.81v-6a2.74,2.74,0,0,0-.42-1.67,1.55,1.55,0,0,0-1.32-.55,2,2,0,0,0-1.75.78,4.58,4.58,0,0,0-.56,2.59v4.84H35.69v-9.72h1.62l.29,1.27h.11a2.7,2.7,0,0,1,1.17-1.07,3.81,3.81,0,0,1,1.69-.38,2.94,2.94,0,0,1,3,1.53h.14a3,3,0,0,1,1.22-1.12,3.84,3.84,0,0,1,1.79-.41,3.26,3.26,0,0,1,2.53.88,3.85,3.85,0,0,1,.8,2.68v6.34H48v-6a2.73,2.73,0,0,0-.43-1.67,1.57,1.57,0,0,0-1.32-.55,2.07,2.07,0,0,0-1.77.75,3.89,3.89,0,0,0-.55,2.31Z"/><path class="cls-2" d="M61.53,118.77a5.28,5.28,0,0,1-1.23,3.72,4.36,4.36,0,0,1-3.4,1.34,4.67,4.67,0,0,1-2.41-.62,4.05,4.05,0,0,1-1.6-1.77,5.9,5.9,0,0,1-.57-2.67,5.28,5.28,0,0,1,1.22-3.69A4.39,4.39,0,0,1,57,113.75a4.33,4.33,0,0,1,3.34,1.36A5.26,5.26,0,0,1,61.53,118.77Zm-7.08,0c0,2.25.83,3.37,2.49,3.37s2.46-1.12,2.46-3.37-.83-3.33-2.48-3.33a2.1,2.1,0,0,0-1.88.86A4.32,4.32,0,0,0,54.45,118.77Zm1.13-6v-.22c.34-.41.68-.86,1-1.37s.63-.93.84-1.29h2.4V110a18.81,18.81,0,0,1-1.37,1.39A19.78,19.78,0,0,1,57,112.74Z"/><path class="cls-2" d="M71.87,123.65l-1.26-4.53c-.15-.49-.42-1.6-.82-3.35h-.08q-.51,2.37-.81,3.36l-1.29,4.52H65.32l-2.72-9.72h2.11L66,118.72c.28,1.18.48,2.2.59,3h.06c.06-.43.14-.92.27-1.47a11.23,11.23,0,0,1,.31-1.25l1.47-5.11h2.27L72.35,119q.14.43.33,1.32a12.63,12.63,0,0,1,.24,1.38H73a25.31,25.31,0,0,1,.61-3l1.26-4.79h2.07l-2.74,9.72Z"/><path class="cls-2" d="M85.27,118.52l1.17-1.46,2.94-3.13h2.38l-3.91,4.17L92,123.65H89.58l-3.12-4.26-1.13.93v3.33h-2V110h2v6.68l-.11,1.87Z"/><path class="cls-2" d="M100.43,123.65l-.29-1.27H100a3,3,0,0,1-1.23,1.06,4,4,0,0,1-1.81.39,3.59,3.59,0,0,1-2.64-.88,3.67,3.67,0,0,1-.87-2.67v-6.35h2.09v6A2.63,2.63,0,0,0,96,121.6a1.76,1.76,0,0,0,1.44.56,2.29,2.29,0,0,0,1.91-.78,4.35,4.35,0,0,0,.61-2.61v-4.84h2.07v9.72Z"/><path class="cls-2" d="M109.93,113.75a4.92,4.92,0,0,1,1,.09l-.21,1.93a3.84,3.84,0,0,0-.91-.11,2.64,2.64,0,0,0-2,.81,2.94,2.94,0,0,0-.77,2.1v5.08H105v-9.72h1.61l.28,1.71h.1a3.82,3.82,0,0,1,1.26-1.38A3,3,0,0,1,109.93,113.75Z"/><path class="cls-2" d="M112.63,111.35a1.13,1.13,0,0,1,.31-.85,1.17,1.17,0,0,1,.86-.3,1.14,1.14,0,0,1,.85.3,1.34,1.34,0,0,1,0,1.69,1.14,1.14,0,0,1-.85.3,1.17,1.17,0,0,1-.86-.3A1.12,1.12,0,0,1,112.63,111.35Zm2.19,12.3h-2.06v-9.72h2.06Z"/><path class="cls-2" d="M122,123.83a4.7,4.7,0,0,1-3.55-1.33,5,5,0,0,1-1.27-3.64,5.48,5.48,0,0,1,1.18-3.74,4.1,4.1,0,0,1,3.26-1.37,4,4,0,0,1,3,1.17,4.44,4.44,0,0,1,1.12,3.22v1.12h-6.48a3.2,3.2,0,0,0,.77,2.17,2.64,2.64,0,0,0,2,.76,7.35,7.35,0,0,0,1.6-.16,8.62,8.62,0,0,0,1.6-.54v1.68a6.55,6.55,0,0,1-1.53.51A9.43,9.43,0,0,1,122,123.83Zm-.38-8.51a2.12,2.12,0,0,0-1.58.62,3,3,0,0,0-.7,1.82h4.41a2.7,2.7,0,0,0-.58-1.82A2,2,0,0,0,121.64,115.32Z"/><path class="cls-2" d="M133.08,113.75a4.92,4.92,0,0,1,1,.09l-.21,1.93a3.84,3.84,0,0,0-.91-.11,2.64,2.64,0,0,0-2,.81,2.94,2.94,0,0,0-.77,2.1v5.08h-2.06v-9.72h1.61l.28,1.71h.1a3.82,3.82,0,0,1,1.26-1.38A3,3,0,0,1,133.08,113.75Z"/><path class="cls-2" d="M142,123.65l-.41-1.35h-.07a4,4,0,0,1-1.42,1.21,4.52,4.52,0,0,1-1.83.32,3.06,3.06,0,0,1-2.23-.78,2.87,2.87,0,0,1-.81-2.19,2.55,2.55,0,0,1,1.12-2.26,6.45,6.45,0,0,1,3.4-.84l1.68-.05v-.52a2,2,0,0,0-.44-1.39,1.77,1.77,0,0,0-1.35-.46,4.59,4.59,0,0,0-1.43.22,10.94,10.94,0,0,0-1.32.51l-.67-1.47A6.92,6.92,0,0,1,138,114a8.15,8.15,0,0,1,1.77-.22,4.2,4.2,0,0,1,2.8.81,3.17,3.17,0,0,1,.95,2.54v6.55Zm-3.08-1.41a2.57,2.57,0,0,0,1.81-.62,2.31,2.31,0,0,0,.68-1.77V119l-1.25,0a4.31,4.31,0,0,0-2.12.49,1.48,1.48,0,0,0-.66,1.33,1.33,1.33,0,0,0,.38,1A1.71,1.71,0,0,0,138.91,122.24Z"/></g></g><path class="cls-4" d="M82.82,57.22h0Z"/><path class="cls-4" d="M95.21,83.36a6.88,6.88,0,1,0,6.87-6.88A6.88,6.88,0,0,0,95.21,83.36Z"/><path class="cls-4" d="M56.71,87.49a6.83,6.83,0,0,0,10.95,0"/><path class="cls-4" d="M73.19,64.1h-11a11,11,0,0,0-11,11v8.25H84.51a6.88,6.88,0,0,0,5.84-3.23l2.83-4.54A6.9,6.9,0,0,1,99,72.36a2.63,2.63,0,0,0,2.3-3.9L93.48,54.19a2,2,0,0,0-3.77,1V66.56a11,11,0,0,1-1.56,5.65,8.8,8.8,0,0,1-7.54,4.27H73.19V68.23"/><rect class="cls-4" x="45.68" y="31.09" width="27.51" height="27.51" transform="translate(118.87 89.68) rotate(180)"/><path class="cls-4" d="M103.46,50.34a5.51,5.51,0,0,0,0,11Z"/><line class="cls-4" x1="78.7" y1="64.1" x2="73.19" y2="64.1"/><line class="cls-4" x1="69.06" y1="69.6" x2="62.18" y2="69.6"/><line class="cls-4" x1="69.06" y1="75.11" x2="62.18" y2="75.11"/></svg>