<svg id="Warstwa_1" data-name="Warstwa 1" xmlns="http://www.w3.org/2000/svg" viewBox="0 0 200 325"><defs><style>.cls-1,.cls-4{fill:none;}.cls-1{stroke:#707070;}.cls-2{isolation:isolate;}.cls-3{fill:#3c3c3c;}.cls-4{stroke:#424242;stroke-linecap:round;stroke-linejoin:round;stroke-width:3px;}</style></defs><title>lokalsi</title><line id="Line" class="cls-1" x1="63.72" y1="159.79" x2="133.72" y2="159.79"/><g id="Wybierz_rzeczy" data-name="Wybierz rzeczy" class="cls-2"><g class="cls-2"><path class="cls-3" d="M51.2,123.68V110.83h2.1v11h5.44v1.81Z"/><path class="cls-3" d="M72.36,117.23a7,7,0,0,1-1.57,4.88,5.65,5.65,0,0,1-4.44,1.74,5.72,5.72,0,0,1-4.47-1.72,7.09,7.09,0,0,1-1.56-4.91,7,7,0,0,1,1.57-4.89,5.77,5.77,0,0,1,4.48-1.71,5.66,5.66,0,0,1,4.43,1.74A7,7,0,0,1,72.36,117.23Zm-9.81,0a5.73,5.73,0,0,0,1,3.6,3.89,3.89,0,0,0,5.66,0,7.26,7.26,0,0,0,0-7.2,3.31,3.31,0,0,0-2.81-1.22,3.42,3.42,0,0,0-2.86,1.22A5.7,5.7,0,0,0,62.55,117.23Z"/><path class="cls-3" d="M84.93,123.68H82.5l-4-5.82-1.24,1v4.81h-2.1V110.83h2.1V117c.58-.7,1.15-1.38,1.72-2l3.47-4.1H84.8c-2.25,2.63-3.85,4.51-4.83,5.63Z"/><path class="cls-3" d="M94.6,123.68l-1.29-3.57H88.4l-1.26,3.57H84.93l4.81-12.91H92l4.81,12.91Zm-1.84-5.38-1.2-3.5c-.09-.24-.21-.6-.37-1.11s-.26-.87-.32-1.11a20.67,20.67,0,0,1-.69,2.37L89,118.3Z"/><path class="cls-3" d="M98.53,123.68V110.83h2.1v11h5.44v1.81Z"/><path class="cls-3" d="M119,123.68h-2.58l-6.32-10.24H110l0,.57c.08,1.09.12,2.08.12,3v6.68h-1.91V110.83h2.55l6.3,10.18h.06c0-.13,0-.62-.07-1.47s-.06-1.51-.06-2v-6.73H119Z"/><path class="cls-3" d="M126,116.69l3-5.86h2.29l-4.28,7.86v5H125v-4.92l-4.27-7.93H123Z"/><path class="cls-3" d="M138.59,123.68l-3.73-10.74h-.07c.1,1.6.15,3.09.15,4.49v6.25H133V110.83h3l3.57,10.22h.06l3.67-10.22h3v12.85h-2v-6.36c0-.64,0-1.47,0-2.49s.06-1.65.08-1.87h-.07l-3.86,10.72Z"/><path class="cls-3" d="M60.65,145.28H51.46v-1.46l6.48-9.59h-6.3v-1.8h8.84v1.47L54,143.47h6.68Z"/><path class="cls-3" d="M62.93,132.43h3.82a7.2,7.2,0,0,1,3.83.77,2.71,2.71,0,0,1,1.18,2.44,2.92,2.92,0,0,1-.58,1.87,2.58,2.58,0,0,1-1.67,1v.08a3.29,3.29,0,0,1,2,1,3,3,0,0,1,.64,2,3.31,3.31,0,0,1-1.21,2.72,5.19,5.19,0,0,1-3.36,1H62.93Zm2.1,5.3h2a3.48,3.48,0,0,0,1.93-.41,1.61,1.61,0,0,0,.6-1.42,1.41,1.41,0,0,0-.65-1.31,4.09,4.09,0,0,0-2.08-.41H65Zm0,1.71v4.07h2.23a3.24,3.24,0,0,0,2-.51,1.84,1.84,0,0,0,.68-1.59,1.71,1.71,0,0,0-.69-1.49,3.65,3.65,0,0,0-2.08-.48Z"/><path class="cls-3" d="M74.81,145.28V132.43h2.1v12.85Z"/><path class="cls-3" d="M91.71,138.83a7,7,0,0,1-1.56,4.88,6.6,6.6,0,0,1-8.92,0,8.44,8.44,0,0,1,0-9.79,5.78,5.78,0,0,1,4.48-1.71A5.65,5.65,0,0,1,90.15,134,7,7,0,0,1,91.71,138.83Zm-9.8,0a5.79,5.79,0,0,0,1,3.6,3.9,3.9,0,0,0,5.67,0,5.84,5.84,0,0,0,1-3.62,5.77,5.77,0,0,0-.94-3.58A3.33,3.33,0,0,0,85.72,134a3.39,3.39,0,0,0-2.85,1.22A5.7,5.7,0,0,0,81.91,138.83Zm2.47-7.43v-.22c.34-.41.68-.87,1-1.37s.63-.94.84-1.3h2.4v.19a17.2,17.2,0,0,1-1.37,1.38q-.92.85-1.53,1.32Z"/><path class="cls-3" d="M96.58,140.14v5.14H94.47V132.43H98.1a6,6,0,0,1,3.69.93,3.36,3.36,0,0,1,1.19,2.81,3.52,3.52,0,0,1-2.49,3.42l3.63,5.69h-2.39l-3.08-5.14Zm0-1.74H98a3.36,3.36,0,0,0,2.13-.54,2,2,0,0,0,.66-1.62,1.73,1.73,0,0,0-.71-1.56A3.89,3.89,0,0,0,98,134.2H96.58Z"/><path class="cls-3" d="M115.79,145.28h-2.44l-4-5.82-1.24,1v4.81H106V132.43h2.1v6.13c.57-.7,1.15-1.38,1.71-2l3.48-4.1h2.39q-3.37,3.94-4.83,5.63Z"/><path class="cls-3" d="M128.89,138.83a7,7,0,0,1-1.57,4.88,6.59,6.59,0,0,1-8.91,0,7,7,0,0,1-1.56-4.9,6.94,6.94,0,0,1,1.57-4.89,5.78,5.78,0,0,1,4.48-1.71,5.65,5.65,0,0,1,4.43,1.74A7,7,0,0,1,128.89,138.83Zm-9.81,0a5.73,5.73,0,0,0,1,3.6,3.9,3.9,0,0,0,5.67,0,5.84,5.84,0,0,0,1-3.62,5.77,5.77,0,0,0-1-3.58A3.3,3.3,0,0,0,122.9,134a3.39,3.39,0,0,0-2.85,1.22A5.64,5.64,0,0,0,119.08,138.83Z"/><path class="cls-3" d="M137.21,145.28l-3.73-10.74h-.07c.1,1.6.15,3.09.15,4.49v6.25h-1.91V132.43h3l3.57,10.22h.06l3.67-10.22h3v12.85h-2v-6.36c0-.64,0-1.47,0-2.49s.06-1.65.08-1.87h-.07l-3.86,10.72Z"/></g></g><path d="M59.18,184.07h-.47l-1.8-6.33c-.15-.52-.27-1-.34-1.28-.06.32-.15.7-.26,1.12s-.71,2.59-1.81,6.49H54l-2.26-8.21h.6l1.44,5.29c.06.21.11.41.16.59l.13.51c0,.16.08.32.11.46s.06.3.08.45c.09-.51.28-1.28.58-2.32l1.4-5h.64l1.64,5.72c.19.66.33,1.19.41,1.59,0-.27.11-.55.19-.86s.65-2.45,1.73-6.45h.58Z"/><path d="M66.54,182.48a1.45,1.45,0,0,1-.62,1.26,3,3,0,0,1-1.77.44,4.21,4.21,0,0,1-1.94-.37v-.6a4.36,4.36,0,0,0,1.94.46,2.55,2.55,0,0,0,1.37-.3.9.9,0,0,0,.47-.8,1,1,0,0,0-.37-.78,4.31,4.31,0,0,0-1.23-.62,6.6,6.6,0,0,1-1.28-.57,1.71,1.71,0,0,1-.56-.54,1.3,1.3,0,0,1-.19-.73,1.24,1.24,0,0,1,.57-1.08,2.78,2.78,0,0,1,1.61-.4,4.78,4.78,0,0,1,1.88.37l-.21.5a4.52,4.52,0,0,0-1.67-.37,2.46,2.46,0,0,0-1.18.25.77.77,0,0,0-.44.69.94.94,0,0,0,.34.76,4.94,4.94,0,0,0,1.33.64,6.5,6.5,0,0,1,1.2.54,1.71,1.71,0,0,1,.56.54A1.28,1.28,0,0,1,66.54,182.48Z"/><path d="M70.73,184.18a2.24,2.24,0,0,1-2.06-1.05h0l0,.47c0,.28,0,.58,0,.91v2.32h-.56V178h.48l.1.87h0a2.21,2.21,0,0,1,2-1,2.26,2.26,0,0,1,1.88.81,3.73,3.73,0,0,1,.65,2.36,3.59,3.59,0,0,1-.68,2.33A2.27,2.27,0,0,1,70.73,184.18Zm0-.49a1.71,1.71,0,0,0,1.46-.7,3.23,3.23,0,0,0,.51-2c0-1.79-.65-2.69-1.94-2.69a2,2,0,0,0-1.57.59,3,3,0,0,0-.5,1.91V181a3.38,3.38,0,0,0,.48,2.05A1.89,1.89,0,0,0,70.71,183.69Z"/><path d="M74.88,176.27c0-.36.12-.54.35-.54a.34.34,0,0,1,.28.14.85.85,0,0,1,0,.8.32.32,0,0,1-.28.15C75,176.82,74.88,176.63,74.88,176.27Zm.64,7.8H75V178h.56Z"/><path d="M80,184.18a2.65,2.65,0,0,1-2.07-.82,3.25,3.25,0,0,1-.74-2.29,3.61,3.61,0,0,1,.71-2.34,2.37,2.37,0,0,1,1.94-.88,2.08,2.08,0,0,1,1.7.75,3.07,3.07,0,0,1,.63,2v.45h-4.4a2.86,2.86,0,0,0,.59,1.92,2,2,0,0,0,1.64.67,4.92,4.92,0,0,0,.92-.08,4.75,4.75,0,0,0,1-.31v.51a4.12,4.12,0,0,1-1,.3A4.82,4.82,0,0,1,80,184.18Zm-.16-5.84a1.83,1.83,0,0,0-1.41.58,2.74,2.74,0,0,0-.63,1.68H81.6a2.71,2.71,0,0,0-.46-1.66A1.53,1.53,0,0,0,79.86,178.34Z"/><path d="M86.27,177.85a5.16,5.16,0,0,1,.84.08l-.11.53a3.48,3.48,0,0,0-.79-.09,1.54,1.54,0,0,0-1.28.66,2.65,2.65,0,0,0-.5,1.67v3.37h-.56V178h.47l.06,1.1h0a2.62,2.62,0,0,1,.8-.95A1.91,1.91,0,0,1,86.27,177.85Z"/><path d="M92.05,184.07l-.14-1h0a2.79,2.79,0,0,1-1,.84,2.57,2.57,0,0,1-1.15.24,2,2,0,0,1-1.4-.46,1.64,1.64,0,0,1-.49-1.27,1.56,1.56,0,0,1,.74-1.39,4,4,0,0,1,2.15-.52l1.16,0v-.41a2,2,0,0,0-.35-1.31,1.37,1.37,0,0,0-1.14-.45,3.9,3.9,0,0,0-1.76.47l-.2-.48a4.7,4.7,0,0,1,2-.47,2,2,0,0,1,1.51.52,2.3,2.3,0,0,1,.49,1.63v4.06Zm-2.24-.39a1.94,1.94,0,0,0,2.1-2.11V181l-1.07,0a4,4,0,0,0-1.83.4,1.17,1.17,0,0,0-.55,1.06,1.12,1.12,0,0,0,.36.89A1.42,1.42,0,0,0,89.81,183.68Z"/><path d="M102.06,184.07v-4a2,2,0,0,0-.34-1.31,1.35,1.35,0,0,0-1.07-.41,1.76,1.76,0,0,0-1.39.52,2.45,2.45,0,0,0-.45,1.62v3.58h-.56V179.9c0-1-.48-1.55-1.42-1.55a1.68,1.68,0,0,0-1.4.56A3,3,0,0,0,95,180.7v3.37h-.56V178h.46l.12.83h0a1.74,1.74,0,0,1,.72-.7,2.09,2.09,0,0,1,1-.25,1.75,1.75,0,0,1,1.85,1.08h0a2.12,2.12,0,0,1,.8-.8,2.3,2.3,0,0,1,1.15-.28,2,2,0,0,1,1.5.53,2.45,2.45,0,0,1,.49,1.7v4Z"/><path d="M103.57,178h.57l1.29,3.42q.6,1.58.75,2.13h0c.16-.48.42-1.2.77-2.16l1.29-3.39h.58l-2.74,7.09a5.68,5.68,0,0,1-.55,1.17,1.5,1.5,0,0,1-.53.45,1.61,1.61,0,0,1-.73.15,2.8,2.8,0,0,1-.71-.11v-.49a2.63,2.63,0,0,0,.7.09,1,1,0,0,0,.51-.13,1.25,1.25,0,0,0,.4-.42,6,6,0,0,0,.4-.9l.31-.8Z"/><path d="M113.41,184.07h-.55v-8.74h.55Z"/><path d="M120.5,181a3.46,3.46,0,0,1-.72,2.33,2.5,2.5,0,0,1-2,.84,2.63,2.63,0,0,1-1.41-.38,2.48,2.48,0,0,1-.94-1.12,4,4,0,0,1-.33-1.67,3.41,3.41,0,0,1,.73-2.33,2.5,2.5,0,0,1,2-.83,2.46,2.46,0,0,1,2,.84A3.48,3.48,0,0,1,120.5,181Zm-4.81,0a3.09,3.09,0,0,0,.55,2,2.08,2.08,0,0,0,3.13,0,3.74,3.74,0,0,0,0-3.92,2.1,2.1,0,0,0-3.13,0A3.11,3.11,0,0,0,115.69,181Z"/><path d="M122.74,181.39l3.12-3.42h.67l-2.4,2.6,2.61,3.5h-.67L123.75,181l-1,.91v2.17h-.56v-8.74h.56v4.38l0,1.68Z"/><path d="M131.47,184.07l-.14-1h-.05a2.79,2.79,0,0,1-.95.84,2.52,2.52,0,0,1-1.14.24,2,2,0,0,1-1.4-.46,1.61,1.61,0,0,1-.5-1.27,1.58,1.58,0,0,1,.74-1.39,4.08,4.08,0,0,1,2.15-.52l1.17,0v-.41a2,2,0,0,0-.36-1.31,1.35,1.35,0,0,0-1.14-.45,3.83,3.83,0,0,0-1.75.47l-.21-.48a4.71,4.71,0,0,1,2-.47,2,2,0,0,1,1.5.52,2.3,2.3,0,0,1,.5,1.63v4.06Zm-2.25-.39a2.11,2.11,0,0,0,1.54-.56,2.07,2.07,0,0,0,.57-1.55V181l-1.07,0a4,4,0,0,0-1.84.4,1.17,1.17,0,0,0-.54,1.06,1.12,1.12,0,0,0,.35.89A1.42,1.42,0,0,0,129.22,183.68Z"/><path d="M134.41,184.07h-.56v-8.74h.56Z"/><path d="M140.71,184.07v-4a1.93,1.93,0,0,0-.39-1.34,1.56,1.56,0,0,0-1.2-.42,2.06,2.06,0,0,0-1.6.56,2.59,2.59,0,0,0-.51,1.79v3.37h-.56V178h.47l.11.83h0a2.32,2.32,0,0,1,2.12-1c1.39,0,2.08.74,2.08,2.23v4Z"/><path d="M145.7,184.18a2.62,2.62,0,0,1-2.07-.82,3.26,3.26,0,0,1-.75-2.29,3.56,3.56,0,0,1,.72-2.34,2.36,2.36,0,0,1,1.94-.88,2.1,2.1,0,0,1,1.7.75,3.12,3.12,0,0,1,.62,2v.45h-4.4a2.91,2.91,0,0,0,.59,1.92,2.06,2.06,0,0,0,1.65.67,5,5,0,0,0,.92-.08,4.93,4.93,0,0,0,1-.31v.51a4.12,4.12,0,0,1-1,.3A5,5,0,0,1,145.7,184.18Zm-.16-5.84a1.87,1.87,0,0,0-1.42.58,2.79,2.79,0,0,0-.62,1.68h3.77a2.64,2.64,0,0,0-.46-1.66A1.52,1.52,0,0,0,145.54,178.34Z"/><path d="M50.14,197.87H45.78v-.35l3.62-5.26H46.05v-.49h4.08v.35l-3.65,5.26h3.66Z"/><path d="M54.22,191.65a2.34,2.34,0,0,1,1.93.8,3.73,3.73,0,0,1,.65,2.36,3.63,3.63,0,0,1-.68,2.35,2.36,2.36,0,0,1-1.92.82,2.49,2.49,0,0,1-1.17-.27,2,2,0,0,1-.83-.76h-.05l-.16.92h-.35v-8.74h.56v2.2c0,.33,0,.63,0,.91l0,.48h0a2.16,2.16,0,0,1,.84-.81A2.42,2.42,0,0,1,54.22,191.65Zm0,.5a1.81,1.81,0,0,0-1.54.62,3.44,3.44,0,0,0-.47,2v.1a3.13,3.13,0,0,0,.49,2,1.81,1.81,0,0,0,1.51.6,1.74,1.74,0,0,0,1.51-.7,3.42,3.42,0,0,0,.5-2C56.21,193,55.54,192.15,54.21,192.15Z"/><path d="M58.41,190.07c0-.36.12-.54.35-.54a.34.34,0,0,1,.28.14.85.85,0,0,1,0,.8.32.32,0,0,1-.28.15C58.53,190.62,58.41,190.43,58.41,190.07Zm.64,7.8h-.56v-6.1h.56Z"/><path d="M66.14,194.81a3.41,3.41,0,0,1-.73,2.33,2.5,2.5,0,0,1-2,.84A2.66,2.66,0,0,1,62,197.6a2.48,2.48,0,0,1-.94-1.12,4,4,0,0,1-.32-1.67,3.46,3.46,0,0,1,.72-2.33,2.52,2.52,0,0,1,2-.83,2.45,2.45,0,0,1,2,.84A3.48,3.48,0,0,1,66.14,194.81Zm-4.82,0a3.09,3.09,0,0,0,.55,2,2.08,2.08,0,0,0,3.13,0,3.77,3.77,0,0,0,0-3.92,1.93,1.93,0,0,0-1.57-.7,1.87,1.87,0,0,0-1.56.7A3,3,0,0,0,61.32,194.81Zm1.55-4q.41-.44.81-1a7,7,0,0,0,.55-.79H65v.1a5.58,5.58,0,0,1-.69.77c-.32.32-.68.65-1.07,1h-.39Z"/><path d="M70.23,191.65a5,5,0,0,1,.83.08l-.1.53a3.5,3.5,0,0,0-.8-.09,1.55,1.55,0,0,0-1.28.66,2.72,2.72,0,0,0-.5,1.67v3.37h-.55v-6.1h.47l.06,1.1h0a2.63,2.63,0,0,1,.81-1A1.88,1.88,0,0,1,70.23,191.65Z"/><path d="M72.85,195.19,76,191.77h.68l-2.4,2.6,2.61,3.5h-.67l-2.32-3.08-1,.91v2.17H72.3v-8.74h.56v4.38l0,1.68Z"/><path d="M77.79,190.07c0-.36.12-.54.35-.54a.34.34,0,0,1,.28.14.93.93,0,0,1,0,.8.32.32,0,0,1-.28.15C77.91,190.62,77.79,190.43,77.79,190.07Zm.63,7.8h-.55v-6.1h.55Z"/><path d="M88.5,194.81a3.46,3.46,0,0,1-.72,2.33,2.5,2.5,0,0,1-2,.84,2.67,2.67,0,0,1-1.42-.38,2.46,2.46,0,0,1-.93-1.12,4,4,0,0,1-.33-1.67,3.41,3.41,0,0,1,.73-2.33,2.77,2.77,0,0,1,4,0A3.53,3.53,0,0,1,88.5,194.81Zm-4.82,0a3.09,3.09,0,0,0,.56,2,2.08,2.08,0,0,0,3.13,0,3.15,3.15,0,0,0,.55-2,3.07,3.07,0,0,0-.56-2,1.92,1.92,0,0,0-1.57-.7,1.9,1.9,0,0,0-1.56.7A3.11,3.11,0,0,0,83.68,194.81Z"/><path d="M92.6,191.65a5.15,5.15,0,0,1,.83.08l-.11.53a3.42,3.42,0,0,0-.79-.09,1.54,1.54,0,0,0-1.28.66,2.72,2.72,0,0,0-.5,1.67v3.37h-.56v-6.1h.48l0,1.1h0a2.62,2.62,0,0,1,.8-1A1.92,1.92,0,0,1,92.6,191.65Z"/><path d="M99.43,191.77v.38l-1.26.08a2.19,2.19,0,0,1,.5,1.38,1.85,1.85,0,0,1-.58,1.43,2.22,2.22,0,0,1-1.58.55,3.73,3.73,0,0,1-.58,0,1.42,1.42,0,0,0-.51.41.78.78,0,0,0-.17.5.45.45,0,0,0,.22.42,1.48,1.48,0,0,0,.74.14h1.07a2.46,2.46,0,0,1,1.52.4,1.41,1.41,0,0,1,.53,1.19,1.7,1.7,0,0,1-.78,1.49,4,4,0,0,1-2.24.52,3,3,0,0,1-1.78-.44A1.44,1.44,0,0,1,93.9,199a1.46,1.46,0,0,1,.39-1,2,2,0,0,1,1.06-.57,1.14,1.14,0,0,1-.44-.33.82.82,0,0,1-.17-.5,1.31,1.31,0,0,1,.78-1.08,1.74,1.74,0,0,1-.83-.68,2,2,0,0,1-.3-1.08A2,2,0,0,1,95,192.2a2.2,2.2,0,0,1,1.57-.55,2.9,2.9,0,0,1,.94.12Zm-4.94,7.13c0,.84.62,1.26,1.87,1.26q2.4,0,2.4-1.53a.89.89,0,0,0-.37-.8,2.37,2.37,0,0,0-1.22-.25h-1Q94.49,197.58,94.49,198.9Zm.47-5.23a1.43,1.43,0,0,0,.42,1.1,1.65,1.65,0,0,0,1.15.39,1.62,1.62,0,0,0,1.17-.39,1.44,1.44,0,0,0,.41-1.12,1.52,1.52,0,0,0-.42-1.17,1.65,1.65,0,0,0-1.17-.39,1.56,1.56,0,0,0-1.15.42A1.54,1.54,0,0,0,95,193.67Z"/><path d="M104.39,197.87l-.14-1h0a2.77,2.77,0,0,1-.94.84,2.6,2.6,0,0,1-1.15.24,2,2,0,0,1-1.4-.46,1.64,1.64,0,0,1-.5-1.27,1.58,1.58,0,0,1,.74-1.39,4.09,4.09,0,0,1,2.16-.52l1.16,0v-.41a2.09,2.09,0,0,0-.35-1.31,1.37,1.37,0,0,0-1.14-.45,3.87,3.87,0,0,0-1.76.47l-.21-.48a4.71,4.71,0,0,1,2-.47,2,2,0,0,1,1.5.52,2.3,2.3,0,0,1,.5,1.63v4.06Zm-2.25-.39a2.09,2.09,0,0,0,1.54-.56,2.07,2.07,0,0,0,.57-1.55v-.61l-1.07.05a3.93,3.93,0,0,0-1.83.4,1.3,1.3,0,0,0-.2,1.95A1.42,1.42,0,0,0,102.14,197.48Z"/><path d="M111,197.87v-4a1.93,1.93,0,0,0-.39-1.34,1.53,1.53,0,0,0-1.2-.42,2.07,2.07,0,0,0-1.6.56,2.59,2.59,0,0,0-.51,1.79v3.37h-.56v-6.1h.48l.1.83h0a2.29,2.29,0,0,1,2.11-.95c1.39,0,2.08.74,2.08,2.23v4Z"/><path d="M113.48,190.07c0-.36.12-.54.35-.54a.34.34,0,0,1,.28.14.93.93,0,0,1,0,.8.32.32,0,0,1-.28.15C113.6,190.62,113.48,190.43,113.48,190.07Zm.63,7.8h-.55v-6.1h.55Z"/><path d="M120,197.87H115.6v-.35l3.62-5.26h-3.36v-.49h4.08v.35l-3.64,5.26H120Z"/><path d="M126.51,194.81a3.46,3.46,0,0,1-.73,2.33,2.5,2.5,0,0,1-2,.84,2.66,2.66,0,0,1-1.41-.38,2.48,2.48,0,0,1-.94-1.12,4,4,0,0,1-.33-1.67,3.46,3.46,0,0,1,.73-2.33,2.5,2.5,0,0,1,2-.83,2.45,2.45,0,0,1,2,.84A3.48,3.48,0,0,1,126.51,194.81Zm-4.82,0a3.09,3.09,0,0,0,.55,2,2.08,2.08,0,0,0,3.13,0,3.09,3.09,0,0,0,.55-2,3,3,0,0,0-.56-2,1.9,1.9,0,0,0-1.57-.7,1.86,1.86,0,0,0-1.55.7A3,3,0,0,0,121.69,194.81Z"/><path d="M133.08,197.87l-1.34-4.08c-.09-.28-.2-.69-.33-1.22h0l-.12.42-.26.81-1.35,4.07h-.56l-1.74-6.1h.59l1,3.53c.23.88.38,1.52.45,1.94h0c.23-.88.39-1.46.49-1.75l1.25-3.72h.51l1.2,3.71c.27.88.43,1.46.49,1.74h0q0-.36.45-1.95l.93-3.5h.57l-1.66,6.1Z"/><path d="M140.22,197.87l-.14-1H140a2.77,2.77,0,0,1-.94.84,2.6,2.6,0,0,1-1.15.24,2,2,0,0,1-1.4-.46,1.64,1.64,0,0,1-.5-1.27,1.57,1.57,0,0,1,.75-1.39,4,4,0,0,1,2.15-.52l1.16,0v-.41a2.09,2.09,0,0,0-.35-1.31,1.37,1.37,0,0,0-1.14-.45,3.87,3.87,0,0,0-1.76.47l-.21-.48a4.71,4.71,0,0,1,2-.47,2,2,0,0,1,1.5.52,2.3,2.3,0,0,1,.5,1.63v4.06Zm-2.25-.39a2.09,2.09,0,0,0,1.54-.56,2.07,2.07,0,0,0,.57-1.55v-.61l-1.07.05a3.93,3.93,0,0,0-1.83.4,1.3,1.3,0,0,0-.2,1.95A1.45,1.45,0,0,0,138,197.48Z"/><path d="M146.86,197.87v-4a1.93,1.93,0,0,0-.39-1.34,1.53,1.53,0,0,0-1.2-.42,2.07,2.07,0,0,0-1.6.56,2.59,2.59,0,0,0-.51,1.79v3.37h-.55v-6.1h.47l.1.83h0a2.31,2.31,0,0,1,2.12-.95c1.38,0,2.07.74,2.07,2.23v4Z"/><path d="M151.85,198a2.65,2.65,0,0,1-2.07-.82,3.25,3.25,0,0,1-.74-2.29,3.61,3.61,0,0,1,.71-2.34,2.37,2.37,0,0,1,1.94-.88,2.08,2.08,0,0,1,1.7.75,3.07,3.07,0,0,1,.63,2v.45h-4.4a2.86,2.86,0,0,0,.59,1.92,2,2,0,0,0,1.64.67,4.92,4.92,0,0,0,.92-.08,4.75,4.75,0,0,0,1-.31v.51a4.12,4.12,0,0,1-1,.3A4.82,4.82,0,0,1,151.85,198Zm-.16-5.84a1.83,1.83,0,0,0-1.41.58,2.74,2.74,0,0,0-.63,1.68h3.78a2.71,2.71,0,0,0-.46-1.66A1.53,1.53,0,0,0,151.69,192.14Z"/><path d="M54.1,211.78a2.22,2.22,0,0,1-2.05-1.05h0l0,.47c0,.28,0,.58,0,.91v2.32h-.56v-8.86H52l.11.87h0a2.21,2.21,0,0,1,2-1,2.26,2.26,0,0,1,1.88.81,3.73,3.73,0,0,1,.65,2.36A3.59,3.59,0,0,1,56,211,2.28,2.28,0,0,1,54.1,211.78Zm0-.49a1.68,1.68,0,0,0,1.45-.7,3.16,3.16,0,0,0,.52-2c0-1.79-.65-2.69-1.94-2.69a1.94,1.94,0,0,0-1.57.59,3,3,0,0,0-.5,1.91v.18a3.38,3.38,0,0,0,.48,2.05A1.89,1.89,0,0,0,54.09,211.29Z"/><path d="M60.74,205.45a4.08,4.08,0,0,1,.83.08l-.11.53a3.35,3.35,0,0,0-.79-.09,1.55,1.55,0,0,0-1.28.66,2.72,2.72,0,0,0-.5,1.67v3.37h-.55v-6.1h.47l.06,1.1h0a2.63,2.63,0,0,1,.81-.95A1.88,1.88,0,0,1,60.74,205.45Z"/><path d="M66.61,211.67H62.25v-.35l3.62-5.26H62.52v-.49H66.6v.35L63,211.18h3.66Z"/><path d="M70.58,211.78A2.66,2.66,0,0,1,68.5,211a3.3,3.3,0,0,1-.74-2.29,3.56,3.56,0,0,1,.72-2.34,2.36,2.36,0,0,1,1.94-.88,2.11,2.11,0,0,1,1.7.75,3.12,3.12,0,0,1,.62,2v.45h-4.4a2.91,2.91,0,0,0,.59,1.92,2,2,0,0,0,1.65.67,5,5,0,0,0,.92-.08,5.13,5.13,0,0,0,1-.31v.5a3.74,3.74,0,0,1-1,.31A5,5,0,0,1,70.58,211.78Zm-.16-5.84a1.87,1.87,0,0,0-1.42.58,2.79,2.79,0,0,0-.62,1.68h3.77a2.64,2.64,0,0,0-.46-1.66A1.52,1.52,0,0,0,70.42,205.94Z"/><path d="M78.22,211.67H73.86v-.35l3.63-5.26H74.13v-.49h4.08v.35l-3.64,5.26h3.65Z"/><path d="M82.63,203.87q0-.54.36-.54a.32.32,0,0,1,.27.14.85.85,0,0,1,0,.8.31.31,0,0,1-.27.15C82.75,204.42,82.63,204.23,82.63,203.87Zm.64,7.8h-.56v-6.1h.56Z"/><path d="M89.57,211.67v-4a1.93,1.93,0,0,0-.39-1.34A1.56,1.56,0,0,0,88,206a2.07,2.07,0,0,0-1.6.56,2.59,2.59,0,0,0-.51,1.79v3.37h-.56v-6.1h.48l.1.83h0a2.32,2.32,0,0,1,2.12-1c1.39,0,2.08.74,2.08,2.23v4Z"/><path d="M94.33,205.45a2.57,2.57,0,0,1,1.15.24,2.25,2.25,0,0,1,.86.83h0c0-.48,0-.94,0-1.39v-2.2h.55v8.74h-.36l-.14-.93h0a2.26,2.26,0,0,1-2,1,2.41,2.41,0,0,1-1.93-.78,3.49,3.49,0,0,1-.67-2.29,3.75,3.75,0,0,1,.67-2.42A2.3,2.3,0,0,1,94.33,205.45Zm0,.5a1.73,1.73,0,0,0-1.5.71,3.4,3.4,0,0,0-.5,2c0,1.73.67,2.6,2,2.6a1.83,1.83,0,0,0,1.52-.6,3.2,3.2,0,0,0,.48-2v-.1a3.48,3.48,0,0,0-.47-2A1.83,1.83,0,0,0,94.33,206Z"/><path d="M97.92,205.57h.57L99.78,209q.6,1.57.75,2.13h0c.16-.48.42-1.2.77-2.16l1.29-3.39h.58l-2.74,7.09a6,6,0,0,1-.55,1.17,1.5,1.5,0,0,1-.53.45,1.61,1.61,0,0,1-.73.15,2.45,2.45,0,0,1-.71-.12v-.48a2.63,2.63,0,0,0,.7.09,1,1,0,0,0,.51-.13,1.25,1.25,0,0,0,.4-.42,6.94,6.94,0,0,0,.41-.9l.29-.8Z"/><path d="M109.1,211.67l-1.34-4.08c-.08-.28-.19-.69-.33-1.22h0l-.12.42-.25.81-1.36,4.07h-.55l-1.75-6.1h.6l1,3.53c.23.88.38,1.52.45,1.94h0c.22-.88.38-1.46.48-1.75l1.26-3.72h.5l1.2,3.71c.27.88.43,1.46.49,1.74h0q0-.36.45-2l.93-3.5h.56l-1.66,6.1Z"/><path d="M112.46,203.87c0-.36.12-.54.35-.54a.31.31,0,0,1,.27.14.85.85,0,0,1,0,.8.29.29,0,0,1-.27.15C112.58,204.42,112.46,204.23,112.46,203.87Zm.63,7.8h-.55v-6.1h.55Z"/><path d="M117.37,205.45a2.6,2.6,0,0,1,1.15.24,2.25,2.25,0,0,1,.86.83h0c0-.48,0-.94,0-1.39v-2.2h.55v8.74h-.36l-.14-.93h-.05a2.26,2.26,0,0,1-2,1,2.41,2.41,0,0,1-1.93-.78,3.44,3.44,0,0,1-.67-2.29,3.81,3.81,0,0,1,.66-2.42A2.33,2.33,0,0,1,117.37,205.45Zm0,.5a1.71,1.71,0,0,0-1.5.71,3.4,3.4,0,0,0-.5,2c0,1.73.67,2.6,2,2.6a1.83,1.83,0,0,0,1.52-.6,3.2,3.2,0,0,0,.48-2v-.1a3.48,3.48,0,0,0-.47-2A1.83,1.83,0,0,0,117.37,206Z"/><path d="M122.46,205.57v4a1.93,1.93,0,0,0,.39,1.34,1.56,1.56,0,0,0,1.2.42,2.15,2.15,0,0,0,1.61-.55,2.6,2.6,0,0,0,.51-1.79v-3.37h.55v6.1h-.47l-.1-.84h0a2.29,2.29,0,0,1-2.11.95c-1.39,0-2.09-.74-2.09-2.23v-4Z"/><path d="M132.47,211.67l-.14-1h-.05a2.77,2.77,0,0,1-.94.84,2.6,2.6,0,0,1-1.15.24,2,2,0,0,1-1.4-.46,1.66,1.66,0,0,1-.5-1.27,1.57,1.57,0,0,1,.75-1.39,4,4,0,0,1,2.15-.52l1.16,0v-.4a2.09,2.09,0,0,0-.35-1.31,1.37,1.37,0,0,0-1.14-.45,3.87,3.87,0,0,0-1.76.47l-.21-.48a4.71,4.71,0,0,1,2-.47,2,2,0,0,1,1.5.52,2.3,2.3,0,0,1,.5,1.63v4.06Zm-2.25-.39a2.09,2.09,0,0,0,1.54-.56,2.07,2.07,0,0,0,.57-1.55v-.61l-1.07.05a3.93,3.93,0,0,0-1.83.4,1.3,1.3,0,0,0-.2,2A1.45,1.45,0,0,0,130.22,211.28Z"/><path d="M135.41,211.67h-.55v-8.74h.55Z"/><path d="M141.71,211.67v-4a1.93,1.93,0,0,0-.39-1.34,1.53,1.53,0,0,0-1.2-.42,2.07,2.07,0,0,0-1.6.56,2.59,2.59,0,0,0-.51,1.79v3.37h-.55v-6.1h.47l.1.83h0a2.29,2.29,0,0,1,2.11-1c1.39,0,2.08.74,2.08,2.23v4Z"/><path d="M146.7,211.78a2.65,2.65,0,0,1-2.07-.82,3.26,3.26,0,0,1-.75-2.29,3.61,3.61,0,0,1,.72-2.34,2.37,2.37,0,0,1,1.94-.88,2.08,2.08,0,0,1,1.7.75,3.07,3.07,0,0,1,.63,2v.45h-4.4a2.86,2.86,0,0,0,.59,1.92,2,2,0,0,0,1.64.67,4.92,4.92,0,0,0,.92-.08,4.75,4.75,0,0,0,1-.31v.5a3.74,3.74,0,0,1-1,.31A4.82,4.82,0,0,1,146.7,211.78Zm-.16-5.84a1.83,1.83,0,0,0-1.41.58,2.74,2.74,0,0,0-.63,1.68h3.78a2.71,2.71,0,0,0-.46-1.66A1.53,1.53,0,0,0,146.54,205.94Z"/><path d="M45,222.41a3.46,3.46,0,0,1-.73,2.33,2.5,2.5,0,0,1-2,.84,2.58,2.58,0,0,1-1.41-.39,2.4,2.4,0,0,1-.94-1.11,4,4,0,0,1-.33-1.67,3.41,3.41,0,0,1,.73-2.33,2.5,2.5,0,0,1,2-.83,2.46,2.46,0,0,1,2,.84A3.48,3.48,0,0,1,45,222.41Zm-4.82,0a3.09,3.09,0,0,0,.55,2,2.08,2.08,0,0,0,3.13,0,3.09,3.09,0,0,0,.55-2,3,3,0,0,0-.56-2,1.9,1.9,0,0,0-1.57-.7,1.84,1.84,0,0,0-1.55.7A3,3,0,0,0,40.15,222.41Z"/><path d="M50.44,223.88a1.45,1.45,0,0,1-.62,1.26,3,3,0,0,1-1.77.44,4.19,4.19,0,0,1-1.94-.37v-.61a4.24,4.24,0,0,0,1.94.47,2.46,2.46,0,0,0,1.37-.31.91.91,0,0,0,.47-.79,1,1,0,0,0-.37-.78,4.07,4.07,0,0,0-1.23-.62A7.08,7.08,0,0,1,47,222a1.77,1.77,0,0,1-.55-.54,1.3,1.3,0,0,1-.19-.73,1.24,1.24,0,0,1,.57-1.08,2.78,2.78,0,0,1,1.61-.4,4.78,4.78,0,0,1,1.88.37l-.21.5a4.56,4.56,0,0,0-1.67-.37,2.43,2.43,0,0,0-1.18.25.75.75,0,0,0-.44.69.94.94,0,0,0,.34.76,4.79,4.79,0,0,0,1.33.64,6.5,6.5,0,0,1,1.2.54,1.71,1.71,0,0,1,.56.54A1.28,1.28,0,0,1,50.44,223.88Z"/><path d="M57.06,222.41a3.46,3.46,0,0,1-.72,2.33,2.51,2.51,0,0,1-2,.84,2.59,2.59,0,0,1-1.42-.39,2.4,2.4,0,0,1-.94-1.11,4.15,4.15,0,0,1-.32-1.67,3.46,3.46,0,0,1,.72-2.33,2.53,2.53,0,0,1,2-.83,2.44,2.44,0,0,1,2,.84A3.48,3.48,0,0,1,57.06,222.41Zm-4.82,0a3.09,3.09,0,0,0,.56,2,2.07,2.07,0,0,0,3.12,0,3.71,3.71,0,0,0,0-3.92,1.92,1.92,0,0,0-1.57-.7,1.86,1.86,0,0,0-1.56.7A3,3,0,0,0,52.24,222.41Z"/><path d="M61.33,219.25a2.36,2.36,0,0,1,1.93.8,3.73,3.73,0,0,1,.65,2.36,3.58,3.58,0,0,1-.69,2.35,2.33,2.33,0,0,1-1.91.82,2.53,2.53,0,0,1-1.18-.27,2,2,0,0,1-.82-.76h-.05l-.16.92h-.35v-8.74h.56v2.2c0,.33,0,.63,0,.91v.48h0a2.16,2.16,0,0,1,.84-.81A2.39,2.39,0,0,1,61.33,219.25Zm0,.5a1.83,1.83,0,0,0-1.55.62,3.45,3.45,0,0,0-.46,2v.1a3.2,3.2,0,0,0,.48,2,1.85,1.85,0,0,0,1.52.6,1.75,1.75,0,0,0,1.5-.7,3.34,3.34,0,0,0,.51-2C63.32,220.64,62.65,219.75,61.32,219.75Z"/><path d="M64.57,219.37h.58l1.29,3.42c.39,1.05.64,1.76.74,2.13h0c.16-.48.41-1.2.77-2.16l1.29-3.39h.57l-2.73,7.09a5.84,5.84,0,0,1-.56,1.17,1.47,1.47,0,0,1-.52.45,1.64,1.64,0,0,1-.73.15,2.45,2.45,0,0,1-.71-.12v-.48a2.58,2.58,0,0,0,.7.09.91.91,0,0,0,.5-.13,1.25,1.25,0,0,0,.4-.42,5.8,5.8,0,0,0,.41-.9c.15-.41.25-.68.3-.8Z"/><path d="M71.51,224.13l.07.12a18.84,18.84,0,0,1-1,2.7h-.37a21.77,21.77,0,0,0,.62-2.82Z"/><path d="M76.88,222.79,80,219.37h.68L78.26,222l2.61,3.5h-.66l-2.32-3.08-1,.91v2.17h-.56v-8.74h.56v4.38l0,1.68Z"/><path d="M83.51,225.09a4.15,4.15,0,0,0,.92-.09v.45a2.94,2.94,0,0,1-.93.13,1.53,1.53,0,0,1-1.2-.43,2,2,0,0,1-.38-1.36v-3.94H81v-.33l.91-.25.28-1.38h.29v1.48h1.79v.48H82.49v3.86a1.79,1.79,0,0,0,.24,1A.9.9,0,0,0,83.51,225.09Z"/><path d="M90.8,222.41a3.46,3.46,0,0,1-.73,2.33,2.5,2.5,0,0,1-2,.84,2.58,2.58,0,0,1-1.41-.39,2.4,2.4,0,0,1-.94-1.11,4,4,0,0,1-.33-1.67,3.46,3.46,0,0,1,.73-2.33,2.5,2.5,0,0,1,2-.83,2.45,2.45,0,0,1,2,.84A3.48,3.48,0,0,1,90.8,222.41Zm-4.82,0a3.09,3.09,0,0,0,.55,2,2.08,2.08,0,0,0,3.13,0,3.09,3.09,0,0,0,.55-2,3,3,0,0,0-.56-2,1.9,1.9,0,0,0-1.57-.7,1.84,1.84,0,0,0-1.55.7A3,3,0,0,0,86,222.41Zm1.55-4q.41-.43.81-1a7,7,0,0,0,.55-.79h.79v.1a7.36,7.36,0,0,1-.69.77c-.32.32-.68.65-1.07,1h-.39Z"/><path d="M94.89,219.25a4.15,4.15,0,0,1,.83.08l-.11.53a3.35,3.35,0,0,0-.79-.1,1.56,1.56,0,0,0-1.28.67,2.72,2.72,0,0,0-.5,1.67v3.37h-.55v-6.1H93l.05,1.1h0a2.54,2.54,0,0,1,.81-.95A1.88,1.88,0,0,1,94.89,219.25Z"/><path d="M95.94,219.37h.57l1.29,3.42q.6,1.58.75,2.13h0c.16-.48.42-1.2.77-2.16l1.3-3.39h.57l-2.74,7.09a6,6,0,0,1-.55,1.17,1.5,1.5,0,0,1-.53.45,1.61,1.61,0,0,1-.73.15,2.45,2.45,0,0,1-.71-.12v-.48a2.63,2.63,0,0,0,.7.09,1,1,0,0,0,.51-.13,1.25,1.25,0,0,0,.4-.42,6.94,6.94,0,0,0,.41-.9c.15-.41.25-.68.3-.8Z"/><path d="M109.87,225.47v-4a2,2,0,0,0-.35-1.31,1.34,1.34,0,0,0-1.07-.41,1.77,1.77,0,0,0-1.39.52,2.43,2.43,0,0,0-.45,1.62v3.58h-.56V221.3c0-1-.47-1.55-1.42-1.55a1.69,1.69,0,0,0-1.4.56,2.93,2.93,0,0,0-.43,1.79v3.37h-.56v-6.1h.46l.12.83h0a1.74,1.74,0,0,1,.72-.7,2.09,2.09,0,0,1,1-.25,1.75,1.75,0,0,1,1.85,1.08h0a2.12,2.12,0,0,1,.8-.8,2.3,2.3,0,0,1,1.15-.28,2,2,0,0,1,1.5.53,2.45,2.45,0,0,1,.5,1.7v4Z"/><path d="M119.18,225.47h-4.36v-.35l3.62-5.26h-3.36v-.49h4.08v.35L115.52,225h3.66Z"/><path d="M124.39,225.47l-.14-1h0a2.79,2.79,0,0,1-1,.84,2.52,2.52,0,0,1-1.14.24,2,2,0,0,1-1.4-.46,1.66,1.66,0,0,1-.5-1.27,1.58,1.58,0,0,1,.74-1.39,4.09,4.09,0,0,1,2.16-.52l1.16,0v-.4a2,2,0,0,0-.36-1.31,1.35,1.35,0,0,0-1.14-.45,3.83,3.83,0,0,0-1.75.47l-.21-.48a4.71,4.71,0,0,1,2-.47,2,2,0,0,1,1.5.52,2.3,2.3,0,0,1,.5,1.63v4.06Zm-2.25-.39a2.09,2.09,0,0,0,1.54-.56,2.07,2.07,0,0,0,.57-1.55v-.61l-1.07,0a3.93,3.93,0,0,0-1.83.4,1.3,1.3,0,0,0-.2,1.95A1.42,1.42,0,0,0,122.14,225.08Z"/><path d="M127.33,225.47h-.56v-8.74h.56Z"/><path d="M131.84,225.58a2.66,2.66,0,0,1-2.08-.82,3.3,3.3,0,0,1-.74-2.29,3.56,3.56,0,0,1,.72-2.34,2.35,2.35,0,0,1,1.93-.88,2.12,2.12,0,0,1,1.71.75,3.12,3.12,0,0,1,.62,2v.45h-4.4a2.91,2.91,0,0,0,.59,1.92,2,2,0,0,0,1.65.67,5,5,0,0,0,.92-.08,5.13,5.13,0,0,0,1-.31v.5a3.8,3.8,0,0,1-1,.31A4.78,4.78,0,0,1,131.84,225.58Zm-.17-5.84a1.86,1.86,0,0,0-1.41.58,2.73,2.73,0,0,0-.62,1.68h3.77a2.64,2.64,0,0,0-.46-1.66A1.52,1.52,0,0,0,131.67,219.74Z"/><path d="M139.48,225.47h-4.36v-.35l3.62-5.26h-3.35v-.49h4.08v.35L135.82,225h3.66Zm-2.43-7.8q0-.54.36-.54a.31.31,0,0,1,.27.14.85.85,0,0,1,0,.8.29.29,0,0,1-.27.15C137.17,218.22,137.05,218,137.05,217.67Z"/><path d="M140,219.37h.58l1.29,3.42c.39,1.05.64,1.76.74,2.13h0c.15-.48.41-1.2.77-2.16l1.29-3.39h.57l-2.73,7.09a5.84,5.84,0,0,1-.56,1.17,1.47,1.47,0,0,1-.52.45,1.64,1.64,0,0,1-.73.15,2.45,2.45,0,0,1-.71-.12v-.48a2.58,2.58,0,0,0,.7.09.91.91,0,0,0,.5-.13,1.25,1.25,0,0,0,.4-.42,5.8,5.8,0,0,0,.41-.9c.15-.41.25-.68.3-.8Z"/><path d="M153.51,225.47v-4a1.93,1.93,0,0,0-.39-1.34,1.56,1.56,0,0,0-1.2-.42,2.1,2.1,0,0,0-1.61.56,2.64,2.64,0,0,0-.5,1.79v3.37h-.56v-6.1h.47l.11.83h0a2.31,2.31,0,0,1,2.12-.95c1.38,0,2.08.74,2.08,2.23v4Z"/><path d="M159.74,225.47l-.14-1h0a2.77,2.77,0,0,1-.94.84,2.6,2.6,0,0,1-1.15.24,2,2,0,0,1-1.4-.46,1.66,1.66,0,0,1-.5-1.27,1.57,1.57,0,0,1,.75-1.39,4,4,0,0,1,2.15-.52l1.16,0v-.4a2.09,2.09,0,0,0-.35-1.31,1.37,1.37,0,0,0-1.14-.45,3.87,3.87,0,0,0-1.76.47l-.21-.48a4.74,4.74,0,0,1,2-.47,2,2,0,0,1,1.5.52,2.3,2.3,0,0,1,.5,1.63v4.06Zm-2.25-.39a2.13,2.13,0,0,0,1.55-.56,2.1,2.1,0,0,0,.56-1.55v-.61l-1.07,0a3.93,3.93,0,0,0-1.83.4,1.3,1.3,0,0,0-.2,1.95A1.45,1.45,0,0,0,157.49,225.08Z"/><path d="M46.25,233.05a2.54,2.54,0,0,1,1.15.24,2.25,2.25,0,0,1,.86.83h0c0-.48,0-.94,0-1.39v-2.2h.55v8.74h-.36l-.14-.93h-.05a2.26,2.26,0,0,1-2,1,2.42,2.42,0,0,1-1.94-.78,3.49,3.49,0,0,1-.66-2.29,3.81,3.81,0,0,1,.66-2.42A2.3,2.3,0,0,1,46.25,233.05Zm0,.5a1.74,1.74,0,0,0-1.5.71,3.47,3.47,0,0,0-.5,2c0,1.73.67,2.6,2,2.6a1.83,1.83,0,0,0,1.51-.6,3.2,3.2,0,0,0,.48-2v-.1a3.41,3.41,0,0,0-.47-2A1.83,1.83,0,0,0,46.25,233.55Z"/><path d="M55.91,236.21a3.46,3.46,0,0,1-.72,2.33,2.5,2.5,0,0,1-2,.84,2.59,2.59,0,0,1-1.42-.39,2.39,2.39,0,0,1-.93-1.11,4,4,0,0,1-.33-1.67,3.46,3.46,0,0,1,.72-2.33,2.53,2.53,0,0,1,2-.83,2.47,2.47,0,0,1,2,.84A3.53,3.53,0,0,1,55.91,236.21Zm-4.82,0a3.09,3.09,0,0,0,.56,2,1.88,1.88,0,0,0,1.56.71,1.89,1.89,0,0,0,1.57-.71,3.15,3.15,0,0,0,.55-2,3.07,3.07,0,0,0-.56-2,1.92,1.92,0,0,0-1.57-.7,1.87,1.87,0,0,0-1.56.7A3.11,3.11,0,0,0,51.09,236.21Z"/><path d="M60.18,233.05a2.35,2.35,0,0,1,1.93.8,3.73,3.73,0,0,1,.65,2.36,3.63,3.63,0,0,1-.68,2.35,2.36,2.36,0,0,1-1.92.82,2.53,2.53,0,0,1-1.18-.27,2.07,2.07,0,0,1-.82-.76h0l-.16.92H57.6v-8.74h.56v2.2c0,.33,0,.63,0,.91l0,.48h0a2.16,2.16,0,0,1,.84-.81A2.42,2.42,0,0,1,60.18,233.05Zm0,.5a1.83,1.83,0,0,0-1.55.62,3.45,3.45,0,0,0-.46,2v.1a3.2,3.2,0,0,0,.48,2,1.85,1.85,0,0,0,1.52.6,1.74,1.74,0,0,0,1.5-.7,3.34,3.34,0,0,0,.51-2C62.17,234.43,61.5,233.55,60.17,233.55Z"/><path d="M66.85,233.05a4.08,4.08,0,0,1,.83.08l-.11.53a3.35,3.35,0,0,0-.79-.1,1.56,1.56,0,0,0-1.28.67,2.72,2.72,0,0,0-.5,1.67v3.37h-.55v-6.1h.47l0,1.1h0a2.54,2.54,0,0,1,.81-1A1.88,1.88,0,0,1,66.85,233.05Z"/><path d="M69.41,233.17v4a1.93,1.93,0,0,0,.38,1.34,1.56,1.56,0,0,0,1.2.42,2.15,2.15,0,0,0,1.61-.55,2.6,2.6,0,0,0,.51-1.79v-3.37h.55v6.1h-.47l-.1-.84h0a2.32,2.32,0,0,1-2.12.95c-1.39,0-2.08-.74-2.08-2.23v-4Z"/><path d="M82.48,237.68a1.44,1.44,0,0,1-.63,1.26,3,3,0,0,1-1.76.44,4.26,4.26,0,0,1-2-.37v-.61a4.28,4.28,0,0,0,2,.47,2.55,2.55,0,0,0,1.37-.31.91.91,0,0,0,.47-.8,1,1,0,0,0-.38-.77,4,4,0,0,0-1.22-.62A7.08,7.08,0,0,1,79,235.8a1.82,1.82,0,0,1-.56-.54,1.39,1.39,0,0,1-.19-.73,1.25,1.25,0,0,1,.58-1.08,2.76,2.76,0,0,1,1.61-.4,4.73,4.73,0,0,1,1.87.37l-.2.5a4.56,4.56,0,0,0-1.67-.37,2.51,2.51,0,0,0-1.19.25.76.76,0,0,0-.43.69.94.94,0,0,0,.34.76,4.84,4.84,0,0,0,1.32.64,7,7,0,0,1,1.21.54,1.82,1.82,0,0,1,.56.54A1.28,1.28,0,0,1,82.48,237.68Z"/><path d="M86.66,239.38a2.22,2.22,0,0,1-2-1h0v.47c0,.28,0,.58,0,.91V242h-.56v-8.86h.47l.11.87h0a2.21,2.21,0,0,1,2-1,2.28,2.28,0,0,1,1.89.81,3.73,3.73,0,0,1,.65,2.36,3.54,3.54,0,0,1-.69,2.33A2.25,2.25,0,0,1,86.66,239.38Zm0-.49a1.68,1.68,0,0,0,1.45-.7,3.23,3.23,0,0,0,.52-1.95c0-1.79-.65-2.69-2-2.69a1.93,1.93,0,0,0-1.56.59,2.89,2.89,0,0,0-.5,1.91v.18a3.38,3.38,0,0,0,.48,2.05A1.89,1.89,0,0,0,86.65,238.89Z"/><path d="M95.94,236.21a3.46,3.46,0,0,1-.72,2.33,2.5,2.5,0,0,1-2,.84A2.59,2.59,0,0,1,91.8,239a2.39,2.39,0,0,1-.93-1.11,4,4,0,0,1-.33-1.67,3.41,3.41,0,0,1,.73-2.33,2.77,2.77,0,0,1,4,0A3.48,3.48,0,0,1,95.94,236.21Zm-4.81,0a3.09,3.09,0,0,0,.55,2,2.08,2.08,0,0,0,3.13,0,3.15,3.15,0,0,0,.55-2,3.07,3.07,0,0,0-.56-2,1.9,1.9,0,0,0-1.57-.7,1.87,1.87,0,0,0-1.56.7A3.11,3.11,0,0,0,91.13,236.21Z"/><path d="M98.19,234.68l.86-.58.24.4-1.1.73v4h-.56V235.6l-.72.49-.25-.41,1-.64v-4.51h.56Z"/><path d="M102.7,239.38a2.66,2.66,0,0,1-2.08-.82,3.3,3.3,0,0,1-.74-2.29,3.56,3.56,0,0,1,.72-2.34,2.36,2.36,0,0,1,1.94-.88,2.11,2.11,0,0,1,1.7.75,3.12,3.12,0,0,1,.62,2v.45h-4.4a2.91,2.91,0,0,0,.59,1.92,2,2,0,0,0,1.65.67,5,5,0,0,0,.92-.08,5.13,5.13,0,0,0,1-.31v.5a4.25,4.25,0,0,1-1,.31A5.64,5.64,0,0,1,102.7,239.38Zm-.16-5.84a1.87,1.87,0,0,0-1.42.58,2.73,2.73,0,0,0-.62,1.68h3.77a2.64,2.64,0,0,0-.46-1.66A1.52,1.52,0,0,0,102.54,233.54Z"/><path d="M109,239.38a2.62,2.62,0,0,1-2-.82,3.36,3.36,0,0,1-.74-2.31,3.4,3.4,0,0,1,.77-2.36,2.71,2.71,0,0,1,2.11-.84,4.29,4.29,0,0,1,1.51.27l-.15.5a4.39,4.39,0,0,0-1.38-.27,2.08,2.08,0,0,0-1.7.7,3,3,0,0,0-.58,2,3,3,0,0,0,.58,1.94,2,2,0,0,0,1.62.7,3.92,3.92,0,0,0,1.54-.3v.52A3.49,3.49,0,0,1,109,239.38Z"/><path d="M115.8,239.27h-4.35v-.35l3.62-5.26h-3.36v-.49h4.08v.35l-3.64,5.26h3.65Z"/><path d="M121.57,239.27v-4a1.93,1.93,0,0,0-.39-1.34,1.56,1.56,0,0,0-1.2-.42,2.1,2.1,0,0,0-1.61.56,2.57,2.57,0,0,0-.5,1.79v3.37h-.56v-6.1h.47l.11.83h0a2.31,2.31,0,0,1,2.12-.95c1.38,0,2.08.74,2.08,2.23v4Z"/><path d="M129.14,236.21a3.46,3.46,0,0,1-.72,2.33,2.51,2.51,0,0,1-2,.84A2.59,2.59,0,0,1,125,239a2.4,2.4,0,0,1-.94-1.11,4.15,4.15,0,0,1-.32-1.67,3.46,3.46,0,0,1,.72-2.33,2.53,2.53,0,0,1,2-.83,2.44,2.44,0,0,1,2,.84A3.48,3.48,0,0,1,129.14,236.21Zm-4.82,0a3.09,3.09,0,0,0,.56,2,2.07,2.07,0,0,0,3.12,0,3.71,3.71,0,0,0,0-3.92,1.92,1.92,0,0,0-1.57-.7,1.86,1.86,0,0,0-1.56.7A3,3,0,0,0,124.32,236.21Z"/><path d="M134.62,237.68a1.44,1.44,0,0,1-.63,1.26,3,3,0,0,1-1.77.44,4.24,4.24,0,0,1-1.94-.37v-.61a4.24,4.24,0,0,0,1.94.47,2.59,2.59,0,0,0,1.38-.31.9.9,0,0,0,.46-.8,1,1,0,0,0-.37-.77,4.07,4.07,0,0,0-1.23-.62,6.9,6.9,0,0,1-1.28-.57,1.82,1.82,0,0,1-.56-.54,1.3,1.3,0,0,1-.19-.73,1.23,1.23,0,0,1,.58-1.08,2.76,2.76,0,0,1,1.61-.4,4.73,4.73,0,0,1,1.87.37l-.21.5a4.51,4.51,0,0,0-1.66-.37,2.48,2.48,0,0,0-1.19.25.77.77,0,0,0-.44.69,1,1,0,0,0,.34.76,4.94,4.94,0,0,0,1.33.64,6.5,6.5,0,0,1,1.2.54,1.86,1.86,0,0,1,.57.54A1.37,1.37,0,0,1,134.62,237.68Zm-2.84-5.47q.41-.44.81-1a7,7,0,0,0,.55-.79h.79v.1a5.58,5.58,0,0,1-.69.77c-.32.32-.68.65-1.07,1h-.39Z"/><path d="M138.62,239.38a2.62,2.62,0,0,1-2.05-.82,3.36,3.36,0,0,1-.74-2.31,3.4,3.4,0,0,1,.77-2.36,2.73,2.73,0,0,1,2.11-.84,4.25,4.25,0,0,1,1.51.27l-.15.5a4.29,4.29,0,0,0-1.37-.27,2.06,2.06,0,0,0-1.7.7,3,3,0,0,0-.58,2,2.94,2.94,0,0,0,.58,1.94,2,2,0,0,0,1.61.7,4,4,0,0,0,1.55-.3v.52A3.53,3.53,0,0,1,138.62,239.38Z"/><path d="M141.57,231.47q0-.54.36-.54a.33.33,0,0,1,.27.14.85.85,0,0,1,0,.8.31.31,0,0,1-.27.14Q141.57,232,141.57,231.47Zm.64,7.8h-.56v-6.1h.56Z"/><path d="M144.88,237.93l.07.12a18.85,18.85,0,0,1-1,2.7h-.37a23.58,23.58,0,0,0,.62-2.82Z"/><path d="M154.59,239.27l-1.34-4.08c-.08-.28-.19-.69-.33-1.22h0l-.12.42-.25.81-1.36,4.07h-.55l-1.75-6.1h.6l1,3.53c.23.88.38,1.52.45,1.94h0c.22-.88.38-1.46.48-1.75l1.26-3.72h.5l1.2,3.71c.27.88.43,1.46.49,1.74h0q0-.36.45-2l.93-3.5h.56l-1.66,6.1Z"/><path d="M52.32,250.39,55.44,247h.67l-2.4,2.6,2.61,3.5h-.67L53.34,250l-1,.91v2.17h-.56v-8.74h.56v4.38l0,1.68Z"/><path d="M59,252.69a4.15,4.15,0,0,0,.92-.09v.45a3,3,0,0,1-.94.13,1.52,1.52,0,0,1-1.19-.43,2,2,0,0,1-.38-1.36v-3.94h-.91v-.33l.91-.25.28-1.38h.28V247h1.8v.48h-1.8v3.86a1.79,1.79,0,0,0,.25,1A.89.89,0,0,0,59,252.69Z"/><path d="M66.25,250a3.46,3.46,0,0,1-.73,2.33,2.5,2.5,0,0,1-2,.84,2.63,2.63,0,0,1-1.41-.38,2.48,2.48,0,0,1-.94-1.12,4,4,0,0,1-.33-1.67,3.41,3.41,0,0,1,.73-2.33,2.77,2.77,0,0,1,4,0A3.48,3.48,0,0,1,66.25,250Zm-4.82,0a3.09,3.09,0,0,0,.55,2,2.08,2.08,0,0,0,3.13,0,3.74,3.74,0,0,0,0-3.92,2.1,2.1,0,0,0-3.13,0A3.11,3.11,0,0,0,61.43,250ZM63,246q.41-.44.81-1a7,7,0,0,0,.55-.79h.79v.1a7.36,7.36,0,0,1-.69.77c-.32.32-.68.65-1.07,1H63Z"/><path d="M70.34,246.85a5,5,0,0,1,.83.08l-.11.53a3.42,3.42,0,0,0-.79-.09A1.54,1.54,0,0,0,69,248a2.72,2.72,0,0,0-.5,1.67v3.37h-.56V247h.48l0,1.1h0a2.62,2.62,0,0,1,.8-.95A1.92,1.92,0,0,1,70.34,246.85Z"/><path d="M74.88,253.18a2.66,2.66,0,0,1-2.08-.82,3.25,3.25,0,0,1-.74-2.29,3.61,3.61,0,0,1,.71-2.34,2.37,2.37,0,0,1,1.94-.88,2.08,2.08,0,0,1,1.7.75,3.07,3.07,0,0,1,.63,2v.45h-4.4a2.86,2.86,0,0,0,.59,1.92,2,2,0,0,0,1.65.67,4.89,4.89,0,0,0,.91-.08,5,5,0,0,0,1-.31v.51a4.34,4.34,0,0,1-1,.3A4.78,4.78,0,0,1,74.88,253.18Zm-.17-5.84a1.83,1.83,0,0,0-1.41.58,2.74,2.74,0,0,0-.63,1.68h3.78a2.71,2.71,0,0,0-.46-1.66A1.53,1.53,0,0,0,74.71,247.34Z"/><path d="M77.91,255.83a1.75,1.75,0,0,1-.76-.14v-.48a2.8,2.8,0,0,0,.72.11c.57,0,.85-.33.85-1V247h.56v7.29a1.7,1.7,0,0,1-.36,1.16A1.26,1.26,0,0,1,77.91,255.83Zm.73-10.56q0-.54.36-.54a.33.33,0,0,1,.27.14.85.85,0,0,1,0,.8.32.32,0,0,1-.27.15C78.76,245.82,78.64,245.63,78.64,245.27Z"/><path d="M88.1,253.07H83.75v-.35l3.62-5.26H84V247h4.08v.35l-3.64,5.26H88.1Zm-2.42-7.8q0-.54.36-.54a.33.33,0,0,1,.27.14.93.93,0,0,1,0,.8.32.32,0,0,1-.27.15C85.8,245.82,85.68,245.63,85.68,245.27Z"/><path d="M88.59,247h.57l1.29,3.42q.58,1.58.75,2.13h0c.16-.48.42-1.2.77-2.16L93.29,247h.58l-2.74,7.09a6.27,6.27,0,0,1-.55,1.17,1.45,1.45,0,0,1-1.26.6,2.8,2.8,0,0,1-.71-.11v-.49a2.63,2.63,0,0,0,.7.09,1,1,0,0,0,.51-.13,1.33,1.33,0,0,0,.39-.42,5,5,0,0,0,.41-.9c.16-.41.26-.68.3-.8Z"/><path d="M94.07,255.83a1.68,1.68,0,0,1-.75-.14v-.48a2.68,2.68,0,0,0,.72.11c.56,0,.85-.33.85-1V247h.55v7.29a1.75,1.75,0,0,1-.35,1.16A1.26,1.26,0,0,1,94.07,255.83Zm.74-10.56c0-.36.12-.54.35-.54a.31.31,0,0,1,.27.14.85.85,0,0,1,0,.8.29.29,0,0,1-.27.15C94.93,245.82,94.81,245.63,94.81,245.27Z"/><path d="M100.8,254.46c0,.42.2.62.6.62a1.27,1.27,0,0,0,.46-.07v.47a1.44,1.44,0,0,1-.59.09,1,1,0,0,1-.75-.26,1,1,0,0,1-.28-.76,1.56,1.56,0,0,1,.23-.78,2.75,2.75,0,0,1,.71-.77l-.13-.9h0a2.79,2.79,0,0,1-1,.84,2.54,2.54,0,0,1-1.15.24,2,2,0,0,1-1.4-.46,1.64,1.64,0,0,1-.49-1.27,1.56,1.56,0,0,1,.74-1.39,4,4,0,0,1,2.15-.52l1.17,0v-.41a2,2,0,0,0-.36-1.31,1.35,1.35,0,0,0-1.14-.45,3.9,3.9,0,0,0-1.76.47l-.2-.48a4.7,4.7,0,0,1,2-.47,2,2,0,0,1,1.51.52,2.3,2.3,0,0,1,.49,1.63v4.06a3.19,3.19,0,0,0-.6.67A1.34,1.34,0,0,0,100.8,254.46ZM99,252.68a1.94,1.94,0,0,0,2.1-2.11V250L100,250a4,4,0,0,0-1.84.4,1.17,1.17,0,0,0-.55,1.06,1.12,1.12,0,0,0,.36.89A1.42,1.42,0,0,0,99,252.68Z"/><path d="M103.47,252.63c0-.36.15-.55.45-.55s.46.19.46.55-.16.55-.46.55S103.47,253,103.47,252.63Z"/><path d="M114,251a2,2,0,0,1-.75,1.63,3.14,3.14,0,0,1-2,.6,6.35,6.35,0,0,1-2.31-.33v-.57a5.89,5.89,0,0,0,2.27.37,2.54,2.54,0,0,0,1.6-.46,1.47,1.47,0,0,0,.59-1.21,1.37,1.37,0,0,0-.2-.78,1.8,1.8,0,0,0-.64-.56,8.7,8.7,0,0,0-1.3-.54,4.55,4.55,0,0,1-1.74-.93,1.88,1.88,0,0,1-.48-1.34,1.83,1.83,0,0,1,.73-1.51,2.9,2.9,0,0,1,1.85-.58,5.43,5.43,0,0,1,2.17.44l-.2.5a5,5,0,0,0-2-.43,2.31,2.31,0,0,0-1.45.42,1.37,1.37,0,0,0-.54,1.14,1.49,1.49,0,0,0,.17.75,1.52,1.52,0,0,0,.54.53,8,8,0,0,0,1.29.56,7.11,7.11,0,0,1,1.45.64,2.05,2.05,0,0,1,.7.71A1.88,1.88,0,0,1,114,251Z"/><path d="M119.27,253.07l-.14-1h0a2.79,2.79,0,0,1-1,.84,2.54,2.54,0,0,1-1.15.24,2,2,0,0,1-1.39-.46,1.61,1.61,0,0,1-.5-1.27,1.56,1.56,0,0,1,.74-1.39,4,4,0,0,1,2.15-.52l1.17,0v-.41a2,2,0,0,0-.36-1.31,1.35,1.35,0,0,0-1.14-.45,3.83,3.83,0,0,0-1.75.47l-.21-.48a4.7,4.7,0,0,1,2-.47,2,2,0,0,1,1.51.52,2.3,2.3,0,0,1,.49,1.63v4.06Zm-2.24-.39a2.11,2.11,0,0,0,1.54-.56,2.06,2.06,0,0,0,.56-1.55V250l-1.06,0a4,4,0,0,0-1.84.4,1.17,1.17,0,0,0-.54,1.06,1.12,1.12,0,0,0,.35.89A1.42,1.42,0,0,0,117,252.68Z"/><path d="M129.29,253.07v-4a2,2,0,0,0-.35-1.31,1.34,1.34,0,0,0-1.07-.41,1.77,1.77,0,0,0-1.39.52,2.45,2.45,0,0,0-.44,1.62v3.58h-.57V248.9c0-1-.47-1.55-1.42-1.55a1.69,1.69,0,0,0-1.4.56,3,3,0,0,0-.43,1.79v3.37h-.56V247h.46l.12.83h0a1.74,1.74,0,0,1,.72-.7,2.09,2.09,0,0,1,1-.25,1.75,1.75,0,0,1,1.85,1.08h0a2.12,2.12,0,0,1,.8-.8,2.3,2.3,0,0,1,1.15-.28,2,2,0,0,1,1.5.53,2.45,2.45,0,0,1,.5,1.7v4Z"/><path d="M136.41,252.69a4.15,4.15,0,0,0,.92-.09v.45a2.94,2.94,0,0,1-.93.13,1.49,1.49,0,0,1-1.19-.43,2,2,0,0,1-.39-1.36v-3.94h-.9v-.33l.9-.25.28-1.38h.29V247h1.79v.48h-1.79v3.86a1.71,1.71,0,0,0,.25,1A.87.87,0,0,0,136.41,252.69Z"/><path d="M141.12,253.18a2.66,2.66,0,0,1-2.08-.82,3.3,3.3,0,0,1-.74-2.29,3.56,3.56,0,0,1,.72-2.34,2.35,2.35,0,0,1,1.93-.88,2.12,2.12,0,0,1,1.71.75,3.12,3.12,0,0,1,.62,2v.45h-4.4a2.91,2.91,0,0,0,.59,1.92,2,2,0,0,0,1.65.67,4.62,4.62,0,0,0,1.92-.39v.51a4.19,4.19,0,0,1-1,.3A4.78,4.78,0,0,1,141.12,253.18Zm-.17-5.84a1.85,1.85,0,0,0-1.41.58,2.73,2.73,0,0,0-.62,1.68h3.77a2.64,2.64,0,0,0-.46-1.66A1.52,1.52,0,0,0,141,247.34Z"/><path d="M148.76,253.07H144.4v-.35l3.62-5.26h-3.35V247h4.08v.35l-3.65,5.26h3.66Zm-2.43-7.8q0-.54.36-.54a.31.31,0,0,1,.27.14.85.85,0,0,1,0,.8.29.29,0,0,1-.27.15C146.45,245.82,146.33,245.63,146.33,245.27Z"/><path d="M52.62,266.87v-4a2,2,0,0,0-.35-1.31,1.34,1.34,0,0,0-1.07-.41,1.77,1.77,0,0,0-1.39.52,2.43,2.43,0,0,0-.44,1.62v3.58H48.8V262.7c0-1-.47-1.55-1.42-1.55a1.69,1.69,0,0,0-1.4.56,3,3,0,0,0-.43,1.79v3.37H45v-6.1h.46l.12.83h0a1.74,1.74,0,0,1,.72-.7,2.09,2.09,0,0,1,1-.25,1.75,1.75,0,0,1,1.85,1.08h0a2.12,2.12,0,0,1,.8-.8,2.3,2.3,0,0,1,1.15-.28,2,2,0,0,1,1.5.53,2.45,2.45,0,0,1,.5,1.7v4Z"/><path d="M60.19,263.81a3.46,3.46,0,0,1-.72,2.33,2.51,2.51,0,0,1-2,.84,2.67,2.67,0,0,1-1.42-.38,2.4,2.4,0,0,1-.93-1.12,4,4,0,0,1-.33-1.67,3.46,3.46,0,0,1,.72-2.33,2.53,2.53,0,0,1,2-.83,2.44,2.44,0,0,1,2,.84A3.48,3.48,0,0,1,60.19,263.81Zm-4.82,0a3.09,3.09,0,0,0,.56,2,2.07,2.07,0,0,0,3.12,0,3.71,3.71,0,0,0,0-3.92,1.92,1.92,0,0,0-1.57-.7,1.88,1.88,0,0,0-1.56.7A3.11,3.11,0,0,0,55.37,263.81Z"/><path d="M65.68,266.87H61.32v-.35l3.62-5.26H61.58v-.49h4.09v.35L62,266.38h3.66Zm-2.43-7.8q0-.54.36-.54a.31.31,0,0,1,.27.14.85.85,0,0,1,0,.8.29.29,0,0,1-.27.15C63.37,259.62,63.25,259.43,63.25,259.07Z"/><path d="M69.65,267a2.66,2.66,0,0,1-2.08-.82,3.3,3.3,0,0,1-.74-2.29,3.56,3.56,0,0,1,.72-2.34,2.35,2.35,0,0,1,1.93-.88,2.12,2.12,0,0,1,1.71.75,3.12,3.12,0,0,1,.62,2v.45h-4.4a2.91,2.91,0,0,0,.59,1.92,2,2,0,0,0,1.65.67,5,5,0,0,0,.92-.08,5.13,5.13,0,0,0,1-.31v.51a4.19,4.19,0,0,1-1,.3A4.78,4.78,0,0,1,69.65,267Zm-.17-5.84a1.85,1.85,0,0,0-1.41.58,2.73,2.73,0,0,0-.62,1.68h3.77a2.64,2.64,0,0,0-.46-1.66A1.52,1.52,0,0,0,69.48,261.14Z"/><path d="M77.28,265.28a1.45,1.45,0,0,1-.62,1.26,3,3,0,0,1-1.77.44,4.26,4.26,0,0,1-2-.37V266a4.43,4.43,0,0,0,2,.46,2.55,2.55,0,0,0,1.37-.3.92.92,0,0,0,.47-.8,1,1,0,0,0-.38-.78,4.1,4.1,0,0,0-1.22-.62,7.08,7.08,0,0,1-1.29-.57,1.82,1.82,0,0,1-.56-.54,1.39,1.39,0,0,1-.19-.73,1.25,1.25,0,0,1,.58-1.08,2.76,2.76,0,0,1,1.61-.4,4.73,4.73,0,0,1,1.87.37l-.2.5a4.56,4.56,0,0,0-1.67-.37,2.51,2.51,0,0,0-1.19.25.76.76,0,0,0-.43.69.94.94,0,0,0,.34.76,4.84,4.84,0,0,0,1.32.64,7,7,0,0,1,1.21.54,1.82,1.82,0,0,1,.56.54A1.28,1.28,0,0,1,77.28,265.28Z"/><path d="M82.65,266.87H78.29v-.35l3.62-5.26H78.55v-.49h4.08v.35L79,266.38h3.66Z"/><path d="M90.93,266.87H86.58v-.35l3.62-5.26H86.84v-.49h4.08v.35l-3.64,5.26h3.65Z"/><path d="M97.49,263.81a3.41,3.41,0,0,1-.73,2.33,2.5,2.5,0,0,1-2,.84,2.66,2.66,0,0,1-1.41-.38,2.48,2.48,0,0,1-.94-1.12,4,4,0,0,1-.32-1.67,3.46,3.46,0,0,1,.72-2.33,2.52,2.52,0,0,1,2-.83,2.45,2.45,0,0,1,2,.84A3.48,3.48,0,0,1,97.49,263.81Zm-4.82,0a3.09,3.09,0,0,0,.55,2,2.08,2.08,0,0,0,3.13,0,3.09,3.09,0,0,0,.55-2,3,3,0,0,0-.56-2,1.9,1.9,0,0,0-1.56-.7,1.87,1.87,0,0,0-1.56.7A3,3,0,0,0,92.67,263.81Z"/><path d="M101.58,260.65a5,5,0,0,1,.83.08l-.11.53a3.35,3.35,0,0,0-.79-.09,1.55,1.55,0,0,0-1.28.66,2.72,2.72,0,0,0-.5,1.67v3.37h-.55v-6.1h.47l.06,1.1h0a2.63,2.63,0,0,1,.81-.95A1.88,1.88,0,0,1,101.58,260.65Z"/><path d="M108.41,260.77v.38l-1.26.08a2.15,2.15,0,0,1,.51,1.38,1.86,1.86,0,0,1-.59,1.43,2.2,2.2,0,0,1-1.58.55,3.82,3.82,0,0,1-.58,0,1.3,1.3,0,0,0-.5.41.79.79,0,0,0-.18.5.45.45,0,0,0,.22.42,1.53,1.53,0,0,0,.75.14h1.06a2.49,2.49,0,0,1,1.53.4,1.4,1.4,0,0,1,.52,1.19,1.7,1.7,0,0,1-.78,1.49,4,4,0,0,1-2.23.52,3,3,0,0,1-1.78-.44,1.42,1.42,0,0,1-.64-1.24,1.46,1.46,0,0,1,.39-1,2,2,0,0,1,1.06-.57,1.14,1.14,0,0,1-.44-.33.81.81,0,0,1-.16-.5,1.31,1.31,0,0,1,.78-1.08,1.65,1.65,0,0,1-.83-.68,2,2,0,0,1-.3-1.08,1.93,1.93,0,0,1,.58-1.47,2.18,2.18,0,0,1,1.57-.55,2.83,2.83,0,0,1,.93.12Zm-4.94,7.13c0,.84.63,1.26,1.87,1.26,1.61,0,2.41-.51,2.41-1.53a.89.89,0,0,0-.38-.8,2.34,2.34,0,0,0-1.22-.25h-1Q103.47,266.58,103.47,267.9Zm.47-5.23a1.4,1.4,0,0,0,.43,1.1,1.65,1.65,0,0,0,1.15.39,1.62,1.62,0,0,0,1.17-.39,1.48,1.48,0,0,0,.4-1.12,1.52,1.52,0,0,0-.41-1.17,1.65,1.65,0,0,0-1.17-.39,1.45,1.45,0,0,0-1.57,1.58Z"/><path d="M113.37,266.87l-.14-1h0a2.89,2.89,0,0,1-1,.84,2.57,2.57,0,0,1-1.15.24,2,2,0,0,1-1.4-.46,1.64,1.64,0,0,1-.49-1.27,1.56,1.56,0,0,1,.74-1.39,4,4,0,0,1,2.15-.52l1.16,0v-.41a2,2,0,0,0-.35-1.31,1.35,1.35,0,0,0-1.14-.45,3.9,3.9,0,0,0-1.76.47l-.2-.48a4.7,4.7,0,0,1,2-.47,2,2,0,0,1,1.51.52,2.3,2.3,0,0,1,.49,1.63v4.06Zm-2.24-.39a1.94,1.94,0,0,0,2.1-2.11v-.61l-1.06.05a4,4,0,0,0-1.84.4,1.17,1.17,0,0,0-.55,1.06,1.12,1.12,0,0,0,.36.89A1.42,1.42,0,0,0,111.13,266.48Z"/><path d="M120,266.87v-4a1.93,1.93,0,0,0-.39-1.34,1.56,1.56,0,0,0-1.2-.42,2.1,2.1,0,0,0-1.61.56,2.59,2.59,0,0,0-.5,1.79v3.37h-.56v-6.1h.47l.11.83h0a2.31,2.31,0,0,1,2.12-1c1.38,0,2.08.74,2.08,2.23v4Z"/><path d="M122.46,259.07q0-.54.36-.54a.33.33,0,0,1,.27.14.85.85,0,0,1,0,.8.32.32,0,0,1-.27.15C122.58,259.62,122.46,259.43,122.46,259.07Zm.64,7.8h-.56v-6.1h.56Z"/><path d="M128.94,266.87h-4.36v-.35l3.62-5.26h-3.36v-.49h4.09v.35l-3.65,5.26h3.66Z"/><path d="M135.49,263.81a3.46,3.46,0,0,1-.72,2.33,2.51,2.51,0,0,1-2,.84,2.67,2.67,0,0,1-1.42-.38,2.4,2.4,0,0,1-.93-1.12,4,4,0,0,1-.33-1.67,3.46,3.46,0,0,1,.72-2.33,2.53,2.53,0,0,1,2-.83,2.47,2.47,0,0,1,2,.84A3.53,3.53,0,0,1,135.49,263.81Zm-4.82,0a3.09,3.09,0,0,0,.56,2,2.07,2.07,0,0,0,3.12,0,3.71,3.71,0,0,0,0-3.92,1.92,1.92,0,0,0-1.57-.7,1.88,1.88,0,0,0-1.56.7A3.11,3.11,0,0,0,130.67,263.81Z"/><path d="M142.06,266.87l-1.34-4.08c-.08-.28-.19-.69-.33-1.22h0l-.12.42-.25.81-1.36,4.07h-.55l-1.75-6.1h.6l1,3.53c.22.88.37,1.52.44,1.94h0c.22-.88.38-1.46.48-1.75l1.26-3.72h.5l1.2,3.71c.27.88.43,1.46.5,1.74h0q0-.36.45-2l.93-3.5h.56l-1.66,6.1Z"/><path d="M149.2,266.87l-.14-1h0a2.79,2.79,0,0,1-1,.84,2.54,2.54,0,0,1-1.15.24,2,2,0,0,1-1.39-.46,1.61,1.61,0,0,1-.5-1.27,1.56,1.56,0,0,1,.74-1.39,4,4,0,0,1,2.15-.52l1.17,0v-.41a2,2,0,0,0-.36-1.31,1.35,1.35,0,0,0-1.14-.45,3.83,3.83,0,0,0-1.75.47l-.21-.48a4.7,4.7,0,0,1,2-.47,2,2,0,0,1,1.51.52,2.3,2.3,0,0,1,.49,1.63v4.06Zm-2.24-.39a2.11,2.11,0,0,0,1.54-.56,2.06,2.06,0,0,0,.56-1.55v-.61l-1.06.05a4,4,0,0,0-1.84.4,1.17,1.17,0,0,0-.54,1.06,1.12,1.12,0,0,0,.35.89A1.42,1.42,0,0,0,147,266.48Z"/><path d="M154,267a2.61,2.61,0,0,1-2.05-.82,3.31,3.31,0,0,1-.74-2.31,3.36,3.36,0,0,1,.77-2.36,2.7,2.7,0,0,1,2.1-.84,4.35,4.35,0,0,1,1.52.27l-.15.5a4.39,4.39,0,0,0-1.38-.27,2.09,2.09,0,0,0-1.7.7,3,3,0,0,0-.58,2,2.94,2.94,0,0,0,.58,1.94,2,2,0,0,0,1.62.7,3.92,3.92,0,0,0,1.54-.3v.52A3.52,3.52,0,0,1,154,267Zm-1-7.17a9.75,9.75,0,0,0,.81-1,7,7,0,0,0,.55-.79h.79v.1a5.58,5.58,0,0,1-.69.77c-.32.32-.68.65-1.06,1h-.4Z"/><path d="M49.17,280.29a4.22,4.22,0,0,0,.92-.09v.45a3,3,0,0,1-.94.13,1.52,1.52,0,0,1-1.19-.43,2,2,0,0,1-.38-1.36v-3.94h-.91v-.33l.91-.25.28-1.38h.28v1.48h1.79v.48H48.14v3.86a1.79,1.79,0,0,0,.25,1A.89.89,0,0,0,49.17,280.29Z"/><path d="M55.11,280.67l-.14-1h0a2.89,2.89,0,0,1-1,.84,2.57,2.57,0,0,1-1.15.24,2,2,0,0,1-1.4-.46,1.66,1.66,0,0,1-.5-1.27,1.57,1.57,0,0,1,.75-1.39,4,4,0,0,1,2.15-.52l1.16,0v-.4a2,2,0,0,0-.35-1.31,1.37,1.37,0,0,0-1.14-.45,3.9,3.9,0,0,0-1.76.47l-.2-.48a4.7,4.7,0,0,1,2-.47A2,2,0,0,1,55,275a2.3,2.3,0,0,1,.49,1.63v4.06Zm-2.24-.39a1.94,1.94,0,0,0,2.1-2.11v-.61l-1.07.05a4,4,0,0,0-1.83.4,1.17,1.17,0,0,0-.55,1.06,1.12,1.12,0,0,0,.36.89A1.42,1.42,0,0,0,52.87,280.28Z"/><path d="M58,278l3.12-3.42h.67l-2.4,2.6,2.61,3.5h-.67l-2.32-3.08-1,.91v2.17H57.5v-8.74h.55v4.38L58,278Z"/><path d="M66.38,282.06c0,.41.19.62.59.62a1.2,1.2,0,0,0,.46-.07v.47a1.57,1.57,0,0,1-.58.09,1,1,0,0,1-.75-.26,1,1,0,0,1-.28-.76,1.56,1.56,0,0,1,.23-.78,2.61,2.61,0,0,1,.71-.77l-.13-.9h0a2.77,2.77,0,0,1-.94.84,2.6,2.6,0,0,1-1.15.24,2,2,0,0,1-1.4-.46,1.66,1.66,0,0,1-.5-1.27,1.57,1.57,0,0,1,.75-1.39,4,4,0,0,1,2.15-.52l1.16,0v-.4a2.09,2.09,0,0,0-.35-1.31,1.37,1.37,0,0,0-1.14-.45,3.87,3.87,0,0,0-1.76.47l-.21-.48a4.74,4.74,0,0,1,2-.47,2,2,0,0,1,1.5.52,2.3,2.3,0,0,1,.5,1.63v4.06a3.19,3.19,0,0,0-.6.67A1.26,1.26,0,0,0,66.38,282.06Zm-1.86-1.78a2.09,2.09,0,0,0,1.54-.56,2.07,2.07,0,0,0,.57-1.55v-.61l-1.07.05a4,4,0,0,0-1.83.4,1.3,1.3,0,0,0-.2,1.95A1.45,1.45,0,0,0,64.52,280.28Z"/><path d="M75.94,280.67H71.58v-.35l3.62-5.26H71.85v-.49h4.08v.35l-3.65,5.26h3.66Z"/><path d="M80,274.45a2.34,2.34,0,0,1,1.93.8,3.73,3.73,0,0,1,.65,2.36,3.63,3.63,0,0,1-.68,2.35,2.36,2.36,0,0,1-1.92.82,2.46,2.46,0,0,1-1.17-.27,2,2,0,0,1-.83-.76h0l-.16.92h-.35v-8.74H78v2.2c0,.33,0,.63,0,.91l0,.48h0a2.16,2.16,0,0,1,.84-.81A2.42,2.42,0,0,1,80,274.45Zm0,.5a1.81,1.81,0,0,0-1.54.62,3.44,3.44,0,0,0-.47,2v.1a3.13,3.13,0,0,0,.49,2,1.81,1.81,0,0,0,1.51.6,1.71,1.71,0,0,0,1.5-.7,3.34,3.34,0,0,0,.51-2C82,275.84,81.34,275,80,275Z"/><path d="M84.21,272.87c0-.36.12-.54.35-.54a.34.34,0,0,1,.28.14.93.93,0,0,1,0,.8.32.32,0,0,1-.28.15C84.33,273.42,84.21,273.23,84.21,272.87Zm.63,7.8h-.55v-6.1h.55Z"/><path d="M91.94,277.61a3.41,3.41,0,0,1-.73,2.33,2.5,2.5,0,0,1-2,.84,2.58,2.58,0,0,1-1.41-.39,2.4,2.4,0,0,1-.94-1.11,4,4,0,0,1-.33-1.67,3.46,3.46,0,0,1,.73-2.33,2.5,2.5,0,0,1,2-.83,2.45,2.45,0,0,1,2,.84A3.48,3.48,0,0,1,91.94,277.61Zm-4.82,0a3.09,3.09,0,0,0,.55,2,2.08,2.08,0,0,0,3.13,0,3.09,3.09,0,0,0,.55-2,3,3,0,0,0-.56-2,1.9,1.9,0,0,0-1.57-.7,1.84,1.84,0,0,0-1.55.7A3,3,0,0,0,87.12,277.61Zm1.55-4q.4-.44.81-1a7,7,0,0,0,.55-.79h.79v.1a6.35,6.35,0,0,1-.69.77c-.32.32-.68.65-1.07,1h-.39Z"/><path d="M96,274.45a4.08,4.08,0,0,1,.83.08l-.11.53A3.35,3.35,0,0,0,96,275a1.55,1.55,0,0,0-1.28.66,2.72,2.72,0,0,0-.5,1.67v3.37h-.55v-6.1h.47l.05,1.1h0a2.54,2.54,0,0,1,.81-.95A1.88,1.88,0,0,1,96,274.45Z"/><path d="M98.65,278l3.11-3.42h.68l-2.41,2.6,2.61,3.5H102l-2.32-3.08-1,.91v2.17H98.1v-8.74h.56v4.38l0,1.68Z"/><path d="M106.13,280.78a2.62,2.62,0,0,1-2.07-.82,3.26,3.26,0,0,1-.75-2.29,3.56,3.56,0,0,1,.72-2.34,2.37,2.37,0,0,1,1.94-.88,2.1,2.1,0,0,1,1.7.75,3.07,3.07,0,0,1,.62,2v.45H103.9a2.86,2.86,0,0,0,.58,1.92,2.06,2.06,0,0,0,1.65.67,4.62,4.62,0,0,0,1.92-.39v.5a3.74,3.74,0,0,1-1,.31A4.88,4.88,0,0,1,106.13,280.78Zm-.16-5.84a1.87,1.87,0,0,0-1.42.58,2.79,2.79,0,0,0-.62,1.68h3.77a2.64,2.64,0,0,0-.46-1.66A1.5,1.5,0,0,0,106,274.94Zm.9,6.91c0,.42.2.62.59.62a1.47,1.47,0,0,0,.46-.06v.47a1.57,1.57,0,0,1-.58.09,1,1,0,0,1-.75-.27,1,1,0,0,1-.28-.76,1.56,1.56,0,0,1,.23-.78,2.57,2.57,0,0,1,.63-.7h.5a3.19,3.19,0,0,0-.6.67A1.31,1.31,0,0,0,106.87,281.85Z"/><path d="M112.89,272.87c0-.36.11-.54.35-.54a.31.31,0,0,1,.27.14.85.85,0,0,1,0,.8.29.29,0,0,1-.27.15C113,273.42,112.89,273.23,112.89,272.87Zm.63,7.8H113v-6.1h.56Z"/><path d="M121.16,280.78a2.22,2.22,0,0,1-2-1h0l0,.47c0,.28,0,.58,0,.91v2.32h-.56v-8.86H119l.11.87h0a2.21,2.21,0,0,1,2-1,2.27,2.27,0,0,1,1.89.81,3.73,3.73,0,0,1,.65,2.36A3.54,3.54,0,0,1,123,280,2.25,2.25,0,0,1,121.16,280.78Zm0-.49a1.68,1.68,0,0,0,1.45-.7,3.16,3.16,0,0,0,.52-1.95c0-1.79-.65-2.69-2-2.69a1.93,1.93,0,0,0-1.56.59,2.89,2.89,0,0,0-.5,1.91v.18a3.38,3.38,0,0,0,.48,2.05A1.89,1.89,0,0,0,121.15,280.29Z"/><path d="M130.45,277.61a3.46,3.46,0,0,1-.73,2.33,2.5,2.5,0,0,1-2,.84,2.55,2.55,0,0,1-1.41-.39,2.4,2.4,0,0,1-.94-1.11,4,4,0,0,1-.33-1.67,3.46,3.46,0,0,1,.73-2.33,2.5,2.5,0,0,1,2-.83,2.46,2.46,0,0,1,2,.84A3.48,3.48,0,0,1,130.45,277.61Zm-4.82,0a3.09,3.09,0,0,0,.55,2,2.08,2.08,0,0,0,3.13,0,3.74,3.74,0,0,0,0-3.92,1.9,1.9,0,0,0-1.57-.7,1.87,1.87,0,0,0-1.56.7A3.11,3.11,0,0,0,125.63,277.61Z"/><path d="M139.76,280.67v-4a2,2,0,0,0-.35-1.31,1.31,1.31,0,0,0-1.06-.41,1.76,1.76,0,0,0-1.39.52,2.43,2.43,0,0,0-.45,1.62v3.58h-.57V276.5c0-1-.47-1.55-1.41-1.55a1.68,1.68,0,0,0-1.4.56,2.94,2.94,0,0,0-.44,1.79v3.37h-.56v-6.1h.47l.11.83h0a1.74,1.74,0,0,1,.72-.7,2.08,2.08,0,0,1,1-.25,1.76,1.76,0,0,1,1.86,1.08h0a2.05,2.05,0,0,1,.8-.8,2.24,2.24,0,0,1,1.14-.28,2,2,0,0,1,1.5.53,2.45,2.45,0,0,1,.5,1.7v4Z"/><path d="M147.34,277.61a3.46,3.46,0,0,1-.73,2.33,2.5,2.5,0,0,1-2,.84,2.58,2.58,0,0,1-1.41-.39,2.4,2.4,0,0,1-.94-1.11,4,4,0,0,1-.33-1.67,3.46,3.46,0,0,1,.73-2.33,2.5,2.5,0,0,1,2-.83,2.46,2.46,0,0,1,2,.84A3.48,3.48,0,0,1,147.34,277.61Zm-4.82,0a3.09,3.09,0,0,0,.55,2,2.08,2.08,0,0,0,3.13,0,3.09,3.09,0,0,0,.55-2,3,3,0,0,0-.56-2,1.9,1.9,0,0,0-1.57-.7,1.84,1.84,0,0,0-1.55.7A3,3,0,0,0,142.52,277.61Zm1.55-4q.41-.44.81-1a7,7,0,0,0,.55-.79h.79v.1a7.36,7.36,0,0,1-.69.77c-.32.32-.68.65-1.07,1h-.39Z"/><path d="M151.46,280.78a2.62,2.62,0,0,1-2.05-.82,3.36,3.36,0,0,1-.74-2.31,3.4,3.4,0,0,1,.77-2.36,2.72,2.72,0,0,1,2.11-.84,4.25,4.25,0,0,1,1.51.27l-.15.5a4.39,4.39,0,0,0-1.37-.27,2.09,2.09,0,0,0-1.71.7,3,3,0,0,0-.57,2,3,3,0,0,0,.57,1.94,2,2,0,0,0,1.62.7A4,4,0,0,0,153,280v.52A3.53,3.53,0,0,1,151.46,280.78Z"/><path d="M43.71,294.09a4.15,4.15,0,0,0,.92-.09v.45a2.94,2.94,0,0,1-.93.13,1.49,1.49,0,0,1-1.19-.43,2,2,0,0,1-.39-1.36v-3.94h-.9v-.33l.9-.25.28-1.38h.29v1.48h1.79v.48H42.69v3.86a1.71,1.71,0,0,0,.25,1A.87.87,0,0,0,43.71,294.09Z"/><path d="M44.93,288.37h.57l1.3,3.42c.39,1,.64,1.76.74,2.13h0c.15-.48.41-1.2.77-2.16l1.29-3.39h.57l-2.73,7.09a6.46,6.46,0,0,1-.56,1.17,1.5,1.5,0,0,1-.53.45,1.59,1.59,0,0,1-.72.15,2.52,2.52,0,0,1-.72-.12v-.48a2.71,2.71,0,0,0,.71.09.91.91,0,0,0,.5-.13,1.25,1.25,0,0,0,.4-.42,6.94,6.94,0,0,0,.41-.9c.15-.41.25-.68.3-.8Z"/><path d="M58.86,294.47v-4a2,2,0,0,0-.35-1.31,1.34,1.34,0,0,0-1.07-.41,1.74,1.74,0,0,0-1.38.52,2.43,2.43,0,0,0-.45,1.62v3.58H55V290.3c0-1-.47-1.55-1.42-1.55a1.66,1.66,0,0,0-1.39.56,2.86,2.86,0,0,0-.44,1.79v3.37h-.56v-6.1h.46l.12.83h0a1.74,1.74,0,0,1,.72-.7,2.12,2.12,0,0,1,1-.25,1.75,1.75,0,0,1,1.85,1.08h0a2,2,0,0,1,.8-.8,2.24,2.24,0,0,1,1.14-.28,2,2,0,0,1,1.5.53,2.45,2.45,0,0,1,.5,1.7v4Z"/><path d="M62,293.13l.07.12a18.84,18.84,0,0,1-1,2.7h-.37a21.77,21.77,0,0,0,.62-2.82Z"/><path d="M67.39,291.79l3.11-3.42h.68L68.77,291l2.61,3.5h-.66l-2.32-3.08-1,.91v2.17h-.56v-8.74h.56v4.38l0,1.68Z"/><path d="M74,294.09a4.15,4.15,0,0,0,.92-.09v.45a2.94,2.94,0,0,1-.93.13,1.53,1.53,0,0,1-1.2-.43,2,2,0,0,1-.38-1.36v-3.94h-.9v-.33l.9-.25.28-1.38H73v1.48h1.79v.48H73v3.86a1.79,1.79,0,0,0,.24,1A.9.9,0,0,0,74,294.09Z"/><path d="M81.31,291.41a3.41,3.41,0,0,1-.73,2.33,2.5,2.5,0,0,1-2,.84,2.58,2.58,0,0,1-1.41-.39,2.4,2.4,0,0,1-.94-1.11,4,4,0,0,1-.32-1.67,3.46,3.46,0,0,1,.72-2.33,2.52,2.52,0,0,1,2-.83,2.45,2.45,0,0,1,2,.84A3.48,3.48,0,0,1,81.31,291.41Zm-4.82,0a3.09,3.09,0,0,0,.55,2,2.08,2.08,0,0,0,3.13,0,3.09,3.09,0,0,0,.55-2,3,3,0,0,0-.56-2,1.9,1.9,0,0,0-1.57-.7,1.84,1.84,0,0,0-1.55.7A3,3,0,0,0,76.49,291.41Zm1.55-4q.4-.44.81-1a7,7,0,0,0,.55-.79h.79v.1a6.35,6.35,0,0,1-.69.77c-.32.32-.68.65-1.07,1H78Z"/><path d="M85.4,288.25a4.08,4.08,0,0,1,.83.08l-.1.53a3.5,3.5,0,0,0-.8-.1,1.56,1.56,0,0,0-1.28.67,2.72,2.72,0,0,0-.5,1.67v3.37H83v-6.1h.47l.06,1.1h0a2.63,2.63,0,0,1,.81-1A1.88,1.88,0,0,1,85.4,288.25Z"/><path d="M91.27,294.47H86.91v-.35l3.62-5.26H87.17v-.49h4.09v.35L87.61,294h3.66Z"/><path d="M91.75,288.37h.57l1.3,3.42c.39,1,.64,1.76.74,2.13h0c.15-.48.41-1.2.77-2.16l1.29-3.39H97l-2.73,7.09a6.46,6.46,0,0,1-.56,1.17,1.5,1.5,0,0,1-.53.45,1.59,1.59,0,0,1-.72.15,2.52,2.52,0,0,1-.72-.12v-.48a2.65,2.65,0,0,0,.71.09.91.91,0,0,0,.5-.13,1.25,1.25,0,0,0,.4-.42,5.8,5.8,0,0,0,.41-.9c.15-.41.25-.68.3-.8Z"/><path d="M104.82,292.88a1.43,1.43,0,0,1-.62,1.26,3,3,0,0,1-1.77.44,4.24,4.24,0,0,1-1.94-.37v-.61a4.24,4.24,0,0,0,1.94.47,2.46,2.46,0,0,0,1.37-.31.89.89,0,0,0,.47-.79,1,1,0,0,0-.37-.78,4.07,4.07,0,0,0-1.23-.62,6.6,6.6,0,0,1-1.28-.57,1.71,1.71,0,0,1-.56-.54,1.3,1.3,0,0,1-.19-.73,1.23,1.23,0,0,1,.58-1.08,2.74,2.74,0,0,1,1.6-.4,4.78,4.78,0,0,1,1.88.37l-.21.5a4.52,4.52,0,0,0-1.67-.37,2.46,2.46,0,0,0-1.18.25.77.77,0,0,0-.44.69.94.94,0,0,0,.34.76,4.94,4.94,0,0,0,1.33.64,6.5,6.5,0,0,1,1.2.54,1.71,1.71,0,0,1,.56.54A1.28,1.28,0,0,1,104.82,292.88Z"/><path d="M109.71,295.86c0,.41.2.62.59.62a1.2,1.2,0,0,0,.46-.07v.47a1.53,1.53,0,0,1-.58.09,1,1,0,0,1-.75-.26,1,1,0,0,1-.28-.76,1.56,1.56,0,0,1,.23-.78,2.75,2.75,0,0,1,.71-.77l-.13-.9h0a2.89,2.89,0,0,1-1,.84,2.57,2.57,0,0,1-1.15.24,2,2,0,0,1-1.4-.46,1.66,1.66,0,0,1-.5-1.27,1.57,1.57,0,0,1,.75-1.39,4,4,0,0,1,2.15-.52l1.16,0v-.4a2,2,0,0,0-.35-1.31,1.37,1.37,0,0,0-1.14-.45,3.87,3.87,0,0,0-1.76.47l-.2-.48a4.7,4.7,0,0,1,2-.47,2,2,0,0,1,1.5.52,2.26,2.26,0,0,1,.5,1.63v4.06a3.19,3.19,0,0,0-.6.67A1.34,1.34,0,0,0,109.71,295.86Zm-1.85-1.78A1.94,1.94,0,0,0,110,292v-.61l-1.07.05a4,4,0,0,0-1.83.4,1.17,1.17,0,0,0-.55,1.06,1.12,1.12,0,0,0,.36.89A1.42,1.42,0,0,0,107.86,294.08Z"/><path d="M119.73,294.47v-4a1.93,1.93,0,0,0-.39-1.34,1.53,1.53,0,0,0-1.2-.42,2.07,2.07,0,0,0-1.6.56,2.59,2.59,0,0,0-.51,1.79v3.37h-.55v-6.1H116l.1.83h0a2.31,2.31,0,0,1,2.12-.95c1.38,0,2.07.74,2.07,2.23v4Z"/><path d="M126,294.47l-.14-1h0a2.79,2.79,0,0,1-1,.84,2.52,2.52,0,0,1-1.14.24,2,2,0,0,1-1.4-.46,1.62,1.62,0,0,1-.5-1.27,1.58,1.58,0,0,1,.74-1.39,4.08,4.08,0,0,1,2.15-.52l1.17,0v-.4a2,2,0,0,0-.36-1.31,1.35,1.35,0,0,0-1.14-.45,3.83,3.83,0,0,0-1.75.47l-.21-.48a4.71,4.71,0,0,1,2-.47,2,2,0,0,1,1.5.52,2.3,2.3,0,0,1,.5,1.63v4.06Zm-2.25-.39a2.11,2.11,0,0,0,1.54-.56,2.07,2.07,0,0,0,.57-1.55v-.61l-1.07.05a4,4,0,0,0-1.84.4,1.17,1.17,0,0,0-.54,1.06,1.12,1.12,0,0,0,.35.89A1.42,1.42,0,0,0,123.72,294.08Z"/><path d="M127.54,297.23a1.75,1.75,0,0,1-.76-.14v-.48a2.8,2.8,0,0,0,.72.11c.57,0,.85-.33.85-1v-7.36h.56v7.28a1.71,1.71,0,0,1-.36,1.17A1.24,1.24,0,0,1,127.54,297.23Zm.73-10.56q0-.54.36-.54a.33.33,0,0,1,.27.14.85.85,0,0,1,0,.8.32.32,0,0,1-.27.15C128.39,287.22,128.27,287,128.27,286.67Z"/><path d="M133.53,288.25a2.35,2.35,0,0,1,1.93.8,3.73,3.73,0,0,1,.65,2.36,3.58,3.58,0,0,1-.69,2.35,2.33,2.33,0,0,1-1.91.82,2.53,2.53,0,0,1-1.18-.27,2,2,0,0,1-.82-.76h0l-.16.92H131v-8.74h.56v2.2c0,.33,0,.63,0,.91l0,.48h0a2.16,2.16,0,0,1,.84-.81A2.39,2.39,0,0,1,133.53,288.25Zm0,.5a1.83,1.83,0,0,0-1.55.62,3.45,3.45,0,0,0-.46,2v.1a3.2,3.2,0,0,0,.48,2,1.85,1.85,0,0,0,1.52.6,1.75,1.75,0,0,0,1.5-.7,3.34,3.34,0,0,0,.51-2C135.52,289.64,134.85,288.75,133.52,288.75Z"/><path d="M138.35,294.47h-.55v-8.74h.55Z"/><path d="M140.32,286.67c0-.36.12-.54.35-.54a.31.31,0,0,1,.27.14.85.85,0,0,1,0,.8.29.29,0,0,1-.27.15C140.44,287.22,140.32,287,140.32,286.67Zm.63,7.8h-.55v-6.1H141Z"/><path d="M146.79,294.47h-4.36v-.35l3.63-5.26H142.7v-.49h4.08v.35L143.14,294h3.65Zm-2.42-7.8q0-.54.36-.54a.33.33,0,0,1,.27.14.93.93,0,0,1,0,.8.32.32,0,0,1-.27.15C144.49,287.22,144.37,287,144.37,286.67Z"/><path d="M150.76,294.58a2.62,2.62,0,0,1-2.07-.82,3.26,3.26,0,0,1-.75-2.29,3.56,3.56,0,0,1,.72-2.34,2.37,2.37,0,0,1,1.94-.88,2.1,2.1,0,0,1,1.7.75,3.07,3.07,0,0,1,.62,2v.45h-4.39a2.86,2.86,0,0,0,.58,1.92,2.06,2.06,0,0,0,1.65.67,4.62,4.62,0,0,0,1.92-.39v.5a3.74,3.74,0,0,1-1,.31A4.88,4.88,0,0,1,150.76,294.58Zm-.16-5.84a1.87,1.87,0,0,0-1.42.58,2.79,2.79,0,0,0-.62,1.68h3.77a2.64,2.64,0,0,0-.46-1.66A1.5,1.5,0,0,0,150.6,288.74Z"/><path d="M153.79,297.23a1.68,1.68,0,0,1-.75-.14v-.48a2.74,2.74,0,0,0,.72.11c.57,0,.85-.33.85-1v-7.36h.55v7.28a1.71,1.71,0,0,1-.35,1.17A1.26,1.26,0,0,1,153.79,297.23Zm.74-10.56c0-.36.12-.54.35-.54a.34.34,0,0,1,.28.14.93.93,0,0,1,0,.8.32.32,0,0,1-.28.15C154.65,287.22,154.53,287,154.53,286.67Z"/><path d="M157.1,294c0-.36.15-.55.45-.55s.45.19.45.55-.15.55-.45.55S157.1,294.4,157.1,294Z"/><path class="cls-4" d="M91.68,64.63c0,3.23,3.28,5.86,7.33,5.86s7.32-2.63,7.32-5.86-3.28-5.87-7.32-5.87-7.33-2.62-7.33-5.86S95,47,99,47s7.32,2.62,7.32,5.86"/><line class="cls-4" x1="99.01" y1="47.04" x2="99.01" y2="42.64"/><line class="cls-4" x1="99.01" y1="74.89" x2="99.01" y2="70.49"/><circle class="cls-4" cx="99.01" cy="58.76" r="24.92"/><line class="cls-4" x1="99.01" y1="19.19" x2="99.01" y2="27.99"/><line class="cls-4" x1="99.01" y1="89.54" x2="99.01" y2="98.34"/><line class="cls-4" x1="79.22" y1="24.49" x2="83.62" y2="32.11"/><line class="cls-4" x1="114.39" y1="85.42" x2="118.79" y2="93.03"/><line class="cls-4" x1="64.73" y1="38.98" x2="72.35" y2="43.37"/><line class="cls-4" x1="125.66" y1="74.15" x2="133.28" y2="78.55"/><line class="cls-4" x1="59.43" y1="58.76" x2="68.23" y2="58.76"/><line class="cls-4" x1="129.78" y1="58.76" x2="138.58" y2="58.76"/><line class="cls-4" x1="64.73" y1="78.55" x2="72.35" y2="74.15"/><line class="cls-4" x1="125.66" y1="43.38" x2="133.28" y2="38.98"/><line class="cls-4" x1="79.22" y1="93.03" x2="83.62" y2="85.42"/><line class="cls-4" x1="114.39" y1="32.11" x2="118.79" y2="24.49"/></svg>