<svg id="Warstwa_1" data-name="Warstwa 1" xmlns="http://www.w3.org/2000/svg" viewBox="0 0 155 324.95"><defs><style>.cls-1,.cls-4{fill:none;}.cls-1{stroke:#707070;}.cls-2{isolation:isolate;}.cls-3{fill:#3c3c3c;}.cls-4{stroke:#424242;stroke-linecap:round;stroke-linejoin:round;stroke-width:3px;}</style></defs><title>lokalsi</title><line id="Line" class="cls-1" x1="41.22" y1="159.76" x2="111.22" y2="159.76"/><g id="Wybierz_rzeczy" data-name="Wybierz rzeczy" class="cls-2"><g class="cls-2"><path class="cls-3" d="M28.7,123.65V110.8h2.1v11h5.44v1.8Z"/><path class="cls-3" d="M49.86,117.21a7,7,0,0,1-1.57,4.88,5.65,5.65,0,0,1-4.44,1.74,5.72,5.72,0,0,1-4.47-1.73,7.08,7.08,0,0,1-1.56-4.91,7,7,0,0,1,1.57-4.89,5.8,5.8,0,0,1,4.48-1.7,5.69,5.69,0,0,1,4.43,1.73A7,7,0,0,1,49.86,117.21Zm-9.81,0a5.76,5.76,0,0,0,1,3.6A3.41,3.41,0,0,0,43.85,122a3.35,3.35,0,0,0,2.82-1.21,5.74,5.74,0,0,0,1-3.61,5.8,5.8,0,0,0-1-3.59,3.34,3.34,0,0,0-2.81-1.22A3.45,3.45,0,0,0,41,113.62,5.73,5.73,0,0,0,40.05,117.21Z"/><path class="cls-3" d="M62.43,123.65H60l-4-5.82-1.24,1v4.81h-2.1V110.8h2.1v6.14c.58-.71,1.15-1.38,1.72-2l3.47-4.11H62.3c-2.25,2.64-3.85,4.52-4.83,5.63Z"/><path class="cls-3" d="M72.1,123.65l-1.29-3.57H65.9l-1.26,3.57H62.43l4.81-12.9h2.28l4.81,12.9Zm-1.84-5.38-1.2-3.5c-.09-.23-.21-.6-.37-1.1s-.26-.88-.32-1.11a20.55,20.55,0,0,1-.69,2.36l-1.16,3.35Z"/><path class="cls-3" d="M76,123.65V110.8h2.1v11h5.44v1.8Z"/><path class="cls-3" d="M96.49,123.65H93.91l-6.32-10.24h-.07l0,.57c.08,1.09.12,2.09.12,3v6.68H85.78V110.8h2.55L94.63,121h.06c0-.14,0-.63-.07-1.47s-.06-1.51-.06-2V110.8h1.93Z"/><path class="cls-3" d="M103.51,116.66l3-5.86h2.29l-4.29,7.87v5h-2.1v-4.91l-4.27-7.94h2.29Z"/><path class="cls-3" d="M116.09,123.65l-3.73-10.73h-.07c.1,1.59.15,3.09.15,4.48v6.25h-1.91V110.8h3L117.06,121h.06l3.67-10.22h3v12.85h-2V117.3c0-.64,0-1.47.05-2.5s.06-1.65.08-1.86h-.07l-3.86,10.71Z"/><path class="cls-3" d="M38.15,145.25H29v-1.46l6.48-9.59h-6.3v-1.8H38v1.48l-6.51,9.57h6.68Z"/><path class="cls-3" d="M40.43,132.4h3.81a7.32,7.32,0,0,1,3.84.77,2.71,2.71,0,0,1,1.18,2.45,2.94,2.94,0,0,1-.58,1.87,2.56,2.56,0,0,1-1.67.94v.09a3.28,3.28,0,0,1,2,1,3,3,0,0,1,.64,2,3.29,3.29,0,0,1-1.21,2.71,5.19,5.19,0,0,1-3.36,1H40.43Zm2.1,5.31h2a3.47,3.47,0,0,0,1.93-.42,1.61,1.61,0,0,0,.6-1.42,1.42,1.42,0,0,0-.65-1.31,4.1,4.1,0,0,0-2.08-.4H42.53Zm0,1.7v4.07h2.23a3.25,3.25,0,0,0,2-.5,1.87,1.87,0,0,0,.68-1.6,1.68,1.68,0,0,0-.69-1.48,3.65,3.65,0,0,0-2.08-.49Z"/><path class="cls-3" d="M52.31,145.25V132.4h2.1v12.85Z"/><path class="cls-3" d="M69.21,138.81a7.06,7.06,0,0,1-1.56,4.88,5.69,5.69,0,0,1-4.45,1.74,5.72,5.72,0,0,1-4.47-1.73,8.45,8.45,0,0,1,0-9.8,5.81,5.81,0,0,1,4.48-1.7,5.67,5.67,0,0,1,4.43,1.73A7,7,0,0,1,69.21,138.81Zm-9.8,0a5.77,5.77,0,0,0,1,3.6,3.92,3.92,0,0,0,5.67,0,7.33,7.33,0,0,0,0-7.2A3.36,3.36,0,0,0,63.22,134a3.42,3.42,0,0,0-2.85,1.22A5.73,5.73,0,0,0,59.41,138.81Zm2.47-7.44v-.22c.34-.41.68-.86,1-1.37s.63-.93.84-1.29h2.4v.18a18.81,18.81,0,0,1-1.37,1.39c-.61.56-1.12,1-1.53,1.31Z"/><path class="cls-3" d="M74.07,140.12v5.13H72V132.4H75.6a6,6,0,0,1,3.69.93,3.36,3.36,0,0,1,1.19,2.81A3.52,3.52,0,0,1,78,139.56l3.63,5.69h-2.4l-3.07-5.13Zm0-1.74h1.46a3.3,3.3,0,0,0,2.13-.55,2,2,0,0,0,.66-1.62,1.75,1.75,0,0,0-.71-1.56,3.9,3.9,0,0,0-2.15-.47H74.07Z"/><path class="cls-3" d="M93.29,145.25H90.85l-4-5.82-1.24,1v4.81h-2.1V132.4h2.1v6.14c.57-.71,1.14-1.38,1.71-2l3.48-4.1h2.39q-3.37,4-4.83,5.63Z"/><path class="cls-3" d="M106.39,138.81a7,7,0,0,1-1.57,4.88,5.65,5.65,0,0,1-4.44,1.74,5.72,5.72,0,0,1-4.47-1.73,7.08,7.08,0,0,1-1.56-4.91,7,7,0,0,1,1.57-4.89,5.81,5.81,0,0,1,4.48-1.7,5.67,5.67,0,0,1,4.43,1.73A7,7,0,0,1,106.39,138.81Zm-9.81,0a5.76,5.76,0,0,0,1,3.6,3.92,3.92,0,0,0,5.67,0,7.3,7.3,0,0,0,0-7.2A3.32,3.32,0,0,0,100.4,134a3.42,3.42,0,0,0-2.85,1.22A5.67,5.67,0,0,0,96.58,138.81Z"/><path class="cls-3" d="M114.71,145.25,111,134.52h-.07c.1,1.59.15,3.09.15,4.48v6.25h-1.91V132.4h3l3.57,10.22h0l3.68-10.22h3v12.85h-2V138.9c0-.64,0-1.48,0-2.5s.06-1.65.08-1.86h-.07l-3.86,10.71Z"/></g></g><path d="M21.94,182.05h-.47l-1.8-6.33c-.15-.52-.26-.95-.34-1.28-.06.32-.14.7-.25,1.12s-.72,2.59-1.82,6.49h-.48l-2.26-8.21h.61l1.43,5.29c.06.21.11.41.16.59s.09.35.13.51.08.32.11.46l.09.45a23.8,23.8,0,0,1,.57-2.32l1.4-5h.64l1.64,5.72c.19.66.33,1.19.41,1.59.05-.27.11-.55.19-.86s.65-2.45,1.73-6.45h.58Z"/><path d="M29.3,180.46a1.45,1.45,0,0,1-.62,1.26,3,3,0,0,1-1.77.44,4.21,4.21,0,0,1-1.94-.37v-.61a4.24,4.24,0,0,0,1.94.47,2.55,2.55,0,0,0,1.37-.31.89.89,0,0,0,.47-.8,1,1,0,0,0-.37-.77,4.07,4.07,0,0,0-1.23-.62,6.6,6.6,0,0,1-1.28-.57,1.71,1.71,0,0,1-.56-.54,1.3,1.3,0,0,1-.19-.73,1.23,1.23,0,0,1,.58-1.08,2.74,2.74,0,0,1,1.6-.4,4.78,4.78,0,0,1,1.88.37l-.21.5a4.52,4.52,0,0,0-1.67-.37,2.46,2.46,0,0,0-1.18.25.77.77,0,0,0-.44.69A.94.94,0,0,0,26,178a4.94,4.94,0,0,0,1.33.64,6.5,6.5,0,0,1,1.2.54,1.86,1.86,0,0,1,.57.54A1.36,1.36,0,0,1,29.3,180.46Z"/><path d="M33.49,182.16a2.24,2.24,0,0,1-2.06-1h0l0,.47c0,.28,0,.58,0,.91v2.32h-.55V176h.47l.1.87h0a2.21,2.21,0,0,1,2-1,2.26,2.26,0,0,1,1.88.81A3.73,3.73,0,0,1,36,179a3.59,3.59,0,0,1-.68,2.33A2.27,2.27,0,0,1,33.49,182.16Zm0-.49a1.7,1.7,0,0,0,1.45-.7,3.23,3.23,0,0,0,.51-1.95c0-1.79-.65-2.69-1.94-2.69a2,2,0,0,0-1.57.59,3,3,0,0,0-.5,1.91V179a3.38,3.38,0,0,0,.48,2.05A1.89,1.89,0,0,0,33.48,181.67Z"/><path d="M37.64,174.25q0-.54.36-.54a.33.33,0,0,1,.27.14.85.85,0,0,1,0,.8.31.31,0,0,1-.27.14Q37.64,174.79,37.64,174.25Zm.64,7.8h-.56V176h.56Z"/><path d="M42.79,182.16a2.66,2.66,0,0,1-2.08-.82,3.25,3.25,0,0,1-.74-2.29,3.61,3.61,0,0,1,.71-2.34,2.37,2.37,0,0,1,1.94-.88,2.08,2.08,0,0,1,1.7.75,3.07,3.07,0,0,1,.63,2v.45h-4.4a2.86,2.86,0,0,0,.59,1.92,2,2,0,0,0,1.65.67,4.89,4.89,0,0,0,.91-.08,5,5,0,0,0,1-.31v.5a4.42,4.42,0,0,1-1,.31A5.64,5.64,0,0,1,42.79,182.16Zm-.17-5.84a1.83,1.83,0,0,0-1.41.58,2.74,2.74,0,0,0-.63,1.68h3.78a2.71,2.71,0,0,0-.46-1.66A1.52,1.52,0,0,0,42.62,176.32Z"/><path d="M49,175.83a4.22,4.22,0,0,1,.83.08l-.11.53a3.42,3.42,0,0,0-.79-.1,1.54,1.54,0,0,0-1.28.67,2.65,2.65,0,0,0-.5,1.67v3.37h-.56V176h.47l.06,1.1h0a2.62,2.62,0,0,1,.8-1A1.92,1.92,0,0,1,49,175.83Z"/><path d="M54.81,182.05l-.14-1h0a2.91,2.91,0,0,1-1,.84,2.54,2.54,0,0,1-1.15.24,2,2,0,0,1-1.4-.46,1.65,1.65,0,0,1-.49-1.27,1.56,1.56,0,0,1,.74-1.39,4,4,0,0,1,2.15-.52l1.17,0v-.4a2,2,0,0,0-.36-1.31,1.35,1.35,0,0,0-1.14-.45,3.9,3.9,0,0,0-1.76.47l-.2-.48a4.7,4.7,0,0,1,2-.47,2,2,0,0,1,1.51.52,2.3,2.3,0,0,1,.49,1.63v4.06Zm-2.24-.39a1.94,1.94,0,0,0,2.1-2.11v-.61l-1.06.05a4,4,0,0,0-1.84.4,1.17,1.17,0,0,0-.55,1.06,1.12,1.12,0,0,0,.36.89A1.42,1.42,0,0,0,52.57,181.66Z"/><path d="M64.83,182.05v-4a2,2,0,0,0-.35-1.31,1.34,1.34,0,0,0-1.07-.41,1.77,1.77,0,0,0-1.39.52,2.43,2.43,0,0,0-.45,1.62v3.58H61v-4.17c0-1-.47-1.55-1.42-1.55a1.69,1.69,0,0,0-1.4.56,2.93,2.93,0,0,0-.43,1.79v3.37H57.2V176h.46l.12.83h0a1.74,1.74,0,0,1,.72-.7,2.09,2.09,0,0,1,1-.25,1.75,1.75,0,0,1,1.85,1.08h0a2.12,2.12,0,0,1,.8-.8,2.3,2.3,0,0,1,1.15-.28,2,2,0,0,1,1.5.53,2.45,2.45,0,0,1,.5,1.7v4Z"/><path d="M66.33,176h.57l1.29,3.42q.6,1.57.75,2.13h0c.16-.48.42-1.2.77-2.16L71,176h.57L68.87,183a6,6,0,0,1-.55,1.17,1.5,1.5,0,0,1-.53.45,1.59,1.59,0,0,1-.72.15,2.52,2.52,0,0,1-.72-.12v-.48a2.63,2.63,0,0,0,.7.09.94.94,0,0,0,.51-.13,1.25,1.25,0,0,0,.4-.42,6.94,6.94,0,0,0,.41-.9c.15-.41.25-.68.3-.8Z"/><path d="M76.17,182.05h-.55v-8.74h.55Z"/><path d="M83.27,179a3.46,3.46,0,0,1-.73,2.33,2.5,2.5,0,0,1-2,.84,2.58,2.58,0,0,1-1.41-.39,2.4,2.4,0,0,1-.94-1.11,4,4,0,0,1-.33-1.67,3.46,3.46,0,0,1,.73-2.33,2.5,2.5,0,0,1,2-.83,2.46,2.46,0,0,1,2,.84A3.48,3.48,0,0,1,83.27,179Zm-4.82,0a3.09,3.09,0,0,0,.55,2,2.08,2.08,0,0,0,3.13,0,3.09,3.09,0,0,0,.55-2,3,3,0,0,0-.56-2,1.9,1.9,0,0,0-1.57-.7A1.84,1.84,0,0,0,79,177,3,3,0,0,0,78.45,179Z"/><path d="M85.5,179.37,88.62,176h.67l-2.4,2.6,2.61,3.5h-.67L86.51,179l-1,.91v2.17H85v-8.74h.55v4.38l0,1.68Z"/><path d="M94.23,182.05l-.14-1h0a2.91,2.91,0,0,1-1,.84,2.52,2.52,0,0,1-1.14.24,2,2,0,0,1-1.4-.46,1.62,1.62,0,0,1-.5-1.27,1.58,1.58,0,0,1,.74-1.39,4.09,4.09,0,0,1,2.16-.52l1.16,0v-.4a2,2,0,0,0-.36-1.31,1.35,1.35,0,0,0-1.14-.45,3.83,3.83,0,0,0-1.75.47l-.21-.48a4.71,4.71,0,0,1,2-.47,2,2,0,0,1,1.5.52,2.3,2.3,0,0,1,.5,1.63v4.06ZM92,181.66a2.09,2.09,0,0,0,1.54-.56,2.07,2.07,0,0,0,.57-1.55v-.61L93,179a3.93,3.93,0,0,0-1.83.4,1.3,1.3,0,0,0-.2,2A1.42,1.42,0,0,0,92,181.66Z"/><path d="M97.17,182.05h-.56v-8.74h.56Z"/><path d="M103.47,182.05v-4a1.93,1.93,0,0,0-.39-1.34,1.56,1.56,0,0,0-1.2-.42,2.07,2.07,0,0,0-1.6.56,2.57,2.57,0,0,0-.51,1.79v3.37h-.56V176h.47l.11.83h0a2.32,2.32,0,0,1,2.12-.95c1.39,0,2.08.74,2.08,2.23v4Z"/><path d="M108.46,182.16a2.62,2.62,0,0,1-2.07-.82,3.26,3.26,0,0,1-.75-2.29,3.56,3.56,0,0,1,.72-2.34,2.37,2.37,0,0,1,1.94-.88,2.1,2.1,0,0,1,1.7.75,3.07,3.07,0,0,1,.62,2v.45h-4.39a2.86,2.86,0,0,0,.58,1.92,2.06,2.06,0,0,0,1.65.67,4.62,4.62,0,0,0,1.92-.39v.5a4.18,4.18,0,0,1-.95.31A5.86,5.86,0,0,1,108.46,182.16Zm-.16-5.84a1.87,1.87,0,0,0-1.42.58,2.79,2.79,0,0,0-.62,1.68H110a2.64,2.64,0,0,0-.46-1.66A1.5,1.5,0,0,0,108.3,176.32Z"/><path d="M19.06,195.85H14.7v-.35l3.62-5.26H15v-.49H19v.35l-3.64,5.26h3.66Z"/><path d="M23.14,189.63a2.36,2.36,0,0,1,1.93.8,3.73,3.73,0,0,1,.64,2.36,3.58,3.58,0,0,1-.68,2.35,2.33,2.33,0,0,1-1.91.82,2.53,2.53,0,0,1-1.18-.27,2,2,0,0,1-.82-.76h-.05l-.16.92h-.35v-8.74h.56v2.2c0,.33,0,.63,0,.91v.48h0a2.16,2.16,0,0,1,.84-.81A2.39,2.39,0,0,1,23.14,189.63Zm0,.5a1.83,1.83,0,0,0-1.55.62,3.45,3.45,0,0,0-.46,2v.09a3.21,3.21,0,0,0,.48,2,1.85,1.85,0,0,0,1.52.6,1.75,1.75,0,0,0,1.5-.7,3.34,3.34,0,0,0,.51-2C25.13,191,24.46,190.13,23.13,190.13Z"/><path d="M27.33,188.05c0-.36.11-.54.35-.54a.31.31,0,0,1,.27.14.85.85,0,0,1,0,.8.29.29,0,0,1-.27.14C27.44,188.59,27.33,188.41,27.33,188.05Zm.63,7.8h-.55v-6.1H28Z"/><path d="M35.05,192.79a3.46,3.46,0,0,1-.72,2.33,2.5,2.5,0,0,1-2,.84,2.59,2.59,0,0,1-1.42-.39,2.39,2.39,0,0,1-.93-1.11,4,4,0,0,1-.33-1.67,3.41,3.41,0,0,1,.73-2.33,2.77,2.77,0,0,1,4,0A3.53,3.53,0,0,1,35.05,192.79Zm-4.82,0a3.09,3.09,0,0,0,.56,2,2.08,2.08,0,0,0,3.13,0,3.15,3.15,0,0,0,.55-2,3.07,3.07,0,0,0-.56-2,1.92,1.92,0,0,0-1.57-.7,1.87,1.87,0,0,0-1.56.7A3.11,3.11,0,0,0,30.23,192.79Zm1.55-4c.28-.29.55-.62.82-1a6.65,6.65,0,0,0,.54-.79h.8v.09a6.4,6.4,0,0,1-.69.78c-.33.32-.68.65-1.07,1h-.4Z"/><path d="M39.15,189.63a4.22,4.22,0,0,1,.83.08l-.11.53a3.42,3.42,0,0,0-.79-.1,1.54,1.54,0,0,0-1.28.67,2.72,2.72,0,0,0-.5,1.67v3.37h-.56v-6.1h.47l.06,1.1h0a2.62,2.62,0,0,1,.8-.95A1.92,1.92,0,0,1,39.15,189.63Z"/><path d="M41.76,193.17l3.12-3.42h.67l-2.4,2.6,2.61,3.5h-.67l-2.32-3.08-1,.91v2.17h-.55v-8.74h.55v4.38l0,1.68Z"/><path d="M46.7,188.05q0-.54.36-.54a.33.33,0,0,1,.27.14.85.85,0,0,1,0,.8.31.31,0,0,1-.27.14Q46.7,188.59,46.7,188.05Zm.64,7.8h-.56v-6.1h.56Z"/><path d="M57.42,192.79a3.41,3.41,0,0,1-.73,2.33,2.5,2.5,0,0,1-2,.84,2.58,2.58,0,0,1-1.41-.39,2.4,2.4,0,0,1-.94-1.11,4.15,4.15,0,0,1-.32-1.67,3.46,3.46,0,0,1,.72-2.33,2.52,2.52,0,0,1,2-.83,2.45,2.45,0,0,1,2,.84A3.48,3.48,0,0,1,57.42,192.79Zm-4.82,0a3.09,3.09,0,0,0,.55,2,2.08,2.08,0,0,0,3.13,0,3.77,3.77,0,0,0,0-3.92,1.93,1.93,0,0,0-1.57-.7,1.84,1.84,0,0,0-1.56.7A3,3,0,0,0,52.6,192.79Z"/><path d="M61.51,189.63a4.08,4.08,0,0,1,.83.08l-.1.53a3.5,3.5,0,0,0-.8-.1,1.56,1.56,0,0,0-1.28.67,2.72,2.72,0,0,0-.5,1.67v3.37h-.55v-6.1h.47l.06,1.1h0a2.63,2.63,0,0,1,.81-.95A1.88,1.88,0,0,1,61.51,189.63Z"/><path d="M68.35,189.75v.38l-1.27.08a2.15,2.15,0,0,1,.51,1.38A1.86,1.86,0,0,1,67,193a2.2,2.2,0,0,1-1.57.55,3.89,3.89,0,0,1-.59,0,1.3,1.3,0,0,0-.5.41.79.79,0,0,0-.18.5.47.47,0,0,0,.22.42,1.53,1.53,0,0,0,.75.14h1.06a2.49,2.49,0,0,1,1.53.4,1.4,1.4,0,0,1,.52,1.19,1.7,1.7,0,0,1-.78,1.49,4,4,0,0,1-2.23.52,3.1,3.1,0,0,1-1.78-.44,1.45,1.45,0,0,1-.64-1.24,1.43,1.43,0,0,1,.4-1,2,2,0,0,1,1.05-.57,1.14,1.14,0,0,1-.44-.33.81.81,0,0,1-.16-.5,1.31,1.31,0,0,1,.78-1.08,1.62,1.62,0,0,1-.83-.69,2.11,2.11,0,0,1,.28-2.54,2.18,2.18,0,0,1,1.57-.55,2.83,2.83,0,0,1,.93.12Zm-4.95,7.13c0,.84.63,1.26,1.87,1.26,1.61,0,2.41-.51,2.41-1.53a.88.88,0,0,0-.38-.8,2.34,2.34,0,0,0-1.22-.25h-1Q63.4,195.56,63.4,196.88Zm.47-5.23a1.4,1.4,0,0,0,.43,1.1,1.65,1.65,0,0,0,1.15.39,1.62,1.62,0,0,0,1.17-.39,1.48,1.48,0,0,0,.41-1.12,1.52,1.52,0,0,0-.42-1.17,1.65,1.65,0,0,0-1.17-.39,1.44,1.44,0,0,0-1.57,1.58Z"/><path d="M73.3,195.85l-.14-1h0a2.91,2.91,0,0,1-1,.84A2.54,2.54,0,0,1,71,196a1.94,1.94,0,0,1-1.39-.46,1.62,1.62,0,0,1-.5-1.27,1.56,1.56,0,0,1,.74-1.39,4,4,0,0,1,2.15-.52l1.17,0v-.4a2,2,0,0,0-.36-1.31,1.35,1.35,0,0,0-1.14-.45,3.9,3.9,0,0,0-1.76.47l-.2-.48a4.7,4.7,0,0,1,2-.47,2,2,0,0,1,1.51.52,2.3,2.3,0,0,1,.49,1.63v4.06Zm-2.24-.39a1.94,1.94,0,0,0,2.1-2.11v-.61l-1.06,0a4,4,0,0,0-1.84.4,1.17,1.17,0,0,0-.55,1.06,1.12,1.12,0,0,0,.36.89A1.42,1.42,0,0,0,71.06,195.46Z"/><path d="M80,195.85v-4a1.93,1.93,0,0,0-.39-1.34,1.56,1.56,0,0,0-1.2-.42,2.1,2.1,0,0,0-1.61.56,2.62,2.62,0,0,0-.5,1.79v3.37h-.56v-6.1h.47l.11.83h0a2.31,2.31,0,0,1,2.12-1c1.38,0,2.08.74,2.08,2.23v4Z"/><path d="M82.39,188.05q0-.54.36-.54a.32.32,0,0,1,.27.14.85.85,0,0,1,0,.8.3.3,0,0,1-.27.14Q82.39,188.59,82.39,188.05Zm.64,7.8h-.56v-6.1H83Z"/><path d="M88.87,195.85H84.51v-.35l3.62-5.26H84.78v-.49h4.08v.35l-3.65,5.26h3.66Z"/><path d="M95.42,192.79a3.46,3.46,0,0,1-.72,2.33,2.51,2.51,0,0,1-2,.84,2.59,2.59,0,0,1-1.42-.39,2.39,2.39,0,0,1-.93-1.11,4,4,0,0,1-.33-1.67,3.46,3.46,0,0,1,.72-2.33,2.53,2.53,0,0,1,2-.83,2.47,2.47,0,0,1,2,.84A3.53,3.53,0,0,1,95.42,192.79Zm-4.82,0a3.09,3.09,0,0,0,.56,2,2.07,2.07,0,0,0,3.12,0,3.71,3.71,0,0,0,0-3.92,1.92,1.92,0,0,0-1.57-.7,1.87,1.87,0,0,0-1.56.7A3.11,3.11,0,0,0,90.6,192.79Z"/><path d="M102,195.85l-1.33-4.08c-.09-.28-.2-.69-.34-1.22h0l-.12.41-.25.82-1.36,4.07H98l-1.75-6.1h.6l1,3.53c.22.88.37,1.52.45,1.93h0q.33-1.31.48-1.74l1.26-3.72h.51l1.19,3.71c.27.88.44,1.46.5,1.74h0q0-.36.45-1.95l.93-3.5h.56l-1.65,6.1Z"/><path d="M109.13,195.85l-.14-1h0a2.91,2.91,0,0,1-1,.84,2.54,2.54,0,0,1-1.15.24,2,2,0,0,1-1.39-.46,1.62,1.62,0,0,1-.5-1.27,1.56,1.56,0,0,1,.74-1.39,4,4,0,0,1,2.15-.52l1.17,0v-.4a2,2,0,0,0-.36-1.31,1.35,1.35,0,0,0-1.14-.45,3.83,3.83,0,0,0-1.75.47l-.21-.48a4.71,4.71,0,0,1,2-.47,2,2,0,0,1,1.5.52,2.3,2.3,0,0,1,.49,1.63v4.06Zm-2.24-.39a2.11,2.11,0,0,0,1.54-.56,2.06,2.06,0,0,0,.56-1.55v-.61l-1.06,0a4,4,0,0,0-1.84.4,1.17,1.17,0,0,0-.54,1.06,1.12,1.12,0,0,0,.35.89A1.42,1.42,0,0,0,106.89,195.46Z"/><path d="M115.78,195.85v-4a1.93,1.93,0,0,0-.39-1.34,1.56,1.56,0,0,0-1.2-.42,2.06,2.06,0,0,0-1.6.56,2.57,2.57,0,0,0-.51,1.79v3.37h-.56v-6.1H112l.11.83h0a2.32,2.32,0,0,1,2.12-1c1.38,0,2.08.74,2.08,2.23v4Z"/><path d="M120.77,196a2.66,2.66,0,0,1-2.08-.82,3.3,3.3,0,0,1-.74-2.29,3.56,3.56,0,0,1,.72-2.34,2.36,2.36,0,0,1,1.94-.88,2.1,2.1,0,0,1,1.7.75,3.12,3.12,0,0,1,.62,2v.45h-4.4a2.91,2.91,0,0,0,.59,1.92,2,2,0,0,0,1.65.67,5,5,0,0,0,.92-.08,5.67,5.67,0,0,0,1-.31v.5a4.18,4.18,0,0,1-1,.31A5.86,5.86,0,0,1,120.77,196Zm-.16-5.84a1.87,1.87,0,0,0-1.42.58,2.79,2.79,0,0,0-.62,1.68h3.77a2.64,2.64,0,0,0-.46-1.66A1.52,1.52,0,0,0,120.61,190.12Z"/><path d="M17.87,209.76a2.22,2.22,0,0,1-2.05-1h0v.47c0,.28,0,.58,0,.91v2.32h-.56v-8.86h.47l.11.87h0a2.21,2.21,0,0,1,2-1,2.28,2.28,0,0,1,1.89.81,3.73,3.73,0,0,1,.64,2.36,3.54,3.54,0,0,1-.68,2.33A2.25,2.25,0,0,1,17.87,209.76Zm0-.49a1.69,1.69,0,0,0,1.45-.7,3.23,3.23,0,0,0,.51-1.95c0-1.79-.64-2.69-1.94-2.69a1.93,1.93,0,0,0-1.56.59,2.89,2.89,0,0,0-.5,1.91v.18a3.38,3.38,0,0,0,.48,2A1.89,1.89,0,0,0,17.86,209.27Z"/><path d="M24.51,203.43a4.15,4.15,0,0,1,.83.08l-.11.53a3.42,3.42,0,0,0-.79-.1,1.54,1.54,0,0,0-1.28.67,2.72,2.72,0,0,0-.5,1.67v3.37H22.1v-6.1h.48l.05,1.1h0a2.62,2.62,0,0,1,.8-1A1.92,1.92,0,0,1,24.51,203.43Z"/><path d="M30.38,209.65H26v-.35L29.64,204H26.28v-.49h4.08v.35l-3.64,5.26h3.66Z"/><path d="M34.35,209.76a2.66,2.66,0,0,1-2.08-.82,3.25,3.25,0,0,1-.74-2.29,3.56,3.56,0,0,1,.72-2.34,2.34,2.34,0,0,1,1.93-.88,2.08,2.08,0,0,1,1.7.75,3.07,3.07,0,0,1,.63,2v.45h-4.4a2.86,2.86,0,0,0,.59,1.92,2,2,0,0,0,1.65.67,4.89,4.89,0,0,0,.91-.08,5.74,5.74,0,0,0,1-.31v.5a4.42,4.42,0,0,1-1,.31A5.64,5.64,0,0,1,34.35,209.76Zm-.17-5.84a1.83,1.83,0,0,0-1.41.58,2.74,2.74,0,0,0-.63,1.68h3.78a2.71,2.71,0,0,0-.46-1.66A1.52,1.52,0,0,0,34.18,203.92Z"/><path d="M42,209.65H37.63v-.35L41.25,204H37.89v-.49H42v.35l-3.65,5.26H42Z"/><path d="M46.4,201.85q0-.54.36-.54a.33.33,0,0,1,.27.14.74.74,0,0,1,.1.4.76.76,0,0,1-.1.4.31.31,0,0,1-.27.14Q46.4,202.39,46.4,201.85Zm.64,7.8h-.56v-6.1H47Z"/><path d="M53.34,209.65v-4a1.93,1.93,0,0,0-.39-1.34,1.56,1.56,0,0,0-1.2-.42,2.1,2.1,0,0,0-1.61.56,2.57,2.57,0,0,0-.5,1.79v3.37h-.56v-6.1h.47l.11.83h0a2.31,2.31,0,0,1,2.12-.95c1.38,0,2.08.74,2.08,2.23v4Z"/><path d="M58.1,203.43a2.52,2.52,0,0,1,1.14.24,2.27,2.27,0,0,1,.87.83h0c0-.48,0-.94,0-1.39v-2.2h.55v8.74h-.37l-.14-.93h0a2.28,2.28,0,0,1-2,1,2.4,2.4,0,0,1-1.93-.78,3.45,3.45,0,0,1-.67-2.3,3.85,3.85,0,0,1,.66-2.42A2.34,2.34,0,0,1,58.1,203.43Zm0,.5a1.73,1.73,0,0,0-1.5.7,3.45,3.45,0,0,0-.51,2c0,1.73.68,2.6,2,2.6a1.85,1.85,0,0,0,1.52-.6,3.21,3.21,0,0,0,.48-2v-.09a3.4,3.4,0,0,0-.48-2A1.8,1.8,0,0,0,58.1,203.93Z"/><path d="M61.69,203.55h.57L63.55,207q.58,1.58.75,2.13h0c.16-.48.41-1.2.77-2.16l1.29-3.39H67l-2.73,7.09a5.84,5.84,0,0,1-.56,1.17,1.47,1.47,0,0,1-.52.45,1.61,1.61,0,0,1-.73.15,2.45,2.45,0,0,1-.71-.12v-.48a2.63,2.63,0,0,0,.7.09,1,1,0,0,0,.51-.13,1.33,1.33,0,0,0,.39-.42,5,5,0,0,0,.41-.9c.16-.41.26-.68.3-.8Z"/><path d="M72.87,209.65l-1.34-4.08c-.09-.28-.2-.69-.33-1.22h0l-.11.41-.26.82-1.36,4.07h-.55l-1.74-6.1h.59l1,3.53c.23.88.38,1.52.45,1.93h0c.22-.87.39-1.45.49-1.74l1.25-3.72h.51l1.2,3.71c.27.88.43,1.46.49,1.74h0q0-.36.45-1.95l.94-3.5h.56l-1.66,6.1Z"/><path d="M76.22,201.85q0-.54.36-.54a.33.33,0,0,1,.27.14.66.66,0,0,1,.1.4.68.68,0,0,1-.1.4.31.31,0,0,1-.27.14Q76.22,202.39,76.22,201.85Zm.64,7.8H76.3v-6.1h.56Z"/><path d="M81.14,203.43a2.52,2.52,0,0,1,1.14.24,2.35,2.35,0,0,1,.87.83h0c0-.48,0-.94,0-1.39v-2.2h.55v8.74h-.37l-.14-.93h0a2.28,2.28,0,0,1-2,1,2.4,2.4,0,0,1-1.93-.78,3.45,3.45,0,0,1-.67-2.3,3.85,3.85,0,0,1,.66-2.42A2.32,2.32,0,0,1,81.14,203.43Zm0,.5a1.76,1.76,0,0,0-1.51.7,3.53,3.53,0,0,0-.5,2c0,1.73.67,2.6,2,2.6a1.81,1.81,0,0,0,1.51-.6,3.14,3.14,0,0,0,.49-2v-.09a3.4,3.4,0,0,0-.48-2A1.81,1.81,0,0,0,81.14,203.93Z"/><path d="M86.23,203.55v3.95a1.93,1.93,0,0,0,.39,1.34,1.56,1.56,0,0,0,1.2.42,2.11,2.11,0,0,0,1.6-.55,2.6,2.6,0,0,0,.52-1.79v-3.37h.55v6.1H90l-.1-.84h0a2.31,2.31,0,0,1-2.12.95c-1.39,0-2.08-.74-2.08-2.23v-4Z"/><path d="M96.24,209.65l-.14-1h0a2.91,2.91,0,0,1-1,.84,2.52,2.52,0,0,1-1.14.24,2,2,0,0,1-1.4-.46,1.62,1.62,0,0,1-.5-1.27,1.58,1.58,0,0,1,.74-1.39,4.09,4.09,0,0,1,2.16-.52l1.16,0v-.4a2,2,0,0,0-.36-1.31,1.35,1.35,0,0,0-1.14-.45,3.83,3.83,0,0,0-1.75.47l-.21-.48a4.71,4.71,0,0,1,2-.47,2,2,0,0,1,1.5.52,2.3,2.3,0,0,1,.5,1.63v4.06ZM94,209.26a2.09,2.09,0,0,0,1.54-.56,2.07,2.07,0,0,0,.57-1.55v-.61l-1.07.05a3.93,3.93,0,0,0-1.83.4,1.15,1.15,0,0,0-.55,1.06,1.12,1.12,0,0,0,.35.89A1.42,1.42,0,0,0,94,209.26Z"/><path d="M99.18,209.65h-.56v-8.74h.56Z"/><path d="M105.48,209.65v-4a1.93,1.93,0,0,0-.39-1.34,1.56,1.56,0,0,0-1.2-.42,2.07,2.07,0,0,0-1.6.56,2.57,2.57,0,0,0-.51,1.79v3.37h-.56v-6.1h.47l.11.83h0a2.32,2.32,0,0,1,2.12-.95c1.39,0,2.08.74,2.08,2.23v4Z"/><path d="M110.47,209.76a2.62,2.62,0,0,1-2.07-.82,3.26,3.26,0,0,1-.75-2.29,3.56,3.56,0,0,1,.72-2.34,2.37,2.37,0,0,1,1.94-.88,2.1,2.1,0,0,1,1.7.75,3.12,3.12,0,0,1,.62,2v.45h-4.39a2.86,2.86,0,0,0,.58,1.92,2.06,2.06,0,0,0,1.65.67,4.92,4.92,0,0,0,.92-.08,5.67,5.67,0,0,0,1-.31v.5a4.18,4.18,0,0,1-1,.31A5.86,5.86,0,0,1,110.47,209.76Zm-.16-5.84a1.87,1.87,0,0,0-1.42.58,2.79,2.79,0,0,0-.62,1.68H112a2.64,2.64,0,0,0-.46-1.66A1.5,1.5,0,0,0,110.31,203.92Z"/><path d="M20.31,220.39a3.42,3.42,0,0,1-.73,2.33,2.5,2.5,0,0,1-2,.84,2.58,2.58,0,0,1-1.41-.39,2.46,2.46,0,0,1-.94-1.11,4,4,0,0,1-.32-1.67,3.46,3.46,0,0,1,.72-2.33,2.52,2.52,0,0,1,2-.83,2.45,2.45,0,0,1,2,.84A3.48,3.48,0,0,1,20.31,220.39Zm-4.82,0a3.09,3.09,0,0,0,.55,2,1.88,1.88,0,0,0,1.57.71,1.88,1.88,0,0,0,1.56-.71,3.77,3.77,0,0,0,0-3.92,1.9,1.9,0,0,0-1.57-.7,1.84,1.84,0,0,0-1.56.7A3,3,0,0,0,15.49,220.39Z"/><path d="M25.78,221.86a1.45,1.45,0,0,1-.62,1.26,3,3,0,0,1-1.77.44,4.21,4.21,0,0,1-1.94-.37v-.61a4.23,4.23,0,0,0,1.94.46,2.55,2.55,0,0,0,1.37-.3.89.89,0,0,0,.47-.8,1,1,0,0,0-.37-.77,4.07,4.07,0,0,0-1.23-.62,6.6,6.6,0,0,1-1.28-.57,1.71,1.71,0,0,1-.56-.54,1.3,1.3,0,0,1-.19-.73,1.24,1.24,0,0,1,.57-1.08,2.78,2.78,0,0,1,1.61-.4,4.78,4.78,0,0,1,1.88.37l-.21.5a4.52,4.52,0,0,0-1.67-.37,2.46,2.46,0,0,0-1.18.25.76.76,0,0,0-.44.69.94.94,0,0,0,.34.76,4.94,4.94,0,0,0,1.33.64,6.5,6.5,0,0,1,1.2.54,1.62,1.62,0,0,1,.56.54A1.28,1.28,0,0,1,25.78,221.86Z"/><path d="M32.4,220.39a3.47,3.47,0,0,1-.72,2.33,2.5,2.5,0,0,1-2,.84,2.59,2.59,0,0,1-1.42-.39,2.44,2.44,0,0,1-.93-1.11,4,4,0,0,1-.33-1.67,3.41,3.41,0,0,1,.73-2.33,2.77,2.77,0,0,1,4,0A3.53,3.53,0,0,1,32.4,220.39Zm-4.81,0a3.09,3.09,0,0,0,.55,2,2.08,2.08,0,0,0,3.13,0,3.15,3.15,0,0,0,.55-2,3.07,3.07,0,0,0-.56-2,1.89,1.89,0,0,0-1.57-.7,1.87,1.87,0,0,0-1.56.7A3.11,3.11,0,0,0,27.59,220.39Z"/><path d="M36.67,217.23a2.35,2.35,0,0,1,1.93.8,3.73,3.73,0,0,1,.65,2.36,3.63,3.63,0,0,1-.68,2.35,2.36,2.36,0,0,1-1.92.82,2.53,2.53,0,0,1-1.18-.27,2.07,2.07,0,0,1-.82-.76h0l-.16.92h-.35v-8.74h.56v2.2c0,.33,0,.63,0,.91l0,.47h0a2.21,2.21,0,0,1,.84-.8A2.42,2.42,0,0,1,36.67,217.23Zm0,.5a1.81,1.81,0,0,0-1.54.62,3.37,3.37,0,0,0-.47,2v.09a3.21,3.21,0,0,0,.48,2,1.85,1.85,0,0,0,1.52.6,1.74,1.74,0,0,0,1.5-.7,3.34,3.34,0,0,0,.51-2C38.66,218.61,38,217.73,36.66,217.73Z"/><path d="M39.92,217.35h.57l1.29,3.42q.59,1.57.75,2.13h0c.16-.48.41-1.2.77-2.16l1.29-3.39h.57l-2.73,7.09a5.84,5.84,0,0,1-.56,1.17,1.47,1.47,0,0,1-.52.45,1.61,1.61,0,0,1-.73.15,2.45,2.45,0,0,1-.71-.12v-.48a2.63,2.63,0,0,0,.7.09,1,1,0,0,0,.51-.13,1.33,1.33,0,0,0,.39-.42,5,5,0,0,0,.41-.9c.16-.41.26-.68.3-.8Z"/><path d="M46.85,222.11l.07.12a18.84,18.84,0,0,1-1,2.7h-.36a23.4,23.4,0,0,0,.61-2.82Z"/><path d="M52.22,220.77l3.12-3.42H56l-2.4,2.6,2.61,3.5h-.67l-2.32-3.08-1,.91v2.17h-.56v-8.74h.56v4.38l0,1.68Z"/><path d="M58.85,223.07a4.15,4.15,0,0,0,.92-.09v.45a2.94,2.94,0,0,1-.93.13,1.49,1.49,0,0,1-1.19-.43,2,2,0,0,1-.39-1.36v-3.94h-.9v-.33l.9-.25.28-1.38h.29v1.48h1.79v.48H57.83v3.86a1.71,1.71,0,0,0,.25,1A.87.87,0,0,0,58.85,223.07Z"/><path d="M66.14,220.39a3.47,3.47,0,0,1-.72,2.33,2.51,2.51,0,0,1-2,.84,2.59,2.59,0,0,1-1.42-.39,2.46,2.46,0,0,1-.94-1.11,4.15,4.15,0,0,1-.32-1.67,3.46,3.46,0,0,1,.72-2.33,2.52,2.52,0,0,1,2-.83,2.44,2.44,0,0,1,2,.84A3.48,3.48,0,0,1,66.14,220.39Zm-4.82,0a3.15,3.15,0,0,0,.55,2,2.08,2.08,0,0,0,3.13,0,3.71,3.71,0,0,0,0-3.92,1.9,1.9,0,0,0-1.57-.7,1.84,1.84,0,0,0-1.56.7A3,3,0,0,0,61.32,220.39Zm1.55-4c.27-.3.55-.62.81-1a7,7,0,0,0,.55-.79H65v.09a5,5,0,0,1-.69.78c-.32.32-.68.65-1.07,1h-.39Z"/><path d="M70.23,217.23a4.08,4.08,0,0,1,.83.08l-.1.53a3.49,3.49,0,0,0-.79-.1,1.54,1.54,0,0,0-1.29.67,2.71,2.71,0,0,0-.49,1.67v3.37h-.56v-6.1h.47l.06,1.1h0a2.62,2.62,0,0,1,.8-.95A1.88,1.88,0,0,1,70.23,217.23Z"/><path d="M71.28,217.35h.58l1.29,3.42c.39,1,.64,1.76.74,2.13h0c.15-.48.41-1.2.77-2.16L76,217.35h.57l-2.73,7.09a5.84,5.84,0,0,1-.56,1.17,1.47,1.47,0,0,1-.52.45,1.64,1.64,0,0,1-.73.15,2.52,2.52,0,0,1-.72-.12v-.48a2.71,2.71,0,0,0,.71.09.91.91,0,0,0,.5-.13,1.25,1.25,0,0,0,.4-.42,5.8,5.8,0,0,0,.41-.9c.15-.41.25-.68.3-.8Z"/><path d="M85.21,223.45v-4a2,2,0,0,0-.35-1.31,1.34,1.34,0,0,0-1.07-.41,1.75,1.75,0,0,0-1.38.52,2.41,2.41,0,0,0-.45,1.62v3.58h-.57v-4.17c0-1-.47-1.55-1.42-1.55a1.66,1.66,0,0,0-1.39.56,2.86,2.86,0,0,0-.44,1.79v3.37h-.56v-6.1H78l.12.83h0a1.74,1.74,0,0,1,.72-.7,2.12,2.12,0,0,1,1-.25,1.75,1.75,0,0,1,1.85,1.08h0a2,2,0,0,1,.8-.8,2.24,2.24,0,0,1,1.14-.28,2,2,0,0,1,1.5.53,2.45,2.45,0,0,1,.5,1.7v4Z"/><path d="M94.52,223.45H90.16v-.35l3.62-5.26H90.42v-.49h4.09v.35L90.86,223h3.66Z"/><path d="M99.73,223.45l-.14-1h0a2.88,2.88,0,0,1-.94.84,2.6,2.6,0,0,1-1.15.24,2,2,0,0,1-1.4-.46,1.66,1.66,0,0,1-.5-1.27,1.57,1.57,0,0,1,.75-1.39,4,4,0,0,1,2.15-.52l1.16,0v-.4a2.09,2.09,0,0,0-.35-1.31,1.37,1.37,0,0,0-1.14-.45,3.87,3.87,0,0,0-1.76.47l-.21-.48a4.71,4.71,0,0,1,2-.47,2,2,0,0,1,1.5.52,2.3,2.3,0,0,1,.5,1.63v4.06Zm-2.25-.39A2,2,0,0,0,99.59,221v-.61l-1.07,0a3.93,3.93,0,0,0-1.83.4,1.3,1.3,0,0,0-.2,2A1.45,1.45,0,0,0,97.48,223.06Z"/><path d="M102.67,223.45h-.55v-8.74h.55Z"/><path d="M107.18,223.56a2.62,2.62,0,0,1-2.07-.82,3.26,3.26,0,0,1-.75-2.29,3.56,3.56,0,0,1,.72-2.34,2.37,2.37,0,0,1,1.94-.88,2.1,2.1,0,0,1,1.7.75,3.12,3.12,0,0,1,.62,2v.45H105a2.86,2.86,0,0,0,.58,1.92,2.1,2.1,0,0,0,1.65.67,4.92,4.92,0,0,0,.92-.08,5.67,5.67,0,0,0,1-.31v.5a4.18,4.18,0,0,1-.95.31A5.86,5.86,0,0,1,107.18,223.56Zm-.16-5.84a1.87,1.87,0,0,0-1.42.58A2.79,2.79,0,0,0,105,220h3.77a2.64,2.64,0,0,0-.46-1.66A1.5,1.5,0,0,0,107,217.72Z"/><path d="M114.82,223.45h-4.35v-.35l3.62-5.26h-3.36v-.49h4.08v.35L111.17,223h3.65Zm-2.42-7.8q0-.54.36-.54a.33.33,0,0,1,.27.14.74.74,0,0,1,.09.4.76.76,0,0,1-.09.4.31.31,0,0,1-.27.14Q112.4,216.19,112.4,215.65Z"/><path d="M115.31,217.35h.57l1.29,3.42q.58,1.57.75,2.13h0c.16-.48.41-1.2.77-2.16l1.29-3.39h.57l-2.73,7.09a5.84,5.84,0,0,1-.56,1.17,1.47,1.47,0,0,1-.52.45,1.61,1.61,0,0,1-.73.15,2.45,2.45,0,0,1-.71-.12v-.48a2.63,2.63,0,0,0,.7.09,1,1,0,0,0,.51-.13,1.33,1.33,0,0,0,.39-.42,5,5,0,0,0,.41-.9c.16-.41.26-.68.3-.8Z"/><path d="M128.85,223.45v-4a1.93,1.93,0,0,0-.39-1.34,1.56,1.56,0,0,0-1.2-.42,2.07,2.07,0,0,0-1.6.56,2.57,2.57,0,0,0-.51,1.79v3.37h-.56v-6.1h.48l.1.83h0a2.29,2.29,0,0,1,2.11-1c1.39,0,2.08.74,2.08,2.23v4Z"/><path d="M135.08,223.45l-.14-1h0a3,3,0,0,1-1,.84,2.57,2.57,0,0,1-1.15.24,2,2,0,0,1-1.4-.46,1.65,1.65,0,0,1-.49-1.27,1.56,1.56,0,0,1,.74-1.39,4,4,0,0,1,2.15-.52l1.16,0v-.4a2,2,0,0,0-.35-1.31,1.35,1.35,0,0,0-1.14-.45,3.9,3.9,0,0,0-1.76.47l-.2-.48a4.7,4.7,0,0,1,2-.47,2,2,0,0,1,1.51.52,2.3,2.3,0,0,1,.49,1.63v4.06Zm-2.24-.39a1.94,1.94,0,0,0,2.1-2.11v-.61l-1.06,0a4,4,0,0,0-1.84.4,1.17,1.17,0,0,0-.55,1.06,1.12,1.12,0,0,0,.36.89A1.42,1.42,0,0,0,132.84,223.06Z"/><path d="M17.49,231a2.54,2.54,0,0,1,1.15.24,2.39,2.39,0,0,1,.87.82h0q0-.71,0-1.38v-2.2h.54v8.74h-.36l-.14-.93h0a2.29,2.29,0,0,1-2,1,2.42,2.42,0,0,1-1.94-.78,3.5,3.5,0,0,1-.66-2.3,3.85,3.85,0,0,1,.66-2.42A2.32,2.32,0,0,1,17.49,231Zm0,.5a1.75,1.75,0,0,0-1.5.7,3.53,3.53,0,0,0-.5,2c0,1.73.67,2.6,2,2.6a1.83,1.83,0,0,0,1.51-.6,3.2,3.2,0,0,0,.49-2v-.09a3.4,3.4,0,0,0-.48-2A1.83,1.83,0,0,0,17.49,231.53Z"/><path d="M27.15,234.19a3.47,3.47,0,0,1-.72,2.33,2.5,2.5,0,0,1-2,.84A2.59,2.59,0,0,1,23,237a2.44,2.44,0,0,1-.93-1.11,4,4,0,0,1-.33-1.67,3.46,3.46,0,0,1,.72-2.33,2.53,2.53,0,0,1,2-.83,2.47,2.47,0,0,1,2,.84A3.53,3.53,0,0,1,27.15,234.19Zm-4.82,0a3.09,3.09,0,0,0,.56,2,2.08,2.08,0,0,0,3.13,0,3.15,3.15,0,0,0,.55-2,3.07,3.07,0,0,0-.56-2,1.89,1.89,0,0,0-1.57-.7,1.87,1.87,0,0,0-1.56.7A3.11,3.11,0,0,0,22.33,234.19Z"/><path d="M31.42,231a2.35,2.35,0,0,1,1.93.8,3.73,3.73,0,0,1,.65,2.36,3.63,3.63,0,0,1-.68,2.35,2.36,2.36,0,0,1-1.92.82,2.53,2.53,0,0,1-1.18-.27,2.07,2.07,0,0,1-.82-.76h0l-.16.92h-.35v-8.74h.56v2.2c0,.33,0,.63,0,.91l0,.47h0a2.21,2.21,0,0,1,.84-.8A2.42,2.42,0,0,1,31.42,231Zm0,.5a1.83,1.83,0,0,0-1.55.62,3.45,3.45,0,0,0-.46,2v.09a3.21,3.21,0,0,0,.48,2,1.85,1.85,0,0,0,1.52.6,1.74,1.74,0,0,0,1.5-.7,3.34,3.34,0,0,0,.51-2C33.41,232.41,32.74,231.53,31.41,231.53Z"/><path d="M38.09,231a4.08,4.08,0,0,1,.83.08l-.11.53a3.35,3.35,0,0,0-.79-.1,1.53,1.53,0,0,0-1.28.67,2.72,2.72,0,0,0-.5,1.67v3.37h-.55v-6.1h.47l.05,1.1h0a2.63,2.63,0,0,1,.81-.95A1.88,1.88,0,0,1,38.09,231Z"/><path d="M40.65,231.15v3.95a1.93,1.93,0,0,0,.38,1.34,1.56,1.56,0,0,0,1.2.42,2.13,2.13,0,0,0,1.61-.55,2.62,2.62,0,0,0,.51-1.8v-3.36h.55v6.1h-.47l-.1-.84h0a2.32,2.32,0,0,1-2.12,1c-1.39,0-2.08-.74-2.08-2.23v-4Z"/><path d="M53.72,235.66a1.44,1.44,0,0,1-.63,1.26,3,3,0,0,1-1.76.44,4.26,4.26,0,0,1-1.95-.37v-.61a4.27,4.27,0,0,0,1.95.46,2.55,2.55,0,0,0,1.37-.3.91.91,0,0,0,.47-.8,1,1,0,0,0-.38-.77,3.87,3.87,0,0,0-1.22-.62,7.08,7.08,0,0,1-1.29-.57,1.82,1.82,0,0,1-.56-.54,1.39,1.39,0,0,1-.19-.73,1.25,1.25,0,0,1,.58-1.08,2.76,2.76,0,0,1,1.61-.4,4.73,4.73,0,0,1,1.87.37l-.2.5a4.56,4.56,0,0,0-1.67-.37,2.51,2.51,0,0,0-1.19.25.74.74,0,0,0-.43.68,1,1,0,0,0,.34.77,4.84,4.84,0,0,0,1.32.64,7,7,0,0,1,1.21.54,1.71,1.71,0,0,1,.56.54A1.28,1.28,0,0,1,53.72,235.66Z"/><path d="M57.9,237.36a2.22,2.22,0,0,1-2-1.05h0v.47c0,.27,0,.58,0,.91V240h-.56v-8.86h.47l.11.87h0a2.21,2.21,0,0,1,2-1,2.28,2.28,0,0,1,1.89.81,3.73,3.73,0,0,1,.65,2.36,3.54,3.54,0,0,1-.69,2.33A2.28,2.28,0,0,1,57.9,237.36Zm0-.49a1.7,1.7,0,0,0,1.45-.7,3.23,3.23,0,0,0,.52-1.95c0-1.79-.65-2.69-2-2.69a1.93,1.93,0,0,0-1.56.59,2.89,2.89,0,0,0-.5,1.91v.18a3.32,3.32,0,0,0,.48,2A1.86,1.86,0,0,0,57.89,236.87Z"/><path d="M67.18,234.19a3.47,3.47,0,0,1-.72,2.33,2.5,2.5,0,0,1-2,.84,2.53,2.53,0,0,1-1.41-.39,2.4,2.4,0,0,1-.94-1.11,4,4,0,0,1-.33-1.67,3.41,3.41,0,0,1,.73-2.33,2.77,2.77,0,0,1,4,0A3.48,3.48,0,0,1,67.18,234.19Zm-4.81,0a3.09,3.09,0,0,0,.55,2,2.08,2.08,0,0,0,3.13,0,3.74,3.74,0,0,0,0-3.92,2.1,2.1,0,0,0-3.13,0A3.11,3.11,0,0,0,62.37,234.19Z"/><path d="M69.43,232.66l.86-.58.24.4-1.1.73v4h-.56v-3.67l-.72.49-.25-.41,1-.65v-4.5h.56Z"/><path d="M73.94,237.36a2.66,2.66,0,0,1-2.08-.82,3.3,3.3,0,0,1-.74-2.29,3.56,3.56,0,0,1,.72-2.34,2.36,2.36,0,0,1,1.94-.88,2.11,2.11,0,0,1,1.7.75,3.12,3.12,0,0,1,.62,2v.45H71.7a2.91,2.91,0,0,0,.59,1.92,2.07,2.07,0,0,0,1.65.67,5,5,0,0,0,.92-.08,5.94,5.94,0,0,0,1-.31v.5a4.25,4.25,0,0,1-1,.31A5.64,5.64,0,0,1,73.94,237.36Zm-.16-5.84a1.83,1.83,0,0,0-1.42.58,2.79,2.79,0,0,0-.62,1.68h3.77a2.64,2.64,0,0,0-.46-1.66A1.52,1.52,0,0,0,73.78,231.52Z"/><path d="M80.22,237.36a2.62,2.62,0,0,1-2-.82,3.36,3.36,0,0,1-.74-2.31,3.4,3.4,0,0,1,.77-2.36,2.72,2.72,0,0,1,2.11-.84,4.29,4.29,0,0,1,1.51.27l-.15.5a4.39,4.39,0,0,0-1.37-.27,2.09,2.09,0,0,0-1.71.7,3,3,0,0,0-.58,2,3,3,0,0,0,.58,1.94,2,2,0,0,0,1.62.7,4,4,0,0,0,1.55-.3v.52A3.56,3.56,0,0,1,80.22,237.36Z"/><path d="M87.05,237.25H82.69v-.35l3.62-5.26H83v-.49H87v.35l-3.64,5.25h3.66Z"/><path d="M92.81,237.25v-4a1.93,1.93,0,0,0-.39-1.34,1.56,1.56,0,0,0-1.2-.42,2.1,2.1,0,0,0-1.61.56,2.57,2.57,0,0,0-.5,1.79v3.37h-.56v-6.1H89l.11.83h0a2.31,2.31,0,0,1,2.12-.95c1.38,0,2.08.74,2.08,2.23v4Z"/><path d="M100.38,234.19a3.47,3.47,0,0,1-.72,2.33,2.51,2.51,0,0,1-2,.84,2.59,2.59,0,0,1-1.42-.39,2.46,2.46,0,0,1-.94-1.11,4.15,4.15,0,0,1-.32-1.67,3.46,3.46,0,0,1,.72-2.33,2.53,2.53,0,0,1,2-.83,2.47,2.47,0,0,1,2,.84A3.53,3.53,0,0,1,100.38,234.19Zm-4.82,0a3.09,3.09,0,0,0,.56,2,2.07,2.07,0,0,0,3.12,0,3.71,3.71,0,0,0,0-3.92,1.89,1.89,0,0,0-1.57-.7,1.86,1.86,0,0,0-1.56.7A3.11,3.11,0,0,0,95.56,234.19Z"/><path d="M105.86,235.66a1.44,1.44,0,0,1-.63,1.26,3,3,0,0,1-1.77.44,4.24,4.24,0,0,1-1.94-.37v-.61a4.23,4.23,0,0,0,1.94.46,2.59,2.59,0,0,0,1.38-.3.9.9,0,0,0,.46-.8,1,1,0,0,0-.37-.77,4.12,4.12,0,0,0-1.22-.62,6.76,6.76,0,0,1-1.29-.57,1.82,1.82,0,0,1-.56-.54,1.3,1.3,0,0,1-.19-.73,1.23,1.23,0,0,1,.58-1.08,2.76,2.76,0,0,1,1.61-.4,4.73,4.73,0,0,1,1.87.37l-.21.5a4.51,4.51,0,0,0-1.66-.37,2.48,2.48,0,0,0-1.19.25.75.75,0,0,0-.44.68,1,1,0,0,0,.34.77,4.94,4.94,0,0,0,1.33.64,6.5,6.5,0,0,1,1.2.54,1.75,1.75,0,0,1,.57.54A1.37,1.37,0,0,1,105.86,235.66ZM103,230.19q.41-.45.81-1a7,7,0,0,0,.55-.79h.79v.09a5,5,0,0,1-.69.78c-.32.32-.68.65-1.07,1H103Z"/><path d="M109.86,237.36a2.62,2.62,0,0,1-2-.82,3.36,3.36,0,0,1-.74-2.31,3.4,3.4,0,0,1,.77-2.36A2.73,2.73,0,0,1,110,231a4.25,4.25,0,0,1,1.51.27l-.15.5a4.29,4.29,0,0,0-1.37-.27,2.06,2.06,0,0,0-1.7.7,3,3,0,0,0-.58,2,2.94,2.94,0,0,0,.58,1.94,2,2,0,0,0,1.61.7,4,4,0,0,0,1.55-.3v.52A3.53,3.53,0,0,1,109.86,237.36Z"/><path d="M112.81,229.45q0-.54.36-.54a.33.33,0,0,1,.27.14.74.74,0,0,1,.1.4.76.76,0,0,1-.1.4.31.31,0,0,1-.27.14Q112.81,230,112.81,229.45Zm.64,7.8h-.56v-6.1h.56Z"/><path d="M116.13,235.91l.06.12a18.85,18.85,0,0,1-1,2.7h-.37a23.58,23.58,0,0,0,.62-2.82Z"/><path d="M125.83,237.25l-1.34-4.08c-.08-.28-.19-.69-.33-1.22h0l-.12.41-.25.82-1.36,4.07h-.55l-1.75-6.1h.6l1,3.53c.23.88.38,1.52.45,1.93h0q.33-1.31.48-1.74l1.26-3.72h.5l1.2,3.71c.27.88.43,1.46.49,1.74h0q0-.36.45-1.95l.93-3.5h.56l-1.66,6.1Z"/><path d="M15.8,248.37,18.92,245h.67l-2.4,2.6,2.61,3.5h-.67L16.81,248l-1,.91v2.17h-.56v-8.74h.56v4.38l0,1.68Z"/><path d="M22.44,250.67a4.22,4.22,0,0,0,.92-.09V251a3,3,0,0,1-.94.13,1.51,1.51,0,0,1-1.19-.43,2,2,0,0,1-.38-1.36v-3.94h-.91v-.33l.91-.25.28-1.38h.28V245h1.8v.48h-1.8v3.86a1.79,1.79,0,0,0,.25,1A.89.89,0,0,0,22.44,250.67Z"/><path d="M29.72,248a3.46,3.46,0,0,1-.72,2.33,2.5,2.5,0,0,1-2,.84,2.55,2.55,0,0,1-1.41-.39,2.4,2.4,0,0,1-.94-1.11,4,4,0,0,1-.33-1.67,3.41,3.41,0,0,1,.73-2.33,2.77,2.77,0,0,1,4,0A3.48,3.48,0,0,1,29.72,248Zm-4.81,0a3.09,3.09,0,0,0,.55,2,2.08,2.08,0,0,0,3.13,0,3.74,3.74,0,0,0,0-3.92,1.9,1.9,0,0,0-1.57-.7,1.87,1.87,0,0,0-1.56.7A3.11,3.11,0,0,0,24.91,248Zm1.55-4q.41-.44.81-1a7,7,0,0,0,.55-.79h.79v.09a6.4,6.4,0,0,1-.69.78c-.33.32-.68.65-1.07,1h-.39Z"/><path d="M33.82,244.83a4.15,4.15,0,0,1,.83.08l-.11.53a3.42,3.42,0,0,0-.79-.1,1.54,1.54,0,0,0-1.28.67,2.72,2.72,0,0,0-.5,1.67v3.37h-.56V245h.48l.05,1.1h0a2.62,2.62,0,0,1,.8-1A1.92,1.92,0,0,1,33.82,244.83Z"/><path d="M38.35,251.16a2.65,2.65,0,0,1-2.07-.82,3.25,3.25,0,0,1-.74-2.29,3.61,3.61,0,0,1,.71-2.34,2.37,2.37,0,0,1,1.94-.88,2.08,2.08,0,0,1,1.7.75,3.07,3.07,0,0,1,.63,2v.45h-4.4a2.86,2.86,0,0,0,.59,1.92,2,2,0,0,0,1.64.67,4.92,4.92,0,0,0,.92-.08,4.75,4.75,0,0,0,1-.31v.5a4.18,4.18,0,0,1-1,.31A5.68,5.68,0,0,1,38.35,251.16Zm-.16-5.84a1.83,1.83,0,0,0-1.41.58,2.74,2.74,0,0,0-.63,1.68h3.78a2.71,2.71,0,0,0-.46-1.66A1.53,1.53,0,0,0,38.19,245.32Z"/><path d="M41.39,253.81a1.75,1.75,0,0,1-.76-.14v-.48a2.8,2.8,0,0,0,.72.11c.57,0,.85-.33.85-1V245h.56v7.28a1.71,1.71,0,0,1-.36,1.17A1.26,1.26,0,0,1,41.39,253.81Zm.73-10.56q0-.54.36-.54a.33.33,0,0,1,.27.14.85.85,0,0,1,0,.8.31.31,0,0,1-.27.14Q42.12,243.79,42.12,243.25Z"/><path d="M51.58,251.05H47.23v-.35l3.62-5.26H47.49V245h4.08v.35l-3.64,5.26h3.65Zm-2.42-7.8q0-.54.36-.54a.33.33,0,0,1,.27.14.93.93,0,0,1,0,.8.31.31,0,0,1-.27.14Q49.16,243.79,49.16,243.25Z"/><path d="M52.07,245h.57l1.29,3.42q.59,1.57.75,2.13h0c.16-.48.42-1.2.77-2.16L56.77,245h.57L54.61,252a5.84,5.84,0,0,1-.56,1.17,1.47,1.47,0,0,1-.52.45,1.61,1.61,0,0,1-.73.15,2.45,2.45,0,0,1-.71-.12v-.48a2.63,2.63,0,0,0,.7.09,1,1,0,0,0,.51-.13,1.33,1.33,0,0,0,.39-.42,5,5,0,0,0,.41-.9c.16-.41.26-.68.3-.8Z"/><path d="M57.55,253.81a1.68,1.68,0,0,1-.75-.14v-.48a2.68,2.68,0,0,0,.72.11c.56,0,.85-.33.85-1V245h.55v7.28a1.76,1.76,0,0,1-.35,1.17A1.26,1.26,0,0,1,57.55,253.81Zm.74-10.56c0-.36.12-.54.35-.54a.31.31,0,0,1,.27.14.85.85,0,0,1,0,.8.29.29,0,0,1-.27.14C58.41,243.79,58.29,243.61,58.29,243.25Z"/><path d="M64.28,252.44a.54.54,0,0,0,.6.62,1.27,1.27,0,0,0,.46-.07v.47a1.63,1.63,0,0,1-.59.09,1.09,1.09,0,0,1-.75-.26,1,1,0,0,1-.28-.76,1.56,1.56,0,0,1,.23-.78,2.75,2.75,0,0,1,.71-.77l-.13-.9h0a2.91,2.91,0,0,1-.95.84,2.54,2.54,0,0,1-1.15.24,2,2,0,0,1-1.4-.46,1.65,1.65,0,0,1-.49-1.27,1.56,1.56,0,0,1,.74-1.39,4,4,0,0,1,2.15-.52l1.16,0v-.4a2,2,0,0,0-.35-1.31,1.36,1.36,0,0,0-1.14-.45,3.9,3.9,0,0,0-1.76.47l-.2-.48a4.7,4.7,0,0,1,2-.47,2,2,0,0,1,1.51.52,2.3,2.3,0,0,1,.49,1.63v4.06a3.19,3.19,0,0,0-.6.67A1.34,1.34,0,0,0,64.28,252.44Zm-1.85-1.78a1.94,1.94,0,0,0,2.1-2.11v-.61l-1.07.05a4,4,0,0,0-1.83.4,1.17,1.17,0,0,0-.55,1.06,1.12,1.12,0,0,0,.36.89A1.42,1.42,0,0,0,62.43,250.66Z"/><path d="M67,250.61c0-.36.15-.55.45-.55s.46.19.46.55-.16.55-.46.55S67,251,67,250.61Z"/><path d="M77.45,248.93a2,2,0,0,1-.75,1.63,3.14,3.14,0,0,1-2,.6,6.35,6.35,0,0,1-2.31-.33v-.57a5.89,5.89,0,0,0,2.27.37,2.54,2.54,0,0,0,1.6-.46,1.47,1.47,0,0,0,.59-1.21,1.35,1.35,0,0,0-.2-.78,1.8,1.8,0,0,0-.64-.56,8.13,8.13,0,0,0-1.3-.54,4.41,4.41,0,0,1-1.74-.94,2,2,0,0,1,.25-2.84,2.88,2.88,0,0,1,1.85-.58,5.43,5.43,0,0,1,2.17.44l-.2.49a5.21,5.21,0,0,0-2-.42,2.31,2.31,0,0,0-1.45.42,1.37,1.37,0,0,0-.54,1.14,1.49,1.49,0,0,0,.17.75,1.52,1.52,0,0,0,.54.53,7.37,7.37,0,0,0,1.29.55,7.63,7.63,0,0,1,1.45.65,2.05,2.05,0,0,1,.7.71A1.88,1.88,0,0,1,77.45,248.93Z"/><path d="M82.75,251.05l-.14-1h0a2.91,2.91,0,0,1-.95.84,2.54,2.54,0,0,1-1.15.24,2,2,0,0,1-1.39-.46,1.62,1.62,0,0,1-.5-1.27,1.56,1.56,0,0,1,.74-1.39,4,4,0,0,1,2.15-.52l1.17,0v-.4a2,2,0,0,0-.36-1.31,1.35,1.35,0,0,0-1.14-.45,3.9,3.9,0,0,0-1.76.47l-.2-.48a4.7,4.7,0,0,1,2-.47,2,2,0,0,1,1.51.52,2.3,2.3,0,0,1,.49,1.63v4.06Zm-2.24-.39a1.94,1.94,0,0,0,2.1-2.11v-.61l-1.06.05a4,4,0,0,0-1.84.4,1.17,1.17,0,0,0-.54,1.06,1.12,1.12,0,0,0,.35.89A1.42,1.42,0,0,0,80.51,250.66Z"/><path d="M92.77,251.05v-4a2,2,0,0,0-.35-1.31,1.34,1.34,0,0,0-1.07-.41,1.77,1.77,0,0,0-1.39.52,2.43,2.43,0,0,0-.45,1.62v3.58H89v-4.17c0-1-.47-1.55-1.42-1.55a1.69,1.69,0,0,0-1.4.56,2.93,2.93,0,0,0-.43,1.79v3.37h-.56V245h.46l.12.83h0a1.74,1.74,0,0,1,.72-.7,2.09,2.09,0,0,1,1-.25,1.75,1.75,0,0,1,1.85,1.08h0a2.12,2.12,0,0,1,.8-.8,2.3,2.3,0,0,1,1.15-.28,2,2,0,0,1,1.5.53,2.45,2.45,0,0,1,.5,1.7v4Z"/><path d="M99.89,250.67a4.15,4.15,0,0,0,.92-.09V251a2.94,2.94,0,0,1-.93.13,1.49,1.49,0,0,1-1.19-.43,2,2,0,0,1-.39-1.36v-3.94h-.9v-.33l.9-.25.28-1.38h.29V245h1.79v.48H98.87v3.86a1.71,1.71,0,0,0,.25,1A.87.87,0,0,0,99.89,250.67Z"/><path d="M104.6,251.16a2.66,2.66,0,0,1-2.08-.82,3.3,3.3,0,0,1-.74-2.29,3.56,3.56,0,0,1,.72-2.34,2.35,2.35,0,0,1,1.93-.88,2.12,2.12,0,0,1,1.71.75,3.12,3.12,0,0,1,.62,2v.45h-4.4A2.91,2.91,0,0,0,103,250a2,2,0,0,0,1.65.67,5,5,0,0,0,.92-.08,5.13,5.13,0,0,0,1-.31v.5a4.25,4.25,0,0,1-1,.31A5.64,5.64,0,0,1,104.6,251.16Zm-.17-5.84a1.86,1.86,0,0,0-1.41.58,2.73,2.73,0,0,0-.62,1.68h3.77a2.64,2.64,0,0,0-.46-1.66A1.52,1.52,0,0,0,104.43,245.32Z"/><path d="M112.24,251.05h-4.36v-.35l3.62-5.26h-3.35V245h4.08v.35l-3.65,5.26h3.66Zm-2.43-7.8q0-.54.36-.54a.31.31,0,0,1,.27.14.85.85,0,0,1,0,.8.29.29,0,0,1-.27.14Q109.81,243.79,109.81,243.25Z"/><path d="M22.88,264.85v-4a2,2,0,0,0-.34-1.31,1.35,1.35,0,0,0-1.07-.41,1.76,1.76,0,0,0-1.39.52,2.43,2.43,0,0,0-.45,1.62v3.58h-.56v-4.17c0-1-.48-1.55-1.42-1.55a1.69,1.69,0,0,0-1.4.56,2.93,2.93,0,0,0-.43,1.79v3.37h-.56v-6.1h.46l.12.83h0a1.74,1.74,0,0,1,.72-.7,2.09,2.09,0,0,1,1-.25,1.75,1.75,0,0,1,1.85,1.08h0a2.12,2.12,0,0,1,.8-.8,2.3,2.3,0,0,1,1.15-.28,2,2,0,0,1,1.5.53,2.45,2.45,0,0,1,.5,1.7v4Z"/><path d="M30.46,261.79a3.46,3.46,0,0,1-.72,2.33,2.51,2.51,0,0,1-2,.84,2.59,2.59,0,0,1-1.42-.39,2.4,2.4,0,0,1-.94-1.11,4.15,4.15,0,0,1-.32-1.67,3.46,3.46,0,0,1,.72-2.33,2.53,2.53,0,0,1,2-.83,2.44,2.44,0,0,1,2,.84A3.48,3.48,0,0,1,30.46,261.79Zm-4.82,0a3.09,3.09,0,0,0,.56,2,2.07,2.07,0,0,0,3.12,0,3.71,3.71,0,0,0,0-3.92,1.93,1.93,0,0,0-1.57-.7,1.84,1.84,0,0,0-1.56.7A3,3,0,0,0,25.64,261.79Z"/><path d="M36,264.85H31.59v-.35l3.62-5.26H31.85v-.49h4.08v.35l-3.64,5.26H36Zm-2.43-7.8q0-.54.36-.54a.31.31,0,0,1,.27.14.93.93,0,0,1,0,.8.29.29,0,0,1-.27.14Q33.52,257.59,33.52,257.05Z"/><path d="M39.92,265a2.66,2.66,0,0,1-2.08-.82,3.25,3.25,0,0,1-.74-2.29,3.56,3.56,0,0,1,.72-2.34,2.35,2.35,0,0,1,1.93-.88,2.08,2.08,0,0,1,1.7.75,3.07,3.07,0,0,1,.63,2v.45h-4.4a2.86,2.86,0,0,0,.59,1.92,2,2,0,0,0,1.65.67,4.89,4.89,0,0,0,.91-.08,5.74,5.74,0,0,0,1-.31v.5a4.42,4.42,0,0,1-1,.31A5.64,5.64,0,0,1,39.92,265Zm-.17-5.84a1.85,1.85,0,0,0-1.41.58,2.74,2.74,0,0,0-.63,1.68h3.78a2.64,2.64,0,0,0-.46-1.66A1.52,1.52,0,0,0,39.75,259.12Z"/><path d="M47.55,263.26a1.44,1.44,0,0,1-.63,1.26,3,3,0,0,1-1.76.44,4.26,4.26,0,0,1-1.95-.37V264a4.28,4.28,0,0,0,1.95.47,2.55,2.55,0,0,0,1.37-.31.91.91,0,0,0,.47-.8,1,1,0,0,0-.38-.77A4,4,0,0,0,45.4,262a7.08,7.08,0,0,1-1.29-.57,1.82,1.82,0,0,1-.56-.54,1.39,1.39,0,0,1-.19-.73,1.25,1.25,0,0,1,.58-1.08,2.76,2.76,0,0,1,1.61-.4,4.73,4.73,0,0,1,1.87.37l-.2.5a4.56,4.56,0,0,0-1.67-.37,2.51,2.51,0,0,0-1.19.25.76.76,0,0,0-.44.69,1,1,0,0,0,.34.76,4.94,4.94,0,0,0,1.33.64,7,7,0,0,1,1.21.54,1.82,1.82,0,0,1,.56.54A1.37,1.37,0,0,1,47.55,263.26Z"/><path d="M52.92,264.85H48.56v-.35l3.62-5.26H48.82v-.49H52.9v.35l-3.64,5.26h3.66Z"/><path d="M61.2,264.85H56.85v-.35l3.62-5.26H57.11v-.49h4.08v.35l-3.64,5.26H61.2Z"/><path d="M67.76,261.79a3.46,3.46,0,0,1-.73,2.33,2.5,2.5,0,0,1-2,.84,2.58,2.58,0,0,1-1.41-.39,2.4,2.4,0,0,1-.94-1.11,4,4,0,0,1-.33-1.67,3.46,3.46,0,0,1,.73-2.33,2.5,2.5,0,0,1,2-.83,2.45,2.45,0,0,1,2,.84A3.48,3.48,0,0,1,67.76,261.79Zm-4.82,0a3.09,3.09,0,0,0,.55,2,2.08,2.08,0,0,0,3.13,0,3.09,3.09,0,0,0,.55-2,3,3,0,0,0-.56-2,1.9,1.9,0,0,0-1.57-.7,1.84,1.84,0,0,0-1.55.7A3,3,0,0,0,62.94,261.79Z"/><path d="M71.85,258.63a4.15,4.15,0,0,1,.83.08l-.11.53a3.35,3.35,0,0,0-.79-.1,1.56,1.56,0,0,0-1.28.67,2.72,2.72,0,0,0-.5,1.67v3.37h-.55v-6.1h.47l0,1.1h0a2.54,2.54,0,0,1,.81-1A1.88,1.88,0,0,1,71.85,258.63Z"/><path d="M78.68,258.75v.38l-1.26.08a2.13,2.13,0,0,1,.5,1.38,1.85,1.85,0,0,1-.58,1.43,2.2,2.2,0,0,1-1.58.55,3.82,3.82,0,0,1-.58,0,1.42,1.42,0,0,0-.51.41.84.84,0,0,0-.17.5.45.45,0,0,0,.22.42,1.53,1.53,0,0,0,.75.14h1.06a2.44,2.44,0,0,1,1.52.4,1.38,1.38,0,0,1,.53,1.19,1.7,1.7,0,0,1-.78,1.49,4,4,0,0,1-2.23.52,3.16,3.16,0,0,1-1.79-.44,1.44,1.44,0,0,1-.63-1.24,1.46,1.46,0,0,1,.39-1,2,2,0,0,1,1.06-.57,1.14,1.14,0,0,1-.44-.33.82.82,0,0,1-.17-.5,1.32,1.32,0,0,1,.79-1.08,1.68,1.68,0,0,1-.84-.69,2,2,0,0,1-.29-1.07,1.93,1.93,0,0,1,.58-1.47,2.18,2.18,0,0,1,1.57-.55,2.83,2.83,0,0,1,.93.12Zm-4.94,7.13c0,.84.63,1.26,1.87,1.26q2.4,0,2.4-1.53a.88.88,0,0,0-.37-.8,2.34,2.34,0,0,0-1.22-.25h-1Q73.74,264.56,73.74,265.88Zm.47-5.23a1.4,1.4,0,0,0,.43,1.1,1.92,1.92,0,0,0,2.32,0,1.48,1.48,0,0,0,.4-1.12,1.55,1.55,0,0,0-.41-1.17,1.66,1.66,0,0,0-1.18-.39,1.44,1.44,0,0,0-1.56,1.58Z"/><path d="M83.64,264.85l-.14-1h0a3,3,0,0,1-.95.84,2.57,2.57,0,0,1-1.15.24,2,2,0,0,1-1.4-.46,1.66,1.66,0,0,1-.5-1.27,1.57,1.57,0,0,1,.75-1.39,4,4,0,0,1,2.15-.52l1.16,0v-.4a2,2,0,0,0-.35-1.31,1.37,1.37,0,0,0-1.14-.45,3.87,3.87,0,0,0-1.76.47l-.21-.48a4.74,4.74,0,0,1,2-.47,2,2,0,0,1,1.5.52,2.26,2.26,0,0,1,.5,1.63v4.06Zm-2.24-.39a1.94,1.94,0,0,0,2.1-2.11v-.61l-1.07.05a4,4,0,0,0-1.83.4,1.17,1.17,0,0,0-.55,1.06,1.15,1.15,0,0,0,.35.89A1.46,1.46,0,0,0,81.4,264.46Z"/><path d="M90.28,264.85v-4a1.93,1.93,0,0,0-.38-1.34,1.56,1.56,0,0,0-1.2-.42,2.08,2.08,0,0,0-1.61.56,2.57,2.57,0,0,0-.51,1.79v3.37H86v-6.1h.47l.11.83h0a2.31,2.31,0,0,1,2.12-.95c1.38,0,2.07.74,2.07,2.23v4Z"/><path d="M92.73,257.05q0-.54.36-.54a.33.33,0,0,1,.27.14.85.85,0,0,1,0,.8.31.31,0,0,1-.27.14Q92.73,257.59,92.73,257.05Zm.64,7.8h-.56v-6.1h.56Z"/><path d="M99.21,264.85H94.85v-.35l3.62-5.26H95.11v-.49H99.2v.35l-3.65,5.26h3.66Z"/><path d="M105.76,261.79a3.46,3.46,0,0,1-.72,2.33,2.51,2.51,0,0,1-2,.84,2.59,2.59,0,0,1-1.42-.39,2.4,2.4,0,0,1-.94-1.11,4.15,4.15,0,0,1-.32-1.67,3.46,3.46,0,0,1,.72-2.33,2.52,2.52,0,0,1,2-.83,2.44,2.44,0,0,1,2,.84A3.48,3.48,0,0,1,105.76,261.79Zm-4.82,0a3.09,3.09,0,0,0,.56,2,1.85,1.85,0,0,0,1.56.71,1.88,1.88,0,0,0,1.56-.71,3.71,3.71,0,0,0,0-3.92,1.93,1.93,0,0,0-1.57-.7,1.84,1.84,0,0,0-1.56.7A3,3,0,0,0,100.94,261.79Z"/><path d="M112.33,264.85,111,260.77c-.08-.28-.19-.69-.33-1.22h0l-.12.41-.25.82-1.36,4.07h-.55l-1.75-6.1h.6l1,3.53c.23.88.38,1.52.45,1.93h0q.33-1.31.48-1.74l1.26-3.72h.5l1.2,3.71c.27.88.43,1.46.49,1.74h0q0-.36.45-1.95l.93-3.5h.56l-1.66,6.1Z"/><path d="M119.47,264.85l-.14-1h0a3,3,0,0,1-1,.84,2.57,2.57,0,0,1-1.15.24,2,2,0,0,1-1.4-.46,1.65,1.65,0,0,1-.49-1.27,1.56,1.56,0,0,1,.74-1.39,4,4,0,0,1,2.15-.52l1.16,0v-.4a2,2,0,0,0-.35-1.31,1.37,1.37,0,0,0-1.14-.45,3.9,3.9,0,0,0-1.76.47l-.2-.48a4.7,4.7,0,0,1,2-.47,2,2,0,0,1,1.5.52,2.26,2.26,0,0,1,.5,1.63v4.06Zm-2.24-.39a1.94,1.94,0,0,0,2.1-2.11v-.61l-1.07.05a4,4,0,0,0-1.83.4,1.17,1.17,0,0,0-.55,1.06,1.12,1.12,0,0,0,.36.89A1.42,1.42,0,0,0,117.23,264.46Z"/><path d="M124.3,265a2.6,2.6,0,0,1-2-.82,3.31,3.31,0,0,1-.74-2.31,3.4,3.4,0,0,1,.76-2.36,2.73,2.73,0,0,1,2.11-.84,4.35,4.35,0,0,1,1.52.27l-.15.5a4.39,4.39,0,0,0-1.38-.27,2.06,2.06,0,0,0-1.7.7,3,3,0,0,0-.58,2,2.94,2.94,0,0,0,.58,1.94,2,2,0,0,0,1.61.7,4,4,0,0,0,1.55-.3v.52A3.52,3.52,0,0,1,124.3,265Zm-1-7.17c.27-.29.54-.62.81-1a7,7,0,0,0,.55-.79h.79v.09a5,5,0,0,1-.69.78c-.32.32-.68.65-1.07,1h-.39Z"/><path d="M16.87,278.27a4.15,4.15,0,0,0,.92-.09v.45a2.94,2.94,0,0,1-.93.13,1.49,1.49,0,0,1-1.19-.43,2,2,0,0,1-.39-1.36V273h-.9v-.33l.9-.25.28-1.38h.29v1.48h1.79V273H15.85v3.86a1.71,1.71,0,0,0,.25,1A.87.87,0,0,0,16.87,278.27Z"/><path d="M22.82,278.65l-.14-1h-.05a2.88,2.88,0,0,1-.94.84,2.6,2.6,0,0,1-1.15.24,2,2,0,0,1-1.4-.46,1.66,1.66,0,0,1-.5-1.27,1.58,1.58,0,0,1,.74-1.39,4.09,4.09,0,0,1,2.16-.52l1.16,0v-.4a2.09,2.09,0,0,0-.35-1.31,1.37,1.37,0,0,0-1.14-.45,3.84,3.84,0,0,0-1.76.47l-.21-.48a4.71,4.71,0,0,1,2-.47,2,2,0,0,1,1.5.52,2.3,2.3,0,0,1,.5,1.63v4.06Zm-2.25-.39a2.09,2.09,0,0,0,1.54-.56,2.07,2.07,0,0,0,.57-1.55v-.61l-1.07,0a3.93,3.93,0,0,0-1.83.4,1.3,1.3,0,0,0-.2,1.95A1.42,1.42,0,0,0,20.57,278.26Z"/><path d="M25.75,276l3.12-3.42h.67l-2.4,2.6,2.61,3.5h-.67l-2.32-3.08-1,.91v2.17H25.2v-8.74h.56v4.38l0,1.68Z"/><path d="M34.08,280a.54.54,0,0,0,.6.62,1.27,1.27,0,0,0,.46-.07v.47a1.63,1.63,0,0,1-.59.09,1.09,1.09,0,0,1-.75-.26,1,1,0,0,1-.27-.76,1.54,1.54,0,0,1,.22-.78,2.75,2.75,0,0,1,.71-.77l-.13-.9h0a2.91,2.91,0,0,1-.95.84,2.54,2.54,0,0,1-1.15.24,2,2,0,0,1-1.39-.46,1.62,1.62,0,0,1-.5-1.27,1.58,1.58,0,0,1,.74-1.39,4.08,4.08,0,0,1,2.15-.52l1.17,0v-.4a2,2,0,0,0-.36-1.31,1.35,1.35,0,0,0-1.14-.45,3.83,3.83,0,0,0-1.75.47l-.21-.48a4.7,4.7,0,0,1,2-.47,2,2,0,0,1,1.51.52,2.3,2.3,0,0,1,.49,1.63v4.06a3.19,3.19,0,0,0-.6.67A1.34,1.34,0,0,0,34.08,280Zm-1.85-1.78a2.11,2.11,0,0,0,1.54-.56,2.06,2.06,0,0,0,.56-1.55v-.61l-1.06,0a4,4,0,0,0-1.84.4,1.17,1.17,0,0,0-.54,1.06,1.12,1.12,0,0,0,.35.89A1.42,1.42,0,0,0,32.23,278.26Z"/><path d="M43.64,278.65H39.29v-.35L42.91,273H39.55v-.49h4.08v.35L40,278.16h3.65Z"/><path d="M47.73,272.43a2.36,2.36,0,0,1,1.93.8,3.73,3.73,0,0,1,.64,2.36,3.58,3.58,0,0,1-.68,2.35,2.34,2.34,0,0,1-1.92.82,2.52,2.52,0,0,1-1.17-.27,2,2,0,0,1-.82-.76h-.06l-.15.92h-.35v-8.74h.56v2.2c0,.33,0,.63,0,.91v.48h0a2.16,2.16,0,0,1,.84-.81A2.39,2.39,0,0,1,47.73,272.43Zm0,.5a1.82,1.82,0,0,0-1.54.62,3.45,3.45,0,0,0-.46,2v.09a3.21,3.21,0,0,0,.48,2,1.83,1.83,0,0,0,1.51.6,1.76,1.76,0,0,0,1.51-.7,3.35,3.35,0,0,0,.5-2C49.71,273.81,49.05,272.93,47.71,272.93Z"/><path d="M51.92,270.85c0-.36.11-.54.35-.54a.32.32,0,0,1,.27.14.66.66,0,0,1,.1.4.68.68,0,0,1-.1.4.3.3,0,0,1-.27.14C52,271.39,51.92,271.21,51.92,270.85Zm.63,7.8H52v-6.1h.56Z"/><path d="M59.64,275.59a3.47,3.47,0,0,1-.72,2.33,2.51,2.51,0,0,1-2,.84,2.59,2.59,0,0,1-1.42-.39,2.33,2.33,0,0,1-.93-1.11,4,4,0,0,1-.33-1.67,3.46,3.46,0,0,1,.72-2.33,2.53,2.53,0,0,1,2-.83,2.47,2.47,0,0,1,2,.84A3.53,3.53,0,0,1,59.64,275.59Zm-4.82,0a3.09,3.09,0,0,0,.56,2,1.88,1.88,0,0,0,1.56.71,1.89,1.89,0,0,0,1.57-.71,3.15,3.15,0,0,0,.55-2,3.07,3.07,0,0,0-.56-2,1.92,1.92,0,0,0-1.57-.7,1.87,1.87,0,0,0-1.56.7A3.11,3.11,0,0,0,54.82,275.59Zm1.55-4q.42-.45.81-1a7,7,0,0,0,.55-.79h.79v.09a5.42,5.42,0,0,1-.68.78c-.33.32-.68.65-1.07,1h-.4Z"/><path d="M63.74,272.43a4.22,4.22,0,0,1,.83.08l-.11.53a3.42,3.42,0,0,0-.79-.1,1.54,1.54,0,0,0-1.28.67,2.65,2.65,0,0,0-.5,1.67v3.37h-.56v-6.1h.47l.06,1.1h0a2.62,2.62,0,0,1,.8-.95A1.92,1.92,0,0,1,63.74,272.43Z"/><path d="M66.35,276l3.12-3.42h.67l-2.4,2.6,2.61,3.5h-.67l-2.32-3.08-1,.91v2.17h-.55v-8.74h.55v4.38l0,1.68Z"/><path d="M73.84,278.76a2.66,2.66,0,0,1-2.08-.82,3.3,3.3,0,0,1-.74-2.29,3.56,3.56,0,0,1,.72-2.34,2.35,2.35,0,0,1,1.93-.88,2.12,2.12,0,0,1,1.71.75,3.12,3.12,0,0,1,.62,2v.45H71.6a2.86,2.86,0,0,0,.59,1.92,2,2,0,0,0,1.65.67,5.08,5.08,0,0,0,.92-.08,5.94,5.94,0,0,0,1-.31v.5a4.42,4.42,0,0,1-1,.31A5.64,5.64,0,0,1,73.84,278.76Zm-.17-5.84a1.85,1.85,0,0,0-1.41.58,2.73,2.73,0,0,0-.62,1.68h3.77a2.64,2.64,0,0,0-.46-1.66A1.52,1.52,0,0,0,73.67,272.92Zm.9,6.91c0,.42.2.62.6.62a1.24,1.24,0,0,0,.46-.07v.48A1.63,1.63,0,0,1,75,281a1,1,0,0,1-.74-.27,1,1,0,0,1-.28-.76,1.54,1.54,0,0,1,.22-.78,2.57,2.57,0,0,1,.63-.7h.51a3.27,3.27,0,0,0-.61.67A1.34,1.34,0,0,0,74.57,279.83Z"/><path d="M80.59,270.85q0-.54.36-.54a.33.33,0,0,1,.27.14.74.74,0,0,1,.1.4.76.76,0,0,1-.1.4.31.31,0,0,1-.27.14Q80.59,271.39,80.59,270.85Zm.64,7.8h-.56v-6.1h.56Z"/><path d="M88.87,278.76a2.24,2.24,0,0,1-2.06-1.05h0l0,.47c0,.28,0,.58,0,.91v2.32h-.55v-8.86h.47l.11.87h0a2.21,2.21,0,0,1,2-1,2.26,2.26,0,0,1,1.88.81,3.67,3.67,0,0,1,.65,2.36,3.59,3.59,0,0,1-.68,2.33A2.26,2.26,0,0,1,88.87,278.76Zm0-.49a1.69,1.69,0,0,0,1.45-.7,3.23,3.23,0,0,0,.51-1.95c0-1.79-.65-2.69-1.94-2.69a2,2,0,0,0-1.57.59,3,3,0,0,0-.5,1.91v.18a3.38,3.38,0,0,0,.48,2.05A1.89,1.89,0,0,0,88.86,278.27Z"/><path d="M98.15,275.59a3.47,3.47,0,0,1-.72,2.33,2.51,2.51,0,0,1-2,.84,2.59,2.59,0,0,1-1.42-.39,2.4,2.4,0,0,1-.94-1.11,4.15,4.15,0,0,1-.32-1.67,3.46,3.46,0,0,1,.72-2.33,2.53,2.53,0,0,1,2-.83,2.44,2.44,0,0,1,2,.84A3.48,3.48,0,0,1,98.15,275.59Zm-4.82,0a3.09,3.09,0,0,0,.56,2,2.07,2.07,0,0,0,3.12,0,3.71,3.71,0,0,0,0-3.92,1.93,1.93,0,0,0-1.57-.7,1.86,1.86,0,0,0-1.56.7A3,3,0,0,0,93.33,275.59Z"/><path d="M107.47,278.65v-4a2,2,0,0,0-.35-1.31,1.34,1.34,0,0,0-1.07-.41,1.77,1.77,0,0,0-1.39.52,2.41,2.41,0,0,0-.45,1.62v3.58h-.56v-4.17c0-1-.47-1.55-1.42-1.55a1.69,1.69,0,0,0-1.4.56,2.93,2.93,0,0,0-.43,1.79v3.37h-.56v-6.1h.46l.12.83h0a1.74,1.74,0,0,1,.72-.7,2.09,2.09,0,0,1,1-.25,1.75,1.75,0,0,1,1.85,1.08h0a2.12,2.12,0,0,1,.8-.8,2.3,2.3,0,0,1,1.15-.28,2,2,0,0,1,1.5.53,2.45,2.45,0,0,1,.5,1.7v4Z"/><path d="M115,275.59a3.47,3.47,0,0,1-.72,2.33,2.51,2.51,0,0,1-2,.84,2.59,2.59,0,0,1-1.42-.39,2.4,2.4,0,0,1-.94-1.11,4.15,4.15,0,0,1-.32-1.67,3.46,3.46,0,0,1,.72-2.33,2.53,2.53,0,0,1,2-.83,2.47,2.47,0,0,1,2,.84A3.53,3.53,0,0,1,115,275.59Zm-4.82,0a3.09,3.09,0,0,0,.56,2,2.07,2.07,0,0,0,3.12,0,3.71,3.71,0,0,0,0-3.92,1.92,1.92,0,0,0-1.57-.7,1.86,1.86,0,0,0-1.56.7A3.11,3.11,0,0,0,110.22,275.59Zm1.55-4q.42-.45.81-1a7,7,0,0,0,.55-.79h.79v.09a5.42,5.42,0,0,1-.68.78c-.33.32-.69.65-1.07,1h-.4Z"/><path d="M119.17,278.76a2.61,2.61,0,0,1-2-.82,3.31,3.31,0,0,1-.74-2.31,3.36,3.36,0,0,1,.77-2.36,2.7,2.7,0,0,1,2.1-.84,4.31,4.31,0,0,1,1.52.27l-.15.5a4.39,4.39,0,0,0-1.38-.27,2.06,2.06,0,0,0-1.7.7,3,3,0,0,0-.58,2,2.94,2.94,0,0,0,.58,1.94,2,2,0,0,0,1.62.7,3.92,3.92,0,0,0,1.54-.3v.52A3.52,3.52,0,0,1,119.17,278.76Z"/><path d="M16.87,292.07a4.15,4.15,0,0,0,.92-.09v.45a2.94,2.94,0,0,1-.93.13,1.49,1.49,0,0,1-1.19-.43,2,2,0,0,1-.39-1.36v-3.94h-.9v-.33l.9-.25.28-1.38h.29v1.48h1.79v.48H15.85v3.86a1.71,1.71,0,0,0,.25,1A.87.87,0,0,0,16.87,292.07Z"/><path d="M18.09,286.35h.57L20,289.77q.6,1.58.75,2.13h0c.16-.48.42-1.2.77-2.16l1.3-3.39h.57l-2.74,7.09a6,6,0,0,1-.55,1.17,1.5,1.5,0,0,1-.53.45,1.59,1.59,0,0,1-.72.15,2.46,2.46,0,0,1-.72-.12v-.48a2.63,2.63,0,0,0,.7.09.94.94,0,0,0,.51-.13,1.14,1.14,0,0,0,.39-.42,5.65,5.65,0,0,0,.42-.9c.15-.41.25-.68.3-.8Z"/><path d="M32,292.45v-4a2,2,0,0,0-.35-1.31,1.34,1.34,0,0,0-1.07-.41,1.77,1.77,0,0,0-1.39.52,2.41,2.41,0,0,0-.45,1.62v3.58H28.2v-4.17c0-1-.47-1.55-1.42-1.55a1.69,1.69,0,0,0-1.4.56,2.93,2.93,0,0,0-.43,1.79v3.37h-.56v-6.1h.46l.12.83h0a1.74,1.74,0,0,1,.72-.7,2.09,2.09,0,0,1,1-.25,1.75,1.75,0,0,1,1.85,1.08h0a2.12,2.12,0,0,1,.8-.8,2.3,2.3,0,0,1,1.15-.28,2,2,0,0,1,1.5.53,2.45,2.45,0,0,1,.5,1.7v4Z"/><path d="M35.18,291.11l.06.12a18.85,18.85,0,0,1-1,2.7H33.9a21.77,21.77,0,0,0,.62-2.82Z"/><path d="M40.55,289.77l3.11-3.42h.68L41.93,289l2.61,3.5h-.66l-2.32-3.08-1,.91v2.17H40v-8.74h.56v4.38l0,1.68Z"/><path d="M47.18,292.07a4.15,4.15,0,0,0,.92-.09v.45a2.94,2.94,0,0,1-.93.13,1.53,1.53,0,0,1-1.2-.43,2,2,0,0,1-.38-1.36v-3.94h-.91v-.33l.91-.25.28-1.38h.28v1.48H48v.48h-1.8v3.86a1.79,1.79,0,0,0,.25,1A.9.9,0,0,0,47.18,292.07Z"/><path d="M54.47,289.39a3.48,3.48,0,0,1-.73,2.33,2.5,2.5,0,0,1-2,.84,2.58,2.58,0,0,1-1.41-.39,2.46,2.46,0,0,1-.94-1.11,4,4,0,0,1-.33-1.67,3.41,3.41,0,0,1,.73-2.33,2.5,2.5,0,0,1,2-.83,2.46,2.46,0,0,1,2,.84A3.48,3.48,0,0,1,54.47,289.39Zm-4.82,0a3.09,3.09,0,0,0,.55,2,2.08,2.08,0,0,0,3.13,0,3.09,3.09,0,0,0,.55-2,3,3,0,0,0-.56-2,1.87,1.87,0,0,0-1.57-.7,1.84,1.84,0,0,0-1.55.7A3,3,0,0,0,49.65,289.39Zm1.55-4q.4-.45.81-1a7,7,0,0,0,.55-.79h.79v.09a6.4,6.4,0,0,1-.69.78c-.32.32-.68.65-1.07,1H51.2Z"/><path d="M58.56,286.23a4.15,4.15,0,0,1,.83.08l-.11.53a3.42,3.42,0,0,0-.79-.1,1.52,1.52,0,0,0-1.28.67,2.72,2.72,0,0,0-.5,1.67v3.37h-.55v-6.1h.47l0,1.1h0a2.54,2.54,0,0,1,.81-.95A1.86,1.86,0,0,1,58.56,286.23Z"/><path d="M64.43,292.45H60.07v-.35l3.62-5.26H60.33v-.49h4.09v.35L60.77,292h3.66Z"/><path d="M64.91,286.35h.57l1.29,3.42q.6,1.58.75,2.13h0c.16-.48.42-1.2.77-2.16l1.3-3.39h.57l-2.74,7.09a6,6,0,0,1-.55,1.17,1.5,1.5,0,0,1-.53.45,1.61,1.61,0,0,1-.73.15,2.45,2.45,0,0,1-.71-.12v-.48a2.63,2.63,0,0,0,.7.09,1,1,0,0,0,.51-.13,1.25,1.25,0,0,0,.4-.42,6.94,6.94,0,0,0,.41-.9c.15-.41.25-.68.3-.8Z"/><path d="M78,290.86a1.45,1.45,0,0,1-.62,1.26,3,3,0,0,1-1.77.44,4.21,4.21,0,0,1-1.94-.37v-.61a4.23,4.23,0,0,0,1.94.46,2.55,2.55,0,0,0,1.37-.3.89.89,0,0,0,.47-.8,1,1,0,0,0-.37-.77,4.07,4.07,0,0,0-1.23-.62,6.6,6.6,0,0,1-1.28-.57,1.71,1.71,0,0,1-.56-.54,1.3,1.3,0,0,1-.19-.73,1.24,1.24,0,0,1,.57-1.08,2.78,2.78,0,0,1,1.61-.4,4.78,4.78,0,0,1,1.88.37l-.21.5a4.52,4.52,0,0,0-1.67-.37,2.43,2.43,0,0,0-1.18.25.76.76,0,0,0-.44.69.94.94,0,0,0,.34.76,4.94,4.94,0,0,0,1.33.64,6.5,6.5,0,0,1,1.2.54,1.62,1.62,0,0,1,.56.54A1.28,1.28,0,0,1,78,290.86Z"/><path d="M82.87,293.84c0,.41.2.62.59.62a1.2,1.2,0,0,0,.46-.07v.47a1.57,1.57,0,0,1-.58.09,1.05,1.05,0,0,1-.75-.26,1,1,0,0,1-.28-.76,1.56,1.56,0,0,1,.23-.78,2.75,2.75,0,0,1,.71-.77l-.13-.9h0a3,3,0,0,1-1,.84,2.6,2.6,0,0,1-1.15.24,2,2,0,0,1-1.4-.46,1.66,1.66,0,0,1-.5-1.27,1.57,1.57,0,0,1,.75-1.39,4,4,0,0,1,2.15-.52l1.16,0v-.4a2.09,2.09,0,0,0-.35-1.31,1.37,1.37,0,0,0-1.14-.45,3.87,3.87,0,0,0-1.76.47l-.21-.48a4.74,4.74,0,0,1,2-.47,2,2,0,0,1,1.5.52,2.26,2.26,0,0,1,.5,1.63v4.06a3.19,3.19,0,0,0-.6.67A1.26,1.26,0,0,0,82.87,293.84ZM81,292.06A1.94,1.94,0,0,0,83.12,290v-.61l-1.07.05a4,4,0,0,0-1.83.4,1.3,1.3,0,0,0-.2,1.95A1.45,1.45,0,0,0,81,292.06Z"/><path d="M92.89,292.45v-4a1.93,1.93,0,0,0-.39-1.34,1.55,1.55,0,0,0-1.2-.42,2.07,2.07,0,0,0-1.6.56,2.57,2.57,0,0,0-.51,1.79v3.37h-.56v-6.1h.48l.1.83h0a2.29,2.29,0,0,1,2.11-.95c1.39,0,2.08.74,2.08,2.23v4Z"/><path d="M99.12,292.45l-.14-1h0a2.91,2.91,0,0,1-1,.84,2.54,2.54,0,0,1-1.15.24,2,2,0,0,1-1.39-.46,1.62,1.62,0,0,1-.5-1.27,1.56,1.56,0,0,1,.74-1.39,4,4,0,0,1,2.15-.52l1.17,0v-.4a2,2,0,0,0-.36-1.31,1.35,1.35,0,0,0-1.14-.45,3.83,3.83,0,0,0-1.75.47l-.21-.48a4.7,4.7,0,0,1,2-.47,2,2,0,0,1,1.51.52,2.3,2.3,0,0,1,.49,1.63v4.06Zm-2.24-.39a2.11,2.11,0,0,0,1.54-.56A2.08,2.08,0,0,0,99,290v-.61l-1.06.05a4,4,0,0,0-1.84.4,1.17,1.17,0,0,0-.54,1.06,1.12,1.12,0,0,0,.35.89A1.42,1.42,0,0,0,96.88,292.06Z"/><path d="M100.7,295.21a1.72,1.72,0,0,1-.76-.14v-.48a2.8,2.8,0,0,0,.72.11c.57,0,.85-.33.85-1v-7.36h.56v7.28a1.71,1.71,0,0,1-.36,1.17A1.26,1.26,0,0,1,100.7,295.21Zm.73-10.56q0-.54.36-.54a.33.33,0,0,1,.27.14.74.74,0,0,1,.1.4.76.76,0,0,1-.1.4.31.31,0,0,1-.27.14Q101.43,285.19,101.43,284.65Z"/><path d="M106.69,286.23a2.36,2.36,0,0,1,1.93.8,3.73,3.73,0,0,1,.64,2.36,3.58,3.58,0,0,1-.68,2.35,2.33,2.33,0,0,1-1.91.82,2.53,2.53,0,0,1-1.18-.27,2,2,0,0,1-.82-.76h0l-.16.92h-.35v-8.74h.56v2.2c0,.33,0,.63,0,.91v.47h0a2.21,2.21,0,0,1,.84-.8A2.39,2.39,0,0,1,106.69,286.23Zm0,.5a1.83,1.83,0,0,0-1.55.62,3.45,3.45,0,0,0-.46,2v.09a3.21,3.21,0,0,0,.48,2,1.85,1.85,0,0,0,1.52.6,1.75,1.75,0,0,0,1.5-.7,3.35,3.35,0,0,0,.5-2C108.67,287.61,108,286.73,106.68,286.73Z"/><path d="M111.51,292.45H111v-8.74h.56Z"/><path d="M113.48,284.65c0-.36.11-.54.35-.54a.31.31,0,0,1,.27.14.66.66,0,0,1,.1.4.68.68,0,0,1-.1.4.29.29,0,0,1-.27.14C113.59,285.19,113.48,285,113.48,284.65Zm.63,7.8h-.56v-6.1h.56Z"/><path d="M120,292.45h-4.36v-.35l3.62-5.26h-3.35v-.49h4.08v.35L116.29,292H120Zm-2.43-7.8q0-.54.36-.54a.31.31,0,0,1,.27.14.66.66,0,0,1,.1.4.68.68,0,0,1-.1.4.29.29,0,0,1-.27.14Q117.52,285.19,117.52,284.65Z"/><path d="M123.92,292.56a2.66,2.66,0,0,1-2.08-.82,3.3,3.3,0,0,1-.74-2.29,3.56,3.56,0,0,1,.72-2.34,2.36,2.36,0,0,1,1.94-.88,2.1,2.1,0,0,1,1.7.75,3.12,3.12,0,0,1,.62,2v.45h-4.4a2.91,2.91,0,0,0,.59,1.92,2.1,2.1,0,0,0,1.65.67,5,5,0,0,0,.92-.08,5.67,5.67,0,0,0,1-.31v.5a4.18,4.18,0,0,1-1,.31A5.86,5.86,0,0,1,123.92,292.56Zm-.16-5.84a1.87,1.87,0,0,0-1.42.58,2.79,2.79,0,0,0-.62,1.68h3.77a2.64,2.64,0,0,0-.46-1.66A1.52,1.52,0,0,0,123.76,286.72Z"/><path d="M127,295.21a1.75,1.75,0,0,1-.76-.14v-.48a2.81,2.81,0,0,0,.73.11c.56,0,.85-.33.85-1v-7.36h.55v7.28a1.76,1.76,0,0,1-.35,1.17A1.26,1.26,0,0,1,127,295.21Zm.74-10.56c0-.36.12-.54.35-.54a.31.31,0,0,1,.27.14.66.66,0,0,1,.1.4.68.68,0,0,1-.1.4.29.29,0,0,1-.27.14C127.81,285.19,127.69,285,127.69,284.65Z"/><path d="M130.25,292c0-.37.15-.55.45-.55s.46.18.46.55-.15.55-.46.55S130.25,292.38,130.25,292Z"/><path class="cls-4" d="M69.18,65.08c0,3.24,3.28,5.87,7.33,5.87s7.32-2.63,7.32-5.87-3.28-5.86-7.32-5.86-7.33-2.62-7.33-5.86,3.28-5.86,7.33-5.86,7.32,2.62,7.32,5.86"/><line class="cls-4" x1="76.51" y1="47.5" x2="76.51" y2="43.1"/><line class="cls-4" x1="76.51" y1="75.34" x2="76.51" y2="70.95"/><circle class="cls-4" cx="76.51" cy="59.22" r="24.92"/><line class="cls-4" x1="76.51" y1="19.65" x2="76.51" y2="28.44"/><line class="cls-4" x1="76.51" y1="90" x2="76.51" y2="98.79"/><line class="cls-4" x1="56.72" y1="24.95" x2="61.12" y2="32.57"/><line class="cls-4" x1="91.89" y1="85.88" x2="96.29" y2="93.49"/><line class="cls-4" x1="42.23" y1="39.43" x2="49.85" y2="43.83"/><line class="cls-4" x1="103.16" y1="74.61" x2="110.78" y2="79.01"/><line class="cls-4" x1="36.93" y1="59.22" x2="45.73" y2="59.22"/><line class="cls-4" x1="107.28" y1="59.22" x2="116.08" y2="59.22"/><line class="cls-4" x1="42.23" y1="79.01" x2="49.85" y2="74.61"/><line class="cls-4" x1="103.16" y1="43.83" x2="110.78" y2="39.43"/><line class="cls-4" x1="56.72" y1="93.49" x2="61.12" y2="85.88"/><line class="cls-4" x1="91.89" y1="32.57" x2="96.29" y2="24.95"/></svg>