<svg id="Warstwa_1" data-name="Warstwa 1" xmlns="http://www.w3.org/2000/svg" viewBox="0 0 155 324.95"><defs><style>.cls-1,.cls-4,.cls-5{fill:none;}.cls-1{stroke:#707070;}.cls-2{isolation:isolate;}.cls-3{fill:#3c3c3c;}.cls-4,.cls-5{stroke:#424242;stroke-linejoin:round;stroke-width:3px;}.cls-5{stroke-linecap:round;}</style></defs><title>ngo</title><line id="Line" class="cls-1" x1="41.22" y1="137.15" x2="111.22" y2="137.15"/><g id="Wybierz_rzeczy" data-name="Wybierz rzeczy" class="cls-2"><g class="cls-2"><path class="cls-3" d="M68,123.65H65.38l-6.32-10.24H59l0,.57c.08,1.09.12,2.09.12,3v6.68H57.25V110.8H59.8L66.1,121h.06c0-.14,0-.63-.07-1.47s-.06-1.51-.06-2V110.8H68Z"/><path class="cls-3" d="M76.61,116.68h4.72v6.45a14.29,14.29,0,0,1-2.22.54,16.65,16.65,0,0,1-2.31.16,5.79,5.79,0,0,1-4.5-1.73,6.93,6.93,0,0,1-1.58-4.87,6.5,6.5,0,0,1,1.78-4.86,6.7,6.7,0,0,1,4.91-1.75,9.48,9.48,0,0,1,3.82.77l-.74,1.75a7.43,7.43,0,0,0-3.13-.72,4.22,4.22,0,0,0-3.25,1.29,5,5,0,0,0-1.2,3.53A5.25,5.25,0,0,0,74,120.82a3.9,3.9,0,0,0,3.1,1.23,10.13,10.13,0,0,0,2.18-.25v-3.32H76.61Z"/><path class="cls-3" d="M95.83,117.21a7.07,7.07,0,0,1-1.57,4.88,6.59,6.59,0,0,1-8.91,0,7.08,7.08,0,0,1-1.56-4.91,7,7,0,0,1,1.57-4.89,5.77,5.77,0,0,1,4.47-1.7,5.67,5.67,0,0,1,4.43,1.73A7,7,0,0,1,95.83,117.21Zm-9.81,0a5.76,5.76,0,0,0,1,3.6,3.9,3.9,0,0,0,5.66,0,5.74,5.74,0,0,0,1-3.61,5.8,5.8,0,0,0-.95-3.59,3.36,3.36,0,0,0-2.82-1.22A3.42,3.42,0,0,0,87,113.62,5.73,5.73,0,0,0,86,117.21Z"/></g></g><path d="M20.34,153.59a2.17,2.17,0,0,1-.81,1.82,3.65,3.65,0,0,1-2.29.64H16v3.39H15.4v-8.21h2C19.36,151.23,20.34,152,20.34,153.59Zm-4.37,2H17.1a3.41,3.41,0,0,0,2-.46,1.72,1.72,0,0,0,.61-1.48,1.69,1.69,0,0,0-.58-1.41,3,3,0,0,0-1.81-.46H16Z"/><path d="M27,156.38a3.48,3.48,0,0,1-.73,2.33,2.5,2.5,0,0,1-2,.84,2.55,2.55,0,0,1-1.41-.39,2.51,2.51,0,0,1-.94-1.11,4,4,0,0,1-.33-1.67,3.41,3.41,0,0,1,.73-2.33,2.46,2.46,0,0,1,2-.83,2.47,2.47,0,0,1,2,.84A3.46,3.46,0,0,1,27,156.38Zm-4.82,0a3.09,3.09,0,0,0,.55,2,2.1,2.1,0,0,0,3.13,0,3.74,3.74,0,0,0,0-3.92,2.1,2.1,0,0,0-3.13,0A3.11,3.11,0,0,0,22.22,156.38Z"/><path d="M36.35,159.44v-4a2,2,0,0,0-.35-1.3,1.33,1.33,0,0,0-1.06-.41,1.73,1.73,0,0,0-1.39.52,2.41,2.41,0,0,0-.45,1.62v3.58h-.57v-4.17c0-1-.47-1.55-1.41-1.55a1.68,1.68,0,0,0-1.4.56,2.92,2.92,0,0,0-.44,1.79v3.37h-.56v-6.11h.47l.11.84h0a1.74,1.74,0,0,1,.72-.7,2.08,2.08,0,0,1,1-.25,1.76,1.76,0,0,1,1.86,1.08h0a2,2,0,0,1,.8-.8,2.24,2.24,0,0,1,1.14-.28,1.93,1.93,0,0,1,1.5.53,2.43,2.43,0,0,1,.5,1.7v4Z"/><path d="M42.58,159.44l-.14-1h0a2.91,2.91,0,0,1-.95.84,2.54,2.54,0,0,1-1.15.24,1.94,1.94,0,0,1-1.39-.46,1.63,1.63,0,0,1-.5-1.28,1.56,1.56,0,0,1,.74-1.38,4,4,0,0,1,2.15-.52l1.17,0v-.4a2.08,2.08,0,0,0-.36-1.32,1.37,1.37,0,0,0-1.14-.44,3.9,3.9,0,0,0-1.76.47l-.2-.48a4.55,4.55,0,0,1,2-.47,2,2,0,0,1,1.51.52,2.3,2.3,0,0,1,.49,1.63v4.06Zm-2.24-.4a1.93,1.93,0,0,0,2.1-2.11v-.6l-1.06,0a4,4,0,0,0-1.84.4,1.16,1.16,0,0,0-.54,1.06,1.12,1.12,0,0,0,.35.89A1.42,1.42,0,0,0,40.34,159Z"/><path d="M49.73,153.33v.39l-1.26.08a2.19,2.19,0,0,1,.5,1.38,1.85,1.85,0,0,1-.58,1.43,2.2,2.2,0,0,1-1.58.55,2.59,2.59,0,0,1-.58,0,1.67,1.67,0,0,0-.51.41.88.88,0,0,0-.17.5.46.46,0,0,0,.22.43,1.51,1.51,0,0,0,.74.14h1.07a2.46,2.46,0,0,1,1.52.4,1.39,1.39,0,0,1,.53,1.18,1.67,1.67,0,0,1-.78,1.49,4,4,0,0,1-2.24.53,3.12,3.12,0,0,1-1.78-.44,1.56,1.56,0,0,1-.24-2.28,2,2,0,0,1,1.06-.57,1.14,1.14,0,0,1-.44-.33.82.82,0,0,1-.17-.5,1.31,1.31,0,0,1,.78-1.08,1.81,1.81,0,0,1-.83-.69,2.1,2.1,0,0,1,.29-2.54,2.15,2.15,0,0,1,1.56-.55,2.9,2.9,0,0,1,.94.11Zm-4.94,7.14c0,.84.62,1.26,1.87,1.26q2.4,0,2.4-1.53a.88.88,0,0,0-.37-.8,2.25,2.25,0,0,0-1.22-.25h-1Q44.79,159.15,44.79,160.47Zm.47-5.23a1.37,1.37,0,0,0,.43,1.09,1.57,1.57,0,0,0,1.14.4,1.66,1.66,0,0,0,1.18-.39,1.48,1.48,0,0,0,.4-1.13A1.52,1.52,0,0,0,48,154a1.65,1.65,0,0,0-1.17-.39,1.56,1.56,0,0,0-1.15.42A1.62,1.62,0,0,0,45.26,155.24Z"/><path d="M54.69,159.44l-.14-1h0a2.88,2.88,0,0,1-.94.84,2.6,2.6,0,0,1-1.15.24,2,2,0,0,1-1.4-.46,1.66,1.66,0,0,1-.5-1.28,1.56,1.56,0,0,1,.75-1.38,3.93,3.93,0,0,1,2.15-.52l1.16,0v-.4a2.14,2.14,0,0,0-.35-1.32,1.4,1.4,0,0,0-1.14-.44,3.87,3.87,0,0,0-1.76.47l-.21-.48a4.59,4.59,0,0,1,2-.47,2,2,0,0,1,1.5.52,2.3,2.3,0,0,1,.5,1.63v4.06Zm-2.25-.4a1.94,1.94,0,0,0,2.11-2.11v-.6l-1.07,0a4,4,0,0,0-1.83.4,1.3,1.3,0,0,0-.2,1.95A1.45,1.45,0,0,0,52.44,159Z"/><path d="M64.7,159.44v-4a1.94,1.94,0,0,0-.35-1.3,1.31,1.31,0,0,0-1.06-.41,1.73,1.73,0,0,0-1.39.52,2.41,2.41,0,0,0-.45,1.62v3.58h-.57v-4.17c0-1-.47-1.55-1.41-1.55a1.68,1.68,0,0,0-1.4.56,2.92,2.92,0,0,0-.44,1.79v3.37h-.55v-6.11h.46l.11.84h0a1.74,1.74,0,0,1,.72-.7,2.08,2.08,0,0,1,1-.25,1.76,1.76,0,0,1,1.86,1.08h0a2.05,2.05,0,0,1,.8-.8,2.29,2.29,0,0,1,1.14-.28,1.93,1.93,0,0,1,1.5.53,2.38,2.38,0,0,1,.5,1.7v4Z"/><path d="M66.21,153.33h.57l1.29,3.43q.59,1.58.75,2.13h0c.16-.49.41-1.21.77-2.16l1.29-3.4h.57l-2.73,7.1a5.42,5.42,0,0,1-.56,1.16,1.41,1.41,0,0,1-.52.46,1.61,1.61,0,0,1-.73.15,2.45,2.45,0,0,1-.71-.12v-.48a2.63,2.63,0,0,0,.7.09,1,1,0,0,0,.51-.14,1.29,1.29,0,0,0,.39-.41,5,5,0,0,0,.41-.9c.16-.41.26-.68.3-.8Z"/><path d="M77.9,153.22a5,5,0,0,1,.83.07l-.11.54a3,3,0,0,0-.79-.1,1.54,1.54,0,0,0-1.28.66,2.75,2.75,0,0,0-.5,1.68v3.37h-.56v-6.11H76l0,1.1h0a2.66,2.66,0,0,1,.8-.94A1.92,1.92,0,0,1,77.9,153.22Z"/><path d="M85,156.38a3.42,3.42,0,0,1-.73,2.33,2.5,2.5,0,0,1-2,.84,2.58,2.58,0,0,1-1.41-.39,2.51,2.51,0,0,1-.94-1.11,4,4,0,0,1-.32-1.67,3.46,3.46,0,0,1,.72-2.33,2.48,2.48,0,0,1,2-.83,2.45,2.45,0,0,1,2,.84A3.46,3.46,0,0,1,85,156.38Zm-4.82,0a3.09,3.09,0,0,0,.55,2,2.1,2.1,0,0,0,3.13,0,3.77,3.77,0,0,0,0-3.92,1.91,1.91,0,0,0-1.58-.7,1.84,1.84,0,0,0-1.55.7A3,3,0,0,0,80.2,156.38Zm1.55-4q.41-.45.81-1a7,7,0,0,0,.55-.79h.79v.09a5,5,0,0,1-.69.78c-.32.32-.68.64-1.07,1h-.39Z"/><path d="M91.59,159.44l-1.34-4.08c-.08-.28-.2-.69-.33-1.22h0l-.12.41-.25.82-1.36,4.07h-.55l-1.75-6.11h.6l1,3.54c.23.88.38,1.52.45,1.93h0c.22-.87.38-1.46.48-1.74l1.26-3.73h.5l1.2,3.71c.27.88.43,1.47.49,1.75h0c0-.24.18-.89.45-1.95l.94-3.51h.56l-1.66,6.11Z"/><path d="M99.28,159.44v-4a1.93,1.93,0,0,0-.39-1.34,1.56,1.56,0,0,0-1.2-.42,2.11,2.11,0,0,0-1.6.55,2.62,2.62,0,0,0-.51,1.8v3.37H95v-6.11h.48l.1.84h0a2.27,2.27,0,0,1,2.11-.95c1.39,0,2.08.74,2.08,2.23v4Z"/><path d="M101.73,151.64c0-.36.12-.54.35-.54a.31.31,0,0,1,.27.14.66.66,0,0,1,.1.4.68.68,0,0,1-.1.4.31.31,0,0,1-.27.14C101.85,152.18,101.73,152,101.73,151.64Zm.63,7.8h-.55v-6.11h.55Z"/><path d="M106.87,159.55a2.62,2.62,0,0,1-2.07-.82,3.28,3.28,0,0,1-.75-2.3,3.59,3.59,0,0,1,.72-2.34,2.39,2.39,0,0,1,1.94-.87,2.08,2.08,0,0,1,1.7.75,3.07,3.07,0,0,1,.62,2v.45h-4.39a2.86,2.86,0,0,0,.58,1.92,2.09,2.09,0,0,0,1.65.66,5,5,0,0,0,.92-.07,5.67,5.67,0,0,0,1-.31v.5a4.75,4.75,0,0,1-1,.31A5.77,5.77,0,0,1,106.87,159.55Zm-.16-5.84a1.83,1.83,0,0,0-1.42.58,2.79,2.79,0,0,0-.62,1.68h3.77a2.64,2.64,0,0,0-.46-1.66A1.5,1.5,0,0,0,106.71,153.71Z"/><path d="M114.51,159.44h-4.35v-.36l3.62-5.25h-3.36v-.5h4.08v.36l-3.64,5.25h3.65Zm-2.42-7.8q0-.54.36-.54a.33.33,0,0,1,.27.14.74.74,0,0,1,.09.4.76.76,0,0,1-.09.4.33.33,0,0,1-.27.14Q112.09,152.18,112.09,151.64Z"/><path d="M20.14,173.24l-1.34-4.08c-.08-.28-.19-.69-.33-1.22h0l-.12.41-.25.82-1.36,4.07h-.55l-1.75-6.11H15l1,3.54c.23.88.38,1.52.45,1.93h0c.22-.87.38-1.46.48-1.74l1.26-3.73h.5l1.2,3.71c.27.88.43,1.47.49,1.75h0q0-.36.45-2l.93-3.51h.56l-1.66,6.11Z"/><path d="M27.36,171.65a1.46,1.46,0,0,1-.62,1.26,3.09,3.09,0,0,1-1.77.44A4.2,4.2,0,0,1,23,173v-.6a4.23,4.23,0,0,0,1.94.46,2.55,2.55,0,0,0,1.37-.3.91.91,0,0,0,.47-.8,1,1,0,0,0-.37-.77,4.07,4.07,0,0,0-1.23-.62,7.08,7.08,0,0,1-1.29-.57,1.77,1.77,0,0,1-.55-.54,1.3,1.3,0,0,1-.19-.73,1.27,1.27,0,0,1,.57-1.09,2.86,2.86,0,0,1,1.61-.39,4.78,4.78,0,0,1,1.88.37l-.21.5a4.37,4.37,0,0,0-1.67-.37,2.33,2.33,0,0,0-1.18.25.74.74,0,0,0-.44.68,1,1,0,0,0,.34.77,4.79,4.79,0,0,0,1.33.64,6.61,6.61,0,0,1,1.2.53,1.71,1.71,0,0,1,.56.54A1.34,1.34,0,0,1,27.36,171.65Z"/><path d="M32.73,173.24H28.37v-.36L32,167.63H28.64v-.5h4.08v.36l-3.65,5.25h3.66Z"/><path d="M36.7,173.35a2.66,2.66,0,0,1-2.08-.82,3.33,3.33,0,0,1-.74-2.3,3.59,3.59,0,0,1,.72-2.34,2.38,2.38,0,0,1,1.94-.87,2.1,2.1,0,0,1,1.7.75,3.12,3.12,0,0,1,.62,2v.45h-4.4a2.91,2.91,0,0,0,.59,1.92,2.06,2.06,0,0,0,1.65.66,5.07,5.07,0,0,0,.92-.07,5.94,5.94,0,0,0,1-.31v.5a5,5,0,0,1-.95.31A5.86,5.86,0,0,1,36.7,173.35Zm-.16-5.84a1.83,1.83,0,0,0-1.42.58,2.79,2.79,0,0,0-.62,1.68h3.77a2.64,2.64,0,0,0-.46-1.66A1.52,1.52,0,0,0,36.54,167.51Z"/><path d="M41.1,173.24h-.55V164.5h.55Z"/><path d="M43.69,170.56l3.12-3.43h.67l-2.4,2.61,2.61,3.5H47l-2.32-3.09-1,.91v2.18h-.55V164.5h.55v4.38l0,1.68Z"/><path d="M48.63,165.44c0-.36.12-.54.35-.54a.34.34,0,0,1,.28.14.74.74,0,0,1,.1.4.76.76,0,0,1-.1.4A.34.34,0,0,1,49,166C48.75,166,48.63,165.8,48.63,165.44Zm.64,7.8h-.56v-6.11h.56Z"/><path d="M58.93,173.24v-4a2,2,0,0,0-.34-1.3,1.35,1.35,0,0,0-1.07-.41,1.73,1.73,0,0,0-1.39.52,2.41,2.41,0,0,0-.45,1.62v3.58h-.56v-4.17c0-1-.48-1.55-1.42-1.55a1.68,1.68,0,0,0-1.4.56,2.93,2.93,0,0,0-.43,1.79v3.37h-.56v-6.11h.46l.12.84h0a1.74,1.74,0,0,1,.72-.7,2.09,2.09,0,0,1,1-.25,1.75,1.75,0,0,1,1.85,1.08h0a2.05,2.05,0,0,1,.8-.8,2.3,2.3,0,0,1,1.15-.28,2,2,0,0,1,1.5.53,2.43,2.43,0,0,1,.5,1.7v4Z"/><path d="M69.5,170.18a3.42,3.42,0,0,1-.73,2.33,2.5,2.5,0,0,1-2,.84,2.58,2.58,0,0,1-1.41-.39,2.51,2.51,0,0,1-.94-1.11,4,4,0,0,1-.33-1.67,3.46,3.46,0,0,1,.73-2.33,2.76,2.76,0,0,1,4,0A3.46,3.46,0,0,1,69.5,170.18Zm-4.82,0a3.09,3.09,0,0,0,.55,2,2.1,2.1,0,0,0,3.13,0,3.09,3.09,0,0,0,.55-2,3,3,0,0,0-.56-2,2.1,2.1,0,0,0-3.12,0A3.1,3.1,0,0,0,64.68,170.18Z"/><path d="M73.59,167a4.89,4.89,0,0,1,.83.07l-.11.54a2.9,2.9,0,0,0-.79-.1,1.55,1.55,0,0,0-1.28.66,2.75,2.75,0,0,0-.5,1.68v3.37h-.55v-6.11h.47l0,1.1h0a2.67,2.67,0,0,1,.81-.94A1.88,1.88,0,0,1,73.59,167Z"/><path d="M80.42,167.13v.39l-1.26.08a2.15,2.15,0,0,1,.51,1.38,1.88,1.88,0,0,1-.59,1.43,2.2,2.2,0,0,1-1.57.55,2.69,2.69,0,0,1-.59,0,1.51,1.51,0,0,0-.5.41.83.83,0,0,0-.18.5.48.48,0,0,0,.22.43,1.53,1.53,0,0,0,.75.14h1.06a2.49,2.49,0,0,1,1.53.4,1.38,1.38,0,0,1,.52,1.18,1.68,1.68,0,0,1-.78,1.49,3.91,3.91,0,0,1-2.23.53,3.1,3.1,0,0,1-1.78-.44,1.42,1.42,0,0,1-.64-1.24,1.44,1.44,0,0,1,.39-1,2,2,0,0,1,1.06-.57,1.14,1.14,0,0,1-.44-.33.81.81,0,0,1-.16-.5,1.31,1.31,0,0,1,.78-1.08,1.72,1.72,0,0,1-.83-.69,2.11,2.11,0,0,1,.28-2.54,2.18,2.18,0,0,1,1.57-.55,2.87,2.87,0,0,1,.93.11Zm-4.94,7.14c0,.84.63,1.26,1.87,1.26,1.61,0,2.41-.51,2.41-1.53a.88.88,0,0,0-.38-.8,2.25,2.25,0,0,0-1.22-.25h-1Q75.48,173,75.48,174.27ZM76,169a1.37,1.37,0,0,0,.43,1.09,1.9,1.9,0,0,0,2.32,0,1.5,1.5,0,0,0,.4-1.13,1.55,1.55,0,0,0-.41-1.17,1.65,1.65,0,0,0-1.17-.39,1.55,1.55,0,0,0-1.15.42A1.58,1.58,0,0,0,76,169Z"/><path d="M85.38,173.24l-.14-1h0a3,3,0,0,1-1,.84,2.57,2.57,0,0,1-1.15.24,2,2,0,0,1-1.4-.46,1.66,1.66,0,0,1-.49-1.28,1.56,1.56,0,0,1,.74-1.38,3.93,3.93,0,0,1,2.15-.52l1.16,0v-.4a2.08,2.08,0,0,0-.35-1.32,1.39,1.39,0,0,0-1.14-.44A3.9,3.9,0,0,0,82,168l-.2-.48a4.55,4.55,0,0,1,2-.47,2,2,0,0,1,1.51.52,2.3,2.3,0,0,1,.49,1.63v4.06Zm-2.24-.4a2.1,2.1,0,0,0,1.54-.55,2.13,2.13,0,0,0,.56-1.56v-.6l-1.07.05a4,4,0,0,0-1.83.4,1.16,1.16,0,0,0-.55,1.06,1.12,1.12,0,0,0,.36.89A1.42,1.42,0,0,0,83.14,172.84Z"/><path d="M92,173.24v-4a1.93,1.93,0,0,0-.39-1.34,1.56,1.56,0,0,0-1.2-.42,2.13,2.13,0,0,0-1.61.55,2.62,2.62,0,0,0-.5,1.8v3.37h-.56v-6.11h.47l.11.84h0A2.29,2.29,0,0,1,90.5,167c1.38,0,2.08.74,2.08,2.23v4Z"/><path d="M94.47,165.44q0-.54.36-.54a.33.33,0,0,1,.27.14.66.66,0,0,1,.1.4.68.68,0,0,1-.1.4.33.33,0,0,1-.27.14Q94.47,166,94.47,165.44Zm.64,7.8h-.56v-6.11h.56Z"/><path d="M101,173.24H96.59v-.36l3.62-5.25H96.85v-.5h4.09v.36l-3.65,5.25H101Z"/><path d="M106.16,173.24l-.14-1h0a2.88,2.88,0,0,1-.94.84,2.6,2.6,0,0,1-1.15.24,2,2,0,0,1-1.4-.46,1.66,1.66,0,0,1-.5-1.28,1.58,1.58,0,0,1,.74-1.38,4,4,0,0,1,2.16-.52l1.16,0v-.4a2.14,2.14,0,0,0-.35-1.32,1.4,1.4,0,0,0-1.14-.44,3.87,3.87,0,0,0-1.76.47l-.21-.48a4.56,4.56,0,0,1,2-.47,2,2,0,0,1,1.5.52,2.3,2.3,0,0,1,.5,1.63v4.06Zm-2.25-.4a1.94,1.94,0,0,0,2.11-2.11v-.6l-1.07.05a3.93,3.93,0,0,0-1.83.4,1.3,1.3,0,0,0-.2,1.95A1.45,1.45,0,0,0,103.91,172.84Z"/><path d="M111,173.35a2.63,2.63,0,0,1-2-.83,3.33,3.33,0,0,1-.74-2.3,3.39,3.39,0,0,1,.77-2.36,2.72,2.72,0,0,1,2.11-.84,4.29,4.29,0,0,1,1.51.27l-.15.5a4.39,4.39,0,0,0-1.37-.27,2.12,2.12,0,0,0-1.71.69,3.09,3.09,0,0,0-.57,2,3,3,0,0,0,.57,1.94,2,2,0,0,0,1.62.69,4,4,0,0,0,1.55-.29v.51A3.52,3.52,0,0,1,111,173.35Z"/><path d="M113.2,176a1.88,1.88,0,0,1-.76-.14v-.48a2.8,2.8,0,0,0,.72.11c.57,0,.85-.33.85-1v-7.37h.56v7.29a1.71,1.71,0,0,1-.36,1.17A1.29,1.29,0,0,1,113.2,176Zm.73-10.56c0-.36.12-.54.35-.54a.34.34,0,0,1,.28.14.74.74,0,0,1,.1.4.76.76,0,0,1-.1.4.34.34,0,0,1-.28.14C114.05,166,113.93,165.8,113.93,165.44Z"/><path d="M121.66,170.18a3.42,3.42,0,0,1-.73,2.33,2.5,2.5,0,0,1-2,.84,2.58,2.58,0,0,1-1.41-.39,2.51,2.51,0,0,1-.94-1.11,4,4,0,0,1-.32-1.67,3.46,3.46,0,0,1,.72-2.33,2.48,2.48,0,0,1,2-.83,2.45,2.45,0,0,1,2,.84A3.46,3.46,0,0,1,121.66,170.18Zm-4.82,0a3.09,3.09,0,0,0,.55,2,2.1,2.1,0,0,0,3.13,0,3.09,3.09,0,0,0,.55-2,3,3,0,0,0-.56-2,1.87,1.87,0,0,0-1.57-.7,1.86,1.86,0,0,0-1.55.69A3.1,3.1,0,0,0,116.84,170.18Z"/><path d="M131,173.24v-4a1.94,1.94,0,0,0-.35-1.3,1.31,1.31,0,0,0-1.06-.41,1.73,1.73,0,0,0-1.39.52,2.41,2.41,0,0,0-.45,1.62v3.58h-.57v-4.17c0-1-.47-1.55-1.41-1.55a1.68,1.68,0,0,0-1.4.56,2.92,2.92,0,0,0-.44,1.79v3.37h-.55v-6.11h.46l.12.84h0a1.74,1.74,0,0,1,.72-.7,2.09,2.09,0,0,1,1-.25,1.75,1.75,0,0,1,1.85,1.08h0a2.05,2.05,0,0,1,.8-.8,2.29,2.29,0,0,1,1.14-.28,1.93,1.93,0,0,1,1.5.53,2.38,2.38,0,0,1,.5,1.7v4Z"/><path d="M17.87,187.15a2.21,2.21,0,0,1-2.05-1.06h0v.48c0,.27,0,.58,0,.9v2.33h-.56v-8.87h.47l.11.87h0a2.2,2.2,0,0,1,2-1,2.28,2.28,0,0,1,1.89.81,3.73,3.73,0,0,1,.64,2.36,3.54,3.54,0,0,1-.68,2.33A2.28,2.28,0,0,1,17.87,187.15Zm0-.49a1.71,1.71,0,0,0,1.45-.7,3.23,3.23,0,0,0,.51-2c0-1.79-.64-2.69-1.94-2.69a1.93,1.93,0,0,0-1.56.59,2.89,2.89,0,0,0-.5,1.91V184a3.36,3.36,0,0,0,.48,2A1.86,1.86,0,0,0,17.86,186.66Z"/><path d="M27.15,184a3.47,3.47,0,0,1-.72,2.33,2.5,2.5,0,0,1-2,.84,2.59,2.59,0,0,1-1.42-.39,2.49,2.49,0,0,1-.93-1.11,4,4,0,0,1-.33-1.67,3.46,3.46,0,0,1,.72-2.33,2.5,2.5,0,0,1,2-.83,2.47,2.47,0,0,1,2,.84A3.51,3.51,0,0,1,27.15,184Zm-4.82,0a3.09,3.09,0,0,0,.56,2,2.1,2.1,0,0,0,3.13,0,3.15,3.15,0,0,0,.55-2,3.05,3.05,0,0,0-.56-2,2.11,2.11,0,0,0-3.13,0A3.16,3.16,0,0,0,22.33,184Z"/><path d="M32.64,187H28.28v-.36l3.62-5.25H28.55v-.5h4.08v.36L29,186.54h3.66Z"/><path d="M37.85,187l-.14-1h-.05a3,3,0,0,1-.94.84,2.6,2.6,0,0,1-1.15.24,2,2,0,0,1-1.4-.46,1.66,1.66,0,0,1-.5-1.28,1.56,1.56,0,0,1,.75-1.38,4,4,0,0,1,2.15-.53l1.16,0v-.4a2.14,2.14,0,0,0-.35-1.32,1.4,1.4,0,0,0-1.14-.44,3.87,3.87,0,0,0-1.76.47l-.21-.48a4.59,4.59,0,0,1,2-.47,2,2,0,0,1,1.5.52,2.3,2.3,0,0,1,.5,1.63V187Zm-2.25-.4a2,2,0,0,0,2.11-2.11v-.6l-1.07,0a4,4,0,0,0-1.83.4,1.3,1.3,0,0,0-.2,2A1.45,1.45,0,0,0,35.6,186.64Z"/><path d="M42.64,180.82a5,5,0,0,1,.83.07l-.11.54a2.9,2.9,0,0,0-.79-.1,1.55,1.55,0,0,0-1.28.66,2.75,2.75,0,0,0-.5,1.68V187h-.55v-6.11h.47l0,1.1h0a2.5,2.5,0,0,1,.81-.94A1.88,1.88,0,0,1,42.64,180.82Z"/><path d="M48.51,187H44.15v-.36l3.62-5.25H44.41v-.5H48.5v.36l-3.65,5.25h3.66Z"/><path d="M53.33,188.43c0,.41.19.62.59.62a1.24,1.24,0,0,0,.46-.07v.47a1.57,1.57,0,0,1-.58.09,1,1,0,0,1-.75-.27,1,1,0,0,1-.28-.75,1.54,1.54,0,0,1,.22-.78,3,3,0,0,1,.72-.78l-.13-.89h0a3,3,0,0,1-.94.84,2.6,2.6,0,0,1-1.15.24,2,2,0,0,1-1.4-.46,1.66,1.66,0,0,1-.5-1.28,1.56,1.56,0,0,1,.75-1.38,4,4,0,0,1,2.15-.53l1.16,0v-.4a2.14,2.14,0,0,0-.35-1.32,1.4,1.4,0,0,0-1.14-.44,3.87,3.87,0,0,0-1.76.47l-.21-.48a4.56,4.56,0,0,1,2-.47,2,2,0,0,1,1.5.52,2.3,2.3,0,0,1,.5,1.63V187a3.3,3.3,0,0,0-.61.67A1.34,1.34,0,0,0,53.33,188.43Zm-1.86-1.79a2,2,0,0,0,2.11-2.11v-.6l-1.07,0a3.93,3.93,0,0,0-1.83.4,1.3,1.3,0,0,0-.2,2A1.43,1.43,0,0,0,51.47,186.64Z"/><path d="M58.34,180.82a2.6,2.6,0,0,1,1.15.24,2.22,2.22,0,0,1,.86.82h0q0-.7,0-1.38v-2.2h.55V187h-.36l-.14-.93h0a2.26,2.26,0,0,1-2,1,2.38,2.38,0,0,1-1.93-.79,3.4,3.4,0,0,1-.67-2.29,3.85,3.85,0,0,1,.66-2.42A2.32,2.32,0,0,1,58.34,180.82Zm0,.5a1.71,1.71,0,0,0-1.5.7,3.45,3.45,0,0,0-.5,2c0,1.73.67,2.6,2,2.6a1.81,1.81,0,0,0,1.52-.61,3.2,3.2,0,0,0,.48-2V184a3.44,3.44,0,0,0-.47-2A1.83,1.83,0,0,0,58.34,181.32Z"/><path d="M68,184a3.42,3.42,0,0,1-.73,2.33,2.5,2.5,0,0,1-2,.84,2.58,2.58,0,0,1-1.41-.39,2.51,2.51,0,0,1-.94-1.11A4.15,4.15,0,0,1,62.6,184a3.46,3.46,0,0,1,.72-2.33,2.48,2.48,0,0,1,2-.83,2.45,2.45,0,0,1,2,.84A3.46,3.46,0,0,1,68,184Zm-4.82,0a3.09,3.09,0,0,0,.55,2,2.1,2.1,0,0,0,3.13,0,3.09,3.09,0,0,0,.55-2,3,3,0,0,0-.55-2,1.9,1.9,0,0,0-1.57-.7,1.86,1.86,0,0,0-1.56.69A3.1,3.1,0,0,0,63.18,184Z"/><path d="M74.57,187,73.23,183c-.08-.28-.19-.69-.33-1.22h0l-.12.41-.25.82L71.14,187h-.55l-1.75-6.11h.6l1,3.54c.23.88.38,1.52.45,1.93h0c.22-.87.38-1.46.48-1.74l1.26-3.73h.5l1.2,3.71c.27.88.43,1.47.49,1.75h0c0-.24.18-.89.44-1.95l.94-3.51h.56L75.15,187Z"/><path d="M77,180.93h.58l1.29,3.43c.39,1,.64,1.76.74,2.13h0c.15-.49.41-1.21.77-2.16l1.29-3.4h.57L79.53,188a5.42,5.42,0,0,1-.56,1.16,1.41,1.41,0,0,1-.52.46,1.64,1.64,0,0,1-.73.15,2.45,2.45,0,0,1-.71-.12v-.48a2.58,2.58,0,0,0,.7.09.92.92,0,0,0,.5-.14,1.31,1.31,0,0,0,.4-.41,5.8,5.8,0,0,0,.41-.9c.15-.41.25-.68.3-.8Z"/><path d="M90.91,187v-4a2,2,0,0,0-.35-1.3,1.34,1.34,0,0,0-1.07-.41,1.72,1.72,0,0,0-1.38.52,2.41,2.41,0,0,0-.45,1.62V187h-.57v-4.17c0-1-.47-1.55-1.42-1.55a1.66,1.66,0,0,0-1.39.56,2.86,2.86,0,0,0-.44,1.79V187h-.56v-6.11h.46l.12.84h0a1.74,1.74,0,0,1,.72-.7,2.12,2.12,0,0,1,1-.25,1.75,1.75,0,0,1,1.85,1.08h0a1.93,1.93,0,0,1,.8-.8,2.24,2.24,0,0,1,1.14-.28,1.93,1.93,0,0,1,1.5.53,2.42,2.42,0,0,1,.5,1.69v4Z"/><path d="M96.34,179.24q0-.54.36-.54a.33.33,0,0,1,.27.14.66.66,0,0,1,.1.4.68.68,0,0,1-.1.4.33.33,0,0,1-.27.14Q96.34,179.78,96.34,179.24ZM97,187h-.56v-6.11H97Z"/><path d="M104.45,187.15a2.6,2.6,0,0,1-2-.83,3.28,3.28,0,0,1-.74-2.3,3.38,3.38,0,0,1,.76-2.36,2.73,2.73,0,0,1,2.11-.84,4.35,4.35,0,0,1,1.52.27l-.15.49a4.65,4.65,0,0,0-1.38-.26,2.08,2.08,0,0,0-1.7.69,3,3,0,0,0-.58,2,3,3,0,0,0,.58,1.94,2,2,0,0,0,1.61.69,4.15,4.15,0,0,0,1.55-.29v.51A3.51,3.51,0,0,1,104.45,187.15Z"/><path d="M111.73,187v-4a1.92,1.92,0,0,0-.39-1.34,1.56,1.56,0,0,0-1.2-.42,2.07,2.07,0,0,0-1.6.55,2.62,2.62,0,0,0-.51,1.8V187h-.56V178.3H108v2.78l0,.78h0a2.08,2.08,0,0,1,.87-.8,3.06,3.06,0,0,1,1.29-.24c1.39,0,2.08.74,2.08,2.22v4Z"/><path d="M118,187l-.14-1h0a3.14,3.14,0,0,1-1,.84,2.57,2.57,0,0,1-1.15.24,2,2,0,0,1-1.4-.46,1.66,1.66,0,0,1-.49-1.28,1.56,1.56,0,0,1,.74-1.38,4,4,0,0,1,2.15-.53l1.16,0v-.4a2.08,2.08,0,0,0-.35-1.32,1.37,1.37,0,0,0-1.14-.44,3.9,3.9,0,0,0-1.76.47l-.2-.48a4.55,4.55,0,0,1,2-.47,2,2,0,0,1,1.51.52,2.3,2.3,0,0,1,.49,1.63V187Zm-2.24-.4a1.94,1.94,0,0,0,2.1-2.11v-.6l-1.06,0a4,4,0,0,0-1.84.4,1.16,1.16,0,0,0-.55,1.06,1.12,1.12,0,0,0,.36.89A1.42,1.42,0,0,0,115.72,186.64Z"/><path d="M122.75,180.82a4.89,4.89,0,0,1,.83.07l-.1.54a3,3,0,0,0-.8-.1,1.53,1.53,0,0,0-1.27.66,2.68,2.68,0,0,0-.5,1.68V187h-.56v-6.11h.47l.06,1.1h0a2.48,2.48,0,0,1,.8-.94A1.88,1.88,0,0,1,122.75,180.82Z"/><path d="M123.8,180.93h.58l1.29,3.43c.39,1,.64,1.76.74,2.13h0c.15-.49.41-1.21.77-2.16l1.29-3.4h.57l-2.73,7.1a5.42,5.42,0,0,1-.56,1.16,1.41,1.41,0,0,1-.52.46,1.64,1.64,0,0,1-.73.15,2.45,2.45,0,0,1-.71-.12v-.48a2.58,2.58,0,0,0,.7.09.92.92,0,0,0,.5-.14,1.31,1.31,0,0,0,.4-.41,5.8,5.8,0,0,0,.41-.9c.15-.41.25-.68.3-.8Z"/><path d="M129.6,184.16v-.46h2.66v.46Z"/><path d="M16.87,200.46a4.85,4.85,0,0,0,.92-.09v.44a2.93,2.93,0,0,1-.93.14,1.53,1.53,0,0,1-1.19-.43,2,2,0,0,1-.39-1.36v-3.94h-.9v-.33l.9-.25.28-1.38h.29v1.47h1.79v.49H15.85v3.86a1.73,1.73,0,0,0,.25,1A.9.9,0,0,0,16.87,200.46Z"/><path d="M22.82,200.84l-.14-1h-.05a3,3,0,0,1-.94.84,2.6,2.6,0,0,1-1.15.24,2,2,0,0,1-1.4-.46,1.66,1.66,0,0,1-.5-1.28,1.58,1.58,0,0,1,.74-1.38,4.08,4.08,0,0,1,2.16-.53l1.16,0v-.4a2.14,2.14,0,0,0-.35-1.32,1.4,1.4,0,0,0-1.14-.44,3.84,3.84,0,0,0-1.76.47l-.21-.48a4.56,4.56,0,0,1,2-.47,2,2,0,0,1,1.5.52,2.3,2.3,0,0,1,.5,1.63v4.06Zm-2.25-.4a2,2,0,0,0,2.11-2.11v-.6l-1.07.05a3.93,3.93,0,0,0-1.83.4,1.3,1.3,0,0,0-.2,1.95A1.42,1.42,0,0,0,20.57,200.44Z"/><path d="M26.82,200.46a4.94,4.94,0,0,0,.92-.09v.44a3,3,0,0,1-.94.14,1.54,1.54,0,0,1-1.19-.43,2,2,0,0,1-.38-1.36v-3.94h-.91v-.33l.91-.25.28-1.38h.28v1.47h1.8v.49h-1.8v3.86a1.81,1.81,0,0,0,.25,1A.92.92,0,0,0,26.82,200.46Z"/><path d="M28,194.73h.58l1.29,3.43q.59,1.58.75,2.13h0c.16-.49.41-1.21.77-2.17l1.29-3.39h.57l-2.73,7.1A5.42,5.42,0,0,1,30,203a1.41,1.41,0,0,1-.52.46,1.64,1.64,0,0,1-.73.15,2.45,2.45,0,0,1-.71-.12V203a2.58,2.58,0,0,0,.7.09.92.92,0,0,0,.5-.14,1.31,1.31,0,0,0,.4-.41,5.8,5.8,0,0,0,.41-.9c.15-.41.26-.68.3-.8Z"/><path d="M39.21,200.84l-1.33-4.09c-.09-.27-.2-.68-.33-1.21h0l-.12.41-.25.82-1.36,4.07h-.55l-1.74-6.11h.59l1,3.54c.23.88.38,1.52.45,1.93h0c.22-.87.38-1.46.48-1.74l1.26-3.73h.51L39,198.44c.27.88.44,1.47.5,1.75h0q0-.36.45-1.95l.93-3.51h.56l-1.65,6.11Z"/><path d="M46.91,200.84v-4a1.92,1.92,0,0,0-.39-1.34,1.56,1.56,0,0,0-1.2-.42,2.09,2.09,0,0,0-1.61.55,2.67,2.67,0,0,0-.5,1.8v3.37h-.56v-6.11h.47l.11.84h0a2.29,2.29,0,0,1,2.12-.95c1.38,0,2.08.74,2.08,2.22v4Z"/><path d="M48.41,194.73H49l1.3,3.43c.39,1.05.64,1.76.74,2.13h0c.15-.49.41-1.21.77-2.17l1.29-3.39h.57L51,201.83A6,6,0,0,1,50.4,203a1.44,1.44,0,0,1-.53.46,1.59,1.59,0,0,1-.72.15,2.52,2.52,0,0,1-.72-.12V203a2.65,2.65,0,0,0,.71.09.92.92,0,0,0,.5-.14,1.31,1.31,0,0,0,.4-.41,5.8,5.8,0,0,0,.41-.9c.15-.41.25-.68.3-.8Z"/><path d="M62.34,200.84v-4a2,2,0,0,0-.35-1.3,1.34,1.34,0,0,0-1.07-.41,1.72,1.72,0,0,0-1.38.52,2.41,2.41,0,0,0-.45,1.62v3.58h-.57v-4.17c0-1-.47-1.55-1.42-1.55a1.66,1.66,0,0,0-1.39.56,2.86,2.86,0,0,0-.44,1.79v3.37h-.56v-6.11h.46l.12.84h0a1.74,1.74,0,0,1,.72-.7,2.12,2.12,0,0,1,1-.25,1.75,1.75,0,0,1,1.85,1.08h0a1.93,1.93,0,0,1,.8-.8,2.24,2.24,0,0,1,1.14-.28,2,2,0,0,1,1.5.53,2.42,2.42,0,0,1,.5,1.69v4Z"/><path d="M65.5,199.5l.07.12a18.84,18.84,0,0,1-1,2.7h-.37a21.77,21.77,0,0,0,.62-2.82Z"/><path d="M70.87,198.16,74,194.73h.68l-2.41,2.61,2.61,3.5H74.2l-2.32-3.09-1,.91v2.18h-.56V192.1h.56v4.38l0,1.68Z"/><path d="M77.5,200.46a4.85,4.85,0,0,0,.92-.09v.44a2.93,2.93,0,0,1-.93.14,1.57,1.57,0,0,1-1.2-.43,2,2,0,0,1-.38-1.36v-3.94H75v-.33l.9-.25.28-1.38h.29v1.47h1.79v.49H76.48v3.86a1.82,1.82,0,0,0,.24,1A.93.93,0,0,0,77.5,200.46Z"/><path d="M84.79,197.78a3.48,3.48,0,0,1-.73,2.33,2.5,2.5,0,0,1-2,.84,2.58,2.58,0,0,1-1.41-.39,2.51,2.51,0,0,1-.94-1.11,4,4,0,0,1-.33-1.67,3.44,3.44,0,0,1,.73-2.33,2.76,2.76,0,0,1,4,0A3.46,3.46,0,0,1,84.79,197.78Zm-4.82,0a3.09,3.09,0,0,0,.55,2,2.1,2.1,0,0,0,3.13,0,3.09,3.09,0,0,0,.55-2,3,3,0,0,0-.56-2,1.87,1.87,0,0,0-1.57-.7,1.86,1.86,0,0,0-1.55.69A3.1,3.1,0,0,0,80,197.78Zm1.55-4q.41-.45.81-1a7,7,0,0,0,.55-.79h.79v.09a6.4,6.4,0,0,1-.69.78c-.32.32-.68.64-1.07,1h-.39Z"/><path d="M88.88,194.62a4.89,4.89,0,0,1,.83.07l-.11.54a2.9,2.9,0,0,0-.79-.1,1.55,1.55,0,0,0-1.28.66,2.75,2.75,0,0,0-.5,1.68v3.37h-.55v-6.11H87l0,1.1h0a2.5,2.5,0,0,1,.81-.94A1.88,1.88,0,0,1,88.88,194.62Z"/><path d="M93.42,201a2.66,2.66,0,0,1-2.08-.82,3.33,3.33,0,0,1-.74-2.3,3.59,3.59,0,0,1,.72-2.34,2.37,2.37,0,0,1,1.93-.87,2.12,2.12,0,0,1,1.71.75,3.12,3.12,0,0,1,.62,2v.45h-4.4a2.86,2.86,0,0,0,.59,1.92,2.06,2.06,0,0,0,1.65.66,5.14,5.14,0,0,0,.92-.07,5.94,5.94,0,0,0,1-.31v.5a5,5,0,0,1-1,.31A5.64,5.64,0,0,1,93.42,201Zm-.17-5.84a1.81,1.81,0,0,0-1.41.58,2.73,2.73,0,0,0-.62,1.68H95a2.64,2.64,0,0,0-.46-1.66A1.52,1.52,0,0,0,93.25,195.11Z"/><path d="M104.51,200.84v-4a1.92,1.92,0,0,0-.39-1.34,1.56,1.56,0,0,0-1.2-.42,2.09,2.09,0,0,0-1.61.55,2.67,2.67,0,0,0-.5,1.8v3.37h-.56v-6.11h.47l.11.84h0a2.29,2.29,0,0,1,2.12-.95c1.38,0,2.08.74,2.08,2.22v4Z"/><path d="M107,193c0-.36.11-.54.35-.54a.3.3,0,0,1,.27.14.66.66,0,0,1,.1.4.68.68,0,0,1-.1.4.32.32,0,0,1-.27.14C107.07,193.58,107,193.4,107,193Zm.63,7.8H107v-6.11h.56Z"/><path d="M112.1,201a2.66,2.66,0,0,1-2.08-.82,3.33,3.33,0,0,1-.74-2.3,3.59,3.59,0,0,1,.72-2.34,2.38,2.38,0,0,1,1.94-.87,2.11,2.11,0,0,1,1.7.75,3.12,3.12,0,0,1,.62,2v.45h-4.4a2.91,2.91,0,0,0,.59,1.92,2.06,2.06,0,0,0,1.65.66,5.07,5.07,0,0,0,.92-.07,5.94,5.94,0,0,0,1-.31v.5a4.82,4.82,0,0,1-1,.31A5.64,5.64,0,0,1,112.1,201Zm-.16-5.84a1.83,1.83,0,0,0-1.42.58,2.79,2.79,0,0,0-.62,1.68h3.77a2.64,2.64,0,0,0-.46-1.66A1.52,1.52,0,0,0,111.94,195.11Z"/><path d="M122.72,199.25a1.46,1.46,0,0,1-.63,1.26,3,3,0,0,1-1.77.44,4.23,4.23,0,0,1-1.94-.38V200a4.26,4.26,0,0,0,1.94.46,2.59,2.59,0,0,0,1.38-.3.91.91,0,0,0,.47-.8,1,1,0,0,0-.38-.77,4.12,4.12,0,0,0-1.22-.62,7.08,7.08,0,0,1-1.29-.57,1.82,1.82,0,0,1-.56-.54,1.39,1.39,0,0,1-.19-.73,1.28,1.28,0,0,1,.58-1.09,2.84,2.84,0,0,1,1.61-.39,4.73,4.73,0,0,1,1.87.37l-.2.5a4.37,4.37,0,0,0-1.67-.37,2.39,2.39,0,0,0-1.19.25.75.75,0,0,0-.44.68,1,1,0,0,0,.34.77,4.94,4.94,0,0,0,1.33.64,6.61,6.61,0,0,1,1.2.53,1.86,1.86,0,0,1,.57.54A1.4,1.4,0,0,1,122.72,199.25Z"/><path d="M127.6,202.23a.54.54,0,0,0,.6.62,1.27,1.27,0,0,0,.46-.07v.47a1.63,1.63,0,0,1-.59.09,1,1,0,0,1-.75-.27,1,1,0,0,1-.27-.75,1.54,1.54,0,0,1,.22-.78,2.91,2.91,0,0,1,.71-.78l-.13-.89h0a3,3,0,0,1-1,.84,2.54,2.54,0,0,1-1.15.24,2,2,0,0,1-1.39-.46,1.63,1.63,0,0,1-.5-1.28,1.56,1.56,0,0,1,.74-1.38,4,4,0,0,1,2.15-.53l1.17,0v-.4a2.08,2.08,0,0,0-.36-1.32,1.37,1.37,0,0,0-1.14-.44,3.83,3.83,0,0,0-1.75.47l-.21-.48a4.56,4.56,0,0,1,2-.47,2,2,0,0,1,1.5.52,2.3,2.3,0,0,1,.49,1.63v4.06a3,3,0,0,0-.6.67A1.34,1.34,0,0,0,127.6,202.23Zm-1.85-1.79a2.07,2.07,0,0,0,1.54-.56,2,2,0,0,0,.56-1.55v-.6l-1.06.05a4,4,0,0,0-1.84.4,1.16,1.16,0,0,0-.54,1.06,1.12,1.12,0,0,0,.35.89A1.42,1.42,0,0,0,125.75,200.44Z"/><path d="M16,214.64H15.4v-8.21h4.5V207H16v3.48h3.71V211H16Z"/><path d="M21.51,208.53v4a1.93,1.93,0,0,0,.39,1.34,1.6,1.6,0,0,0,1.2.41,2.11,2.11,0,0,0,1.61-.55,2.57,2.57,0,0,0,.51-1.79v-3.37h.55v6.11H25.3l-.1-.85h0a2.3,2.3,0,0,1-2.12,1c-1.39,0-2.09-.74-2.09-2.23v-4Z"/><path d="M32.07,214.64v-4a1.92,1.92,0,0,0-.39-1.34,1.53,1.53,0,0,0-1.2-.42,2.07,2.07,0,0,0-1.6.55,2.62,2.62,0,0,0-.51,1.8v3.37h-.55v-6.11h.47l.1.84h0a2.27,2.27,0,0,1,2.11-1c1.39,0,2.08.74,2.08,2.22v4Z"/><path d="M36.83,208.42a2.54,2.54,0,0,1,1.15.24,2.22,2.22,0,0,1,.86.82h0c0-.47,0-.93,0-1.39V205.9h.55v8.74H39l-.14-.93h0a2.26,2.26,0,0,1-2,1,2.38,2.38,0,0,1-1.93-.79,3.47,3.47,0,0,1-.67-2.29,3.85,3.85,0,0,1,.67-2.42A2.29,2.29,0,0,1,36.83,208.42Zm0,.5a1.73,1.73,0,0,0-1.5.7,3.53,3.53,0,0,0-.5,2c0,1.73.67,2.59,2,2.59a1.83,1.83,0,0,0,1.52-.6,3.2,3.2,0,0,0,.48-2v-.09a3.37,3.37,0,0,0-.47-2A1.83,1.83,0,0,0,36.83,208.92Z"/><path d="M45.15,214.64l-.14-1h0a2.84,2.84,0,0,1-.94.83,2.47,2.47,0,0,1-1.15.25,2,2,0,0,1-1.4-.46A1.66,1.66,0,0,1,41,213a1.56,1.56,0,0,1,.75-1.38,4,4,0,0,1,2.15-.53l1.16,0v-.4a2.14,2.14,0,0,0-.35-1.32,1.4,1.4,0,0,0-1.14-.44,3.87,3.87,0,0,0-1.76.47l-.21-.48a4.59,4.59,0,0,1,2-.47,2,2,0,0,1,1.5.52,2.3,2.3,0,0,1,.5,1.63v4.06Zm-2.25-.4A2,2,0,0,0,45,212.13v-.6l-1.07.05a4,4,0,0,0-1.83.4,1.14,1.14,0,0,0-.55,1.06,1.17,1.17,0,0,0,.35.89A1.45,1.45,0,0,0,42.9,214.24Z"/><path d="M50,214.75a2.63,2.63,0,0,1-2-.83,3.33,3.33,0,0,1-.74-2.3,3.39,3.39,0,0,1,.77-2.36,2.72,2.72,0,0,1,2.11-.84,4.25,4.25,0,0,1,1.51.27l-.15.49a4.59,4.59,0,0,0-1.37-.26,2.12,2.12,0,0,0-1.71.69,3.09,3.09,0,0,0-.57,2,3,3,0,0,0,.57,1.93,2,2,0,0,0,1.62.7,4.15,4.15,0,0,0,1.55-.29v.51A3.52,3.52,0,0,1,50,214.75Z"/><path d="M52.19,217.4a1.88,1.88,0,0,1-.76-.14v-.48a2.8,2.8,0,0,0,.72.11c.57,0,.85-.33.85-1v-7.37h.56v7.29A1.71,1.71,0,0,1,53.2,217,1.29,1.29,0,0,1,52.19,217.4Zm.73-10.56c0-.36.12-.54.35-.54a.31.31,0,0,1,.28.14.74.74,0,0,1,.1.4.76.76,0,0,1-.1.4.34.34,0,0,1-.28.14C53,207.38,52.92,207.2,52.92,206.84Z"/><path d="M59.31,214.64l-.14-1h-.05a2.86,2.86,0,0,1-.95.83,2.4,2.4,0,0,1-1.14.25,2,2,0,0,1-1.4-.46,1.63,1.63,0,0,1-.5-1.28,1.58,1.58,0,0,1,.74-1.38A4.08,4.08,0,0,1,58,211.1l1.16,0v-.4a2.08,2.08,0,0,0-.36-1.32,1.37,1.37,0,0,0-1.14-.44,3.83,3.83,0,0,0-1.75.47l-.21-.48a4.56,4.56,0,0,1,2-.47,2,2,0,0,1,1.5.52,2.3,2.3,0,0,1,.49,1.63v4.06Zm-2.25-.4a2,2,0,0,0,2.11-2.11v-.6l-1.07.05a4,4,0,0,0-1.84.4,1.16,1.16,0,0,0-.54,1.06,1.13,1.13,0,0,0,.35.89A1.42,1.42,0,0,0,57.06,214.24Z"/><path d="M69.32,214.64v-4a2,2,0,0,0-.35-1.3,1.34,1.34,0,0,0-1.07-.41,1.72,1.72,0,0,0-1.38.52,2.41,2.41,0,0,0-.45,1.62v3.58H65.5v-4.18c0-1-.47-1.54-1.42-1.54a1.66,1.66,0,0,0-1.39.56,2.86,2.86,0,0,0-.44,1.79v3.37h-.56v-6.11h.46l.12.84h0a1.74,1.74,0,0,1,.72-.7,2.12,2.12,0,0,1,1-.25,1.75,1.75,0,0,1,1.85,1.08h0a1.93,1.93,0,0,1,.8-.8,2.24,2.24,0,0,1,1.14-.28,1.93,1.93,0,0,1,1.5.53,2.42,2.42,0,0,1,.5,1.69v4Z"/><path d="M71.77,206.84c0-.36.11-.54.35-.54a.29.29,0,0,1,.27.14.66.66,0,0,1,.1.4.68.68,0,0,1-.1.4.31.31,0,0,1-.27.14C71.88,207.38,71.77,207.2,71.77,206.84Zm.63,7.8h-.56v-6.11h.56Z"/><path d="M74.33,214.2c0-.37.15-.55.45-.55s.46.18.46.55-.15.55-.46.55S74.33,214.57,74.33,214.2Z"/><path d="M84.84,212.52a2,2,0,0,1-.76,1.63,3.12,3.12,0,0,1-2,.6,6.28,6.28,0,0,1-2.31-.33v-.58a5.64,5.64,0,0,0,2.26.38,2.52,2.52,0,0,0,1.6-.46,1.47,1.47,0,0,0,.6-1.22,1.4,1.4,0,0,0-.2-.77,1.89,1.89,0,0,0-.64-.56,7.63,7.63,0,0,0-1.3-.54,4.41,4.41,0,0,1-1.74-.94,2,2,0,0,1,.24-2.84,2.85,2.85,0,0,1,1.86-.58,5.47,5.47,0,0,1,2.17.44l-.21.49a5.14,5.14,0,0,0-2-.43,2.3,2.3,0,0,0-1.45.43,1.37,1.37,0,0,0-.54,1.14,1.54,1.54,0,0,0,.16.75,1.63,1.63,0,0,0,.55.52,6.55,6.55,0,0,0,1.29.56,7.28,7.28,0,0,1,1.44.64,2.18,2.18,0,0,1,.71.71A2.06,2.06,0,0,1,84.84,212.52Z"/><path d="M89.75,216c0,.41.19.62.59.62a1.48,1.48,0,0,0,.46-.07v.47a1.57,1.57,0,0,1-.58.09,1,1,0,0,1-.75-.27,1,1,0,0,1-.28-.75,1.54,1.54,0,0,1,.22-.78,3,3,0,0,1,.72-.78l-.13-.89h0a2.84,2.84,0,0,1-.94.83,2.47,2.47,0,0,1-1.15.25,2,2,0,0,1-1.4-.46A1.66,1.66,0,0,1,86,213a1.58,1.58,0,0,1,.74-1.38,4.08,4.08,0,0,1,2.16-.53l1.16,0v-.4a2.14,2.14,0,0,0-.35-1.32,1.4,1.4,0,0,0-1.14-.44,3.87,3.87,0,0,0-1.76.47l-.21-.48a4.56,4.56,0,0,1,2-.47,2,2,0,0,1,1.5.52,2.3,2.3,0,0,1,.5,1.63v4.06a3.3,3.3,0,0,0-.61.67A1.34,1.34,0,0,0,89.75,216Zm-1.86-1.79A2,2,0,0,0,90,212.13v-.6l-1.07.05a3.93,3.93,0,0,0-1.83.4,1.14,1.14,0,0,0-.55,1.06,1.17,1.17,0,0,0,.35.89A1.42,1.42,0,0,0,87.89,214.24Z"/><path d="M97.12,214.25a5,5,0,0,0,.93-.08v.44a3,3,0,0,1-.94.14,1.54,1.54,0,0,1-1.19-.43,2,2,0,0,1-.38-1.36V209h-.91v-.33l.91-.25.28-1.38h.28v1.47h1.79V209H96.1v3.86a1.73,1.73,0,0,0,.25,1A.89.89,0,0,0,97.12,214.25Z"/><path d="M104.41,211.58a3.47,3.47,0,0,1-.72,2.33,2.5,2.5,0,0,1-2,.84,2.59,2.59,0,0,1-1.42-.39,2.49,2.49,0,0,1-.93-1.11,4,4,0,0,1-.33-1.67,3.39,3.39,0,0,1,.73-2.33,2.77,2.77,0,0,1,4,0A3.51,3.51,0,0,1,104.41,211.58Zm-4.82,0a3.09,3.09,0,0,0,.56,2,2.1,2.1,0,0,0,3.13,0,3.15,3.15,0,0,0,.55-2,3.05,3.05,0,0,0-.56-2,2.11,2.11,0,0,0-3.13,0A3.16,3.16,0,0,0,99.59,211.58Z"/><path d="M113.35,214.64v-4a1.92,1.92,0,0,0-.39-1.34,1.56,1.56,0,0,0-1.2-.42,2.09,2.09,0,0,0-1.61.55,2.67,2.67,0,0,0-.5,1.8v3.37h-.56v-6.11h.47l.11.84h0a2.29,2.29,0,0,1,2.12-1c1.38,0,2.08.74,2.08,2.22v4Z"/><path d="M119.58,214.64l-.14-1h0a2.84,2.84,0,0,1-.94.83,2.47,2.47,0,0,1-1.15.25,2,2,0,0,1-1.4-.46,1.66,1.66,0,0,1-.5-1.28,1.56,1.56,0,0,1,.75-1.38,4,4,0,0,1,2.15-.53l1.16,0v-.4a2.14,2.14,0,0,0-.35-1.32,1.4,1.4,0,0,0-1.14-.44,3.87,3.87,0,0,0-1.76.47l-.21-.48a4.59,4.59,0,0,1,2-.47,2,2,0,0,1,1.5.52,2.3,2.3,0,0,1,.5,1.63v4.06Zm-2.25-.4a1.94,1.94,0,0,0,2.11-2.11v-.6l-1.07.05a3.93,3.93,0,0,0-1.83.4A1.14,1.14,0,0,0,116,213a1.17,1.17,0,0,0,.35.89A1.45,1.45,0,0,0,117.33,214.24Z"/><path d="M125.75,213.05a1.48,1.48,0,0,1-.62,1.26,3.09,3.09,0,0,1-1.77.44,4.2,4.2,0,0,1-1.94-.38v-.6a4.23,4.23,0,0,0,1.94.46,2.55,2.55,0,0,0,1.37-.3.92.92,0,0,0,.47-.8,1,1,0,0,0-.37-.77,4.07,4.07,0,0,0-1.23-.62,7.08,7.08,0,0,1-1.29-.57,1.77,1.77,0,0,1-.55-.54,1.3,1.3,0,0,1-.19-.73,1.27,1.27,0,0,1,.57-1.09,2.86,2.86,0,0,1,1.61-.39,4.78,4.78,0,0,1,1.88.37l-.21.5a4.37,4.37,0,0,0-1.67-.37,2.33,2.33,0,0,0-1.18.25.75.75,0,0,0-.44.68,1,1,0,0,0,.34.77,4.94,4.94,0,0,0,1.33.64,6.61,6.61,0,0,1,1.2.53,1.71,1.71,0,0,1,.56.54A1.31,1.31,0,0,1,125.75,213.05Z"/><path d="M127.25,206.84c0-.36.11-.54.35-.54a.3.3,0,0,1,.27.14.66.66,0,0,1,.1.4.68.68,0,0,1-.1.4.32.32,0,0,1-.27.14C127.36,207.38,127.25,207.2,127.25,206.84Zm.63,7.8h-.56v-6.11h.56Z"/><path d="M20.34,222.59a2.17,2.17,0,0,1-.81,1.82,3.65,3.65,0,0,1-2.29.64H16v3.39H15.4v-8.21h2C19.36,220.23,20.34,221,20.34,222.59Zm-4.37,2H17.1a3.41,3.41,0,0,0,2-.46,1.72,1.72,0,0,0,.61-1.48,1.69,1.69,0,0,0-.58-1.41,3,3,0,0,0-1.81-.46H16Z"/><path d="M25.69,228.44l-.14-1h0a3,3,0,0,1-1,.84,2.57,2.57,0,0,1-1.15.24,2,2,0,0,1-1.4-.46,1.66,1.66,0,0,1-.5-1.28,1.56,1.56,0,0,1,.75-1.38,4,4,0,0,1,2.15-.52l1.17,0v-.4a2.08,2.08,0,0,0-.36-1.32,1.37,1.37,0,0,0-1.14-.44,3.9,3.9,0,0,0-1.76.47l-.2-.48a4.55,4.55,0,0,1,2-.47,2,2,0,0,1,1.51.52,2.3,2.3,0,0,1,.49,1.63v4.06Zm-2.24-.4a2.1,2.1,0,0,0,1.54-.55,2.13,2.13,0,0,0,.56-1.56v-.6l-1.06,0a4,4,0,0,0-1.84.4,1.16,1.16,0,0,0-.55,1.06,1.12,1.12,0,0,0,.36.89A1.42,1.42,0,0,0,23.45,228Z"/><path d="M30.48,222.22a4.89,4.89,0,0,1,.83.07l-.1.54a3,3,0,0,0-.79-.1,1.55,1.55,0,0,0-1.29.66,2.75,2.75,0,0,0-.5,1.68v3.37h-.55v-6.11h.47l.06,1.1h0a2.56,2.56,0,0,1,.8-.94A1.88,1.88,0,0,1,30.48,222.22Z"/><path d="M34.17,228.06a4.15,4.15,0,0,0,.92-.09v.45a3.28,3.28,0,0,1-.94.13,1.52,1.52,0,0,1-1.19-.43,2,2,0,0,1-.38-1.36v-3.94h-.91v-.33l.91-.25.28-1.38h.28v1.47h1.8v.49h-1.8v3.86a1.81,1.81,0,0,0,.25,1A.92.92,0,0,0,34.17,228.06Z"/><path d="M40.66,228.44v-4a2,2,0,0,0-.38-1.34,1.57,1.57,0,0,0-1.21-.42,2.11,2.11,0,0,0-1.6.55,2.62,2.62,0,0,0-.51,1.8v3.37h-.55v-6.11h.47l.11.84h0a2.29,2.29,0,0,1,2.12-.95c1.38,0,2.07.74,2.07,2.23v4Z"/><path d="M45.66,228.55a2.66,2.66,0,0,1-2.08-.82,3.28,3.28,0,0,1-.74-2.3,3.65,3.65,0,0,1,.71-2.34,2.39,2.39,0,0,1,1.94-.87,2.08,2.08,0,0,1,1.7.75,3.07,3.07,0,0,1,.63,2v.45h-4.4a2.86,2.86,0,0,0,.59,1.92,2.06,2.06,0,0,0,1.65.66,5,5,0,0,0,.91-.07,5.74,5.74,0,0,0,1-.31v.5a5,5,0,0,1-1,.31A5.64,5.64,0,0,1,45.66,228.55Zm-.17-5.84a1.8,1.8,0,0,0-1.41.58,2.74,2.74,0,0,0-.63,1.68h3.78a2.71,2.71,0,0,0-.46-1.66A1.52,1.52,0,0,0,45.49,222.71Z"/><path d="M51.9,222.22a5.09,5.09,0,0,1,.84.07l-.11.54a3,3,0,0,0-.79-.1,1.54,1.54,0,0,0-1.28.66,2.68,2.68,0,0,0-.5,1.68v3.37H49.5v-6.11H50l.06,1.1h0a2.66,2.66,0,0,1,.8-.94A1.91,1.91,0,0,1,51.9,222.22Z"/><path d="M57.77,228.44H53.42v-.36L57,222.83H53.68v-.5h4.08v.36l-3.64,5.25h3.65Z"/><path d="M58.26,222.33h.57l1.29,3.43q.59,1.58.75,2.13h0c.16-.49.41-1.21.77-2.16l1.29-3.4h.57l-2.73,7.1a5.42,5.42,0,0,1-.56,1.16,1.41,1.41,0,0,1-.52.46,1.61,1.61,0,0,1-.73.15,2.45,2.45,0,0,1-.71-.12v-.48a2.63,2.63,0,0,0,.7.09.92.92,0,0,0,.5-.14,1.21,1.21,0,0,0,.4-.41,5,5,0,0,0,.41-.9c.16-.41.26-.68.3-.8Z"/><path d="M65.19,227.1l.07.12a18.84,18.84,0,0,1-1,2.7h-.36a23.4,23.4,0,0,0,.61-2.82Z"/><path d="M70.56,225.76l3.11-3.43h.68L72,224.94l2.61,3.5h-.67l-2.32-3.09-1,.91v2.18H70V219.7h.56v4.38l0,1.68Z"/><path d="M77.19,228.06a4.15,4.15,0,0,0,.92-.09v.45a3.26,3.26,0,0,1-.93.13,1.49,1.49,0,0,1-1.19-.43,2,2,0,0,1-.39-1.36v-3.94h-.9v-.33l.9-.25.28-1.38h.29v1.47H78v.49H76.17v3.86a1.82,1.82,0,0,0,.24,1A.93.93,0,0,0,77.19,228.06Z"/><path d="M84.48,225.38a3.42,3.42,0,0,1-.73,2.33,2.49,2.49,0,0,1-2,.84,2.59,2.59,0,0,1-1.42-.39,2.51,2.51,0,0,1-.94-1.11,4,4,0,0,1-.32-1.67,3.46,3.46,0,0,1,.72-2.33,2.48,2.48,0,0,1,2-.83,2.45,2.45,0,0,1,2,.84A3.46,3.46,0,0,1,84.48,225.38Zm-4.82,0a3.09,3.09,0,0,0,.55,2,2.1,2.1,0,0,0,3.13,0,3.77,3.77,0,0,0,0-3.92,1.91,1.91,0,0,0-1.58-.7,1.84,1.84,0,0,0-1.55.7A3,3,0,0,0,79.66,225.38Zm1.55-4q.41-.45.81-1a7,7,0,0,0,.55-.79h.79v.09a5,5,0,0,1-.69.78c-.32.32-.68.64-1.07,1h-.39Z"/><path d="M88.57,222.22a4.89,4.89,0,0,1,.83.07l-.1.54a3,3,0,0,0-.8-.1,1.55,1.55,0,0,0-1.28.66,2.75,2.75,0,0,0-.5,1.68v3.37h-.55v-6.11h.47l.06,1.1h0a2.67,2.67,0,0,1,.81-.94A1.88,1.88,0,0,1,88.57,222.22Z"/><path d="M89.62,222.33h.57l1.3,3.43c.39,1.05.64,1.76.74,2.13h0c.15-.49.41-1.21.77-2.16l1.29-3.4h.57l-2.73,7.1a6,6,0,0,1-.56,1.16,1.44,1.44,0,0,1-.53.46,1.59,1.59,0,0,1-.72.15,2.52,2.52,0,0,1-.72-.12v-.48a2.65,2.65,0,0,0,.71.09.92.92,0,0,0,.5-.14,1.21,1.21,0,0,0,.4-.41,6.94,6.94,0,0,0,.41-.9c.15-.41.25-.68.3-.8Z"/><path d="M102.71,228.44H98.35v-.36l3.62-5.25H98.61v-.5h4.08v.36l-3.64,5.25h3.66Z"/><path d="M106.61,222.22a4.89,4.89,0,0,1,.83.07l-.1.54a3,3,0,0,0-.79-.1,1.54,1.54,0,0,0-1.28.66,2.68,2.68,0,0,0-.5,1.68v3.37h-.56v-6.11h.47l.06,1.1h0a2.66,2.66,0,0,1,.8-.94A1.88,1.88,0,0,1,106.61,222.22Z"/><path d="M113.73,225.38a3.47,3.47,0,0,1-.72,2.33,2.5,2.5,0,0,1-2,.84,2.59,2.59,0,0,1-1.42-.39,2.49,2.49,0,0,1-.93-1.11,4,4,0,0,1-.33-1.67,3.41,3.41,0,0,1,.73-2.33,2.77,2.77,0,0,1,4,0A3.51,3.51,0,0,1,113.73,225.38Zm-4.81,0a3.09,3.09,0,0,0,.55,2,2.1,2.1,0,0,0,3.13,0,3.15,3.15,0,0,0,.55-2,3.07,3.07,0,0,0-.56-2,1.89,1.89,0,0,0-1.57-.7,1.87,1.87,0,0,0-1.56.7A3.11,3.11,0,0,0,108.92,225.38Z"/><path d="M118,222.22a2.32,2.32,0,0,1,1.93.8,3.71,3.71,0,0,1,.65,2.36,3.61,3.61,0,0,1-.68,2.34,2.37,2.37,0,0,1-1.92.83,2.53,2.53,0,0,1-1.18-.27,2.07,2.07,0,0,1-.82-.76h0l-.16.92h-.35V219.7H116v2.2c0,.33,0,.63,0,.91l0,.47h0a2.32,2.32,0,0,1,.84-.81A2.54,2.54,0,0,1,118,222.22Zm0,.5a1.81,1.81,0,0,0-1.54.62,3.37,3.37,0,0,0-.47,2v.09a3.25,3.25,0,0,0,.48,2,1.85,1.85,0,0,0,1.52.6,1.74,1.74,0,0,0,1.5-.7,3.34,3.34,0,0,0,.51-2C120,223.6,119.32,222.72,118,222.72Z"/><path d="M122.19,220.64c0-.36.12-.54.35-.54a.34.34,0,0,1,.28.14.74.74,0,0,1,.09.4.76.76,0,0,1-.09.4.34.34,0,0,1-.28.14C122.31,221.18,122.19,221,122.19,220.64Zm.63,7.8h-.55v-6.11h.55Z"/><path d="M128.18,229.83a.54.54,0,0,0,.6.62,1.27,1.27,0,0,0,.46-.07v.47a1.63,1.63,0,0,1-.59.09,1,1,0,0,1-.75-.27,1,1,0,0,1-.27-.75,1.54,1.54,0,0,1,.22-.78,2.91,2.91,0,0,1,.71-.78l-.13-.89h0a2.91,2.91,0,0,1-.95.84,2.54,2.54,0,0,1-1.15.24,2,2,0,0,1-1.39-.46,1.63,1.63,0,0,1-.5-1.28,1.56,1.56,0,0,1,.74-1.38,4,4,0,0,1,2.15-.52l1.17,0v-.4a2.08,2.08,0,0,0-.36-1.32,1.37,1.37,0,0,0-1.14-.44,3.83,3.83,0,0,0-1.75.47l-.21-.48a4.55,4.55,0,0,1,2-.47,2,2,0,0,1,1.51.52,2.3,2.3,0,0,1,.49,1.63v4.06a3,3,0,0,0-.6.67A1.34,1.34,0,0,0,128.18,229.83ZM126.33,228a1.93,1.93,0,0,0,2.1-2.11v-.6l-1.06,0a4,4,0,0,0-1.84.4,1.16,1.16,0,0,0-.54,1.06,1.12,1.12,0,0,0,.35.89A1.42,1.42,0,0,0,126.33,228Z"/><path d="M17.49,236a2.54,2.54,0,0,1,1.15.24,2.31,2.31,0,0,1,.87.82h0q0-.71,0-1.38v-2.2h.54v8.74h-.36l-.14-.93h0a2.29,2.29,0,0,1-2,1,2.39,2.39,0,0,1-1.94-.79,3.46,3.46,0,0,1-.66-2.29,3.85,3.85,0,0,1,.66-2.42A2.29,2.29,0,0,1,17.49,236Zm0,.5a1.73,1.73,0,0,0-1.5.7,3.53,3.53,0,0,0-.5,2c0,1.73.67,2.6,2,2.6a1.8,1.8,0,0,0,1.51-.61,3.19,3.19,0,0,0,.49-2v-.09a3.36,3.36,0,0,0-.48-2A1.83,1.83,0,0,0,17.49,236.52Z"/><path d="M27.15,239.18a3.47,3.47,0,0,1-.72,2.33,2.5,2.5,0,0,1-2,.84A2.59,2.59,0,0,1,23,242a2.49,2.49,0,0,1-.93-1.11,4,4,0,0,1-.33-1.67,3.46,3.46,0,0,1,.72-2.33,2.5,2.5,0,0,1,2-.83,2.47,2.47,0,0,1,2,.84A3.51,3.51,0,0,1,27.15,239.18Zm-4.82,0a3.09,3.09,0,0,0,.56,2,2.1,2.1,0,0,0,3.13,0,3.15,3.15,0,0,0,.55-2,3.05,3.05,0,0,0-.56-2,2.11,2.11,0,0,0-3.13,0A3.16,3.16,0,0,0,22.33,239.18Z"/><path d="M31.42,236a2.32,2.32,0,0,1,1.93.8,3.71,3.71,0,0,1,.65,2.36,3.61,3.61,0,0,1-.68,2.34,2.37,2.37,0,0,1-1.92.83,2.53,2.53,0,0,1-1.18-.27,2.07,2.07,0,0,1-.82-.76h0l-.16.92h-.35V233.5h.56v2.2c0,.33,0,.63,0,.91l0,.47h0a2.32,2.32,0,0,1,.84-.81A2.54,2.54,0,0,1,31.42,236Zm0,.5a1.83,1.83,0,0,0-1.55.62,3.45,3.45,0,0,0-.46,2v.09a3.2,3.2,0,0,0,.48,2,1.82,1.82,0,0,0,1.52.61,1.74,1.74,0,0,0,1.5-.7,3.34,3.34,0,0,0,.51-2C33.41,237.4,32.74,236.52,31.41,236.52Z"/><path d="M38.09,236a4.89,4.89,0,0,1,.83.07l-.11.54a2.9,2.9,0,0,0-.79-.1,1.55,1.55,0,0,0-1.28.66,2.75,2.75,0,0,0-.5,1.68v3.37h-.55v-6.11h.47l.05,1.1h0a2.67,2.67,0,0,1,.81-.94A1.88,1.88,0,0,1,38.09,236Z"/><path d="M39.14,236.13h.57l1.3,3.43c.39,1.05.64,1.76.74,2.13h0c.15-.49.41-1.21.76-2.16l1.3-3.4h.57l-2.74,7.1a5.53,5.53,0,0,1-.55,1.16,1.44,1.44,0,0,1-.53.46,1.59,1.59,0,0,1-.72.15,2.52,2.52,0,0,1-.72-.12v-.48a2.65,2.65,0,0,0,.71.09.94.94,0,0,0,.5-.14,1.31,1.31,0,0,0,.4-.41,6.94,6.94,0,0,0,.41-.9c.15-.41.25-.68.3-.8Z"/><path d="M51,242.35A2.24,2.24,0,0,1,49,241.29h0v.48c0,.27,0,.58,0,.9V245h-.55v-8.87h.47L49,237h0a2.2,2.2,0,0,1,2-1,2.26,2.26,0,0,1,1.88.81,3.67,3.67,0,0,1,.65,2.36,3.54,3.54,0,0,1-.68,2.33A2.28,2.28,0,0,1,51,242.35Zm0-.49a1.71,1.71,0,0,0,1.45-.7,3.23,3.23,0,0,0,.51-1.95c0-1.79-.64-2.69-1.94-2.69a2,2,0,0,0-1.57.59A3,3,0,0,0,49,239v.18a3.36,3.36,0,0,0,.48,2A1.88,1.88,0,0,0,51,241.86Z"/><path d="M60.32,239.18a3.47,3.47,0,0,1-.72,2.33,2.51,2.51,0,0,1-2,.84,2.59,2.59,0,0,1-1.42-.39,2.43,2.43,0,0,1-.93-1.11,4,4,0,0,1-.33-1.67,3.46,3.46,0,0,1,.72-2.33,2.5,2.5,0,0,1,2-.83,2.47,2.47,0,0,1,2,.84A3.51,3.51,0,0,1,60.32,239.18Zm-4.82,0a3.09,3.09,0,0,0,.56,2,2.09,2.09,0,0,0,3.12,0,3.09,3.09,0,0,0,.56-2,3.05,3.05,0,0,0-.56-2,2.11,2.11,0,0,0-3.13,0A3.16,3.16,0,0,0,55.5,239.18Z"/><path d="M65.81,242.24H61.45v-.36l3.62-5.25H61.71v-.5H65.8v.36l-3.65,5.25h3.66Zm-2.43-7.8q0-.54.36-.54A.31.31,0,0,1,64,234a.74.74,0,0,1,.1.4.76.76,0,0,1-.1.4.31.31,0,0,1-.27.14Q63.38,235,63.38,234.44Z"/><path d="M66.29,236.13h.57l1.29,3.43q.6,1.58.75,2.13h0c.16-.49.42-1.21.77-2.16l1.3-3.4h.57l-2.74,7.1a5.53,5.53,0,0,1-.55,1.16,1.44,1.44,0,0,1-.53.46A1.59,1.59,0,0,1,67,245a2.52,2.52,0,0,1-.72-.12v-.48a2.63,2.63,0,0,0,.7.09,1,1,0,0,0,.51-.14,1.31,1.31,0,0,0,.4-.41,6.94,6.94,0,0,0,.41-.9c.15-.41.25-.68.3-.8Z"/><path d="M74.2,241.86a4.15,4.15,0,0,0,.92-.09v.44a2.93,2.93,0,0,1-.93.14,1.49,1.49,0,0,1-1.19-.43,2,2,0,0,1-.39-1.36v-3.94h-.9v-.33l.9-.25.28-1.38h.29v1.47H75v.49H73.18v3.86a1.73,1.73,0,0,0,.25,1A.9.9,0,0,0,74.2,241.86Z"/><path d="M78.91,242.35a2.66,2.66,0,0,1-2.08-.82,3.33,3.33,0,0,1-.74-2.3,3.59,3.59,0,0,1,.72-2.34,2.38,2.38,0,0,1,1.94-.87,2.11,2.11,0,0,1,1.7.75,3.12,3.12,0,0,1,.62,2v.45h-4.4a2.91,2.91,0,0,0,.59,1.92,2.06,2.06,0,0,0,1.65.66,5.07,5.07,0,0,0,.92-.07,5.94,5.94,0,0,0,1-.31v.5a4.82,4.82,0,0,1-1,.31A5.64,5.64,0,0,1,78.91,242.35Zm-.16-5.84a1.83,1.83,0,0,0-1.42.58,2.73,2.73,0,0,0-.62,1.68h3.77a2.64,2.64,0,0,0-.46-1.66A1.52,1.52,0,0,0,78.75,236.51Z"/><path d="M83.3,239.56l3.12-3.43h.67l-2.41,2.61,2.62,3.5h-.67l-2.32-3.09-1,.91v2.18h-.56V233.5h.56v4.38l0,1.68Z"/><path d="M95.1,242.24H90.74v-.36l3.63-5.25H91v-.5h4.08v.36l-3.64,5.25H95.1Z"/><path d="M102,236a5,5,0,0,1,.83.07l-.11.54a3,3,0,0,0-.79-.1,1.54,1.54,0,0,0-1.28.66,2.75,2.75,0,0,0-.5,1.68v3.37h-.56v-6.11h.48l.05,1.1h0a2.66,2.66,0,0,1,.8-.94A1.92,1.92,0,0,1,102,236Z"/><path d="M107.87,242.24h-4.36v-.36l3.62-5.25h-3.36v-.5h4.08v.36l-3.64,5.25h3.66Z"/><path d="M111.84,242.35a2.66,2.66,0,0,1-2.08-.82,3.28,3.28,0,0,1-.74-2.3,3.65,3.65,0,0,1,.71-2.34,2.39,2.39,0,0,1,1.94-.87,2.08,2.08,0,0,1,1.7.75,3.07,3.07,0,0,1,.63,2v.45h-4.4a2.86,2.86,0,0,0,.59,1.92,2.06,2.06,0,0,0,1.65.66,5,5,0,0,0,.91-.07,5.74,5.74,0,0,0,1-.31v.5a5,5,0,0,1-1,.31A5.64,5.64,0,0,1,111.84,242.35Zm-.17-5.84a1.8,1.8,0,0,0-1.41.58,2.74,2.74,0,0,0-.63,1.68h3.78a2.71,2.71,0,0,0-.46-1.66A1.53,1.53,0,0,0,111.67,236.51Z"/><path d="M118.12,242.35a2.62,2.62,0,0,1-2.05-.83,3.28,3.28,0,0,1-.74-2.3,3.34,3.34,0,0,1,.77-2.36,2.7,2.7,0,0,1,2.1-.84,4.31,4.31,0,0,1,1.52.27l-.15.5a4.39,4.39,0,0,0-1.38-.27,2.1,2.1,0,0,0-1.7.69,3,3,0,0,0-.58,2,3,3,0,0,0,.58,1.94,2,2,0,0,0,1.62.69,3.91,3.91,0,0,0,1.54-.29v.51A3.51,3.51,0,0,1,118.12,242.35Z"/><path d="M124.94,242.24h-4.36v-.36l3.63-5.25h-3.36v-.5h4.08v.36l-3.64,5.25h3.65Z"/><path d="M125.42,236.13H126l1.29,3.43q.58,1.58.75,2.13h0c.16-.49.41-1.21.77-2.16l1.29-3.4h.57l-2.73,7.1a5.42,5.42,0,0,1-.56,1.16,1.41,1.41,0,0,1-.52.46,1.64,1.64,0,0,1-.73.15,2.45,2.45,0,0,1-.71-.12v-.48a2.58,2.58,0,0,0,.7.09.92.92,0,0,0,.5-.14,1.31,1.31,0,0,0,.4-.41,5.8,5.8,0,0,0,.41-.9c.15-.41.25-.68.3-.8Z"/><path d="M132.36,240.9l.07.12a18.84,18.84,0,0,1-1,2.7h-.37a21.77,21.77,0,0,0,.62-2.82Z"/><path d="M15.8,253.36l3.12-3.43h.67l-2.4,2.61L19.8,256h-.67L16.81,253l-1,.91V256h-.56V247.3h.56v4.38l0,1.68Z"/><path d="M22.44,255.66a4.94,4.94,0,0,0,.92-.09V256a3,3,0,0,1-.94.14,1.54,1.54,0,0,1-1.19-.43,2,2,0,0,1-.38-1.36v-3.94h-.91v-.33l.91-.25.28-1.38h.28v1.47h1.8v.49h-1.8v3.86a1.81,1.81,0,0,0,.25,1A.92.92,0,0,0,22.44,255.66Z"/><path d="M29.72,253a3.47,3.47,0,0,1-.72,2.33,2.5,2.5,0,0,1-2,.84,2.55,2.55,0,0,1-1.41-.39,2.51,2.51,0,0,1-.94-1.11,4,4,0,0,1-.33-1.67,3.41,3.41,0,0,1,.73-2.33,2.77,2.77,0,0,1,4,0A3.46,3.46,0,0,1,29.72,253Zm-4.81,0a3.09,3.09,0,0,0,.55,2,2.1,2.1,0,0,0,3.13,0,3.09,3.09,0,0,0,.55-2,3.05,3.05,0,0,0-.56-2,2.11,2.11,0,0,0-3.13,0A3.16,3.16,0,0,0,24.91,253Zm1.55-4q.41-.45.81-1a7,7,0,0,0,.55-.79h.79v.09a6.4,6.4,0,0,1-.69.78c-.33.32-.68.64-1.07,1h-.39Z"/><path d="M33.82,249.82a5,5,0,0,1,.83.07l-.11.54a3,3,0,0,0-.79-.1,1.54,1.54,0,0,0-1.28.66,2.75,2.75,0,0,0-.5,1.68V256h-.56v-6.11h.48l.05,1.1h0a2.57,2.57,0,0,1,.8-.94A1.92,1.92,0,0,1,33.82,249.82Z"/><path d="M38.35,256.15a2.65,2.65,0,0,1-2.07-.82,3.28,3.28,0,0,1-.74-2.3,3.65,3.65,0,0,1,.71-2.34,2.39,2.39,0,0,1,1.94-.87,2.08,2.08,0,0,1,1.7.75,3.07,3.07,0,0,1,.63,2v.45h-4.4a2.86,2.86,0,0,0,.59,1.92,2.05,2.05,0,0,0,1.64.66,5,5,0,0,0,.92-.07,5.43,5.43,0,0,0,1-.31v.5a4.75,4.75,0,0,1-1,.31A5.68,5.68,0,0,1,38.35,256.15Zm-.16-5.84a1.8,1.8,0,0,0-1.41.58,2.74,2.74,0,0,0-.63,1.68h3.78a2.71,2.71,0,0,0-.46-1.66A1.53,1.53,0,0,0,38.19,250.31Z"/><path d="M47.42,249.82a2.54,2.54,0,0,1,1.15.24,2.22,2.22,0,0,1,.86.82h0c0-.47,0-.93,0-1.38v-2.2H50V256h-.36l-.14-.93h0a2.26,2.26,0,0,1-2,1,2.38,2.38,0,0,1-1.93-.79,3.46,3.46,0,0,1-.67-2.29,3.85,3.85,0,0,1,.67-2.42A2.29,2.29,0,0,1,47.42,249.82Zm0,.5a1.73,1.73,0,0,0-1.5.7,3.53,3.53,0,0,0-.5,2c0,1.73.67,2.6,2,2.6a1.81,1.81,0,0,0,1.52-.61,3.2,3.2,0,0,0,.48-2V253a3.37,3.37,0,0,0-.47-2A1.83,1.83,0,0,0,47.42,250.32Z"/><path d="M57.08,253a3.47,3.47,0,0,1-.72,2.33,2.51,2.51,0,0,1-2,.84,2.59,2.59,0,0,1-1.42-.39,2.43,2.43,0,0,1-.93-1.11,4,4,0,0,1-.33-1.67,3.46,3.46,0,0,1,.72-2.33,2.5,2.5,0,0,1,2-.83,2.47,2.47,0,0,1,2,.84A3.51,3.51,0,0,1,57.08,253Zm-4.82,0a3.09,3.09,0,0,0,.56,2,2.09,2.09,0,0,0,3.12,0,3.09,3.09,0,0,0,.56-2,3.05,3.05,0,0,0-.56-2,2.11,2.11,0,0,0-3.13,0A3.16,3.16,0,0,0,52.26,253Z"/><path d="M66,256v-4a1.92,1.92,0,0,0-.38-1.34,1.56,1.56,0,0,0-1.2-.42,2.09,2.09,0,0,0-1.61.55,2.62,2.62,0,0,0-.51,1.8V256h-.55v-6.11h.47l.11.84h0a2.29,2.29,0,0,1,2.12-1c1.38,0,2.08.74,2.08,2.22v4Z"/><path d="M68.46,248.24q0-.54.36-.54a.33.33,0,0,1,.27.14.74.74,0,0,1,.1.4.76.76,0,0,1-.1.4.33.33,0,0,1-.27.14Q68.46,248.78,68.46,248.24Zm.64,7.8h-.56v-6.11h.56Z"/><path d="M73.58,256.15a2.62,2.62,0,0,1-2-.83,3.28,3.28,0,0,1-.74-2.3,3.34,3.34,0,0,1,.77-2.36,2.7,2.7,0,0,1,2.1-.84,4.31,4.31,0,0,1,1.52.27l-.15.49a4.65,4.65,0,0,0-1.38-.26A2.1,2.1,0,0,0,72,251a3,3,0,0,0-.58,2A3,3,0,0,0,72,255a2,2,0,0,0,1.62.69,4.1,4.1,0,0,0,1.54-.29v.51A3.51,3.51,0,0,1,73.58,256.15Z"/><path d="M80.86,256v-4a1.92,1.92,0,0,0-.39-1.34,1.53,1.53,0,0,0-1.2-.42,2.07,2.07,0,0,0-1.6.55,2.62,2.62,0,0,0-.51,1.8V256h-.55V247.3h.55v2.78l0,.78h0a2.08,2.08,0,0,1,.87-.8,3.06,3.06,0,0,1,1.29-.24c1.39,0,2.08.74,2.08,2.22v4Z"/><path d="M88,255.66a4.85,4.85,0,0,0,.92-.09V256a2.93,2.93,0,0,1-.93.14,1.57,1.57,0,0,1-1.2-.43,2,2,0,0,1-.38-1.36v-3.94h-.91v-.33l.91-.25.28-1.38H87v1.47h1.8v.49H87v3.86a1.81,1.81,0,0,0,.25,1A.92.92,0,0,0,88,255.66Z"/><path d="M92.63,249.82a4.89,4.89,0,0,1,.83.07l-.1.54a3,3,0,0,0-.8-.1,1.55,1.55,0,0,0-1.28.66,2.75,2.75,0,0,0-.5,1.68V256h-.55v-6.11h.47l.06,1.1h0a2.48,2.48,0,0,1,.8-.94A1.88,1.88,0,0,1,92.63,249.82Z"/><path d="M98.41,256l-.14-1h0a3,3,0,0,1-.94.84,2.6,2.6,0,0,1-1.15.24,2,2,0,0,1-1.4-.46,1.66,1.66,0,0,1-.5-1.28A1.56,1.56,0,0,1,95,253a4,4,0,0,1,2.15-.53l1.16,0v-.4a2.14,2.14,0,0,0-.35-1.32,1.4,1.4,0,0,0-1.14-.44,3.87,3.87,0,0,0-1.76.47l-.21-.48a4.59,4.59,0,0,1,2-.47,2,2,0,0,1,1.5.52,2.3,2.3,0,0,1,.5,1.63V256Zm-2.25-.4a1.94,1.94,0,0,0,2.11-2.11v-.6l-1.07,0a3.93,3.93,0,0,0-1.83.4,1.3,1.3,0,0,0-.2,2A1.45,1.45,0,0,0,96.16,255.64Z"/><path d="M103.07,250.42h-1.44V256h-.56v-5.62H99.94v-.33l1.13-.21v-.47a2.7,2.7,0,0,1,.41-1.65,1.63,1.63,0,0,1,1.36-.52,3.58,3.58,0,0,1,1,.15l-.13.48a3.13,3.13,0,0,0-.9-.14,1,1,0,0,0-.92.39,2.21,2.21,0,0,0-.27,1.25v.56h1.44Zm1.1-2.18c0-.36.11-.54.35-.54a.31.31,0,0,1,.27.14.66.66,0,0,1,.1.4.68.68,0,0,1-.1.4.31.31,0,0,1-.27.14C104.28,248.78,104.17,248.6,104.17,248.24Zm.63,7.8h-.56v-6.11h.56Z"/><path d="M110.16,257.43c0,.41.2.62.59.62a1.2,1.2,0,0,0,.46-.07v.47a1.57,1.57,0,0,1-.58.09,1,1,0,0,1-.75-.27,1,1,0,0,1-.28-.75,1.56,1.56,0,0,1,.23-.78,2.91,2.91,0,0,1,.71-.78l-.13-.89h0a3.14,3.14,0,0,1-1,.84,2.6,2.6,0,0,1-1.15.24,2,2,0,0,1-1.4-.46,1.66,1.66,0,0,1-.5-1.28,1.56,1.56,0,0,1,.75-1.38,4,4,0,0,1,2.15-.53l1.16,0v-.4a2.14,2.14,0,0,0-.35-1.32,1.4,1.4,0,0,0-1.14-.44,3.87,3.87,0,0,0-1.76.47l-.21-.48a4.59,4.59,0,0,1,2-.47,2,2,0,0,1,1.5.52A2.26,2.26,0,0,1,111,252V256a3,3,0,0,0-.6.67A1.26,1.26,0,0,0,110.16,257.43Zm-1.86-1.79a1.94,1.94,0,0,0,2.11-2.11v-.6l-1.07,0a4,4,0,0,0-1.83.4,1.3,1.3,0,0,0-.2,2A1.45,1.45,0,0,0,108.3,255.64Z"/><path d="M112.83,255.6c0-.37.14-.55.44-.55s.46.18.46.55-.15.55-.46.55S112.83,256,112.83,255.6Z"/><path class="cls-4" d="M103.32,80.67a9.78,9.78,0,0,0,2.36,7.66,9.79,9.79,0,0,0,1.79-14.51A9.74,9.74,0,0,0,103.32,80.67Z"/><path class="cls-4" d="M47.49,80.67a9.78,9.78,0,0,1-2.36,7.66A9.52,9.52,0,0,1,43,86.26a9.78,9.78,0,0,1,.39-12.44A9.74,9.74,0,0,1,47.49,80.67Z"/><path class="cls-4" d="M108.52,65.4a9.75,9.75,0,0,0,6.14,5.15,9.78,9.78,0,0,0-6.38-13.15A9.69,9.69,0,0,0,108.52,65.4Z"/><path class="cls-4" d="M43.93,65.4a9.75,9.75,0,0,1-6.14,5.15,9.46,9.46,0,0,1-.71-2.92,9.85,9.85,0,0,1,1-5.09,9.71,9.71,0,0,1,6.14-5.14A9.77,9.77,0,0,1,43.93,65.4Z"/><path class="cls-4" d="M105.05,50a9.76,9.76,0,0,0,7.67,2.32,9.78,9.78,0,0,0-11-9.58A9.74,9.74,0,0,0,105.05,50Z"/><path class="cls-4" d="M47.4,50a9.76,9.76,0,0,1-7.67,2.32,9.78,9.78,0,0,1,11-9.58A9.74,9.74,0,0,1,47.4,50Z"/><path class="cls-4" d="M110.55,39.39a9.78,9.78,0,0,0,1.07,7.94,9.71,9.71,0,0,0,5.22-6.08,9.79,9.79,0,0,0-1.07-7.94A9.74,9.74,0,0,0,110.55,39.39Z"/><path class="cls-4" d="M41.9,39.39a9.75,9.75,0,0,1-1.08,7.94,9.74,9.74,0,0,1-2.49-1.68,9.89,9.89,0,0,1-2.72-4.4,9.75,9.75,0,0,1,1.07-7.94A9.77,9.77,0,0,1,41.9,39.39Z"/><path class="cls-4" d="M115.46,54.33a9.72,9.72,0,0,0,1.08,7.93A9.49,9.49,0,0,0,119,60.58a9.8,9.8,0,0,0,1.65-12.33A9.77,9.77,0,0,0,115.46,54.33Z"/><path class="cls-4" d="M37,54.33a9.68,9.68,0,0,1-1.07,7.93,9.49,9.49,0,0,1-2.49-1.68,9.8,9.8,0,0,1-1.65-12.33A9.73,9.73,0,0,1,37,54.33Z"/><path class="cls-4" d="M116.64,70.28a10.06,10.06,0,0,0-2.71,7.49,8.81,8.81,0,0,0,2.84-.29A9.19,9.19,0,0,0,121,74.92a10.06,10.06,0,0,0,2.7-7.49A9,9,0,0,0,116.64,70.28Z"/><path class="cls-4" d="M35.81,70.28a10.06,10.06,0,0,1,2.71,7.49,8.78,8.78,0,0,1-2.84-.29,9.19,9.19,0,0,1-4.26-2.56,10,10,0,0,1-2.7-7.49A9,9,0,0,1,35.81,70.28Z"/><path class="cls-4" d="M110.92,85.73a9.75,9.75,0,0,0-6.1,5.2,9.8,9.8,0,0,0,14-4.1A9.73,9.73,0,0,0,110.92,85.73Z"/><path class="cls-4" d="M39.89,85.73a9.78,9.78,0,0,1,6.1,5.2,9.85,9.85,0,0,1-2.77,1.18A9.79,9.79,0,0,1,32,86.83,9.73,9.73,0,0,1,39.89,85.73Z"/><path class="cls-4" d="M99,24.61a9.52,9.52,0,0,0,5.48,13.11A9.51,9.51,0,0,0,99,24.61Z"/><path class="cls-4" d="M53.5,24.61A9.52,9.52,0,0,1,48,37.72,9.51,9.51,0,0,1,53.5,24.61Z"/><path class="cls-5" d="M104.57,37.72a36.67,36.67,0,0,1,11,26.22,37.67,37.67,0,0,1-16.25,31"/><path class="cls-5" d="M47.87,37.72a36.71,36.71,0,0,0-11,26.22,37.67,37.67,0,0,0,16.26,31"/><line class="cls-4" x1="116.54" y1="62.26" x2="115.55" y2="63.39"/><line class="cls-4" x1="35.91" y1="62.26" x2="36.9" y2="63.39"/><line class="cls-4" x1="114.66" y1="70.55" x2="114.79" y2="71.5"/><line class="cls-4" x1="37.79" y1="70.55" x2="37.65" y2="71.5"/><line class="cls-4" x1="112.72" y1="52.32" x2="114.03" y2="53.41"/><line class="cls-4" x1="39.73" y1="52.32" x2="38.42" y2="53.41"/><line class="cls-4" x1="113.93" y1="77.77" x2="112.72" y2="78.3"/><line class="cls-4" x1="36.88" y1="77.77" x2="38.09" y2="78.3"/><line class="cls-4" x1="104.82" y1="90.93" x2="104.08" y2="91.01"/><line class="cls-4" x1="45.99" y1="90.93" x2="46.73" y2="91.01"/><line class="cls-4" x1="105.68" y1="88.33" x2="105.68" y2="89.37"/><line class="cls-4" x1="45.13" y1="88.33" x2="45.13" y2="89.37"/><path class="cls-5" d="M81.14,59a4.92,4.92,0,1,0-9.83,0v9.83a4.92,4.92,0,1,0,9.83,0V65.58H77.86"/><path class="cls-4" d="M97.53,68.85a4.92,4.92,0,1,1-9.83,0V59a4.92,4.92,0,1,1,9.83,0Z"/><polyline class="cls-5" points="54.92 73.77 54.92 54.1 64.75 73.77 64.75 54.1"/></svg>