<svg id="Warstwa_1" data-name="Warstwa 1" xmlns="http://www.w3.org/2000/svg" viewBox="0 0 200 325"><defs><style>.cls-1,.cls-4,.cls-5{fill:none;}.cls-1{stroke:#707070;}.cls-2{isolation:isolate;}.cls-3{fill:#3c3c3c;}.cls-4,.cls-5{stroke:#424242;stroke-linejoin:round;stroke-width:3px;}.cls-5{stroke-linecap:round;}</style></defs><title>ngo</title><line id="Line" class="cls-1" x1="63.72" y1="137.18" x2="133.72" y2="137.18"/><g id="Wybierz_rzeczy" data-name="Wybierz rzeczy" class="cls-2"><g class="cls-2"><path class="cls-3" d="M90.46,123.68H87.88l-6.32-10.24h-.07l.05.57c.08,1.09.12,2.08.12,3v6.68H79.75V110.83H82.3L88.6,121h.06c0-.13,0-.62-.07-1.47s-.06-1.51-.06-2v-6.73h1.93Z"/><path class="cls-3" d="M99.11,116.71h4.72v6.45a13.17,13.17,0,0,1-2.22.53,15.24,15.24,0,0,1-2.31.16,5.78,5.78,0,0,1-4.5-1.72,7,7,0,0,1-1.58-4.88A6.5,6.5,0,0,1,95,112.39a6.74,6.74,0,0,1,4.91-1.75,9.49,9.49,0,0,1,3.82.78l-.74,1.74a7.43,7.43,0,0,0-3.13-.72,4.19,4.19,0,0,0-3.25,1.3,5,5,0,0,0-1.2,3.53,5.26,5.26,0,0,0,1.08,3.58,3.9,3.9,0,0,0,3.1,1.23,10.17,10.17,0,0,0,2.18-.26v-3.31H99.11Z"/><path class="cls-3" d="M118.33,117.23a7,7,0,0,1-1.57,4.88,6.6,6.6,0,0,1-8.91,0,7.09,7.09,0,0,1-1.56-4.91,7,7,0,0,1,1.57-4.89,5.74,5.74,0,0,1,4.47-1.71,5.65,5.65,0,0,1,4.43,1.74A7,7,0,0,1,118.33,117.23Zm-9.81,0a5.73,5.73,0,0,0,1,3.6,3.89,3.89,0,0,0,5.66,0,7.26,7.26,0,0,0,0-7.2,3.33,3.33,0,0,0-2.82-1.22,3.39,3.39,0,0,0-2.85,1.22A5.7,5.7,0,0,0,108.52,117.23Z"/></g></g><path d="M55.72,178.22a2.19,2.19,0,0,1-.8,1.82,3.62,3.62,0,0,1-2.3.64H51.36v3.39h-.58v-8.21h2C54.75,175.86,55.72,176.65,55.72,178.22Zm-4.36,2h1.12a3.47,3.47,0,0,0,2-.45,1.74,1.74,0,0,0,.62-1.49,1.66,1.66,0,0,0-.59-1.4,2.89,2.89,0,0,0-1.81-.46H51.36Z"/><path d="M62.42,181a3.41,3.41,0,0,1-.73,2.33,2.5,2.5,0,0,1-2,.84,2.66,2.66,0,0,1-1.41-.38,2.48,2.48,0,0,1-.94-1.12A4,4,0,0,1,57,181a3.46,3.46,0,0,1,.72-2.33,2.52,2.52,0,0,1,2-.83,2.45,2.45,0,0,1,2,.84A3.48,3.48,0,0,1,62.42,181Zm-4.82,0a3.09,3.09,0,0,0,.55,2,2.08,2.08,0,0,0,3.13,0,3.09,3.09,0,0,0,.55-2,3,3,0,0,0-.56-2,1.9,1.9,0,0,0-1.56-.7,1.87,1.87,0,0,0-1.56.7A3,3,0,0,0,57.6,181Z"/><path d="M71.73,184.07v-4a2,2,0,0,0-.35-1.31,1.31,1.31,0,0,0-1.06-.41,1.76,1.76,0,0,0-1.39.52,2.45,2.45,0,0,0-.45,1.62v3.58h-.56V179.9c0-1-.48-1.55-1.42-1.55a1.68,1.68,0,0,0-1.4.56,2.94,2.94,0,0,0-.44,1.79v3.37h-.55V178h.46l.12.83h0a1.74,1.74,0,0,1,.72-.7,2.09,2.09,0,0,1,1-.25,1.75,1.75,0,0,1,1.85,1.08h0a2.12,2.12,0,0,1,.8-.8,2.29,2.29,0,0,1,1.14-.28,2,2,0,0,1,1.5.53,2.4,2.4,0,0,1,.5,1.7v4Z"/><path d="M78,184.07l-.14-1h0a2.87,2.87,0,0,1-.94.84,2.6,2.6,0,0,1-1.15.24,2,2,0,0,1-1.4-.46,1.64,1.64,0,0,1-.5-1.27,1.58,1.58,0,0,1,.74-1.39,4.09,4.09,0,0,1,2.16-.52l1.16,0v-.41a2,2,0,0,0-.36-1.31,1.35,1.35,0,0,0-1.14-.45,3.83,3.83,0,0,0-1.75.47l-.21-.48a4.71,4.71,0,0,1,2-.47,2,2,0,0,1,1.5.52,2.3,2.3,0,0,1,.5,1.63v4.06Zm-2.25-.39a2.11,2.11,0,0,0,1.54-.56,2.07,2.07,0,0,0,.57-1.55V181l-1.07,0a3.93,3.93,0,0,0-1.83.4,1.3,1.3,0,0,0-.2,2A1.42,1.42,0,0,0,75.72,183.68Z"/><path d="M85.11,178v.38l-1.26.08a2.15,2.15,0,0,1,.51,1.38,1.86,1.86,0,0,1-.59,1.43,2.2,2.2,0,0,1-1.58.55,3.82,3.82,0,0,1-.58,0,1.42,1.42,0,0,0-.51.41.84.84,0,0,0-.17.5.47.47,0,0,0,.22.42,1.53,1.53,0,0,0,.75.14H83a2.49,2.49,0,0,1,1.53.4,1.4,1.4,0,0,1,.52,1.19,1.7,1.7,0,0,1-.78,1.49,4,4,0,0,1-2.23.52,3,3,0,0,1-1.78-.44,1.42,1.42,0,0,1-.64-1.24,1.46,1.46,0,0,1,.39-1,2,2,0,0,1,1.06-.57,1.14,1.14,0,0,1-.44-.33.81.81,0,0,1-.16-.5,1.31,1.31,0,0,1,.78-1.08,1.65,1.65,0,0,1-.83-.68,2,2,0,0,1-.3-1.08,1.93,1.93,0,0,1,.58-1.47,2.18,2.18,0,0,1,1.57-.55,2.83,2.83,0,0,1,.93.12Zm-4.94,7.13c0,.84.63,1.26,1.87,1.26,1.6,0,2.41-.51,2.41-1.53a.89.89,0,0,0-.38-.8,2.34,2.34,0,0,0-1.22-.25h-1Q80.17,183.78,80.17,185.1Zm.47-5.23a1.4,1.4,0,0,0,.43,1.1,1.92,1.92,0,0,0,2.32,0,1.48,1.48,0,0,0,.4-1.12,1.52,1.52,0,0,0-.41-1.17,1.65,1.65,0,0,0-1.17-.39,1.45,1.45,0,0,0-1.57,1.58Z"/><path d="M90.07,184.07l-.14-1h0a2.89,2.89,0,0,1-1,.84,2.57,2.57,0,0,1-1.15.24,2,2,0,0,1-1.4-.46,1.64,1.64,0,0,1-.5-1.27,1.57,1.57,0,0,1,.75-1.39,4,4,0,0,1,2.15-.52l1.16,0v-.41a2,2,0,0,0-.35-1.31,1.37,1.37,0,0,0-1.14-.45,3.9,3.9,0,0,0-1.76.47l-.2-.48a4.7,4.7,0,0,1,2-.47,2,2,0,0,1,1.51.52,2.3,2.3,0,0,1,.49,1.63v4.06Zm-2.24-.39a1.94,1.94,0,0,0,2.1-2.11V181l-1.07,0a4,4,0,0,0-1.83.4,1.17,1.17,0,0,0-.55,1.06,1.12,1.12,0,0,0,.36.89A1.42,1.42,0,0,0,87.83,183.68Z"/><path d="M100.08,184.07v-4a2,2,0,0,0-.34-1.31,1.35,1.35,0,0,0-1.07-.41,1.76,1.76,0,0,0-1.39.52,2.45,2.45,0,0,0-.45,1.62v3.58h-.56V179.9c0-1-.48-1.55-1.42-1.55a1.68,1.68,0,0,0-1.4.56A2.94,2.94,0,0,0,93,180.7v3.37h-.55V178h.46l.12.83h0a1.74,1.74,0,0,1,.72-.7,2.09,2.09,0,0,1,1-.25,1.75,1.75,0,0,1,1.85,1.08h0a2.12,2.12,0,0,1,.8-.8,2.3,2.3,0,0,1,1.15-.28,2,2,0,0,1,1.49.53,2.4,2.4,0,0,1,.5,1.7v4Z"/><path d="M101.59,178h.57l1.29,3.42c.4,1.05.64,1.76.75,2.13h0c.16-.48.42-1.2.77-2.16l1.29-3.39h.58l-2.74,7.09a5.68,5.68,0,0,1-.55,1.17,1.5,1.5,0,0,1-.53.45,1.61,1.61,0,0,1-.73.15,2.8,2.8,0,0,1-.71-.11v-.49a2.63,2.63,0,0,0,.7.09,1,1,0,0,0,.51-.13,1.25,1.25,0,0,0,.4-.42,6,6,0,0,0,.4-.9l.31-.8Z"/><path d="M113.28,177.85a5,5,0,0,1,.83.08l-.11.53a3.35,3.35,0,0,0-.79-.09,1.55,1.55,0,0,0-1.28.66,2.72,2.72,0,0,0-.5,1.67v3.37h-.55V178h.47l.05,1.1h0a2.54,2.54,0,0,1,.81-.95A1.88,1.88,0,0,1,113.28,177.85Z"/><path d="M120.4,181a3.46,3.46,0,0,1-.72,2.33,2.51,2.51,0,0,1-2,.84,2.67,2.67,0,0,1-1.42-.38,2.48,2.48,0,0,1-.94-1.12A4.15,4.15,0,0,1,115,181a3.46,3.46,0,0,1,.72-2.33,2.53,2.53,0,0,1,2-.83,2.44,2.44,0,0,1,2,.84A3.48,3.48,0,0,1,120.4,181Zm-4.82,0a3.09,3.09,0,0,0,.56,2,2.07,2.07,0,0,0,3.12,0,3.71,3.71,0,0,0,0-3.92,1.93,1.93,0,0,0-1.57-.7,1.88,1.88,0,0,0-1.56.7A3,3,0,0,0,115.58,181Zm1.55-4a9.75,9.75,0,0,0,.81-1,7,7,0,0,0,.55-.79h.79v.1a5.58,5.58,0,0,1-.69.77c-.32.32-.68.65-1.06,1h-.4Z"/><path d="M127,184.07,125.63,180c-.08-.28-.19-.68-.33-1.22h0l-.12.42-.25.81-1.36,4.07H123l-1.75-6.1h.6l1,3.53c.23.88.38,1.52.45,1.94h0c.22-.88.38-1.46.48-1.75L125,178h.5l1.2,3.71c.27.88.43,1.46.49,1.75h0c0-.25.18-.9.45-2l.93-3.5h.56l-1.66,6.1Z"/><path d="M134.66,184.07v-4a2,2,0,0,0-.38-1.34,1.57,1.57,0,0,0-1.21-.42,2.07,2.07,0,0,0-1.6.56,2.59,2.59,0,0,0-.51,1.79v3.37h-.55V178h.47l.11.83h0a2.31,2.31,0,0,1,2.12-1c1.38,0,2.07.74,2.07,2.23v4Z"/><path d="M137.11,176.27q0-.54.36-.54a.33.33,0,0,1,.27.14.85.85,0,0,1,0,.8.32.32,0,0,1-.27.15C137.23,176.82,137.11,176.63,137.11,176.27Zm.64,7.8h-.56V178h.56Z"/><path d="M142.26,184.18a2.66,2.66,0,0,1-2.08-.82,3.25,3.25,0,0,1-.74-2.29,3.61,3.61,0,0,1,.71-2.34,2.37,2.37,0,0,1,1.94-.88,2.08,2.08,0,0,1,1.7.75,3.07,3.07,0,0,1,.63,2v.45H140a2.86,2.86,0,0,0,.59,1.92,2,2,0,0,0,1.65.67,4.89,4.89,0,0,0,.91-.08,5,5,0,0,0,1-.31v.51a4.34,4.34,0,0,1-1,.3A4.78,4.78,0,0,1,142.26,184.18Zm-.17-5.84a1.83,1.83,0,0,0-1.41.58,2.74,2.74,0,0,0-.63,1.68h3.78a2.71,2.71,0,0,0-.46-1.66A1.53,1.53,0,0,0,142.09,178.34Z"/><path d="M149.9,184.07h-4.36v-.35l3.62-5.26H145.8V178h4.09v.35l-3.65,5.26h3.66Zm-2.43-7.8q0-.54.36-.54a.31.31,0,0,1,.27.14.85.85,0,0,1,0,.8.29.29,0,0,1-.27.15C147.59,176.82,147.47,176.63,147.47,176.27Z"/><path d="M46.78,197.87l-1.33-4.08c-.09-.28-.2-.69-.34-1.22h0L45,193l-.25.81-1.36,4.07H42.8l-1.75-6.1h.6l1,3.53c.22.88.38,1.52.45,1.94h0c.22-.88.38-1.46.48-1.75l1.26-3.72h.51l1.19,3.71c.27.88.44,1.46.5,1.74h0q0-.36.45-1.95l.93-3.5H49l-1.65,6.1Z"/><path d="M54,196.28a1.43,1.43,0,0,1-.62,1.26,3,3,0,0,1-1.77.44,4.24,4.24,0,0,1-1.94-.37V197a4.36,4.36,0,0,0,1.94.46,2.55,2.55,0,0,0,1.37-.3.9.9,0,0,0,.47-.8,1,1,0,0,0-.37-.78,4.31,4.31,0,0,0-1.23-.62,6.6,6.6,0,0,1-1.28-.57,1.71,1.71,0,0,1-.56-.54,1.3,1.3,0,0,1-.19-.73,1.23,1.23,0,0,1,.58-1.08,2.74,2.74,0,0,1,1.6-.4,4.78,4.78,0,0,1,1.88.37l-.21.5a4.52,4.52,0,0,0-1.67-.37,2.46,2.46,0,0,0-1.18.25.77.77,0,0,0-.44.69.94.94,0,0,0,.34.76,4.94,4.94,0,0,0,1.33.64,6.5,6.5,0,0,1,1.2.54,1.86,1.86,0,0,1,.57.54A1.36,1.36,0,0,1,54,196.28Z"/><path d="M59.37,197.87H55v-.35l3.63-5.26H55.28v-.49h4.08v.35l-3.64,5.26h3.65Z"/><path d="M63.34,198a2.62,2.62,0,0,1-2.07-.82,3.26,3.26,0,0,1-.75-2.29,3.56,3.56,0,0,1,.72-2.34,2.37,2.37,0,0,1,1.94-.88,2.08,2.08,0,0,1,1.7.75,3.07,3.07,0,0,1,.62,2v.45H61.11a2.86,2.86,0,0,0,.58,1.92,2.06,2.06,0,0,0,1.65.67,4.62,4.62,0,0,0,1.92-.39v.51a4.12,4.12,0,0,1-1,.3A4.88,4.88,0,0,1,63.34,198Zm-.16-5.84a1.87,1.87,0,0,0-1.42.58,2.79,2.79,0,0,0-.62,1.68h3.77a2.64,2.64,0,0,0-.46-1.66A1.5,1.5,0,0,0,63.18,192.14Z"/><path d="M67.74,197.87h-.55v-8.74h.55Z"/><path d="M70.33,195.19l3.12-3.42h.67l-2.4,2.6,2.61,3.5h-.67l-2.32-3.08-1,.91v2.17h-.55v-8.74h.55v4.38l0,1.68Z"/><path d="M75.27,190.07q0-.54.36-.54a.33.33,0,0,1,.27.14.85.85,0,0,1,0,.8.32.32,0,0,1-.27.15C75.39,190.62,75.27,190.43,75.27,190.07Zm.64,7.8h-.56v-6.1h.56Z"/><path d="M85.58,197.87v-4a2,2,0,0,0-.35-1.31,1.34,1.34,0,0,0-1.07-.41,1.75,1.75,0,0,0-1.38.52,2.43,2.43,0,0,0-.45,1.62v3.58h-.57V193.7c0-1-.47-1.55-1.42-1.55a1.66,1.66,0,0,0-1.39.56,2.88,2.88,0,0,0-.44,1.79v3.37H78v-6.1h.46l.12.83h0a1.74,1.74,0,0,1,.72-.7,2.12,2.12,0,0,1,1-.25,1.75,1.75,0,0,1,1.85,1.08h0a2,2,0,0,1,.8-.8,2.24,2.24,0,0,1,1.14-.28,2,2,0,0,1,1.5.53,2.45,2.45,0,0,1,.5,1.7v4Z"/><path d="M96.14,194.81a3.46,3.46,0,0,1-.72,2.33,2.51,2.51,0,0,1-2,.84A2.67,2.67,0,0,1,92,197.6a2.48,2.48,0,0,1-.94-1.12,4.15,4.15,0,0,1-.32-1.67,3.46,3.46,0,0,1,.72-2.33,2.53,2.53,0,0,1,2-.83,2.44,2.44,0,0,1,2,.84A3.48,3.48,0,0,1,96.14,194.81Zm-4.82,0a3.09,3.09,0,0,0,.56,2,1.85,1.85,0,0,0,1.56.71,1.88,1.88,0,0,0,1.56-.71,3.71,3.71,0,0,0,0-3.92,1.93,1.93,0,0,0-1.57-.7,1.87,1.87,0,0,0-1.56.7A3,3,0,0,0,91.32,194.81Z"/><path d="M100.23,191.65a5,5,0,0,1,.83.08l-.1.53a3.48,3.48,0,0,0-.79-.09,1.54,1.54,0,0,0-1.28.66,2.65,2.65,0,0,0-.5,1.67v3.37h-.56v-6.1h.47l.06,1.1h0a2.62,2.62,0,0,1,.8-1A1.88,1.88,0,0,1,100.23,191.65Z"/><path d="M107.07,191.77v.38l-1.27.08a2.15,2.15,0,0,1,.51,1.38,1.86,1.86,0,0,1-.59,1.43,2.18,2.18,0,0,1-1.57.55,4,4,0,0,1-.59,0,1.3,1.3,0,0,0-.5.41.79.79,0,0,0-.18.5.46.46,0,0,0,.23.42,1.46,1.46,0,0,0,.74.14h1.07a2.46,2.46,0,0,1,1.52.4,1.41,1.41,0,0,1,.53,1.19,1.68,1.68,0,0,1-.79,1.49,4,4,0,0,1-2.23.52,3,3,0,0,1-1.78-.44,1.44,1.44,0,0,1-.63-1.24,1.46,1.46,0,0,1,.39-1,2,2,0,0,1,1-.57,1.14,1.14,0,0,1-.44-.33.81.81,0,0,1-.16-.5,1.31,1.31,0,0,1,.78-1.08,1.69,1.69,0,0,1-.83-.68,2,2,0,0,1-.3-1.08,1.93,1.93,0,0,1,.58-1.47,2.18,2.18,0,0,1,1.57-.55,2.83,2.83,0,0,1,.93.12Zm-4.94,7.13c0,.84.62,1.26,1.87,1.26q2.4,0,2.4-1.53a.89.89,0,0,0-.38-.8,2.32,2.32,0,0,0-1.22-.25h-1C102.69,197.58,102.13,198,102.13,198.9Zm.46-5.23a1.4,1.4,0,0,0,.43,1.1,1.65,1.65,0,0,0,1.15.39,1.62,1.62,0,0,0,1.17-.39,1.48,1.48,0,0,0,.41-1.12,1.52,1.52,0,0,0-.42-1.17,1.65,1.65,0,0,0-1.17-.39,1.45,1.45,0,0,0-1.57,1.58Z"/><path d="M112,197.87l-.15-1h0a2.79,2.79,0,0,1-1,.84,2.52,2.52,0,0,1-1.14.24,2,2,0,0,1-1.4-.46,1.61,1.61,0,0,1-.5-1.27,1.56,1.56,0,0,1,.74-1.39,4,4,0,0,1,2.15-.52l1.17,0v-.41a2,2,0,0,0-.36-1.31,1.35,1.35,0,0,0-1.14-.45,3.83,3.83,0,0,0-1.75.47l-.21-.48a4.71,4.71,0,0,1,2-.47,2,2,0,0,1,1.5.52,2.3,2.3,0,0,1,.49,1.63v4.06Zm-2.25-.39a2.11,2.11,0,0,0,1.54-.56,2.06,2.06,0,0,0,.56-1.55v-.61l-1.06.05a4,4,0,0,0-1.84.4,1.17,1.17,0,0,0-.54,1.06,1.12,1.12,0,0,0,.35.89A1.42,1.42,0,0,0,109.78,197.48Z"/><path d="M118.67,197.87v-4a1.93,1.93,0,0,0-.39-1.34,1.56,1.56,0,0,0-1.2-.42,2.06,2.06,0,0,0-1.6.56,2.59,2.59,0,0,0-.51,1.79v3.37h-.56v-6.1h.47l.11.83h0a2.32,2.32,0,0,1,2.12-.95c1.39,0,2.08.74,2.08,2.23v4Z"/><path d="M121.12,190.07c0-.36.11-.54.35-.54a.31.31,0,0,1,.27.14.85.85,0,0,1,0,.8.29.29,0,0,1-.27.15C121.23,190.62,121.12,190.43,121.12,190.07Zm.63,7.8h-.56v-6.1h.56Z"/><path d="M127.59,197.87h-4.36v-.35l3.62-5.26H123.5v-.49h4.08v.35l-3.65,5.26h3.66Z"/><path d="M132.8,197.87l-.14-1h0a2.89,2.89,0,0,1-1,.84,2.57,2.57,0,0,1-1.15.24,2,2,0,0,1-1.4-.46,1.64,1.64,0,0,1-.5-1.27,1.57,1.57,0,0,1,.75-1.39,4,4,0,0,1,2.15-.52l1.16,0v-.41a2,2,0,0,0-.35-1.31,1.37,1.37,0,0,0-1.14-.45,3.87,3.87,0,0,0-1.76.47l-.21-.48a4.74,4.74,0,0,1,2-.47,2,2,0,0,1,1.5.52,2.26,2.26,0,0,1,.5,1.63v4.06Zm-2.24-.39a1.94,1.94,0,0,0,2.1-2.11v-.61l-1.07.05a4,4,0,0,0-1.83.4,1.17,1.17,0,0,0-.55,1.06,1.15,1.15,0,0,0,.35.89A1.46,1.46,0,0,0,130.56,197.48Z"/><path d="M137.63,198a2.6,2.6,0,0,1-2-.82,3.31,3.31,0,0,1-.75-2.31,3.4,3.4,0,0,1,.77-2.36,2.73,2.73,0,0,1,2.11-.84,4.35,4.35,0,0,1,1.52.27l-.16.5a4.29,4.29,0,0,0-1.37-.27,2.09,2.09,0,0,0-1.7.7,3,3,0,0,0-.58,2,2.94,2.94,0,0,0,.58,1.94,2,2,0,0,0,1.61.7,4,4,0,0,0,1.55-.3v.52A3.52,3.52,0,0,1,137.63,198Z"/><path d="M139.84,200.63a1.75,1.75,0,0,1-.76-.14V200a2.8,2.8,0,0,0,.72.11c.57,0,.85-.33.85-1v-7.36h.56v7.29a1.7,1.7,0,0,1-.36,1.16A1.24,1.24,0,0,1,139.84,200.63Zm.73-10.56q0-.54.36-.54a.33.33,0,0,1,.27.14.85.85,0,0,1,0,.8.32.32,0,0,1-.27.15C140.69,190.62,140.57,190.43,140.57,190.07Z"/><path d="M148.3,194.81a3.46,3.46,0,0,1-.72,2.33,2.51,2.51,0,0,1-2,.84,2.67,2.67,0,0,1-1.42-.38,2.48,2.48,0,0,1-.94-1.12,4.15,4.15,0,0,1-.32-1.67,3.46,3.46,0,0,1,.72-2.33,2.52,2.52,0,0,1,2-.83,2.44,2.44,0,0,1,2,.84A3.48,3.48,0,0,1,148.3,194.81Zm-4.82,0a3.09,3.09,0,0,0,.56,2,2.07,2.07,0,0,0,3.12,0,3.71,3.71,0,0,0,0-3.92,1.93,1.93,0,0,0-1.57-.7,1.87,1.87,0,0,0-1.56.7A3,3,0,0,0,143.48,194.81Z"/><path d="M157.62,197.87v-4a2,2,0,0,0-.35-1.31,1.34,1.34,0,0,0-1.07-.41,1.77,1.77,0,0,0-1.39.52,2.43,2.43,0,0,0-.45,1.62v3.58h-.56V193.7c0-1-.47-1.55-1.42-1.55a1.69,1.69,0,0,0-1.4.56,3,3,0,0,0-.43,1.79v3.37H150v-6.1h.46l.12.83h0a1.74,1.74,0,0,1,.72-.7,2.09,2.09,0,0,1,1-.25,1.75,1.75,0,0,1,1.85,1.08h0a2.12,2.12,0,0,1,.8-.8,2.3,2.3,0,0,1,1.15-.28,2,2,0,0,1,1.5.53,2.45,2.45,0,0,1,.5,1.7v4Z"/><path d="M44.36,211.78a2.22,2.22,0,0,1-2-1.05h0v.47c0,.28,0,.58,0,.91v2.32h-.56v-8.86h.47l.11.87h0a2.21,2.21,0,0,1,2-1,2.28,2.28,0,0,1,1.89.81,3.73,3.73,0,0,1,.65,2.36,3.54,3.54,0,0,1-.69,2.33A2.25,2.25,0,0,1,44.36,211.78Zm0-.49a1.68,1.68,0,0,0,1.45-.7,3.23,3.23,0,0,0,.52-2c0-1.79-.65-2.69-2-2.69a1.93,1.93,0,0,0-1.56.59,2.89,2.89,0,0,0-.5,1.91v.18a3.38,3.38,0,0,0,.48,2.05A1.89,1.89,0,0,0,44.35,211.29Z"/><path d="M53.64,208.61a3.46,3.46,0,0,1-.72,2.33,2.5,2.5,0,0,1-2,.84,2.53,2.53,0,0,1-1.41-.39,2.35,2.35,0,0,1-.94-1.11,4,4,0,0,1-.33-1.67,3.41,3.41,0,0,1,.73-2.33,2.77,2.77,0,0,1,4,0A3.48,3.48,0,0,1,53.64,208.61Zm-4.81,0a3.09,3.09,0,0,0,.55,2,2.08,2.08,0,0,0,3.13,0,3.74,3.74,0,0,0,0-3.92,1.9,1.9,0,0,0-1.57-.7,1.87,1.87,0,0,0-1.56.7A3.11,3.11,0,0,0,48.83,208.61Z"/><path d="M59.13,211.67H54.77v-.35l3.62-5.26H55v-.49h4.08v.35l-3.65,5.26h3.66Z"/><path d="M64.34,211.67l-.14-1h0a2.89,2.89,0,0,1-.95.84,2.57,2.57,0,0,1-1.15.24,2,2,0,0,1-1.4-.46,1.66,1.66,0,0,1-.5-1.27,1.57,1.57,0,0,1,.75-1.39,4,4,0,0,1,2.15-.52l1.16,0v-.4a2.09,2.09,0,0,0-.35-1.31,1.37,1.37,0,0,0-1.14-.45,3.87,3.87,0,0,0-1.76.47l-.21-.48a4.74,4.74,0,0,1,2-.47,2,2,0,0,1,1.5.52,2.26,2.26,0,0,1,.5,1.63v4.06Zm-2.25-.39a1.94,1.94,0,0,0,2.11-2.11v-.61l-1.07.05a4,4,0,0,0-1.83.4,1.3,1.3,0,0,0-.2,2A1.45,1.45,0,0,0,62.09,211.28Z"/><path d="M69.13,205.45a4.08,4.08,0,0,1,.83.08l-.11.53a3.35,3.35,0,0,0-.79-.09,1.55,1.55,0,0,0-1.28.66,2.72,2.72,0,0,0-.5,1.67v3.37h-.55v-6.1h.47l.06,1.1h0a2.63,2.63,0,0,1,.81-.95A1.88,1.88,0,0,1,69.13,205.45Z"/><path d="M75,211.67H70.64v-.35l3.62-5.26H70.91v-.49H75v.35l-3.65,5.26H75Z"/><path d="M79.82,213.06c0,.41.19.62.59.62a1.2,1.2,0,0,0,.46-.07v.47a1.57,1.57,0,0,1-.58.09,1,1,0,0,1-.75-.26,1,1,0,0,1-.28-.76,1.56,1.56,0,0,1,.23-.78,2.75,2.75,0,0,1,.71-.77l-.13-.9h0a2.77,2.77,0,0,1-.94.84,2.57,2.57,0,0,1-1.15.24,2,2,0,0,1-1.4-.46,1.66,1.66,0,0,1-.5-1.27,1.57,1.57,0,0,1,.75-1.39,4,4,0,0,1,2.15-.52l1.16,0v-.4a2.09,2.09,0,0,0-.35-1.31,1.37,1.37,0,0,0-1.14-.45,3.87,3.87,0,0,0-1.76.47l-.21-.48a4.74,4.74,0,0,1,2-.47,2,2,0,0,1,1.5.52,2.3,2.3,0,0,1,.5,1.63v4.06a3.19,3.19,0,0,0-.6.67A1.26,1.26,0,0,0,79.82,213.06ZM78,211.28a1.94,1.94,0,0,0,2.11-2.11v-.61l-1.07.05a4,4,0,0,0-1.83.4,1.3,1.3,0,0,0-.2,2A1.45,1.45,0,0,0,78,211.28Z"/><path d="M84.83,205.45a2.57,2.57,0,0,1,1.15.24,2.25,2.25,0,0,1,.86.83h0c0-.48,0-.94,0-1.39v-2.2h.55v8.74H87l-.14-.93h0a2.26,2.26,0,0,1-2,1,2.41,2.41,0,0,1-1.93-.78,3.49,3.49,0,0,1-.67-2.29,3.75,3.75,0,0,1,.67-2.42A2.3,2.3,0,0,1,84.83,205.45Zm0,.5a1.73,1.73,0,0,0-1.5.71,3.4,3.4,0,0,0-.5,2c0,1.73.67,2.6,2,2.6a1.83,1.83,0,0,0,1.52-.6,3.2,3.2,0,0,0,.48-2v-.1a3.48,3.48,0,0,0-.47-2A1.83,1.83,0,0,0,84.83,206Z"/><path d="M94.49,208.61a3.41,3.41,0,0,1-.73,2.33,2.48,2.48,0,0,1-2,.84,2.59,2.59,0,0,1-1.42-.39,2.4,2.4,0,0,1-.94-1.11,4.15,4.15,0,0,1-.32-1.67,3.46,3.46,0,0,1,.72-2.33,2.53,2.53,0,0,1,2-.83,2.44,2.44,0,0,1,2,.84A3.48,3.48,0,0,1,94.49,208.61Zm-4.82,0a3.15,3.15,0,0,0,.55,2,2.08,2.08,0,0,0,3.13,0,3.71,3.71,0,0,0,0-3.92,1.93,1.93,0,0,0-1.57-.7,1.84,1.84,0,0,0-1.56.7A3,3,0,0,0,89.67,208.61Z"/><path d="M101.06,211.67l-1.34-4.08c-.08-.28-.19-.69-.33-1.22h0l-.12.42-.25.81-1.36,4.07h-.55l-1.75-6.1h.6l1,3.53c.23.88.38,1.52.45,1.94h0c.22-.88.38-1.46.48-1.75l1.26-3.72h.5l1.2,3.71c.27.88.43,1.46.49,1.74h0q0-.36.45-2l.93-3.5h.56l-1.66,6.1Z"/><path d="M103.47,205.57h.58l1.29,3.42q.59,1.57.75,2.13h0c.16-.48.41-1.2.77-2.16l1.29-3.39h.57L106,212.66a5.84,5.84,0,0,1-.56,1.17,1.47,1.47,0,0,1-.52.45,1.64,1.64,0,0,1-.73.15,2.45,2.45,0,0,1-.71-.12v-.48a2.58,2.58,0,0,0,.7.09.91.91,0,0,0,.5-.13,1.25,1.25,0,0,0,.4-.42,5.8,5.8,0,0,0,.41-.9c.15-.41.25-.68.3-.8Z"/><path d="M117.4,211.67v-4a2,2,0,0,0-.35-1.31A1.34,1.34,0,0,0,116,206a1.75,1.75,0,0,0-1.38.52,2.43,2.43,0,0,0-.45,1.62v3.58h-.57V207.5c0-1-.47-1.55-1.41-1.55a1.68,1.68,0,0,0-1.4.56,2.94,2.94,0,0,0-.44,1.79v3.37h-.56v-6.1h.46l.12.83h0a1.65,1.65,0,0,1,.71-.7,2.15,2.15,0,0,1,1-.25,1.77,1.77,0,0,1,1.86,1.08h0a2.05,2.05,0,0,1,.8-.8,2.24,2.24,0,0,1,1.14-.28,2,2,0,0,1,1.5.53,2.45,2.45,0,0,1,.5,1.7v4Z"/><path d="M122.84,203.87c0-.36.11-.54.35-.54a.32.32,0,0,1,.27.14.85.85,0,0,1,0,.8.31.31,0,0,1-.27.15C123,204.42,122.84,204.23,122.84,203.87Zm.63,7.8h-.56v-6.1h.56Z"/><path d="M130.94,211.78a2.61,2.61,0,0,1-2.05-.82,3.31,3.31,0,0,1-.74-2.31,3.36,3.36,0,0,1,.77-2.36,2.7,2.7,0,0,1,2.1-.84,4.35,4.35,0,0,1,1.52.27l-.15.5A4.39,4.39,0,0,0,131,206a2.06,2.06,0,0,0-1.7.7,3,3,0,0,0-.58,2,2.94,2.94,0,0,0,.58,1.94,2,2,0,0,0,1.62.7,3.92,3.92,0,0,0,1.54-.3v.52A3.52,3.52,0,0,1,130.94,211.78Z"/><path d="M138.22,211.67v-4a1.93,1.93,0,0,0-.39-1.34,1.53,1.53,0,0,0-1.2-.42,2.07,2.07,0,0,0-1.6.56,2.59,2.59,0,0,0-.51,1.79v3.37H134v-8.74h.56v2.78l0,.78h0a2.05,2.05,0,0,1,.87-.79,2.91,2.91,0,0,1,1.29-.25c1.39,0,2.08.74,2.08,2.23v4Z"/><path d="M144.45,211.67l-.14-1h0a2.79,2.79,0,0,1-1,.84,2.54,2.54,0,0,1-1.15.24,2,2,0,0,1-1.39-.46,1.62,1.62,0,0,1-.5-1.27,1.56,1.56,0,0,1,.74-1.39,4,4,0,0,1,2.15-.52l1.17,0v-.4a2,2,0,0,0-.36-1.31,1.35,1.35,0,0,0-1.14-.45,3.83,3.83,0,0,0-1.75.47l-.21-.48a4.7,4.7,0,0,1,2-.47,2,2,0,0,1,1.51.52,2.3,2.3,0,0,1,.49,1.63v4.06Zm-2.24-.39a2.11,2.11,0,0,0,1.54-.56,2.06,2.06,0,0,0,.56-1.55v-.61l-1.06.05a4,4,0,0,0-1.84.4,1.17,1.17,0,0,0-.54,1.06,1.12,1.12,0,0,0,.35.89A1.42,1.42,0,0,0,142.21,211.28Z"/><path d="M149.24,205.45a4.08,4.08,0,0,1,.83.08l-.1.53a3.48,3.48,0,0,0-.79-.09,1.54,1.54,0,0,0-1.28.66,2.65,2.65,0,0,0-.5,1.67v3.37h-.56v-6.1h.47l.06,1.1h0a2.62,2.62,0,0,1,.8-.95A1.91,1.91,0,0,1,149.24,205.45Z"/><path d="M150.29,205.57h.58l1.29,3.42q.59,1.57.75,2.13h0c.16-.48.41-1.2.77-2.16l1.29-3.39h.57l-2.73,7.09a5.84,5.84,0,0,1-.56,1.17,1.47,1.47,0,0,1-.52.45,1.64,1.64,0,0,1-.73.15,2.45,2.45,0,0,1-.71-.12v-.48a2.58,2.58,0,0,0,.7.09.91.91,0,0,0,.5-.13,1.25,1.25,0,0,0,.4-.42,5.8,5.8,0,0,0,.41-.9c.15-.41.26-.68.3-.8Z"/><path d="M156.09,208.8v-.47h2.67v.47Z"/><path d="M45.07,225.09A4.15,4.15,0,0,0,46,225v.45a2.94,2.94,0,0,1-.93.13,1.49,1.49,0,0,1-1.19-.43,2,2,0,0,1-.39-1.36v-3.94h-.9v-.33l.9-.25.28-1.38h.29v1.48h1.79v.48H44.05v3.86a1.71,1.71,0,0,0,.25,1A.87.87,0,0,0,45.07,225.09Z"/><path d="M51,225.47l-.14-1h-.05a2.77,2.77,0,0,1-.94.84,2.6,2.6,0,0,1-1.15.24,2,2,0,0,1-1.4-.46,1.66,1.66,0,0,1-.5-1.27,1.57,1.57,0,0,1,.75-1.39,4,4,0,0,1,2.15-.52l1.16,0v-.4a2.09,2.09,0,0,0-.35-1.31,1.37,1.37,0,0,0-1.14-.45,3.87,3.87,0,0,0-1.76.47l-.21-.48a4.71,4.71,0,0,1,2-.47,2,2,0,0,1,1.5.52,2.3,2.3,0,0,1,.5,1.63v4.06Zm-2.25-.39a2.09,2.09,0,0,0,1.54-.56,2.07,2.07,0,0,0,.57-1.55v-.61l-1.07,0a3.93,3.93,0,0,0-1.83.4,1.3,1.3,0,0,0-.2,1.95A1.45,1.45,0,0,0,48.77,225.08Z"/><path d="M55,225.09a4.15,4.15,0,0,0,.92-.09v.45a2.94,2.94,0,0,1-.93.13,1.53,1.53,0,0,1-1.2-.43,2,2,0,0,1-.38-1.36v-3.94h-.91v-.33l.91-.25.28-1.38H54v1.48h1.8v.48H54v3.86a1.79,1.79,0,0,0,.25,1A.9.9,0,0,0,55,225.09Z"/><path d="M56.24,219.37h.57l1.29,3.42q.59,1.58.75,2.13h0c.16-.48.41-1.2.77-2.16l1.29-3.39h.57l-2.73,7.09a5.84,5.84,0,0,1-.56,1.17,1.47,1.47,0,0,1-.52.45,1.61,1.61,0,0,1-.73.15,2.45,2.45,0,0,1-.71-.12v-.48a2.58,2.58,0,0,0,.7.09,1,1,0,0,0,.51-.13,1.33,1.33,0,0,0,.39-.42,5,5,0,0,0,.41-.9c.16-.41.26-.68.3-.8Z"/><path d="M67.42,225.47l-1.34-4.08c-.09-.28-.2-.69-.33-1.22h0l-.11.42-.26.81L64,225.47h-.55l-1.74-6.1h.59l1,3.53c.23.88.38,1.52.45,1.94h0c.22-.88.39-1.46.49-1.75l1.25-3.72H66l1.19,3.71c.27.88.44,1.46.5,1.74h0q0-.36.45-1.95l.93-3.5h.57L68,225.47Z"/><path d="M75.11,225.47v-4a1.93,1.93,0,0,0-.39-1.34,1.56,1.56,0,0,0-1.2-.42,2.06,2.06,0,0,0-1.6.56,2.59,2.59,0,0,0-.51,1.79v3.37h-.56v-6.1h.47l.11.83h0a2.32,2.32,0,0,1,2.12-.95c1.39,0,2.08.74,2.08,2.23v4Z"/><path d="M76.61,219.37h.58l1.29,3.42c.39,1.05.64,1.76.74,2.13h0c.15-.48.41-1.2.77-2.16l1.29-3.39h.57l-2.73,7.09a5.84,5.84,0,0,1-.56,1.17,1.47,1.47,0,0,1-.52.45,1.64,1.64,0,0,1-.73.15,2.52,2.52,0,0,1-.72-.12v-.48a2.71,2.71,0,0,0,.71.09.91.91,0,0,0,.5-.13,1.25,1.25,0,0,0,.4-.42,5.8,5.8,0,0,0,.41-.9c.15-.41.25-.68.3-.8Z"/><path d="M90.54,225.47v-4a2,2,0,0,0-.35-1.31,1.34,1.34,0,0,0-1.07-.41,1.75,1.75,0,0,0-1.38.52,2.43,2.43,0,0,0-.45,1.62v3.58h-.57V221.3c0-1-.47-1.55-1.42-1.55a1.67,1.67,0,0,0-1.39.56,2.86,2.86,0,0,0-.44,1.79v3.37h-.56v-6.1h.46l.12.83h0a1.74,1.74,0,0,1,.72-.7,2.12,2.12,0,0,1,1-.25,1.75,1.75,0,0,1,1.85,1.08h0a2,2,0,0,1,.8-.8,2.24,2.24,0,0,1,1.14-.28,2,2,0,0,1,1.5.53,2.45,2.45,0,0,1,.5,1.7v4Z"/><path d="M93.7,224.13l.07.12a18.84,18.84,0,0,1-1,2.7h-.36a23.4,23.4,0,0,0,.61-2.82Z"/><path d="M99.07,222.79l3.11-3.42h.68l-2.4,2.6,2.61,3.5h-.67l-2.32-3.08-1,.91v2.17h-.56v-8.74h.56v4.38l0,1.68Z"/><path d="M105.7,225.09a4.15,4.15,0,0,0,.92-.09v.45a2.94,2.94,0,0,1-.93.13,1.53,1.53,0,0,1-1.2-.43,2,2,0,0,1-.38-1.36v-3.94h-.9v-.33l.9-.25.28-1.38h.29v1.48h1.79v.48h-1.79v3.86a1.79,1.79,0,0,0,.24,1A.9.9,0,0,0,105.7,225.09Z"/><path d="M113,222.41a3.41,3.41,0,0,1-.73,2.33,2.5,2.5,0,0,1-2,.84,2.58,2.58,0,0,1-1.41-.39,2.4,2.4,0,0,1-.94-1.11,4,4,0,0,1-.32-1.67,3.46,3.46,0,0,1,.72-2.33,2.52,2.52,0,0,1,2-.83,2.45,2.45,0,0,1,2,.84A3.48,3.48,0,0,1,113,222.41Zm-4.82,0a3.09,3.09,0,0,0,.55,2,2.08,2.08,0,0,0,3.13,0,3.09,3.09,0,0,0,.55-2,3,3,0,0,0-.56-2,1.9,1.9,0,0,0-1.57-.7,1.84,1.84,0,0,0-1.55.7A3,3,0,0,0,108.17,222.41Zm1.55-4q.41-.43.81-1a7,7,0,0,0,.55-.79h.79v.1a5.58,5.58,0,0,1-.69.77c-.32.32-.68.65-1.07,1h-.39Z"/><path d="M117.08,219.25a4.08,4.08,0,0,1,.83.08l-.11.53a3.35,3.35,0,0,0-.79-.1,1.56,1.56,0,0,0-1.28.67,2.72,2.72,0,0,0-.5,1.67v3.37h-.55v-6.1h.47l.06,1.1h0a2.63,2.63,0,0,1,.81-.95A1.88,1.88,0,0,1,117.08,219.25Z"/><path d="M121.62,225.58a2.66,2.66,0,0,1-2.08-.82,3.3,3.3,0,0,1-.74-2.29,3.56,3.56,0,0,1,.72-2.34,2.36,2.36,0,0,1,1.94-.88,2.11,2.11,0,0,1,1.7.75,3.12,3.12,0,0,1,.62,2v.45h-4.4a2.91,2.91,0,0,0,.59,1.92,2,2,0,0,0,1.65.67,5,5,0,0,0,.92-.08,5.13,5.13,0,0,0,1-.31v.5a3.8,3.8,0,0,1-1,.31A4.78,4.78,0,0,1,121.62,225.58Zm-.16-5.84a1.87,1.87,0,0,0-1.42.58,2.73,2.73,0,0,0-.62,1.68h3.77a2.64,2.64,0,0,0-.46-1.66A1.52,1.52,0,0,0,121.46,219.74Z"/><path d="M132.71,225.47v-4a1.93,1.93,0,0,0-.39-1.34,1.56,1.56,0,0,0-1.2-.42,2.06,2.06,0,0,0-1.6.56,2.59,2.59,0,0,0-.51,1.79v3.37h-.56v-6.1h.47l.11.83h0a2.32,2.32,0,0,1,2.12-.95c1.39,0,2.08.74,2.08,2.23v4Z"/><path d="M135.16,217.67c0-.36.11-.54.35-.54a.31.31,0,0,1,.27.14.85.85,0,0,1,0,.8.29.29,0,0,1-.27.15C135.27,218.22,135.16,218,135.16,217.67Zm.63,7.8h-.56v-6.1h.56Z"/><path d="M140.3,225.58a2.66,2.66,0,0,1-2.08-.82,3.3,3.3,0,0,1-.74-2.29,3.56,3.56,0,0,1,.72-2.34,2.36,2.36,0,0,1,1.94-.88,2.1,2.1,0,0,1,1.7.75,3.12,3.12,0,0,1,.62,2v.45h-4.4a2.91,2.91,0,0,0,.59,1.92,2.06,2.06,0,0,0,1.65.67,5,5,0,0,0,.92-.08,4.93,4.93,0,0,0,1-.31v.5a3.74,3.74,0,0,1-.95.31A5,5,0,0,1,140.3,225.58Zm-.16-5.84a1.87,1.87,0,0,0-1.42.58,2.79,2.79,0,0,0-.62,1.68h3.77a2.64,2.64,0,0,0-.46-1.66A1.52,1.52,0,0,0,140.14,219.74Z"/><path d="M150.92,223.88a1.45,1.45,0,0,1-.62,1.26,3,3,0,0,1-1.77.44,4.26,4.26,0,0,1-1.95-.37v-.61a4.28,4.28,0,0,0,1.95.47,2.46,2.46,0,0,0,1.37-.31.91.91,0,0,0,.47-.79,1,1,0,0,0-.38-.78,3.87,3.87,0,0,0-1.22-.62,7.08,7.08,0,0,1-1.29-.57,1.82,1.82,0,0,1-.56-.54,1.39,1.39,0,0,1-.19-.73,1.25,1.25,0,0,1,.58-1.08,2.76,2.76,0,0,1,1.61-.4,4.81,4.81,0,0,1,1.88.37l-.21.5a4.56,4.56,0,0,0-1.67-.37,2.51,2.51,0,0,0-1.19.25.76.76,0,0,0-.43.69.94.94,0,0,0,.34.76,4.69,4.69,0,0,0,1.32.64,6.66,6.66,0,0,1,1.21.54,1.82,1.82,0,0,1,.56.54A1.28,1.28,0,0,1,150.92,223.88Z"/><path d="M155.8,226.86a.54.54,0,0,0,.6.62,1.24,1.24,0,0,0,.46-.07v.47a1.63,1.63,0,0,1-.59.09,1,1,0,0,1-.75-.26,1,1,0,0,1-.27-.76,1.54,1.54,0,0,1,.22-.78,2.75,2.75,0,0,1,.71-.77l-.12-.9H156a2.79,2.79,0,0,1-.95.84,2.52,2.52,0,0,1-1.14.24,2,2,0,0,1-1.4-.46,1.62,1.62,0,0,1-.5-1.27,1.58,1.58,0,0,1,.74-1.39,4.09,4.09,0,0,1,2.16-.52l1.16,0v-.4a2,2,0,0,0-.36-1.31,1.35,1.35,0,0,0-1.14-.45,3.83,3.83,0,0,0-1.75.47l-.21-.48a4.71,4.71,0,0,1,2-.47,2,2,0,0,1,1.5.52,2.3,2.3,0,0,1,.5,1.63v4.06a3.27,3.27,0,0,0-.61.67A1.34,1.34,0,0,0,155.8,226.86ZM154,225.08a2.09,2.09,0,0,0,1.54-.56,2.07,2.07,0,0,0,.57-1.55v-.61l-1.07,0a3.93,3.93,0,0,0-1.83.4,1.15,1.15,0,0,0-.55,1.06,1.12,1.12,0,0,0,.35.89A1.42,1.42,0,0,0,154,225.08Z"/><path d="M44.4,239.27h-.57v-8.21h4.5v.53H44.4v3.48h3.71v.53H44.4Z"/><path d="M50,233.17v4a2,2,0,0,0,.38,1.34,1.57,1.57,0,0,0,1.21.42,2.12,2.12,0,0,0,1.6-.55,2.6,2.6,0,0,0,.51-1.79v-3.37h.55v6.1h-.47l-.1-.84h0a2.32,2.32,0,0,1-2.12.95c-1.39,0-2.08-.74-2.08-2.23v-4Z"/><path d="M60.5,239.27v-4a2,2,0,0,0-.38-1.34,1.57,1.57,0,0,0-1.21-.42,2.07,2.07,0,0,0-1.6.56,2.57,2.57,0,0,0-.51,1.79v3.37h-.55v-6.1h.47l.11.83h0a2.31,2.31,0,0,1,2.12-.95c1.38,0,2.07.74,2.07,2.23v4Z"/><path d="M65.26,233.05a2.54,2.54,0,0,1,1.15.24,2.25,2.25,0,0,1,.86.83h0c0-.48,0-.94,0-1.39v-2.2h.56v8.74h-.37l-.14-.93h0a2.26,2.26,0,0,1-2,1,2.42,2.42,0,0,1-1.94-.78,3.49,3.49,0,0,1-.66-2.29,3.81,3.81,0,0,1,.66-2.42A2.3,2.3,0,0,1,65.26,233.05Zm0,.5a1.74,1.74,0,0,0-1.5.71,3.47,3.47,0,0,0-.5,2c0,1.73.67,2.6,2,2.6a1.81,1.81,0,0,0,1.51-.6,3.2,3.2,0,0,0,.48-2v-.1a3.41,3.41,0,0,0-.47-2A1.83,1.83,0,0,0,65.26,233.55Z"/><path d="M73.58,239.27l-.14-1h0a3,3,0,0,1-1,.84,2.57,2.57,0,0,1-1.15.24,2,2,0,0,1-1.4-.46,1.66,1.66,0,0,1-.5-1.27,1.57,1.57,0,0,1,.75-1.39,4,4,0,0,1,2.15-.52l1.16,0v-.4a2.09,2.09,0,0,0-.35-1.31,1.37,1.37,0,0,0-1.14-.45,3.87,3.87,0,0,0-1.76.47l-.21-.48a4.74,4.74,0,0,1,2-.47,2,2,0,0,1,1.5.52,2.26,2.26,0,0,1,.5,1.63v4.06Zm-2.24-.39a1.94,1.94,0,0,0,2.1-2.11v-.61l-1.07.05a4,4,0,0,0-1.83.4,1.17,1.17,0,0,0-.55,1.06,1.15,1.15,0,0,0,.35.89A1.46,1.46,0,0,0,71.34,238.88Z"/><path d="M78.4,239.38a2.62,2.62,0,0,1-2.05-.82,3.36,3.36,0,0,1-.74-2.31,3.4,3.4,0,0,1,.77-2.36,2.73,2.73,0,0,1,2.11-.84,4.35,4.35,0,0,1,1.52.27l-.16.5a4.29,4.29,0,0,0-1.37-.27,2.06,2.06,0,0,0-1.7.7,3,3,0,0,0-.58,2,2.94,2.94,0,0,0,.58,1.94,2,2,0,0,0,1.61.7,4,4,0,0,0,1.55-.3v.52A3.53,3.53,0,0,1,78.4,239.38Z"/><path d="M80.62,242a1.75,1.75,0,0,1-.76-.14v-.48a2.8,2.8,0,0,0,.72.11c.57,0,.85-.33.85-1v-7.36H82v7.28a1.71,1.71,0,0,1-.36,1.17A1.26,1.26,0,0,1,80.62,242Zm.73-10.56q0-.54.36-.54a.33.33,0,0,1,.27.14.85.85,0,0,1,0,.8.31.31,0,0,1-.27.14Q81.35,232,81.35,231.47Z"/><path d="M87.74,239.27l-.14-1h0a2.88,2.88,0,0,1-.94.84,2.6,2.6,0,0,1-1.15.24,2,2,0,0,1-1.4-.46,1.66,1.66,0,0,1-.5-1.27,1.58,1.58,0,0,1,.74-1.39,4.09,4.09,0,0,1,2.16-.52l1.16,0v-.4a2.09,2.09,0,0,0-.35-1.31,1.37,1.37,0,0,0-1.14-.45,3.84,3.84,0,0,0-1.76.47l-.21-.48a4.71,4.71,0,0,1,2-.47,2,2,0,0,1,1.5.52,2.3,2.3,0,0,1,.5,1.63v4.06Zm-2.25-.39a2.09,2.09,0,0,0,1.54-.56,2.07,2.07,0,0,0,.57-1.55v-.61l-1.07.05a3.93,3.93,0,0,0-1.83.4,1.3,1.3,0,0,0-.2,1.95A1.42,1.42,0,0,0,85.49,238.88Z"/><path d="M97.75,239.27v-4A2,2,0,0,0,97.4,234a1.34,1.34,0,0,0-1.07-.41,1.75,1.75,0,0,0-1.38.52,2.43,2.43,0,0,0-.45,1.62v3.58h-.57V235.1c0-1-.47-1.55-1.41-1.55a1.68,1.68,0,0,0-1.4.56,2.92,2.92,0,0,0-.44,1.79v3.37h-.56v-6.1h.46l.12.83h0a1.65,1.65,0,0,1,.71-.7,2.15,2.15,0,0,1,1-.25,1.77,1.77,0,0,1,1.86,1.08h0a2.05,2.05,0,0,1,.8-.8,2.24,2.24,0,0,1,1.14-.28,2,2,0,0,1,1.5.53,2.45,2.45,0,0,1,.5,1.7v4Z"/><path d="M100.2,231.47c0-.36.12-.54.35-.54a.31.31,0,0,1,.27.14.85.85,0,0,1,0,.8.29.29,0,0,1-.27.14C100.32,232,100.2,231.83,100.2,231.47Zm.63,7.8h-.55v-6.1h.55Z"/><path d="M102.76,238.83c0-.36.15-.55.45-.55s.46.19.46.55-.15.55-.46.55S102.76,239.2,102.76,238.83Z"/><path d="M113.27,237.15a2,2,0,0,1-.76,1.63,3.12,3.12,0,0,1-2,.6,6.28,6.28,0,0,1-2.31-.33v-.57a5.83,5.83,0,0,0,2.26.37,2.5,2.5,0,0,0,1.6-.46,1.46,1.46,0,0,0,.6-1.21,1.43,1.43,0,0,0-.2-.78,1.8,1.8,0,0,0-.64-.56,8.55,8.55,0,0,0-1.3-.54,4.41,4.41,0,0,1-1.74-.94,2,2,0,0,1,.24-2.84,2.91,2.91,0,0,1,1.86-.58,5.47,5.47,0,0,1,2.17.44l-.21.49a5.12,5.12,0,0,0-2-.42,2.29,2.29,0,0,0-1.45.42,1.37,1.37,0,0,0-.54,1.14,1.49,1.49,0,0,0,.17.75,1.52,1.52,0,0,0,.54.53,8,8,0,0,0,1.29.56,6.74,6.74,0,0,1,1.44.64,2.09,2.09,0,0,1,.71.71A1.88,1.88,0,0,1,113.27,237.15Z"/><path d="M118.18,240.66c0,.41.2.62.59.62a1.2,1.2,0,0,0,.46-.07v.47a1.57,1.57,0,0,1-.58.09,1.05,1.05,0,0,1-.75-.26,1,1,0,0,1-.28-.76,1.56,1.56,0,0,1,.23-.78,2.75,2.75,0,0,1,.71-.77l-.13-.9h-.05a2.88,2.88,0,0,1-.94.84,2.6,2.6,0,0,1-1.15.24,2,2,0,0,1-1.4-.46,1.66,1.66,0,0,1-.5-1.27,1.57,1.57,0,0,1,.75-1.39,4,4,0,0,1,2.15-.52l1.16,0v-.4a2.09,2.09,0,0,0-.35-1.31,1.37,1.37,0,0,0-1.14-.45,3.87,3.87,0,0,0-1.76.47l-.21-.48a4.74,4.74,0,0,1,2-.47,2,2,0,0,1,1.5.52,2.3,2.3,0,0,1,.5,1.63v4.06a3.19,3.19,0,0,0-.6.67A1.26,1.26,0,0,0,118.18,240.66Zm-1.86-1.78a2.13,2.13,0,0,0,1.55-.56,2.1,2.1,0,0,0,.56-1.55v-.61l-1.07.05a4,4,0,0,0-1.83.4,1.3,1.3,0,0,0-.2,1.95A1.45,1.45,0,0,0,116.32,238.88Z"/><path d="M125.56,238.89a4.22,4.22,0,0,0,.92-.09v.45a3,3,0,0,1-.94.13,1.52,1.52,0,0,1-1.19-.43,2,2,0,0,1-.38-1.36v-3.94h-.91v-.33l.91-.25.28-1.38h.28v1.48h1.79v.48h-1.79v3.86a1.79,1.79,0,0,0,.25,1A.89.89,0,0,0,125.56,238.89Z"/><path d="M132.84,236.21a3.46,3.46,0,0,1-.72,2.33,2.5,2.5,0,0,1-2,.84,2.55,2.55,0,0,1-1.41-.39,2.4,2.4,0,0,1-.94-1.11,4,4,0,0,1-.33-1.67,3.41,3.41,0,0,1,.73-2.33,2.5,2.5,0,0,1,2-.83,2.46,2.46,0,0,1,2,.84A3.48,3.48,0,0,1,132.84,236.21Zm-4.81,0a3.09,3.09,0,0,0,.55,2,2.08,2.08,0,0,0,3.13,0,3.74,3.74,0,0,0,0-3.92,1.9,1.9,0,0,0-1.57-.7,1.87,1.87,0,0,0-1.56.7A3.11,3.11,0,0,0,128,236.21Z"/><path d="M141.78,239.27v-4a1.93,1.93,0,0,0-.39-1.34,1.56,1.56,0,0,0-1.2-.42,2.07,2.07,0,0,0-1.6.56,2.57,2.57,0,0,0-.51,1.79v3.37h-.56v-6.1H138l.11.83h0a2.32,2.32,0,0,1,2.12-.95c1.39,0,2.08.74,2.08,2.23v4Z"/><path d="M148,239.27l-.14-1h0a3,3,0,0,1-1,.84,2.57,2.57,0,0,1-1.15.24,2,2,0,0,1-1.4-.46,1.66,1.66,0,0,1-.5-1.27,1.57,1.57,0,0,1,.75-1.39,4,4,0,0,1,2.15-.52l1.16,0v-.4a2,2,0,0,0-.35-1.31,1.37,1.37,0,0,0-1.14-.45,3.87,3.87,0,0,0-1.76.47l-.21-.48a4.74,4.74,0,0,1,2-.47,2,2,0,0,1,1.5.52,2.26,2.26,0,0,1,.5,1.63v4.06Zm-2.24-.39a1.94,1.94,0,0,0,2.1-2.11v-.61l-1.07.05a4,4,0,0,0-1.83.4,1.17,1.17,0,0,0-.55,1.06,1.15,1.15,0,0,0,.35.89A1.46,1.46,0,0,0,145.77,238.88Z"/><path d="M154.18,237.68a1.45,1.45,0,0,1-.62,1.26,3,3,0,0,1-1.77.44,4.21,4.21,0,0,1-1.94-.37v-.61a4.24,4.24,0,0,0,1.94.47,2.55,2.55,0,0,0,1.37-.31.89.89,0,0,0,.47-.8,1,1,0,0,0-.37-.77,4.07,4.07,0,0,0-1.23-.62,6.6,6.6,0,0,1-1.28-.57,1.71,1.71,0,0,1-.56-.54,1.3,1.3,0,0,1-.19-.73,1.23,1.23,0,0,1,.58-1.08,2.74,2.74,0,0,1,1.6-.4,4.78,4.78,0,0,1,1.88.37l-.21.5a4.52,4.52,0,0,0-1.67-.37,2.46,2.46,0,0,0-1.18.25.77.77,0,0,0-.44.69.94.94,0,0,0,.34.76,4.94,4.94,0,0,0,1.33.64,6.5,6.5,0,0,1,1.2.54,1.71,1.71,0,0,1,.56.54A1.28,1.28,0,0,1,154.18,237.68Z"/><path d="M155.68,231.47c0-.36.12-.54.35-.54a.31.31,0,0,1,.27.14.85.85,0,0,1,0,.8.29.29,0,0,1-.27.14C155.8,232,155.68,231.83,155.68,231.47Zm.63,7.8h-.55v-6.1h.55Z"/><path d="M48.25,247.22a2.17,2.17,0,0,1-.81,1.82,3.57,3.57,0,0,1-2.29.64H43.88v3.39h-.57v-8.21h2C47.28,244.86,48.25,245.65,48.25,247.22Zm-4.37,2H45a3.47,3.47,0,0,0,2-.45,1.74,1.74,0,0,0,.62-1.49,1.66,1.66,0,0,0-.59-1.4,2.89,2.89,0,0,0-1.81-.46H43.88Z"/><path d="M53.6,253.07l-.14-1h0a2.79,2.79,0,0,1-1,.84,2.54,2.54,0,0,1-1.15.24,2,2,0,0,1-1.39-.46,1.61,1.61,0,0,1-.5-1.27,1.58,1.58,0,0,1,.74-1.39,4,4,0,0,1,2.15-.52l1.17,0v-.41a2,2,0,0,0-.36-1.31,1.35,1.35,0,0,0-1.14-.45,3.83,3.83,0,0,0-1.75.47l-.21-.48a4.7,4.7,0,0,1,2-.47,2,2,0,0,1,1.51.52A2.3,2.3,0,0,1,54,249v4.06Zm-2.24-.39a2.11,2.11,0,0,0,1.54-.56,2.06,2.06,0,0,0,.56-1.55V250l-1.06,0a4,4,0,0,0-1.84.4,1.17,1.17,0,0,0-.54,1.06,1.12,1.12,0,0,0,.35.89A1.42,1.42,0,0,0,51.36,252.68Z"/><path d="M58.39,246.85a5.16,5.16,0,0,1,.84.08l-.11.53a3.48,3.48,0,0,0-.79-.09,1.54,1.54,0,0,0-1.28.66,2.65,2.65,0,0,0-.5,1.67v3.37H56V247h.47l.06,1.1h0a2.62,2.62,0,0,1,.8-.95A1.91,1.91,0,0,1,58.39,246.85Z"/><path d="M62.08,252.69a4.15,4.15,0,0,0,.92-.09v.45a2.94,2.94,0,0,1-.93.13,1.53,1.53,0,0,1-1.2-.43,2,2,0,0,1-.38-1.36v-3.94h-.9v-.33l.9-.25.28-1.38h.29V247h1.79v.48H61.06v3.86a1.79,1.79,0,0,0,.24,1A.9.9,0,0,0,62.08,252.69Z"/><path d="M68.58,253.07v-4a1.93,1.93,0,0,0-.39-1.34,1.56,1.56,0,0,0-1.2-.42,2.1,2.1,0,0,0-1.61.56,2.59,2.59,0,0,0-.5,1.79v3.37h-.56V247h.47l.11.83h0a2.31,2.31,0,0,1,2.12-1c1.38,0,2.08.74,2.08,2.23v4Z"/><path d="M73.57,253.18a2.66,2.66,0,0,1-2.08-.82,3.3,3.3,0,0,1-.74-2.29,3.56,3.56,0,0,1,.72-2.34,2.35,2.35,0,0,1,1.93-.88,2.12,2.12,0,0,1,1.71.75,3.12,3.12,0,0,1,.62,2v.45h-4.4a2.91,2.91,0,0,0,.59,1.92,2,2,0,0,0,1.65.67,5,5,0,0,0,.92-.08,5.13,5.13,0,0,0,1-.31v.51a4.19,4.19,0,0,1-1,.3A4.78,4.78,0,0,1,73.57,253.18Zm-.17-5.84a1.85,1.85,0,0,0-1.41.58,2.73,2.73,0,0,0-.62,1.68h3.77a2.64,2.64,0,0,0-.46-1.66A1.52,1.52,0,0,0,73.4,247.34Z"/><path d="M79.82,246.85a5,5,0,0,1,.83.08l-.11.53a3.42,3.42,0,0,0-.79-.09,1.54,1.54,0,0,0-1.28.66,2.72,2.72,0,0,0-.5,1.67v3.37h-.56V247h.47l.06,1.1h0a2.62,2.62,0,0,1,.8-.95A1.92,1.92,0,0,1,79.82,246.85Z"/><path d="M85.68,253.07H81.33v-.35L85,247.46H81.59V247h4.08v.35L82,252.58h3.65Z"/><path d="M86.17,247h.57L88,250.39c.4,1.05.64,1.76.75,2.13h0c.16-.48.42-1.2.77-2.16L90.87,247h.58l-2.74,7.09a6.27,6.27,0,0,1-.55,1.17,1.5,1.5,0,0,1-.53.45,1.61,1.61,0,0,1-.73.15,2.8,2.8,0,0,1-.71-.11v-.49a2.63,2.63,0,0,0,.7.09,1,1,0,0,0,.51-.13,1.23,1.23,0,0,0,.39-.42,5,5,0,0,0,.41-.9c.16-.41.26-.68.3-.8Z"/><path d="M93.1,251.73l.07.12a18.84,18.84,0,0,1-1,2.7h-.36a23.58,23.58,0,0,0,.62-2.82Z"/><path d="M98.47,250.39l3.12-3.42h.67l-2.4,2.6,2.61,3.5h-.67L99.48,250l-1,.91v2.17h-.55v-8.74h.55v4.38l0,1.68Z"/><path d="M105.1,252.69a4.15,4.15,0,0,0,.92-.09v.45a2.94,2.94,0,0,1-.93.13,1.49,1.49,0,0,1-1.19-.43,2,2,0,0,1-.39-1.36v-3.94h-.9v-.33l.9-.25.28-1.38h.29V247h1.79v.48h-1.79v3.86a1.71,1.71,0,0,0,.25,1A.87.87,0,0,0,105.1,252.69Z"/><path d="M112.39,250a3.46,3.46,0,0,1-.72,2.33,2.51,2.51,0,0,1-2,.84,2.67,2.67,0,0,1-1.42-.38,2.48,2.48,0,0,1-.94-1.12A4.15,4.15,0,0,1,107,250a3.46,3.46,0,0,1,.72-2.33,2.52,2.52,0,0,1,2-.83,2.44,2.44,0,0,1,2,.84A3.48,3.48,0,0,1,112.39,250Zm-4.82,0a3.09,3.09,0,0,0,.56,2,1.85,1.85,0,0,0,1.56.71,1.88,1.88,0,0,0,1.56-.71,3.71,3.71,0,0,0,0-3.92,1.93,1.93,0,0,0-1.57-.7,1.87,1.87,0,0,0-1.56.7A3,3,0,0,0,107.57,250Zm1.55-4a11.35,11.35,0,0,0,.81-1,7,7,0,0,0,.55-.79h.79v.1a5.58,5.58,0,0,1-.69.77c-.32.32-.68.65-1.07,1h-.39Z"/><path d="M116.48,246.85a5,5,0,0,1,.83.08l-.1.53a3.48,3.48,0,0,0-.79-.09,1.54,1.54,0,0,0-1.28.66,2.65,2.65,0,0,0-.5,1.67v3.37h-.56V247h.47l.06,1.1h0a2.62,2.62,0,0,1,.8-.95A1.88,1.88,0,0,1,116.48,246.85Z"/><path d="M117.53,247h.58l1.29,3.42c.39,1.05.64,1.76.74,2.13h0c.16-.48.41-1.2.77-2.16l1.29-3.39h.57l-2.73,7.09a5.57,5.57,0,0,1-.56,1.17,1.47,1.47,0,0,1-.52.45,1.64,1.64,0,0,1-.73.15,2.8,2.8,0,0,1-.71-.11v-.49a2.58,2.58,0,0,0,.7.09.91.91,0,0,0,.5-.13,1.25,1.25,0,0,0,.4-.42,5.8,5.8,0,0,0,.41-.9c.15-.41.25-.68.3-.8Z"/><path d="M130.62,253.07h-4.36v-.35l3.62-5.26h-3.36V247h4.09v.35L127,252.58h3.66Z"/><path d="M134.53,246.85a5.15,5.15,0,0,1,.83.08l-.11.53a3.42,3.42,0,0,0-.79-.09,1.54,1.54,0,0,0-1.28.66,2.65,2.65,0,0,0-.5,1.67v3.37h-.56V247h.47l.06,1.1h0a2.62,2.62,0,0,1,.8-.95A1.92,1.92,0,0,1,134.53,246.85Z"/><path d="M141.65,250a3.46,3.46,0,0,1-.73,2.33,2.5,2.5,0,0,1-2,.84,2.66,2.66,0,0,1-1.41-.38,2.48,2.48,0,0,1-.94-1.12,4,4,0,0,1-.33-1.67,3.46,3.46,0,0,1,.73-2.33,2.5,2.5,0,0,1,2-.83,2.46,2.46,0,0,1,2,.84A3.48,3.48,0,0,1,141.65,250Zm-4.82,0a3.09,3.09,0,0,0,.55,2,2.08,2.08,0,0,0,3.13,0,3.09,3.09,0,0,0,.55-2,3,3,0,0,0-.56-2,1.9,1.9,0,0,0-1.57-.7,1.86,1.86,0,0,0-1.55.7A3,3,0,0,0,136.83,250Z"/><path d="M145.91,246.85a2.34,2.34,0,0,1,1.93.8,3.73,3.73,0,0,1,.65,2.36,3.63,3.63,0,0,1-.68,2.35,2.36,2.36,0,0,1-1.92.82,2.52,2.52,0,0,1-1.17-.27,2,2,0,0,1-.83-.76h0l-.16.92h-.34v-8.74h.55v2.2c0,.33,0,.63,0,.91l0,.48h0a2.16,2.16,0,0,1,.84-.81A2.42,2.42,0,0,1,145.91,246.85Zm0,.5a1.81,1.81,0,0,0-1.54.62,3.44,3.44,0,0,0-.47,2v.1a3.13,3.13,0,0,0,.49,2,1.83,1.83,0,0,0,1.51.6,1.74,1.74,0,0,0,1.51-.7,3.42,3.42,0,0,0,.5-2C147.9,248.24,147.23,247.35,145.9,247.35Z"/><path d="M150.1,245.27q0-.54.36-.54a.33.33,0,0,1,.27.14.85.85,0,0,1,0,.8.32.32,0,0,1-.27.15C150.22,245.82,150.1,245.63,150.1,245.27Zm.64,7.8h-.56V247h.56Z"/><path d="M156.09,254.46c0,.42.2.62.6.62a1.24,1.24,0,0,0,.46-.07v.47a1.44,1.44,0,0,1-.59.09,1,1,0,0,1-.75-.26,1,1,0,0,1-.27-.76,1.54,1.54,0,0,1,.22-.78,2.75,2.75,0,0,1,.71-.77l-.12-.9h0a2.79,2.79,0,0,1-1,.84,2.52,2.52,0,0,1-1.14.24,2,2,0,0,1-1.4-.46,1.61,1.61,0,0,1-.5-1.27,1.58,1.58,0,0,1,.74-1.39,4.09,4.09,0,0,1,2.16-.52l1.16,0v-.41a2,2,0,0,0-.36-1.31,1.35,1.35,0,0,0-1.14-.45,3.83,3.83,0,0,0-1.75.47l-.21-.48a4.71,4.71,0,0,1,2-.47,2,2,0,0,1,1.5.52,2.3,2.3,0,0,1,.5,1.63v4.06a3.59,3.59,0,0,0-.61.67A1.34,1.34,0,0,0,156.09,254.46Zm-1.85-1.78a2.09,2.09,0,0,0,1.54-.56,2.07,2.07,0,0,0,.57-1.55V250l-1.07,0a3.93,3.93,0,0,0-1.83.4,1.15,1.15,0,0,0-.55,1.06,1.12,1.12,0,0,0,.35.89A1.42,1.42,0,0,0,154.24,252.68Z"/><path d="M43.79,260.65a2.52,2.52,0,0,1,1.14.24,2.21,2.21,0,0,1,.87.83h0c0-.48,0-.94,0-1.39v-2.2h.55v8.74H46l-.14-.93h0a2.26,2.26,0,0,1-2,1,2.4,2.4,0,0,1-1.93-.78,3.44,3.44,0,0,1-.67-2.29,3.81,3.81,0,0,1,.66-2.42A2.32,2.32,0,0,1,43.79,260.65Zm0,.5a1.71,1.71,0,0,0-1.5.71,3.4,3.4,0,0,0-.51,2c0,1.73.68,2.6,2,2.6a1.85,1.85,0,0,0,1.52-.6,3.2,3.2,0,0,0,.48-2v-.1a3.4,3.4,0,0,0-.48-2A1.8,1.8,0,0,0,43.79,261.15Z"/><path d="M53.45,263.81a3.41,3.41,0,0,1-.73,2.33,2.5,2.5,0,0,1-2,.84,2.66,2.66,0,0,1-1.41-.38,2.48,2.48,0,0,1-.94-1.12,4,4,0,0,1-.32-1.67,3.46,3.46,0,0,1,.72-2.33,2.52,2.52,0,0,1,2-.83,2.45,2.45,0,0,1,2,.84A3.48,3.48,0,0,1,53.45,263.81Zm-4.82,0a3.09,3.09,0,0,0,.55,2,2.08,2.08,0,0,0,3.13,0,3.09,3.09,0,0,0,.55-2,3,3,0,0,0-.56-2,1.9,1.9,0,0,0-1.56-.7,1.87,1.87,0,0,0-1.56.7A3,3,0,0,0,48.63,263.81Z"/><path d="M57.72,260.65a2.33,2.33,0,0,1,1.92.8,4.5,4.5,0,0,1,0,4.71,2.34,2.34,0,0,1-1.92.82,2.52,2.52,0,0,1-1.17-.27,2.1,2.1,0,0,1-.83-.76h0l-.15.92h-.35v-8.74h.55v2.2c0,.33,0,.63,0,.91l0,.48h0a2.31,2.31,0,0,1,.84-.81A2.43,2.43,0,0,1,57.72,260.65Zm0,.5a1.81,1.81,0,0,0-1.54.62,3.44,3.44,0,0,0-.47,2v.1a3.19,3.19,0,0,0,.49,2,1.83,1.83,0,0,0,1.51.6,1.74,1.74,0,0,0,1.51-.7,3.42,3.42,0,0,0,.5-2C59.7,262,59,261.15,57.7,261.15Z"/><path d="M64.39,260.65a5.15,5.15,0,0,1,.83.08l-.11.53a3.42,3.42,0,0,0-.79-.09,1.54,1.54,0,0,0-1.28.66,2.72,2.72,0,0,0-.5,1.67v3.37H62v-6.1h.47l.06,1.1h0a2.62,2.62,0,0,1,.8-.95A1.92,1.92,0,0,1,64.39,260.65Z"/><path d="M65.44,260.77H66l1.29,3.42q.58,1.57.75,2.13h0c.16-.48.41-1.2.77-2.16l1.29-3.39h.57L68,267.86a5.84,5.84,0,0,1-.56,1.17,1.47,1.47,0,0,1-.52.45,1.61,1.61,0,0,1-.73.15,2.45,2.45,0,0,1-.71-.12V269a2.63,2.63,0,0,0,.7.09,1,1,0,0,0,.51-.13,1.33,1.33,0,0,0,.39-.42,5,5,0,0,0,.41-.9c.16-.41.26-.68.3-.8Z"/><path d="M77.33,267a2.22,2.22,0,0,1-2-1.05h0l0,.47c0,.28,0,.58,0,.91v2.32h-.56v-8.86h.48l.1.87h0a2.21,2.21,0,0,1,2-1,2.26,2.26,0,0,1,1.88.81,3.73,3.73,0,0,1,.65,2.36,3.59,3.59,0,0,1-.68,2.33A2.28,2.28,0,0,1,77.33,267Zm0-.49a1.68,1.68,0,0,0,1.45-.7,3.16,3.16,0,0,0,.52-2c0-1.79-.65-2.69-1.94-2.69a1.94,1.94,0,0,0-1.57.59,3,3,0,0,0-.5,1.91v.18a3.38,3.38,0,0,0,.48,2.05A1.89,1.89,0,0,0,77.32,266.49Z"/><path d="M86.62,263.81a3.41,3.41,0,0,1-.73,2.33,2.5,2.5,0,0,1-2,.84,2.66,2.66,0,0,1-1.41-.38,2.48,2.48,0,0,1-.94-1.12,4,4,0,0,1-.33-1.67,3.46,3.46,0,0,1,.73-2.33,2.5,2.5,0,0,1,2-.83,2.46,2.46,0,0,1,2,.84A3.48,3.48,0,0,1,86.62,263.81Zm-4.82,0a3.09,3.09,0,0,0,.55,2,2.08,2.08,0,0,0,3.13,0,3.09,3.09,0,0,0,.55-2,3,3,0,0,0-.56-2,1.9,1.9,0,0,0-1.57-.7,1.86,1.86,0,0,0-1.55.7A3,3,0,0,0,81.8,263.81Z"/><path d="M92.1,266.87H87.75v-.35l3.62-5.26H88v-.49h4.08v.35l-3.64,5.26H92.1Zm-2.42-7.8q0-.54.36-.54a.33.33,0,0,1,.27.14.93.93,0,0,1,0,.8.32.32,0,0,1-.27.15C89.8,259.62,89.68,259.43,89.68,259.07Z"/><path d="M92.59,260.77h.57l1.29,3.42q.58,1.57.75,2.13h0c.16-.48.41-1.2.77-2.16l1.29-3.39h.57l-2.73,7.09a5.84,5.84,0,0,1-.56,1.17,1.47,1.47,0,0,1-.52.45,1.61,1.61,0,0,1-.73.15,2.45,2.45,0,0,1-.71-.12V269a2.63,2.63,0,0,0,.7.09.91.91,0,0,0,.5-.13,1.25,1.25,0,0,0,.4-.42,5,5,0,0,0,.41-.9c.16-.41.26-.68.3-.8Z"/><path d="M100.5,266.49a4.15,4.15,0,0,0,.92-.09v.45a2.94,2.94,0,0,1-.93.13,1.53,1.53,0,0,1-1.2-.43,2,2,0,0,1-.38-1.36v-3.94H98v-.33l.91-.25.28-1.38h.28v1.48h1.8v.48h-1.8v3.86a1.79,1.79,0,0,0,.25,1A.9.9,0,0,0,100.5,266.49Z"/><path d="M105.2,267a2.64,2.64,0,0,1-2.07-.82,3.26,3.26,0,0,1-.75-2.29,3.56,3.56,0,0,1,.72-2.34,2.37,2.37,0,0,1,1.94-.88,2.08,2.08,0,0,1,1.7.75,3.07,3.07,0,0,1,.62,2v.45H103a2.91,2.91,0,0,0,.58,1.92,2.06,2.06,0,0,0,1.65.67,4.62,4.62,0,0,0,1.92-.39v.51a4.12,4.12,0,0,1-1,.3A4.88,4.88,0,0,1,105.2,267Zm-.16-5.84a1.83,1.83,0,0,0-1.41.58,2.74,2.74,0,0,0-.63,1.68h3.78a2.64,2.64,0,0,0-.47-1.66A1.5,1.5,0,0,0,105,261.14Z"/><path d="M109.59,264.19l3.12-3.42h.67l-2.4,2.6,2.61,3.5h-.67l-2.32-3.08-1,.91v2.17h-.56v-8.74h.56v4.38l0,1.68Z"/><path d="M121.4,266.87H117v-.35l3.62-5.26H117.3v-.49h4.09v.35l-3.65,5.26h3.66Z"/><path d="M128.29,260.65a5,5,0,0,1,.83.08l-.1.53a3.5,3.5,0,0,0-.8-.09,1.53,1.53,0,0,0-1.27.66,2.65,2.65,0,0,0-.5,1.67v3.37h-.56v-6.1h.47l.06,1.1h0a2.52,2.52,0,0,1,.8-.95A1.88,1.88,0,0,1,128.29,260.65Z"/><path d="M134.16,266.87H129.8v-.35l3.63-5.26h-3.36v-.49h4.08v.35l-3.64,5.26h3.65Z"/><path d="M138.13,267a2.62,2.62,0,0,1-2.07-.82,3.26,3.26,0,0,1-.75-2.29,3.56,3.56,0,0,1,.72-2.34,2.37,2.37,0,0,1,1.94-.88,2.1,2.1,0,0,1,1.7.75,3.07,3.07,0,0,1,.62,2v.45H135.9a2.86,2.86,0,0,0,.58,1.92,2.06,2.06,0,0,0,1.65.67,4.62,4.62,0,0,0,1.92-.39v.51a4.12,4.12,0,0,1-1,.3A5,5,0,0,1,138.13,267Zm-.16-5.84a1.87,1.87,0,0,0-1.42.58,2.79,2.79,0,0,0-.62,1.68h3.77a2.64,2.64,0,0,0-.46-1.66A1.5,1.5,0,0,0,138,261.14Z"/><path d="M144.41,267a2.62,2.62,0,0,1-2-.82,3.36,3.36,0,0,1-.74-2.31,3.4,3.4,0,0,1,.77-2.36,2.73,2.73,0,0,1,2.11-.84,4.25,4.25,0,0,1,1.51.27l-.15.5a4.29,4.29,0,0,0-1.37-.27,2.09,2.09,0,0,0-1.7.7,3,3,0,0,0-.58,2,2.94,2.94,0,0,0,.58,1.94,2,2,0,0,0,1.61.7,4,4,0,0,0,1.55-.3v.52A3.53,3.53,0,0,1,144.41,267Z"/><path d="M151.24,266.87h-4.36v-.35l3.62-5.26h-3.36v-.49h4.09v.35l-3.65,5.26h3.66Z"/><path d="M151.72,260.77h.57l1.29,3.42q.6,1.57.75,2.13h0c.16-.48.42-1.2.77-2.16l1.3-3.39H157l-2.74,7.09a6,6,0,0,1-.55,1.17,1.5,1.5,0,0,1-.53.45,1.59,1.59,0,0,1-.72.15,2.46,2.46,0,0,1-.72-.12V269a2.63,2.63,0,0,0,.7.09A1,1,0,0,0,153,269a1.25,1.25,0,0,0,.4-.42,6.94,6.94,0,0,0,.41-.9c.15-.41.25-.68.3-.8Z"/><path d="M158.65,265.53l.07.12a18.85,18.85,0,0,1-1,2.7h-.37a23.58,23.58,0,0,0,.62-2.82Z"/><path d="M51.36,278l3.12-3.42h.67l-2.4,2.6,2.61,3.5h-.67l-2.32-3.08-1,.91v2.17h-.55v-8.74h.55v4.38l0,1.68Z"/><path d="M58,280.29a4.15,4.15,0,0,0,.92-.09v.45a2.94,2.94,0,0,1-.93.13,1.49,1.49,0,0,1-1.19-.43A2,2,0,0,1,56.4,279v-3.94h-.9v-.33l.9-.25.28-1.38H57v1.48h1.79v.48H57v3.86a1.71,1.71,0,0,0,.25,1A.87.87,0,0,0,58,280.29Z"/><path d="M65.28,277.61a3.46,3.46,0,0,1-.72,2.33,2.51,2.51,0,0,1-2,.84,2.59,2.59,0,0,1-1.42-.39,2.33,2.33,0,0,1-.93-1.11,4,4,0,0,1-.33-1.67,3.46,3.46,0,0,1,.72-2.33,2.53,2.53,0,0,1,2-.83,2.44,2.44,0,0,1,2,.84A3.48,3.48,0,0,1,65.28,277.61Zm-4.82,0a3.09,3.09,0,0,0,.56,2,2.07,2.07,0,0,0,3.12,0,3.71,3.71,0,0,0,0-3.92,1.92,1.92,0,0,0-1.57-.7,1.86,1.86,0,0,0-1.56.7A3.11,3.11,0,0,0,60.46,277.61Zm1.55-4a9.75,9.75,0,0,0,.81-1,7,7,0,0,0,.55-.79h.79v.1a6.09,6.09,0,0,1-.68.77c-.33.32-.68.65-1.07,1H62Z"/><path d="M69.37,274.45a4.25,4.25,0,0,1,.84.08l-.11.53a3.48,3.48,0,0,0-.79-.09,1.54,1.54,0,0,0-1.28.66,2.65,2.65,0,0,0-.5,1.67v3.37H67v-6.1h.47l.06,1.1h0a2.62,2.62,0,0,1,.8-.95A1.91,1.91,0,0,1,69.37,274.45Z"/><path d="M73.91,280.78a2.62,2.62,0,0,1-2.07-.82,3.26,3.26,0,0,1-.75-2.29,3.56,3.56,0,0,1,.72-2.34,2.37,2.37,0,0,1,1.94-.88,2.1,2.1,0,0,1,1.7.75,3.07,3.07,0,0,1,.62,2v.45H71.68a2.86,2.86,0,0,0,.58,1.92,2.06,2.06,0,0,0,1.65.67,4.62,4.62,0,0,0,1.92-.39v.5a3.74,3.74,0,0,1-1,.31A4.88,4.88,0,0,1,73.91,280.78Zm-.16-5.84a1.87,1.87,0,0,0-1.42.58,2.79,2.79,0,0,0-.62,1.68h3.77a2.64,2.64,0,0,0-.46-1.66A1.5,1.5,0,0,0,73.75,274.94Z"/><path d="M83,274.45a2.6,2.6,0,0,1,1.15.24,2.25,2.25,0,0,1,.86.83h0c0-.48,0-.94,0-1.39v-2.2h.55v8.74h-.36l-.14-.93H85a2.26,2.26,0,0,1-2,1,2.41,2.41,0,0,1-1.93-.78,3.44,3.44,0,0,1-.67-2.29,3.81,3.81,0,0,1,.66-2.42A2.33,2.33,0,0,1,83,274.45Zm0,.5a1.71,1.71,0,0,0-1.5.71,3.4,3.4,0,0,0-.51,2c0,1.73.68,2.6,2,2.6a1.83,1.83,0,0,0,1.52-.6,3.2,3.2,0,0,0,.48-2v-.1a3.48,3.48,0,0,0-.47-2A1.83,1.83,0,0,0,83,275Z"/><path d="M92.64,277.61a3.41,3.41,0,0,1-.73,2.33,2.5,2.5,0,0,1-2,.84,2.58,2.58,0,0,1-1.41-.39,2.4,2.4,0,0,1-.94-1.11,4,4,0,0,1-.32-1.67,3.46,3.46,0,0,1,.72-2.33,2.52,2.52,0,0,1,2-.83,2.45,2.45,0,0,1,2,.84A3.48,3.48,0,0,1,92.64,277.61Zm-4.82,0a3.09,3.09,0,0,0,.55,2,2.08,2.08,0,0,0,3.13,0,3.77,3.77,0,0,0,0-3.92,1.93,1.93,0,0,0-1.57-.7,1.84,1.84,0,0,0-1.56.7A3,3,0,0,0,87.82,277.61Z"/><path d="M101.57,280.67v-4a1.93,1.93,0,0,0-.39-1.34A1.53,1.53,0,0,0,100,275a2.07,2.07,0,0,0-1.6.56,2.59,2.59,0,0,0-.51,1.79v3.37h-.55v-6.1h.47l.1.83h0a2.29,2.29,0,0,1,2.11-.95c1.39,0,2.08.74,2.08,2.23v4Z"/><path d="M104,272.87c0-.36.12-.54.35-.54a.34.34,0,0,1,.28.14.93.93,0,0,1,0,.8.32.32,0,0,1-.28.15C104.14,273.42,104,273.23,104,272.87Zm.63,7.8h-.55v-6.1h.55Z"/><path d="M109.13,280.78a2.59,2.59,0,0,1-2-.82,3.31,3.31,0,0,1-.75-2.31,3.4,3.4,0,0,1,.77-2.36,2.73,2.73,0,0,1,2.11-.84,4.35,4.35,0,0,1,1.52.27l-.16.5a4.29,4.29,0,0,0-1.37-.27,2.06,2.06,0,0,0-1.7.7,3,3,0,0,0-.58,2,2.94,2.94,0,0,0,.58,1.94,2,2,0,0,0,1.61.7,4,4,0,0,0,1.55-.3v.52A3.53,3.53,0,0,1,109.13,280.78Z"/><path d="M116.42,280.67v-4a1.93,1.93,0,0,0-.39-1.34,1.56,1.56,0,0,0-1.2-.42,2.06,2.06,0,0,0-1.6.56,2.59,2.59,0,0,0-.51,1.79v3.37h-.56v-8.74h.56v2.78l0,.78h0a2.09,2.09,0,0,1,.86-.79,3,3,0,0,1,1.3-.25c1.39,0,2.08.74,2.08,2.23v4Z"/><path d="M123.54,280.29a4.25,4.25,0,0,0,.93-.09v.45a3,3,0,0,1-.94.13,1.51,1.51,0,0,1-1.19-.43A2,2,0,0,1,122,279v-3.94h-.91v-.33l.91-.25.28-1.38h.28v1.48h1.79v.48h-1.79v3.86a1.71,1.71,0,0,0,.25,1A.87.87,0,0,0,123.54,280.29Z"/><path d="M128.19,274.45a4.15,4.15,0,0,1,.83.08l-.11.53a3.42,3.42,0,0,0-.79-.09,1.54,1.54,0,0,0-1.28.66,2.72,2.72,0,0,0-.5,1.67v3.37h-.56v-6.1h.48l0,1.1h0a2.54,2.54,0,0,1,.81-.95A1.86,1.86,0,0,1,128.19,274.45Z"/><path d="M134,280.67l-.14-1h-.05a2.87,2.87,0,0,1-.94.84,2.6,2.6,0,0,1-1.15.24,2,2,0,0,1-1.4-.46,1.66,1.66,0,0,1-.5-1.27,1.58,1.58,0,0,1,.74-1.39,4.09,4.09,0,0,1,2.16-.52l1.16,0v-.4a2,2,0,0,0-.36-1.31,1.35,1.35,0,0,0-1.14-.45,3.83,3.83,0,0,0-1.75.47l-.21-.48a4.71,4.71,0,0,1,2-.47,2,2,0,0,1,1.5.52,2.3,2.3,0,0,1,.5,1.63v4.06Zm-2.25-.39a2.09,2.09,0,0,0,1.54-.56,2.07,2.07,0,0,0,.57-1.55v-.61l-1.07.05a3.93,3.93,0,0,0-1.83.4,1.3,1.3,0,0,0-.2,1.95A1.42,1.42,0,0,0,131.72,280.28Z"/><path d="M138.62,275.05h-1.44v5.62h-.55v-5.62h-1.14v-.33l1.14-.2V274a2.69,2.69,0,0,1,.41-1.64,1.63,1.63,0,0,1,1.35-.53,3.48,3.48,0,0,1,1,.15l-.13.49a2.76,2.76,0,0,0-.89-.14,1,1,0,0,0-.92.38,2.14,2.14,0,0,0-.28,1.25v.57h1.44Zm1.1-2.18q0-.54.36-.54a.33.33,0,0,1,.27.14.85.85,0,0,1,0,.8.32.32,0,0,1-.27.15C139.84,273.42,139.72,273.23,139.72,272.87Zm.64,7.8h-.56v-6.1h.56Z"/><path d="M145.71,282.06a.54.54,0,0,0,.6.62,1.24,1.24,0,0,0,.46-.07v.47a1.57,1.57,0,0,1-.58.09,1,1,0,0,1-.75-.26,1,1,0,0,1-.28-.76,1.54,1.54,0,0,1,.22-.78,2.66,2.66,0,0,1,.72-.77l-.13-.9h-.05a2.87,2.87,0,0,1-.94.84,2.6,2.6,0,0,1-1.15.24,2,2,0,0,1-1.4-.46,1.66,1.66,0,0,1-.5-1.27,1.58,1.58,0,0,1,.74-1.39,4.09,4.09,0,0,1,2.16-.52l1.16,0v-.4a2,2,0,0,0-.36-1.31,1.34,1.34,0,0,0-1.13-.45,3.84,3.84,0,0,0-1.76.47l-.21-.48a4.71,4.71,0,0,1,2-.47,2,2,0,0,1,1.5.52,2.3,2.3,0,0,1,.5,1.63v4.06a3.59,3.59,0,0,0-.61.67A1.34,1.34,0,0,0,145.71,282.06Zm-1.85-1.78a2.09,2.09,0,0,0,1.54-.56,2.07,2.07,0,0,0,.57-1.55v-.61l-1.07.05a3.93,3.93,0,0,0-1.83.4,1.3,1.3,0,0,0-.2,1.95A1.42,1.42,0,0,0,143.86,280.28Z"/><path d="M148.38,280.23c0-.36.15-.55.45-.55s.46.19.46.55-.15.55-.46.55S148.38,280.6,148.38,280.23Z"/><path class="cls-4" d="M125.82,79.66a9.78,9.78,0,0,0,2.36,7.66A9.79,9.79,0,0,0,130,72.81,9.76,9.76,0,0,0,125.82,79.66Z"/><path class="cls-4" d="M70,79.66a9.78,9.78,0,0,1-2.36,7.66,9.52,9.52,0,0,1-2.18-2.07,9.78,9.78,0,0,1,.39-12.44A9.76,9.76,0,0,1,70,79.66Z"/><path class="cls-4" d="M131,64.39a9.75,9.75,0,0,0,6.14,5.15,9.78,9.78,0,0,0-6.38-13.15A9.69,9.69,0,0,0,131,64.39Z"/><path class="cls-4" d="M66.43,64.39a9.75,9.75,0,0,1-6.14,5.15,9.46,9.46,0,0,1-.71-2.92,9.85,9.85,0,0,1,1-5.09,9.74,9.74,0,0,1,6.14-5.14A9.77,9.77,0,0,1,66.43,64.39Z"/><path class="cls-4" d="M127.55,49a9.73,9.73,0,0,0,7.67,2.32,9.63,9.63,0,0,0-.5-3,9.77,9.77,0,0,0-10.54-6.62A9.74,9.74,0,0,0,127.55,49Z"/><path class="cls-4" d="M69.9,49a9.73,9.73,0,0,1-7.67,2.32,9.63,9.63,0,0,1,.5-3,9.77,9.77,0,0,1,10.54-6.62A9.74,9.74,0,0,1,69.9,49Z"/><path class="cls-4" d="M133.05,38.38a9.78,9.78,0,0,0,1.07,7.94,9.71,9.71,0,0,0,2.5-1.68,9.89,9.89,0,0,0,2.72-4.4,9.79,9.79,0,0,0-1.07-7.94A9.74,9.74,0,0,0,133.05,38.38Z"/><path class="cls-4" d="M64.4,38.38a9.75,9.75,0,0,1-1.08,7.94,9.49,9.49,0,0,1-2.49-1.68,9.89,9.89,0,0,1-2.72-4.4,9.75,9.75,0,0,1,1.07-7.94A9.77,9.77,0,0,1,64.4,38.38Z"/><path class="cls-4" d="M138,53.32A9.75,9.75,0,0,0,139,61.26a9.8,9.8,0,0,0,4.14-14A9.77,9.77,0,0,0,138,53.32Z"/><path class="cls-4" d="M59.48,53.32a9.71,9.71,0,0,1-1.07,7.94,9.78,9.78,0,0,1-2.49-1.69,9.8,9.8,0,0,1-1.65-12.33A9.73,9.73,0,0,1,59.48,53.32Z"/><path class="cls-4" d="M139.14,69.27a10.07,10.07,0,0,0-2.71,7.49,8.81,8.81,0,0,0,2.84-.29,9.19,9.19,0,0,0,4.26-2.56,10.06,10.06,0,0,0,2.7-7.49A9,9,0,0,0,139.14,69.27Z"/><path class="cls-4" d="M58.31,69.27A10.07,10.07,0,0,1,61,76.76a8.78,8.78,0,0,1-2.84-.29,9.19,9.19,0,0,1-4.26-2.56,10,10,0,0,1-2.7-7.49A9,9,0,0,1,58.31,69.27Z"/><path class="cls-4" d="M133.42,84.72a9.75,9.75,0,0,0-6.1,5.2,9.25,9.25,0,0,0,2.76,1.18,9.79,9.79,0,0,0,11.27-5.28A9.77,9.77,0,0,0,133.42,84.72Z"/><path class="cls-4" d="M62.39,84.72a9.78,9.78,0,0,1,6.1,5.2,9.3,9.3,0,0,1-2.77,1.18,9.79,9.79,0,0,1-11.26-5.28A9.77,9.77,0,0,1,62.39,84.72Z"/><path class="cls-4" d="M121.45,23.6a9.52,9.52,0,0,0,5.48,13.11,9.51,9.51,0,0,0-5.48-13.11Z"/><path class="cls-4" d="M76,23.6a9.52,9.52,0,0,1-5.48,13.11A9.51,9.51,0,0,1,76,23.6Z"/><path class="cls-5" d="M127.07,36.71a36.69,36.69,0,0,1,11,26.22,37.64,37.64,0,0,1-16.25,31"/><path class="cls-5" d="M70.37,36.71a36.73,36.73,0,0,0-11,26.22,37.65,37.65,0,0,0,16.26,31"/><line class="cls-4" x1="139.04" y1="61.26" x2="138.05" y2="62.38"/><line class="cls-4" x1="58.41" y1="61.26" x2="59.4" y2="62.38"/><line class="cls-4" x1="137.16" y1="69.54" x2="137.29" y2="70.49"/><line class="cls-4" x1="60.29" y1="69.54" x2="60.15" y2="70.49"/><line class="cls-4" x1="135.22" y1="51.31" x2="136.53" y2="52.4"/><line class="cls-4" x1="62.23" y1="51.31" x2="60.92" y2="52.4"/><line class="cls-4" x1="136.43" y1="76.76" x2="135.22" y2="77.29"/><line class="cls-4" x1="59.38" y1="76.76" x2="60.59" y2="77.29"/><line class="cls-4" x1="127.32" y1="89.92" x2="126.58" y2="90"/><line class="cls-4" x1="68.49" y1="89.92" x2="69.23" y2="90"/><line class="cls-4" x1="128.18" y1="87.32" x2="128.18" y2="88.36"/><line class="cls-4" x1="67.63" y1="87.32" x2="67.63" y2="88.36"/><path class="cls-5" d="M103.64,58a4.92,4.92,0,0,0-9.83,0v9.83a4.92,4.92,0,1,0,9.83,0V64.57h-3.28"/><path class="cls-4" d="M120,67.84a4.92,4.92,0,1,1-9.83,0V58A4.92,4.92,0,0,1,120,58Z"/><polyline class="cls-5" points="77.42 72.76 77.42 53.1 87.25 72.76 87.25 53.1"/></svg>