<svg id="Warstwa_1" data-name="Warstwa 1" xmlns="http://www.w3.org/2000/svg" viewBox="0 0 100 100"><defs><style>.cls-1{fill:#f0f1f1;}</style></defs><title>phone</title><path class="cls-1" d="M53.75,35A11.25,11.25,0,0,1,65,46.25a3.75,3.75,0,0,0,7.5,0A18.74,18.74,0,0,0,53.75,27.5a3.75,3.75,0,0,0,0,7.5Z"/><path class="cls-1" d="M53.75,20A26.25,26.25,0,0,1,80,46.25a3.75,3.75,0,0,0,7.5,0A33.75,33.75,0,0,0,53.75,12.5a3.75,3.75,0,0,0,0,7.5ZM86.56,64.66a3.74,3.74,0,0,0-2.7-2.43l-22.5-5.14a3.75,3.75,0,0,0-3.45,1c-.52.49-.56.53-3,5.18A37.16,37.16,0,0,1,36.65,44.9c4.76-2.4,4.8-2.4,5.29-3a3.75,3.75,0,0,0,1-3.45L37.77,16.25a3.74,3.74,0,0,0-2.43-2.7,14.83,14.83,0,0,0-2.7-.68,15.66,15.66,0,0,0-2.89-.37A17.25,17.25,0,0,0,12.5,29.75,57.82,57.82,0,0,0,70.25,87.5,17.25,17.25,0,0,0,87.5,70.25h0a18.15,18.15,0,0,0-.22-2.85A16.25,16.25,0,0,0,86.56,64.66Z"/></svg>