<svg id="Warstwa_1" data-name="Warstwa 1" xmlns="http://www.w3.org/2000/svg" viewBox="0 0 180 240"><defs><style>.cls-1{isolation:isolate;}.cls-2{fill:#3c3c3c;}.cls-3{fill:none;stroke:#707070;}</style></defs><title>spakuj</title><g id="Wybierz_rzeczy" data-name="Wybierz rzeczy" class="cls-1"><g class="cls-1"><path class="cls-2" d="M98.77,76.48H84.52V73.92l5.42-5.44A44.51,44.51,0,0,0,93.12,65a8.08,8.08,0,0,0,1.15-1.93,5.23,5.23,0,0,0,.36-1.94,3,3,0,0,0-.86-2.25,3.3,3.3,0,0,0-2.36-.81,6.23,6.23,0,0,0-2.34.44,11,11,0,0,0-2.61,1.61l-1.82-2.23a12.14,12.14,0,0,1,3.4-2.1,10.08,10.08,0,0,1,3.53-.61,6.94,6.94,0,0,1,4.7,1.53A5.19,5.19,0,0,1,98,60.82a7.28,7.28,0,0,1-.51,2.7A11.23,11.23,0,0,1,96,66.16a36.82,36.82,0,0,1-3.52,3.67l-3.65,3.53v.15h10Z"/></g></g><g id="ubrania_zabawki_sprzęt_i_inne" data-name="ubrania zabawki sprzęt i inne" class="cls-1"><g class="cls-1"><path class="cls-2" d="M54.08,160.31a2.16,2.16,0,0,1-.89,1.85,4.22,4.22,0,0,1-2.5.65,5.44,5.44,0,0,1-2.66-.54v-1.21a6.2,6.2,0,0,0,1.33.5,5.47,5.47,0,0,0,1.36.18,3,3,0,0,0,1.56-.33,1.05,1.05,0,0,0,.55-1,1.08,1.08,0,0,0-.44-.85,6.42,6.42,0,0,0-1.69-.84A9.85,9.85,0,0,1,49,158a2.43,2.43,0,0,1-.75-.75,2,2,0,0,1-.24-1,1.9,1.9,0,0,1,.85-1.65,3.94,3.94,0,0,1,2.34-.61,6.91,6.91,0,0,1,2.7.56l-.46,1.06A6.1,6.1,0,0,0,51.1,155a2.62,2.62,0,0,0-1.39.29.88.88,0,0,0-.47.79,1,1,0,0,0,.18.59,1.7,1.7,0,0,0,.56.46,11.15,11.15,0,0,0,1.5.63,5.59,5.59,0,0,1,2.06,1.12A2,2,0,0,1,54.08,160.31Z"/><path class="cls-2" d="M57.47,158.27a12.94,12.94,0,0,1,1-1.25l2.77-2.93H62.8l-3.47,3.65L63,162.65H61.47l-3-4.05-1,.85v3.2H56.19V150.49h1.28v6.45c0,.29,0,.73-.06,1.33Z"/><path class="cls-2" d="M72,158.36a4.73,4.73,0,0,1-1.06,3.27A3.68,3.68,0,0,1,68,162.81a3.84,3.84,0,0,1-2-.54,3.6,3.6,0,0,1-1.38-1.55,5.43,5.43,0,0,1-.48-2.36,4.71,4.71,0,0,1,1-3.26,3.67,3.67,0,0,1,2.9-1.17,3.63,3.63,0,0,1,2.86,1.2A4.71,4.71,0,0,1,72,158.36Zm-6.53,0a4,4,0,0,0,.66,2.5,2.61,2.61,0,0,0,3.86,0,4.08,4.08,0,0,0,.66-2.51,4,4,0,0,0-.66-2.48,2.34,2.34,0,0,0-2-.85,2.27,2.27,0,0,0-1.92.84A4,4,0,0,0,65.45,158.36Z"/><path class="cls-2" d="M78.16,153.93a4.52,4.52,0,0,1,1,.1l-.18,1.2a4.32,4.32,0,0,0-.94-.12,2.29,2.29,0,0,0-1.78.85,3.07,3.07,0,0,0-.73,2.1v4.59h-1.3v-8.56h1.07l.15,1.58h.06a3.92,3.92,0,0,1,1.15-1.29A2.61,2.61,0,0,1,78.16,153.93Z"/><path class="cls-2" d="M86.26,162.65H80.05v-.88l4.67-6.67H80.34v-1h5.8v1l-4.61,6.54h4.73Z"/><path class="cls-2" d="M86.91,154.09H88.3L90.17,159a19.21,19.21,0,0,1,.77,2.41H91c.07-.26.21-.71.43-1.36s.92-2.62,2.12-5.93h1.39l-3.68,9.75a4.88,4.88,0,0,1-1.28,2,2.73,2.73,0,0,1-1.79.6,5.06,5.06,0,0,1-1.17-.13v-1a4.57,4.57,0,0,0,1,.1,2,2,0,0,0,1.9-1.5l.48-1.22Z"/><path class="cls-2" d="M101.85,160.31a2.16,2.16,0,0,1-.89,1.85,4.2,4.2,0,0,1-2.5.65,5.44,5.44,0,0,1-2.66-.54v-1.21a6.63,6.63,0,0,0,1.33.5,5.47,5.47,0,0,0,1.36.18,3,3,0,0,0,1.56-.33,1.05,1.05,0,0,0,.55-1,1.06,1.06,0,0,0-.43-.85,6.59,6.59,0,0,0-1.69-.84,9.16,9.16,0,0,1-1.7-.78,2.23,2.23,0,0,1-.75-.75,2.07,2.07,0,0,1,.6-2.66,3.94,3.94,0,0,1,2.34-.61,6.91,6.91,0,0,1,2.7.56l-.46,1.06a6.1,6.1,0,0,0-2.34-.53,2.64,2.64,0,0,0-1.39.29.88.88,0,0,0-.46.79,1,1,0,0,0,.17.59,1.87,1.87,0,0,0,.57.46,11.15,11.15,0,0,0,1.5.63,5.77,5.77,0,0,1,2.06,1.12A2,2,0,0,1,101.85,160.31Z"/><path class="cls-2" d="M106.73,161.74a4.65,4.65,0,0,0,.66-.05c.21,0,.38-.07.51-.11v1a2.15,2.15,0,0,1-.62.17,5.37,5.37,0,0,1-.74.07c-1.66,0-2.49-.88-2.49-2.62V155.1h-1.22v-.63l1.22-.54.55-1.83h.75v2h2.49v1h-2.49v5a1.7,1.7,0,0,0,.37,1.19A1.26,1.26,0,0,0,106.73,161.74Z"/><path class="cls-2" d="M114.87,162.65l-.25-1.22h-.07a3.53,3.53,0,0,1-1.27,1.09,3.93,3.93,0,0,1-1.59.29,2.86,2.86,0,0,1-2-.66,2.4,2.4,0,0,1-.72-1.87c0-1.73,1.38-2.63,4.15-2.72l1.45,0V157a2.16,2.16,0,0,0-.43-1.49,1.79,1.79,0,0,0-1.39-.48,5.74,5.74,0,0,0-2.42.65l-.4-1a6.16,6.16,0,0,1,2.9-.73,3.23,3.23,0,0,1,2.27.68,2.84,2.84,0,0,1,.74,2.18v5.84Zm-2.92-.91a2.65,2.65,0,0,0,1.9-.67,2.45,2.45,0,0,0,.69-1.86v-.77l-1.3.05A4.83,4.83,0,0,0,111,159a1.47,1.47,0,0,0-.68,1.33,1.35,1.35,0,0,0,.42,1.07A1.81,1.81,0,0,0,112,161.74Z"/><path class="cls-2" d="M117.47,166.49a3.08,3.08,0,0,1-1.2-.19v-1.06a3.54,3.54,0,0,0,1.06.16,1.12,1.12,0,0,0,.89-.33,1.52,1.52,0,0,0,.29-1v-10h1.29V164C119.8,165.65,119,166.49,117.47,166.49Zm.93-14.72a.82.82,0,0,1,.22-.65.75.75,0,0,1,.54-.21.76.76,0,0,1,.54.21,1,1,0,0,1,0,1.3.76.76,0,0,1-.54.21.75.75,0,0,1-.54-.21A.85.85,0,0,1,118.4,151.77Z"/><path class="cls-2" d="M132.19,162.65H126v-.88l4.67-6.67h-4.38v-1h5.8v1l-4.61,6.54h4.73Z"/><path class="cls-2" d="M31.68,181.85l-1.57-5c-.1-.31-.29-1-.56-2.1h-.06c-.21.91-.39,1.62-.55,2.11l-1.62,5h-1.5l-2.33-8.56h1.36q.82,3.22,1.26,4.91a21.88,21.88,0,0,1,.5,2.28h.06c.06-.3.15-.69.28-1.16s.23-.84.33-1.12l1.57-4.91h1.4l1.53,4.91a16.52,16.52,0,0,1,.6,2.26h.06a8.37,8.37,0,0,1,.17-.87q.14-.59,1.63-6.3h1.34l-2.37,8.56Z"/><path class="cls-2" d="M44.52,177.56a4.68,4.68,0,0,1-1.06,3.27A3.68,3.68,0,0,1,40.55,182a3.86,3.86,0,0,1-2-.54,3.57,3.57,0,0,1-1.37-1.55,5.29,5.29,0,0,1-.49-2.36,4.71,4.71,0,0,1,1.05-3.26,3.71,3.71,0,0,1,2.91-1.17,3.62,3.62,0,0,1,2.85,1.2A4.66,4.66,0,0,1,44.52,177.56Zm-6.52,0a4,4,0,0,0,.65,2.5,2.29,2.29,0,0,0,1.93.86,2.31,2.31,0,0,0,1.94-.85,4.06,4.06,0,0,0,.66-2.51,4,4,0,0,0-.66-2.48,2.35,2.35,0,0,0-2-.85,2.3,2.3,0,0,0-1.93.84A4,4,0,0,0,38,177.56Z"/><path class="cls-2" d="M50.7,173.13a4.52,4.52,0,0,1,1,.1l-.18,1.2a4.23,4.23,0,0,0-.93-.12,2.26,2.26,0,0,0-1.78.85,3.08,3.08,0,0,0-.74,2.1v4.59h-1.3v-8.56h1.07l.15,1.58h.06a3.92,3.92,0,0,1,1.15-1.29A2.61,2.61,0,0,1,50.7,173.13Z"/><path class="cls-2" d="M54.61,177.47a12.94,12.94,0,0,1,1-1.25l2.76-2.93h1.54l-3.47,3.65,3.72,4.91H58.61l-3-4-1,.85v3.2H53.32V169.69h1.29v6.45c0,.29,0,.73-.07,1.33Z"/><path class="cls-2" d="M69.11,177.56a4.72,4.72,0,0,1-1,3.27A3.7,3.7,0,0,1,65.14,182a3.83,3.83,0,0,1-2-.54,3.53,3.53,0,0,1-1.38-1.55,5.43,5.43,0,0,1-.48-2.36,4.71,4.71,0,0,1,1-3.26,3.71,3.71,0,0,1,2.91-1.17,3.59,3.59,0,0,1,2.85,1.2A4.66,4.66,0,0,1,69.11,177.56Zm-6.52,0a4,4,0,0,0,.66,2.5,2.61,2.61,0,0,0,3.86,0,4.06,4.06,0,0,0,.66-2.51,4,4,0,0,0-.66-2.48,2.34,2.34,0,0,0-2-.85,2.27,2.27,0,0,0-1.92.84A4,4,0,0,0,62.59,177.56Zm1.5-5.6q.38-.48.81-1.17c.29-.46.51-.86.68-1.2h1.58v.17a12.35,12.35,0,0,1-1,1.25A15,15,0,0,1,65,172.16h-.87Z"/><path class="cls-2" d="M78.38,181.85l-1.57-5c-.1-.31-.29-1-.56-2.1h-.06c-.21.91-.39,1.62-.55,2.11l-1.61,5h-1.5l-2.34-8.56h1.36q.83,3.22,1.26,4.91a19.44,19.44,0,0,1,.5,2.28h.06c.06-.3.15-.69.28-1.16s.24-.84.33-1.12l1.57-4.91H77l1.53,4.91a16.28,16.28,0,0,1,.59,2.26h.06a8.37,8.37,0,0,1,.17-.87c.09-.39.64-2.49,1.63-6.3h1.34l-2.36,8.56Z"/><path class="cls-2" d="M93.85,181.85v-5.54a2.21,2.21,0,0,0-.48-1.56,2,2,0,0,0-1.49-.52,2.48,2.48,0,0,0-2,.73,3.63,3.63,0,0,0-.63,2.4v4.49H88v-8.56H89l.21,1.17h.07a2.59,2.59,0,0,1,1.11-1,3.68,3.68,0,0,1,1.6-.35,3.23,3.23,0,0,1,2.33.75,3.17,3.17,0,0,1,.78,2.38v5.59Z"/><path class="cls-2" d="M103.07,181.85l-.25-1.22h-.07a3.53,3.53,0,0,1-1.27,1.09,3.93,3.93,0,0,1-1.59.29,2.86,2.86,0,0,1-2-.66,2.4,2.4,0,0,1-.72-1.87c0-1.73,1.38-2.63,4.15-2.72l1.45,0v-.53a2.21,2.21,0,0,0-.43-1.49,1.8,1.8,0,0,0-1.39-.48,5.74,5.74,0,0,0-2.42.65l-.4-1a6.16,6.16,0,0,1,2.9-.73,3.24,3.24,0,0,1,2.27.68A2.84,2.84,0,0,1,104,176v5.84Zm-2.93-.91a2.66,2.66,0,0,0,1.91-.67,2.45,2.45,0,0,0,.69-1.86v-.77l-1.3.05a4.83,4.83,0,0,0-2.23.48,1.45,1.45,0,0,0-.68,1.33,1.35,1.35,0,0,0,.42,1.07A1.8,1.8,0,0,0,100.14,180.94Z"/><path class="cls-2" d="M116.39,179.51a2.16,2.16,0,0,1-.89,1.85,4.22,4.22,0,0,1-2.5.65,5.44,5.44,0,0,1-2.66-.54v-1.21a6.32,6.32,0,0,0,1.32.5,5.61,5.61,0,0,0,1.37.18,3,3,0,0,0,1.56-.33,1.11,1.11,0,0,0,.11-1.84,6.59,6.59,0,0,0-1.69-.84,9.49,9.49,0,0,1-1.7-.78,2.43,2.43,0,0,1-.75-.75,2,2,0,0,1-.24-1,1.9,1.9,0,0,1,.85-1.65,3.91,3.91,0,0,1,2.33-.61,6.92,6.92,0,0,1,2.71.56l-.46,1.06a6.1,6.1,0,0,0-2.34-.53,2.62,2.62,0,0,0-1.39.29.88.88,0,0,0-.47.79,1,1,0,0,0,.18.59,1.59,1.59,0,0,0,.56.46,11.15,11.15,0,0,0,1.5.63,5.68,5.68,0,0,1,2.06,1.12A2,2,0,0,1,116.39,179.51Zm-4-7.55q.38-.48.81-1.17c.28-.46.51-.86.68-1.2h1.58v.17a11.38,11.38,0,0,1-1,1.25,12.18,12.18,0,0,1-1.18,1.15h-.86Z"/><path class="cls-2" d="M129.41,181.85v-5.57a2.31,2.31,0,0,0-.44-1.53,1.66,1.66,0,0,0-1.36-.52,2.19,2.19,0,0,0-1.79.7,3.34,3.34,0,0,0-.57,2.14v4.78H124v-5.57a2.31,2.31,0,0,0-.44-1.53,1.68,1.68,0,0,0-1.37-.52,2.13,2.13,0,0,0-1.78.73,4,4,0,0,0-.57,2.4v4.49H118.5v-8.56h1l.21,1.17h.06a2.59,2.59,0,0,1,1-1,3.19,3.19,0,0,1,1.5-.35,2.55,2.55,0,0,1,2.62,1.45H125a2.84,2.84,0,0,1,1.11-1.06,3.48,3.48,0,0,1,1.66-.39,2.87,2.87,0,0,1,2.17.75,3.29,3.29,0,0,1,.73,2.38v5.59Z"/><path class="cls-2" d="M133.27,171a.82.82,0,0,1,.22-.65.75.75,0,0,1,.54-.21.76.76,0,0,1,.54.21,1,1,0,0,1,0,1.3.76.76,0,0,1-.54.21.75.75,0,0,1-.54-.21A.85.85,0,0,1,133.27,171Zm1.41,10.88h-1.3v-8.56h1.3Z"/><path class="cls-2" d="M141,182a3.93,3.93,0,0,1-3-1.16,4.48,4.48,0,0,1-1.1-3.21,5,5,0,0,1,1-3.29,3.39,3.39,0,0,1,2.74-1.22,3.2,3.2,0,0,1,2.54,1.06,4,4,0,0,1,.94,2.79v.82h-5.9a3.42,3.42,0,0,0,.76,2.29,2.65,2.65,0,0,0,2,.78,7,7,0,0,0,2.73-.57v1.15a6.81,6.81,0,0,1-1.3.43A7.75,7.75,0,0,1,141,182Zm-.35-7.79a2.1,2.1,0,0,0-1.64.67,3.15,3.15,0,0,0-.73,1.86h4.48a2.81,2.81,0,0,0-.55-1.88A1.92,1.92,0,0,0,140.69,174.22Z"/><path class="cls-2" d="M149.82,182a3.63,3.63,0,0,1-2.87-1.15,4.7,4.7,0,0,1-1-3.24,4.85,4.85,0,0,1,1-3.32,3.73,3.73,0,0,1,2.95-1.17,6.42,6.42,0,0,1,1.23.13,3.91,3.91,0,0,1,1,.32l-.4,1.1a5.65,5.65,0,0,0-.93-.29,4.57,4.57,0,0,0-.9-.11q-2.61,0-2.61,3.33a3.92,3.92,0,0,0,.64,2.42,2.2,2.2,0,0,0,1.88.84,5.71,5.71,0,0,0,2.2-.46v1.15A4.68,4.68,0,0,1,149.82,182Z"/><path class="cls-2" d="M153.91,171a.82.82,0,0,1,.22-.65.8.8,0,0,1,1.08,0,1,1,0,0,1,0,1.3.8.8,0,0,1-1.08,0A.85.85,0,0,1,153.91,171Zm1.41,10.88H154v-8.56h1.3Z"/></g></g><line id="Line" class="cls-3" x1="56.5" y1="137.15" x2="126.5" y2="137.15"/><g id="Wybierz_rzeczy-2" data-name="Wybierz rzeczy" class="cls-1"><g class="cls-1"><path class="cls-2" d="M61.58,120.16a3.26,3.26,0,0,1-1.24,2.69,5.41,5.41,0,0,1-3.42,1,8.17,8.17,0,0,1-3.57-.68v-2a9,9,0,0,0,1.87.65,7.82,7.82,0,0,0,1.84.24,3,3,0,0,0,1.84-.47,1.67,1.67,0,0,0,.05-2.5,8.61,8.61,0,0,0-2.25-1.19,5.91,5.91,0,0,1-2.48-1.62,3.44,3.44,0,0,1-.72-2.2,3.07,3.07,0,0,1,1.14-2.53,4.72,4.72,0,0,1,3.07-.92,9.14,9.14,0,0,1,3.67.8l-.67,1.72a8,8,0,0,0-3.05-.72,2.39,2.39,0,0,0-1.55.44,1.48,1.48,0,0,0-.53,1.18,1.65,1.65,0,0,0,.21.85,2.06,2.06,0,0,0,.7.67,11,11,0,0,0,1.74.84,9.44,9.44,0,0,1,2.07,1.1,3.27,3.27,0,0,1,1,1.15A3.54,3.54,0,0,1,61.58,120.16Z"/><path class="cls-2" d="M68.77,123.83a3.41,3.41,0,0,1-2.86-1.33h-.12c.08.82.12,1.32.12,1.49v4H63.84v-14h1.67c0,.18.15.61.29,1.3h.11a3.24,3.24,0,0,1,2.9-1.48,3.36,3.36,0,0,1,2.83,1.32,5.92,5.92,0,0,1,1,3.7,6,6,0,0,1-1,3.72A3.42,3.42,0,0,1,68.77,123.83Zm-.5-8.39a2.12,2.12,0,0,0-1.79.72,3.72,3.72,0,0,0-.57,2.3v.31a4.57,4.57,0,0,0,.56,2.57,2.11,2.11,0,0,0,1.84.8,1.86,1.86,0,0,0,1.65-.88,4.53,4.53,0,0,0,.58-2.51,4.33,4.33,0,0,0-.58-2.47A1.91,1.91,0,0,0,68.27,115.44Z"/><path class="cls-2" d="M81.14,123.65l-.41-1.35h-.07a4,4,0,0,1-1.42,1.21,4.52,4.52,0,0,1-1.83.32,3.06,3.06,0,0,1-2.23-.78,2.87,2.87,0,0,1-.81-2.19,2.55,2.55,0,0,1,1.12-2.26,6.45,6.45,0,0,1,3.4-.84l1.68-.05v-.52a2,2,0,0,0-.44-1.39,1.77,1.77,0,0,0-1.35-.46,4.59,4.59,0,0,0-1.43.22,12.41,12.41,0,0,0-1.32.51l-.66-1.47A6.71,6.71,0,0,1,77.1,114a8.15,8.15,0,0,1,1.77-.22,4.2,4.2,0,0,1,2.8.81,3.17,3.17,0,0,1,1,2.54v6.55Zm-3.08-1.41a2.55,2.55,0,0,0,1.81-.62,2.31,2.31,0,0,0,.68-1.77V119l-1.25,0a4.31,4.31,0,0,0-2.12.49,1.48,1.48,0,0,0-.66,1.33,1.33,1.33,0,0,0,.38,1A1.71,1.71,0,0,0,78.06,122.24Z"/><path class="cls-2" d="M87.49,118.52l1.17-1.46,2.94-3.13H94l-3.91,4.17,4.16,5.55H91.8l-3.12-4.26-1.13.93v3.33h-2V110h2v6.68l-.11,1.87Z"/><path class="cls-2" d="M102.65,123.65l-.29-1.27h-.11a3,3,0,0,1-1.22,1.06,4.12,4.12,0,0,1-1.82.39,3.59,3.59,0,0,1-2.64-.88,3.67,3.67,0,0,1-.87-2.67v-6.35h2.09v6a2.63,2.63,0,0,0,.45,1.68,1.78,1.78,0,0,0,1.44.56,2.29,2.29,0,0,0,1.91-.78,4.35,4.35,0,0,0,.61-2.61v-4.84h2.07v9.72Z"/><path class="cls-2" d="M106.22,128a4.52,4.52,0,0,1-1.54-.22v-1.63a4.54,4.54,0,0,0,1.22.16q1.32,0,1.32-1.5V113.93h2.06v11a3.06,3.06,0,0,1-.78,2.28A3.12,3.12,0,0,1,106.22,128Zm.87-16.62a1.06,1.06,0,0,1,1.17-1.15,1.14,1.14,0,0,1,.85.3,1.34,1.34,0,0,1,0,1.69,1.14,1.14,0,0,1-.85.3,1.17,1.17,0,0,1-.86-.3A1.16,1.16,0,0,1,107.09,111.35Z"/><path class="cls-2" d="M115.92,128a4.59,4.59,0,0,1-1.55-.22v-1.63a4.59,4.59,0,0,0,1.22.16q1.32,0,1.32-1.5V113.93H119v11a2.74,2.74,0,0,1-3.06,3Zm.87-16.62a1.16,1.16,0,0,1,.3-.85,1.38,1.38,0,0,1,1.72,0,1.34,1.34,0,0,1,0,1.69,1.38,1.38,0,0,1-1.72,0A1.15,1.15,0,0,1,116.79,111.35Z"/><path class="cls-2" d="M126.18,123.83a4.67,4.67,0,0,1-3.55-1.33,5,5,0,0,1-1.28-3.64,5.49,5.49,0,0,1,1.19-3.74,4.08,4.08,0,0,1,3.26-1.37,4,4,0,0,1,3,1.17,4.48,4.48,0,0,1,1.11,3.22v1.12h-6.47a3.19,3.19,0,0,0,.76,2.17,2.65,2.65,0,0,0,2,.76,7.45,7.45,0,0,0,1.61-.16,8.79,8.79,0,0,0,1.59-.54v1.68a6.26,6.26,0,0,1-1.53.51A9.24,9.24,0,0,1,126.18,123.83Zm-.38-8.51a2.09,2.09,0,0,0-1.58.62,3,3,0,0,0-.71,1.82h4.41a2.65,2.65,0,0,0-.58-1.82A2,2,0,0,0,125.8,115.32Z"/></g></g><path d="M117.14,95.06H65.85A4.84,4.84,0,0,1,61,90.22V38.94a4.84,4.84,0,0,1,4.83-4.83h51.29A4.84,4.84,0,0,1,122,38.94V90.22A4.84,4.84,0,0,1,117.14,95.06ZM65.85,36.52a2.43,2.43,0,0,0-2.42,2.42V90.22a2.43,2.43,0,0,0,2.42,2.43h51.29a2.43,2.43,0,0,0,2.42-2.43V38.94a2.43,2.43,0,0,0-2.42-2.42Z"/><path d="M107.79,45.21v-18A17.14,17.14,0,0,0,103,14.76a16.71,16.71,0,0,0-23,0A17.14,17.14,0,0,0,75.2,27.21V45.16a3,3,0,1,0,2.46-.09V27.21c0-8.59,5.69-14.6,13.84-14.6s13.83,6,13.83,14.6v18a3,3,0,1,0,2.46,0Z"/></svg>