<svg id="Warstwa_1" data-name="Warstwa 1" xmlns="http://www.w3.org/2000/svg" viewBox="0 0 155 213.21"><defs><style>.cls-1{isolation:isolate;}.cls-2{fill:#3c3c3c;}.cls-3{fill:none;stroke:#707070;}</style></defs><title>wybierz_rzeczy</title><g id="ubrania_zabawki_sprzęt_i_inne" data-name="ubrania zabawki sprzęt i inne" class="cls-1"><g class="cls-1"><path class="cls-2" d="M16.69,154.09v5.55a2.25,2.25,0,0,0,.48,1.57,2,2,0,0,0,1.49.51,2.45,2.45,0,0,0,2-.73,3.73,3.73,0,0,0,.62-2.4v-4.5h1.29v8.56H21.47l-.18-1.15h-.07a2.62,2.62,0,0,1-1.11,1,3.77,3.77,0,0,1-1.61.34,3.22,3.22,0,0,1-2.34-.75,3.13,3.13,0,0,1-.78-2.37v-5.6Z"/><path class="cls-2" d="M29.28,154a3.18,3.18,0,0,1,2.62,1.15,6.19,6.19,0,0,1,0,6.54,3.17,3.17,0,0,1-2.61,1.17,3.8,3.8,0,0,1-1.53-.31,2.87,2.87,0,0,1-1.16-.95H26.5l-.28,1.1h-.93V150.49h1.3v3c0,.66,0,1.25-.06,1.78h.06A3.06,3.06,0,0,1,29.28,154ZM29.09,155a2.27,2.27,0,0,0-1.91.76,5.87,5.87,0,0,0,0,5.15,2.29,2.29,0,0,0,1.93.78,2,2,0,0,0,1.78-.87,4.48,4.48,0,0,0,.59-2.5,4.33,4.33,0,0,0-.59-2.5A2.08,2.08,0,0,0,29.09,155Z"/><path class="cls-2" d="M39,153.93a4.61,4.61,0,0,1,1,.1l-.18,1.2a4.39,4.39,0,0,0-.94-.12,2.29,2.29,0,0,0-1.78.85,3.07,3.07,0,0,0-.73,2.1v4.59H35.1v-8.56h1.07l.15,1.58h.06a3.92,3.92,0,0,1,1.15-1.29A2.6,2.6,0,0,1,39,153.93Z"/><path class="cls-2" d="M46.9,162.65l-.26-1.22h-.07a3.53,3.53,0,0,1-1.27,1.09,3.93,3.93,0,0,1-1.59.29,2.86,2.86,0,0,1-2-.66,2.4,2.4,0,0,1-.72-1.87c0-1.73,1.38-2.63,4.15-2.72l1.45,0V157a2.16,2.16,0,0,0-.43-1.49,1.79,1.79,0,0,0-1.39-.48,5.74,5.74,0,0,0-2.42.65l-.4-1a6.16,6.16,0,0,1,2.9-.73,3.23,3.23,0,0,1,2.27.68,2.84,2.84,0,0,1,.74,2.18v5.84ZM44,161.74a2.65,2.65,0,0,0,1.9-.67,2.45,2.45,0,0,0,.69-1.86v-.77l-1.3.05A4.83,4.83,0,0,0,43,159a1.47,1.47,0,0,0-.68,1.33,1.35,1.35,0,0,0,.42,1.07A1.81,1.81,0,0,0,44,161.74Z"/><path class="cls-2" d="M56.39,162.65v-5.54a2.21,2.21,0,0,0-.48-1.56,2,2,0,0,0-1.49-.52,2.48,2.48,0,0,0-2,.73,3.63,3.63,0,0,0-.63,2.4v4.49H50.53v-8.56h1l.21,1.17h.07a2.59,2.59,0,0,1,1.11-1,3.68,3.68,0,0,1,1.6-.35,3.23,3.23,0,0,1,2.33.75,3.16,3.16,0,0,1,.78,2.38v5.59Z"/><path class="cls-2" d="M60.24,151.77a.82.82,0,0,1,.22-.65.75.75,0,0,1,.54-.21.76.76,0,0,1,.54.21,1,1,0,0,1,0,1.3.76.76,0,0,1-.54.21.75.75,0,0,1-.54-.21A.85.85,0,0,1,60.24,151.77Zm1.41,10.88h-1.3v-8.56h1.3Z"/><path class="cls-2" d="M69.66,162.65l-.26-1.22h-.06a3.55,3.55,0,0,1-1.28,1.09,3.86,3.86,0,0,1-1.59.29,2.83,2.83,0,0,1-2-.66,2.41,2.41,0,0,1-.73-1.87c0-1.73,1.39-2.63,4.15-2.72l1.46,0V157a2.16,2.16,0,0,0-.44-1.49,1.78,1.78,0,0,0-1.38-.48,5.78,5.78,0,0,0-2.43.65l-.39-1a6.08,6.08,0,0,1,2.89-.73,3.23,3.23,0,0,1,2.27.68,2.8,2.8,0,0,1,.74,2.18v5.84Zm-2.93-.91a2.63,2.63,0,0,0,1.9-.67,2.45,2.45,0,0,0,.69-1.86v-.77l-1.29.05a4.79,4.79,0,0,0-2.23.48,1.46,1.46,0,0,0-.69,1.33,1.36,1.36,0,0,0,.43,1.07A1.78,1.78,0,0,0,66.73,161.74Z"/><path class="cls-2" d="M74.65,160.79l.12.18c-.14.52-.33,1.13-.59,1.82s-.52,1.33-.79,1.92h-1c.14-.54.3-1.21.47-2s.28-1.44.35-1.92Z"/><path class="cls-2" d="M86.85,162.65H80.64v-.88l4.67-6.67H80.93v-1h5.8v1l-4.61,6.54h4.73Z"/><path class="cls-2" d="M94.12,162.65l-.26-1.22H93.8a3.47,3.47,0,0,1-1.28,1.09,3.86,3.86,0,0,1-1.59.29,2.85,2.85,0,0,1-2-.66,2.4,2.4,0,0,1-.72-1.87c0-1.73,1.38-2.63,4.14-2.72l1.46,0V157a2.16,2.16,0,0,0-.44-1.49A1.78,1.78,0,0,0,92,155a5.71,5.71,0,0,0-2.42.65l-.4-1a6,6,0,0,1,1.38-.54,6.09,6.09,0,0,1,1.52-.19,3.2,3.2,0,0,1,2.26.68,2.8,2.8,0,0,1,.74,2.18v5.84Zm-2.93-.91a2.63,2.63,0,0,0,1.9-.67,2.42,2.42,0,0,0,.7-1.86v-.77l-1.3.05a4.79,4.79,0,0,0-2.23.48,1.45,1.45,0,0,0-.68,1.33,1.35,1.35,0,0,0,.42,1.07A1.8,1.8,0,0,0,91.19,161.74Z"/><path class="cls-2" d="M101.74,154a3.18,3.18,0,0,1,2.62,1.15,6.19,6.19,0,0,1,0,6.54,3.17,3.17,0,0,1-2.61,1.17,3.8,3.8,0,0,1-1.53-.31,2.87,2.87,0,0,1-1.16-.95H99l-.28,1.1h-.92V150.49h1.29v3c0,.66,0,1.25-.06,1.78h.06A3.07,3.07,0,0,1,101.74,154Zm-.19,1.08a2.28,2.28,0,0,0-1.91.76,5.87,5.87,0,0,0,0,5.15,2.29,2.29,0,0,0,1.93.78,2,2,0,0,0,1.78-.87,4.4,4.4,0,0,0,.59-2.5,4.25,4.25,0,0,0-.59-2.5A2.08,2.08,0,0,0,101.55,155Z"/><path class="cls-2" d="M112.83,162.65l-.26-1.22h-.06a3.63,3.63,0,0,1-1.28,1.09,3.93,3.93,0,0,1-1.59.29,2.86,2.86,0,0,1-2-.66,2.4,2.4,0,0,1-.72-1.87c0-1.73,1.38-2.63,4.15-2.72l1.45,0V157a2.16,2.16,0,0,0-.43-1.49,1.79,1.79,0,0,0-1.39-.48,5.74,5.74,0,0,0-2.42.65l-.4-1a6.16,6.16,0,0,1,2.9-.73,3.23,3.23,0,0,1,2.27.68,2.84,2.84,0,0,1,.74,2.18v5.84Zm-2.93-.91a2.65,2.65,0,0,0,1.9-.67,2.45,2.45,0,0,0,.69-1.86v-.77l-1.3.05A4.83,4.83,0,0,0,109,159a1.47,1.47,0,0,0-.68,1.33,1.35,1.35,0,0,0,.42,1.07A1.81,1.81,0,0,0,109.9,161.74Z"/><path class="cls-2" d="M123.45,162.65l-1.57-5c-.1-.31-.28-1-.55-2.1h-.07c-.21.91-.39,1.62-.54,2.11l-1.62,5h-1.5l-2.34-8.56h1.36q.82,3.22,1.26,4.91a19.44,19.44,0,0,1,.5,2.28h.06c.06-.3.15-.69.28-1.16s.24-.84.33-1.12l1.57-4.91H122l1.53,4.91a16.28,16.28,0,0,1,.59,2.26h.07a7.74,7.74,0,0,1,.16-.87c.09-.39.64-2.49,1.63-6.3h1.35L125,162.65Z"/><path class="cls-2" d="M130.18,158.27a15.16,15.16,0,0,1,1-1.25l2.76-2.93h1.54L132,157.74l3.72,4.91h-1.58l-3-4.05-1,.85v3.2H128.9V150.49h1.28v6.45c0,.29,0,.73-.06,1.33Z"/><path class="cls-2" d="M137.19,151.77a.86.86,0,0,1,.22-.65.81.81,0,0,1,1.09,0,1.07,1.07,0,0,1,0,1.3.81.81,0,0,1-1.09,0A.89.89,0,0,1,137.19,151.77Zm1.41,10.88h-1.3v-8.56h1.3Z"/><path class="cls-2" d="M142.71,160.79l.12.18c-.14.52-.34,1.13-.59,1.82s-.52,1.33-.8,1.92h-1c.14-.54.29-1.21.46-2s.29-1.44.36-1.92Z"/></g><g class="cls-1"><path class="cls-2" d="M40.18,178.31a2.13,2.13,0,0,1-.89,1.85,4.18,4.18,0,0,1-2.5.65,5.4,5.4,0,0,1-2.65-.54v-1.21a6.32,6.32,0,0,0,1.32.5,5.53,5.53,0,0,0,1.36.18,3.08,3.08,0,0,0,1.57-.33,1.12,1.12,0,0,0,.11-1.84,6.59,6.59,0,0,0-1.69-.84,9.49,9.49,0,0,1-1.7-.78,2.23,2.23,0,0,1-.75-.75,2,2,0,0,1-.25-1,1.93,1.93,0,0,1,.85-1.65,3.94,3.94,0,0,1,2.34-.61,6.91,6.91,0,0,1,2.7.56l-.46,1.06a6.1,6.1,0,0,0-2.33-.53,2.59,2.59,0,0,0-1.39.29.87.87,0,0,0-.47.79,1,1,0,0,0,.17.59,1.87,1.87,0,0,0,.57.46,11.15,11.15,0,0,0,1.5.63,5.68,5.68,0,0,1,2.06,1.12A2,2,0,0,1,40.18,178.31Z"/><path class="cls-2" d="M46.28,180.81a3.8,3.8,0,0,1-1.53-.31,2.87,2.87,0,0,1-1.16-.95H43.5a11.9,11.9,0,0,1,.09,1.42v3.52h-1.3v-12.4h1.06l.18,1.17h.06a3,3,0,0,1,1.16-1,3.7,3.7,0,0,1,1.53-.31,3.17,3.17,0,0,1,2.63,1.17,5.14,5.14,0,0,1,.92,3.26,5.08,5.08,0,0,1-.94,3.28A3.17,3.17,0,0,1,46.28,180.81ZM46.09,173a2.31,2.31,0,0,0-1.9.73,3.72,3.72,0,0,0-.6,2.31v.29a4.3,4.3,0,0,0,.6,2.58,2.29,2.29,0,0,0,1.93.78,2,2,0,0,0,1.74-.9,4.24,4.24,0,0,0,.63-2.47,4.1,4.1,0,0,0-.63-2.46A2.08,2.08,0,0,0,46.09,173Z"/><path class="cls-2" d="M56,171.93a4.61,4.61,0,0,1,1,.1l-.18,1.2a4.39,4.39,0,0,0-.94-.12,2.29,2.29,0,0,0-1.78.85,3.08,3.08,0,0,0-.74,2.1v4.59H52.1v-8.56h1.07l.15,1.58h.06a3.92,3.92,0,0,1,1.15-1.29A2.6,2.6,0,0,1,56,171.93Z"/><path class="cls-2" d="M64.11,180.65H57.89v-.88l4.68-6.67H58.18v-1H64v1l-4.61,6.54h4.73Z"/><path class="cls-2" d="M69.73,180.81a4,4,0,0,1-3-1.16,4.48,4.48,0,0,1-1.09-3.21,5,5,0,0,1,1-3.29,3.39,3.39,0,0,1,2.73-1.22A3.21,3.21,0,0,1,71.94,173a4,4,0,0,1,.94,2.79v.82H67a3.42,3.42,0,0,0,.76,2.29,2.64,2.64,0,0,0,2,.78,7,7,0,0,0,2.73-.57v1.15a7,7,0,0,1-1.3.43A7.75,7.75,0,0,1,69.73,180.81ZM69.38,173a2.12,2.12,0,0,0-1.65.67,3.14,3.14,0,0,0-.72,1.86h4.48a2.81,2.81,0,0,0-.55-1.88A1.92,1.92,0,0,0,69.38,173Zm1.55,9.25a.64.64,0,0,0,.73.73,3.24,3.24,0,0,0,.76-.1v.85a3.46,3.46,0,0,1-1,.14q-1.62,0-1.62-1.47a2,2,0,0,1,.34-1.07,3.33,3.33,0,0,1,.9-.94H72a5.14,5.14,0,0,0-.8.94A1.68,1.68,0,0,0,70.93,182.27Z"/><path class="cls-2" d="M77.86,179.74a4.77,4.77,0,0,0,.66-.05c.21,0,.38-.07.51-.11v1a2.15,2.15,0,0,1-.62.17,5.37,5.37,0,0,1-.74.07c-1.66,0-2.49-.88-2.49-2.62V173.1H74v-.63l1.22-.54.55-1.83h.75v2H79v1H76.48v5a1.7,1.7,0,0,0,.37,1.19A1.26,1.26,0,0,0,77.86,179.74Z"/><path class="cls-2" d="M84.79,169.77a.86.86,0,0,1,.21-.65.81.81,0,0,1,1.09,0,1,1,0,0,1,0,1.3.81.81,0,0,1-1.09,0A.89.89,0,0,1,84.79,169.77Zm1.4,10.88h-1.3v-8.56h1.3Z"/><path class="cls-2" d="M93,169.77a.82.82,0,0,1,.22-.65.75.75,0,0,1,.54-.21.76.76,0,0,1,.54.21,1,1,0,0,1,0,1.3.76.76,0,0,1-.54.21.75.75,0,0,1-.54-.21A.85.85,0,0,1,93,169.77Zm1.4,10.88H93.1v-8.56h1.29Z"/><path class="cls-2" d="M103,180.65v-5.54a2.26,2.26,0,0,0-.47-1.56A2,2,0,0,0,101,173a2.46,2.46,0,0,0-2,.73,3.63,3.63,0,0,0-.63,2.4v4.49h-1.3v-8.56H98.2l.21,1.17h.06a2.68,2.68,0,0,1,1.12-1,3.65,3.65,0,0,1,1.6-.35,3.25,3.25,0,0,1,2.33.75,3.16,3.16,0,0,1,.78,2.38v5.59Z"/><path class="cls-2" d="M112.82,180.65v-5.54a2.21,2.21,0,0,0-.47-1.56,2,2,0,0,0-1.49-.52,2.46,2.46,0,0,0-2,.73,3.63,3.63,0,0,0-.63,2.4v4.49H107v-8.56H108l.21,1.17h.06a2.68,2.68,0,0,1,1.12-1,3.65,3.65,0,0,1,1.6-.35,3.25,3.25,0,0,1,2.33.75,3.16,3.16,0,0,1,.78,2.38v5.59Z"/><path class="cls-2" d="M120.4,180.81a3.93,3.93,0,0,1-3-1.16,4.44,4.44,0,0,1-1.1-3.21,5,5,0,0,1,1-3.29,3.39,3.39,0,0,1,2.74-1.22,3.2,3.2,0,0,1,2.54,1.06,4,4,0,0,1,.94,2.79v.82h-5.9a3.42,3.42,0,0,0,.76,2.29,2.65,2.65,0,0,0,2,.78,7,7,0,0,0,2.73-.57v1.15a6.81,6.81,0,0,1-1.3.43A7.75,7.75,0,0,1,120.4,180.81Zm-.35-7.79a2.1,2.1,0,0,0-1.64.67,3.15,3.15,0,0,0-.73,1.86h4.48a2.81,2.81,0,0,0-.55-1.88A1.92,1.92,0,0,0,120.05,173Z"/></g></g><line id="Line" class="cls-3" x1="44" y1="137.15" x2="114" y2="137.15"/><g id="Wybierz_rzeczy" data-name="Wybierz rzeczy" class="cls-1"><g class="cls-1"><path class="cls-2" d="M28.44,123.65H26.15L24,116c-.09-.34-.21-.82-.35-1.45s-.22-1.07-.25-1.31c-.06.37-.16.86-.29,1.46s-.24,1-.33,1.33l-2.13,7.63H18.34l-1.66-6.43L15,110.8h2.14L19,118.29c.29,1.2.49,2.26.62,3.18.06-.5.16-1,.29-1.67s.24-1.11.35-1.49l2.09-7.51H24.4l2.15,7.54a30,30,0,0,1,.65,3.13,23.89,23.89,0,0,1,.63-3.2l1.83-7.47h2.13Z"/><path class="cls-2" d="M31.91,113.93h2.25l2,5.51a10.35,10.35,0,0,1,.59,2.22h.07a10.47,10.47,0,0,1,.29-1.18c.15-.46.89-2.64,2.24-6.55h2.23l-4.16,11q-1.12,3-3.78,3a6.53,6.53,0,0,1-1.33-.14v-1.64a4.8,4.8,0,0,0,1.06.11,2.17,2.17,0,0,0,2.1-1.74l.36-.91Z"/><path class="cls-2" d="M48,113.75a3.39,3.39,0,0,1,2.84,1.32,6,6,0,0,1,1,3.7,5.9,5.9,0,0,1-1,3.72A3.39,3.39,0,0,1,48,123.83a3.43,3.43,0,0,1-2.87-1.33H45l-.38,1.15H43V110H45.1v3.26c0,.24,0,.59,0,1.07s0,.78-.06.9h.09A3.3,3.3,0,0,1,48,113.75Zm-.53,1.69a2.09,2.09,0,0,0-1.8.74,4.2,4.2,0,0,0-.57,2.45v.14a4.57,4.57,0,0,0,.56,2.57,2.11,2.11,0,0,0,1.84.8,1.87,1.87,0,0,0,1.67-.87,4.71,4.71,0,0,0,.56-2.52C49.73,116.55,49,115.44,47.47,115.44Z"/><path class="cls-2" d="M54.13,111.35a1.16,1.16,0,0,1,.3-.85,1.38,1.38,0,0,1,1.72,0,1.34,1.34,0,0,1,0,1.69,1.38,1.38,0,0,1-1.72,0A1.15,1.15,0,0,1,54.13,111.35Zm2.19,12.3H54.25v-9.72h2.07Z"/><path class="cls-2" d="M63.51,123.83A4.66,4.66,0,0,1,60,122.5a5,5,0,0,1-1.28-3.64,5.49,5.49,0,0,1,1.19-3.74,4.08,4.08,0,0,1,3.26-1.37,4,4,0,0,1,3,1.17,4.48,4.48,0,0,1,1.11,3.22v1.12H60.82a3.19,3.19,0,0,0,.76,2.17,2.65,2.65,0,0,0,2,.76,7.29,7.29,0,0,0,1.6-.16,8.62,8.62,0,0,0,1.6-.54v1.68a6.26,6.26,0,0,1-1.53.51A9.28,9.28,0,0,1,63.51,123.83Zm-.37-8.51a2.09,2.09,0,0,0-1.58.62,3,3,0,0,0-.71,1.82h4.41a2.65,2.65,0,0,0-.58-1.82A2,2,0,0,0,63.14,115.32Z"/><path class="cls-2" d="M74.57,113.75a4.85,4.85,0,0,1,1,.09l-.2,1.93a4,4,0,0,0-.92-.11,2.67,2.67,0,0,0-2,.81,2.93,2.93,0,0,0-.76,2.1v5.08H69.64v-9.72h1.62l.27,1.71h.11a3.82,3.82,0,0,1,1.26-1.38A3,3,0,0,1,74.57,113.75Z"/><path class="cls-2" d="M83.9,123.65H76.52v-1.27l4.92-6.87H76.82v-1.58h6.94v1.44L79,122.07h5Z"/><path class="cls-2" d="M95.61,113.75a4.85,4.85,0,0,1,1,.09l-.2,1.93a3.93,3.93,0,0,0-.92-.11,2.63,2.63,0,0,0-2,.81,2.89,2.89,0,0,0-.77,2.1v5.08H90.68v-9.72H92.3l.27,1.71h.11a3.82,3.82,0,0,1,1.26-1.38A3,3,0,0,1,95.61,113.75Z"/><path class="cls-2" d="M104.94,123.65H97.56v-1.27l4.92-6.87H97.86v-1.58h6.94v1.44l-4.81,6.7h5Z"/><path class="cls-2" d="M111.29,123.83a4.66,4.66,0,0,1-3.54-1.33,5,5,0,0,1-1.28-3.64,5.48,5.48,0,0,1,1.18-3.74,4.1,4.1,0,0,1,3.26-1.37,4,4,0,0,1,3,1.17,4.48,4.48,0,0,1,1.11,3.22v1.12h-6.48a3.2,3.2,0,0,0,.77,2.17,2.65,2.65,0,0,0,2,.76A7.35,7.35,0,0,0,113,122a8.62,8.62,0,0,0,1.6-.54v1.68a6.55,6.55,0,0,1-1.53.51A9.43,9.43,0,0,1,111.29,123.83Zm-.38-8.51a2.08,2.08,0,0,0-1.57.62,3,3,0,0,0-.71,1.82H113a2.65,2.65,0,0,0-.58-1.82A2,2,0,0,0,110.91,115.32Z"/><path class="cls-2" d="M121.34,123.83a4.28,4.28,0,0,1-3.36-1.29,6.55,6.55,0,0,1,.06-7.47,4.44,4.44,0,0,1,3.47-1.32,6.34,6.34,0,0,1,2.76.58l-.62,1.66a6.22,6.22,0,0,0-2.16-.51c-1.68,0-2.53,1.11-2.53,3.35a4,4,0,0,0,.63,2.45,2.18,2.18,0,0,0,1.84.82,5.31,5.31,0,0,0,2.62-.68v1.8a4.22,4.22,0,0,1-1.19.47A7.29,7.29,0,0,1,121.34,123.83Z"/><path class="cls-2" d="M132.83,123.65h-7.38v-1.27l4.91-6.87h-4.61v-1.58h6.93v1.44l-4.8,6.7h5Z"/><path class="cls-2" d="M133.46,113.93h2.25l2,5.51a11,11,0,0,1,.59,2.22h.07a10.47,10.47,0,0,1,.29-1.18q.21-.69,2.24-6.55h2.23l-4.16,11q-1.12,3-3.78,3a6.45,6.45,0,0,1-1.33-.14v-1.64a4.8,4.8,0,0,0,1.06.11,2.17,2.17,0,0,0,2.1-1.74l.36-.91Z"/></g></g><g id="Wybierz_rzeczy-2" data-name="Wybierz rzeczy" class="cls-1"><g class="cls-1"><path class="cls-2" d="M82.25,68.25H78.87V54.68c0-1.62,0-2.9.11-3.85a10.44,10.44,0,0,1-.81.76c-.32.28-1.4,1.16-3.23,2.65L73.25,52.1l6.18-4.86h2.82Z"/></g></g><path d="M99.24,57.69a1.56,1.56,0,1,1,0-3.11A30.94,30.94,0,0,0,110.06,52c-.64-8-2.6-20.38-5.56-22.7-3.43-2.7-10.35-4.74-13.43-5.55-1.46,3.58-6.92,5.88-12.07,5.88s-10.62-2.3-12.08-5.88c-3.08.81-10,2.86-13.43,5.55-3,2.32-4.92,14.7-5.55,22.7a30.82,30.82,0,0,0,10.82,2.54,1.56,1.56,0,0,1,0,3.11c-6.25,0-12.85-3.13-13.13-3.27a1.56,1.56,0,0,1-.88-1.5c.15-2.24,1.62-22,6.82-26,5-3.94,15.73-6.42,16.18-6.52a1.56,1.56,0,0,1,1.91,1.51C69.66,24,74,26.55,79,26.55s9.34-2.56,9.34-4.67a1.55,1.55,0,0,1,1.9-1.51c.45.1,11.17,2.58,16.18,6.52,5.2,4.07,6.67,23.79,6.82,26a1.53,1.53,0,0,1-.87,1.5C112.09,54.56,105.49,57.69,99.24,57.69Z"/><path d="M79,95.06c-14.63,0-20.72-3.17-21-3.3a1.57,1.57,0,0,1-.82-1.37V46.79c0-3.34-1.07-6.65-2.66-8.24a1.56,1.56,0,0,1,2.2-2.2c2.21,2.2,3.57,6.2,3.57,10.44V89.36c2,.78,7.89,2.58,18.69,2.58s16.65-1.8,18.68-2.58V46.79c0-4.24,1.37-8.24,3.57-10.44a1.56,1.56,0,0,1,2.2,2.2c-1.59,1.59-2.66,4.9-2.66,8.24v43.6a1.55,1.55,0,0,1-.82,1.37C99.72,91.89,93.62,95.06,79,95.06Z"/><path d="M79,25c-2.84,0-10.85-1.52-11.19-1.59a1.56,1.56,0,0,1,.58-3.06A93.51,93.51,0,0,0,79,21.88a93.67,93.67,0,0,0,10.6-1.53,1.57,1.57,0,0,1,1.82,1.24,1.54,1.54,0,0,1-1.23,1.82C89.85,23.48,81.84,25,79,25Z"/></svg>