<svg id="Warstwa_2" data-name="Warstwa 2" xmlns="http://www.w3.org/2000/svg" viewBox="0 0 603.8 382.33"><defs><style>.cls-1{fill:#5e5322;}</style></defs><title>10_workow</title><path class="cls-1" d="M275,142.14h-4.26V95.86q0-6.3.52-13.08c-.43.43-.88.85-1.34,1.26S265,88,256.53,94.6l-2.48-3.09L271.3,78.6H275Z"/><path class="cls-1" d="M342.05,110.2q0,16.72-5.1,24.77t-15.45,8q-10,0-15.13-8.28T301.2,110.2q0-16.61,5-24.6t15.28-8q10,0,15.29,8.28T342.05,110.2Zm-36.15,0q0,14.77,3.86,21.84a13.38,13.38,0,0,0,23.71-.24q3.76-7.31,3.76-21.6,0-14.08-3.76-21.38a12.57,12.57,0,0,0-12-7.3,12.43,12.43,0,0,0-11.91,7.3Q305.9,96.11,305.9,110.2Z"/><path class="cls-1" d="M218,190.7a6.81,6.81,0,0,1-1.5,4.67,5.26,5.26,0,0,1-4.18,1.71,5.34,5.34,0,0,1-4.22-1.68,6.85,6.85,0,0,1-1.48-4.72,6.75,6.75,0,0,1,1.49-4.68,5.37,5.37,0,0,1,4.23-1.66,5.24,5.24,0,0,1,4.16,1.69A6.81,6.81,0,0,1,218,190.7Zm-9.86,0a5.87,5.87,0,0,0,1.07,3.81,4.38,4.38,0,0,0,6.22,0,7.42,7.42,0,0,0,0-7.61,3.72,3.72,0,0,0-3.09-1.29,3.85,3.85,0,0,0-3.13,1.3A5.85,5.85,0,0,0,208.18,190.7Z"/><path class="cls-1" d="M230.68,190.6a6.26,6.26,0,0,1-1.66,4.69,6.6,6.6,0,0,1-4.79,1.62H220.8V184.53h3.79a5.56,5.56,0,0,1,6.09,6.07Zm-1.52.05a5,5,0,0,0-1.22-3.65,4.86,4.86,0,0,0-3.61-1.23h-2.09v9.89H224a5.33,5.33,0,0,0,3.87-1.26A5.05,5.05,0,0,0,229.16,190.65Z"/><path class="cls-1" d="M243.32,190.6a6.26,6.26,0,0,1-1.67,4.69,6.56,6.56,0,0,1-4.78,1.62h-3.43V184.53h3.79a5.56,5.56,0,0,1,6.09,6.07Zm-1.53.05a5,5,0,0,0-1.21-3.65,4.86,4.86,0,0,0-3.61-1.23h-2.09v9.89h1.75a5.33,5.33,0,0,0,3.87-1.26A5,5,0,0,0,241.79,190.65Z"/><path class="cls-1" d="M253.86,196.91,252.32,193h-5l-1.53,3.94h-1.45l4.89-12.43h1.21l4.87,12.43Zm-2-5.23-1.44-3.84c-.19-.48-.38-1.08-.58-1.79a15,15,0,0,1-.53,1.79l-1.46,3.84Z"/><path class="cls-1" d="M266.71,196.91h-1.64l-6.76-10.39h-.07c.09,1.22.14,2.34.14,3.35v7h-1.33V184.53h1.62l6.75,10.34h.07c0-.15,0-.64-.08-1.46s-.05-1.42,0-1.78v-7.1h1.34Z"/><path class="cls-1" d="M273.27,190.72l3.3-6.19h1.55L274,192.11v4.8h-1.45v-4.74l-4.12-7.64H270Z"/><path class="cls-1" d="M285.13,185.64A4.06,4.06,0,0,0,281.9,187a5.5,5.5,0,0,0-1.18,3.72,5.57,5.57,0,0,0,1.14,3.75,4,4,0,0,0,3.25,1.33,11.08,11.08,0,0,0,2.95-.47v1.26a9.1,9.1,0,0,1-3.17.49,5.4,5.4,0,0,1-4.22-1.66,6.85,6.85,0,0,1-1.49-4.72,7.41,7.41,0,0,1,.72-3.35,5.09,5.09,0,0,1,2.06-2.22,6.25,6.25,0,0,1,3.18-.78,7.7,7.7,0,0,1,3.4.71l-.6,1.24A6.59,6.59,0,0,0,285.13,185.64Z"/><path class="cls-1" d="M300.16,196.91h-1.44v-5.83H292.2v5.83h-1.44V184.53h1.44v5.27h6.52v-5.27h1.44Z"/><path class="cls-1" d="M318.86,196.91h-1.43l-2.49-8.29c-.12-.37-.25-.83-.4-1.39a8.2,8.2,0,0,1-.23-1,18.7,18.7,0,0,1-.59,2.45l-2.42,8.24h-1.42l-3.3-12.38h1.53l1.95,7.64a28,28,0,0,1,.59,2.92,21.49,21.49,0,0,1,.68-3l2.22-7.53h1.52l2.33,7.59a24.23,24.23,0,0,1,.69,3,23.79,23.79,0,0,1,.61-2.93l1.94-7.63h1.53Z"/><path class="cls-1" d="M334.85,190.7a6.76,6.76,0,0,1-1.51,4.67,5.26,5.26,0,0,1-4.17,1.71A5.33,5.33,0,0,1,325,195.4a8.16,8.16,0,0,1,0-9.4,5.38,5.38,0,0,1,4.23-1.66,5.28,5.28,0,0,1,4.17,1.69A6.81,6.81,0,0,1,334.85,190.7Zm-9.86,0a5.81,5.81,0,0,0,1.07,3.81,4.37,4.37,0,0,0,6.21,0,7.45,7.45,0,0,0,0-7.61,3.76,3.76,0,0,0-3.1-1.29,3.82,3.82,0,0,0-3.12,1.3A5.79,5.79,0,0,0,325,190.7Z"/><path class="cls-1" d="M339.05,191.76v5.15h-1.44V184.53H341a5.37,5.37,0,0,1,3.37.87,3.18,3.18,0,0,1,1.08,2.63,3.28,3.28,0,0,1-2.49,3.31l3.36,5.57h-1.7l-3-5.15Zm0-1.24h2a3.42,3.42,0,0,0,2.23-.6,2.23,2.23,0,0,0,.71-1.82,2.07,2.07,0,0,0-.72-1.77,3.93,3.93,0,0,0-2.32-.54h-1.87Z"/><path class="cls-1" d="M357.26,196.91h-1.69l-4.51-6-1.3,1.16v4.85h-1.44V184.53h1.44v6.14l5.61-6.14h1.71l-5,5.38Z"/><path class="cls-1" d="M369.7,190.7a6.81,6.81,0,0,1-1.5,4.67,5.26,5.26,0,0,1-4.18,1.71,5.35,5.35,0,0,1-4.22-1.68,8.18,8.18,0,0,1,0-9.4,5.37,5.37,0,0,1,4.23-1.66,5.28,5.28,0,0,1,4.17,1.69A6.8,6.8,0,0,1,369.7,190.7Zm-9.86,0a5.87,5.87,0,0,0,1.07,3.81,4.38,4.38,0,0,0,6.22,0,7.45,7.45,0,0,0,0-7.61,3.76,3.76,0,0,0-3.1-1.29,3.85,3.85,0,0,0-3.13,1.3A5.85,5.85,0,0,0,359.84,190.7Zm3-7.37c.27-.35.56-.77.88-1.27s.56-.93.74-1.3h1.71v.18a12.92,12.92,0,0,1-1.11,1.36,12.78,12.78,0,0,1-1.28,1.24h-.94Z"/><path class="cls-1" d="M383.27,196.91h-1.43l-2.49-8.29c-.12-.37-.26-.83-.4-1.39a8.2,8.2,0,0,1-.23-1,18.7,18.7,0,0,1-.59,2.45l-2.42,8.24h-1.43L371,184.53h1.53l2,7.64a28,28,0,0,1,.59,2.92,21.49,21.49,0,0,1,.68-3l2.22-7.53h1.52l2.33,7.59a22.59,22.59,0,0,1,.68,3,28.23,28.23,0,0,1,.61-2.93l1.95-7.63h1.52Z"/><path class="cls-1" d="M123.58,229.41l-1.37-.21v-.85h4.87v.85l-1.68.21V240l4.39-.15,1-2.86,1,.15-.6,3.86h-9.06v-.83l1.41-.17Z"/><path class="cls-1" d="M133.53,233.59a4.35,4.35,0,0,1,3.86-2.3,3.89,3.89,0,0,1,3.22,1.36,5.58,5.58,0,0,1,1.08,3.57,5.38,5.38,0,0,1-.63,2.67,4.25,4.25,0,0,1-1.66,1.7,4.39,4.39,0,0,1-2.2.58,3.85,3.85,0,0,1-3.22-1.36,5.58,5.58,0,0,1-1.08-3.57A5.33,5.33,0,0,1,133.53,233.59Zm5.57,5.64a5.29,5.29,0,0,0,.63-2.87,6.41,6.41,0,0,0-.58-3,1.93,1.93,0,0,0-1.85-1.11,2,2,0,0,0-1.81,1,5.3,5.3,0,0,0-.64,2.87,6.34,6.34,0,0,0,.6,3,2,2,0,0,0,1.85,1.1A2,2,0,0,0,139.1,239.23Z"/><path class="cls-1" d="M143.27,240.15l1.27-.1v-7.19l-1.22-.31v-.92l2.34-.3h0l.37.3v.31l0,1.33h0a4.45,4.45,0,0,1,.61-.75,4.68,4.68,0,0,1,1.14-.84,3.07,3.07,0,0,1,1.52-.39,1.53,1.53,0,0,1,.56.09v1.9a1.59,1.59,0,0,0-.38-.16,2.21,2.21,0,0,0-.59-.08,4.41,4.41,0,0,0-2.62.87V240l2.16.14V241h-5.2Z"/><path class="cls-1" d="M152.06,239.83a6.46,6.46,0,0,1-.51-6.19,4,4,0,0,1,1.57-1.73,4.33,4.33,0,0,1,2.3-.62,3.31,3.31,0,0,1,2.46.88,3.6,3.6,0,0,1,.93,2.51,7.89,7.89,0,0,1-.12,1.58h-5.85a4.65,4.65,0,0,0,.78,2.71,2.49,2.49,0,0,0,2.13,1,4.67,4.67,0,0,0,1.42-.25,3.36,3.36,0,0,0,1.14-.59l.33.75a4.06,4.06,0,0,1-1.47.89,5.38,5.38,0,0,1-2,.37A3.81,3.81,0,0,1,152.06,239.83Zm4.88-4.47a6,6,0,0,0,.05-.74,3.07,3.07,0,0,0-.47-1.74,1.62,1.62,0,0,0-1.42-.63,1.91,1.91,0,0,0-1.57.71,4.11,4.11,0,0,0-.67,2.4Z"/><path class="cls-1" d="M160.25,240.15l1-.15v-7.14l-1.23-.31v-.92l2.43-.3.31.22.1.68v.54a5.78,5.78,0,0,1,1.62-1,4.65,4.65,0,0,1,1.84-.45,3.11,3.11,0,0,1,1.48.3,2,2,0,0,1,.85,1,5.71,5.71,0,0,1,1.52-.85,4.81,4.81,0,0,1,1.83-.4,2.92,2.92,0,0,1,1.65.4,2.1,2.1,0,0,1,.84,1.24,8,8,0,0,1,.25,2.25V240l1.22.15V241h-4v-.83L173,240v-4.73a7.2,7.2,0,0,0-.14-1.57,1.51,1.51,0,0,0-.55-.88,2,2,0,0,0-1.15-.29,3.39,3.39,0,0,0-1.19.25,4.72,4.72,0,0,0-1.07.59,8.27,8.27,0,0,1,.16,1.88V240l1.2.15V241h-4.11v-.83l1.12-.15v-4.76a7.15,7.15,0,0,0-.13-1.58,1.4,1.4,0,0,0-.48-.85,1.8,1.8,0,0,0-1.09-.28,3.28,3.28,0,0,0-1.3.31,5.36,5.36,0,0,0-1.2.71V240l1.14.15V241h-4Z"/><path class="cls-1" d="M182.54,232.86l-1.29-.31v-.9l2.63-.32h0l.4.3V240l1.36.14V241h-4.51v-.83l1.38-.15Zm-.14-3.32a1.12,1.12,0,0,1-.27-.78,1.28,1.28,0,0,1,.33-.9,1.17,1.17,0,0,1,.91-.36,1.05,1.05,0,0,1,.85.31,1.12,1.12,0,0,1,.27.78,1.26,1.26,0,0,1-.33.92,1.22,1.22,0,0,1-.93.34h0A1,1,0,0,1,182.4,229.54Z"/><path class="cls-1" d="M195.47,238.58a4.51,4.51,0,0,1-1.7,1.89,4.66,4.66,0,0,1-2.58.7,5.57,5.57,0,0,1-.88-.07,3.58,3.58,0,0,1-.77-.17l.05,1.43v1.72l1.77.18v.84h-4.74v-.84l1.22-.18V232.86l-1.24-.31v-.92l2.41-.3h0l.35.3v1a4.77,4.77,0,0,1,1.27-1,3.66,3.66,0,0,1,1.69-.39,3.59,3.59,0,0,1,1.85.5,3.46,3.46,0,0,1,1.35,1.53,5.89,5.89,0,0,1,.51,2.61A5.83,5.83,0,0,1,195.47,238.58Zm-5-5.82a2.87,2.87,0,0,0-.87.59v6.41a1,1,0,0,0,.61.36,3.23,3.23,0,0,0,1.06.17,2.54,2.54,0,0,0,2.11-1,5,5,0,0,0,.81-3.13,4.44,4.44,0,0,0-.7-2.74,2.21,2.21,0,0,0-1.81-.9A2.6,2.6,0,0,0,190.46,232.76Z"/><path class="cls-1" d="M199.13,239.62a1.39,1.39,0,0,0,.72.46,3.28,3.28,0,0,0,1.17.21,2.21,2.21,0,0,0,1.42-.38,1.25,1.25,0,0,0,.46-1,1.14,1.14,0,0,0-.29-.79,2.59,2.59,0,0,0-.8-.61c-.35-.17-.85-.39-1.49-.64a4.6,4.6,0,0,1-1.91-1.18,2.59,2.59,0,0,1-.61-1.81,2,2,0,0,1,.45-1.31,3,3,0,0,1,1.24-.87,4.75,4.75,0,0,1,1.76-.32,6.91,6.91,0,0,1,1.37.12,8.61,8.61,0,0,1,.95.24l.47.15V234h-1l-.34-1.26a.83.83,0,0,0-.54-.34,3,3,0,0,0-1-.15,2.08,2.08,0,0,0-1.23.34,1.09,1.09,0,0,0-.47.92,1.4,1.4,0,0,0,.25.84,2,2,0,0,0,.62.54c.25.13.59.29,1,.47l.34.14a13.21,13.21,0,0,1,1.55.71,3.14,3.14,0,0,1,1,.89,2.24,2.24,0,0,1,.4,1.36,2.38,2.38,0,0,1-1,2,4.28,4.28,0,0,1-2.67.75,7.18,7.18,0,0,1-1.74-.23,10.24,10.24,0,0,1-1.49-.47V238.3h1.1Z"/><path class="cls-1" d="M213.16,241a.75.75,0,0,1-.23-.61v-.58a5.62,5.62,0,0,1-1.4,1,3.74,3.74,0,0,1-1.69.42,2.69,2.69,0,0,1-2.25-.85,4.63,4.63,0,0,1-.66-2.8v-4.94l-1-.27v-.74l2.38-.23h0l.32.21v5.83a6.77,6.77,0,0,0,.14,1.54,1.39,1.39,0,0,0,.51.81,1.8,1.8,0,0,0,1.07.27,2.92,2.92,0,0,0,1.27-.29,4.56,4.56,0,0,0,1-.68v-6.45l-1.23-.27v-.74l2.59-.23h0l.39.21v8.57h1l0,.76-.82.19a4.89,4.89,0,0,1-.81.07A1.14,1.14,0,0,1,213.16,241Z"/><path class="cls-1" d="M216.86,240.15l1-.15v-7.14l-1.23-.31v-.92l2.43-.3.31.22.1.68,0,.54a6,6,0,0,1,1.63-1,4.65,4.65,0,0,1,1.84-.45,3.14,3.14,0,0,1,1.48.3,2,2,0,0,1,.85,1,5.71,5.71,0,0,1,1.52-.85,4.77,4.77,0,0,1,1.83-.4,2.92,2.92,0,0,1,1.65.4,2.1,2.1,0,0,1,.84,1.24,8.42,8.42,0,0,1,.25,2.25V240l1.22.15V241h-4v-.83l1.05-.15v-4.73a6.54,6.54,0,0,0-.15-1.57,1.45,1.45,0,0,0-.54-.88,2,2,0,0,0-1.15-.29,3.39,3.39,0,0,0-1.19.25,4.52,4.52,0,0,0-1.07.59,8.9,8.9,0,0,1,.16,1.88V240l1.2.15V241h-4.11v-.83l1.12-.15v-4.76a7.15,7.15,0,0,0-.13-1.58,1.4,1.4,0,0,0-.48-.85,1.8,1.8,0,0,0-1.09-.28,3.28,3.28,0,0,0-1.3.31,5.36,5.36,0,0,0-1.2.71V240l1.14.15V241h-4Z"/><path class="cls-1" d="M239.62,240.66a3.53,3.53,0,0,1-1.35-1.56,6.12,6.12,0,0,1-.5-2.6,5.88,5.88,0,0,1,.59-2.64,4.63,4.63,0,0,1,1.71-1.88,4.89,4.89,0,0,1,2.63-.69,6.45,6.45,0,0,1,1.58.19V228.3l-1.73-.2v-.73l3.06-.31h0l.37.27v12.79h1v.78c-.37.08-.68.14-1,.18a4.46,4.46,0,0,1-.84.07,1,1,0,0,1-.63-.15.85.85,0,0,1-.18-.65v-.54a3.84,3.84,0,0,1-1.25,1,3.7,3.7,0,0,1-1.68.39A3.58,3.58,0,0,1,239.62,240.66Zm3.79-1a2.42,2.42,0,0,0,.87-.69v-6.22a1.19,1.19,0,0,0-.64-.37,3.36,3.36,0,0,0-1.06-.16,2.57,2.57,0,0,0-2.12,1,5.07,5.07,0,0,0-.79,3.12,4.4,4.4,0,0,0,.7,2.72,2.18,2.18,0,0,0,1.8.88A2.76,2.76,0,0,0,243.41,239.67Z"/><path class="cls-1" d="M249,233.59a4.32,4.32,0,0,1,1.65-1.71,4.4,4.4,0,0,1,2.2-.59,3.9,3.9,0,0,1,3.23,1.36,5.58,5.58,0,0,1,1.08,3.57,5.38,5.38,0,0,1-.63,2.67,4.31,4.31,0,0,1-1.66,1.7,4.39,4.39,0,0,1-2.2.58,3.85,3.85,0,0,1-3.22-1.36,5.58,5.58,0,0,1-1.08-3.57A5.33,5.33,0,0,1,249,233.59Zm5.57,5.64a5.29,5.29,0,0,0,.63-2.87,6.41,6.41,0,0,0-.58-3,1.93,1.93,0,0,0-1.85-1.11,2,2,0,0,0-1.81,1,5.22,5.22,0,0,0-.64,2.87,6.34,6.34,0,0,0,.6,3,2,2,0,0,0,1.85,1.1A2,2,0,0,0,254.58,239.23Z"/><path class="cls-1" d="M260,228.3l-1.37-.19v-.73l2.73-.32h0l.37.26V240l1.45.14V241h-4.59v-.83L260,240Z"/><path class="cls-1" d="M265,233.59a4.34,4.34,0,0,1,1.66-1.71,4.4,4.4,0,0,1,2.2-.59,3.88,3.88,0,0,1,3.22,1.36,5.58,5.58,0,0,1,1.08,3.57,5.38,5.38,0,0,1-.63,2.67,4.29,4.29,0,0,1-1.65,1.7,4.4,4.4,0,0,1-2.21.58,3.86,3.86,0,0,1-3.22-1.36,5.58,5.58,0,0,1-1.08-3.57A5.33,5.33,0,0,1,265,233.59Zm5.58,5.64a5.29,5.29,0,0,0,.63-2.87,6.54,6.54,0,0,0-.58-3,1.94,1.94,0,0,0-1.85-1.11,2,2,0,0,0-1.81,1,5.22,5.22,0,0,0-.64,2.87,6.47,6.47,0,0,0,.59,3,2,2,0,0,0,1.86,1.1A2,2,0,0,0,270.58,239.23Z"/><path class="cls-1" d="M274.74,240.15l1.28-.1v-7.19l-1.23-.31v-.92l2.35-.3h0l.38.3v.31l-.05,1.33h.05a4,4,0,0,1,.61-.75,4.5,4.5,0,0,1,1.14-.84,3,3,0,0,1,1.51-.39,1.46,1.46,0,0,1,.56.09v1.9a1.43,1.43,0,0,0-.38-.16,2.16,2.16,0,0,0-.59-.08,4.35,4.35,0,0,0-2.61.87V240l2.16.14V241h-5.21Z"/><path class="cls-1" d="M288.1,239.62a1.48,1.48,0,0,0,.73.46,3.22,3.22,0,0,0,1.16.21,2.24,2.24,0,0,0,1.43-.38,1.25,1.25,0,0,0,.46-1,1.18,1.18,0,0,0-.29-.79,2.53,2.53,0,0,0-.81-.61c-.34-.17-.84-.39-1.49-.64a4.6,4.6,0,0,1-1.91-1.18,2.64,2.64,0,0,1-.6-1.81,2,2,0,0,1,.45-1.31,3,3,0,0,1,1.24-.87,4.71,4.71,0,0,1,1.76-.32,6.91,6.91,0,0,1,1.37.12,8.36,8.36,0,0,1,.94.24l.48.15V234h-1l-.34-1.26a.9.9,0,0,0-.54-.34,3.12,3.12,0,0,0-1-.15,2.08,2.08,0,0,0-1.23.34,1.09,1.09,0,0,0-.47.92,1.33,1.33,0,0,0,.25.84,1.91,1.91,0,0,0,.62.54c.25.13.59.29,1,.47l.34.14a13,13,0,0,1,1.54.71,3.29,3.29,0,0,1,1,.89,2.24,2.24,0,0,1,.4,1.36,2.41,2.41,0,0,1-1,2,4.29,4.29,0,0,1-2.68.75,7.31,7.31,0,0,1-1.74-.23,10.65,10.65,0,0,1-1.49-.47V238.3h1.11Z"/><path class="cls-1" d="M296.43,232.86l-1.29-.31v-.9l2.64-.32h0l.39.3V240l1.36.14V241h-4.5v-.83l1.37-.15Zm-.13-3.32a1.12,1.12,0,0,1-.27-.78,1.28,1.28,0,0,1,.33-.9,1.17,1.17,0,0,1,.91-.36,1.07,1.07,0,0,1,.85.31,1.12,1.12,0,0,1,.27.78,1.26,1.26,0,0,1-.33.92,1.22,1.22,0,0,1-.93.34h0A1,1,0,0,1,296.3,229.54Z"/><path class="cls-1" d="M302.23,240.71a2,2,0,0,1-.47-1.51v-6.53h-1.23v-.76l.48-.12a2,2,0,0,0,.52-.19A1,1,0,0,0,302,231a8,8,0,0,0,.32-1c.13-.48.2-.76.22-.85h1l0,2.45h2.84v1.12h-2.84v5.22a10.33,10.33,0,0,0,.06,1.36.69.69,0,0,0,.25.51,1.39,1.39,0,0,0,.68.12,4.84,4.84,0,0,0,1-.12,4.06,4.06,0,0,0,.86-.26l.25.77a4.62,4.62,0,0,1-1.32.59,5.27,5.27,0,0,1-1.65.29A2,2,0,0,1,302.23,240.71Z"/><path class="cls-1" d="M313.31,236.08a10.17,10.17,0,0,1,4.05-.81v-.48a3.76,3.76,0,0,0-.17-1.25,1.15,1.15,0,0,0-.59-.67,2.5,2.5,0,0,0-1.18-.22,4.71,4.71,0,0,0-1.55.25,11,11,0,0,0-1.37.6l-.43-.88a4.91,4.91,0,0,1,.82-.49,8.09,8.09,0,0,1,1.38-.55,5.28,5.28,0,0,1,1.56-.24,4.54,4.54,0,0,1,1.91.34,2,2,0,0,1,1,1.06,5.25,5.25,0,0,1,.3,1.95v5.46h1v.75c-.22.06-.51.11-.85.17a6.6,6.6,0,0,1-.91.08,1,1,0,0,1-.65-.14.88.88,0,0,1-.17-.64v-.56a6.28,6.28,0,0,1-1.25.94,3.31,3.31,0,0,1-1.67.42,3,3,0,0,1-2-.71,2.55,2.55,0,0,1-.8-2A2.47,2.47,0,0,1,313.31,236.08Zm3,3.66a5.56,5.56,0,0,0,1.05-.64v-2.93a5.53,5.53,0,0,0-2.8.57,1.72,1.72,0,0,0-.94,1.49,1.8,1.8,0,0,0,.45,1.35,1.68,1.68,0,0,0,1.22.43A2.5,2.5,0,0,0,316.31,239.74Z"/><path class="cls-1" d="M321.24,240.15l1-.15v-7.14l-1.22-.31v-.92l2.43-.3.31.22.1.68,0,.54a6,6,0,0,1,1.63-1,4.65,4.65,0,0,1,1.84-.45,3.16,3.16,0,0,1,1.48.3,2,2,0,0,1,.85,1,5.71,5.71,0,0,1,1.52-.85,4.77,4.77,0,0,1,1.83-.4,2.92,2.92,0,0,1,1.65.4,2.19,2.19,0,0,1,.84,1.24,8.48,8.48,0,0,1,.24,2.25V240l1.23.15V241h-4.05v-.83L334,240v-4.73a6.54,6.54,0,0,0-.15-1.57,1.5,1.5,0,0,0-.54-.88,2,2,0,0,0-1.15-.29,3.39,3.39,0,0,0-1.19.25,4.33,4.33,0,0,0-1.07.59,9,9,0,0,1,.15,1.88V240l1.21.15V241h-4.11v-.83l1.12-.15v-4.76a7.15,7.15,0,0,0-.13-1.58,1.45,1.45,0,0,0-.48-.85,1.82,1.82,0,0,0-1.09-.28,3.28,3.28,0,0,0-1.3.31,5.36,5.36,0,0,0-1.2.71V240l1.14.15V241h-4Z"/><path class="cls-1" d="M339.21,239.83a5.57,5.57,0,0,1-1.08-3.59,5.66,5.66,0,0,1,.57-2.6,4,4,0,0,1,1.57-1.73,4.33,4.33,0,0,1,2.3-.62,3.31,3.31,0,0,1,2.46.88,3.55,3.55,0,0,1,.92,2.51,8,8,0,0,1-.11,1.58H340a4.65,4.65,0,0,0,.78,2.71,2.49,2.49,0,0,0,2.12,1,4.57,4.57,0,0,0,1.42-.25,3.33,3.33,0,0,0,1.15-.59l.32.75a3.93,3.93,0,0,1-1.46.89,5.38,5.38,0,0,1-2,.37A3.81,3.81,0,0,1,339.21,239.83Zm4.87-4.47a4.52,4.52,0,0,0,.06-.74,3.15,3.15,0,0,0-.47-1.74,1.63,1.63,0,0,0-1.42-.63,1.91,1.91,0,0,0-1.57.71,4.18,4.18,0,0,0-.68,2.4Z"/><path class="cls-1" d="M348.88,240.71a2,2,0,0,1-.48-1.51v-6.53h-1.22v-.76l.47-.12a2,2,0,0,0,.53-.19,1.09,1.09,0,0,0,.43-.61,8,8,0,0,0,.32-1c.12-.48.2-.76.22-.85h1l0,2.45H353v1.12h-2.84v5.22a10.33,10.33,0,0,0,.06,1.36.69.69,0,0,0,.25.51,1.37,1.37,0,0,0,.67.12,4.85,4.85,0,0,0,1-.12,4,4,0,0,0,.85-.26l.26.77a4.62,4.62,0,0,1-1.32.59,5.33,5.33,0,0,1-1.66.29A2,2,0,0,1,348.88,240.71Z"/><path class="cls-1" d="M357.45,239a2.62,2.62,0,0,1,.37,1.5,5.6,5.6,0,0,1-.31,1.87,5.67,5.67,0,0,1-.76,1.54,3.25,3.25,0,0,1-.9.89h0l-.58-.41v-.18a2.92,2.92,0,0,0,.69-1.19,4.84,4.84,0,0,0,.35-1.72.87.87,0,0,0-.09-.42,3.21,3.21,0,0,0-.3-.38,2.3,2.3,0,0,1-.36-.48,1.21,1.21,0,0,1-.12-.59,1,1,0,0,1,1-1h.08A1.13,1.13,0,0,1,357.45,239Z"/><path class="cls-1" d="M364.41,233.78A4.34,4.34,0,0,1,366,232a4.87,4.87,0,0,1,2.59-.67,5.1,5.1,0,0,1,1.26.14c.35.09.77.21,1.26.37l-.07,2.62H370l-.38-1.73q-.11-.48-1.29-.48a2.2,2.2,0,0,0-1.88,1,4.63,4.63,0,0,0-.69,2.73,5,5,0,0,0,.78,3,2.37,2.37,0,0,0,2,1.05,4.24,4.24,0,0,0,1.35-.22,5.12,5.12,0,0,0,1.1-.53l.32.68a4.14,4.14,0,0,1-1.35.86,4.67,4.67,0,0,1-1.81.38,4.18,4.18,0,0,1-2.35-.63,3.82,3.82,0,0,1-1.45-1.72,6.21,6.21,0,0,1-.48-2.49A5.72,5.72,0,0,1,364.41,233.78Z"/><path class="cls-1" d="M373.41,233.59a4.38,4.38,0,0,1,3.86-2.3,3.88,3.88,0,0,1,3.22,1.36,5.58,5.58,0,0,1,1.08,3.57,5.38,5.38,0,0,1-.63,2.67,4.25,4.25,0,0,1-1.66,1.7,4.36,4.36,0,0,1-2.2.58,3.85,3.85,0,0,1-3.22-1.36,5.58,5.58,0,0,1-1.08-3.57A5.33,5.33,0,0,1,373.41,233.59Zm5.58,5.64a5.39,5.39,0,0,0,.62-2.87,6.55,6.55,0,0,0-.57-3,2,2,0,0,0-1.86-1.11,2,2,0,0,0-1.81,1,5.31,5.31,0,0,0-.63,2.87,6.35,6.35,0,0,0,.59,3,2,2,0,0,0,1.85,1.1A2,2,0,0,0,379,239.23Z"/><path class="cls-1" d="M384.14,232.86l-1.23-.31v-.92l2.43-.3h.05l.36.3v.72l0,.41a5.9,5.9,0,0,1,1.62-1,4.68,4.68,0,0,1,1.92-.44,2.83,2.83,0,0,1,1.66.41,2.15,2.15,0,0,1,.82,1.25,8.51,8.51,0,0,1,.24,2.26V240l1.19.12V241h-4v-.83l1.06-.14v-4.77a7.17,7.17,0,0,0-.14-1.58,1.46,1.46,0,0,0-.51-.85,1.84,1.84,0,0,0-1.09-.28,3.36,3.36,0,0,0-1.31.31,6.18,6.18,0,0,0-1.24.71V240l1.16.15V241h-4v-.83l1.08-.15Z"/><path class="cls-1" d="M396,239.62a1.48,1.48,0,0,0,.73.46,3.22,3.22,0,0,0,1.16.21,2.24,2.24,0,0,0,1.43-.38,1.25,1.25,0,0,0,.46-1,1.18,1.18,0,0,0-.29-.79,2.53,2.53,0,0,0-.81-.61c-.34-.17-.84-.39-1.49-.64a4.6,4.6,0,0,1-1.91-1.18,2.64,2.64,0,0,1-.6-1.81,2,2,0,0,1,.45-1.31,3,3,0,0,1,1.24-.87,4.71,4.71,0,0,1,1.76-.32,6.91,6.91,0,0,1,1.37.12,8.36,8.36,0,0,1,.94.24l.48.15V234h-1l-.34-1.26a.9.9,0,0,0-.54-.34,3.12,3.12,0,0,0-1-.15,2.08,2.08,0,0,0-1.23.34,1.09,1.09,0,0,0-.47.92,1.33,1.33,0,0,0,.25.84,1.91,1.91,0,0,0,.62.54c.25.13.59.29,1,.47l.34.14a13,13,0,0,1,1.54.71,3.29,3.29,0,0,1,1,.89,2.24,2.24,0,0,1,.4,1.36,2.41,2.41,0,0,1-1,2,4.29,4.29,0,0,1-2.68.75,7.31,7.31,0,0,1-1.74-.23,10.65,10.65,0,0,1-1.49-.47V238.3h1.11Z"/><path class="cls-1" d="M404,239.83a5.57,5.57,0,0,1-1.08-3.59,5.66,5.66,0,0,1,.57-2.6,4,4,0,0,1,1.57-1.73,4.33,4.33,0,0,1,2.3-.62,3.31,3.31,0,0,1,2.46.88,3.55,3.55,0,0,1,.92,2.51,8.9,8.9,0,0,1-.11,1.58h-5.85a4.65,4.65,0,0,0,.78,2.71,2.49,2.49,0,0,0,2.12,1,4.57,4.57,0,0,0,1.42-.25,3.33,3.33,0,0,0,1.15-.59l.32.75a3.93,3.93,0,0,1-1.46.89,5.38,5.38,0,0,1-2,.37A3.81,3.81,0,0,1,404,239.83Zm4.87-4.47a4.52,4.52,0,0,0,.06-.74,3.15,3.15,0,0,0-.47-1.74,1.63,1.63,0,0,0-1.42-.63,1.91,1.91,0,0,0-1.57.71,4.11,4.11,0,0,0-.68,2.4Z"/><path class="cls-1" d="M412.58,233.78a4.37,4.37,0,0,1,1.64-1.82,4.87,4.87,0,0,1,2.59-.67,5.1,5.1,0,0,1,1.26.14c.35.09.77.21,1.26.37l-.07,2.62h-1.11l-.37-1.73q-.11-.48-1.29-.48a2.19,2.19,0,0,0-1.88,1,4.63,4.63,0,0,0-.69,2.73,5.12,5.12,0,0,0,.77,3,2.4,2.4,0,0,0,2,1.05,4.34,4.34,0,0,0,1.35-.22,5.36,5.36,0,0,0,1.1-.53l.32.68a4.25,4.25,0,0,1-1.35.86,4.67,4.67,0,0,1-1.81.38,4.22,4.22,0,0,1-2.36-.63,3.86,3.86,0,0,1-1.44-1.72,6,6,0,0,1-.49-2.49A5.85,5.85,0,0,1,412.58,233.78Z"/><path class="cls-1" d="M422.42,240.71a2,2,0,0,1-.48-1.51v-6.53h-1.22v-.76l.48-.12a2,2,0,0,0,.52-.19,1,1,0,0,0,.43-.61,8,8,0,0,0,.32-1c.12-.48.2-.76.22-.85h1l0,2.45h2.84v1.12h-2.84v5.22a10.33,10.33,0,0,0,.06,1.36.69.69,0,0,0,.25.51,1.37,1.37,0,0,0,.67.12,4.85,4.85,0,0,0,1-.12,4,4,0,0,0,.85-.26l.26.77a4.62,4.62,0,0,1-1.32.59,5.28,5.28,0,0,1-1.66.29A2,2,0,0,1,422.42,240.71Z"/><path class="cls-1" d="M428.92,239.83a5.57,5.57,0,0,1-1.08-3.59,5.79,5.79,0,0,1,.56-2.6,4.08,4.08,0,0,1,1.58-1.73,4.33,4.33,0,0,1,2.3-.62,3.32,3.32,0,0,1,2.46.88,3.55,3.55,0,0,1,.92,2.51,7.89,7.89,0,0,1-.12,1.58H429.7a4.65,4.65,0,0,0,.78,2.71,2.48,2.48,0,0,0,2.12,1,4.57,4.57,0,0,0,1.42-.25,3.42,3.42,0,0,0,1.15-.59l.32.75a4,4,0,0,1-1.46.89,5.42,5.42,0,0,1-2,.37A3.81,3.81,0,0,1,428.92,239.83Zm4.87-4.47a4.53,4.53,0,0,0,0-.74,3.07,3.07,0,0,0-.46-1.74,1.63,1.63,0,0,0-1.42-.63,1.93,1.93,0,0,0-1.58.71,4.19,4.19,0,0,0-.67,2.4Z"/><path class="cls-1" d="M438.59,240.71a2,2,0,0,1-.48-1.51v-6.53h-1.22v-.76l.47-.12a2.11,2.11,0,0,0,.53-.19,1,1,0,0,0,.42-.61,9.49,9.49,0,0,0,.33-1c.12-.48.2-.76.22-.85h1l0,2.45h2.83v1.12H439.9v5.22a10.33,10.33,0,0,0,.06,1.36.65.65,0,0,0,.25.51,1.35,1.35,0,0,0,.67.12,4.77,4.77,0,0,0,1-.12,3.88,3.88,0,0,0,.86-.26l.26.77a4.9,4.9,0,0,1-1.32.59,5.33,5.33,0,0,1-1.66.29A2,2,0,0,1,438.59,240.71Z"/><path class="cls-1" d="M451.07,241a.75.75,0,0,1-.23-.61v-.58a5.62,5.62,0,0,1-1.4,1,3.74,3.74,0,0,1-1.69.42,2.66,2.66,0,0,1-2.24-.85,4.55,4.55,0,0,1-.67-2.8v-4.94l-.95-.27v-.74l2.38-.23h0l.32.21v5.83a6.77,6.77,0,0,0,.14,1.54,1.39,1.39,0,0,0,.51.81,1.8,1.8,0,0,0,1.07.27,2.89,2.89,0,0,0,1.27-.29,4.56,4.56,0,0,0,1-.68v-6.45l-1.22-.27v-.74l2.58-.23h0l.39.21v8.57h1l0,.76-.82.19a4.89,4.89,0,0,1-.81.07A1.16,1.16,0,0,1,451.07,241Z"/><path class="cls-1" d="M455.83,239.83a5.57,5.57,0,0,1-1.08-3.59,5.79,5.79,0,0,1,.56-2.6,4.08,4.08,0,0,1,1.58-1.73,4.33,4.33,0,0,1,2.3-.62,3.32,3.32,0,0,1,2.46.88,3.55,3.55,0,0,1,.92,2.51,7.89,7.89,0,0,1-.12,1.58h-5.84a4.65,4.65,0,0,0,.78,2.71,2.49,2.49,0,0,0,2.12,1,4.57,4.57,0,0,0,1.42-.25,3.33,3.33,0,0,0,1.15-.59l.32.75a4,4,0,0,1-1.46.89,5.42,5.42,0,0,1-2,.37A3.81,3.81,0,0,1,455.83,239.83Zm4.87-4.47a4.53,4.53,0,0,0,.05-.74,3.07,3.07,0,0,0-.46-1.74,1.63,1.63,0,0,0-1.42-.63,1.94,1.94,0,0,0-1.58.71,4.19,4.19,0,0,0-.67,2.4Z"/><path class="cls-1" d="M464.07,240.15l1.27-.1v-7.19l-1.22-.31v-.92l2.35-.3h0l.37.3v.31l-.05,1.33h.05a4.13,4.13,0,0,1,.62-.75,4.43,4.43,0,0,1,1.13-.84,3.07,3.07,0,0,1,1.52-.39,1.53,1.53,0,0,1,.56.09v1.9a1.59,1.59,0,0,0-.38-.16,2.16,2.16,0,0,0-.59-.08,4.41,4.41,0,0,0-2.62.87V240l2.16.14V241h-5.2Z"/><path class="cls-1" d="M112.85,262.08a10.17,10.17,0,0,1,4.05-.81v-.48a3.76,3.76,0,0,0-.17-1.25,1.15,1.15,0,0,0-.59-.67,2.5,2.5,0,0,0-1.18-.22,4.66,4.66,0,0,0-1.55.25,11,11,0,0,0-1.37.6l-.43-.88a4.91,4.91,0,0,1,.82-.49,8.09,8.09,0,0,1,1.38-.55,5.28,5.28,0,0,1,1.56-.24,4.54,4.54,0,0,1,1.91.34,1.94,1.94,0,0,1,1,1.06,5,5,0,0,1,.31,1.95v5.46h1v.75c-.22.06-.51.11-.85.17a6.6,6.6,0,0,1-.91.08,1,1,0,0,1-.65-.14.88.88,0,0,1-.17-.64v-.56a6.28,6.28,0,0,1-1.25.94,3.31,3.31,0,0,1-1.67.42,3,3,0,0,1-2-.71,2.55,2.55,0,0,1-.8-2A2.47,2.47,0,0,1,112.85,262.08Zm3,3.66a5.56,5.56,0,0,0,1.05-.64v-2.93a5.53,5.53,0,0,0-2.8.57,1.72,1.72,0,0,0-.94,1.49,1.8,1.8,0,0,0,.45,1.35,1.68,1.68,0,0,0,1.22.43A2.5,2.5,0,0,0,115.85,265.74Z"/><path class="cls-1" d="M122.6,266.66a3.55,3.55,0,0,1-1.36-1.56,6.12,6.12,0,0,1-.5-2.6,5.76,5.76,0,0,1,.6-2.64,4.5,4.5,0,0,1,1.71-1.88,4.85,4.85,0,0,1,2.62-.69,6.39,6.39,0,0,1,1.58.19V254.3l-1.73-.2v-.73l3.06-.31h0l.37.27v12.79h1v.78c-.36.08-.68.14-.94.18a4.61,4.61,0,0,1-.84.07,1,1,0,0,1-.63-.15c-.13-.1-.19-.32-.19-.65v-.54a3.74,3.74,0,0,1-1.25,1,3.66,3.66,0,0,1-1.67.39A3.55,3.55,0,0,1,122.6,266.66Zm3.79-1a2.46,2.46,0,0,0,.86-.69v-6.22a1.19,1.19,0,0,0-.63-.37,3.42,3.42,0,0,0-1.07-.16,2.54,2.54,0,0,0-2.11,1,5,5,0,0,0-.79,3.12,4.41,4.41,0,0,0,.69,2.72,2.2,2.2,0,0,0,1.81.88A2.79,2.79,0,0,0,126.39,265.67Z"/><path class="cls-1" d="M132.68,258.86l-1.3-.31v-.9l2.64-.32h0l.39.3V266l1.36.14V267h-4.5v-.83l1.38-.15Zm-.14-3.32a1.12,1.12,0,0,1-.27-.78,1.28,1.28,0,0,1,.33-.9,1.17,1.17,0,0,1,.91-.36,1.07,1.07,0,0,1,.85.31,1.12,1.12,0,0,1,.27.78,1.26,1.26,0,0,1-.33.92,1.22,1.22,0,0,1-.93.34h0A1,1,0,0,1,132.54,255.54Z"/><path class="cls-1" d="M145.61,264.58a4.51,4.51,0,0,1-1.7,1.89,4.68,4.68,0,0,1-2.58.7,5.78,5.78,0,0,1-.89-.07,3.61,3.61,0,0,1-.76-.17l0,1.43v1.72l1.77.18v.84h-4.74v-.84l1.22-.18V258.86l-1.24-.31v-.92l2.41-.3h0l.35.3v1a4.62,4.62,0,0,1,1.27-1,3.63,3.63,0,0,1,1.69-.39,3.59,3.59,0,0,1,1.85.5,3.46,3.46,0,0,1,1.35,1.53,5.89,5.89,0,0,1,.51,2.61A5.83,5.83,0,0,1,145.61,264.58Zm-5-5.82a2.75,2.75,0,0,0-.87.59v6.41a1,1,0,0,0,.6.36,3.33,3.33,0,0,0,1.07.17,2.56,2.56,0,0,0,2.11-1,5,5,0,0,0,.81-3.13,4.44,4.44,0,0,0-.7-2.74,2.23,2.23,0,0,0-1.82-.9A2.58,2.58,0,0,0,140.6,258.76Z"/><path class="cls-1" d="M149,258.86l-1.29-.31v-.9l2.64-.32h0l.39.3V266l1.36.14V267h-4.5v-.83L149,266Zm-.13-3.32a1.08,1.08,0,0,1-.28-.78,1.25,1.25,0,0,1,.34-.9,1.17,1.17,0,0,1,.91-.36,1.08,1.08,0,0,1,.85.31,1.12,1.12,0,0,1,.27.78,1.26,1.26,0,0,1-.33.92,1.22,1.22,0,0,1-.93.34h0A1,1,0,0,1,148.88,255.54Z"/><path class="cls-1" d="M154.93,265.62a1.39,1.39,0,0,0,.72.46,3.26,3.26,0,0,0,1.16.21,2.22,2.22,0,0,0,1.43-.38,1.25,1.25,0,0,0,.46-1,1.14,1.14,0,0,0-.29-.79,2.59,2.59,0,0,0-.8-.61c-.35-.17-.85-.39-1.49-.64a4.6,4.6,0,0,1-1.91-1.18,2.59,2.59,0,0,1-.61-1.81,2,2,0,0,1,.45-1.31,3,3,0,0,1,1.24-.87,4.75,4.75,0,0,1,1.76-.32,6.91,6.91,0,0,1,1.37.12,8.61,8.61,0,0,1,1,.24l.47.15V260h-1l-.34-1.26a.86.86,0,0,0-.54-.34,3.07,3.07,0,0,0-1-.15,2.08,2.08,0,0,0-1.23.34,1.09,1.09,0,0,0-.47.92,1.4,1.4,0,0,0,.25.84,1.91,1.91,0,0,0,.62.54c.25.13.59.29,1,.47l.34.14a13.21,13.21,0,0,1,1.55.71,3.25,3.25,0,0,1,1,.89,2.24,2.24,0,0,1,.4,1.36,2.38,2.38,0,0,1-1,2,4.28,4.28,0,0,1-2.67.75,7.32,7.32,0,0,1-1.75-.23,10.47,10.47,0,0,1-1.48-.47V264.3h1.1Z"/><path class="cls-1" d="M162.28,259.78a4.34,4.34,0,0,1,1.63-1.82,4.89,4.89,0,0,1,2.59-.67,5.1,5.1,0,0,1,1.26.14c.35.09.77.21,1.26.37l-.07,2.62h-1.1l-.38-1.73q-.09-.48-1.29-.48a2.2,2.2,0,0,0-1.88,1,4.63,4.63,0,0,0-.68,2.73,5,5,0,0,0,.77,3.05,2.39,2.39,0,0,0,2,1.05,4.24,4.24,0,0,0,1.35-.22,5.12,5.12,0,0,0,1.1-.53l.32.68a4,4,0,0,1-1.35.86,4.63,4.63,0,0,1-1.81.38,4.18,4.18,0,0,1-2.35-.63,3.94,3.94,0,0,1-1.45-1.72,6.21,6.21,0,0,1-.48-2.49A5.72,5.72,0,0,1,162.28,259.78Z"/><path class="cls-1" d="M172,258.86l-1.29-.31v-.9l2.63-.32h0l.39.3V266l1.36.14V267H170.6v-.83L172,266Zm-.14-3.32a1.12,1.12,0,0,1-.27-.78,1.28,1.28,0,0,1,.33-.9,1.18,1.18,0,0,1,.91-.36,1.05,1.05,0,0,1,.85.31,1.12,1.12,0,0,1,.27.78,1.26,1.26,0,0,1-.33.92,1.21,1.21,0,0,1-.92.34h0A1,1,0,0,1,171.84,255.54Z"/><path class="cls-1" d="M177.33,258.86l-1.22-.31v-.92l2.43-.3h.05l.36.3v.72l0,.41a5.9,5.9,0,0,1,1.62-1,4.64,4.64,0,0,1,1.92-.44,2.8,2.8,0,0,1,1.65.41A2.11,2.11,0,0,1,185,259a8.51,8.51,0,0,1,.24,2.26V266l1.19.12V267h-4v-.83l1.05-.14v-4.77a7.27,7.27,0,0,0-.13-1.58,1.46,1.46,0,0,0-.51-.85,1.86,1.86,0,0,0-1.09-.28,3.32,3.32,0,0,0-1.31.31,5.91,5.91,0,0,0-1.24.71V266l1.15.15V267h-4v-.83l1.07-.15Z"/><path class="cls-1" d="M188.51,270.88a2.19,2.19,0,0,1-1-1.89,2.28,2.28,0,0,1,.47-1.38,3.14,3.14,0,0,1,1.11-.95,1.51,1.51,0,0,1-.78-1.43,2,2,0,0,1,.36-1.15,2.42,2.42,0,0,1,.93-.84,2.88,2.88,0,0,1-1.3-1.07,3,3,0,0,1-.45-1.65,2.74,2.74,0,0,1,.56-1.71,3.53,3.53,0,0,1,1.46-1.13,4.82,4.82,0,0,1,1.93-.39,4.4,4.4,0,0,1,2.68.72,2.63,2.63,0,0,1,.79-.5,2.8,2.8,0,0,1,1.12-.23H197v1.49h-1.87a2.57,2.57,0,0,1,.41,1.46A3.14,3.14,0,0,1,195,262a3.26,3.26,0,0,1-1.39,1.2,4.71,4.71,0,0,1-2,.42,5.3,5.3,0,0,1-1.31-.15,2.5,2.5,0,0,0-.39.53,1.21,1.21,0,0,0-.15.56.88.88,0,0,0,.41.84,3.29,3.29,0,0,0,1.46.23h1.92a3.93,3.93,0,0,1,2.45.63,2.14,2.14,0,0,1,.8,1.78,2.64,2.64,0,0,1-.7,1.78,4.75,4.75,0,0,1-1.88,1.28,6.93,6.93,0,0,1-2.56.46A5.57,5.57,0,0,1,188.51,270.88Zm4.88-.54a2.9,2.9,0,0,0,1.2-.73,1.61,1.61,0,0,0,.46-1.13,1.38,1.38,0,0,0-.41-1.11,2.5,2.5,0,0,0-1.58-.35h-2a5,5,0,0,1-1.07-.09,2.51,2.51,0,0,0-.7,1.72,1.8,1.8,0,0,0,.58,1.44,3,3,0,0,0,2,.5A5.06,5.06,0,0,0,193.39,270.34Zm.33-9.94a2.42,2.42,0,0,0-.5-1.67,2,2,0,0,0-1.51-.54,2.06,2.06,0,0,0-1.47.52,2.19,2.19,0,0,0-.55,1.66,2.58,2.58,0,0,0,.52,1.7,1.92,1.92,0,0,0,1.57.63C193.07,262.7,193.72,261.93,193.72,260.4Z"/><path class="cls-1" d="M203,265.83a5.57,5.57,0,0,1-1.08-3.59,5.66,5.66,0,0,1,.57-2.6,4,4,0,0,1,1.57-1.73,4.33,4.33,0,0,1,2.3-.62,3.31,3.31,0,0,1,2.46.88,3.55,3.55,0,0,1,.92,2.51,8.9,8.9,0,0,1-.11,1.58h-5.85a4.65,4.65,0,0,0,.78,2.71,2.49,2.49,0,0,0,2.12,1,4.57,4.57,0,0,0,1.42-.25,3.33,3.33,0,0,0,1.15-.59l.32.75a3.93,3.93,0,0,1-1.46.89,5.38,5.38,0,0,1-2,.37A3.81,3.81,0,0,1,203,265.83Zm4.87-4.47a4.52,4.52,0,0,0,.06-.74,3.15,3.15,0,0,0-.47-1.74,1.63,1.63,0,0,0-1.42-.63,1.91,1.91,0,0,0-1.57.71,4.11,4.11,0,0,0-.68,2.4Z"/><path class="cls-1" d="M212.44,254.3l-1.38-.19v-.73l2.74-.32h0l.38.26V266l1.44.14V267h-4.59v-.83l1.38-.15Z"/><path class="cls-1" d="M218.18,258.86l-1.29-.31v-.9l2.64-.32h0l.39.3V266l1.36.14V267h-4.5v-.83l1.37-.15Zm-.13-3.32a1.12,1.12,0,0,1-.27-.78,1.28,1.28,0,0,1,.33-.9,1.17,1.17,0,0,1,.91-.36,1.07,1.07,0,0,1,.85.31,1.12,1.12,0,0,1,.27.78,1.26,1.26,0,0,1-.33.92,1.22,1.22,0,0,1-.93.34h0A1,1,0,0,1,218.05,255.54Z"/><path class="cls-1" d="M224,266.71a2,2,0,0,1-.48-1.51v-6.53h-1.22v-.76l.48-.12a2,2,0,0,0,.52-.19,1,1,0,0,0,.43-.61,8,8,0,0,0,.32-1c.13-.48.2-.76.22-.85h1l0,2.45h2.84v1.12h-2.84v5.22a10.33,10.33,0,0,0,.06,1.36.69.69,0,0,0,.25.51,1.37,1.37,0,0,0,.67.12,4.85,4.85,0,0,0,1-.12,4,4,0,0,0,.85-.26l.26.77a4.62,4.62,0,0,1-1.32.59,5.28,5.28,0,0,1-1.66.29A2,2,0,0,1,224,266.71Z"/><path class="cls-1" d="M232.55,265a2.62,2.62,0,0,1,.37,1.5,5.86,5.86,0,0,1-.3,1.87,6,6,0,0,1-.77,1.54,3.25,3.25,0,0,1-.9.89h0l-.58-.41v-.18A2.92,2.92,0,0,0,231,269a4.63,4.63,0,0,0,.35-1.72.87.87,0,0,0-.09-.42,2.42,2.42,0,0,0-.3-.38,2.3,2.3,0,0,1-.36-.48,1.21,1.21,0,0,1-.12-.59,1,1,0,0,1,1-1h.09A1.12,1.12,0,0,1,232.55,265Z"/><path class="cls-1" d="M240.74,265.62a1.44,1.44,0,0,0,.72.46,3.28,3.28,0,0,0,1.17.21,2.26,2.26,0,0,0,1.43-.38,1.28,1.28,0,0,0,.46-1,1.18,1.18,0,0,0-.29-.79,2.77,2.77,0,0,0-.81-.61c-.35-.17-.84-.39-1.49-.64a4.6,4.6,0,0,1-1.91-1.18,2.64,2.64,0,0,1-.6-1.81,2,2,0,0,1,.45-1.31,3,3,0,0,1,1.24-.87,4.68,4.68,0,0,1,1.76-.32,6.81,6.81,0,0,1,1.36.12,8.06,8.06,0,0,1,1,.24l.47.15V260h-1l-.34-1.26a.89.89,0,0,0-.55-.34,3,3,0,0,0-1-.15,2.08,2.08,0,0,0-1.23.34,1.06,1.06,0,0,0-.47.92,1.39,1.39,0,0,0,.24.84,2.14,2.14,0,0,0,.62.54c.25.13.59.29,1,.47l.34.14a13.21,13.21,0,0,1,1.55.71,3.29,3.29,0,0,1,1,.89,2.3,2.3,0,0,1,.4,1.36,2.41,2.41,0,0,1-1,2,4.31,4.31,0,0,1-2.68.75,7.18,7.18,0,0,1-1.74-.23,10.65,10.65,0,0,1-1.49-.47V264.3h1.11Z"/><path class="cls-1" d="M248.79,265.83a5.57,5.57,0,0,1-1.08-3.59,5.79,5.79,0,0,1,.56-2.6,4.13,4.13,0,0,1,1.57-1.73,4.39,4.39,0,0,1,2.31-.62,3.28,3.28,0,0,1,2.45.88,3.51,3.51,0,0,1,.93,2.51,7.89,7.89,0,0,1-.12,1.58h-5.85a4.73,4.73,0,0,0,.79,2.71,2.48,2.48,0,0,0,2.12,1,4.62,4.62,0,0,0,1.42-.25,3.42,3.42,0,0,0,1.15-.59l.32.75a4,4,0,0,1-1.46.89,5.42,5.42,0,0,1-2,.37A3.81,3.81,0,0,1,248.79,265.83Zm4.87-4.47a4.53,4.53,0,0,0,.05-.74,3.15,3.15,0,0,0-.46-1.74,1.65,1.65,0,0,0-1.42-.63,1.93,1.93,0,0,0-1.58.71,4.19,4.19,0,0,0-.67,2.4Z"/><path class="cls-1" d="M258.8,266.66a3.55,3.55,0,0,1-1.36-1.56,6.12,6.12,0,0,1-.5-2.6,5.76,5.76,0,0,1,.6-2.64,4.5,4.5,0,0,1,1.71-1.88,4.85,4.85,0,0,1,2.62-.69,6.39,6.39,0,0,1,1.58.19V254.3l-1.73-.2v-.73l3.06-.31h.05l.37.27v12.79h1v.78c-.36.08-.68.14-.94.18a4.61,4.61,0,0,1-.84.07,1,1,0,0,1-.63-.15c-.13-.1-.19-.32-.19-.65v-.54a3.74,3.74,0,0,1-1.25,1,3.66,3.66,0,0,1-1.67.39A3.55,3.55,0,0,1,258.8,266.66Zm3.79-1a2.46,2.46,0,0,0,.86-.69v-6.22a1.19,1.19,0,0,0-.63-.37,3.42,3.42,0,0,0-1.07-.16,2.54,2.54,0,0,0-2.11,1,5,5,0,0,0-.79,3.12,4.41,4.41,0,0,0,.69,2.72,2.2,2.2,0,0,0,1.81.88A2.79,2.79,0,0,0,262.59,265.67Z"/><path class="cls-1" d="M273.38,266.66A3.47,3.47,0,0,1,272,265.1a6,6,0,0,1-.5-2.6,5.88,5.88,0,0,1,.59-2.64,4.63,4.63,0,0,1,1.71-1.88,4.89,4.89,0,0,1,2.63-.69,6.45,6.45,0,0,1,1.58.19V254.3l-1.73-.2v-.73l3.05-.31h.06l.37.27v12.79h1v.78c-.37.08-.68.14-.95.18a4.46,4.46,0,0,1-.84.07,1,1,0,0,1-.63-.15.85.85,0,0,1-.19-.65v-.54a3.82,3.82,0,0,1-2.92,1.36A3.58,3.58,0,0,1,273.38,266.66Zm3.79-1A2.42,2.42,0,0,0,278,265v-6.22a1.19,1.19,0,0,0-.64-.37,3.36,3.36,0,0,0-1.06-.16,2.57,2.57,0,0,0-2.12,1,5.07,5.07,0,0,0-.79,3.12,4.34,4.34,0,0,0,.7,2.72,2.17,2.17,0,0,0,1.8.88A2.76,2.76,0,0,0,277.17,265.67Z"/><path class="cls-1" d="M283.46,258.86l-1.29-.31v-.9l2.63-.32h0l.39.3V266l1.36.14V267h-4.51v-.83l1.38-.15Zm-.13-3.32a1.08,1.08,0,0,1-.28-.78,1.25,1.25,0,0,1,.34-.9,1.16,1.16,0,0,1,.9-.36,1.05,1.05,0,0,1,.85.31,1.08,1.08,0,0,1,.28.78,1.23,1.23,0,0,1-.34.92,1.2,1.2,0,0,1-.92.34h0A1,1,0,0,1,283.33,255.54Z"/><path class="cls-1" d="M289.39,262.08a10.17,10.17,0,0,1,4.05-.81v-.48a3.76,3.76,0,0,0-.17-1.25,1.15,1.15,0,0,0-.59-.67,2.5,2.5,0,0,0-1.18-.22,4.66,4.66,0,0,0-1.55.25,11,11,0,0,0-1.37.6l-.43-.88a4.91,4.91,0,0,1,.82-.49,7.78,7.78,0,0,1,1.38-.55,5.28,5.28,0,0,1,1.56-.24,4.57,4.57,0,0,1,1.91.34,1.94,1.94,0,0,1,1,1.06,5,5,0,0,1,.31,1.95v5.46h1v.75c-.22.06-.51.11-.86.17a6.35,6.35,0,0,1-.9.08,1,1,0,0,1-.65-.14.88.88,0,0,1-.17-.64v-.56a6.28,6.28,0,0,1-1.25.94,3.31,3.31,0,0,1-1.67.42,3,3,0,0,1-2-.71,2.55,2.55,0,0,1-.8-2A2.47,2.47,0,0,1,289.39,262.08Zm3,3.66a5.56,5.56,0,0,0,1.05-.64v-2.93a5.5,5.5,0,0,0-2.8.57,1.7,1.7,0,0,0-.94,1.49,1.8,1.8,0,0,0,.45,1.35,1.68,1.68,0,0,0,1.22.43A2.5,2.5,0,0,0,292.39,265.74Z"/><path class="cls-1" d="M297.32,266.15l1-.15v-7.14l-1.22-.31v-.92l2.43-.3.31.22.1.68,0,.54a6.09,6.09,0,0,1,1.62-1,4.69,4.69,0,0,1,1.85-.45,3.16,3.16,0,0,1,1.48.3,2,2,0,0,1,.85.95,5.71,5.71,0,0,1,1.52-.85,4.77,4.77,0,0,1,1.83-.4,2.92,2.92,0,0,1,1.65.4,2.19,2.19,0,0,1,.84,1.24,8.48,8.48,0,0,1,.24,2.25V266l1.23.15V267H309v-.83l1.06-.15v-4.73a6.54,6.54,0,0,0-.15-1.57,1.55,1.55,0,0,0-.54-.88,2,2,0,0,0-1.15-.29,3.39,3.39,0,0,0-1.19.25,4.33,4.33,0,0,0-1.07.59,9,9,0,0,1,.15,1.88V266l1.21.15V267h-4.12v-.83l1.13-.15v-4.76a7.82,7.82,0,0,0-.13-1.58,1.51,1.51,0,0,0-.48-.85,1.82,1.82,0,0,0-1.09-.28,3.28,3.28,0,0,0-1.3.31,5.36,5.36,0,0,0-1.2.71V266l1.14.15V267h-4Z"/><path class="cls-1" d="M319.3,258.86l-1.23-.31v-.92l2.43-.3h.05l.36.3v.72l0,.41a5.9,5.9,0,0,1,1.62-1,4.68,4.68,0,0,1,1.92-.44,2.83,2.83,0,0,1,1.66.41,2.15,2.15,0,0,1,.82,1.25,8.51,8.51,0,0,1,.24,2.26V266l1.19.12V267h-4v-.83l1.06-.14v-4.77a7.17,7.17,0,0,0-.14-1.58,1.46,1.46,0,0,0-.51-.85,1.84,1.84,0,0,0-1.09-.28,3.36,3.36,0,0,0-1.31.31,6.18,6.18,0,0,0-1.24.71V266l1.16.15V267h-4v-.83l1.07-.15Z"/><path class="cls-1" d="M330.19,259.59a4.38,4.38,0,0,1,3.86-2.3,3.88,3.88,0,0,1,3.22,1.36,5.58,5.58,0,0,1,1.08,3.57,5.38,5.38,0,0,1-.63,2.67,4.29,4.29,0,0,1-1.65,1.7,4.39,4.39,0,0,1-2.2.58,3.87,3.87,0,0,1-3.23-1.36,5.58,5.58,0,0,1-1.08-3.57A5.33,5.33,0,0,1,330.19,259.59Zm5.58,5.64a5.29,5.29,0,0,0,.63-2.87,6.41,6.41,0,0,0-.58-3,1.93,1.93,0,0,0-1.85-1.11,2,2,0,0,0-1.81,1,5.22,5.22,0,0,0-.64,2.87,6.47,6.47,0,0,0,.59,3,2,2,0,0,0,1.86,1.1A2,2,0,0,0,335.77,265.23Z"/><path class="cls-1" d="M340.92,258.86l-1.22-.31v-.92l2.43-.3h.05l.36.3v.72l0,.41a5.84,5.84,0,0,1,1.61-1,4.68,4.68,0,0,1,1.92-.44,2.81,2.81,0,0,1,1.66.41,2.16,2.16,0,0,1,.83,1.25,9,9,0,0,1,.23,2.26V266l1.19.12V267h-4v-.83L347,266v-4.77a7.17,7.17,0,0,0-.14-1.58,1.46,1.46,0,0,0-.51-.85,1.83,1.83,0,0,0-1.08-.28,3.32,3.32,0,0,0-1.31.31,5.91,5.91,0,0,0-1.24.71V266l1.15.15V267h-4v-.83l1.07-.15Z"/><path class="cls-1" d="M358.22,267a.72.72,0,0,1-.23-.61v-.58a5.81,5.81,0,0,1-1.4,1,3.81,3.81,0,0,1-1.7.42,2.66,2.66,0,0,1-2.24-.85,4.63,4.63,0,0,1-.66-2.8v-4.94l-1-.27v-.74l2.39-.23h0l.32.21v5.83a6.16,6.16,0,0,0,.15,1.54,1.39,1.39,0,0,0,.51.81,1.76,1.76,0,0,0,1.06.27,3,3,0,0,0,1.28-.29,4.49,4.49,0,0,0,1-.68v-6.45l-1.22-.27v-.74l2.58-.23h0l.39.21v8.57h1l0,.76-.82.19a4.7,4.7,0,0,1-.81.07A1.12,1.12,0,0,1,358.22,267Z"/><path class="cls-1" d="M361.91,266.15l1-.15v-7.14l-1.22-.31v-.92l2.43-.3.3.22.11.68,0,.54a6.09,6.09,0,0,1,1.62-1,4.69,4.69,0,0,1,1.85-.45,3.16,3.16,0,0,1,1.48.3,2.08,2.08,0,0,1,.85.95,5.71,5.71,0,0,1,1.52-.85,4.77,4.77,0,0,1,1.83-.4,2.86,2.86,0,0,1,1.64.4,2.16,2.16,0,0,1,.85,1.24,8.48,8.48,0,0,1,.24,2.25V266l1.23.15V267h-4.05v-.83l1.05-.15v-4.73a6.62,6.62,0,0,0-.14-1.57,1.55,1.55,0,0,0-.54-.88,2,2,0,0,0-1.15-.29,3.34,3.34,0,0,0-1.19.25,4.33,4.33,0,0,0-1.07.59,9,9,0,0,1,.15,1.88V266l1.21.15V267h-4.12v-.83l1.13-.15v-4.76a7.82,7.82,0,0,0-.13-1.58,1.46,1.46,0,0,0-.49-.85,1.77,1.77,0,0,0-1.08-.28,3.24,3.24,0,0,0-1.3.31,5.36,5.36,0,0,0-1.2.71V266l1.14.15V267h-4Z"/><path class="cls-1" d="M378.83,266.15l1-.15v-7.14l-1.23-.31v-.92l2.43-.3.31.22.1.68,0,.54a6,6,0,0,1,1.63-1,4.65,4.65,0,0,1,1.84-.45,3.14,3.14,0,0,1,1.48.3,2,2,0,0,1,.85.95,5.71,5.71,0,0,1,1.52-.85,4.77,4.77,0,0,1,1.83-.4,2.92,2.92,0,0,1,1.65.4,2.1,2.1,0,0,1,.84,1.24,8,8,0,0,1,.25,2.25V266l1.22.15V267h-4v-.83l1.05-.15v-4.73a7.2,7.2,0,0,0-.14-1.57,1.51,1.51,0,0,0-.55-.88,2,2,0,0,0-1.15-.29,3.39,3.39,0,0,0-1.19.25,4.52,4.52,0,0,0-1.07.59,8.9,8.9,0,0,1,.16,1.88V266l1.2.15V267h-4.11v-.83l1.12-.15v-4.76a7.15,7.15,0,0,0-.13-1.58,1.4,1.4,0,0,0-.48-.85,1.8,1.8,0,0,0-1.09-.28,3.28,3.28,0,0,0-1.3.31,5.36,5.36,0,0,0-1.2.71V266l1.14.15V267h-4Z"/><path class="cls-1" d="M396.57,271.18a1,1,0,0,1-.4-.1V269.6a.9.9,0,0,0,.4.1,3.82,3.82,0,0,0,.57,0,2.09,2.09,0,0,0,1.44-.57,5.63,5.63,0,0,0,1.19-2.19H399l-3.23-8.41-.78-.22v-.8H399v.8l-1.31.2,1.67,5,.78,2.48.73-2.5,1.52-5-1.14-.2v-.8h3.41v.8l-.85.2q-2.49,7.65-2.94,8.69a17.1,17.1,0,0,1-1.05,2.28,3.75,3.75,0,0,1-1.12,1.26,2.81,2.81,0,0,1-1.6.44A3.64,3.64,0,0,1,396.57,271.18Z"/><path class="cls-1" d="M410.53,258.86l-1.22-.31v-.92l2.43-.3h.05l.36.3v.72l0,.41a5.9,5.9,0,0,1,1.62-1,4.68,4.68,0,0,1,1.92-.44,2.85,2.85,0,0,1,1.66.41,2.15,2.15,0,0,1,.82,1.25,8.51,8.51,0,0,1,.24,2.26V266l1.19.12V267h-4v-.83l1.05-.14v-4.77a7.27,7.27,0,0,0-.13-1.58,1.46,1.46,0,0,0-.51-.85,1.84,1.84,0,0,0-1.09-.28,3.32,3.32,0,0,0-1.31.31,6.18,6.18,0,0,0-1.24.71V266l1.16.15V267h-4v-.83l1.07-.15Z"/><path class="cls-1" d="M422.13,258.86l-1.29-.31v-.9l2.63-.32h0l.4.3V266l1.36.14V267h-4.51v-.83l1.38-.15Zm-.14-3.32a1.12,1.12,0,0,1-.27-.78,1.28,1.28,0,0,1,.33-.9,1.18,1.18,0,0,1,.91-.36,1.05,1.05,0,0,1,.85.31,1.12,1.12,0,0,1,.27.78,1.26,1.26,0,0,1-.33.92,1.22,1.22,0,0,1-.93.34h0A1,1,0,0,1,422,255.54Z"/><path class="cls-1" d="M425.66,253.38l2.72-.32h0l.39.26v5.11a4.14,4.14,0,0,1,1.21-.81,3.69,3.69,0,0,1,1.58-.33,3.6,3.6,0,0,1,1.86.5,3.38,3.38,0,0,1,1.34,1.53,6,6,0,0,1,.5,2.61,5.84,5.84,0,0,1-.6,2.66,4.61,4.61,0,0,1-1.73,1.88,4.75,4.75,0,0,1-2.6.7,9.49,9.49,0,0,1-2.14-.23,3,3,0,0,1-1.17-.42V254.28l-1.4-.18Zm4,5.42a3.19,3.19,0,0,0-.89.67v6.26a.9.9,0,0,0,.58.38,4.13,4.13,0,0,0,1.1.14,2.53,2.53,0,0,0,2.11-1.05,5.05,5.05,0,0,0,.8-3.08,4.38,4.38,0,0,0-.7-2.72,2.16,2.16,0,0,0-1.8-.9A2.48,2.48,0,0,0,429.7,258.8Z"/><path class="cls-1" d="M437.7,254.3l-1.43-.19v-.73l2.77-.32h0l.37.26v3.94l-.07,1.44a6,6,0,0,1,1.5-.93,4.41,4.41,0,0,1,1.92-.44,2.89,2.89,0,0,1,1.67.41,2.16,2.16,0,0,1,.83,1.25,8.51,8.51,0,0,1,.24,2.26V266l1.19.15V267h-4.07v-.83l1.11-.15v-4.76a7.17,7.17,0,0,0-.14-1.58,1.46,1.46,0,0,0-.51-.85,1.9,1.9,0,0,0-1.12-.28,3.36,3.36,0,0,0-1.31.31,5.75,5.75,0,0,0-1.22.71V266l1.17.15V267h-4v-.83l1-.14Z"/><path class="cls-1" d="M453.06,265.83a5.57,5.57,0,0,1-1.08-3.59,5.79,5.79,0,0,1,.56-2.6,4.06,4.06,0,0,1,1.57-1.73,4.36,4.36,0,0,1,2.31-.62,3.28,3.28,0,0,1,2.45.88,3.51,3.51,0,0,1,.93,2.51,7.89,7.89,0,0,1-.12,1.58h-5.85a4.73,4.73,0,0,0,.78,2.71,2.49,2.49,0,0,0,2.13,1,4.62,4.62,0,0,0,1.42-.25,3.52,3.52,0,0,0,1.15-.59l.32.75a4.1,4.1,0,0,1-1.46.89,5.47,5.47,0,0,1-2,.37A3.79,3.79,0,0,1,453.06,265.83Zm4.87-4.47a6,6,0,0,0,.05-.74,3.07,3.07,0,0,0-.47-1.74,1.62,1.62,0,0,0-1.42-.63,1.92,1.92,0,0,0-1.57.71,4.19,4.19,0,0,0-.67,2.4Z"/><path class="cls-1" d="M468.29,267a.75.75,0,0,1-.23-.61v-.58a5.62,5.62,0,0,1-1.4,1,3.77,3.77,0,0,1-1.69.42,2.69,2.69,0,0,1-2.25-.85,4.63,4.63,0,0,1-.66-2.8v-4.94l-.95-.27v-.74l2.38-.23h0l.33.21v5.83a6.77,6.77,0,0,0,.14,1.54,1.39,1.39,0,0,0,.51.81,1.79,1.79,0,0,0,1.06.27,2.93,2.93,0,0,0,1.28-.29,4.56,4.56,0,0,0,1-.68v-6.45l-1.23-.27v-.74l2.59-.23h0l.39.21v8.57h1v.76l-.83.19a4.67,4.67,0,0,1-.8.07A1.14,1.14,0,0,1,468.29,267Z"/><path class="cls-1" d="M480,262.16h-6.87v-1.25H480Z"/><path class="cls-1" d="M127.11,284.86l-1.29-.31v-.9l2.63-.32h0l.39.3V292l1.36.14V293h-4.51v-.83l1.38-.15Zm-.14-3.32a1.12,1.12,0,0,1-.27-.78,1.28,1.28,0,0,1,.33-.9,1.18,1.18,0,0,1,.91-.36,1.05,1.05,0,0,1,.85.31,1.12,1.12,0,0,1,.27.78,1.26,1.26,0,0,1-.33.92,1.21,1.21,0,0,1-.92.34h0A1,1,0,0,1,127,281.54Z"/><path class="cls-1" d="M133,291.62a1.39,1.39,0,0,0,.72.46,3.22,3.22,0,0,0,1.16.21,2.24,2.24,0,0,0,1.43-.38,1.25,1.25,0,0,0,.46-1,1.18,1.18,0,0,0-.29-.79,2.53,2.53,0,0,0-.81-.61c-.34-.17-.84-.39-1.48-.64a4.65,4.65,0,0,1-1.92-1.18,2.64,2.64,0,0,1-.6-1.81,2,2,0,0,1,.45-1.31,3,3,0,0,1,1.24-.87,4.71,4.71,0,0,1,1.76-.32,6.91,6.91,0,0,1,1.37.12,8.36,8.36,0,0,1,.94.24l.48.15V286h-1l-.34-1.26a.9.9,0,0,0-.54-.34,3.12,3.12,0,0,0-1-.15,2.08,2.08,0,0,0-1.23.34,1.09,1.09,0,0,0-.47.92,1.33,1.33,0,0,0,.25.84,1.91,1.91,0,0,0,.62.54c.25.13.59.29,1,.47l.34.14a13,13,0,0,1,1.54.71,3.29,3.29,0,0,1,1,.89,2.24,2.24,0,0,1,.4,1.36,2.41,2.41,0,0,1-1,2,4.29,4.29,0,0,1-2.68.75,7.31,7.31,0,0,1-1.74-.23,11.1,11.1,0,0,1-1.49-.47V290.3h1.11Z"/><path class="cls-1" d="M140,292.15l1-.15v-7.14l-1.22-.31v-.92l2.43-.3.3.22.1.68v.54a5.78,5.78,0,0,1,1.62-1,4.69,4.69,0,0,1,1.85-.45,3.09,3.09,0,0,1,1.47.3,2,2,0,0,1,.85.95,5.78,5.78,0,0,1,1.53-.85,4.77,4.77,0,0,1,1.82-.4,2.88,2.88,0,0,1,1.65.4,2.1,2.1,0,0,1,.84,1.24,8,8,0,0,1,.25,2.25V292l1.22.15V293h-4v-.83l1-.15v-4.73a7.2,7.2,0,0,0-.14-1.57,1.51,1.51,0,0,0-.55-.88,1.94,1.94,0,0,0-1.14-.29,3.34,3.34,0,0,0-1.19.25,4.33,4.33,0,0,0-1.07.59,9,9,0,0,1,.15,1.88V292l1.21.15V293h-4.12v-.83L147,292v-4.76a8,8,0,0,0-.12-1.58,1.46,1.46,0,0,0-.49-.85,1.8,1.8,0,0,0-1.09-.28,3.32,3.32,0,0,0-1.3.31,5.36,5.36,0,0,0-1.2.71V292l1.14.15V293h-4Z"/><path class="cls-1" d="M157.57,285.59a4.34,4.34,0,0,1,1.66-1.71,4.4,4.4,0,0,1,2.2-.59,3.88,3.88,0,0,1,3.22,1.36,5.58,5.58,0,0,1,1.08,3.57,5.38,5.38,0,0,1-.63,2.67,4.29,4.29,0,0,1-1.65,1.7,4.39,4.39,0,0,1-2.2.58,3.87,3.87,0,0,1-3.23-1.36,5.58,5.58,0,0,1-1.08-3.57A5.33,5.33,0,0,1,157.57,285.59Zm5.58,5.64a5.29,5.29,0,0,0,.63-2.87,6.41,6.41,0,0,0-.58-3,1.94,1.94,0,0,0-1.85-1.11,2,2,0,0,0-1.81,1,5.22,5.22,0,0,0-.64,2.87,6.47,6.47,0,0,0,.59,3,2,2,0,0,0,1.86,1.1A2,2,0,0,0,163.15,291.23Z"/><path class="cls-1" d="M169.08,292.66a3.53,3.53,0,0,1-1.35-1.56,6.12,6.12,0,0,1-.5-2.6,5.88,5.88,0,0,1,.59-2.64,4.63,4.63,0,0,1,1.71-1.88,4.89,4.89,0,0,1,2.63-.69,6.45,6.45,0,0,1,1.58.19V280.3l-1.73-.2v-.73l3.06-.31h.05l.37.27v12.79h1v.78c-.37.08-.68.14-.95.18a4.46,4.46,0,0,1-.84.07,1,1,0,0,1-.63-.15.85.85,0,0,1-.18-.65v-.54a3.84,3.84,0,0,1-1.25,1,3.7,3.7,0,0,1-1.68.39A3.58,3.58,0,0,1,169.08,292.66Zm3.79-1a2.42,2.42,0,0,0,.87-.69v-6.22a1.19,1.19,0,0,0-.64-.37,3.36,3.36,0,0,0-1.06-.16,2.57,2.57,0,0,0-2.12,1,5.07,5.07,0,0,0-.79,3.12,4.4,4.4,0,0,0,.7,2.72,2.18,2.18,0,0,0,1.8.88A2.76,2.76,0,0,0,172.87,291.67Z"/><path class="cls-1" d="M183.33,292.71a2,2,0,0,1-.48-1.51v-6.53h-1.22v-.76l.47-.12a2.11,2.11,0,0,0,.53-.19,1.09,1.09,0,0,0,.43-.61,10,10,0,0,0,.32-1c.12-.48.2-.76.22-.85h1l0,2.45h2.84v1.12h-2.84v5.22a10.33,10.33,0,0,0,.06,1.36.69.69,0,0,0,.25.51,1.37,1.37,0,0,0,.67.12,4.69,4.69,0,0,0,1-.12,3.88,3.88,0,0,0,.86-.26l.26.77a4.62,4.62,0,0,1-1.32.59,5.33,5.33,0,0,1-1.66.29A2,2,0,0,1,183.33,292.71Z"/><path class="cls-1" d="M190.11,284.86l-1.29-.31v-.9l2.63-.32h0l.39.3V292l1.36.14V293h-4.51v-.83l1.38-.15Zm-.14-3.32a1.12,1.12,0,0,1-.27-.78,1.28,1.28,0,0,1,.33-.9,1.18,1.18,0,0,1,.91-.36,1.05,1.05,0,0,1,.85.31,1.13,1.13,0,0,1,.28.78,1.23,1.23,0,0,1-.34.92,1.21,1.21,0,0,1-.92.34h0A1,1,0,0,1,190,281.54Z"/><path class="cls-1" d="M195.47,284.86l-1.23-.31v-.92l2.43-.3h.05l.36.3v.72l0,.41a5.9,5.9,0,0,1,1.62-1,4.68,4.68,0,0,1,1.92-.44,2.83,2.83,0,0,1,1.66.41,2.15,2.15,0,0,1,.82,1.25,8.51,8.51,0,0,1,.24,2.26V292l1.19.12V293h-4v-.83l1.05-.14v-4.77a7.27,7.27,0,0,0-.13-1.58,1.46,1.46,0,0,0-.51-.85,1.84,1.84,0,0,0-1.09-.28,3.36,3.36,0,0,0-1.31.31,6.18,6.18,0,0,0-1.24.71V292l1.16.15V293h-4v-.83l1.08-.15Z"/><path class="cls-1" d="M206.08,285.78a4.34,4.34,0,0,1,1.63-1.82,4.9,4.9,0,0,1,2.6-.67,5.07,5.07,0,0,1,1.25.14c.36.09.77.21,1.26.37l-.07,2.62h-1.1l-.38-1.73q-.09-.48-1.29-.48a2.2,2.2,0,0,0-1.88,1,4.7,4.7,0,0,0-.68,2.73,5,5,0,0,0,.77,3.05,2.4,2.4,0,0,0,2,1.05,4.35,4.35,0,0,0,1.36-.22,5,5,0,0,0,1.09-.53l.32.68a4,4,0,0,1-1.35.86,4.63,4.63,0,0,1-1.81.38,4.18,4.18,0,0,1-2.35-.63,3.94,3.94,0,0,1-1.45-1.72,6.21,6.21,0,0,1-.48-2.49A5.72,5.72,0,0,1,206.08,285.78Z"/><path class="cls-1" d="M215.78,284.86l-1.29-.31v-.9l2.63-.32h0l.39.3V292l1.36.14V293H214.4v-.83l1.38-.15Zm-.14-3.32a1.12,1.12,0,0,1-.27-.78,1.28,1.28,0,0,1,.33-.9,1.18,1.18,0,0,1,.91-.36,1.05,1.05,0,0,1,.85.31,1.12,1.12,0,0,1,.27.78,1.26,1.26,0,0,1-.33.92,1.21,1.21,0,0,1-.92.34h0A1,1,0,0,1,215.64,281.54Z"/><path class="cls-1" d="M221.92,292.66a3.55,3.55,0,0,1-1.36-1.56,6.12,6.12,0,0,1-.5-2.6,5.76,5.76,0,0,1,.6-2.64,4.5,4.5,0,0,1,1.71-1.88,4.85,4.85,0,0,1,2.62-.69,6.39,6.39,0,0,1,1.58.19V280.3l-1.73-.2v-.73l3.06-.31h0l.38.27v12.79h1v.78c-.36.08-.68.14-.94.18a4.61,4.61,0,0,1-.84.07,1,1,0,0,1-.63-.15c-.13-.1-.19-.32-.19-.65v-.54a3.74,3.74,0,0,1-1.25,1,3.66,3.66,0,0,1-1.67.39A3.55,3.55,0,0,1,221.92,292.66Zm3.79-1a2.46,2.46,0,0,0,.86-.69v-6.22a1.19,1.19,0,0,0-.63-.37,3.42,3.42,0,0,0-1.07-.16,2.54,2.54,0,0,0-2.11,1,5,5,0,0,0-.79,3.12,4.41,4.41,0,0,0,.69,2.72,2.2,2.2,0,0,0,1.81.88A2.79,2.79,0,0,0,225.71,291.67Z"/><path class="cls-1" d="M237.7,293a.75.75,0,0,1-.23-.61v-.58a5.62,5.62,0,0,1-1.4,1,3.77,3.77,0,0,1-1.69.42,2.67,2.67,0,0,1-2.25-.85,4.63,4.63,0,0,1-.66-2.8v-4.94l-.95-.27v-.74l2.38-.23h0l.33.21v5.83a6.77,6.77,0,0,0,.14,1.54,1.39,1.39,0,0,0,.51.81A1.79,1.79,0,0,0,235,292a2.93,2.93,0,0,0,1.28-.29,4.56,4.56,0,0,0,1-.68v-6.45l-1.23-.27v-.74l2.59-.23h0l.39.21v8.57h1v.76l-.83.19a4.67,4.67,0,0,1-.8.07A1.14,1.14,0,0,1,237.7,293Z"/><path class="cls-1" d="M242.43,284.86l-1.22-.31v-.92l2.43-.3h.05l.36.3v.72l0,.41a5.9,5.9,0,0,1,1.62-1,4.68,4.68,0,0,1,1.92-.44,2.85,2.85,0,0,1,1.66.41,2.15,2.15,0,0,1,.82,1.25,8.51,8.51,0,0,1,.24,2.26V292l1.19.12V293h-4v-.83l1.05-.14v-4.77a7.27,7.27,0,0,0-.13-1.58,1.46,1.46,0,0,0-.51-.85,1.84,1.84,0,0,0-1.09-.28,3.32,3.32,0,0,0-1.31.31,6.18,6.18,0,0,0-1.24.71V292l1.16.15V293h-4v-.83l1.07-.15Z"/><path class="cls-1" d="M254.16,292.71a2,2,0,0,1-.47-1.51v-6.53h-1.23v-.76l.48-.12a2.11,2.11,0,0,0,.53-.19,1,1,0,0,0,.42-.61,8,8,0,0,0,.32-1c.13-.48.2-.76.23-.85h1l0,2.45h2.84v1.12h-2.84v5.22a10.33,10.33,0,0,0,.06,1.36.69.69,0,0,0,.26.51,1.35,1.35,0,0,0,.67.12,4.77,4.77,0,0,0,1-.12,4.06,4.06,0,0,0,.86-.26l.25.77a4.67,4.67,0,0,1-1.31.59,5.33,5.33,0,0,1-1.66.29A2,2,0,0,1,254.16,292.71Z"/><path class="cls-1" d="M270.68,293a.75.75,0,0,1-.23-.61v-.58a5.62,5.62,0,0,1-1.4,1,3.77,3.77,0,0,1-1.69.42,2.67,2.67,0,0,1-2.25-.85,4.63,4.63,0,0,1-.66-2.8v-4.94l-.95-.27v-.74l2.38-.23h0l.33.21v5.83a6.24,6.24,0,0,0,.14,1.54,1.39,1.39,0,0,0,.51.81,1.76,1.76,0,0,0,1.06.27,2.93,2.93,0,0,0,1.28-.29,4.56,4.56,0,0,0,1-.68v-6.45l-1.23-.27v-.74l2.59-.23h0l.39.21v8.57h1v.76l-.83.19a4.7,4.7,0,0,1-.81.07A1.12,1.12,0,0,1,270.68,293Z"/><path class="cls-1" d="M275.86,292.71a2,2,0,0,1-.48-1.51v-6.53h-1.22v-.76l.47-.12a2.11,2.11,0,0,0,.53-.19,1,1,0,0,0,.42-.61,9.49,9.49,0,0,0,.33-1c.12-.48.19-.76.22-.85h1l0,2.45H280v1.12h-2.84v5.22a10.33,10.33,0,0,0,.06,1.36.69.69,0,0,0,.26.51,1.35,1.35,0,0,0,.67.12,4.77,4.77,0,0,0,1-.12,3.88,3.88,0,0,0,.86-.26l.26.77a4.9,4.9,0,0,1-1.32.59,5.33,5.33,0,0,1-1.66.29A2,2,0,0,1,275.86,292.71Z"/><path class="cls-1" d="M286.58,280.3l-1.37-.19v-.73l2.73-.32h0l.37.26V292l1.45.14V293h-4.59v-.83l1.37-.15Z"/><path class="cls-1" d="M292.6,288.08a10.14,10.14,0,0,1,4-.81v-.48a3.76,3.76,0,0,0-.17-1.25,1.19,1.19,0,0,0-.59-.67,2.53,2.53,0,0,0-1.18-.22,4.73,4.73,0,0,0-1.56.25,11.64,11.64,0,0,0-1.37.6l-.42-.88a5.16,5.16,0,0,1,.81-.49,8.09,8.09,0,0,1,1.38-.55,5.3,5.3,0,0,1,1.57-.24,4.57,4.57,0,0,1,1.91.34,1.94,1.94,0,0,1,1,1.06,5.23,5.23,0,0,1,.31,1.95v5.46h1v.75c-.23.06-.51.11-.86.17a6.6,6.6,0,0,1-.91.08,1,1,0,0,1-.64-.14.83.83,0,0,1-.18-.64v-.56a6.2,6.2,0,0,1-1.24.94,3.38,3.38,0,0,1-1.68.42,2.92,2.92,0,0,1-2-.71,2.52,2.52,0,0,1-.81-2A2.47,2.47,0,0,1,292.6,288.08Zm3,3.66a5.33,5.33,0,0,0,1.06-.64v-2.93a5.5,5.5,0,0,0-2.8.57,1.7,1.7,0,0,0-.94,1.49,1.8,1.8,0,0,0,.45,1.35,1.66,1.66,0,0,0,1.21.43A2.43,2.43,0,0,0,295.59,291.74Z"/><path class="cls-1" d="M301.17,285.59a4.35,4.35,0,0,1,3.86-2.3,3.89,3.89,0,0,1,3.22,1.36,5.58,5.58,0,0,1,1.08,3.57,5.38,5.38,0,0,1-.63,2.67,4.25,4.25,0,0,1-1.66,1.7,4.39,4.39,0,0,1-2.2.58,3.85,3.85,0,0,1-3.22-1.36,5.58,5.58,0,0,1-1.08-3.57A5.33,5.33,0,0,1,301.17,285.59Zm5.57,5.64a5.29,5.29,0,0,0,.63-2.87,6.41,6.41,0,0,0-.58-3,1.93,1.93,0,0,0-1.85-1.11,2,2,0,0,0-1.81,1,5.3,5.3,0,0,0-.64,2.87,6.34,6.34,0,0,0,.6,3,2,2,0,0,0,1.85,1.1A2,2,0,0,0,306.74,291.23Z"/><path class="cls-1" d="M310.91,292.15l1.27-.1v-7.19l-1.22-.31v-.92l2.35-.3h0l.37.3v.31l0,1.33h0a4.13,4.13,0,0,1,.62-.75,4.43,4.43,0,0,1,1.13-.84,3.07,3.07,0,0,1,1.52-.39,1.53,1.53,0,0,1,.56.09v1.9a1.59,1.59,0,0,0-.38-.16,2.21,2.21,0,0,0-.59-.08,4.41,4.41,0,0,0-2.62.87V292l2.16.14V293h-5.2Z"/><path class="cls-1" d="M319.71,291.83a5.57,5.57,0,0,1-1.08-3.59,5.66,5.66,0,0,1,.56-2.6,4,4,0,0,1,1.57-1.73,4.33,4.33,0,0,1,2.3-.62,3.29,3.29,0,0,1,2.46.88,3.6,3.6,0,0,1,.93,2.51,7.89,7.89,0,0,1-.12,1.58h-5.85a4.65,4.65,0,0,0,.78,2.71,2.49,2.49,0,0,0,2.13,1,4.67,4.67,0,0,0,1.42-.25,3.36,3.36,0,0,0,1.14-.59l.33.75a4.06,4.06,0,0,1-1.47.89,5.38,5.38,0,0,1-2,.37A3.79,3.79,0,0,1,319.71,291.83Zm4.87-4.47a6,6,0,0,0,.05-.74,3.07,3.07,0,0,0-.47-1.74,1.62,1.62,0,0,0-1.42-.63,1.91,1.91,0,0,0-1.57.71,4.11,4.11,0,0,0-.67,2.4Z"/><path class="cls-1" d="M329,291.83a5.57,5.57,0,0,1-1.08-3.59,5.66,5.66,0,0,1,.57-2.6,4,4,0,0,1,1.57-1.73,4.33,4.33,0,0,1,2.3-.62,3.31,3.31,0,0,1,2.46.88,3.55,3.55,0,0,1,.92,2.51,8.9,8.9,0,0,1-.11,1.58h-5.85a4.65,4.65,0,0,0,.78,2.71,2.49,2.49,0,0,0,2.12,1,4.57,4.57,0,0,0,1.42-.25,3.33,3.33,0,0,0,1.15-.59l.32.75a3.93,3.93,0,0,1-1.46.89,5.38,5.38,0,0,1-2,.37A3.81,3.81,0,0,1,329,291.83Zm4.87-4.47a4.53,4.53,0,0,0,.05-.74,3.07,3.07,0,0,0-.46-1.74,1.63,1.63,0,0,0-1.42-.63,1.91,1.91,0,0,0-1.57.71,4.11,4.11,0,0,0-.68,2.4Z"/><path class="cls-1" d="M338.62,292.71a2,2,0,0,1-.48-1.51v-6.53h-1.22v-.76l.47-.12a2.11,2.11,0,0,0,.53-.19,1.09,1.09,0,0,0,.43-.61,10,10,0,0,0,.32-1c.12-.48.2-.76.22-.85h1l0,2.45h2.84v1.12h-2.84v5.22a10.33,10.33,0,0,0,.06,1.36.69.69,0,0,0,.25.51,1.37,1.37,0,0,0,.67.12,4.69,4.69,0,0,0,1-.12,3.88,3.88,0,0,0,.86-.26l.26.77a4.62,4.62,0,0,1-1.32.59,5.33,5.33,0,0,1-1.66.29A2,2,0,0,1,338.62,292.71Z"/><path class="cls-1" d="M349.91,292.66a3.55,3.55,0,0,1-1.36-1.56,6.12,6.12,0,0,1-.5-2.6,5.76,5.76,0,0,1,.6-2.64,4.5,4.5,0,0,1,1.71-1.88,4.85,4.85,0,0,1,2.62-.69,6.39,6.39,0,0,1,1.58.19V280.3l-1.73-.2v-.73l3.06-.31h.05l.37.27v12.79h1v.78c-.36.08-.68.14-.94.18a4.61,4.61,0,0,1-.84.07,1,1,0,0,1-.63-.15c-.13-.1-.19-.32-.19-.65v-.54a3.74,3.74,0,0,1-1.25,1,3.66,3.66,0,0,1-1.67.39A3.55,3.55,0,0,1,349.91,292.66Zm3.79-1a2.46,2.46,0,0,0,.86-.69v-6.22a1.19,1.19,0,0,0-.63-.37,3.42,3.42,0,0,0-1.07-.16,2.54,2.54,0,0,0-2.11,1,5,5,0,0,0-.79,3.12,4.41,4.41,0,0,0,.69,2.72,2.2,2.2,0,0,0,1.81.88A2.79,2.79,0,0,0,353.7,291.67Z"/><path class="cls-1" d="M359.29,285.59a4.38,4.38,0,0,1,3.86-2.3,3.88,3.88,0,0,1,3.22,1.36,5.58,5.58,0,0,1,1.08,3.57,5.38,5.38,0,0,1-.63,2.67,4.25,4.25,0,0,1-1.66,1.7,4.36,4.36,0,0,1-2.2.58,3.85,3.85,0,0,1-3.22-1.36,5.58,5.58,0,0,1-1.08-3.57A5.33,5.33,0,0,1,359.29,285.59Zm5.58,5.64a5.39,5.39,0,0,0,.62-2.87,6.55,6.55,0,0,0-.57-3,2,2,0,0,0-1.86-1.11,2,2,0,0,0-1.81,1,5.31,5.31,0,0,0-.63,2.87,6.35,6.35,0,0,0,.59,3,2,2,0,0,0,1.85,1.1A2,2,0,0,0,364.87,291.23Z"/><path class="cls-1" d="M370.24,280.3l-1.38-.19v-.73l2.74-.32h0l.38.26V292l1.44.14V293h-4.59v-.83l1.38-.15Z"/><path class="cls-1" d="M375.29,285.59a4.35,4.35,0,0,1,3.85-2.3,3.9,3.9,0,0,1,3.23,1.36,5.58,5.58,0,0,1,1.08,3.57,5.38,5.38,0,0,1-.63,2.67,4.25,4.25,0,0,1-1.66,1.7,4.39,4.39,0,0,1-2.2.58,3.85,3.85,0,0,1-3.22-1.36,5.58,5.58,0,0,1-1.08-3.57A5.33,5.33,0,0,1,375.29,285.59Zm5.57,5.64a5.29,5.29,0,0,0,.63-2.87,6.41,6.41,0,0,0-.58-3,1.93,1.93,0,0,0-1.85-1.11,2,2,0,0,0-1.81,1,5.22,5.22,0,0,0-.64,2.87,6.34,6.34,0,0,0,.6,3,2,2,0,0,0,1.85,1.1A2,2,0,0,0,380.86,291.23Z"/><path class="cls-1" d="M385,292.15l1.27-.1v-7.19l-1.22-.31v-.92l2.34-.3h0l.37.3v.31l-.05,1.33h.05a4.45,4.45,0,0,1,.61-.75,4.68,4.68,0,0,1,1.14-.84,3.07,3.07,0,0,1,1.52-.39,1.53,1.53,0,0,1,.56.09v1.9a1.53,1.53,0,0,0-.39-.16,2.08,2.08,0,0,0-.58-.08,4.38,4.38,0,0,0-2.62.87V292l2.16.14V293H385Z"/><path class="cls-1" d="M393.82,291.83a5.57,5.57,0,0,1-1.08-3.59,5.66,5.66,0,0,1,.57-2.6,4,4,0,0,1,1.57-1.73,4.33,4.33,0,0,1,2.3-.62,3.31,3.31,0,0,1,2.46.88,3.55,3.55,0,0,1,.92,2.51,8.9,8.9,0,0,1-.11,1.58H394.6a4.65,4.65,0,0,0,.78,2.71,2.49,2.49,0,0,0,2.12,1,4.57,4.57,0,0,0,1.42-.25,3.33,3.33,0,0,0,1.15-.59l.32.75a3.93,3.93,0,0,1-1.46.89,5.38,5.38,0,0,1-2,.37A3.81,3.81,0,0,1,393.82,291.83Zm4.87-4.47a4.52,4.52,0,0,0,.06-.74,3.15,3.15,0,0,0-.47-1.74,1.63,1.63,0,0,0-1.42-.63,1.91,1.91,0,0,0-1.57.71,4.11,4.11,0,0,0-.68,2.4Z"/><path class="cls-1" d="M406,292.15l1-.15v-7.14l-1.23-.31v-.92l2.43-.3.31.22.1.68,0,.54a6,6,0,0,1,1.63-1,4.65,4.65,0,0,1,1.84-.45,3.14,3.14,0,0,1,1.48.3,2,2,0,0,1,.85.95,5.71,5.71,0,0,1,1.52-.85,4.77,4.77,0,0,1,1.83-.4,2.92,2.92,0,0,1,1.65.4,2.1,2.1,0,0,1,.84,1.24,8.42,8.42,0,0,1,.25,2.25V292l1.22.15V293h-4v-.83l1.06-.15v-4.73a6.54,6.54,0,0,0-.15-1.57,1.45,1.45,0,0,0-.54-.88,2,2,0,0,0-1.15-.29,3.39,3.39,0,0,0-1.19.25,4.52,4.52,0,0,0-1.07.59,9,9,0,0,1,.15,1.88V292l1.21.15V293h-4.11v-.83l1.12-.15v-4.76a7.15,7.15,0,0,0-.13-1.58,1.4,1.4,0,0,0-.48-.85,1.8,1.8,0,0,0-1.09-.28,3.28,3.28,0,0,0-1.3.31,5.36,5.36,0,0,0-1.2.71V292l1.14.15V293h-4Z"/><path class="cls-1" d="M424.57,288.08a10.08,10.08,0,0,1,4-.81v-.48a3.51,3.51,0,0,0-.17-1.25,1.14,1.14,0,0,0-.58-.67,2.53,2.53,0,0,0-1.18-.22,4.73,4.73,0,0,0-1.56.25,11.64,11.64,0,0,0-1.37.6l-.42-.88a4.71,4.71,0,0,1,.81-.49,8.09,8.09,0,0,1,1.38-.55,5.28,5.28,0,0,1,1.56-.24,4.59,4.59,0,0,1,1.92.34,2,2,0,0,1,1,1.06,5.25,5.25,0,0,1,.3,1.95v5.46h1v.75c-.23.06-.52.11-.86.17a6.6,6.6,0,0,1-.91.08,1,1,0,0,1-.65-.14.88.88,0,0,1-.17-.64v-.56a6,6,0,0,1-1.25.94,3.31,3.31,0,0,1-1.67.42,2.92,2.92,0,0,1-2-.71,2.52,2.52,0,0,1-.81-2A2.47,2.47,0,0,1,424.57,288.08Zm3,3.66a5,5,0,0,0,1.05-.64v-2.93a5.49,5.49,0,0,0-2.79.57,1.71,1.71,0,0,0-.95,1.49,1.77,1.77,0,0,0,.46,1.35,1.64,1.64,0,0,0,1.21.43A2.46,2.46,0,0,0,427.56,291.74Z"/><path class="cls-1" d="M433.42,296.88a2.16,2.16,0,0,1-1-1.89,2.22,2.22,0,0,1,.47-1.38,3.14,3.14,0,0,1,1.11-.95,1.51,1.51,0,0,1-.78-1.43,2,2,0,0,1,.36-1.15,2.29,2.29,0,0,1,.93-.84,2.83,2.83,0,0,1-1.3-1.07,3,3,0,0,1-.45-1.65,2.74,2.74,0,0,1,.55-1.71,3.67,3.67,0,0,1,1.46-1.13,4.86,4.86,0,0,1,1.93-.39,4.43,4.43,0,0,1,2.69.72,2.69,2.69,0,0,1,.78-.5,2.84,2.84,0,0,1,1.12-.23h.58v1.49H440a2.65,2.65,0,0,1,.41,1.46,3.22,3.22,0,0,1-.5,1.78,3.29,3.29,0,0,1-1.4,1.2,4.63,4.63,0,0,1-2,.42,5.24,5.24,0,0,1-1.31-.15,2.2,2.2,0,0,0-.39.53,1.21,1.21,0,0,0-.15.56.87.87,0,0,0,.4.84,3.34,3.34,0,0,0,1.47.23h1.92a4,4,0,0,1,2.45.63,2.13,2.13,0,0,1,.79,1.78,2.68,2.68,0,0,1-.69,1.78,4.82,4.82,0,0,1-1.88,1.28,6.93,6.93,0,0,1-2.56.46A5.57,5.57,0,0,1,433.42,296.88Zm4.88-.54a2.8,2.8,0,0,0,1.19-.73,1.57,1.57,0,0,0,.46-1.13,1.38,1.38,0,0,0-.4-1.11A2.53,2.53,0,0,0,438,293h-2a4.94,4.94,0,0,1-1.07-.09,2.46,2.46,0,0,0-.7,1.72,1.76,1.76,0,0,0,.58,1.44,3,3,0,0,0,2,.5A5.13,5.13,0,0,0,438.3,296.34Zm.33-9.94a2.42,2.42,0,0,0-.5-1.67,2,2,0,0,0-1.51-.54,2.08,2.08,0,0,0-1.48.52,2.22,2.22,0,0,0-.54,1.66,2.58,2.58,0,0,0,.52,1.7,1.91,1.91,0,0,0,1.57.63C438,288.7,438.63,287.93,438.63,286.4Z"/><path class="cls-1" d="M443.85,284.86l-1.23-.31v-.92l2.43-.3h.05l.36.3v.72l0,.41a5.9,5.9,0,0,1,1.62-1,4.68,4.68,0,0,1,1.92-.44,2.83,2.83,0,0,1,1.66.41,2.15,2.15,0,0,1,.82,1.25,8.51,8.51,0,0,1,.24,2.26V292l1.19.12V293h-4v-.83l1.06-.14v-4.77a7.17,7.17,0,0,0-.14-1.58,1.46,1.46,0,0,0-.51-.85,1.84,1.84,0,0,0-1.09-.28,3.36,3.36,0,0,0-1.31.31,6.18,6.18,0,0,0-1.24.71V292l1.16.15V293h-4v-.83l1.08-.15Z"/><path class="cls-1" d="M455.71,288.08a10.17,10.17,0,0,1,4.05-.81v-.48a3.76,3.76,0,0,0-.17-1.25,1.19,1.19,0,0,0-.59-.67,2.53,2.53,0,0,0-1.18-.22,4.73,4.73,0,0,0-1.56.25,11.51,11.51,0,0,0-1.36.6l-.43-.88a4.91,4.91,0,0,1,.82-.49,7.66,7.66,0,0,1,1.37-.55,5.35,5.35,0,0,1,1.57-.24,4.57,4.57,0,0,1,1.91.34,1.94,1.94,0,0,1,1,1.06,5,5,0,0,1,.31,1.95v5.46h1v.75c-.23.06-.51.11-.86.17a6.48,6.48,0,0,1-.91.08,1,1,0,0,1-.64-.14c-.12-.1-.17-.31-.17-.64v-.56a6.28,6.28,0,0,1-1.25.94,3.35,3.35,0,0,1-1.68.42,2.94,2.94,0,0,1-2-.71,2.52,2.52,0,0,1-.81-2A2.48,2.48,0,0,1,455.71,288.08Zm3,3.66a5.33,5.33,0,0,0,1.06-.64v-2.93a5.5,5.5,0,0,0-2.8.57,1.7,1.7,0,0,0-.94,1.49,1.8,1.8,0,0,0,.45,1.35,1.66,1.66,0,0,0,1.21.43A2.43,2.43,0,0,0,458.7,291.74Z"/><path class="cls-1" d="M464.28,292.85a1,1,0,0,1-.32-.78,1.14,1.14,0,0,1,.38-.89,1.25,1.25,0,0,1,.89-.36,1,1,0,0,1,.81.32,1.11,1.11,0,0,1,.28.77,1.17,1.17,0,0,1-.37.9,1.29,1.29,0,0,1-.91.34A1.07,1.07,0,0,1,464.28,292.85Z"/></svg>